<?xml version="1.0" encoding="utf-8"?>
<!-- Created with Hypercube (http://tumic.wz.cz/hypercube) -->

<svg width="200" height="150" viewBox="0 0 200 150" xmlns="http://www.w3.org/2000/svg" baseProfile="tiny">

<g font-family="Helvetica" font-weight="normal">

<g>
	<line x1="169" y1="135" x2="185" y2="106" stroke="#5202fd" stroke-width="2"/>
</g>
<g>
	<line x1="169" y1="135" x2="125" y2="135" stroke="#5202fd" stroke-width="2"/>
</g>
<g>
	<line x1="169" y1="135" x2="164" y2="82" stroke="#5202fd" stroke-width="2"/>
</g>
<g>
	<line x1="185" y1="106" x2="145" y2="108" stroke="#5202fd" stroke-width="2"/>
</g>
<g>
	<line x1="185" y1="106" x2="185" y2="57" stroke="#5202fd" stroke-width="2"/>
</g>
<g>
	<line x1="145" y1="108" x2="125" y2="135" stroke="#5202fd" stroke-width="2"/>
</g>
<g>
	<line x1="145" y1="108" x2="142" y2="55" stroke="#5202fd" stroke-width="2"/>
</g>
<g>
	<line x1="125" y1="135" x2="119" y2="87" stroke="#5202fd" stroke-width="2"/>
</g>
<g>
	<line x1="164" y1="82" x2="185" y2="57" stroke="#5202fd" stroke-width="2"/>
</g>
<g>
	<line x1="164" y1="82" x2="119" y2="87" stroke="#5202fd" stroke-width="2"/>
</g>
<g>
	<line x1="185" y1="57" x2="142" y2="55" stroke="#5202fd" stroke-width="2"/>
</g>
<g>
	<line x1="142" y1="55" x2="119" y2="87" stroke="#5202fd" stroke-width="2"/>
</g>
<g>
	<line x1="22" y1="5" x2="5" y2="34" stroke="#02fd0c" stroke-width="2"/>
</g>
<g>
	<line x1="22" y1="5" x2="67" y2="5" stroke="#02fd0c" stroke-width="2"/>
</g>
<g>
	<line x1="22" y1="5" x2="27" y2="57" stroke="#02fd0c" stroke-width="2"/>
</g>
<g>
	<line x1="5" y1="34" x2="46" y2="31" stroke="#02fd0c" stroke-width="2"/>
</g>
<g>
	<line x1="5" y1="34" x2="5" y2="83" stroke="#02fd0c" stroke-width="2"/>
</g>
<g>
	<line x1="46" y1="31" x2="67" y2="5" stroke="#02fd0c" stroke-width="2"/>
</g>
<g>
	<line x1="46" y1="31" x2="49" y2="85" stroke="#02fd0c" stroke-width="2"/>
</g>
<g>
	<line x1="67" y1="5" x2="72" y2="53" stroke="#02fd0c" stroke-width="2"/>
</g>
<g>
	<line x1="27" y1="57" x2="5" y2="83" stroke="#02fd0c" stroke-width="2"/>
</g>
<g>
	<line x1="27" y1="57" x2="72" y2="53" stroke="#02fd0c" stroke-width="2"/>
</g>
<g>
	<line x1="5" y1="83" x2="49" y2="85" stroke="#02fd0c" stroke-width="2"/>
</g>
<g>
	<line x1="49" y1="85" x2="72" y2="53" stroke="#02fd0c" stroke-width="2"/>
</g>

<g fill="#000000">
	<circle cx="169" cy="135" r="5"/>
	<text x="174" y="145" font-size="14">0</text>
</g>
<g fill="#000000">
	<circle cx="185" cy="106" r="5"/>
	<text x="190" y="116" font-size="14">1</text>
</g>
<g fill="#000000">
	<circle cx="125" cy="135" r="5"/>
	<text x="130" y="145" font-size="14">3</text>
</g>
<g fill="#000000">
	<circle cx="164" cy="82" r="5"/>
	<text x="169" y="92" font-size="14">4</text>
</g>
<g fill="#000000">
	<circle cx="145" cy="108" r="5"/>
	<text x="150" y="118" font-size="14">2</text>
</g>
<g fill="#000000">
	<circle cx="185" cy="57" r="5"/>
	<text x="190" y="67" font-size="14">5</text>
</g>
<g fill="#000000">
	<circle cx="142" cy="55" r="5"/>
	<text x="147" y="65" font-size="14">6</text>
</g>
<g fill="#000000">
	<circle cx="119" cy="87" r="5"/>
	<text x="124" y="97" font-size="14">7</text>
</g>
<g fill="#000000">
	<circle cx="22" cy="5" r="5"/>
	<text x="27" y="15" font-size="14">8</text>
</g>
<g fill="#000000">
	<circle cx="5" cy="34" r="5"/>
	<text x="10" y="44" font-size="14">9</text>
</g>
<g fill="#000000">
	<circle cx="67" cy="5" r="5"/>
	<text x="72" y="15" font-size="14">11</text>
</g>
<g fill="#000000">
	<circle cx="27" cy="57" r="5"/>
	<text x="32" y="67" font-size="14">12</text>
</g>
<g fill="#000000">
	<circle cx="46" cy="31" r="5"/>
	<text x="51" y="41" font-size="14">10</text>
</g>
<g fill="#000000">
	<circle cx="5" cy="83" r="5"/>
	<text x="10" y="93" font-size="14">13</text>
</g>
<g fill="#000000">
	<circle cx="49" cy="85" r="5"/>
	<text x="54" y="95" font-size="14">14</text>
</g>
<g fill="#000000">
	<circle cx="72" cy="53" r="5"/>
	<text x="77" y="63" font-size="14">15</text>
</g>

</g>

</svg>
