<?xml version="1.0" encoding="utf-8"?>
<!-- Created with Hypercube (http://tumic.wz.cz/hypercube) -->

<svg width="240" height="180" viewBox="0 0 240 180" xmlns="http://www.w3.org/2000/svg" baseProfile="tiny">

<g font-family="Helvetica" font-weight="normal">

<g>
	<line x1="66" y1="153" x2="21" y2="103" stroke="#aaff00" stroke-width="2"/>
</g>
<g>
	<line x1="66" y1="153" x2="75" y2="67" stroke="#aaff00" stroke-width="2"/>
</g>
<g>
	<line x1="66" y1="153" x2="148" y2="152" stroke="#aaff00" stroke-width="2"/>
</g>
<g>
	<line x1="21" y1="103" x2="37" y2="22" stroke="#aaff00" stroke-width="2"/>
</g>
<g>
	<line x1="21" y1="103" x2="116" y2="105" stroke="#aaff00" stroke-width="2"/>
</g>
<g>
	<line x1="37" y1="22" x2="75" y2="67" stroke="#aaff00" stroke-width="2"/>
</g>
<g>
	<line x1="37" y1="22" x2="122" y2="20" stroke="#aaff00" stroke-width="2"/>
</g>
<g>
	<line x1="75" y1="67" x2="171" y2="70" stroke="#aaff00" stroke-width="2"/>
</g>
<g>
	<line x1="171" y1="70" x2="148" y2="152" stroke="#aaff00" stroke-width="2"/>
</g>
<g>
	<line x1="171" y1="70" x2="122" y2="20" stroke="#aaff00" stroke-width="2"/>
</g>
<g>
	<line x1="148" y1="152" x2="116" y2="105" stroke="#aaff00" stroke-width="2"/>
</g>
<g>
	<line x1="116" y1="105" x2="122" y2="20" stroke="#aaff00" stroke-width="2"/>
</g>

<g fill="#000000">
	<circle cx="65" cy="152" r="5"/>
	<text x="70.5" y="163" font-size="14">ноль</text>
</g>
<g fill="#000000">
	<circle cx="20" cy="102" r="5"/>
	<text x="25.5" y="113" font-size="14">одна</text>
</g>
<g fill="#000000">
	<circle cx="74" cy="66" r="5"/>
	<text x="79.5" y="77" font-size="14">трое</text>
</g>
<g fill="#000000">
	<circle cx="147" cy="151" r="5"/>
	<text x="152.5" y="162" font-size="14">пять</text>
</g>
<g fill="#000000">
	<circle cx="36" cy="21" r="5"/>
	<text x="41.5" y="32" font-size="14">две</text>
</g>
<g fill="#000000">
	<circle cx="115" cy="104" r="5"/>
	<text x="120.5" y="115" font-size="14">шесть</text>
</g>
<g fill="#000000">
	<circle cx="121" cy="19" r="5"/>
	<text x="126.5" y="30" font-size="14">семь</text>
</g>
<g fill="#000000">
	<circle cx="170" cy="69" r="5"/>
	<text x="175.5" y="80" font-size="14">четыре</text>
</g>

</g>

</svg>
