<?xml version="1.0" encoding="utf-8"?>
<!-- Created with Hypercube (http://tumic.wz.cz/hypercube) -->

<svg width="320" height="240" viewBox="0 0 320 240" xmlns="http://www.w3.org/2000/svg" baseProfile="tiny">

<g font-family="Helvetica" font-weight="normal">

<g>
	<polygon points="160,18 167,11 169,21" fill="#00aaff"/>
	<line x1="214" y1="5" x2="168" y2="16" stroke="#00aaff" stroke-width="2"/>
</g>
<g>
	<polygon points="230,54 223,48 232,44" fill="#00aaff"/>
	<line x1="214" y1="5" x2="228" y2="47" stroke="#00aaff" stroke-width="2"/>
</g>
<g>
	<polygon points="97,34 104,27 106,36" fill="#00aaff"/>
	<line x1="155" y1="19" x2="105" y2="32" stroke="#00aaff" stroke-width="2"/>
</g>
<g>
	<polygon points="170,71 162,64 172,61" fill="#00aaff"/>
	<line x1="155" y1="19" x2="167" y2="63" stroke="#00aaff" stroke-width="2"/>
</g>
<g>
	<polygon points="39,52 46,44 49,54" fill="#00aaff"/>
	<line x1="92" y1="35" x2="46" y2="49" stroke="#00aaff" stroke-width="2"/>
</g>
<g>
	<polygon points="108,89 100,82 110,79" fill="#00aaff"/>
	<line x1="92" y1="35" x2="105" y2="82" stroke="#00aaff" stroke-width="2"/>
</g>
<g>
	<polygon points="49,105 41,98 51,95" fill="#00aaff"/>
	<line x1="34" y1="53" x2="46" y2="97" stroke="#00aaff" stroke-width="2"/>
</g>
<g>
	<polygon points="176,75 183,68 186,77" fill="#00aaff"/>
	<line x1="232" y1="59" x2="184" y2="73" stroke="#00aaff" stroke-width="2"/>
</g>
<g>
	<polygon points="252,113 245,107 254,103" fill="#00aaff"/>
	<line x1="232" y1="59" x2="249" y2="106" stroke="#00aaff" stroke-width="2"/>
</g>
<g>
	<polygon points="114,93 121,85 124,95" fill="#00aaff"/>
	<line x1="171" y1="76" x2="121" y2="90" stroke="#00aaff" stroke-width="2"/>
</g>
<g>
	<polygon points="192,132 185,126 194,122" fill="#00aaff"/>
	<line x1="171" y1="76" x2="189" y2="125" stroke="#00aaff" stroke-width="2"/>
</g>
<g>
	<polygon points="129,151 122,145 131,141" fill="#00aaff"/>
	<line x1="109" y1="94" x2="127" y2="144" stroke="#00aaff" stroke-width="2"/>
</g>
<g>
	<polygon points="55,109 62,102 64,111" fill="#00aaff"/>
	<line x1="109" y1="94" x2="63" y2="107" stroke="#00aaff" stroke-width="2"/>
</g>
<g>
	<polygon points="69,165 62,159 71,155" fill="#00aaff"/>
	<line x1="50" y1="110" x2="67" y2="158" stroke="#00aaff" stroke-width="2"/>
</g>
<g>
	<polygon points="268,173 261,166 271,164" fill="#00aaff"/>
	<line x1="254" y1="118" x2="266" y2="165" stroke="#00aaff" stroke-width="2"/>
</g>
<g>
	<polygon points="199,135 206,128 209,138" fill="#00aaff"/>
	<line x1="254" y1="118" x2="206" y2="133" stroke="#00aaff" stroke-width="2"/>
</g>
<g>
	<polygon points="211,193 203,186 213,183" fill="#00aaff"/>
	<line x1="194" y1="137" x2="208" y2="186" stroke="#00aaff" stroke-width="2"/>
</g>
<g>
	<polygon points="136,155 143,147 146,157" fill="#00aaff"/>
	<line x1="194" y1="137" x2="143" y2="152" stroke="#00aaff" stroke-width="2"/>
</g>
<g>
	<polygon points="149,211 142,205 151,201" fill="#00aaff"/>
	<line x1="131" y1="156" x2="147" y2="204" stroke="#00aaff" stroke-width="2"/>
</g>
<g>
	<polygon points="76,169 83,162 85,172" fill="#00aaff"/>
	<line x1="131" y1="156" x2="84" y2="167" stroke="#00aaff" stroke-width="2"/>
</g>
<g>
	<polygon points="89,220 82,214 91,210" fill="#00aaff"/>
	<line x1="71" y1="170" x2="87" y2="213" stroke="#00aaff" stroke-width="2"/>
</g>
<g>
	<polygon points="217,196 223,189 227,198" fill="#00aaff"/>
	<line x1="269" y1="178" x2="224" y2="194" stroke="#00aaff" stroke-width="2"/>
</g>
<g>
	<polygon points="156,215 163,207 166,217" fill="#00aaff"/>
	<line x1="212" y1="198" x2="163" y2="212" stroke="#00aaff" stroke-width="2"/>
</g>
<g>
	<polygon points="96,224 104,218 105,228" fill="#00aaff"/>
	<line x1="151" y1="216" x2="104" y2="223" stroke="#00aaff" stroke-width="2"/>
</g>

<g fill="#000000">
	<circle cx="214" cy="5" r="5"/>
	<text x="219" y="15" font-size="14">0</text>
</g>
<g fill="#000000">
	<circle cx="155" cy="19" r="5"/>
	<text x="160" y="29" font-size="14">1</text>
</g>
<g fill="#000000">
	<circle cx="232" cy="59" r="5"/>
	<text x="237" y="69" font-size="14">4</text>
</g>
<g fill="#000000">
	<circle cx="92" cy="35" r="5"/>
	<text x="97" y="45" font-size="14">2</text>
</g>
<g fill="#000000">
	<circle cx="171" cy="76" r="5"/>
	<text x="176" y="86" font-size="14">5</text>
</g>
<g fill="#000000">
	<circle cx="34" cy="53" r="5"/>
	<text x="39" y="63" font-size="14">3</text>
</g>
<g fill="#000000">
	<circle cx="109" cy="94" r="5"/>
	<text x="114" y="104" font-size="14">6</text>
</g>
<g fill="#000000">
	<circle cx="50" cy="110" r="5"/>
	<text x="55" y="120" font-size="14">7</text>
</g>
<g fill="#000000">
	<circle cx="254" cy="118" r="5"/>
	<text x="259" y="128" font-size="14">8</text>
</g>
<g fill="#000000">
	<circle cx="194" cy="137" r="5"/>
	<text x="199" y="147" font-size="14">9</text>
</g>
<g fill="#000000">
	<circle cx="131" cy="156" r="5"/>
	<text x="136" y="166" font-size="14">10</text>
</g>
<g fill="#000000">
	<circle cx="71" cy="170" r="5"/>
	<text x="76" y="180" font-size="14">11</text>
</g>
<g fill="#000000">
	<circle cx="269" cy="178" r="5"/>
	<text x="274" y="188" font-size="14">12</text>
</g>
<g fill="#000000">
	<circle cx="212" cy="198" r="5"/>
	<text x="217" y="208" font-size="14">13</text>
</g>
<g fill="#000000">
	<circle cx="151" cy="216" r="5"/>
	<text x="156" y="226" font-size="14">14</text>
</g>
<g fill="#000000">
	<circle cx="91" cy="225" r="5"/>
	<text x="96" y="235" font-size="14">15</text>
</g>

</g>

</svg>
