<?xml version="1.0" encoding="utf-8"?>
<!-- Created with Hypercube (http://tumic.wz.cz/hypercube) -->

<svg width="200" height="150" viewBox="0 0 200 150" xmlns="http://www.w3.org/2000/svg" baseProfile="tiny">

<g font-family="Helvetica" font-weight="normal">

<g>
	<line x1="126" y1="18" x2="114" y2="84" stroke="#5202fd" stroke-width="2"/>
</g>
<g>
	<line x1="126" y1="18" x2="69" y2="14" stroke="#5202fd" stroke-width="2"/>
</g>
<g>
	<line x1="126" y1="18" x2="121" y2="54" stroke="#5202fd" stroke-width="2"/>
</g>
<g>
	<line x1="114" y1="84" x2="51" y2="77" stroke="#5202fd" stroke-width="2"/>
</g>
<g>
	<line x1="114" y1="84" x2="107" y2="117" stroke="#5202fd" stroke-width="2"/>
</g>
<g>
	<line x1="51" y1="77" x2="69" y2="14" stroke="#5202fd" stroke-width="2"/>
</g>
<g>
	<line x1="51" y1="77" x2="45" y2="109" stroke="#5202fd" stroke-width="2"/>
</g>
<g>
	<line x1="69" y1="14" x2="56" y2="46" stroke="#5202fd" stroke-width="2"/>
</g>
<g>
	<line x1="121" y1="54" x2="107" y2="117" stroke="#5202fd" stroke-width="2"/>
</g>
<g>
	<line x1="121" y1="54" x2="56" y2="46" stroke="#5202fd" stroke-width="2"/>
</g>
<g>
	<line x1="107" y1="117" x2="45" y2="109" stroke="#5202fd" stroke-width="2"/>
</g>
<g>
	<line x1="45" y1="109" x2="56" y2="46" stroke="#5202fd" stroke-width="2"/>
</g>
<g>
	<line x1="155" y1="41" x2="144" y2="103" stroke="#02fd0c" stroke-width="2"/>
</g>
<g>
	<line x1="155" y1="41" x2="95" y2="34" stroke="#02fd0c" stroke-width="2"/>
</g>
<g>
	<line x1="155" y1="41" x2="153" y2="74" stroke="#02fd0c" stroke-width="2"/>
</g>
<g>
	<line x1="144" y1="103" x2="81" y2="97" stroke="#02fd0c" stroke-width="2"/>
</g>
<g>
	<line x1="144" y1="103" x2="134" y2="136" stroke="#02fd0c" stroke-width="2"/>
</g>
<g>
	<line x1="81" y1="97" x2="95" y2="34" stroke="#02fd0c" stroke-width="2"/>
</g>
<g>
	<line x1="81" y1="97" x2="75" y2="132" stroke="#02fd0c" stroke-width="2"/>
</g>
<g>
	<line x1="95" y1="34" x2="86" y2="66" stroke="#02fd0c" stroke-width="2"/>
</g>
<g>
	<line x1="153" y1="74" x2="134" y2="136" stroke="#02fd0c" stroke-width="2"/>
</g>
<g>
	<line x1="153" y1="74" x2="86" y2="66" stroke="#02fd0c" stroke-width="2"/>
</g>
<g>
	<line x1="134" y1="136" x2="75" y2="132" stroke="#02fd0c" stroke-width="2"/>
</g>
<g>
	<line x1="75" y1="132" x2="86" y2="66" stroke="#02fd0c" stroke-width="2"/>
</g>
<g>
	<line x1="121" y1="54" x2="153" y2="74" stroke="#fd023e" stroke-width="2"/>
</g>
<g>
	<line x1="56" y1="46" x2="86" y2="66" stroke="#fd023e" stroke-width="2"/>
</g>
<g>
	<line x1="107" y1="117" x2="134" y2="136" stroke="#fd023e" stroke-width="2"/>
</g>
<g>
	<line x1="45" y1="109" x2="75" y2="132" stroke="#fd023e" stroke-width="2"/>
</g>
<g>
	<line x1="126" y1="18" x2="155" y2="41" stroke="#fd023e" stroke-width="2"/>
</g>
<g>
	<line x1="69" y1="14" x2="95" y2="34" stroke="#fd023e" stroke-width="2"/>
</g>
<g>
	<line x1="114" y1="84" x2="144" y2="103" stroke="#fd023e" stroke-width="2"/>
</g>
<g>
	<line x1="51" y1="77" x2="81" y2="97" stroke="#fd023e" stroke-width="2"/>
</g>

<g fill="#000000">
	<circle cx="125" cy="17" r="4"/>
</g>
<g fill="#000000">
	<circle cx="113" cy="83" r="4"/>
</g>
<g fill="#000000">
	<circle cx="68" cy="13" r="4"/>
</g>
<g fill="#000000">
	<circle cx="120" cy="53" r="4"/>
</g>
<g fill="#000000">
	<circle cx="50" cy="76" r="4"/>
</g>
<g fill="#000000">
	<circle cx="106" cy="116" r="4"/>
</g>
<g fill="#000000">
	<circle cx="44" cy="108" r="4"/>
</g>
<g fill="#000000">
	<circle cx="55" cy="45" r="4"/>
</g>
<g fill="#000000">
	<circle cx="154" cy="40" r="4"/>
</g>
<g fill="#000000">
	<circle cx="143" cy="102" r="4"/>
</g>
<g fill="#000000">
	<circle cx="94" cy="33" r="4"/>
</g>
<g fill="#000000">
	<circle cx="152" cy="73" r="4"/>
</g>
<g fill="#000000">
	<circle cx="80" cy="96" r="4"/>
</g>
<g fill="#000000">
	<circle cx="133" cy="135" r="4"/>
</g>
<g fill="#000000">
	<circle cx="74" cy="131" r="4"/>
</g>
<g fill="#000000">
	<circle cx="85" cy="65" r="4"/>
</g>

</g>

</svg>
