<?xml version="1.0" encoding="utf-8"?>
<!-- Created with Hypercube (http://tumic.wz.cz/hypercube) -->

<svg width="180" height="135" viewBox="0 0 180 135" xmlns="http://www.w3.org/2000/svg" baseProfile="tiny">

<g font-family="Helvetica" font-weight="normal">

<g>
	<polygon points="62,111 52,108 59,102" fill="#5202fd"/>
	<line x1="13" y1="58" x2="56" y2="105" stroke="#5202fd" stroke-width="2"/>
</g>
<g>
	<polygon points="10,120 18,114 19,124" fill="#02fd0c"/>
	<line x1="65" y1="115" x2="18" y2="119" stroke="#02fd0c" stroke-width="2"/>
</g>
<g>
	<polygon points="16,54 18,44 26,51" fill="#fd023e"/>
	<line x1="57" y1="5" x2="21" y2="48" stroke="#fd023e" stroke-width="2"/>
</g>
<g>
	<polygon points="6,115 2,106 12,107" fill="#0285fd"/>
	<line x1="13" y1="58" x2="7" y2="107" stroke="#0285fd" stroke-width="2"/>
</g>
<g>
	<polygon points="118,72 114,63 124,64" fill="#5202fd"/>
	<line x1="129" y1="8" x2="119" y2="64" stroke="#5202fd" stroke-width="2"/>
</g>
<g>
	<polygon points="69,112 73,103 79,111" fill="#cbfd02"/>
	<line x1="117" y1="77" x2="75" y2="107" stroke="#cbfd02" stroke-width="2"/>
</g>
<g>
	<polygon points="62,5 71,1 70,11" fill="#fd023e"/>
	<line x1="129" y1="8" x2="70" y2="6" stroke="#fd023e" stroke-width="2"/>
</g>

<g fill="#000000">
	<circle cx="13" cy="58" r="5"/>
	<text x="18" y="68" font-size="14">Alfa</text>
</g>
<g fill="#000000">
	<circle cx="65" cy="115" r="5"/>
	<text x="70" y="125" font-size="14">Bravo</text>
</g>
<g fill="#000000">
	<circle cx="5" cy="120" r="5"/>
	<text x="10" y="130" font-size="14">Charlie</text>
</g>
<g fill="#000000">
	<circle cx="57" cy="5" r="5"/>
	<text x="62" y="15" font-size="14">Delta</text>
</g>
<g fill="#000000">
	<circle cx="129" cy="8" r="5"/>
	<text x="134" y="18" font-size="14">Echo</text>
</g>
<g fill="#000000">
	<circle cx="117" cy="77" r="5"/>
	<text x="122" y="87" font-size="14">Foxtrot</text>
</g>

</g>

</svg>
