<?xml version="1.0" encoding="utf-8"?>
<!-- Created with Hypercube (http://tumic.wz.cz/hypercube) -->

<svg width="400" height="300" viewBox="0 0 400 300" xmlns="http://www.w3.org/2000/svg" baseProfile="tiny">

<g font-family="Helvetica" font-weight="normal">

<g>
	<polygon points="265,238 274,236 271,244" fill="#aaff00"/>
	<line x1="317" y1="254" x2="272" y2="240" stroke="#aaff00" stroke-width="2"/>
</g>
<g>
	<polygon points="208,232 216,228 215,237" fill="#aaff00"/>
	<line x1="261" y1="237" x2="215" y2="233" stroke="#aaff00" stroke-width="2"/>
</g>
<g>
	<polygon points="234,194 242,199 234,203" fill="#aaff00"/>
	<line x1="261" y1="237" x2="238" y2="200" stroke="#aaff00" stroke-width="2"/>
</g>
<g>
	<polygon points="229,194 228,203 221,198" fill="#aaff00"/>
	<line x1="204" y1="232" x2="225" y2="200" stroke="#aaff00" stroke-width="2"/>
</g>
<g>
	<polygon points="175,183 183,188 175,192" fill="#aaff00"/>
	<line x1="204" y1="232" x2="178" y2="190" stroke="#aaff00" stroke-width="2"/>
</g>
<g>
	<polygon points="177,180 185,177 184,186" fill="#aaff00"/>
	<line x1="232" y1="191" x2="184" y2="182" stroke="#aaff00" stroke-width="2"/>
</g>
<g>
	<polygon points="120,157 129,156 125,164" fill="#aaff00"/>
	<line x1="173" y1="180" x2="126" y2="160" stroke="#aaff00" stroke-width="2"/>
</g>
<g>
	<polygon points="159,122 165,128 156,131" fill="#aaff00"/>
	<line x1="173" y1="180" x2="160" y2="129" stroke="#aaff00" stroke-width="2"/>
</g>
<g>
	<polygon points="154,121 151,129 145,122" fill="#aaff00"/>
	<line x1="116" y1="156" x2="149" y2="125" stroke="#aaff00" stroke-width="2"/>
</g>
<g>
	<polygon points="87,103 94,108 87,112" fill="#aaff00"/>
	<line x1="116" y1="156" x2="90" y2="110" stroke="#aaff00" stroke-width="2"/>
</g>
<g>
	<polygon points="113,50 121,54 114,59" fill="#aaff00"/>
	<line x1="158" y1="118" x2="117" y2="56" stroke="#aaff00" stroke-width="2"/>
</g>
<g>
	<polygon points="136,85 144,89 137,94" fill="#aaff00"/>
	<line x1="158" y1="118" x2="140" y2="91" stroke="#aaff00" stroke-width="2"/>
</g>
<g>
	<polygon points="131,78 123,74 131,69" fill="#aaff00"/>
	<line x1="111" y1="47" x2="127" y2="72" stroke="#aaff00" stroke-width="2"/>
</g>
<g>
	<polygon points="86,95 86,86 94,90" fill="#aaff00"/>
	<line x1="111" y1="47" x2="90" y2="89" stroke="#aaff00" stroke-width="2"/>
</g>
<g>
	<polygon points="89,98 94,91 98,99" fill="#aaff00"/>
	<line x1="134" y1="82" x2="95" y2="95" stroke="#aaff00" stroke-width="2"/>
</g>

<g fill="#000000">
	<circle cx="316" cy="253" r="4"/>
</g>
<g fill="#000000">
	<circle cx="260" cy="236" r="4"/>
</g>
<g fill="#000000">
	<circle cx="203" cy="231" r="4"/>
</g>
<g fill="#000000">
	<circle cx="231" cy="190" r="4"/>
</g>
<g fill="#000000">
	<circle cx="115" cy="155" r="4"/>
</g>
<g fill="#000000">
	<circle cx="157" cy="117" r="4"/>
</g>
<g fill="#000000">
	<circle cx="110" cy="46" r="4"/>
</g>
<g fill="#000000">
	<circle cx="133" cy="81" r="4"/>
</g>
<g fill="#000000">
	<circle cx="172" cy="179" r="4"/>
</g>
<g fill="#000000">
	<circle cx="84" cy="99" r="4"/>
</g>

</g>

</svg>
