<?xml version="1.0" encoding="utf-8"?>
<!-- Created with Hypercube (http://tumic.wz.cz/hypercube) -->

<svg width="400" height="300" viewBox="0 0 400 300" xmlns="http://www.w3.org/2000/svg" baseProfile="tiny">

<g font-family="Helvetica" font-weight="normal">

<g>
	<polygon points="198,153 206,157 199,162" fill="#aaff00"/>
	<line x1="245" y1="218" x2="202" y2="159" stroke="#aaff00" stroke-width="2"/>
</g>
<g>
	<polygon points="262,163 254,166 255,157" fill="#aaff00"/>
	<line x1="196" y1="150" x2="255" y2="161" stroke="#aaff00" stroke-width="2"/>
</g>
<g>
	<polygon points="186,213 183,205 192,206" fill="#aaff00"/>
	<line x1="196" y1="150" x2="187" y2="206" stroke="#aaff00" stroke-width="2"/>
</g>
<g>
	<polygon points="143,199 145,191 152,197" fill="#aaff00"/>
	<line x1="196" y1="150" x2="148" y2="194" stroke="#aaff00" stroke-width="2"/>
</g>
<g>
	<polygon points="138,156 145,151 146,160" fill="#aaff00"/>
	<line x1="196" y1="150" x2="145" y2="155" stroke="#aaff00" stroke-width="2"/>
</g>
<g>
	<polygon points="138,112 147,112 142,120" fill="#aaff00"/>
	<line x1="196" y1="150" x2="144" y2="116" stroke="#aaff00" stroke-width="2"/>
</g>
<g>
	<polygon points="173,86 180,92 171,95" fill="#aaff00"/>
	<line x1="196" y1="150" x2="175" y2="93" stroke="#aaff00" stroke-width="2"/>
</g>
<g>
	<polygon points="214,92 216,101 207,98" fill="#aaff00"/>
	<line x1="196" y1="150" x2="212" y2="99" stroke="#aaff00" stroke-width="2"/>
</g>
<g>
	<polygon points="255,109 251,117 246,110" fill="#aaff00"/>
	<line x1="196" y1="150" x2="249" y2="113" stroke="#aaff00" stroke-width="2"/>
</g>
<g>
	<polygon points="144,204 153,202 150,211" fill="#aaff00"/>
	<line x1="186" y1="218" x2="151" y2="206" stroke="#aaff00" stroke-width="2"/>
</g>
<g>
	<polygon points="134,161 140,168 131,169" fill="#aaff00"/>
	<line x1="140" y1="203" x2="135" y2="168" stroke="#aaff00" stroke-width="2"/>
</g>
<g>
	<polygon points="134,114 139,122 130,122" fill="#aaff00"/>
	<line x1="134" y1="157" x2="134" y2="121" stroke="#aaff00" stroke-width="2"/>
</g>
<g>
	<polygon points="168,84 164,93 159,85" fill="#aaff00"/>
	<line x1="135" y1="110" x2="162" y2="89" stroke="#aaff00" stroke-width="2"/>
</g>
<g>
	<polygon points="211,87 203,90 204,81" fill="#aaff00"/>
	<line x1="172" y1="82" x2="204" y2="86" stroke="#aaff00" stroke-width="2"/>
</g>
<g>
	<polygon points="254,105 245,106 249,97" fill="#aaff00"/>
	<line x1="216" y1="88" x2="248" y2="102" stroke="#aaff00" stroke-width="2"/>
</g>

<g fill="#000000">
	<circle cx="244" cy="217" r="4"/>
</g>
<g fill="#000000">
	<circle cx="195" cy="149" r="4"/>
</g>
<g fill="#000000">
	<circle cx="266" cy="163" r="4"/>
</g>
<g fill="#000000">
	<circle cx="185" cy="217" r="4"/>
</g>
<g fill="#000000">
	<circle cx="139" cy="202" r="4"/>
</g>
<g fill="#000000">
	<circle cx="133" cy="156" r="4"/>
</g>
<g fill="#000000">
	<circle cx="134" cy="109" r="4"/>
</g>
<g fill="#000000">
	<circle cx="171" cy="81" r="4"/>
</g>
<g fill="#000000">
	<circle cx="215" cy="87" r="4"/>
</g>
<g fill="#000000">
	<circle cx="258" cy="106" r="4"/>
</g>

</g>

</svg>
