<?xml version="1.0" encoding="utf-8"?>
<!-- Created with Hypercube (http://tumic.wz.cz/hypercube) -->

<svg width="400" height="300" viewBox="0 0 400 300" xmlns="http://www.w3.org/2000/svg" baseProfile="tiny">

<g font-family="Helvetica" font-weight="normal">

<g>
	<polygon points="284,51 285,60 277,56" fill="#aaff00"/>
	<line x1="252" y1="114" x2="281" y2="58" stroke="#aaff00" stroke-width="2"/>
</g>
<g>
	<polygon points="320,126 312,129 313,120" fill="#aaff00"/>
	<line x1="252" y1="114" x2="313" y2="124" stroke="#aaff00" stroke-width="2"/>
</g>
<g>
	<polygon points="288,52 294,58 286,61" fill="#aaff00"/>
	<line x1="300" y1="92" x2="290" y2="59" stroke="#aaff00" stroke-width="2"/>
</g>
<g>
	<polygon points="322,123 314,119 321,114" fill="#aaff00"/>
	<line x1="300" y1="92" x2="318" y2="117" stroke="#aaff00" stroke-width="2"/>
</g>
<g>
	<polygon points="291,49 300,47 297,55" fill="#aaff00"/>
	<line x1="350" y1="66" x2="298" y2="51" stroke="#aaff00" stroke-width="2"/>
</g>
<g>
	<polygon points="326,122 325,113 333,117" fill="#aaff00"/>
	<line x1="350" y1="66" x2="329" y2="116" stroke="#aaff00" stroke-width="2"/>
</g>
<g>
	<polygon points="248,116 243,124 239,116" fill="#aaff00"/>
	<line x1="197" y1="147" x2="241" y2="120" stroke="#aaff00" stroke-width="2"/>
</g>
<g>
	<polygon points="94,198 99,191 103,199" fill="#aaff00"/>
	<line x1="147" y1="179" x2="100" y2="195" stroke="#aaff00" stroke-width="2"/>
</g>
<g>
	<polygon points="87,203 88,212 80,208" fill="#aaff00"/>
	<line x1="63" y1="252" x2="84" y2="210" stroke="#aaff00" stroke-width="2"/>
</g>
<g>
	<polygon points="86,196 78,194 84,187" fill="#aaff00"/>
	<line x1="50" y1="157" x2="82" y2="191" stroke="#aaff00" stroke-width="2"/>
</g>
<g>
	<polygon points="150,176 154,168 159,176" fill="#aaff00"/>
	<line x1="197" y1="147" x2="156" y2="172" stroke="#aaff00" stroke-width="2"/>
</g>

<g fill="#000000">
	<circle cx="286" cy="47" r="4"/>
</g>
<g fill="#000000">
	<circle cx="251" cy="113" r="4"/>
</g>
<g fill="#000000">
	<circle cx="324" cy="126" r="4"/>
</g>
<g fill="#000000">
	<circle cx="89" cy="199" r="4"/>
</g>
<g fill="#000000">
	<circle cx="299" cy="91" r="4"/>
</g>
<g fill="#000000">
	<circle cx="349" cy="65" r="4"/>
</g>
<g fill="#000000">
	<circle cx="196" cy="146" r="4"/>
</g>
<g fill="#000000">
	<circle cx="146" cy="178" r="4"/>
</g>
<g fill="#000000">
	<circle cx="62" cy="251" r="4"/>
</g>
<g fill="#000000">
	<circle cx="49" cy="156" r="4"/>
</g>

</g>

</svg>
