<?xml version="1.0" encoding="utf-8"?>
<!-- Created with Hypercube (http://tumic.wz.cz/hypercube) -->

<svg width="400" height="300" viewBox="0 0 400 300" xmlns="http://www.w3.org/2000/svg" baseProfile="tiny">

<g font-family="Helvetica" font-weight="normal">

<g>
	<polygon points="173,174 176,183 167,180" fill="#aaff00"/>
	<line x1="162" y1="221" x2="172" y2="181" stroke="#aaff00" stroke-width="2"/>
</g>
<g>
	<polygon points="210,176 208,184 201,178" fill="#aaff00"/>
	<line x1="162" y1="221" x2="205" y2="180" stroke="#aaff00" stroke-width="2"/>
</g>
<g>
	<polygon points="209,172 201,176 202,167" fill="#aaff00"/>
	<line x1="175" y1="170" x2="202" y2="172" stroke="#aaff00" stroke-width="2"/>
</g>
<g>
	<polygon points="201,139 199,148 192,142" fill="#aaff00"/>
	<line x1="175" y1="170" x2="196" y2="144" stroke="#aaff00" stroke-width="2"/>
</g>
<g>
	<polygon points="252,176 244,180 245,171" fill="#aaff00"/>
	<line x1="175" y1="170" x2="245" y2="176" stroke="#aaff00" stroke-width="2"/>
</g>
<g>
	<polygon points="227,217 218,216 224,209" fill="#aaff00"/>
	<line x1="175" y1="170" x2="222" y2="213" stroke="#aaff00" stroke-width="2"/>
</g>
<g>
	<polygon points="161,118 167,124 158,127" fill="#aaff00"/>
	<line x1="175" y1="170" x2="163" y2="125" stroke="#aaff00" stroke-width="2"/>
</g>
<g>
	<polygon points="224,112 222,121 215,115" fill="#aaff00"/>
	<line x1="175" y1="170" x2="219" y2="117" stroke="#aaff00" stroke-width="2"/>
</g>
<g>
	<polygon points="205,140 211,146 202,149" fill="#aaff00"/>
	<line x1="214" y1="173" x2="207" y2="147" stroke="#aaff00" stroke-width="2"/>
</g>
<g>
	<polygon points="252,176 244,180 245,171" fill="#aaff00"/>
	<line x1="214" y1="173" x2="245" y2="175" stroke="#aaff00" stroke-width="2"/>
</g>
<g>
	<polygon points="229,216 222,210 231,207" fill="#aaff00"/>
	<line x1="214" y1="173" x2="227" y2="209" stroke="#aaff00" stroke-width="2"/>
</g>
<g>
	<polygon points="163,117 171,120 164,126" fill="#aaff00"/>
	<line x1="214" y1="173" x2="167" y2="122" stroke="#aaff00" stroke-width="2"/>
</g>
<g>
	<polygon points="226,113 228,121 220,120" fill="#aaff00"/>
	<line x1="214" y1="173" x2="224" y2="120" stroke="#aaff00" stroke-width="2"/>
</g>
<g>
	<polygon points="224,112 222,121 215,115" fill="#aaff00"/>
	<line x1="204" y1="136" x2="219" y2="117" stroke="#aaff00" stroke-width="2"/>
</g>
<g>
	<polygon points="255,172 247,167 256,163" fill="#aaff00"/>
	<line x1="227" y1="109" x2="252" y2="166" stroke="#aaff00" stroke-width="2"/>
</g>
<g>
	<polygon points="164,113 171,108 172,117" fill="#aaff00"/>
	<line x1="227" y1="109" x2="171" y2="113" stroke="#aaff00" stroke-width="2"/>
</g>
<g>
	<polygon points="233,217 233,208 241,212" fill="#aaff00"/>
	<line x1="257" y1="177" x2="236" y2="210" stroke="#aaff00" stroke-width="2"/>
</g>
<g>
	<polygon points="283,225 276,220 283,216" fill="#aaff00"/>
	<line x1="257" y1="177" x2="280" y2="218" stroke="#aaff00" stroke-width="2"/>
</g>
<g>
	<polygon points="281,228 273,231 274,222" fill="#aaff00"/>
	<line x1="231" y1="221" x2="274" y2="227" stroke="#aaff00" stroke-width="2"/>
</g>
<g>
	<polygon points="118,76 127,77 121,84" fill="#aaff00"/>
	<line x1="160" y1="114" x2="123" y2="80" stroke="#aaff00" stroke-width="2"/>
</g>

<g fill="#000000">
	<circle cx="161" cy="220" r="4"/>
</g>
<g fill="#000000">
	<circle cx="174" cy="169" r="4"/>
</g>
<g fill="#000000">
	<circle cx="213" cy="172" r="4"/>
</g>
<g fill="#000000">
	<circle cx="203" cy="135" r="4"/>
</g>
<g fill="#000000">
	<circle cx="256" cy="176" r="4"/>
</g>
<g fill="#000000">
	<circle cx="230" cy="220" r="4"/>
</g>
<g fill="#000000">
	<circle cx="159" cy="113" r="4"/>
</g>
<g fill="#000000">
	<circle cx="226" cy="108" r="4"/>
</g>
<g fill="#000000">
	<circle cx="285" cy="228" r="4"/>
</g>
<g fill="#000000">
	<circle cx="114" cy="72" r="4"/>
</g>

</g>

</svg>
