<?xml version="1.0" encoding="utf-8"?>
<!-- Created with Hypercube (http://tumic.wz.cz/hypercube) -->

<svg width="400" height="300" viewBox="0 0 400 300" xmlns="http://www.w3.org/2000/svg" baseProfile="tiny">

<g font-family="Helvetica" font-weight="normal">

<g>
	<polygon points="74,231 77,222 83,229" fill="#aaff00"/>
	<line x1="117" y1="196" x2="80" y2="226" stroke="#aaff00" stroke-width="2"/>
</g>
<g>
	<polygon points="143,143 144,152 136,148" fill="#aaff00"/>
	<line x1="117" y1="196" x2="140" y2="150" stroke="#aaff00" stroke-width="2"/>
</g>
<g>
	<polygon points="37,271 38,262 45,268" fill="#aaff00"/>
	<line x1="71" y1="234" x2="41" y2="266" stroke="#aaff00" stroke-width="2"/>
</g>
<g>
	<polygon points="198,119 193,126 189,118" fill="#aaff00"/>
	<line x1="146" y1="140" x2="192" y2="122" stroke="#aaff00" stroke-width="2"/>
</g>
<g>
	<polygon points="112,101 121,104 114,110" fill="#aaff00"/>
	<line x1="146" y1="140" x2="117" y2="106" stroke="#aaff00" stroke-width="2"/>
</g>
<g>
	<polygon points="253,86 248,94 244,86" fill="#aaff00"/>
	<line x1="203" y1="118" x2="247" y2="90" stroke="#aaff00" stroke-width="2"/>
</g>
<g>
	<polygon points="310,101 301,103 304,94" fill="#aaff00"/>
	<line x1="257" y1="84" x2="303" y2="99" stroke="#aaff00" stroke-width="2"/>
</g>
<g>
	<polygon points="253,30 258,37 249,38" fill="#aaff00"/>
	<line x1="257" y1="84" x2="253" y2="37" stroke="#aaff00" stroke-width="2"/>
</g>
<g>
	<polygon points="362,120 353,122 356,113" fill="#aaff00"/>
	<line x1="315" y1="103" x2="356" y2="117" stroke="#aaff00" stroke-width="2"/>
</g>

<g fill="#000000">
	<circle cx="116" cy="195" r="4"/>
</g>
<g fill="#000000">
	<circle cx="70" cy="233" r="4"/>
</g>
<g fill="#000000">
	<circle cx="145" cy="139" r="4"/>
</g>
<g fill="#000000">
	<circle cx="33" cy="274" r="4"/>
</g>
<g fill="#000000">
	<circle cx="202" cy="117" r="4"/>
</g>
<g fill="#000000">
	<circle cx="109" cy="97" r="4"/>
</g>
<g fill="#000000">
	<circle cx="256" cy="83" r="4"/>
</g>
<g fill="#000000">
	<circle cx="314" cy="102" r="4"/>
</g>
<g fill="#000000">
	<circle cx="252" cy="25" r="4"/>
</g>
<g fill="#000000">
	<circle cx="366" cy="121" r="4"/>
</g>

</g>

</svg>
