<?xml version="1.0" encoding="utf-8"?>
<!-- Created with Hypercube (http://tumic.wz.cz/hypercube) -->

<svg width="400" height="300" viewBox="0 0 400 300" xmlns="http://www.w3.org/2000/svg" baseProfile="tiny">

<g font-family="Helvetica" font-weight="normal">

<g>
	<polygon points="118,67 127,67 123,74" fill="#aaff00"/>
	<line x1="163" y1="92" x2="125" y2="70" stroke="#aaff00" stroke-width="2"/>
</g>
<g>
	<polygon points="165,95 172,100 165,104" fill="#aaff00"/>
	<line x1="195" y1="149" x2="168" y2="102" stroke="#aaff00" stroke-width="2"/>
</g>
<g>
	<polygon points="192,152 191,161 184,156" fill="#aaff00"/>
	<line x1="167" y1="189" x2="188" y2="158" stroke="#aaff00" stroke-width="2"/>
</g>
<g>
	<polygon points="170,191 179,192 174,199" fill="#aaff00"/>
	<line x1="231" y1="236" x2="176" y2="195" stroke="#aaff00" stroke-width="2"/>
</g>
<g>
	<polygon points="203,215 212,216 207,223" fill="#aaff00"/>
	<line x1="231" y1="236" x2="209" y2="219" stroke="#aaff00" stroke-width="2"/>
</g>
<g>
	<polygon points="256,199 255,208 248,203" fill="#aaff00"/>
	<line x1="231" y1="236" x2="252" y2="205" stroke="#aaff00" stroke-width="2"/>
</g>
<g>
	<polygon points="282,162 281,171 274,166" fill="#aaff00"/>
	<line x1="231" y1="236" x2="278" y2="168" stroke="#aaff00" stroke-width="2"/>
</g>
<g>
	<polygon points="226,176 231,183 222,184" fill="#aaff00"/>
	<line x1="231" y1="236" x2="226" y2="183" stroke="#aaff00" stroke-width="2"/>
</g>
<g>
	<polygon points="145,226 153,222 152,231" fill="#aaff00"/>
	<line x1="231" y1="236" x2="152" y2="227" stroke="#aaff00" stroke-width="2"/>
</g>
<g>
	<polygon points="195,153 200,160 191,161" fill="#aaff00"/>
	<line x1="200" y1="213" x2="195" y2="160" stroke="#aaff00" stroke-width="2"/>
</g>
<g>
	<polygon points="198,151 207,152 202,159" fill="#aaff00"/>
	<line x1="259" y1="196" x2="204" y2="155" stroke="#aaff00" stroke-width="2"/>
</g>
<g>
	<polygon points="199,149 207,145 206,154" fill="#aaff00"/>
	<line x1="285" y1="159" x2="206" y2="150" stroke="#aaff00" stroke-width="2"/>
</g>
<g>
	<polygon points="198,151 207,152 202,159" fill="#aaff00"/>
	<line x1="226" y1="172" x2="204" y2="155" stroke="#aaff00" stroke-width="2"/>
</g>
<g>
	<polygon points="192,152 191,161 184,156" fill="#aaff00"/>
	<line x1="141" y1="226" x2="188" y2="158" stroke="#aaff00" stroke-width="2"/>
</g>

<g fill="#000000">
	<circle cx="114" cy="64" r="4"/>
</g>
<g fill="#000000">
	<circle cx="194" cy="148" r="4"/>
</g>
<g fill="#000000">
	<circle cx="162" cy="91" r="4"/>
</g>
<g fill="#000000">
	<circle cx="230" cy="235" r="4"/>
</g>
<g fill="#000000">
	<circle cx="166" cy="188" r="4"/>
</g>
<g fill="#000000">
	<circle cx="199" cy="212" r="4"/>
</g>
<g fill="#000000">
	<circle cx="258" cy="195" r="4"/>
</g>
<g fill="#000000">
	<circle cx="284" cy="158" r="4"/>
</g>
<g fill="#000000">
	<circle cx="225" cy="171" r="4"/>
</g>
<g fill="#000000">
	<circle cx="140" cy="225" r="4"/>
</g>

</g>

</svg>
