<?xml version="1.0" encoding="utf-8"?>
<!-- Created with Hypercube (http://tumic.wz.cz/hypercube) -->

<svg width="400" height="300" viewBox="0 0 400 300" xmlns="http://www.w3.org/2000/svg" baseProfile="tiny">

<g font-family="Helvetica" font-weight="normal">

<g>
	<polygon points="185,180 179,173 188,172" fill="#aaff00"/>
	<line x1="172" y1="110" x2="183" y2="173" stroke="#aaff00" stroke-width="2"/>
</g>
<g>
	<polygon points="141,58 149,63 141,67" fill="#aaff00"/>
	<line x1="172" y1="110" x2="145" y2="65" stroke="#aaff00" stroke-width="2"/>
</g>
<g>
	<polygon points="185,58 188,67 179,64" fill="#aaff00"/>
	<line x1="172" y1="110" x2="183" y2="65" stroke="#aaff00" stroke-width="2"/>
</g>
<g>
	<polygon points="230,80 225,87 221,79" fill="#aaff00"/>
	<line x1="172" y1="110" x2="223" y2="83" stroke="#aaff00" stroke-width="2"/>
</g>
<g>
	<polygon points="113,120 120,114 121,123" fill="#aaff00"/>
	<line x1="172" y1="110" x2="120" y2="118" stroke="#aaff00" stroke-width="2"/>
</g>
<g>
	<polygon points="182,54 174,58 174,49" fill="#aaff00"/>
	<line x1="139" y1="55" x2="175" y2="54" stroke="#aaff00" stroke-width="2"/>
</g>
<g>
	<polygon points="229,75 221,76 225,68" fill="#aaff00"/>
	<line x1="187" y1="54" x2="223" y2="72" stroke="#aaff00" stroke-width="2"/>
</g>
<g>
	<polygon points="288,68 281,74 280,65" fill="#aaff00"/>
	<line x1="234" y1="78" x2="281" y2="69" stroke="#aaff00" stroke-width="2"/>
</g>
<g>
	<polygon points="195,242 189,235 198,234" fill="#aaff00"/>
	<line x1="186" y1="185" x2="194" y2="235" stroke="#aaff00" stroke-width="2"/>
</g>
<g>
	<polygon points="134,208 139,200 143,209" fill="#aaff00"/>
	<line x1="186" y1="185" x2="140" y2="205" stroke="#aaff00" stroke-width="2"/>
</g>
<g>
	<polygon points="241,189 233,193 234,184" fill="#aaff00"/>
	<line x1="186" y1="185" x2="234" y2="189" stroke="#aaff00" stroke-width="2"/>
</g>

<g fill="#000000">
	<circle cx="185" cy="184" r="4"/>
</g>
<g fill="#000000">
	<circle cx="195" cy="246" r="4"/>
</g>
<g fill="#000000">
	<circle cx="129" cy="209" r="4"/>
</g>
<g fill="#000000">
	<circle cx="138" cy="54" r="4"/>
</g>
<g fill="#000000">
	<circle cx="186" cy="53" r="4"/>
</g>
<g fill="#000000">
	<circle cx="233" cy="77" r="4"/>
</g>
<g fill="#000000">
	<circle cx="108" cy="120" r="4"/>
</g>
<g fill="#000000">
	<circle cx="292" cy="67" r="4"/>
</g>
<g fill="#000000">
	<circle cx="171" cy="109" r="4"/>
</g>
<g fill="#000000">
	<circle cx="245" cy="189" r="4"/>
</g>

</g>

</svg>
