<?xml version="1.0" encoding="utf-8"?>
<!-- Created with Hypercube (http://tumic.wz.cz/hypercube) -->

<svg width="400" height="300" viewBox="0 0 400 300" xmlns="http://www.w3.org/2000/svg" baseProfile="tiny">

<g font-family="Helvetica" font-weight="normal">

<g>
	<polygon points="66,93 75,93 71,101" fill="#aaff00"/>
	<line x1="113" y1="120" x2="73" y2="96" stroke="#aaff00" stroke-width="2"/>
</g>
<g>
	<polygon points="117,121 126,119 123,128" fill="#aaff00"/>
	<line x1="173" y1="139" x2="124" y2="123" stroke="#aaff00" stroke-width="2"/>
</g>
<g>
	<polygon points="173,143 177,151 168,151" fill="#aaff00"/>
	<line x1="174" y1="199" x2="173" y2="150" stroke="#aaff00" stroke-width="2"/>
</g>
<g>
	<polygon points="173,203 177,211 168,210" fill="#aaff00"/>
	<line x1="170" y1="256" x2="173" y2="210" stroke="#aaff00" stroke-width="2"/>
</g>
<g>
	<polygon points="176,136 181,128 185,136" fill="#aaff00"/>
	<line x1="224" y1="107" x2="182" y2="132" stroke="#aaff00" stroke-width="2"/>
</g>
<g>
	<polygon points="228,105 233,97 237,105" fill="#aaff00"/>
	<line x1="278" y1="81" x2="234" y2="101" stroke="#aaff00" stroke-width="2"/>
</g>
<g>
	<polygon points="282,79 287,72 291,80" fill="#aaff00"/>
	<line x1="333" y1="60" x2="288" y2="76" stroke="#aaff00" stroke-width="2"/>
</g>
<g>
	<polygon points="337,58 343,52 346,61" fill="#aaff00"/>
	<line x1="389" y1="45" x2="344" y2="56" stroke="#aaff00" stroke-width="2"/>
</g>
<g>
	<polygon points="16,69 25,68 21,77" fill="#aaff00"/>
	<line x1="63" y1="91" x2="22" y2="72" stroke="#aaff00" stroke-width="2"/>
</g>

<g fill="#000000">
	<circle cx="62" cy="90" r="4"/>
</g>
<g fill="#000000">
	<circle cx="169" cy="255" r="4"/>
</g>
<g fill="#000000">
	<circle cx="173" cy="198" r="4"/>
</g>
<g fill="#000000">
	<circle cx="172" cy="138" r="4"/>
</g>
<g fill="#000000">
	<circle cx="112" cy="119" r="4"/>
</g>
<g fill="#000000">
	<circle cx="277" cy="80" r="4"/>
</g>
<g fill="#000000">
	<circle cx="223" cy="106" r="4"/>
</g>
<g fill="#000000">
	<circle cx="388" cy="44" r="4"/>
</g>
<g fill="#000000">
	<circle cx="332" cy="59" r="4"/>
</g>
<g fill="#000000">
	<circle cx="11" cy="67" r="4"/>
</g>

</g>

</svg>
