<?xml version="1.0" encoding="utf-8"?>
<!-- Created with Hypercube (http://tumic.wz.cz/hypercube) -->

<svg width="400" height="300" viewBox="0 0 400 300" xmlns="http://www.w3.org/2000/svg" baseProfile="tiny">

<g font-family="Helvetica" font-weight="normal">

<g>
	<polygon points="146,222 154,217 154,226" fill="#aaff00"/>
	<line x1="225" y1="224" x2="153" y2="222" stroke="#aaff00" stroke-width="2"/>
</g>
<g>
	<polygon points="141,217 136,210 145,209" fill="#aaff00"/>
	<line x1="131" y1="122" x2="140" y2="210" stroke="#aaff00" stroke-width="2"/>
</g>
<g>
	<polygon points="135,162 130,155 139,154" fill="#aaff00"/>
	<line x1="131" y1="122" x2="134" y2="155" stroke="#aaff00" stroke-width="2"/>
</g>
<g>
	<polygon points="174,119 167,124 166,115" fill="#aaff00"/>
	<line x1="131" y1="122" x2="167" y2="119" stroke="#aaff00" stroke-width="2"/>
</g>
<g>
	<polygon points="169,154 160,152 166,145" fill="#aaff00"/>
	<line x1="131" y1="122" x2="164" y2="149" stroke="#aaff00" stroke-width="2"/>
</g>
<g>
	<polygon points="141,217 136,210 145,209" fill="#aaff00"/>
	<line x1="136" y1="167" x2="140" y2="210" stroke="#aaff00" stroke-width="2"/>
</g>
<g>
	<polygon points="175,122 174,131 167,125" fill="#aaff00"/>
	<line x1="136" y1="167" x2="171" y2="127" stroke="#aaff00" stroke-width="2"/>
</g>
<g>
	<polygon points="168,158 162,164 159,155" fill="#aaff00"/>
	<line x1="136" y1="167" x2="161" y2="160" stroke="#aaff00" stroke-width="2"/>
</g>
<g>
	<polygon points="145,219 149,211 154,218" fill="#aaff00"/>
	<line x1="218" y1="169" x2="151" y2="215" stroke="#aaff00" stroke-width="2"/>
</g>
<g>
	<polygon points="181,122 190,125 183,131" fill="#aaff00"/>
	<line x1="218" y1="169" x2="186" y2="128" stroke="#aaff00" stroke-width="2"/>
</g>
<g>
	<polygon points="177,158 186,155 183,164" fill="#aaff00"/>
	<line x1="218" y1="169" x2="184" y2="160" stroke="#aaff00" stroke-width="2"/>
</g>
<g>
	<polygon points="182,193 186,185 191,192" fill="#aaff00"/>
	<line x1="218" y1="169" x2="188" y2="189" stroke="#aaff00" stroke-width="2"/>
</g>
<g>
	<polygon points="145,219 149,211 154,218" fill="#aaff00"/>
	<line x1="179" y1="196" x2="151" y2="215" stroke="#aaff00" stroke-width="2"/>
</g>
<g>
	<polygon points="179,123 183,131 174,131" fill="#aaff00"/>
	<line x1="179" y1="196" x2="179" y2="130" stroke="#aaff00" stroke-width="2"/>
</g>
<g>
	<polygon points="173,161 179,168 170,169" fill="#aaff00"/>
	<line x1="179" y1="196" x2="174" y2="168" stroke="#aaff00" stroke-width="2"/>
</g>
<g>
	<polygon points="225,219 220,211 229,211" fill="#aaff00"/>
	<line x1="225" y1="116" x2="225" y2="212" stroke="#aaff00" stroke-width="2"/>
</g>
<g>
	<polygon points="135,121 142,116 143,125" fill="#aaff00"/>
	<line x1="225" y1="116" x2="142" y2="121" stroke="#aaff00" stroke-width="2"/>
</g>
<g>
	<polygon points="183,118 190,113 191,122" fill="#aaff00"/>
	<line x1="225" y1="116" x2="190" y2="118" stroke="#aaff00" stroke-width="2"/>
</g>
<g>
	<polygon points="218,164 215,156 224,157" fill="#aaff00"/>
	<line x1="225" y1="116" x2="219" y2="157" stroke="#aaff00" stroke-width="2"/>
</g>
<g>
	<polygon points="228,113 231,104 237,111" fill="#aaff00"/>
	<line x1="271" y1="77" x2="233" y2="108" stroke="#aaff00" stroke-width="2"/>
</g>

<g fill="#000000">
	<circle cx="224" cy="223" r="4"/>
</g>
<g fill="#000000">
	<circle cx="141" cy="221" r="4"/>
</g>
<g fill="#000000">
	<circle cx="130" cy="121" r="4"/>
</g>
<g fill="#000000">
	<circle cx="135" cy="166" r="4"/>
</g>
<g fill="#000000">
	<circle cx="178" cy="118" r="4"/>
</g>
<g fill="#000000">
	<circle cx="172" cy="156" r="4"/>
</g>
<g fill="#000000">
	<circle cx="217" cy="168" r="4"/>
</g>
<g fill="#000000">
	<circle cx="178" cy="195" r="4"/>
</g>
<g fill="#000000">
	<circle cx="224" cy="115" r="4"/>
</g>
<g fill="#000000">
	<circle cx="270" cy="76" r="4"/>
</g>

</g>

</svg>
