<?xml version="1.0" encoding="utf-8"?>
<!-- Created with Hypercube (http://tumic.wz.cz/hypercube) -->

<svg width="400" height="300" viewBox="0 0 400 300" xmlns="http://www.w3.org/2000/svg" baseProfile="tiny">

<g font-family="Helvetica" font-weight="normal">

<g>
	<polygon points="152,97 160,101 152,106" fill="#aaff00"/>
	<line x1="178" y1="138" x2="156" y2="103" stroke="#aaff00" stroke-width="2"/>
</g>
<g>
	<polygon points="200,118 197,127 191,120" fill="#aaff00"/>
	<line x1="178" y1="138" x2="195" y2="123" stroke="#aaff00" stroke-width="2"/>
</g>
<g>
	<polygon points="153,158 156,149 162,156" fill="#aaff00"/>
	<line x1="178" y1="138" x2="159" y2="153" stroke="#aaff00" stroke-width="2"/>
</g>
<g>
	<polygon points="154,202 152,193 161,196" fill="#aaff00"/>
	<line x1="178" y1="138" x2="156" y2="196" stroke="#aaff00" stroke-width="2"/>
</g>
<g>
	<polygon points="232,133 225,138 224,129" fill="#aaff00"/>
	<line x1="178" y1="138" x2="225" y2="133" stroke="#aaff00" stroke-width="2"/>
</g>
<g>
	<polygon points="150,156 145,148 154,148" fill="#aaff00"/>
	<line x1="150" y1="94" x2="150" y2="149" stroke="#aaff00" stroke-width="2"/>
</g>
<g>
	<polygon points="150,165 155,172 146,173" fill="#aaff00"/>
	<line x1="153" y1="207" x2="150" y2="172" stroke="#aaff00" stroke-width="2"/>
</g>
<g>
	<polygon points="203,120 208,128 199,128" fill="#aaff00"/>
	<line x1="202" y1="181" x2="203" y2="127" stroke="#aaff00" stroke-width="2"/>
</g>
<g>
	<polygon points="154,162 163,161 159,169" fill="#aaff00"/>
	<line x1="202" y1="181" x2="160" y2="165" stroke="#aaff00" stroke-width="2"/>
</g>
<g>
	<polygon points="156,204 161,197 165,205" fill="#aaff00"/>
	<line x1="202" y1="181" x2="163" y2="201" stroke="#aaff00" stroke-width="2"/>
</g>
<g>
	<polygon points="234,136 233,145 226,140" fill="#aaff00"/>
	<line x1="202" y1="181" x2="230" y2="142" stroke="#aaff00" stroke-width="2"/>
</g>
<g>
	<polygon points="246,198 237,199 241,191" fill="#aaff00"/>
	<line x1="202" y1="181" x2="240" y2="195" stroke="#aaff00" stroke-width="2"/>
</g>
<g>
	<polygon points="232,130 224,131 228,123" fill="#aaff00"/>
	<line x1="204" y1="116" x2="226" y2="127" stroke="#aaff00" stroke-width="2"/>
</g>
<g>
	<polygon points="181,135 184,126 190,133" fill="#aaff00"/>
	<line x1="229" y1="94" x2="186" y2="130" stroke="#aaff00" stroke-width="2"/>
</g>
<g>
	<polygon points="154,94 162,89 162,98" fill="#aaff00"/>
	<line x1="229" y1="94" x2="161" y2="94" stroke="#aaff00" stroke-width="2"/>
</g>
<g>
	<polygon points="207,113 210,104 216,111" fill="#aaff00"/>
	<line x1="229" y1="94" x2="212" y2="108" stroke="#aaff00" stroke-width="2"/>
</g>
<g>
	<polygon points="153,158 156,149 162,156" fill="#aaff00"/>
	<line x1="229" y1="94" x2="158" y2="153" stroke="#aaff00" stroke-width="2"/>
</g>
<g>
	<polygon points="236,128 230,121 238,120" fill="#aaff00"/>
	<line x1="229" y1="94" x2="234" y2="121" stroke="#aaff00" stroke-width="2"/>
</g>
<g>
	<polygon points="250,195 244,188 252,187" fill="#aaff00"/>
	<line x1="229" y1="94" x2="248" y2="188" stroke="#aaff00" stroke-width="2"/>
</g>
<g>
	<polygon points="154,162 163,161 159,169" fill="#aaff00"/>
	<line x1="251" y1="200" x2="160" y2="165" stroke="#aaff00" stroke-width="2"/>
</g>
<g>
	<polygon points="237,137 243,144 235,145" fill="#aaff00"/>
	<line x1="251" y1="200" x2="239" y2="144" stroke="#aaff00" stroke-width="2"/>
</g>
<g>
	<polygon points="182,139 191,138 187,147" fill="#aaff00"/>
	<line x1="244" y1="167" x2="188" y2="142" stroke="#aaff00" stroke-width="2"/>
</g>
<g>
	<polygon points="229,98 235,105 227,106" fill="#aaff00"/>
	<line x1="244" y1="167" x2="231" y2="105" stroke="#aaff00" stroke-width="2"/>
</g>
<g>
	<polygon points="206,179 212,172 215,181" fill="#aaff00"/>
	<line x1="244" y1="167" x2="213" y2="177" stroke="#aaff00" stroke-width="2"/>
</g>
<g>
	<polygon points="250,195 244,188 252,187" fill="#aaff00"/>
	<line x1="244" y1="167" x2="248" y2="188" stroke="#aaff00" stroke-width="2"/>
</g>

<g fill="#000000">
	<circle cx="177" cy="137" r="4"/>
</g>
<g fill="#000000">
	<circle cx="149" cy="93" r="4"/>
</g>
<g fill="#000000">
	<circle cx="203" cy="115" r="4"/>
</g>
<g fill="#000000">
	<circle cx="149" cy="160" r="4"/>
</g>
<g fill="#000000">
	<circle cx="152" cy="206" r="4"/>
</g>
<g fill="#000000">
	<circle cx="236" cy="132" r="4"/>
</g>
<g fill="#000000">
	<circle cx="243" cy="166" r="4"/>
</g>
<g fill="#000000">
	<circle cx="228" cy="93" r="4"/>
</g>
<g fill="#000000">
	<circle cx="201" cy="180" r="4"/>
</g>
<g fill="#000000">
	<circle cx="250" cy="199" r="4"/>
</g>

</g>

</svg>
