<?xml version="1.0" encoding="utf-8"?>
<!-- Created with Hypercube (http://tumic.wz.cz/hypercube) -->

<svg width="400" height="300" viewBox="0 0 400 300" xmlns="http://www.w3.org/2000/svg" baseProfile="tiny">

<g font-family="Helvetica" font-weight="normal">

<g>
	<polygon points="72,246 69,237 78,240" fill="#aaff00"/>
	<line x1="87" y1="194" x2="74" y2="239" stroke="#aaff00" stroke-width="2"/>
</g>
<g>
	<polygon points="88,189 87,180 96,184" fill="#aaff00"/>
	<line x1="113" y1="136" x2="91" y2="183" stroke="#aaff00" stroke-width="2"/>
</g>
<g>
	<polygon points="117,137 126,136 122,144" fill="#aaff00"/>
	<line x1="174" y1="159" x2="123" y2="140" stroke="#aaff00" stroke-width="2"/>
</g>
<g>
	<polygon points="280,198 271,200 274,192" fill="#aaff00"/>
	<line x1="231" y1="183" x2="273" y2="196" stroke="#aaff00" stroke-width="2"/>
</g>
<g>
	<polygon points="178,160 187,159 183,167" fill="#aaff00"/>
	<line x1="231" y1="183" x2="184" y2="163" stroke="#aaff00" stroke-width="2"/>
</g>
<g>
	<polygon points="338,208 330,211 331,202" fill="#aaff00"/>
	<line x1="285" y1="200" x2="331" y2="207" stroke="#aaff00" stroke-width="2"/>
</g>
<g>
	<polygon points="109,133 100,133 104,125" fill="#aaff00"/>
	<line x1="58" y1="104" x2="102" y2="130" stroke="#aaff00" stroke-width="2"/>
</g>
<g>
	<polygon points="59,99 57,90 66,93" fill="#aaff00"/>
	<line x1="77" y1="50" x2="61" y2="92" stroke="#aaff00" stroke-width="2"/>
</g>
<g>
	<polygon points="121,72 112,72 116,64" fill="#aaff00"/>
	<line x1="77" y1="50" x2="115" y2="68" stroke="#aaff00" stroke-width="2"/>
</g>
<g>
	<polygon points="113,131 111,123 119,124" fill="#aaff00"/>
	<line x1="126" y1="74" x2="115" y2="124" stroke="#aaff00" stroke-width="2"/>
</g>

<g fill="#000000">
	<circle cx="70" cy="250" r="4"/>
</g>
<g fill="#000000">
	<circle cx="112" cy="135" r="4"/>
</g>
<g fill="#000000">
	<circle cx="86" cy="193" r="4"/>
</g>
<g fill="#000000">
	<circle cx="342" cy="208" r="4"/>
</g>
<g fill="#000000">
	<circle cx="230" cy="182" r="4"/>
</g>
<g fill="#000000">
	<circle cx="284" cy="199" r="4"/>
</g>
<g fill="#000000">
	<circle cx="173" cy="158" r="4"/>
</g>
<g fill="#000000">
	<circle cx="76" cy="49" r="4"/>
</g>
<g fill="#000000">
	<circle cx="57" cy="103" r="4"/>
</g>
<g fill="#000000">
	<circle cx="125" cy="73" r="4"/>
</g>

</g>

</svg>
