<?xml version="1.0" encoding="utf-8"?>
<!-- Created with Hypercube (http://tumic.wz.cz/hypercube) -->

<svg width="400" height="300" viewBox="0 0 400 300" xmlns="http://www.w3.org/2000/svg" baseProfile="tiny">

<g font-family="Helvetica" font-weight="normal">

<g>
	<polygon points="265,41 274,44 267,50" fill="#aaff00"/>
	<line x1="301" y1="83" x2="270" y2="46" stroke="#aaff00" stroke-width="2"/>
</g>
<g>
	<polygon points="299,87 302,96 293,93" fill="#aaff00"/>
	<line x1="285" y1="140" x2="297" y2="94" stroke="#aaff00" stroke-width="2"/>
</g>
<g>
	<polygon points="242,175 245,166 251,173" fill="#aaff00"/>
	<line x1="285" y1="140" x2="248" y2="170" stroke="#aaff00" stroke-width="2"/>
</g>
<g>
	<polygon points="180,180 188,175 188,184" fill="#aaff00"/>
	<line x1="239" y1="178" x2="187" y2="180" stroke="#aaff00" stroke-width="2"/>
</g>
<g>
	<polygon points="145,230 145,221 153,225" fill="#aaff00"/>
	<line x1="176" y1="181" x2="149" y2="224" stroke="#aaff00" stroke-width="2"/>
</g>
<g>
	<polygon points="102,266 105,257 111,264" fill="#aaff00"/>
	<line x1="143" y1="234" x2="108" y2="261" stroke="#aaff00" stroke-width="2"/>
</g>
<g>
	<polygon points="173,177 166,172 174,168" fill="#aaff00"/>
	<line x1="147" y1="127" x2="170" y2="170" stroke="#aaff00" stroke-width="2"/>
</g>
<g>
	<polygon points="200,34 197,43 191,36" fill="#aaff00"/>
	<line x1="161" y1="69" x2="195" y2="39" stroke="#aaff00" stroke-width="2"/>
</g>
<g>
	<polygon points="148,122 145,113 154,116" fill="#aaff00"/>
	<line x1="161" y1="69" x2="149" y2="115" stroke="#aaff00" stroke-width="2"/>
</g>
<g>
	<polygon points="258,37 250,41 251,32" fill="#aaff00"/>
	<line x1="204" y1="32" x2="251" y2="36" stroke="#aaff00" stroke-width="2"/>
</g>

<g fill="#000000">
	<circle cx="262" cy="37" r="4"/>
</g>
<g fill="#000000">
	<circle cx="98" cy="268" r="4"/>
</g>
<g fill="#000000">
	<circle cx="175" cy="180" r="4"/>
</g>
<g fill="#000000">
	<circle cx="142" cy="233" r="4"/>
</g>
<g fill="#000000">
	<circle cx="284" cy="139" r="4"/>
</g>
<g fill="#000000">
	<circle cx="300" cy="82" r="4"/>
</g>
<g fill="#000000">
	<circle cx="238" cy="177" r="4"/>
</g>
<g fill="#000000">
	<circle cx="160" cy="68" r="4"/>
</g>
<g fill="#000000">
	<circle cx="203" cy="31" r="4"/>
</g>
<g fill="#000000">
	<circle cx="146" cy="126" r="4"/>
</g>

</g>

</svg>
