<?xml version="1.0" encoding="utf-8"?>
<!-- Created with Hypercube (http://tumic.wz.cz/hypercube) -->

<svg width="400" height="300" viewBox="0 0 400 300" xmlns="http://www.w3.org/2000/svg" baseProfile="tiny">

<g font-family="Helvetica" font-weight="normal">

<g>
	<polygon points="186,167 190,175 181,174" fill="#aaff00"/>
	<line x1="181" y1="227" x2="185" y2="174" stroke="#aaff00" stroke-width="2"/>
</g>
<g>
	<polygon points="214,184 212,193 205,187" fill="#aaff00"/>
	<line x1="181" y1="227" x2="209" y2="190" stroke="#aaff00" stroke-width="2"/>
</g>
<g>
	<polygon points="213,178 204,178 208,170" fill="#aaff00"/>
	<line x1="187" y1="163" x2="206" y2="174" stroke="#aaff00" stroke-width="2"/>
</g>
<g>
	<polygon points="144,160 152,156 151,165" fill="#aaff00"/>
	<line x1="187" y1="163" x2="151" y2="160" stroke="#aaff00" stroke-width="2"/>
</g>
<g>
	<polygon points="242,129 237,137 233,129" fill="#aaff00"/>
	<line x1="187" y1="163" x2="236" y2="133" stroke="#aaff00" stroke-width="2"/>
</g>
<g>
	<polygon points="248,167 240,171 241,162" fill="#aaff00"/>
	<line x1="187" y1="163" x2="241" y2="167" stroke="#aaff00" stroke-width="2"/>
</g>
<g>
	<polygon points="256,204 247,204 251,196" fill="#aaff00"/>
	<line x1="187" y1="163" x2="249" y2="200" stroke="#aaff00" stroke-width="2"/>
</g>
<g>
	<polygon points="200,121 202,130 193,127" fill="#aaff00"/>
	<line x1="187" y1="163" x2="198" y2="128" stroke="#aaff00" stroke-width="2"/>
</g>
<g>
	<polygon points="161,111 169,116 161,120" fill="#aaff00"/>
	<line x1="187" y1="163" x2="165" y2="117" stroke="#aaff00" stroke-width="2"/>
</g>
<g>
	<polygon points="144,161 153,158 150,167" fill="#aaff00"/>
	<line x1="217" y1="181" x2="151" y2="163" stroke="#aaff00" stroke-width="2"/>
</g>
<g>
	<polygon points="243,130 244,139 236,135" fill="#aaff00"/>
	<line x1="217" y1="181" x2="240" y2="137" stroke="#aaff00" stroke-width="2"/>
</g>
<g>
	<polygon points="248,169 242,176 239,167" fill="#aaff00"/>
	<line x1="217" y1="181" x2="242" y2="171" stroke="#aaff00" stroke-width="2"/>
</g>
<g>
	<polygon points="256,204 247,204 251,196" fill="#aaff00"/>
	<line x1="217" y1="181" x2="249" y2="200" stroke="#aaff00" stroke-width="2"/>
</g>
<g>
	<polygon points="203,121 209,127 200,129" fill="#aaff00"/>
	<line x1="217" y1="181" x2="204" y2="128" stroke="#aaff00" stroke-width="2"/>
</g>
<g>
	<polygon points="158,111 159,120 151,116" fill="#aaff00"/>
	<line x1="140" y1="160" x2="155" y2="117" stroke="#aaff00" stroke-width="2"/>
</g>
<g>
	<polygon points="241,125 233,128 235,119" fill="#aaff00"/>
	<line x1="160" y1="107" x2="234" y2="124" stroke="#aaff00" stroke-width="2"/>
</g>
<g>
	<polygon points="197,115 188,118 191,109" fill="#aaff00"/>
	<line x1="160" y1="107" x2="190" y2="114" stroke="#aaff00" stroke-width="2"/>
</g>
<g>
	<polygon points="252,163 246,156 255,155" fill="#aaff00"/>
	<line x1="246" y1="127" x2="251" y2="156" stroke="#aaff00" stroke-width="2"/>
</g>
<g>
	<polygon points="259,202 253,195 262,194" fill="#aaff00"/>
	<line x1="246" y1="127" x2="257" y2="195" stroke="#aaff00" stroke-width="2"/>
</g>
<g>
	<polygon points="259,202 253,195 262,194" fill="#aaff00"/>
	<line x1="253" y1="168" x2="257" y2="195" stroke="#aaff00" stroke-width="2"/>
</g>
<g>
	<polygon points="237,77 235,86 228,80" fill="#aaff00"/>
	<line x1="202" y1="117" x2="232" y2="82" stroke="#aaff00" stroke-width="2"/>
</g>

<g fill="#000000">
	<circle cx="180" cy="226" r="4"/>
</g>
<g fill="#000000">
	<circle cx="186" cy="162" r="4"/>
</g>
<g fill="#000000">
	<circle cx="216" cy="180" r="4"/>
</g>
<g fill="#000000">
	<circle cx="139" cy="159" r="4"/>
</g>
<g fill="#000000">
	<circle cx="245" cy="126" r="4"/>
</g>
<g fill="#000000">
	<circle cx="252" cy="167" r="4"/>
</g>
<g fill="#000000">
	<circle cx="259" cy="206" r="4"/>
</g>
<g fill="#000000">
	<circle cx="201" cy="116" r="4"/>
</g>
<g fill="#000000">
	<circle cx="159" cy="106" r="4"/>
</g>
<g fill="#000000">
	<circle cx="239" cy="73" r="4"/>
</g>

</g>

</svg>
