<?xml version="1.0" encoding="utf-8"?>
<!-- Created with Hypercube (http://tumic.wz.cz/hypercube) -->

<svg width="400" height="300" viewBox="0 0 400 300" xmlns="http://www.w3.org/2000/svg" baseProfile="tiny">

<g font-family="Helvetica" font-weight="normal">

<g>
	<polygon points="153,147 162,145 159,153" fill="#aaff00"/>
	<line x1="225" y1="168" x2="160" y2="149" stroke="#aaff00" stroke-width="2"/>
</g>
<g>
	<polygon points="149,202 145,194 154,194" fill="#aaff00"/>
	<line x1="149" y1="146" x2="149" y2="195" stroke="#aaff00" stroke-width="2"/>
</g>
<g>
	<polygon points="129,89 136,95 127,98" fill="#aaff00"/>
	<line x1="149" y1="146" x2="131" y2="96" stroke="#aaff00" stroke-width="2"/>
</g>
<g>
	<polygon points="107,184 109,176 116,182" fill="#aaff00"/>
	<line x1="149" y1="146" x2="112" y2="180" stroke="#aaff00" stroke-width="2"/>
</g>
<g>
	<polygon points="89,142 97,138 96,147" fill="#aaff00"/>
	<line x1="149" y1="146" x2="96" y2="142" stroke="#aaff00" stroke-width="2"/>
</g>
<g>
	<polygon points="173,96 174,105 166,100" fill="#aaff00"/>
	<line x1="149" y1="146" x2="170" y2="102" stroke="#aaff00" stroke-width="2"/>
</g>
<g>
	<polygon points="108,189 117,188 113,196" fill="#aaff00"/>
	<line x1="150" y1="207" x2="114" y2="192" stroke="#aaff00" stroke-width="2"/>
</g>
<g>
	<polygon points="102,183 95,178 103,174" fill="#aaff00"/>
	<line x1="85" y1="142" x2="99" y2="177" stroke="#aaff00" stroke-width="2"/>
</g>
<g>
	<polygon points="171,91 163,94 164,85" fill="#aaff00"/>
	<line x1="128" y1="85" x2="164" y2="90" stroke="#aaff00" stroke-width="2"/>
</g>
<g>
	<polygon points="229,166 235,159 238,168" fill="#aaff00"/>
	<line x1="283" y1="148" x2="236" y2="164" stroke="#aaff00" stroke-width="2"/>
</g>
<g>
	<polygon points="285,151 293,155 286,160" fill="#aaff00"/>
	<line x1="316" y1="195" x2="289" y2="157" stroke="#aaff00" stroke-width="2"/>
</g>
<g>
	<polygon points="268,213 273,206 277,214" fill="#aaff00"/>
	<line x1="316" y1="195" x2="274" y2="210" stroke="#aaff00" stroke-width="2"/>
</g>
<g>
	<polygon points="227,171 236,174 229,180" fill="#aaff00"/>
	<line x1="264" y1="215" x2="232" y2="176" stroke="#aaff00" stroke-width="2"/>
</g>

<g fill="#000000">
	<circle cx="224" cy="167" r="4"/>
</g>
<g fill="#000000">
	<circle cx="148" cy="145" r="4"/>
</g>
<g fill="#000000">
	<circle cx="149" cy="206" r="4"/>
</g>
<g fill="#000000">
	<circle cx="127" cy="84" r="4"/>
</g>
<g fill="#000000">
	<circle cx="103" cy="187" r="4"/>
</g>
<g fill="#000000">
	<circle cx="84" cy="141" r="4"/>
</g>
<g fill="#000000">
	<circle cx="175" cy="91" r="4"/>
</g>
<g fill="#000000">
	<circle cx="315" cy="194" r="4"/>
</g>
<g fill="#000000">
	<circle cx="282" cy="147" r="4"/>
</g>
<g fill="#000000">
	<circle cx="263" cy="214" r="4"/>
</g>

</g>

</svg>
