<?xml version="1.0" encoding="utf-8"?>
<!-- Created with Hypercube (http://tumic.wz.cz/hypercube) -->

<svg width="400" height="300" viewBox="0 0 400 300" xmlns="http://www.w3.org/2000/svg" baseProfile="tiny">

<g font-family="Helvetica" font-weight="normal">

<g>
	<polygon points="300,68 304,76 295,75" fill="#aaff00"/>
	<line x1="297" y1="122" x2="300" y2="75" stroke="#aaff00" stroke-width="2"/>
</g>
<g>
	<polygon points="245,153 250,145 254,153" fill="#aaff00"/>
	<line x1="297" y1="122" x2="251" y2="149" stroke="#aaff00" stroke-width="2"/>
</g>
<g>
	<polygon points="348,139 339,141 342,132" fill="#aaff00"/>
	<line x1="297" y1="122" x2="341" y2="137" stroke="#aaff00" stroke-width="2"/>
</g>
<g>
	<polygon points="183,152 191,148 190,157" fill="#aaff00"/>
	<line x1="242" y1="156" x2="190" y2="152" stroke="#aaff00" stroke-width="2"/>
</g>
<g>
	<polygon points="259,209 252,203 261,200" fill="#aaff00"/>
	<line x1="242" y1="156" x2="257" y2="202" stroke="#aaff00" stroke-width="2"/>
</g>
<g>
	<polygon points="119,147 127,143 126,152" fill="#aaff00"/>
	<line x1="179" y1="152" x2="126" y2="147" stroke="#aaff00" stroke-width="2"/>
</g>
<g>
	<polygon points="85,192 85,183 93,188" fill="#aaff00"/>
	<line x1="115" y1="147" x2="89" y2="186" stroke="#aaff00" stroke-width="2"/>
</g>
<g>
	<polygon points="85,102 93,106 86,111" fill="#aaff00"/>
	<line x1="115" y1="147" x2="89" y2="108" stroke="#aaff00" stroke-width="2"/>
</g>
<g>
	<polygon points="49,233 51,224 58,230" fill="#aaff00"/>
	<line x1="83" y1="196" x2="54" y2="228" stroke="#aaff00" stroke-width="2"/>
</g>

<g fill="#000000">
	<circle cx="296" cy="121" r="4"/>
</g>
<g fill="#000000">
	<circle cx="300" cy="63" r="4"/>
</g>
<g fill="#000000">
	<circle cx="241" cy="155" r="4"/>
</g>
<g fill="#000000">
	<circle cx="352" cy="140" r="4"/>
</g>
<g fill="#000000">
	<circle cx="178" cy="151" r="4"/>
</g>
<g fill="#000000">
	<circle cx="260" cy="213" r="4"/>
</g>
<g fill="#000000">
	<circle cx="114" cy="146" r="4"/>
</g>
<g fill="#000000">
	<circle cx="82" cy="195" r="4"/>
</g>
<g fill="#000000">
	<circle cx="82" cy="98" r="4"/>
</g>
<g fill="#000000">
	<circle cx="46" cy="236" r="4"/>
</g>

</g>

</svg>
