<?xml version="1.0" encoding="utf-8"?>
<!-- Created with Hypercube (http://tumic.wz.cz/hypercube) -->

<svg width="400" height="300" viewBox="0 0 400 300" xmlns="http://www.w3.org/2000/svg" baseProfile="tiny">

<g font-family="Helvetica" font-weight="normal">

<g>
	<polygon points="133,214 127,208 136,205" fill="#aaff00"/>
	<line x1="119" y1="160" x2="131" y2="207" stroke="#aaff00" stroke-width="2"/>
</g>
<g>
	<polygon points="152,107 152,116 144,111" fill="#aaff00"/>
	<line x1="119" y1="160" x2="148" y2="113" stroke="#aaff00" stroke-width="2"/>
</g>
<g>
	<polygon points="198,230 190,233 191,224" fill="#aaff00"/>
	<line x1="135" y1="219" x2="191" y2="228" stroke="#aaff00" stroke-width="2"/>
</g>
<g>
	<polygon points="202,226 196,219 205,218" fill="#aaff00"/>
	<line x1="194" y1="170" x2="201" y2="219" stroke="#aaff00" stroke-width="2"/>
</g>
<g>
	<polygon points="196,166 197,157 204,162" fill="#aaff00"/>
	<line x1="226" y1="124" x2="200" y2="160" stroke="#aaff00" stroke-width="2"/>
</g>
<g>
	<polygon points="278,168 269,166 275,159" fill="#aaff00"/>
	<line x1="226" y1="124" x2="273" y2="163" stroke="#aaff00" stroke-width="2"/>
</g>
<g>
	<polygon points="272,239 269,231 278,232" fill="#aaff00"/>
	<line x1="282" y1="171" x2="273" y2="232" stroke="#aaff00" stroke-width="2"/>
</g>
<g>
	<polygon points="249,197 252,188 258,195" fill="#aaff00"/>
	<line x1="282" y1="171" x2="255" y2="192" stroke="#aaff00" stroke-width="2"/>
</g>
<g>
	<polygon points="207,231 215,228 214,237" fill="#aaff00"/>
	<line x1="272" y1="244" x2="214" y2="233" stroke="#aaff00" stroke-width="2"/>
</g>
<g>
	<polygon points="206,228 210,220 215,227" fill="#aaff00"/>
	<line x1="246" y1="200" x2="212" y2="224" stroke="#aaff00" stroke-width="2"/>
</g>
<g>
	<polygon points="124,61 132,65 125,70" fill="#aaff00"/>
	<line x1="155" y1="104" x2="128" y2="67" stroke="#aaff00" stroke-width="2"/>
</g>
<g>
	<polygon points="221,122 212,124 215,116" fill="#aaff00"/>
	<line x1="155" y1="104" x2="214" y2="120" stroke="#aaff00" stroke-width="2"/>
</g>

<g fill="#000000">
	<circle cx="118" cy="159" r="4"/>
</g>
<g fill="#000000">
	<circle cx="134" cy="218" r="4"/>
</g>
<g fill="#000000">
	<circle cx="154" cy="103" r="4"/>
</g>
<g fill="#000000">
	<circle cx="202" cy="230" r="4"/>
</g>
<g fill="#000000">
	<circle cx="121" cy="57" r="4"/>
</g>
<g fill="#000000">
	<circle cx="225" cy="123" r="4"/>
</g>
<g fill="#000000">
	<circle cx="193" cy="169" r="4"/>
</g>
<g fill="#000000">
	<circle cx="281" cy="170" r="4"/>
</g>
<g fill="#000000">
	<circle cx="271" cy="243" r="4"/>
</g>
<g fill="#000000">
	<circle cx="245" cy="199" r="4"/>
</g>

</g>

</svg>
