<?xml version="1.0" encoding="utf-8"?>
<!-- Created with Hypercube (http://tumic.wz.cz/hypercube) -->

<svg width="400" height="300" viewBox="0 0 400 300" xmlns="http://www.w3.org/2000/svg" baseProfile="tiny">

<g font-family="Helvetica" font-weight="normal">

<g>
	<polygon points="259,207 267,211 259,216" fill="#aaff00"/>
	<line x1="290" y1="255" x2="263" y2="213" stroke="#aaff00" stroke-width="2"/>
</g>
<g>
	<polygon points="222,136 229,140 221,144" fill="#aaff00"/>
	<line x1="257" y1="204" x2="225" y2="142" stroke="#aaff00" stroke-width="2"/>
</g>
<g>
	<polygon points="219,127 215,119 224,119" fill="#aaff00"/>
	<line x1="219" y1="69" x2="219" y2="120" stroke="#aaff00" stroke-width="2"/>
</g>
<g>
	<polygon points="218,136 219,145 211,141" fill="#aaff00"/>
	<line x1="193" y1="195" x2="215" y2="142" stroke="#aaff00" stroke-width="2"/>
</g>
<g>
	<polygon points="216,129 207,128 212,121" fill="#aaff00"/>
	<line x1="155" y1="83" x2="210" y2="124" stroke="#aaff00" stroke-width="2"/>
</g>
<g>
	<polygon points="151,80 142,78 148,71" fill="#aaff00"/>
	<line x1="111" y1="47" x2="145" y2="75" stroke="#aaff00" stroke-width="2"/>
</g>
<g>
	<polygon points="224,132 232,129 231,138" fill="#aaff00"/>
	<line x1="287" y1="145" x2="231" y2="134" stroke="#aaff00" stroke-width="2"/>
</g>
<g>
	<polygon points="215,133 209,139 206,130" fill="#aaff00"/>
	<line x1="155" y1="150" x2="208" y2="135" stroke="#aaff00" stroke-width="2"/>
</g>
<g>
	<polygon points="223,129 226,120 232,127" fill="#aaff00"/>
	<line x1="276" y1="84" x2="228" y2="124" stroke="#aaff00" stroke-width="2"/>
</g>

<g fill="#000000">
	<circle cx="289" cy="254" r="4"/>
</g>
<g fill="#000000">
	<circle cx="256" cy="203" r="4"/>
</g>
<g fill="#000000">
	<circle cx="219" cy="131" r="4"/>
</g>
<g fill="#000000">
	<circle cx="218" cy="68" r="4"/>
</g>
<g fill="#000000">
	<circle cx="192" cy="194" r="4"/>
</g>
<g fill="#000000">
	<circle cx="110" cy="46" r="4"/>
</g>
<g fill="#000000">
	<circle cx="154" cy="82" r="4"/>
</g>
<g fill="#000000">
	<circle cx="286" cy="144" r="4"/>
</g>
<g fill="#000000">
	<circle cx="154" cy="149" r="4"/>
</g>
<g fill="#000000">
	<circle cx="275" cy="83" r="4"/>
</g>

</g>

</svg>
