<?xml version="1.0" encoding="utf-8"?>
<!-- Created with Hypercube (http://tumic.wz.cz/hypercube) -->

<svg width="400" height="300" viewBox="0 0 400 300" xmlns="http://www.w3.org/2000/svg" baseProfile="tiny">

<g font-family="Helvetica" font-weight="normal">

<g>
	<polygon points="274,214 283,216 277,223" fill="#aaff00"/>
	<line x1="317" y1="251" x2="279" y2="219" stroke="#aaff00" stroke-width="2"/>
</g>
<g>
	<polygon points="217,207 225,203 224,212" fill="#aaff00"/>
	<line x1="271" y1="212" x2="224" y2="208" stroke="#aaff00" stroke-width="2"/>
</g>
<g>
	<polygon points="259,159 265,165 256,167" fill="#aaff00"/>
	<line x1="271" y1="212" x2="260" y2="166" stroke="#aaff00" stroke-width="2"/>
</g>
<g>
	<polygon points="196,152 202,158 194,161" fill="#aaff00"/>
	<line x1="213" y1="207" x2="198" y2="159" stroke="#aaff00" stroke-width="2"/>
</g>
<g>
	<polygon points="197,81 201,89 192,89" fill="#aaff00"/>
	<line x1="195" y1="148" x2="197" y2="88" stroke="#aaff00" stroke-width="2"/>
</g>
<g>
	<polygon points="125,144 133,140 133,149" fill="#aaff00"/>
	<line x1="195" y1="148" x2="132" y2="144" stroke="#aaff00" stroke-width="2"/>
</g>
<g>
	<polygon points="144,52 153,51 149,60" fill="#aaff00"/>
	<line x1="198" y1="77" x2="150" y2="55" stroke="#aaff00" stroke-width="2"/>
</g>
<g>
	<polygon points="139,55 144,63 135,63" fill="#aaff00"/>
	<line x1="139" y1="101" x2="139" y2="62" stroke="#aaff00" stroke-width="2"/>
</g>
<g>
	<polygon points="137,105 138,114 130,110" fill="#aaff00"/>
	<line x1="121" y1="144" x2="134" y2="111" stroke="#aaff00" stroke-width="2"/>
</g>
<g>
	<polygon points="86,90 94,94 86,99" fill="#aaff00"/>
	<line x1="121" y1="144" x2="90" y2="96" stroke="#aaff00" stroke-width="2"/>
</g>
<g>
	<polygon points="136,53 132,61 127,53" fill="#aaff00"/>
	<line x1="84" y1="87" x2="130" y2="57" stroke="#aaff00" stroke-width="2"/>
</g>
<g>
	<polygon points="199,148 207,144 206,153" fill="#aaff00"/>
	<line x1="258" y1="155" x2="206" y2="149" stroke="#aaff00" stroke-width="2"/>
</g>

<g fill="#000000">
	<circle cx="316" cy="250" r="4"/>
</g>
<g fill="#000000">
	<circle cx="270" cy="211" r="4"/>
</g>
<g fill="#000000">
	<circle cx="212" cy="206" r="4"/>
</g>
<g fill="#000000">
	<circle cx="257" cy="154" r="4"/>
</g>
<g fill="#000000">
	<circle cx="194" cy="147" r="4"/>
</g>
<g fill="#000000">
	<circle cx="197" cy="76" r="4"/>
</g>
<g fill="#000000">
	<circle cx="120" cy="143" r="4"/>
</g>
<g fill="#000000">
	<circle cx="139" cy="50" r="4"/>
</g>
<g fill="#000000">
	<circle cx="138" cy="100" r="4"/>
</g>
<g fill="#000000">
	<circle cx="83" cy="86" r="4"/>
</g>

</g>

</svg>
