<?xml version="1.0" encoding="utf-8"?>
<!-- Created with Hypercube (http://tumic.wz.cz/hypercube) -->

<svg width="400" height="300" viewBox="0 0 400 300" xmlns="http://www.w3.org/2000/svg" baseProfile="tiny">

<g font-family="Helvetica" font-weight="normal">

<g>
	<polygon points="157,173 159,182 151,179" fill="#aaff00"/>
	<line x1="141" y1="227" x2="155" y2="180" stroke="#aaff00" stroke-width="2"/>
</g>
<g>
	<polygon points="180,98 182,107 174,104" fill="#aaff00"/>
	<line x1="159" y1="169" x2="178" y2="105" stroke="#aaff00" stroke-width="2"/>
</g>
<g>
	<polygon points="210,126 201,123 208,117" fill="#aaff00"/>
	<line x1="182" y1="94" x2="205" y2="121" stroke="#aaff00" stroke-width="2"/>
</g>
<g>
	<polygon points="245,74 239,80 236,72" fill="#aaff00"/>
	<line x1="182" y1="94" x2="238" y2="76" stroke="#aaff00" stroke-width="2"/>
</g>
<g>
	<polygon points="251,151 242,151 246,143" fill="#aaff00"/>
	<line x1="213" y1="130" x2="244" y2="148" stroke="#aaff00" stroke-width="2"/>
</g>
<g>
	<polygon points="295,124 291,132 286,125" fill="#aaff00"/>
	<line x1="255" y1="154" x2="289" y2="128" stroke="#aaff00" stroke-width="2"/>
</g>
<g>
	<polygon points="298,126 303,134 294,134" fill="#aaff00"/>
	<line x1="298" y1="191" x2="298" y2="133" stroke="#aaff00" stroke-width="2"/>
</g>
<g>
	<polygon points="163,170 172,169 168,178" fill="#aaff00"/>
	<line x1="229" y1="200" x2="169" y2="173" stroke="#aaff00" stroke-width="2"/>
</g>
<g>
	<polygon points="252,157 252,166 245,162" fill="#aaff00"/>
	<line x1="229" y1="200" x2="249" y2="164" stroke="#aaff00" stroke-width="2"/>
</g>
<g>
	<polygon points="293,191 286,197 285,188" fill="#aaff00"/>
	<line x1="229" y1="200" x2="286" y2="192" stroke="#aaff00" stroke-width="2"/>
</g>
<g>
	<polygon points="295,118 287,116 293,110" fill="#aaff00"/>
	<line x1="250" y1="73" x2="290" y2="113" stroke="#aaff00" stroke-width="2"/>
</g>
<g>
	<polygon points="154,167 145,169 148,161" fill="#aaff00"/>
	<line x1="102" y1="151" x2="147" y2="165" stroke="#aaff00" stroke-width="2"/>
</g>

<g fill="#000000">
	<circle cx="140" cy="226" r="4"/>
</g>
<g fill="#000000">
	<circle cx="158" cy="168" r="4"/>
</g>
<g fill="#000000">
	<circle cx="181" cy="93" r="4"/>
</g>
<g fill="#000000">
	<circle cx="101" cy="150" r="4"/>
</g>
<g fill="#000000">
	<circle cx="228" cy="199" r="4"/>
</g>
<g fill="#000000">
	<circle cx="254" cy="153" r="4"/>
</g>
<g fill="#000000">
	<circle cx="297" cy="190" r="4"/>
</g>
<g fill="#000000">
	<circle cx="212" cy="129" r="4"/>
</g>
<g fill="#000000">
	<circle cx="249" cy="72" r="4"/>
</g>
<g fill="#000000">
	<circle cx="298" cy="121" r="4"/>
</g>

</g>

</svg>
