<?xml version="1.0" encoding="utf-8"?>
<!-- Created with Hypercube (http://tumic.wz.cz/hypercube) -->

<svg width="400" height="300" viewBox="0 0 400 300" xmlns="http://www.w3.org/2000/svg" baseProfile="tiny">

<g font-family="Helvetica" font-weight="normal">

<g>
	<polygon points="196,227 194,218 203,221" fill="#aaff00"/>
	<line x1="216" y1="169" x2="198" y2="220" stroke="#aaff00" stroke-width="2"/>
</g>
<g>
	<polygon points="190,233 185,241 181,232" fill="#aaff00"/>
	<line x1="142" y1="256" x2="184" y2="236" stroke="#aaff00" stroke-width="2"/>
</g>
<g>
	<polygon points="197,235 205,239 198,244" fill="#aaff00"/>
	<line x1="228" y1="282" x2="201" y2="241" stroke="#aaff00" stroke-width="2"/>
</g>
<g>
	<polygon points="325,147 319,153 317,144" fill="#aaff00"/>
	<line x1="275" y1="159" x2="318" y2="148" stroke="#aaff00" stroke-width="2"/>
</g>
<g>
	<polygon points="136,80 144,83 137,89" fill="#aaff00"/>
	<line x1="173" y1="121" x2="140" y2="85" stroke="#aaff00" stroke-width="2"/>
</g>
<g>
	<polygon points="128,77 120,81 120,72" fill="#aaff00"/>
	<line x1="72" y1="79" x2="121" y2="77" stroke="#aaff00" stroke-width="2"/>
</g>
<g>
	<polygon points="133,72 130,64 139,65" fill="#aaff00"/>
	<line x1="142" y1="18" x2="134" y2="65" stroke="#aaff00" stroke-width="2"/>
</g>
<g>
	<polygon points="270,159 263,165 262,156" fill="#aaff00"/>
	<line x1="216" y1="169" x2="263" y2="160" stroke="#aaff00" stroke-width="2"/>
</g>
<g>
	<polygon points="176,124 184,127 177,133" fill="#aaff00"/>
	<line x1="216" y1="169" x2="180" y2="129" stroke="#aaff00" stroke-width="2"/>
</g>

<g fill="#000000">
	<circle cx="215" cy="168" r="4"/>
</g>
<g fill="#000000">
	<circle cx="194" cy="231" r="4"/>
</g>
<g fill="#000000">
	<circle cx="141" cy="255" r="4"/>
</g>
<g fill="#000000">
	<circle cx="227" cy="281" r="4"/>
</g>
<g fill="#000000">
	<circle cx="274" cy="158" r="4"/>
</g>
<g fill="#000000">
	<circle cx="329" cy="145" r="4"/>
</g>
<g fill="#000000">
	<circle cx="172" cy="120" r="4"/>
</g>
<g fill="#000000">
	<circle cx="132" cy="76" r="4"/>
</g>
<g fill="#000000">
	<circle cx="71" cy="78" r="4"/>
</g>
<g fill="#000000">
	<circle cx="141" cy="17" r="4"/>
</g>

</g>

</svg>
