<?xml version="1.0" encoding="utf-8"?>
<!-- Created with Hypercube (http://tumic.wz.cz/hypercube) -->

<svg width="400" height="300" viewBox="0 0 400 300" xmlns="http://www.w3.org/2000/svg" baseProfile="tiny">

<g font-family="Helvetica" font-weight="normal">

<g>
	<polygon points="311,149 303,153 303,144" fill="#aaff00"/>
	<line x1="253" y1="151" x2="304" y2="149" stroke="#aaff00" stroke-width="2"/>
</g>
<g>
	<polygon points="275,92 276,101 268,97" fill="#aaff00"/>
	<line x1="253" y1="151" x2="272" y2="98" stroke="#aaff00" stroke-width="2"/>
</g>
<g>
	<polygon points="293,190 285,188 291,182" fill="#aaff00"/>
	<line x1="253" y1="151" x2="288" y2="185" stroke="#aaff00" stroke-width="2"/>
</g>
<g>
	<polygon points="248,208 244,200 253,201" fill="#aaff00"/>
	<line x1="253" y1="151" x2="248" y2="201" stroke="#aaff00" stroke-width="2"/>
</g>
<g>
	<polygon points="229,98 237,103 228,107" fill="#aaff00"/>
	<line x1="253" y1="151" x2="232" y2="104" stroke="#aaff00" stroke-width="2"/>
</g>
<g>
	<polygon points="298,189 297,180 305,184" fill="#aaff00"/>
	<line x1="316" y1="149" x2="301" y2="183" stroke="#aaff00" stroke-width="2"/>
</g>
<g>
	<polygon points="292,195 287,202 283,194" fill="#aaff00"/>
	<line x1="248" y1="213" x2="286" y2="198" stroke="#aaff00" stroke-width="2"/>
</g>
<g>
	<polygon points="232,93 239,88 240,96" fill="#aaff00"/>
	<line x1="277" y1="88" x2="239" y2="92" stroke="#aaff00" stroke-width="2"/>
</g>
<g>
	<polygon points="248,151 241,157 240,148" fill="#aaff00"/>
	<line x1="176" y1="164" x2="241" y2="152" stroke="#aaff00" stroke-width="2"/>
</g>
<g>
	<polygon points="173,167 171,176 164,170" fill="#aaff00"/>
	<line x1="134" y1="212" x2="168" y2="172" stroke="#aaff00" stroke-width="2"/>
</g>
<g>
	<polygon points="129,209 120,210 125,202" fill="#aaff00"/>
	<line x1="84" y1="187" x2="123" y2="206" stroke="#aaff00" stroke-width="2"/>
</g>
<g>
	<polygon points="115,145 114,154 106,149" fill="#aaff00"/>
	<line x1="84" y1="187" x2="110" y2="151" stroke="#aaff00" stroke-width="2"/>
</g>
<g>
	<polygon points="171,162 162,163 166,155" fill="#aaff00"/>
	<line x1="118" y1="142" x2="165" y2="159" stroke="#aaff00" stroke-width="2"/>
</g>

<g fill="#000000">
	<circle cx="252" cy="150" r="4"/>
</g>
<g fill="#000000">
	<circle cx="315" cy="148" r="4"/>
</g>
<g fill="#000000">
	<circle cx="276" cy="87" r="4"/>
</g>
<g fill="#000000">
	<circle cx="296" cy="193" r="4"/>
</g>
<g fill="#000000">
	<circle cx="247" cy="212" r="4"/>
</g>
<g fill="#000000">
	<circle cx="227" cy="93" r="4"/>
</g>
<g fill="#000000">
	<circle cx="83" cy="186" r="4"/>
</g>
<g fill="#000000">
	<circle cx="133" cy="211" r="4"/>
</g>
<g fill="#000000">
	<circle cx="117" cy="141" r="4"/>
</g>
<g fill="#000000">
	<circle cx="175" cy="163" r="4"/>
</g>

</g>

</svg>
