<?xml version="1.0" encoding="utf-8"?>
<!-- Created with Hypercube (http://tumic.wz.cz/hypercube) -->

<svg width="400" height="300" viewBox="0 0 400 300" xmlns="http://www.w3.org/2000/svg" baseProfile="tiny">

<g font-family="Helvetica" font-weight="normal">

<g>
	<polygon points="169,176 175,170 178,179" fill="#aaff00"/>
	<line x1="258" y1="155" x2="176" y2="175" stroke="#aaff00" stroke-width="2"/>
</g>
<g>
	<polygon points="228,104 236,109 228,113" fill="#aaff00"/>
	<line x1="258" y1="155" x2="231" y2="111" stroke="#aaff00" stroke-width="2"/>
</g>
<g>
	<polygon points="314,158 306,162 307,153" fill="#aaff00"/>
	<line x1="258" y1="155" x2="307" y2="158" stroke="#aaff00" stroke-width="2"/>
</g>
<g>
	<polygon points="120,217 123,208 129,215" fill="#aaff00"/>
	<line x1="165" y1="178" x2="125" y2="212" stroke="#aaff00" stroke-width="2"/>
</g>
<g>
	<polygon points="204,210 195,208 201,201" fill="#aaff00"/>
	<line x1="165" y1="178" x2="198" y2="205" stroke="#aaff00" stroke-width="2"/>
</g>
<g>
	<polygon points="198,153 194,161 189,154" fill="#aaff00"/>
	<line x1="165" y1="178" x2="192" y2="157" stroke="#aaff00" stroke-width="2"/>
</g>
<g>
	<polygon points="136,112 143,117 135,121" fill="#aaff00"/>
	<line x1="165" y1="178" x2="139" y2="118" stroke="#aaff00" stroke-width="2"/>
</g>
<g>
	<polygon points="202,155 207,162 198,163" fill="#aaff00"/>
	<line x1="208" y1="213" x2="203" y2="162" stroke="#aaff00" stroke-width="2"/>
</g>
<g>
	<polygon points="224,105 224,114 216,110" fill="#aaff00"/>
	<line x1="202" y1="151" x2="220" y2="111" stroke="#aaff00" stroke-width="2"/>
</g>
<g>
	<polygon points="179,108 186,113 178,117" fill="#aaff00"/>
	<line x1="202" y1="151" x2="182" y2="115" stroke="#aaff00" stroke-width="2"/>
</g>
<g>
	<polygon points="221,101 214,106 213,97" fill="#aaff00"/>
	<line x1="135" y1="108" x2="214" y2="101" stroke="#aaff00" stroke-width="2"/>
</g>
<g>
	<polygon points="86,83 94,82 90,90" fill="#aaff00"/>
	<line x1="135" y1="108" x2="92" y2="86" stroke="#aaff00" stroke-width="2"/>
</g>
<g>
	<polygon points="139,107 146,102 147,111" fill="#aaff00"/>
	<line x1="177" y1="105" x2="146" y2="107" stroke="#aaff00" stroke-width="2"/>
</g>

<g fill="#000000">
	<circle cx="257" cy="154" r="4"/>
</g>
<g fill="#000000">
	<circle cx="164" cy="177" r="4"/>
</g>
<g fill="#000000">
	<circle cx="225" cy="100" r="4"/>
</g>
<g fill="#000000">
	<circle cx="318" cy="158" r="4"/>
</g>
<g fill="#000000">
	<circle cx="116" cy="219" r="4"/>
</g>
<g fill="#000000">
	<circle cx="207" cy="212" r="4"/>
</g>
<g fill="#000000">
	<circle cx="201" cy="150" r="4"/>
</g>
<g fill="#000000">
	<circle cx="176" cy="104" r="4"/>
</g>
<g fill="#000000">
	<circle cx="134" cy="107" r="4"/>
</g>
<g fill="#000000">
	<circle cx="81" cy="80" r="4"/>
</g>

</g>

</svg>
