<?xml version="1.0" encoding="utf-8"?>
<!-- Created with Hypercube (http://tumic.wz.cz/hypercube) -->

<svg width="400" height="300" viewBox="0 0 400 300" xmlns="http://www.w3.org/2000/svg" baseProfile="tiny">

<g font-family="Helvetica" font-weight="normal">

<g>
	<polygon points="265,137 256,138 260,130" fill="#aaff00"/>
	<line x1="221" y1="118" x2="259" y2="134" stroke="#aaff00" stroke-width="2"/>
</g>
<g>
	<polygon points="133,117 141,112 141,121" fill="#aaff00"/>
	<line x1="221" y1="118" x2="140" y2="117" stroke="#aaff00" stroke-width="2"/>
</g>
<g>
	<polygon points="253,95 249,103 244,96" fill="#aaff00"/>
	<line x1="221" y1="118" x2="247" y2="99" stroke="#aaff00" stroke-width="2"/>
</g>
<g>
	<polygon points="280,175 274,169 282,166" fill="#aaff00"/>
	<line x1="270" y1="139" x2="278" y2="168" stroke="#aaff00" stroke-width="2"/>
</g>
<g>
	<polygon points="280,175 274,169 282,166" fill="#aaff00"/>
	<line x1="257" y1="93" x2="278" y2="168" stroke="#aaff00" stroke-width="2"/>
</g>
<g>
	<polygon points="133,117 141,112 141,121" fill="#aaff00"/>
	<line x1="173" y1="118" x2="140" y2="117" stroke="#aaff00" stroke-width="2"/>
</g>
<g>
	<polygon points="252,94 246,100 243,92" fill="#aaff00"/>
	<line x1="173" y1="118" x2="245" y2="96" stroke="#aaff00" stroke-width="2"/>
</g>
<g>
	<polygon points="188,202 182,195 191,194" fill="#aaff00"/>
	<line x1="173" y1="118" x2="186" y2="195" stroke="#aaff00" stroke-width="2"/>
</g>
<g>
	<polygon points="119,180 116,172 125,173" fill="#aaff00"/>
	<line x1="129" y1="117" x2="120" y2="173" stroke="#aaff00" stroke-width="2"/>
</g>
<g>
	<polygon points="277,181 271,187 268,179" fill="#aaff00"/>
	<line x1="189" y1="207" x2="270" y2="183" stroke="#aaff00" stroke-width="2"/>
</g>
<g>
	<polygon points="123,186 132,184 129,192" fill="#aaff00"/>
	<line x1="189" y1="207" x2="130" y2="188" stroke="#aaff00" stroke-width="2"/>
</g>
<g>
	<polygon points="221,122 226,129 217,130" fill="#aaff00"/>
	<line x1="225" y1="182" x2="221" y2="129" stroke="#aaff00" stroke-width="2"/>
</g>
<g>
	<polygon points="192,204 196,196 201,203" fill="#aaff00"/>
	<line x1="225" y1="182" x2="198" y2="200" stroke="#aaff00" stroke-width="2"/>
</g>
<g>
	<polygon points="220,180 211,181 215,172" fill="#aaff00"/>
	<line x1="181" y1="162" x2="214" y2="177" stroke="#aaff00" stroke-width="2"/>
</g>
<g>
	<polygon points="173,122 179,129 170,130" fill="#aaff00"/>
	<line x1="181" y1="162" x2="175" y2="129" stroke="#aaff00" stroke-width="2"/>
</g>

<g fill="#000000">
	<circle cx="220" cy="117" r="4"/>
</g>
<g fill="#000000">
	<circle cx="269" cy="138" r="4"/>
</g>
<g fill="#000000">
	<circle cx="128" cy="116" r="4"/>
</g>
<g fill="#000000">
	<circle cx="256" cy="92" r="4"/>
</g>
<g fill="#000000">
	<circle cx="281" cy="179" r="4"/>
</g>
<g fill="#000000">
	<circle cx="118" cy="184" r="4"/>
</g>
<g fill="#000000">
	<circle cx="180" cy="161" r="4"/>
</g>
<g fill="#000000">
	<circle cx="224" cy="181" r="4"/>
</g>
<g fill="#000000">
	<circle cx="172" cy="117" r="4"/>
</g>
<g fill="#000000">
	<circle cx="188" cy="206" r="4"/>
</g>

</g>

</svg>
