<?xml version="1.0" encoding="utf-8"?>
<!-- Created with Hypercube (http://tumic.wz.cz/hypercube) -->

<svg width="400" height="300" viewBox="0 0 400 300" xmlns="http://www.w3.org/2000/svg" baseProfile="tiny">

<g font-family="Helvetica" font-weight="normal">

<g>
	<polygon points="186,93 184,102 178,96" fill="#aaff00"/>
	<line x1="156" y1="127" x2="182" y2="98" stroke="#aaff00" stroke-width="2"/>
</g>
<g>
	<polygon points="205,147 196,148 200,140" fill="#aaff00"/>
	<line x1="156" y1="127" x2="199" y2="144" stroke="#aaff00" stroke-width="2"/>
</g>
<g>
	<polygon points="208,144 201,138 210,135" fill="#aaff00"/>
	<line x1="190" y1="90" x2="206" y2="137" stroke="#aaff00" stroke-width="2"/>
</g>
<g>
	<polygon points="214,201 209,194 218,193" fill="#aaff00"/>
	<line x1="210" y1="149" x2="213" y2="194" stroke="#aaff00" stroke-width="2"/>
</g>
<g>
	<polygon points="261,178 252,178 256,170" fill="#aaff00"/>
	<line x1="210" y1="149" x2="254" y2="175" stroke="#aaff00" stroke-width="2"/>
</g>
<g>
	<polygon points="260,183 256,190 251,182" fill="#aaff00"/>
	<line x1="215" y1="206" x2="254" y2="186" stroke="#aaff00" stroke-width="2"/>
</g>
<g>
	<polygon points="243,253 235,248 243,244" fill="#aaff00"/>
	<line x1="215" y1="206" x2="239" y2="247" stroke="#aaff00" stroke-width="2"/>
</g>
<g>
	<polygon points="279,228 273,222 281,219" fill="#aaff00"/>
	<line x1="265" y1="181" x2="277" y2="221" stroke="#aaff00" stroke-width="2"/>
</g>
<g>
	<polygon points="312,208 303,208 307,200" fill="#aaff00"/>
	<line x1="265" y1="181" x2="305" y2="205" stroke="#aaff00" stroke-width="2"/>
</g>
<g>
	<polygon points="312,213 307,221 303,213" fill="#aaff00"/>
	<line x1="281" y1="233" x2="306" y2="217" stroke="#aaff00" stroke-width="2"/>
</g>
<g>
	<polygon points="249,254 253,246 258,253" fill="#aaff00"/>
	<line x1="281" y1="233" x2="255" y2="250" stroke="#aaff00" stroke-width="2"/>
</g>
<g>
	<polygon points="249,254 253,246 258,254" fill="#aaff00"/>
	<line x1="316" y1="211" x2="255" y2="250" stroke="#aaff00" stroke-width="2"/>
</g>
<g>
	<polygon points="154,122 147,117 155,113" fill="#aaff00"/>
	<line x1="135" y1="73" x2="151" y2="116" stroke="#aaff00" stroke-width="2"/>
</g>
<g>
	<polygon points="185,88 176,90 179,82" fill="#aaff00"/>
	<line x1="135" y1="73" x2="178" y2="86" stroke="#aaff00" stroke-width="2"/>
</g>
<g>
	<polygon points="131,70 122,70 126,62" fill="#aaff00"/>
	<line x1="86" y1="44" x2="124" y2="67" stroke="#aaff00" stroke-width="2"/>
</g>

<g fill="#000000">
	<circle cx="155" cy="126" r="4"/>
</g>
<g fill="#000000">
	<circle cx="189" cy="89" r="4"/>
</g>
<g fill="#000000">
	<circle cx="214" cy="205" r="4"/>
</g>
<g fill="#000000">
	<circle cx="264" cy="180" r="4"/>
</g>
<g fill="#000000">
	<circle cx="280" cy="232" r="4"/>
</g>
<g fill="#000000">
	<circle cx="315" cy="210" r="4"/>
</g>
<g fill="#000000">
	<circle cx="85" cy="43" r="4"/>
</g>
<g fill="#000000">
	<circle cx="134" cy="72" r="4"/>
</g>
<g fill="#000000">
	<circle cx="209" cy="148" r="4"/>
</g>
<g fill="#000000">
	<circle cx="245" cy="256" r="4"/>
</g>

</g>

</svg>
