<?xml version="1.0" encoding="utf-8"?>
<!-- Created with Hypercube (http://tumic.wz.cz/hypercube) -->

<svg width="400" height="300" viewBox="0 0 400 300" xmlns="http://www.w3.org/2000/svg" baseProfile="tiny">

<g font-family="Helvetica" font-weight="normal">

<g>
	<polygon points="207,114 198,115 202,107" fill="#aaff00"/>
	<line x1="147" y1="92" x2="201" y2="111" stroke="#aaff00" stroke-width="2"/>
</g>
<g>
	<polygon points="193,166 185,161 193,157" fill="#aaff00"/>
	<line x1="147" y1="92" x2="189" y2="160" stroke="#aaff00" stroke-width="2"/>
</g>
<g>
	<polygon points="249,96 241,100 241,91" fill="#aaff00"/>
	<line x1="147" y1="92" x2="242" y2="96" stroke="#aaff00" stroke-width="2"/>
</g>
<g>
	<polygon points="197,165 195,156 203,159" fill="#aaff00"/>
	<line x1="212" y1="116" x2="199" y2="158" stroke="#aaff00" stroke-width="2"/>
</g>
<g>
	<polygon points="249,98 244,106 240,97" fill="#aaff00"/>
	<line x1="212" y1="116" x2="243" y2="101" stroke="#aaff00" stroke-width="2"/>
</g>
<g>
	<polygon points="194,137 196,128 203,134" fill="#aaff00"/>
	<line x1="212" y1="116" x2="199" y2="131" stroke="#aaff00" stroke-width="2"/>
</g>
<g>
	<polygon points="237,135 228,134 233,126" fill="#aaff00"/>
	<line x1="212" y1="116" x2="231" y2="130" stroke="#aaff00" stroke-width="2"/>
</g>
<g>
	<polygon points="227,171 221,165 229,162" fill="#aaff00"/>
	<line x1="212" y1="116" x2="225" y2="164" stroke="#aaff00" stroke-width="2"/>
</g>
<g>
	<polygon points="195,165 189,158 198,157" fill="#aaff00"/>
	<line x1="192" y1="141" x2="194" y2="158" stroke="#aaff00" stroke-width="2"/>
</g>
<g>
	<polygon points="151,92 159,88 159,97" fill="#aaff00"/>
	<line x1="185" y1="94" x2="158" y2="92" stroke="#aaff00" stroke-width="2"/>
</g>
<g>
	<polygon points="208,113 199,111 205,104" fill="#aaff00"/>
	<line x1="185" y1="94" x2="202" y2="108" stroke="#aaff00" stroke-width="2"/>
</g>
<g>
	<polygon points="195,165 189,158 198,157" fill="#aaff00"/>
	<line x1="185" y1="94" x2="194" y2="158" stroke="#aaff00" stroke-width="2"/>
</g>
<g>
	<polygon points="249,96 241,100 241,91" fill="#aaff00"/>
	<line x1="185" y1="94" x2="242" y2="96" stroke="#aaff00" stroke-width="2"/>
</g>
<g>
	<polygon points="191,136 185,129 194,128" fill="#aaff00"/>
	<line x1="185" y1="94" x2="190" y2="129" stroke="#aaff00" stroke-width="2"/>
</g>
<g>
	<polygon points="237,135 228,133 234,126" fill="#aaff00"/>
	<line x1="185" y1="94" x2="231" y2="130" stroke="#aaff00" stroke-width="2"/>
</g>
<g>
	<polygon points="252,101 254,110 245,107" fill="#aaff00"/>
	<line x1="241" y1="138" x2="250" y2="108" stroke="#aaff00" stroke-width="2"/>
</g>
<g>
	<polygon points="149,95 157,100 149,104" fill="#aaff00"/>
	<line x1="219" y1="208" x2="153" y2="101" stroke="#aaff00" stroke-width="2"/>
</g>
<g>
	<polygon points="198,173 206,178 198,182" fill="#aaff00"/>
	<line x1="219" y1="208" x2="202" y2="180" stroke="#aaff00" stroke-width="2"/>
</g>
<g>
	<polygon points="252,101 254,110 246,107" fill="#aaff00"/>
	<line x1="219" y1="208" x2="250" y2="108" stroke="#aaff00" stroke-width="2"/>
</g>
<g>
	<polygon points="239,142 241,151 233,148" fill="#aaff00"/>
	<line x1="219" y1="208" x2="237" y2="149" stroke="#aaff00" stroke-width="2"/>
</g>
<g>
	<polygon points="227,180 229,189 221,186" fill="#aaff00"/>
	<line x1="219" y1="208" x2="225" y2="187" stroke="#aaff00" stroke-width="2"/>
</g>
<g>
	<polygon points="200,170 208,167 207,176" fill="#aaff00"/>
	<line x1="229" y1="176" x2="207" y2="172" stroke="#aaff00" stroke-width="2"/>
</g>
<g>
	<polygon points="149,95 157,99 149,104" fill="#aaff00"/>
	<line x1="166" y1="122" x2="153" y2="101" stroke="#aaff00" stroke-width="2"/>
</g>
<g>
	<polygon points="207,116 200,122 199,113" fill="#aaff00"/>
	<line x1="166" y1="122" x2="200" y2="117" stroke="#aaff00" stroke-width="2"/>
</g>
<g>
	<polygon points="182,97 181,106 174,101" fill="#aaff00"/>
	<line x1="166" y1="122" x2="178" y2="103" stroke="#aaff00" stroke-width="2"/>
</g>
<g>
	<polygon points="216,204 208,199 216,195" fill="#aaff00"/>
	<line x1="166" y1="122" x2="212" y2="198" stroke="#aaff00" stroke-width="2"/>
</g>

<g fill="#000000">
	<circle cx="146" cy="91" r="4"/>
</g>
<g fill="#000000">
	<circle cx="211" cy="115" r="4"/>
</g>
<g fill="#000000">
	<circle cx="195" cy="169" r="4"/>
</g>
<g fill="#000000">
	<circle cx="253" cy="96" r="4"/>
</g>
<g fill="#000000">
	<circle cx="191" cy="140" r="4"/>
</g>
<g fill="#000000">
	<circle cx="240" cy="137" r="4"/>
</g>
<g fill="#000000">
	<circle cx="228" cy="175" r="4"/>
</g>
<g fill="#000000">
	<circle cx="165" cy="121" r="4"/>
</g>
<g fill="#000000">
	<circle cx="184" cy="93" r="4"/>
</g>
<g fill="#000000">
	<circle cx="218" cy="207" r="4"/>
</g>

</g>

</svg>
