<?xml version="1.0" encoding="utf-8"?>
<!-- Created with Hypercube (http://tumic.wz.cz/hypercube) -->

<svg width="400" height="300" viewBox="0 0 400 300" xmlns="http://www.w3.org/2000/svg" baseProfile="tiny">

<g font-family="Helvetica" font-weight="normal">

<g>
	<polygon points="144,213 143,204 151,208" fill="#aaff00"/>
	<line x1="172" y1="161" x2="147" y2="206" stroke="#aaff00" stroke-width="2"/>
</g>
<g>
	<polygon points="137,217 129,222 129,213" fill="#aaff00"/>
	<line x1="83" y1="220" x2="130" y2="217" stroke="#aaff00" stroke-width="2"/>
</g>
<g>
	<polygon points="81,215 75,209 83,206" fill="#aaff00"/>
	<line x1="66" y1="164" x2="79" y2="208" stroke="#aaff00" stroke-width="2"/>
</g>
<g>
	<polygon points="167,159 158,159 162,151" fill="#aaff00"/>
	<line x1="114" y1="134" x2="161" y2="156" stroke="#aaff00" stroke-width="2"/>
</g>
<g>
	<polygon points="69,161 74,153 78,161" fill="#aaff00"/>
	<line x1="114" y1="134" x2="75" y2="157" stroke="#aaff00" stroke-width="2"/>
</g>
<g>
	<polygon points="255,85 256,94 248,89" fill="#aaff00"/>
	<line x1="231" y1="135" x2="252" y2="91" stroke="#aaff00" stroke-width="2"/>
</g>
<g>
	<polygon points="282,163 273,163 277,156" fill="#aaff00"/>
	<line x1="231" y1="135" x2="275" y2="160" stroke="#aaff00" stroke-width="2"/>
</g>
<g>
	<polygon points="310,81 302,85 302,76" fill="#aaff00"/>
	<line x1="258" y1="81" x2="303" y2="81" stroke="#aaff00" stroke-width="2"/>
</g>
<g>
	<polygon points="316,85 323,90 315,94" fill="#aaff00"/>
	<line x1="335" y1="134" x2="319" y2="91" stroke="#aaff00" stroke-width="2"/>
</g>
<g>
	<polygon points="331,136 327,144 322,136" fill="#aaff00"/>
	<line x1="286" y1="166" x2="325" y2="140" stroke="#aaff00" stroke-width="2"/>
</g>
<g>
	<polygon points="226,136 221,144 217,135" fill="#aaff00"/>
	<line x1="172" y1="161" x2="220" y2="139" stroke="#aaff00" stroke-width="2"/>
</g>

<g fill="#000000">
	<circle cx="171" cy="160" r="4"/>
</g>
<g fill="#000000">
	<circle cx="113" cy="133" r="4"/>
</g>
<g fill="#000000">
	<circle cx="65" cy="163" r="4"/>
</g>
<g fill="#000000">
	<circle cx="141" cy="216" r="4"/>
</g>
<g fill="#000000">
	<circle cx="82" cy="219" r="4"/>
</g>
<g fill="#000000">
	<circle cx="230" cy="134" r="4"/>
</g>
<g fill="#000000">
	<circle cx="257" cy="80" r="4"/>
</g>
<g fill="#000000">
	<circle cx="285" cy="165" r="4"/>
</g>
<g fill="#000000">
	<circle cx="314" cy="80" r="4"/>
</g>
<g fill="#000000">
	<circle cx="334" cy="133" r="4"/>
</g>

</g>

</svg>
