<?xml version="1.0" encoding="utf-8"?>
<!-- Created with Hypercube (http://tumic.wz.cz/hypercube) -->

<svg width="400" height="300" viewBox="0 0 400 300" xmlns="http://www.w3.org/2000/svg" baseProfile="tiny">

<g font-family="Helvetica" font-weight="normal">

<g>
	<polygon points="221,161 230,160 225,168" fill="#aaff00"/>
	<line x1="269" y1="185" x2="227" y2="164" stroke="#aaff00" stroke-width="2"/>
</g>
<g>
	<polygon points="242,90 243,99 235,95" fill="#aaff00"/>
	<line x1="217" y1="159" x2="239" y2="96" stroke="#aaff00" stroke-width="2"/>
</g>
<g>
	<polygon points="160,209 163,200 169,207" fill="#aaff00"/>
	<line x1="217" y1="159" x2="165" y2="204" stroke="#aaff00" stroke-width="2"/>
</g>
<g>
	<polygon points="258,30 261,39 252,36" fill="#aaff00"/>
	<line x1="244" y1="86" x2="256" y2="37" stroke="#aaff00" stroke-width="2"/>
</g>
<g>
	<polygon points="192,60 201,60 197,68" fill="#aaff00"/>
	<line x1="244" y1="86" x2="198" y2="64" stroke="#aaff00" stroke-width="2"/>
</g>
<g>
	<polygon points="302,85 294,89 294,80" fill="#aaff00"/>
	<line x1="244" y1="86" x2="295" y2="85" stroke="#aaff00" stroke-width="2"/>
</g>
<g>
	<polygon points="143,270 140,261 149,264" fill="#aaff00"/>
	<line x1="157" y1="212" x2="144" y2="263" stroke="#aaff00" stroke-width="2"/>
</g>
<g>
	<polygon points="97,226 103,220 106,229" fill="#aaff00"/>
	<line x1="157" y1="212" x2="104" y2="225" stroke="#aaff00" stroke-width="2"/>
</g>
<g>
	<polygon points="124,162 132,166 125,171" fill="#aaff00"/>
	<line x1="157" y1="212" x2="128" y2="168" stroke="#aaff00" stroke-width="2"/>
</g>
<g>
	<polygon points="201,245 192,244 197,237" fill="#aaff00"/>
	<line x1="157" y1="212" x2="195" y2="240" stroke="#aaff00" stroke-width="2"/>
</g>

<g fill="#000000">
	<circle cx="268" cy="184" r="4"/>
</g>
<g fill="#000000">
	<circle cx="216" cy="158" r="4"/>
</g>
<g fill="#000000">
	<circle cx="243" cy="85" r="4"/>
</g>
<g fill="#000000">
	<circle cx="156" cy="211" r="4"/>
</g>
<g fill="#000000">
	<circle cx="259" cy="25" r="4"/>
</g>
<g fill="#000000">
	<circle cx="187" cy="58" r="4"/>
</g>
<g fill="#000000">
	<circle cx="306" cy="84" r="4"/>
</g>
<g fill="#000000">
	<circle cx="141" cy="274" r="4"/>
</g>
<g fill="#000000">
	<circle cx="92" cy="227" r="4"/>
</g>
<g fill="#000000">
	<circle cx="121" cy="158" r="4"/>
</g>
<g fill="#000000">
	<circle cx="204" cy="247" r="4"/>
</g>

</g>

</svg>
