<?xml version="1.0" encoding="utf-8"?>
<!-- Created with Hypercube (http://tumic.wz.cz/hypercube) -->

<svg width="400" height="300" viewBox="0 0 400 300" xmlns="http://www.w3.org/2000/svg" baseProfile="tiny">

<g font-family="Helvetica" font-weight="normal">

<g>
	<polygon points="228,94 224,86 233,87" fill="#aaff00"/>
	<line x1="234" y1="36" x2="229" y2="87" stroke="#aaff00" stroke-width="2"/>
</g>
<g>
	<polygon points="287,87 280,93 279,84" fill="#aaff00"/>
	<line x1="228" y1="99" x2="280" y2="89" stroke="#aaff00" stroke-width="2"/>
</g>
<g>
	<polygon points="196,164 196,155 204,159" fill="#aaff00"/>
	<line x1="228" y1="99" x2="199" y2="158" stroke="#aaff00" stroke-width="2"/>
</g>
<g>
	<polygon points="179,105 186,99 187,108" fill="#aaff00"/>
	<line x1="228" y1="99" x2="186" y2="104" stroke="#aaff00" stroke-width="2"/>
</g>
<g>
	<polygon points="176,110 183,116 174,119" fill="#aaff00"/>
	<line x1="195" y1="169" x2="178" y2="117" stroke="#aaff00" stroke-width="2"/>
</g>
<g>
	<polygon points="149,218 151,209 157,216" fill="#aaff00"/>
	<line x1="195" y1="169" x2="153" y2="213" stroke="#aaff00" stroke-width="2"/>
</g>
<g>
	<polygon points="254,175 246,179 247,170" fill="#aaff00"/>
	<line x1="195" y1="169" x2="247" y2="174" stroke="#aaff00" stroke-width="2"/>
</g>
<g>
	<polygon points="219,224 211,219 220,215" fill="#aaff00"/>
	<line x1="195" y1="169" x2="216" y2="218" stroke="#aaff00" stroke-width="2"/>
</g>
<g>
	<polygon points="145,150 154,149 150,157" fill="#aaff00"/>
	<line x1="195" y1="169" x2="151" y2="153" stroke="#aaff00" stroke-width="2"/>
</g>
<g>
	<polygon points="143,145 145,136 152,142" fill="#aaff00"/>
	<line x1="175" y1="106" x2="148" y2="139" stroke="#aaff00" stroke-width="2"/>
</g>
<g>
	<polygon points="133,61 141,63 135,70" fill="#aaff00"/>
	<line x1="175" y1="106" x2="137" y2="66" stroke="#aaff00" stroke-width="2"/>
</g>
<g>
	<polygon points="110,261 112,252 119,258" fill="#aaff00"/>
	<line x1="146" y1="222" x2="115" y2="256" stroke="#aaff00" stroke-width="2"/>
</g>

<g fill="#000000">
	<circle cx="233" cy="35" r="4"/>
</g>
<g fill="#000000">
	<circle cx="227" cy="98" r="4"/>
</g>
<g fill="#000000">
	<circle cx="291" cy="86" r="4"/>
</g>
<g fill="#000000">
	<circle cx="194" cy="168" r="4"/>
</g>
<g fill="#000000">
	<circle cx="174" cy="105" r="4"/>
</g>
<g fill="#000000">
	<circle cx="145" cy="221" r="4"/>
</g>
<g fill="#000000">
	<circle cx="258" cy="175" r="4"/>
</g>
<g fill="#000000">
	<circle cx="220" cy="228" r="4"/>
</g>
<g fill="#000000">
	<circle cx="140" cy="148" r="4"/>
</g>
<g fill="#000000">
	<circle cx="129" cy="57" r="4"/>
</g>
<g fill="#000000">
	<circle cx="107" cy="264" r="4"/>
</g>

</g>

</svg>
