<?xml version="1.0" encoding="utf-8"?>
<!-- Created with Hypercube (http://tumic.wz.cz/hypercube) -->

<svg width="400" height="300" viewBox="0 0 400 300" xmlns="http://www.w3.org/2000/svg" baseProfile="tiny">

<g font-family="Helvetica" font-weight="normal">

<g>
	<polygon points="252,60 257,68 248,68" fill="#aaff00"/>
	<line x1="255" y1="119" x2="252" y2="67" stroke="#aaff00" stroke-width="2"/>
</g>
<g>
	<polygon points="190,100 199,98 196,106" fill="#aaff00"/>
	<line x1="255" y1="119" x2="197" y2="102" stroke="#aaff00" stroke-width="2"/>
</g>
<g>
	<polygon points="232,178 231,169 239,173" fill="#aaff00"/>
	<line x1="255" y1="119" x2="235" y2="172" stroke="#aaff00" stroke-width="2"/>
</g>
<g>
	<polygon points="302,153 293,152 298,145" fill="#aaff00"/>
	<line x1="255" y1="119" x2="296" y2="149" stroke="#aaff00" stroke-width="2"/>
</g>
<g>
	<polygon points="310,88 305,95 301,88" fill="#aaff00"/>
	<line x1="255" y1="119" x2="303" y2="91" stroke="#aaff00" stroke-width="2"/>
</g>
<g>
	<polygon points="130,105 137,100 138,109" fill="#aaff00"/>
	<line x1="186" y1="99" x2="137" y2="104" stroke="#aaff00" stroke-width="2"/>
</g>
<g>
	<polygon points="89,147 91,138 98,144" fill="#aaff00"/>
	<line x1="126" y1="106" x2="94" y2="142" stroke="#aaff00" stroke-width="2"/>
</g>
<g>
	<polygon points="88,211 84,203 93,203" fill="#aaff00"/>
	<line x1="87" y1="151" x2="88" y2="204" stroke="#aaff00" stroke-width="2"/>
</g>
<g>
	<polygon points="92,218 101,218 97,225" fill="#aaff00"/>
	<line x1="139" y1="244" x2="99" y2="221" stroke="#aaff00" stroke-width="2"/>
</g>
<g>
	<polygon points="143,242 149,236 151,245" fill="#aaff00"/>
	<line x1="195" y1="231" x2="150" y2="241" stroke="#aaff00" stroke-width="2"/>
</g>
<g>
	<polygon points="197,227 198,218 205,223" fill="#aaff00"/>
	<line x1="231" y1="183" x2="202" y2="221" stroke="#aaff00" stroke-width="2"/>
</g>

<g fill="#000000">
	<circle cx="254" cy="118" r="4"/>
</g>
<g fill="#000000">
	<circle cx="251" cy="55" r="4"/>
</g>
<g fill="#000000">
	<circle cx="185" cy="98" r="4"/>
</g>
<g fill="#000000">
	<circle cx="230" cy="182" r="4"/>
</g>
<g fill="#000000">
	<circle cx="305" cy="155" r="4"/>
</g>
<g fill="#000000">
	<circle cx="313" cy="85" r="4"/>
</g>
<g fill="#000000">
	<circle cx="125" cy="105" r="4"/>
</g>
<g fill="#000000">
	<circle cx="86" cy="150" r="4"/>
</g>
<g fill="#000000">
	<circle cx="88" cy="215" r="4"/>
</g>
<g fill="#000000">
	<circle cx="194" cy="230" r="4"/>
</g>
<g fill="#000000">
	<circle cx="138" cy="243" r="4"/>
</g>

</g>

</svg>
