<?xml version="1.0" encoding="utf-8"?>
<!-- Created with Hypercube (http://tumic.wz.cz/hypercube) -->

<svg width="400" height="300" viewBox="0 0 400 300" xmlns="http://www.w3.org/2000/svg" baseProfile="tiny">

<g font-family="Helvetica" font-weight="normal">

<g>
	<polygon points="241,180 236,172 245,172" fill="#aaff00"/>
	<line x1="243" y1="115" x2="241" y2="173" stroke="#aaff00" stroke-width="2"/>
</g>
<g>
	<polygon points="197,146 201,138 206,145" fill="#aaff00"/>
	<line x1="243" y1="115" x2="203" y2="142" stroke="#aaff00" stroke-width="2"/>
</g>
<g>
	<polygon points="223,62 230,67 222,71" fill="#aaff00"/>
	<line x1="243" y1="115" x2="226" y2="68" stroke="#aaff00" stroke-width="2"/>
</g>
<g>
	<polygon points="296,88 291,96 287,88" fill="#aaff00"/>
	<line x1="243" y1="115" x2="290" y2="92" stroke="#aaff00" stroke-width="2"/>
</g>
<g>
	<polygon points="299,190 291,194 292,185" fill="#aaff00"/>
	<line x1="241" y1="185" x2="292" y2="189" stroke="#aaff00" stroke-width="2"/>
</g>
<g>
	<polygon points="247,238 242,231 250,230" fill="#aaff00"/>
	<line x1="241" y1="185" x2="246" y2="231" stroke="#aaff00" stroke-width="2"/>
</g>
<g>
	<polygon points="203,214 206,205 212,212" fill="#aaff00"/>
	<line x1="241" y1="185" x2="209" y2="209" stroke="#aaff00" stroke-width="2"/>
</g>
<g>
	<polygon points="156,178 164,174 163,183" fill="#aaff00"/>
	<line x1="241" y1="185" x2="163" y2="178" stroke="#aaff00" stroke-width="2"/>
</g>
<g>
	<polygon points="203,219 212,218 208,226" fill="#aaff00"/>
	<line x1="248" y1="243" x2="210" y2="222" stroke="#aaff00" stroke-width="2"/>
</g>
<g>
	<polygon points="194,153 199,160 190,161" fill="#aaff00"/>
	<line x1="200" y1="217" x2="195" y2="160" stroke="#aaff00" stroke-width="2"/>
</g>
<g>
	<polygon points="154,237 159,229 163,238" fill="#aaff00"/>
	<line x1="200" y1="217" x2="160" y2="234" stroke="#aaff00" stroke-width="2"/>
</g>
<g>
	<polygon points="190,151 186,159 181,152" fill="#aaff00"/>
	<line x1="152" y1="178" x2="184" y2="155" stroke="#aaff00" stroke-width="2"/>
</g>
<g>
	<polygon points="101,153 110,153 106,161" fill="#aaff00"/>
	<line x1="152" y1="178" x2="107" y2="156" stroke="#aaff00" stroke-width="2"/>
</g>
<g>
	<polygon points="151,182 156,190 147,190" fill="#aaff00"/>
	<line x1="150" y1="239" x2="151" y2="189" stroke="#aaff00" stroke-width="2"/>
</g>

<g fill="#000000">
	<circle cx="242" cy="114" r="4"/>
</g>
<g fill="#000000">
	<circle cx="240" cy="184" r="4"/>
</g>
<g fill="#000000">
	<circle cx="193" cy="148" r="4"/>
</g>
<g fill="#000000">
	<circle cx="221" cy="57" r="4"/>
</g>
<g fill="#000000">
	<circle cx="300" cy="86" r="4"/>
</g>
<g fill="#000000">
	<circle cx="303" cy="190" r="4"/>
</g>
<g fill="#000000">
	<circle cx="247" cy="242" r="4"/>
</g>
<g fill="#000000">
	<circle cx="199" cy="216" r="4"/>
</g>
<g fill="#000000">
	<circle cx="149" cy="238" r="4"/>
</g>
<g fill="#000000">
	<circle cx="151" cy="177" r="4"/>
</g>
<g fill="#000000">
	<circle cx="96" cy="151" r="4"/>
</g>

</g>

</svg>
