<?xml version="1.0" encoding="utf-8"?>
<!-- Created with Hypercube (http://tumic.wz.cz/hypercube) -->

<svg width="400" height="300" viewBox="0 0 400 300" xmlns="http://www.w3.org/2000/svg" baseProfile="tiny">

<g font-family="Helvetica" font-weight="normal">

<g>
	<polygon points="220,219 229,218 225,226" fill="#aaff00"/>
	<line x1="272" y1="239" x2="226" y2="222" stroke="#aaff00" stroke-width="2"/>
</g>
<g>
	<polygon points="227,153 230,161 221,160" fill="#aaff00"/>
	<line x1="216" y1="218" x2="225" y2="160" stroke="#aaff00" stroke-width="2"/>
</g>
<g>
	<polygon points="227,144 221,137 230,136" fill="#aaff00"/>
	<line x1="216" y1="79" x2="226" y2="137" stroke="#aaff00" stroke-width="2"/>
</g>
<g>
	<polygon points="211,80 206,88 202,79" fill="#aaff00"/>
	<line x1="154" y1="107" x2="205" y2="83" stroke="#aaff00" stroke-width="2"/>
</g>
<g>
	<polygon points="151,203 143,198 151,194" fill="#aaff00"/>
	<line x1="123" y1="157" x2="147" y2="197" stroke="#aaff00" stroke-width="2"/>
</g>
<g>
	<polygon points="151,110 151,119 143,115" fill="#aaff00"/>
	<line x1="123" y1="157" x2="147" y2="116" stroke="#aaff00" stroke-width="2"/>
</g>
<g>
	<polygon points="211,217 203,220 204,211" fill="#aaff00"/>
	<line x1="154" y1="207" x2="204" y2="215" stroke="#aaff00" stroke-width="2"/>
</g>
<g>
	<polygon points="213,75 204,72 211,66" fill="#aaff00"/>
	<line x1="173" y1="29" x2="208" y2="70" stroke="#aaff00" stroke-width="2"/>
</g>
<g>
	<polygon points="218,75 218,66 226,70" fill="#aaff00"/>
	<line x1="248" y1="24" x2="221" y2="68" stroke="#aaff00" stroke-width="2"/>
</g>
<g>
	<polygon points="220,79 228,75 227,84" fill="#aaff00"/>
	<line x1="278" y1="83" x2="227" y2="79" stroke="#aaff00" stroke-width="2"/>
</g>
<g>
	<polygon points="214,222 217,231 208,228" fill="#aaff00"/>
	<line x1="201" y1="277" x2="213" y2="229" stroke="#aaff00" stroke-width="2"/>
</g>

<g fill="#000000">
	<circle cx="271" cy="238" r="4"/>
</g>
<g fill="#000000">
	<circle cx="215" cy="217" r="4"/>
</g>
<g fill="#000000">
	<circle cx="200" cy="276" r="4"/>
</g>
<g fill="#000000">
	<circle cx="153" cy="206" r="4"/>
</g>
<g fill="#000000">
	<circle cx="122" cy="156" r="4"/>
</g>
<g fill="#000000">
	<circle cx="153" cy="106" r="4"/>
</g>
<g fill="#000000">
	<circle cx="215" cy="78" r="4"/>
</g>
<g fill="#000000">
	<circle cx="172" cy="28" r="4"/>
</g>
<g fill="#000000">
	<circle cx="247" cy="23" r="4"/>
</g>
<g fill="#000000">
	<circle cx="277" cy="82" r="4"/>
</g>
<g fill="#000000">
	<circle cx="227" cy="148" r="4"/>
</g>

</g>

</svg>
