<?xml version="1.0" encoding="utf-8"?>
<!-- Created with Hypercube (http://tumic.wz.cz/hypercube) -->

<svg width="400" height="300" viewBox="0 0 400 300" xmlns="http://www.w3.org/2000/svg" baseProfile="tiny">

<g font-family="Helvetica" font-weight="normal">

<g>
	<polygon points="198,196 192,189 201,188" fill="#aaff00"/>
	<line x1="188" y1="144" x2="196" y2="189" stroke="#aaff00" stroke-width="2"/>
</g>
<g>
	<polygon points="194,202 188,208 185,199" fill="#aaff00"/>
	<line x1="136" y1="216" x2="187" y2="203" stroke="#aaff00" stroke-width="2"/>
</g>
<g>
	<polygon points="170,253 162,251 168,244" fill="#aaff00"/>
	<line x1="136" y1="216" x2="166" y2="248" stroke="#aaff00" stroke-width="2"/>
</g>
<g>
	<polygon points="197,205 198,214 189,210" fill="#aaff00"/>
	<line x1="174" y1="257" x2="194" y2="211" stroke="#aaff00" stroke-width="2"/>
</g>
<g>
	<polygon points="184,141 175,140 180,133" fill="#aaff00"/>
	<line x1="158" y1="122" x2="178" y2="137" stroke="#aaff00" stroke-width="2"/>
</g>
<g>
	<polygon points="137,211 134,203 143,205" fill="#aaff00"/>
	<line x1="158" y1="122" x2="138" y2="204" stroke="#aaff00" stroke-width="2"/>
</g>
<g>
	<polygon points="220,160 211,160 215,152" fill="#aaff00"/>
	<line x1="158" y1="122" x2="214" y2="156" stroke="#aaff00" stroke-width="2"/>
</g>
<g>
	<polygon points="148,165 145,157 154,159" fill="#aaff00"/>
	<line x1="158" y1="122" x2="149" y2="158" stroke="#aaff00" stroke-width="2"/>
</g>
<g>
	<polygon points="155,63 160,71 151,71" fill="#aaff00"/>
	<line x1="158" y1="122" x2="155" y2="70" stroke="#aaff00" stroke-width="2"/>
</g>
<g>
	<polygon points="245,123 237,128 237,119" fill="#aaff00"/>
	<line x1="158" y1="122" x2="238" y2="123" stroke="#aaff00" stroke-width="2"/>
</g>
<g>
	<polygon points="201,197 201,188 209,193" fill="#aaff00"/>
	<line x1="224" y1="163" x2="205" y2="191" stroke="#aaff00" stroke-width="2"/>
</g>
<g>
	<polygon points="195,198 186,198 190,190" fill="#aaff00"/>
	<line x1="147" y1="170" x2="188" y2="195" stroke="#aaff00" stroke-width="2"/>
</g>
<g>
	<polygon points="205,45 199,51 196,42" fill="#aaff00"/>
	<line x1="155" y1="59" x2="198" y2="47" stroke="#aaff00" stroke-width="2"/>
</g>
<g>
	<polygon points="260,62 251,64 254,55" fill="#aaff00"/>
	<line x1="210" y1="44" x2="254" y2="60" stroke="#aaff00" stroke-width="2"/>
</g>
<g>
	<polygon points="251,119 248,110 257,113" fill="#aaff00"/>
	<line x1="265" y1="64" x2="252" y2="112" stroke="#aaff00" stroke-width="2"/>
</g>
<g>
	<polygon points="201,197 202,188 209,193" fill="#aaff00"/>
	<line x1="250" y1="124" x2="205" y2="191" stroke="#aaff00" stroke-width="2"/>
</g>

<g fill="#000000">
	<circle cx="187" cy="143" r="4"/>
</g>
<g fill="#000000">
	<circle cx="198" cy="200" r="4"/>
</g>
<g fill="#000000">
	<circle cx="135" cy="215" r="4"/>
</g>
<g fill="#000000">
	<circle cx="173" cy="256" r="4"/>
</g>
<g fill="#000000">
	<circle cx="223" cy="162" r="4"/>
</g>
<g fill="#000000">
	<circle cx="157" cy="121" r="4"/>
</g>
<g fill="#000000">
	<circle cx="146" cy="169" r="4"/>
</g>
<g fill="#000000">
	<circle cx="154" cy="58" r="4"/>
</g>
<g fill="#000000">
	<circle cx="249" cy="123" r="4"/>
</g>
<g fill="#000000">
	<circle cx="209" cy="43" r="4"/>
</g>
<g fill="#000000">
	<circle cx="264" cy="63" r="4"/>
</g>

</g>

</svg>
