<?xml version="1.0" encoding="utf-8"?>
<!-- Created with Hypercube (http://tumic.wz.cz/hypercube) -->

<svg width="400" height="300" viewBox="0 0 400 300" xmlns="http://www.w3.org/2000/svg" baseProfile="tiny">

<g font-family="Helvetica" font-weight="normal">

<g>
	<polygon points="211,155 219,151 219,160" fill="#aaff00"/>
	<line x1="272" y1="154" x2="218" y2="155" stroke="#aaff00" stroke-width="2"/>
</g>
<g>
	<polygon points="276,154 284,150 284,159" fill="#aaff00"/>
	<line x1="328" y1="157" x2="283" y2="154" stroke="#aaff00" stroke-width="2"/>
</g>
<g>
	<polygon points="202,155 194,158 195,149" fill="#aaff00"/>
	<line x1="147" y1="148" x2="195" y2="154" stroke="#aaff00" stroke-width="2"/>
</g>
<g>
	<polygon points="142,146 133,148 136,140" fill="#aaff00"/>
	<line x1="73" y1="126" x2="135" y2="144" stroke="#aaff00" stroke-width="2"/>
</g>
<g>
	<polygon points="73,121 69,113 78,114" fill="#aaff00"/>
	<line x1="79" y1="71" x2="74" y2="114" stroke="#aaff00" stroke-width="2"/>
</g>
<g>
	<polygon points="100,178 98,169 107,172" fill="#aaff00"/>
	<line x1="128" y1="97" x2="102" y2="171" stroke="#aaff00" stroke-width="2"/>
</g>
<g>
	<polygon points="185,93 178,98 177,89" fill="#aaff00"/>
	<line x1="128" y1="97" x2="178" y2="93" stroke="#aaff00" stroke-width="2"/>
</g>
<g>
	<polygon points="82,73 91,72 87,80" fill="#aaff00"/>
	<line x1="128" y1="97" x2="89" y2="76" stroke="#aaff00" stroke-width="2"/>
</g>
<g>
	<polygon points="127,226 119,222 126,217" fill="#aaff00"/>
	<line x1="99" y1="183" x2="123" y2="220" stroke="#aaff00" stroke-width="2"/>
</g>
<g>
	<polygon points="185,219 178,225 177,216" fill="#aaff00"/>
	<line x1="130" y1="230" x2="178" y2="221" stroke="#aaff00" stroke-width="2"/>
</g>
<g>
	<polygon points="205,160 208,169 199,166" fill="#aaff00"/>
	<line x1="190" y1="219" x2="203" y2="167" stroke="#aaff00" stroke-width="2"/>
</g>
<g>
	<polygon points="205,151 199,145 208,142" fill="#aaff00"/>
	<line x1="190" y1="93" x2="203" y2="144" stroke="#aaff00" stroke-width="2"/>
</g>

<g fill="#000000">
	<circle cx="206" cy="155" r="4"/>
</g>
<g fill="#000000">
	<circle cx="327" cy="156" r="4"/>
</g>
<g fill="#000000">
	<circle cx="271" cy="153" r="4"/>
</g>
<g fill="#000000">
	<circle cx="72" cy="125" r="4"/>
</g>
<g fill="#000000">
	<circle cx="146" cy="147" r="4"/>
</g>
<g fill="#000000">
	<circle cx="127" cy="96" r="4"/>
</g>
<g fill="#000000">
	<circle cx="98" cy="182" r="4"/>
</g>
<g fill="#000000">
	<circle cx="189" cy="92" r="4"/>
</g>
<g fill="#000000">
	<circle cx="78" cy="70" r="4"/>
</g>
<g fill="#000000">
	<circle cx="129" cy="229" r="4"/>
</g>
<g fill="#000000">
	<circle cx="189" cy="218" r="4"/>
</g>

</g>

</svg>
