<?xml version="1.0" encoding="utf-8"?>
<!-- Created with Hypercube (http://tumic.wz.cz/hypercube) -->

<svg width="400" height="300" viewBox="0 0 400 300" xmlns="http://www.w3.org/2000/svg" baseProfile="tiny">

<g font-family="Helvetica" font-weight="normal">

<g>
	<polygon points="236,221 244,225 237,230" fill="#aaff00"/>
	<line x1="269" y1="266" x2="240" y2="227" stroke="#aaff00" stroke-width="2"/>
</g>
<g>
	<polygon points="247,150 250,158 241,157" fill="#aaff00"/>
	<line x1="234" y1="218" x2="245" y2="157" stroke="#aaff00" stroke-width="2"/>
</g>
<g>
	<polygon points="164,229 171,223 172,232" fill="#aaff00"/>
	<line x1="234" y1="218" x2="171" y2="228" stroke="#aaff00" stroke-width="2"/>
</g>
<g>
	<polygon points="196,135 204,132 203,141" fill="#aaff00"/>
	<line x1="248" y1="146" x2="203" y2="137" stroke="#aaff00" stroke-width="2"/>
</g>
<g>
	<polygon points="143,114 152,113 148,121" fill="#aaff00"/>
	<line x1="192" y1="135" x2="149" y2="117" stroke="#aaff00" stroke-width="2"/>
</g>
<g>
	<polygon points="142,109 145,101 151,108" fill="#aaff00"/>
	<line x1="187" y1="69" x2="147" y2="105" stroke="#aaff00" stroke-width="2"/>
</g>
<g>
	<polygon points="248,141 243,133 252,133" fill="#aaff00"/>
	<line x1="250" y1="78" x2="248" y2="134" stroke="#aaff00" stroke-width="2"/>
</g>
<g>
	<polygon points="191,69 199,66 198,75" fill="#aaff00"/>
	<line x1="250" y1="78" x2="198" y2="70" stroke="#aaff00" stroke-width="2"/>
</g>
<g>
	<polygon points="252,74 254,65 261,71" fill="#aaff00"/>
	<line x1="289" y1="34" x2="257" y2="69" stroke="#aaff00" stroke-width="2"/>
</g>
<g>
	<polygon points="137,117 138,126 130,122" fill="#aaff00"/>
	<line x1="112" y1="176" x2="134" y2="123" stroke="#aaff00" stroke-width="2"/>
</g>
<g>
	<polygon points="172,188 174,197 166,194" fill="#aaff00"/>
	<line x1="160" y1="230" x2="170" y2="195" stroke="#aaff00" stroke-width="2"/>
</g>
<g>
	<polygon points="114,179 123,182 116,188" fill="#aaff00"/>
	<line x1="160" y1="230" x2="119" y2="184" stroke="#aaff00" stroke-width="2"/>
</g>
<g>
	<polygon points="190,139 191,148 183,144" fill="#aaff00"/>
	<line x1="174" y1="184" x2="187" y2="145" stroke="#aaff00" stroke-width="2"/>
</g>

<g fill="#000000">
	<circle cx="268" cy="265" r="4"/>
</g>
<g fill="#000000">
	<circle cx="233" cy="217" r="4"/>
</g>
<g fill="#000000">
	<circle cx="247" cy="145" r="4"/>
</g>
<g fill="#000000">
	<circle cx="159" cy="229" r="4"/>
</g>
<g fill="#000000">
	<circle cx="191" cy="134" r="4"/>
</g>
<g fill="#000000">
	<circle cx="138" cy="112" r="4"/>
</g>
<g fill="#000000">
	<circle cx="288" cy="33" r="4"/>
</g>
<g fill="#000000">
	<circle cx="249" cy="77" r="4"/>
</g>
<g fill="#000000">
	<circle cx="186" cy="68" r="4"/>
</g>
<g fill="#000000">
	<circle cx="173" cy="183" r="4"/>
</g>
<g fill="#000000">
	<circle cx="111" cy="175" r="4"/>
</g>

</g>

</svg>
