<?xml version="1.0" encoding="utf-8"?>
<!-- Created with Hypercube (http://tumic.wz.cz/hypercube) -->

<svg width="400" height="300" viewBox="0 0 400 300" xmlns="http://www.w3.org/2000/svg" baseProfile="tiny">

<g font-family="Helvetica" font-weight="normal">

<g>
	<polygon points="252,189 247,182 256,181" fill="#aaff00"/>
	<line x1="248" y1="143" x2="251" y2="182" stroke="#aaff00" stroke-width="2"/>
</g>
<g>
	<polygon points="256,190 257,181 264,187" fill="#aaff00"/>
	<line x1="295" y1="148" x2="260" y2="185" stroke="#aaff00" stroke-width="2"/>
</g>
<g>
	<polygon points="243,142 235,145 236,137" fill="#aaff00"/>
	<line x1="200" y1="137" x2="236" y2="141" stroke="#aaff00" stroke-width="2"/>
</g>
<g>
	<polygon points="249,190 241,188 247,181" fill="#aaff00"/>
	<line x1="200" y1="137" x2="245" y2="185" stroke="#aaff00" stroke-width="2"/>
</g>
<g>
	<polygon points="290,147 282,151 283,142" fill="#aaff00"/>
	<line x1="200" y1="137" x2="283" y2="146" stroke="#aaff00" stroke-width="2"/>
</g>
<g>
	<polygon points="167,91 175,95 168,100" fill="#aaff00"/>
	<line x1="200" y1="137" x2="171" y2="97" stroke="#aaff00" stroke-width="2"/>
</g>
<g>
	<polygon points="152,143 159,137 160,146" fill="#aaff00"/>
	<line x1="200" y1="137" x2="159" y2="142" stroke="#aaff00" stroke-width="2"/>
</g>
<g>
	<polygon points="216,195 210,189 218,186" fill="#aaff00"/>
	<line x1="200" y1="137" x2="214" y2="188" stroke="#aaff00" stroke-width="2"/>
</g>
<g>
	<polygon points="110,148 117,142 118,151" fill="#aaff00"/>
	<line x1="200" y1="137" x2="117" y2="147" stroke="#aaff00" stroke-width="2"/>
</g>
<g>
	<polygon points="149,139 147,130 155,133" fill="#aaff00"/>
	<line x1="165" y1="88" x2="151" y2="132" stroke="#aaff00" stroke-width="2"/>
</g>
<g>
	<polygon points="143,144 136,149 135,140" fill="#aaff00"/>
	<line x1="106" y1="149" x2="136" y2="145" stroke="#aaff00" stroke-width="2"/>
</g>
<g>
	<polygon points="248,194 241,200 240,191" fill="#aaff00"/>
	<line x1="149" y1="214" x2="241" y2="196" stroke="#aaff00" stroke-width="2"/>
</g>
<g>
	<polygon points="148,148 152,156 143,156" fill="#aaff00"/>
	<line x1="149" y1="214" x2="148" y2="155" stroke="#aaff00" stroke-width="2"/>
</g>
<g>
	<polygon points="197,140 196,149 189,144" fill="#aaff00"/>
	<line x1="149" y1="214" x2="193" y2="146" stroke="#aaff00" stroke-width="2"/>
</g>
<g>
	<polygon points="213,200 206,206 205,198" fill="#aaff00"/>
	<line x1="149" y1="214" x2="206" y2="202" stroke="#aaff00" stroke-width="2"/>
</g>
<g>
	<polygon points="108,152 116,156 109,161" fill="#aaff00"/>
	<line x1="149" y1="214" x2="112" y2="158" stroke="#aaff00" stroke-width="2"/>
</g>
<g>
	<polygon points="178,207 171,213 170,205" fill="#aaff00"/>
	<line x1="149" y1="214" x2="171" y2="209" stroke="#aaff00" stroke-width="2"/>
</g>
<g>
	<polygon points="248,194 241,200 240,191" fill="#aaff00"/>
	<line x1="218" y1="200" x2="241" y2="195" stroke="#aaff00" stroke-width="2"/>
</g>
<g>
	<polygon points="248,194 241,200 240,191" fill="#aaff00"/>
	<line x1="183" y1="207" x2="241" y2="196" stroke="#aaff00" stroke-width="2"/>
</g>
<g>
	<polygon points="150,147 157,152 150,156" fill="#aaff00"/>
	<line x1="183" y1="207" x2="153" y2="154" stroke="#aaff00" stroke-width="2"/>
</g>
<g>
	<polygon points="197,140 197,149 189,144" fill="#aaff00"/>
	<line x1="177" y1="172" x2="193" y2="146" stroke="#aaff00" stroke-width="2"/>
</g>
<g>
	<polygon points="151,210 152,201 159,206" fill="#aaff00"/>
	<line x1="177" y1="172" x2="155" y2="204" stroke="#aaff00" stroke-width="2"/>
</g>
<g>
	<polygon points="182,202 176,195 185,194" fill="#aaff00"/>
	<line x1="177" y1="172" x2="181" y2="195" stroke="#aaff00" stroke-width="2"/>
</g>

<g fill="#000000">
	<circle cx="247" cy="142" r="4"/>
</g>
<g fill="#000000">
	<circle cx="252" cy="193" r="4"/>
</g>
<g fill="#000000">
	<circle cx="294" cy="147" r="4"/>
</g>
<g fill="#000000">
	<circle cx="164" cy="87" r="4"/>
</g>
<g fill="#000000">
	<circle cx="147" cy="143" r="4"/>
</g>
<g fill="#000000">
	<circle cx="199" cy="136" r="4"/>
</g>
<g fill="#000000">
	<circle cx="217" cy="199" r="4"/>
</g>
<g fill="#000000">
	<circle cx="105" cy="148" r="4"/>
</g>
<g fill="#000000">
	<circle cx="176" cy="171" r="4"/>
</g>
<g fill="#000000">
	<circle cx="148" cy="213" r="4"/>
</g>
<g fill="#000000">
	<circle cx="182" cy="206" r="4"/>
</g>

</g>

</svg>
