<?xml version="1.0" encoding="utf-8"?>
<!-- Created with Hypercube (http://tumic.wz.cz/hypercube) -->

<svg width="400" height="300" viewBox="0 0 400 300" xmlns="http://www.w3.org/2000/svg" baseProfile="tiny">

<g font-family="Helvetica" font-weight="normal">

<g>
	<polygon points="228,219 236,216 235,225" fill="#aaff00"/>
	<line x1="281" y1="228" x2="235" y2="220" stroke="#aaff00" stroke-width="2"/>
</g>
<g>
	<polygon points="267,177 273,183 264,186" fill="#aaff00"/>
	<line x1="281" y1="228" x2="269" y2="184" stroke="#aaff00" stroke-width="2"/>
</g>
<g>
	<polygon points="183,214 191,210 190,219" fill="#aaff00"/>
	<line x1="224" y1="219" x2="190" y2="215" stroke="#aaff00" stroke-width="2"/>
</g>
<g>
	<polygon points="191,153 198,157 190,162" fill="#aaff00"/>
	<line x1="224" y1="219" x2="194" y2="159" stroke="#aaff00" stroke-width="2"/>
</g>
<g>
	<polygon points="188,153 191,161 182,160" fill="#aaff00"/>
	<line x1="179" y1="214" x2="187" y2="160" stroke="#aaff00" stroke-width="2"/>
</g>
<g>
	<polygon points="125,203 128,194 134,201" fill="#aaff00"/>
	<line x1="189" y1="149" x2="130" y2="198" stroke="#aaff00" stroke-width="2"/>
</g>
<g>
	<polygon points="130,148 138,143 138,152" fill="#aaff00"/>
	<line x1="189" y1="149" x2="137" y2="148" stroke="#aaff00" stroke-width="2"/>
</g>
<g>
	<polygon points="180,96 186,103 177,104" fill="#aaff00"/>
	<line x1="189" y1="149" x2="181" y2="103" stroke="#aaff00" stroke-width="2"/>
</g>
<g>
	<polygon points="123,92 132,94 126,101" fill="#aaff00"/>
	<line x1="189" y1="149" x2="128" y2="97" stroke="#aaff00" stroke-width="2"/>
</g>
<g>
	<polygon points="230,75 230,84 222,80" fill="#aaff00"/>
	<line x1="189" y1="149" x2="227" y2="82" stroke="#aaff00" stroke-width="2"/>
</g>
<g>
	<polygon points="193,150 202,148 199,156" fill="#aaff00"/>
	<line x1="266" y1="173" x2="200" y2="152" stroke="#aaff00" stroke-width="2"/>
</g>
<g>
	<polygon points="247,134 255,139 247,143" fill="#aaff00"/>
	<line x1="266" y1="173" x2="250" y2="140" stroke="#aaff00" stroke-width="2"/>
</g>
<g>
	<polygon points="193,147 199,140 202,149" fill="#aaff00"/>
	<line x1="246" y1="130" x2="200" y2="145" stroke="#aaff00" stroke-width="2"/>
</g>

<g fill="#000000">
	<circle cx="280" cy="227" r="4"/>
</g>
<g fill="#000000">
	<circle cx="223" cy="218" r="4"/>
</g>
<g fill="#000000">
	<circle cx="265" cy="172" r="4"/>
</g>
<g fill="#000000">
	<circle cx="178" cy="213" r="4"/>
</g>
<g fill="#000000">
	<circle cx="188" cy="148" r="4"/>
</g>
<g fill="#000000">
	<circle cx="245" cy="129" r="4"/>
</g>
<g fill="#000000">
	<circle cx="121" cy="205" r="4"/>
</g>
<g fill="#000000">
	<circle cx="125" cy="147" r="4"/>
</g>
<g fill="#000000">
	<circle cx="179" cy="91" r="4"/>
</g>
<g fill="#000000">
	<circle cx="119" cy="89" r="4"/>
</g>
<g fill="#000000">
	<circle cx="232" cy="71" r="4"/>
</g>

</g>

</svg>
