<?xml version="1.0" encoding="utf-8"?>
<!-- Created with Hypercube (http://tumic.wz.cz/hypercube) -->

<svg width="400" height="300" viewBox="0 0 400 300" xmlns="http://www.w3.org/2000/svg" baseProfile="tiny">

<g font-family="Helvetica" font-weight="normal">

<g>
	<polygon points="97,103 105,100 104,109" fill="#aaff00"/>
	<line x1="153" y1="111" x2="104" y2="104" stroke="#aaff00" stroke-width="2"/>
</g>
<g>
	<polygon points="197,151 188,150 194,143" fill="#aaff00"/>
	<line x1="153" y1="111" x2="192" y2="147" stroke="#aaff00" stroke-width="2"/>
</g>
<g>
	<polygon points="58,146 60,137 67,143" fill="#aaff00"/>
	<line x1="93" y1="103" x2="63" y2="140" stroke="#aaff00" stroke-width="2"/>
</g>
<g>
	<polygon points="89,193 80,189 88,184" fill="#aaff00"/>
	<line x1="56" y1="150" x2="84" y2="187" stroke="#aaff00" stroke-width="2"/>
</g>
<g>
	<polygon points="148,197 140,201 140,192" fill="#aaff00"/>
	<line x1="92" y1="197" x2="141" y2="197" stroke="#aaff00" stroke-width="2"/>
</g>
<g>
	<polygon points="156,194 159,185 165,192" fill="#aaff00"/>
	<line x1="201" y1="155" x2="161" y2="189" stroke="#aaff00" stroke-width="2"/>
</g>
<g>
	<polygon points="247,195 238,193 244,186" fill="#aaff00"/>
	<line x1="201" y1="155" x2="242" y2="190" stroke="#aaff00" stroke-width="2"/>
</g>
<g>
	<polygon points="255,198 263,193 263,202" fill="#aaff00"/>
	<line x1="313" y1="199" x2="262" y2="198" stroke="#aaff00" stroke-width="2"/>
</g>
<g>
	<polygon points="315,195 316,186 323,191" fill="#aaff00"/>
	<line x1="345" y1="151" x2="319" y2="189" stroke="#aaff00" stroke-width="2"/>
</g>
<g>
	<polygon points="342,147 334,143 341,138" fill="#aaff00"/>
	<line x1="312" y1="106" x2="338" y2="141" stroke="#aaff00" stroke-width="2"/>
</g>
<g>
	<polygon points="204,152 207,143 213,150" fill="#aaff00"/>
	<line x1="251" y1="114" x2="210" y2="147" stroke="#aaff00" stroke-width="2"/>
</g>
<g>
	<polygon points="307,106 300,112 299,103" fill="#aaff00"/>
	<line x1="251" y1="114" x2="300" y2="107" stroke="#aaff00" stroke-width="2"/>
</g>

<g fill="#000000">
	<circle cx="152" cy="110" r="4"/>
</g>
<g fill="#000000">
	<circle cx="92" cy="102" r="4"/>
</g>
<g fill="#000000">
	<circle cx="200" cy="154" r="4"/>
</g>
<g fill="#000000">
	<circle cx="55" cy="149" r="4"/>
</g>
<g fill="#000000">
	<circle cx="152" cy="196" r="4"/>
</g>
<g fill="#000000">
	<circle cx="250" cy="197" r="4"/>
</g>
<g fill="#000000">
	<circle cx="91" cy="196" r="4"/>
</g>
<g fill="#000000">
	<circle cx="250" cy="113" r="4"/>
</g>
<g fill="#000000">
	<circle cx="311" cy="105" r="4"/>
</g>
<g fill="#000000">
	<circle cx="344" cy="150" r="4"/>
</g>
<g fill="#000000">
	<circle cx="312" cy="198" r="4"/>
</g>

</g>

</svg>
