<?xml version="1.0" encoding="utf-8"?>
<!-- Created with Hypercube (http://tumic.wz.cz/hypercube) -->

<svg width="400" height="300" viewBox="0 0 400 300" xmlns="http://www.w3.org/2000/svg" baseProfile="tiny">

<g font-family="Helvetica" font-weight="normal">

<g>
	<polygon points="134,293 140,287 143,295" fill="#aaff00"/>
	<line x1="183" y1="279" x2="141" y2="291" stroke="#aaff00" stroke-width="2"/>
</g>
<g>
	<polygon points="186,276 191,268 195,276" fill="#aaff00"/>
	<line x1="233" y1="250" x2="193" y2="273" stroke="#aaff00" stroke-width="2"/>
</g>
<g>
	<polygon points="235,246 237,237 244,243" fill="#aaff00"/>
	<line x1="272" y1="205" x2="240" y2="241" stroke="#aaff00" stroke-width="2"/>
</g>
<g>
	<polygon points="272,200 267,192 276,192" fill="#aaff00"/>
	<line x1="272" y1="146" x2="272" y2="193" stroke="#aaff00" stroke-width="2"/>
</g>
<g>
	<polygon points="263,94 259,102 254,94" fill="#aaff00"/>
	<line x1="222" y1="121" x2="257" y2="98" stroke="#aaff00" stroke-width="2"/>
</g>
<g>
	<polygon points="267,143 258,144 263,136" fill="#aaff00"/>
	<line x1="222" y1="121" x2="261" y2="140" stroke="#aaff00" stroke-width="2"/>
</g>
<g>
	<polygon points="271,141 266,134 275,133" fill="#aaff00"/>
	<line x1="267" y1="92" x2="270" y2="134" stroke="#aaff00" stroke-width="2"/>
</g>
<g>
	<polygon points="183,7 192,9 186,16" fill="#aaff00"/>
	<line x1="224" y1="42" x2="188" y2="12" stroke="#aaff00" stroke-width="2"/>
</g>
<g>
	<polygon points="182,77 185,68 191,75" fill="#aaff00"/>
	<line x1="224" y1="42" x2="187" y2="72" stroke="#aaff00" stroke-width="2"/>
</g>
<g>
	<polygon points="264,88 255,85 262,79" fill="#aaff00"/>
	<line x1="224" y1="42" x2="259" y2="83" stroke="#aaff00" stroke-width="2"/>
</g>
<g>
	<polygon points="139,38 142,29 148,36" fill="#aaff00"/>
	<line x1="180" y1="5" x2="145" y2="33" stroke="#aaff00" stroke-width="2"/>
</g>
<g>
	<polygon points="175,76 166,75 172,68" fill="#aaff00"/>
	<line x1="136" y1="41" x2="170" y2="72" stroke="#aaff00" stroke-width="2"/>
</g>
<g>
	<polygon points="218,117 209,115 216,109" fill="#aaff00"/>
	<line x1="179" y1="80" x2="213" y2="112" stroke="#aaff00" stroke-width="2"/>
</g>

<g fill="#000000">
	<circle cx="182" cy="278" r="4"/>
</g>
<g fill="#000000">
	<circle cx="129" cy="294" r="4"/>
</g>
<g fill="#000000">
	<circle cx="179" cy="4" r="4"/>
</g>
<g fill="#000000">
	<circle cx="135" cy="40" r="4"/>
</g>
<g fill="#000000">
	<circle cx="178" cy="79" r="4"/>
</g>
<g fill="#000000">
	<circle cx="221" cy="120" r="4"/>
</g>
<g fill="#000000">
	<circle cx="232" cy="249" r="4"/>
</g>
<g fill="#000000">
	<circle cx="223" cy="41" r="4"/>
</g>
<g fill="#000000">
	<circle cx="266" cy="91" r="4"/>
</g>
<g fill="#000000">
	<circle cx="271" cy="145" r="4"/>
</g>
<g fill="#000000">
	<circle cx="271" cy="204" r="4"/>
</g>

</g>

</svg>
