<?xml version="1.0" encoding="utf-8"?>
<!-- Created with Hypercube (http://tumic.wz.cz/hypercube) -->

<svg width="400" height="300" viewBox="0 0 400 300" xmlns="http://www.w3.org/2000/svg" baseProfile="tiny">

<g font-family="Helvetica" font-weight="normal">

<g>
	<polygon points="253,100 244,97 251,91" fill="#aaff00"/>
	<line x1="227" y1="69" x2="248" y2="94" stroke="#aaff00" stroke-width="2"/>
</g>
<g>
	<polygon points="289,142 280,139 287,133" fill="#aaff00"/>
	<line x1="227" y1="69" x2="284" y2="137" stroke="#aaff00" stroke-width="2"/>
</g>
<g>
	<polygon points="195,98 197,90 204,96" fill="#aaff00"/>
	<line x1="227" y1="69" x2="200" y2="93" stroke="#aaff00" stroke-width="2"/>
</g>
<g>
	<polygon points="222,148 223,139 230,144" fill="#aaff00"/>
	<line x1="256" y1="104" x2="227" y2="142" stroke="#aaff00" stroke-width="2"/>
</g>
<g>
	<polygon points="217,148 210,143 217,139" fill="#aaff00"/>
	<line x1="192" y1="102" x2="214" y2="141" stroke="#aaff00" stroke-width="2"/>
</g>
<g>
	<polygon points="218,156 221,165 212,162" fill="#aaff00"/>
	<line x1="200" y1="232" x2="217" y2="163" stroke="#aaff00" stroke-width="2"/>
</g>
<g>
	<polygon points="249,209 244,217 240,208" fill="#aaff00"/>
	<line x1="200" y1="232" x2="243" y2="212" stroke="#aaff00" stroke-width="2"/>
</g>
<g>
	<polygon points="256,204 256,195 264,199" fill="#aaff00"/>
	<line x1="292" y1="146" x2="260" y2="198" stroke="#aaff00" stroke-width="2"/>
</g>
<g>
	<polygon points="217,155 216,164 209,159" fill="#aaff00"/>
	<line x1="192" y1="190" x2="213" y2="161" stroke="#aaff00" stroke-width="2"/>
</g>
<g>
	<polygon points="249,206 240,208 243,200" fill="#aaff00"/>
	<line x1="192" y1="190" x2="242" y2="204" stroke="#aaff00" stroke-width="2"/>
</g>
<g>
	<polygon points="195,231 187,235 188,226" fill="#aaff00"/>
	<line x1="140" y1="226" x2="188" y2="230" stroke="#aaff00" stroke-width="2"/>
</g>
<g>
	<polygon points="188,192 184,200 179,193" fill="#aaff00"/>
	<line x1="140" y1="226" x2="182" y2="196" stroke="#aaff00" stroke-width="2"/>
</g>
<g>
	<polygon points="138,221 131,216 139,212" fill="#aaff00"/>
	<line x1="109" y1="149" x2="135" y2="215" stroke="#aaff00" stroke-width="2"/>
</g>
<g>
	<polygon points="143,176 134,174 140,167" fill="#aaff00"/>
	<line x1="109" y1="149" x2="137" y2="171" stroke="#aaff00" stroke-width="2"/>
</g>
<g>
	<polygon points="140,84 140,93 132,89" fill="#aaff00"/>
	<line x1="109" y1="149" x2="136" y2="90" stroke="#aaff00" stroke-width="2"/>
</g>
<g>
	<polygon points="196,228 188,226 194,220" fill="#aaff00"/>
	<line x1="147" y1="179" x2="191" y2="223" stroke="#aaff00" stroke-width="2"/>
</g>
<g>
	<polygon points="187,188 178,191 181,182" fill="#aaff00"/>
	<line x1="147" y1="179" x2="180" y2="187" stroke="#aaff00" stroke-width="2"/>
</g>
<g>
	<polygon points="222,69 215,75 214,66" fill="#aaff00"/>
	<line x1="142" y1="80" x2="215" y2="70" stroke="#aaff00" stroke-width="2"/>
</g>

<g fill="#000000">
	<circle cx="226" cy="68" r="4"/>
</g>
<g fill="#000000">
	<circle cx="255" cy="103" r="4"/>
</g>
<g fill="#000000">
	<circle cx="291" cy="145" r="4"/>
</g>
<g fill="#000000">
	<circle cx="191" cy="101" r="4"/>
</g>
<g fill="#000000">
	<circle cx="219" cy="151" r="4"/>
</g>
<g fill="#000000">
	<circle cx="253" cy="207" r="4"/>
</g>
<g fill="#000000">
	<circle cx="108" cy="148" r="4"/>
</g>
<g fill="#000000">
	<circle cx="139" cy="225" r="4"/>
</g>
<g fill="#000000">
	<circle cx="146" cy="178" r="4"/>
</g>
<g fill="#000000">
	<circle cx="141" cy="79" r="4"/>
</g>
<g fill="#000000">
	<circle cx="199" cy="231" r="4"/>
</g>
<g fill="#000000">
	<circle cx="191" cy="189" r="4"/>
</g>

</g>

</svg>
