<?xml version="1.0" encoding="utf-8"?>
<!-- Created with Hypercube (http://tumic.wz.cz/hypercube) -->

<svg width="400" height="300" viewBox="0 0 400 300" xmlns="http://www.w3.org/2000/svg" baseProfile="tiny">

<g font-family="Helvetica" font-weight="normal">

<g>
	<polygon points="180,151 181,142 189,147" fill="#aaff00"/>
	<line x1="225" y1="93" x2="185" y2="145" stroke="#aaff00" stroke-width="2"/>
</g>
<g>
	<polygon points="278,134 269,133 275,125" fill="#aaff00"/>
	<line x1="225" y1="93" x2="272" y2="129" stroke="#aaff00" stroke-width="2"/>
</g>
<g>
	<polygon points="166,64 175,64 171,72" fill="#aaff00"/>
	<line x1="225" y1="93" x2="172" y2="68" stroke="#aaff00" stroke-width="2"/>
</g>
<g>
	<polygon points="225,138 221,130 230,130" fill="#aaff00"/>
	<line x1="225" y1="93" x2="225" y2="131" stroke="#aaff00" stroke-width="2"/>
</g>
<g>
	<polygon points="231,188 222,188 227,180" fill="#aaff00"/>
	<line x1="178" y1="155" x2="225" y2="184" stroke="#aaff00" stroke-width="2"/>
</g>
<g>
	<polygon points="118,116 127,116 122,124" fill="#aaff00"/>
	<line x1="178" y1="155" x2="124" y2="120" stroke="#aaff00" stroke-width="2"/>
</g>
<g>
	<polygon points="177,199 172,191 181,191" fill="#aaff00"/>
	<line x1="178" y1="155" x2="177" y2="192" stroke="#aaff00" stroke-width="2"/>
</g>
<g>
	<polygon points="239,233 234,226 243,225" fill="#aaff00"/>
	<line x1="235" y1="191" x2="238" y2="226" stroke="#aaff00" stroke-width="2"/>
</g>
<g>
	<polygon points="236,235 227,236 231,228" fill="#aaff00"/>
	<line x1="177" y1="204" x2="229" y2="232" stroke="#aaff00" stroke-width="2"/>
</g>
<g>
	<polygon points="126,170 135,171 130,178" fill="#aaff00"/>
	<line x1="177" y1="204" x2="132" y2="174" stroke="#aaff00" stroke-width="2"/>
</g>
<g>
	<polygon points="122,163 116,156 125,155" fill="#aaff00"/>
	<line x1="115" y1="114" x2="121" y2="156" stroke="#aaff00" stroke-width="2"/>
</g>
<g>
	<polygon points="118,110 120,101 126,108" fill="#aaff00"/>
	<line x1="162" y1="63" x2="122" y2="105" stroke="#aaff00" stroke-width="2"/>
</g>
<g>
	<polygon points="165,104 160,97 169,96" fill="#aaff00"/>
	<line x1="162" y1="63" x2="164" y2="97" stroke="#aaff00" stroke-width="2"/>
</g>
<g>
	<polygon points="125,164 126,155 133,160" fill="#aaff00"/>
	<line x1="166" y1="109" x2="129" y2="158" stroke="#aaff00" stroke-width="2"/>
</g>
<g>
	<polygon points="179,200 181,191 188,197" fill="#aaff00"/>
	<line x1="226" y1="143" x2="184" y2="194" stroke="#aaff00" stroke-width="2"/>
</g>
<g>
	<polygon points="282,188 273,186 279,179" fill="#aaff00"/>
	<line x1="226" y1="143" x2="276" y2="183" stroke="#aaff00" stroke-width="2"/>
</g>
<g>
	<polygon points="169,111 178,111 174,118" fill="#aaff00"/>
	<line x1="226" y1="143" x2="176" y2="114" stroke="#aaff00" stroke-width="2"/>
</g>
<g>
	<polygon points="243,234 245,226 251,232" fill="#aaff00"/>
	<line x1="286" y1="191" x2="248" y2="229" stroke="#aaff00" stroke-width="2"/>
</g>
<g>
	<polygon points="237,187 239,178 246,184" fill="#aaff00"/>
	<line x1="282" y1="137" x2="242" y2="182" stroke="#aaff00" stroke-width="2"/>
</g>
<g>
	<polygon points="285,186 280,179 289,178" fill="#aaff00"/>
	<line x1="282" y1="137" x2="285" y2="179" stroke="#aaff00" stroke-width="2"/>
</g>

<g fill="#000000">
	<circle cx="224" cy="92" r="4"/>
</g>
<g fill="#000000">
	<circle cx="177" cy="154" r="4"/>
</g>
<g fill="#000000">
	<circle cx="281" cy="136" r="4"/>
</g>
<g fill="#000000">
	<circle cx="161" cy="62" r="4"/>
</g>
<g fill="#000000">
	<circle cx="225" cy="142" r="4"/>
</g>
<g fill="#000000">
	<circle cx="234" cy="190" r="4"/>
</g>
<g fill="#000000">
	<circle cx="114" cy="113" r="4"/>
</g>
<g fill="#000000">
	<circle cx="176" cy="203" r="4"/>
</g>
<g fill="#000000">
	<circle cx="285" cy="190" r="4"/>
</g>
<g fill="#000000">
	<circle cx="165" cy="108" r="4"/>
</g>
<g fill="#000000">
	<circle cx="239" cy="237" r="4"/>
</g>
<g fill="#000000">
	<circle cx="122" cy="167" r="4"/>
</g>

</g>

</svg>
