<?xml version="1.0" encoding="utf-8"?>
<!-- Created with Hypercube (http://tumic.wz.cz/hypercube) -->

<svg width="400" height="300" viewBox="0 0 400 300" xmlns="http://www.w3.org/2000/svg" baseProfile="tiny">

<g font-family="Helvetica" font-weight="normal">

<g>
	<polygon points="300,10 298,19 292,12" fill="#aaff00"/>
	<line x1="265" y1="49" x2="296" y2="15" stroke="#aaff00" stroke-width="2"/>
</g>
<g>
	<polygon points="167,140 170,131 176,138" fill="#aaff00"/>
	<line x1="223" y1="94" x2="172" y2="135" stroke="#aaff00" stroke-width="2"/>
</g>
<g>
	<polygon points="163,138 156,131 165,130" fill="#aaff00"/>
	<line x1="150" y1="81" x2="161" y2="131" stroke="#aaff00" stroke-width="2"/>
</g>
<g>
	<polygon points="165,147 171,153 162,155" fill="#aaff00"/>
	<line x1="184" y1="230" x2="166" y2="154" stroke="#aaff00" stroke-width="2"/>
</g>
<g>
	<polygon points="185,288 181,280 190,280" fill="#aaff00"/>
	<line x1="184" y1="230" x2="185" y2="281" stroke="#aaff00" stroke-width="2"/>
</g>
<g>
	<polygon points="240,243 231,246 234,237" fill="#aaff00"/>
	<line x1="184" y1="230" x2="233" y2="242" stroke="#aaff00" stroke-width="2"/>
</g>
<g>
	<polygon points="179,230 172,236 171,228" fill="#aaff00"/>
	<line x1="126" y1="242" x2="172" y2="232" stroke="#aaff00" stroke-width="2"/>
</g>
<g>
	<polygon points="121,192 126,199 117,200" fill="#aaff00"/>
	<line x1="126" y1="242" x2="122" y2="199" stroke="#aaff00" stroke-width="2"/>
</g>
<g>
	<polygon points="160,146 158,154 152,148" fill="#aaff00"/>
	<line x1="121" y1="188" x2="155" y2="151" stroke="#aaff00" stroke-width="2"/>
</g>
<g>
	<polygon points="159,141 150,144 153,135" fill="#aaff00"/>
	<line x1="98" y1="125" x2="152" y2="139" stroke="#aaff00" stroke-width="2"/>
</g>
<g>
	<polygon points="168,144 177,142 174,151" fill="#aaff00"/>
	<line x1="222" y1="163" x2="175" y2="146" stroke="#aaff00" stroke-width="2"/>
</g>
<g>
	<polygon points="226,90 228,81 234,88" fill="#aaff00"/>
	<line x1="265" y1="49" x2="230" y2="85" stroke="#aaff00" stroke-width="2"/>
</g>

<g fill="#000000">
	<circle cx="264" cy="48" r="4"/>
</g>
<g fill="#000000">
	<circle cx="303" cy="6" r="4"/>
</g>
<g fill="#000000">
	<circle cx="222" cy="93" r="4"/>
</g>
<g fill="#000000">
	<circle cx="163" cy="142" r="4"/>
</g>
<g fill="#000000">
	<circle cx="149" cy="80" r="4"/>
</g>
<g fill="#000000">
	<circle cx="183" cy="229" r="4"/>
</g>
<g fill="#000000">
	<circle cx="185" cy="292" r="4"/>
</g>
<g fill="#000000">
	<circle cx="244" cy="244" r="4"/>
</g>
<g fill="#000000">
	<circle cx="97" cy="124" r="4"/>
</g>
<g fill="#000000">
	<circle cx="120" cy="187" r="4"/>
</g>
<g fill="#000000">
	<circle cx="125" cy="241" r="4"/>
</g>
<g fill="#000000">
	<circle cx="221" cy="162" r="4"/>
</g>

</g>

</svg>
