<?xml version="1.0" encoding="utf-8"?>
<!-- Created with Hypercube (http://tumic.wz.cz/hypercube) -->

<svg width="400" height="300" viewBox="0 0 400 300" xmlns="http://www.w3.org/2000/svg" baseProfile="tiny">

<g font-family="Helvetica" font-weight="normal">

<g>
	<polygon points="269,176 277,171 277,180" fill="#aaff00"/>
	<line x1="324" y1="177" x2="276" y2="176" stroke="#aaff00" stroke-width="2"/>
</g>
<g>
	<polygon points="328,175 333,167 337,175" fill="#aaff00"/>
	<line x1="376" y1="153" x2="334" y2="172" stroke="#aaff00" stroke-width="2"/>
</g>
<g>
	<polygon points="260,175 252,178 253,169" fill="#aaff00"/>
	<line x1="206" y1="166" x2="253" y2="174" stroke="#aaff00" stroke-width="2"/>
</g>
<g>
	<polygon points="77,153 85,148 85,157" fill="#aaff00"/>
	<line x1="138" y1="155" x2="84" y2="153" stroke="#aaff00" stroke-width="2"/>
</g>
<g>
	<polygon points="124,218 122,210 130,211" fill="#aaff00"/>
	<line x1="138" y1="155" x2="126" y2="211" stroke="#aaff00" stroke-width="2"/>
</g>
<g>
	<polygon points="201,165 193,168 194,159" fill="#aaff00"/>
	<line x1="138" y1="155" x2="194" y2="164" stroke="#aaff00" stroke-width="2"/>
</g>
<g>
	<polygon points="142,95 146,103 137,102" fill="#aaff00"/>
	<line x1="138" y1="155" x2="142" y2="102" stroke="#aaff00" stroke-width="2"/>
</g>
<g>
	<polygon points="28,183 32,175 37,182" fill="#aaff00"/>
	<line x1="73" y1="153" x2="34" y2="179" stroke="#aaff00" stroke-width="2"/>
</g>
<g>
	<polygon points="25,190 30,197 21,198" fill="#aaff00"/>
	<line x1="29" y1="247" x2="25" y2="197" stroke="#aaff00" stroke-width="2"/>
</g>
<g>
	<polygon points="33,248 42,246 39,255" fill="#aaff00"/>
	<line x1="81" y1="265" x2="40" y2="250" stroke="#aaff00" stroke-width="2"/>
</g>
<g>
	<polygon points="84,261 86,253 92,259" fill="#aaff00"/>
	<line x1="124" y1="223" x2="89" y2="256" stroke="#aaff00" stroke-width="2"/>
</g>
<g>
	<polygon points="131,40 138,47 129,48" fill="#aaff00"/>
	<line x1="143" y1="91" x2="133" y2="47" stroke="#aaff00" stroke-width="2"/>
</g>

<g fill="#000000">
	<circle cx="264" cy="175" r="4"/>
</g>
<g fill="#000000">
	<circle cx="375" cy="152" r="4"/>
</g>
<g fill="#000000">
	<circle cx="323" cy="176" r="4"/>
</g>
<g fill="#000000">
	<circle cx="137" cy="154" r="4"/>
</g>
<g fill="#000000">
	<circle cx="72" cy="152" r="4"/>
</g>
<g fill="#000000">
	<circle cx="123" cy="222" r="4"/>
</g>
<g fill="#000000">
	<circle cx="205" cy="165" r="4"/>
</g>
<g fill="#000000">
	<circle cx="142" cy="90" r="4"/>
</g>
<g fill="#000000">
	<circle cx="130" cy="35" r="4"/>
</g>
<g fill="#000000">
	<circle cx="24" cy="185" r="4"/>
</g>
<g fill="#000000">
	<circle cx="80" cy="264" r="4"/>
</g>
<g fill="#000000">
	<circle cx="28" cy="246" r="4"/>
</g>

</g>

</svg>
