<?xml version="1.0" encoding="utf-8"?>
<!-- Created with Hypercube (http://tumic.wz.cz/hypercube) -->

<svg width="400" height="300" viewBox="0 0 400 300" xmlns="http://www.w3.org/2000/svg" baseProfile="tiny">

<g font-family="Helvetica" font-weight="normal">

<g>
	<polygon points="78,152 86,156 79,161" fill="#aaff00"/>
	<line x1="132" y1="226" x2="82" y2="158" stroke="#aaff00" stroke-width="2"/>
</g>
<g>
	<polygon points="110,195 118,199 111,204" fill="#aaff00"/>
	<line x1="132" y1="226" x2="114" y2="201" stroke="#aaff00" stroke-width="2"/>
</g>
<g>
	<polygon points="168,212 163,219 159,210" fill="#aaff00"/>
	<line x1="132" y1="226" x2="162" y2="215" stroke="#aaff00" stroke-width="2"/>
</g>
<g>
	<polygon points="105,101 105,110 97,106" fill="#aaff00"/>
	<line x1="76" y1="149" x2="101" y2="107" stroke="#aaff00" stroke-width="2"/>
</g>
<g>
	<polygon points="112,98 120,95 119,104" fill="#aaff00"/>
	<line x1="174" y1="107" x2="119" y2="99" stroke="#aaff00" stroke-width="2"/>
</g>
<g>
	<polygon points="157,155 155,146 164,149" fill="#aaff00"/>
	<line x1="174" y1="107" x2="159" y2="148" stroke="#aaff00" stroke-width="2"/>
</g>
<g>
	<polygon points="152,162 148,170 143,163" fill="#aaff00"/>
	<line x1="108" y1="192" x2="146" y2="166" stroke="#aaff00" stroke-width="2"/>
</g>
<g>
	<polygon points="157,164 164,170 155,173" fill="#aaff00"/>
	<line x1="173" y1="211" x2="159" y2="171" stroke="#aaff00" stroke-width="2"/>
</g>
<g>
	<polygon points="178,108 187,106 184,115" fill="#aaff00"/>
	<line x1="242" y1="129" x2="185" y2="110" stroke="#aaff00" stroke-width="2"/>
</g>
<g>
	<polygon points="225,191 222,182 231,185" fill="#aaff00"/>
	<line x1="242" y1="129" x2="227" y2="184" stroke="#aaff00" stroke-width="2"/>
</g>
<g>
	<polygon points="136,224 142,217 145,226" fill="#aaff00"/>
	<line x1="224" y1="196" x2="143" y2="222" stroke="#aaff00" stroke-width="2"/>
</g>
<g>
	<polygon points="243,124 243,115 251,119" fill="#aaff00"/>
	<line x1="269" y1="74" x2="247" y2="118" stroke="#aaff00" stroke-width="2"/>
</g>
<g>
	<polygon points="273,74 281,70 280,79" fill="#aaff00"/>
	<line x1="324" y1="80" x2="280" y2="75" stroke="#aaff00" stroke-width="2"/>
</g>
<g>
	<polygon points="305,126 304,117 312,121" fill="#aaff00"/>
	<line x1="324" y1="80" x2="308" y2="120" stroke="#aaff00" stroke-width="2"/>
</g>
<g>
	<polygon points="246,129 254,124 254,133" fill="#aaff00"/>
	<line x1="304" y1="131" x2="253" y2="129" stroke="#aaff00" stroke-width="2"/>
</g>

<g fill="#000000">
	<circle cx="131" cy="225" r="4"/>
</g>
<g fill="#000000">
	<circle cx="75" cy="148" r="4"/>
</g>
<g fill="#000000">
	<circle cx="107" cy="191" r="4"/>
</g>
<g fill="#000000">
	<circle cx="172" cy="210" r="4"/>
</g>
<g fill="#000000">
	<circle cx="107" cy="97" r="4"/>
</g>
<g fill="#000000">
	<circle cx="323" cy="79" r="4"/>
</g>
<g fill="#000000">
	<circle cx="268" cy="73" r="4"/>
</g>
<g fill="#000000">
	<circle cx="303" cy="130" r="4"/>
</g>
<g fill="#000000">
	<circle cx="241" cy="128" r="4"/>
</g>
<g fill="#000000">
	<circle cx="173" cy="106" r="4"/>
</g>
<g fill="#000000">
	<circle cx="223" cy="195" r="4"/>
</g>
<g fill="#000000">
	<circle cx="155" cy="159" r="4"/>
</g>

</g>

</svg>
