<?xml version="1.0" encoding="utf-8"?>
<!-- Created with Hypercube (http://tumic.wz.cz/hypercube) -->

<svg width="400" height="300" viewBox="0 0 400 300" xmlns="http://www.w3.org/2000/svg" baseProfile="tiny">

<g font-family="Helvetica" font-weight="normal">

<g>
	<polygon points="125,56 132,61 124,65" fill="#aaff00"/>
	<line x1="144" y1="106" x2="128" y2="62" stroke="#aaff00" stroke-width="2"/>
</g>
<g>
	<polygon points="181,139 172,138 178,131" fill="#aaff00"/>
	<line x1="144" y1="106" x2="176" y2="135" stroke="#aaff00" stroke-width="2"/>
</g>
<g>
	<polygon points="204,97 197,103 196,94" fill="#aaff00"/>
	<line x1="144" y1="106" x2="197" y2="98" stroke="#aaff00" stroke-width="2"/>
</g>
<g>
	<polygon points="181,49 173,54 173,45" fill="#aaff00"/>
	<line x1="124" y1="52" x2="174" y2="49" stroke="#aaff00" stroke-width="2"/>
</g>
<g>
	<polygon points="69,48 77,44 76,53" fill="#aaff00"/>
	<line x1="124" y1="52" x2="76" y2="48" stroke="#aaff00" stroke-width="2"/>
</g>
<g>
	<polygon points="185,138 180,130 189,130" fill="#aaff00"/>
	<line x1="186" y1="49" x2="185" y2="131" stroke="#aaff00" stroke-width="2"/>
</g>
<g>
	<polygon points="207,92 199,87 207,83" fill="#aaff00"/>
	<line x1="186" y1="49" x2="203" y2="86" stroke="#aaff00" stroke-width="2"/>
</g>
<g>
	<polygon points="269,70 260,73 263,64" fill="#aaff00"/>
	<line x1="186" y1="49" x2="262" y2="69" stroke="#aaff00" stroke-width="2"/>
</g>
<g>
	<polygon points="189,142 196,137 197,146" fill="#aaff00"/>
	<line x1="243" y1="138" x2="196" y2="141" stroke="#aaff00" stroke-width="2"/>
</g>
<g>
	<polygon points="223,188 222,179 230,183" fill="#aaff00"/>
	<line x1="243" y1="138" x2="226" y2="182" stroke="#aaff00" stroke-width="2"/>
</g>
<g>
	<polygon points="187,146 195,150 188,155" fill="#aaff00"/>
	<line x1="222" y1="193" x2="191" y2="152" stroke="#aaff00" stroke-width="2"/>
</g>
<g>
	<polygon points="231,247 225,240 234,239" fill="#aaff00"/>
	<line x1="222" y1="193" x2="230" y2="240" stroke="#aaff00" stroke-width="2"/>
</g>
<g>
	<polygon points="269,73 264,80 260,72" fill="#aaff00"/>
	<line x1="209" y1="97" x2="263" y2="76" stroke="#aaff00" stroke-width="2"/>
</g>
<g>
	<polygon points="228,64 228,73 220,69" fill="#aaff00"/>
	<line x1="209" y1="97" x2="224" y2="70" stroke="#aaff00" stroke-width="2"/>
</g>
<g>
	<polygon points="240,134 231,131 238,125" fill="#aaff00"/>
	<line x1="209" y1="97" x2="235" y2="129" stroke="#aaff00" stroke-width="2"/>
</g>
<g>
	<polygon points="244,133 244,124 252,128" fill="#aaff00"/>
	<line x1="274" y1="72" x2="247" y2="127" stroke="#aaff00" stroke-width="2"/>
</g>
<g>
	<polygon points="331,63 324,69 323,60" fill="#aaff00"/>
	<line x1="274" y1="72" x2="324" y2="64" stroke="#aaff00" stroke-width="2"/>
</g>

<g fill="#000000">
	<circle cx="143" cy="105" r="4"/>
</g>
<g fill="#000000">
	<circle cx="123" cy="51" r="4"/>
</g>
<g fill="#000000">
	<circle cx="184" cy="142" r="4"/>
</g>
<g fill="#000000">
	<circle cx="185" cy="48" r="4"/>
</g>
<g fill="#000000">
	<circle cx="64" cy="47" r="4"/>
</g>
<g fill="#000000">
	<circle cx="208" cy="96" r="4"/>
</g>
<g fill="#000000">
	<circle cx="273" cy="71" r="4"/>
</g>
<g fill="#000000">
	<circle cx="230" cy="60" r="4"/>
</g>
<g fill="#000000">
	<circle cx="242" cy="137" r="4"/>
</g>
<g fill="#000000">
	<circle cx="221" cy="192" r="4"/>
</g>
<g fill="#000000">
	<circle cx="231" cy="251" r="4"/>
</g>
<g fill="#000000">
	<circle cx="335" cy="62" r="4"/>
</g>

</g>

</svg>
