<?xml version="1.0" encoding="utf-8"?>
<!-- Created with Hypercube (http://tumic.wz.cz/hypercube) -->

<svg width="400" height="300" viewBox="0 0 400 300" xmlns="http://www.w3.org/2000/svg" baseProfile="tiny">

<g font-family="Helvetica" font-weight="normal">

<g>
	<polygon points="163,225 166,217 172,224" fill="#aaff00"/>
	<line x1="201" y1="192" x2="168" y2="221" stroke="#aaff00" stroke-width="2"/>
</g>
<g>
	<polygon points="249,172 244,179 240,171" fill="#aaff00"/>
	<line x1="201" y1="192" x2="243" y2="175" stroke="#aaff00" stroke-width="2"/>
</g>
<g>
	<polygon points="210,234 204,228 213,226" fill="#aaff00"/>
	<line x1="201" y1="192" x2="209" y2="227" stroke="#aaff00" stroke-width="2"/>
</g>
<g>
	<polygon points="126,178 134,182 127,187" fill="#aaff00"/>
	<line x1="160" y1="229" x2="130" y2="184" stroke="#aaff00" stroke-width="2"/>
</g>
<g>
	<polygon points="139,111 142,120 133,117" fill="#aaff00"/>
	<line x1="124" y1="175" x2="138" y2="118" stroke="#aaff00" stroke-width="2"/>
</g>
<g>
	<polygon points="205,118 197,121 198,112" fill="#aaff00"/>
	<line x1="141" y1="107" x2="198" y2="116" stroke="#aaff00" stroke-width="2"/>
</g>
<g>
	<polygon points="92,86 101,85 97,93" fill="#aaff00"/>
	<line x1="141" y1="107" x2="98" y2="89" stroke="#aaff00" stroke-width="2"/>
</g>
<g>
	<polygon points="153,50 156,58 147,56" fill="#aaff00"/>
	<line x1="141" y1="107" x2="152" y2="57" stroke="#aaff00" stroke-width="2"/>
</g>
<g>
	<polygon points="302,147 297,155 293,147" fill="#aaff00"/>
	<line x1="254" y1="171" x2="296" y2="150" stroke="#aaff00" stroke-width="2"/>
</g>
<g>
	<polygon points="212,122 221,125 214,131" fill="#aaff00"/>
	<line x1="254" y1="171" x2="217" y2="127" stroke="#aaff00" stroke-width="2"/>
</g>
<g>
	<polygon points="254,243 249,235 258,235" fill="#aaff00"/>
	<line x1="254" y1="171" x2="254" y2="236" stroke="#aaff00" stroke-width="2"/>
</g>
<g>
	<polygon points="164,229 172,227 171,235" fill="#aaff00"/>
	<line x1="254" y1="248" x2="171" y2="231" stroke="#aaff00" stroke-width="2"/>
</g>
<g>
	<polygon points="216,239 224,237 223,245" fill="#aaff00"/>
	<line x1="254" y1="248" x2="223" y2="241" stroke="#aaff00" stroke-width="2"/>
</g>
<g>
	<polygon points="308,254 300,258 301,249" fill="#aaff00"/>
	<line x1="254" y1="248" x2="301" y2="253" stroke="#aaff00" stroke-width="2"/>
</g>

<g fill="#000000">
	<circle cx="200" cy="191" r="4"/>
</g>
<g fill="#000000">
	<circle cx="159" cy="228" r="4"/>
</g>
<g fill="#000000">
	<circle cx="253" cy="170" r="4"/>
</g>
<g fill="#000000">
	<circle cx="211" cy="238" r="4"/>
</g>
<g fill="#000000">
	<circle cx="123" cy="174" r="4"/>
</g>
<g fill="#000000">
	<circle cx="306" cy="145" r="4"/>
</g>
<g fill="#000000">
	<circle cx="209" cy="118" r="4"/>
</g>
<g fill="#000000">
	<circle cx="253" cy="247" r="4"/>
</g>
<g fill="#000000">
	<circle cx="140" cy="106" r="4"/>
</g>
<g fill="#000000">
	<circle cx="87" cy="84" r="4"/>
</g>
<g fill="#000000">
	<circle cx="312" cy="254" r="4"/>
</g>
<g fill="#000000">
	<circle cx="154" cy="45" r="4"/>
</g>

</g>

</svg>
