<?xml version="1.0" encoding="utf-8"?>
<!-- Created with Hypercube (http://tumic.wz.cz/hypercube) -->

<svg width="400" height="300" viewBox="0 0 400 300" xmlns="http://www.w3.org/2000/svg" baseProfile="tiny">

<g font-family="Helvetica" font-weight="normal">

<g>
	<polygon points="25,161 33,157 33,166" fill="#aaff00"/>
	<line x1="77" y1="160" x2="32" y2="161" stroke="#aaff00" stroke-width="2"/>
</g>
<g>
	<polygon points="185,151 180,158 176,150" fill="#aaff00"/>
	<line x1="136" y1="171" x2="179" y2="154" stroke="#aaff00" stroke-width="2"/>
</g>
<g>
	<polygon points="173,212 164,209 171,203" fill="#aaff00"/>
	<line x1="136" y1="171" x2="168" y2="207" stroke="#aaff00" stroke-width="2"/>
</g>
<g>
	<polygon points="81,160 89,157 88,166" fill="#aaff00"/>
	<line x1="136" y1="171" x2="88" y2="162" stroke="#aaff00" stroke-width="2"/>
</g>
<g>
	<polygon points="232,188 223,187 229,180" fill="#aaff00"/>
	<line x1="190" y1="150" x2="227" y2="184" stroke="#aaff00" stroke-width="2"/>
</g>
<g>
	<polygon points="271,238 262,234 270,229" fill="#aaff00"/>
	<line x1="236" y1="192" x2="266" y2="232" stroke="#aaff00" stroke-width="2"/>
</g>
<g>
	<polygon points="308,280 300,277 307,271" fill="#aaff00"/>
	<line x1="274" y1="242" x2="304" y2="275" stroke="#aaff00" stroke-width="2"/>
</g>
<g>
	<polygon points="231,193 226,200 222,192" fill="#aaff00"/>
	<line x1="176" y1="216" x2="225" y2="196" stroke="#aaff00" stroke-width="2"/>
</g>
<g>
	<polygon points="239,189 242,180 248,187" fill="#aaff00"/>
	<line x1="287" y1="152" x2="245" y2="184" stroke="#aaff00" stroke-width="2"/>
</g>
<g>
	<polygon points="290,148 292,140 299,146" fill="#aaff00"/>
	<line x1="329" y1="113" x2="295" y2="144" stroke="#aaff00" stroke-width="2"/>
</g>
<g>
	<polygon points="361,71 360,80 352,74" fill="#aaff00"/>
	<line x1="329" y1="113" x2="356" y2="77" stroke="#aaff00" stroke-width="2"/>
</g>
<g>
	<polygon points="378,21 380,30 372,27" fill="#aaff00"/>
	<line x1="364" y1="68" x2="376" y2="28" stroke="#aaff00" stroke-width="2"/>
</g>

<g fill="#000000">
	<circle cx="20" cy="161" r="4"/>
</g>
<g fill="#000000">
	<circle cx="311" cy="283" r="4"/>
</g>
<g fill="#000000">
	<circle cx="235" cy="191" r="4"/>
</g>
<g fill="#000000">
	<circle cx="273" cy="241" r="4"/>
</g>
<g fill="#000000">
	<circle cx="135" cy="170" r="4"/>
</g>
<g fill="#000000">
	<circle cx="189" cy="149" r="4"/>
</g>
<g fill="#000000">
	<circle cx="175" cy="215" r="4"/>
</g>
<g fill="#000000">
	<circle cx="76" cy="159" r="4"/>
</g>
<g fill="#000000">
	<circle cx="328" cy="112" r="4"/>
</g>
<g fill="#000000">
	<circle cx="286" cy="151" r="4"/>
</g>
<g fill="#000000">
	<circle cx="363" cy="67" r="4"/>
</g>
<g fill="#000000">
	<circle cx="379" cy="16" r="4"/>
</g>

</g>

</svg>
