<?xml version="1.0" encoding="utf-8"?>
<!-- Created with Hypercube (http://tumic.wz.cz/hypercube) -->

<svg width="400" height="300" viewBox="0 0 400 300" xmlns="http://www.w3.org/2000/svg" baseProfile="tiny">

<g font-family="Helvetica" font-weight="normal">

<g>
	<polygon points="250,268 250,259 258,263" fill="#aaff00"/>
	<line x1="279" y1="222" x2="254" y2="262" stroke="#aaff00" stroke-width="2"/>
</g>
<g>
	<polygon points="227,209 236,206 233,215" fill="#aaff00"/>
	<line x1="279" y1="222" x2="234" y2="210" stroke="#aaff00" stroke-width="2"/>
</g>
<g>
	<polygon points="193,257 202,254 199,263" fill="#aaff00"/>
	<line x1="248" y1="272" x2="200" y2="259" stroke="#aaff00" stroke-width="2"/>
</g>
<g>
	<polygon points="220,211 219,220 212,215" fill="#aaff00"/>
	<line x1="189" y1="256" x2="216" y2="217" stroke="#aaff00" stroke-width="2"/>
</g>
<g>
	<polygon points="184,255 176,260 176,251" fill="#aaff00"/>
	<line x1="128" y1="254" x2="177" y2="255" stroke="#aaff00" stroke-width="2"/>
</g>
<g>
	<polygon points="28,202 37,203 32,210" fill="#aaff00"/>
	<line x1="72" y1="235" x2="34" y2="206" stroke="#aaff00" stroke-width="2"/>
</g>
<g>
	<polygon points="123,252 114,254 117,245" fill="#aaff00"/>
	<line x1="72" y1="235" x2="116" y2="250" stroke="#aaff00" stroke-width="2"/>
</g>
<g>
	<polygon points="6,150 13,155 5,159" fill="#aaff00"/>
	<line x1="25" y1="200" x2="9" y2="156" stroke="#aaff00" stroke-width="2"/>
</g>
<g>
	<polygon points="282,219 285,210 291,217" fill="#aaff00"/>
	<line x1="327" y1="183" x2="288" y2="214" stroke="#aaff00" stroke-width="2"/>
</g>
<g>
	<polygon points="379,89 380,98 372,94" fill="#aaff00"/>
	<line x1="360" y1="134" x2="376" y2="95" stroke="#aaff00" stroke-width="2"/>
</g>
<g>
	<polygon points="329,179 330,170 337,175" fill="#aaff00"/>
	<line x1="360" y1="134" x2="333" y2="173" stroke="#aaff00" stroke-width="2"/>
</g>
<g>
	<polygon points="393,34 396,43 387,40" fill="#aaff00"/>
	<line x1="381" y1="85" x2="392" y2="41" stroke="#aaff00" stroke-width="2"/>
</g>

<g fill="#000000">
	<circle cx="278" cy="221" r="4"/>
</g>
<g fill="#000000">
	<circle cx="247" cy="271" r="4"/>
</g>
<g fill="#000000">
	<circle cx="394" cy="29" r="4"/>
</g>
<g fill="#000000">
	<circle cx="4" cy="145" r="4"/>
</g>
<g fill="#000000">
	<circle cx="71" cy="234" r="4"/>
</g>
<g fill="#000000">
	<circle cx="24" cy="199" r="4"/>
</g>
<g fill="#000000">
	<circle cx="127" cy="253" r="4"/>
</g>
<g fill="#000000">
	<circle cx="359" cy="133" r="4"/>
</g>
<g fill="#000000">
	<circle cx="380" cy="84" r="4"/>
</g>
<g fill="#000000">
	<circle cx="326" cy="182" r="4"/>
</g>
<g fill="#000000">
	<circle cx="188" cy="255" r="4"/>
</g>
<g fill="#000000">
	<circle cx="222" cy="207" r="4"/>
</g>

</g>

</svg>
