<?xml version="1.0" encoding="utf-8"?>
<!-- Created with Hypercube (http://tumic.wz.cz/hypercube) -->

<svg width="400" height="300" viewBox="0 0 400 300" xmlns="http://www.w3.org/2000/svg" baseProfile="tiny">

<g font-family="Helvetica" font-weight="normal">

<g>
	<polygon points="198,96 193,104 189,96" fill="#aaff00"/>
	<line x1="153" y1="122" x2="191" y2="99" stroke="#aaff00" stroke-width="2"/>
</g>
<g>
	<polygon points="156,159 151,152 160,151" fill="#aaff00"/>
	<line x1="153" y1="122" x2="155" y2="152" stroke="#aaff00" stroke-width="2"/>
</g>
<g>
	<polygon points="160,202 155,195 164,194" fill="#aaff00"/>
	<line x1="153" y1="122" x2="159" y2="195" stroke="#aaff00" stroke-width="2"/>
</g>
<g>
	<polygon points="166,70 169,79 160,76" fill="#aaff00"/>
	<line x1="153" y1="122" x2="164" y2="77" stroke="#aaff00" stroke-width="2"/>
</g>
<g>
	<polygon points="233,122 225,126 225,117" fill="#aaff00"/>
	<line x1="153" y1="122" x2="226" y2="122" stroke="#aaff00" stroke-width="2"/>
</g>
<g>
	<polygon points="234,119 225,118 231,110" fill="#aaff00"/>
	<line x1="202" y1="94" x2="228" y2="114" stroke="#aaff00" stroke-width="2"/>
</g>
<g>
	<polygon points="234,119 225,117 231,110" fill="#aaff00"/>
	<line x1="168" y1="66" x2="228" y2="114" stroke="#aaff00" stroke-width="2"/>
</g>
<g>
	<polygon points="157,123 166,122 162,130" fill="#aaff00"/>
	<line x1="190" y1="137" x2="163" y2="126" stroke="#aaff00" stroke-width="2"/>
</g>
<g>
	<polygon points="200,98 203,107 194,104" fill="#aaff00"/>
	<line x1="190" y1="137" x2="198" y2="105" stroke="#aaff00" stroke-width="2"/>
</g>
<g>
	<polygon points="160,161 163,152 169,159" fill="#aaff00"/>
	<line x1="190" y1="137" x2="166" y2="156" stroke="#aaff00" stroke-width="2"/>
</g>
<g>
	<polygon points="162,202 161,193 169,197" fill="#aaff00"/>
	<line x1="190" y1="137" x2="165" y2="196" stroke="#aaff00" stroke-width="2"/>
</g>
<g>
	<polygon points="169,70 175,76 167,79" fill="#aaff00"/>
	<line x1="190" y1="137" x2="171" y2="77" stroke="#aaff00" stroke-width="2"/>
</g>
<g>
	<polygon points="233,123 227,129 224,121" fill="#aaff00"/>
	<line x1="190" y1="137" x2="226" y2="125" stroke="#aaff00" stroke-width="2"/>
</g>
<g>
	<polygon points="160,202 155,195 164,194" fill="#aaff00"/>
	<line x1="157" y1="164" x2="159" y2="195" stroke="#aaff00" stroke-width="2"/>
</g>
<g>
	<polygon points="165,205 171,198 174,207" fill="#aaff00"/>
	<line x1="228" y1="185" x2="172" y2="203" stroke="#aaff00" stroke-width="2"/>
</g>
<g>
	<polygon points="237,126 240,134 231,133" fill="#aaff00"/>
	<line x1="228" y1="185" x2="236" y2="133" stroke="#aaff00" stroke-width="2"/>
</g>
<g>
	<polygon points="223,212 220,204 229,205" fill="#aaff00"/>
	<line x1="228" y1="185" x2="224" y2="205" stroke="#aaff00" stroke-width="2"/>
</g>
<g>
	<polygon points="231,160 234,168 225,167" fill="#aaff00"/>
	<line x1="228" y1="185" x2="230" y2="167" stroke="#aaff00" stroke-width="2"/>
</g>
<g>
	<polygon points="165,207 173,204 172,213" fill="#aaff00"/>
	<line x1="223" y1="217" x2="172" y2="208" stroke="#aaff00" stroke-width="2"/>
</g>
<g>
	<polygon points="237,126 240,134 231,133" fill="#aaff00"/>
	<line x1="223" y1="217" x2="236" y2="133" stroke="#aaff00" stroke-width="2"/>
</g>
<g>
	<polygon points="155,125 162,130 154,134" fill="#aaff00"/>
	<line x1="191" y1="194" x2="158" y2="132" stroke="#aaff00" stroke-width="2"/>
</g>
<g>
	<polygon points="223,186 217,192 214,183" fill="#aaff00"/>
	<line x1="191" y1="194" x2="216" y2="187" stroke="#aaff00" stroke-width="2"/>
</g>
<g>
	<polygon points="244,232 235,231 240,224" fill="#aaff00"/>
	<line x1="191" y1="194" x2="238" y2="228" stroke="#aaff00" stroke-width="2"/>
</g>
<g>
	<polygon points="219,214 210,213 215,206" fill="#aaff00"/>
	<line x1="191" y1="194" x2="213" y2="210" stroke="#aaff00" stroke-width="2"/>
</g>
<g>
	<polygon points="228,159 226,167 219,161" fill="#aaff00"/>
	<line x1="191" y1="194" x2="223" y2="163" stroke="#aaff00" stroke-width="2"/>
</g>
<g>
	<polygon points="190,141 194,149 185,149" fill="#aaff00"/>
	<line x1="191" y1="194" x2="190" y2="148" stroke="#aaff00" stroke-width="2"/>
</g>
<g>
	<polygon points="165,208 174,206 171,215" fill="#aaff00"/>
	<line x1="248" y1="235" x2="172" y2="210" stroke="#aaff00" stroke-width="2"/>
</g>
<g>
	<polygon points="238,126 243,133 234,134" fill="#aaff00"/>
	<line x1="248" y1="235" x2="239" y2="133" stroke="#aaff00" stroke-width="2"/>
</g>
<g>
	<polygon points="226,219 235,220 230,227" fill="#aaff00"/>
	<line x1="248" y1="235" x2="232" y2="223" stroke="#aaff00" stroke-width="2"/>
</g>
<g>
	<polygon points="232,160 238,167 230,168" fill="#aaff00"/>
	<line x1="248" y1="235" x2="234" y2="167" stroke="#aaff00" stroke-width="2"/>
</g>
<g>
	<polygon points="164,204 168,196 173,203" fill="#aaff00"/>
	<line x1="232" y1="156" x2="170" y2="200" stroke="#aaff00" stroke-width="2"/>
</g>
<g>
	<polygon points="237,126 240,134 231,133" fill="#aaff00"/>
	<line x1="232" y1="156" x2="235" y2="133" stroke="#aaff00" stroke-width="2"/>
</g>
<g>
	<polygon points="194,138 203,137 199,146" fill="#aaff00"/>
	<line x1="232" y1="156" x2="200" y2="141" stroke="#aaff00" stroke-width="2"/>
</g>

<g fill="#000000">
	<circle cx="152" cy="121" r="4"/>
</g>
<g fill="#000000">
	<circle cx="201" cy="93" r="4"/>
</g>
<g fill="#000000">
	<circle cx="156" cy="163" r="4"/>
</g>
<g fill="#000000">
	<circle cx="160" cy="206" r="4"/>
</g>
<g fill="#000000">
	<circle cx="167" cy="65" r="4"/>
</g>
<g fill="#000000">
	<circle cx="237" cy="121" r="4"/>
</g>
<g fill="#000000">
	<circle cx="190" cy="193" r="4"/>
</g>
<g fill="#000000">
	<circle cx="227" cy="184" r="4"/>
</g>
<g fill="#000000">
	<circle cx="247" cy="234" r="4"/>
</g>
<g fill="#000000">
	<circle cx="222" cy="216" r="4"/>
</g>
<g fill="#000000">
	<circle cx="231" cy="155" r="4"/>
</g>
<g fill="#000000">
	<circle cx="189" cy="136" r="4"/>
</g>

</g>

</svg>
