<?xml version="1.0" encoding="utf-8"?>
<!-- Created with Hypercube (http://tumic.wz.cz/hypercube) -->

<svg width="400" height="300" viewBox="0 0 400 300" xmlns="http://www.w3.org/2000/svg" baseProfile="tiny">

<g font-family="Helvetica" font-weight="normal">

<g>
	<polygon points="151,79 159,75 158,84" fill="#aaff00"/>
	<line x1="219" y1="86" x2="158" y2="80" stroke="#aaff00" stroke-width="2"/>
</g>
<g>
	<polygon points="211,125 208,117 217,118" fill="#aaff00"/>
	<line x1="219" y1="86" x2="213" y2="118" stroke="#aaff00" stroke-width="2"/>
</g>
<g>
	<polygon points="198,165 195,156 204,159" fill="#aaff00"/>
	<line x1="219" y1="86" x2="199" y2="158" stroke="#aaff00" stroke-width="2"/>
</g>
<g>
	<polygon points="283,116 274,116 278,108" fill="#aaff00"/>
	<line x1="219" y1="86" x2="277" y2="113" stroke="#aaff00" stroke-width="2"/>
</g>
<g>
	<polygon points="115,136 115,127 122,131" fill="#aaff00"/>
	<line x1="147" y1="79" x2="118" y2="129" stroke="#aaff00" stroke-width="2"/>
</g>
<g>
	<polygon points="156,122 150,115 158,114" fill="#aaff00"/>
	<line x1="147" y1="79" x2="154" y2="115" stroke="#aaff00" stroke-width="2"/>
</g>
<g>
	<polygon points="192,168 183,170 186,161" fill="#aaff00"/>
	<line x1="113" y1="140" x2="185" y2="166" stroke="#aaff00" stroke-width="2"/>
</g>
<g>
	<polygon points="130,183 123,178 131,174" fill="#aaff00"/>
	<line x1="113" y1="140" x2="127" y2="177" stroke="#aaff00" stroke-width="2"/>
</g>
<g>
	<polygon points="196,174 199,182 190,181" fill="#aaff00"/>
	<line x1="191" y1="214" x2="195" y2="181" stroke="#aaff00" stroke-width="2"/>
</g>
<g>
	<polygon points="244,220 236,223 237,215" fill="#aaff00"/>
	<line x1="191" y1="214" x2="237" y2="219" stroke="#aaff00" stroke-width="2"/>
</g>
<g>
	<polygon points="255,159 259,167 250,166" fill="#aaff00"/>
	<line x1="249" y1="221" x2="254" y2="166" stroke="#aaff00" stroke-width="2"/>
</g>
<g>
	<polygon points="285,190 282,199 276,192" fill="#aaff00"/>
	<line x1="249" y1="221" x2="279" y2="195" stroke="#aaff00" stroke-width="2"/>
</g>
<g>
	<polygon points="285,121 283,130 276,124" fill="#aaff00"/>
	<line x1="256" y1="155" x2="280" y2="126" stroke="#aaff00" stroke-width="2"/>
</g>
<g>
	<polygon points="201,170 209,167 208,176" fill="#aaff00"/>
	<line x1="289" y1="188" x2="208" y2="172" stroke="#aaff00" stroke-width="2"/>
</g>
<g>
	<polygon points="288,122 292,130 283,130" fill="#aaff00"/>
	<line x1="289" y1="188" x2="288" y2="129" stroke="#aaff00" stroke-width="2"/>
</g>
<g>
	<polygon points="161,127 169,123 169,132" fill="#aaff00"/>
	<line x1="211" y1="130" x2="168" y2="127" stroke="#aaff00" stroke-width="2"/>
</g>
<g>
	<polygon points="252,152 243,152 247,145" fill="#aaff00"/>
	<line x1="211" y1="130" x2="245" y2="149" stroke="#aaff00" stroke-width="2"/>
</g>
<g>
	<polygon points="192,209 189,200 198,203" fill="#aaff00"/>
	<line x1="211" y1="130" x2="193" y2="202" stroke="#aaff00" stroke-width="2"/>
</g>
<g>
	<polygon points="133,183 132,174 140,178" fill="#aaff00"/>
	<line x1="157" y1="127" x2="136" y2="177" stroke="#aaff00" stroke-width="2"/>
</g>
<g>
	<polygon points="186,212 177,213 181,204" fill="#aaff00"/>
	<line x1="132" y1="188" x2="180" y2="209" stroke="#aaff00" stroke-width="2"/>
</g>

<g fill="#000000">
	<circle cx="218" cy="85" r="4"/>
</g>
<g fill="#000000">
	<circle cx="146" cy="78" r="4"/>
</g>
<g fill="#000000">
	<circle cx="210" cy="129" r="4"/>
</g>
<g fill="#000000">
	<circle cx="112" cy="139" r="4"/>
</g>
<g fill="#000000">
	<circle cx="156" cy="126" r="4"/>
</g>
<g fill="#000000">
	<circle cx="255" cy="154" r="4"/>
</g>
<g fill="#000000">
	<circle cx="196" cy="169" r="4"/>
</g>
<g fill="#000000">
	<circle cx="131" cy="187" r="4"/>
</g>
<g fill="#000000">
	<circle cx="287" cy="117" r="4"/>
</g>
<g fill="#000000">
	<circle cx="190" cy="213" r="4"/>
</g>
<g fill="#000000">
	<circle cx="248" cy="220" r="4"/>
</g>
<g fill="#000000">
	<circle cx="288" cy="187" r="4"/>
</g>

</g>

</svg>
