<?xml version="1.0" encoding="utf-8"?>
<!-- Created with Hypercube (http://tumic.wz.cz/hypercube) -->

<svg width="400" height="300" viewBox="0 0 400 300" xmlns="http://www.w3.org/2000/svg" baseProfile="tiny">

<g font-family="Helvetica" font-weight="normal">

<g>
	<polygon points="95,97 91,89 100,89" fill="#aaff00"/>
	<line x1="95" y1="41" x2="95" y2="90" stroke="#aaff00" stroke-width="2"/>
</g>
<g>
	<polygon points="96,141 92,133 101,133" fill="#aaff00"/>
	<line x1="96" y1="102" x2="96" y2="134" stroke="#aaff00" stroke-width="2"/>
</g>
<g>
	<polygon points="133,110 124,113 127,104" fill="#aaff00"/>
	<line x1="96" y1="102" x2="126" y2="109" stroke="#aaff00" stroke-width="2"/>
</g>
<g>
	<polygon points="179,121 171,123 173,114" fill="#aaff00"/>
	<line x1="96" y1="102" x2="172" y2="119" stroke="#aaff00" stroke-width="2"/>
</g>
<g>
	<polygon points="134,114 131,123 125,116" fill="#aaff00"/>
	<line x1="97" y1="146" x2="129" y2="119" stroke="#aaff00" stroke-width="2"/>
</g>
<g>
	<polygon points="179,121 171,123 172,114" fill="#aaff00"/>
	<line x1="138" y1="112" x2="172" y2="119" stroke="#aaff00" stroke-width="2"/>
</g>
<g>
	<polygon points="216,76 215,85 208,80" fill="#aaff00"/>
	<line x1="184" y1="122" x2="212" y2="82" stroke="#aaff00" stroke-width="2"/>
</g>
<g>
	<polygon points="243,115 236,120 235,111" fill="#aaff00"/>
	<line x1="184" y1="122" x2="236" y2="116" stroke="#aaff00" stroke-width="2"/>
</g>
<g>
	<polygon points="245,111 237,107 244,102" fill="#aaff00"/>
	<line x1="219" y1="73" x2="241" y2="105" stroke="#aaff00" stroke-width="2"/>
</g>
<g>
	<polygon points="300,120 292,124 293,115" fill="#aaff00"/>
	<line x1="248" y1="115" x2="293" y2="119" stroke="#aaff00" stroke-width="2"/>
</g>
<g>
	<polygon points="182,126 185,135 176,132" fill="#aaff00"/>
	<line x1="165" y1="198" x2="181" y2="133" stroke="#aaff00" stroke-width="2"/>
</g>
<g>
	<polygon points="102,198 110,194 110,203" fill="#aaff00"/>
	<line x1="165" y1="198" x2="109" y2="198" stroke="#aaff00" stroke-width="2"/>
</g>
<g>
	<polygon points="155,254 152,246 161,247" fill="#aaff00"/>
	<line x1="165" y1="198" x2="156" y2="247" stroke="#aaff00" stroke-width="2"/>
</g>
<g>
	<polygon points="96,106 100,114 91,114" fill="#aaff00"/>
	<line x1="98" y1="199" x2="96" y2="113" stroke="#aaff00" stroke-width="2"/>
</g>
<g>
	<polygon points="98,203 103,211 94,211" fill="#aaff00"/>
	<line x1="101" y1="257" x2="98" y2="210" stroke="#aaff00" stroke-width="2"/>
</g>
<g>
	<polygon points="150,258 142,263 142,254" fill="#aaff00"/>
	<line x1="101" y1="257" x2="143" y2="258" stroke="#aaff00" stroke-width="2"/>
</g>

<g fill="#000000">
	<circle cx="94" cy="40" r="4"/>
</g>
<g fill="#000000">
	<circle cx="95" cy="101" r="4"/>
</g>
<g fill="#000000">
	<circle cx="96" cy="145" r="4"/>
</g>
<g fill="#000000">
	<circle cx="137" cy="111" r="4"/>
</g>
<g fill="#000000">
	<circle cx="183" cy="121" r="4"/>
</g>
<g fill="#000000">
	<circle cx="97" cy="198" r="4"/>
</g>
<g fill="#000000">
	<circle cx="218" cy="72" r="4"/>
</g>
<g fill="#000000">
	<circle cx="247" cy="114" r="4"/>
</g>
<g fill="#000000">
	<circle cx="304" cy="120" r="4"/>
</g>
<g fill="#000000">
	<circle cx="100" cy="256" r="4"/>
</g>
<g fill="#000000">
	<circle cx="154" cy="258" r="4"/>
</g>
<g fill="#000000">
	<circle cx="164" cy="197" r="4"/>
</g>

</g>

</svg>
