<?xml version="1.0" encoding="utf-8"?>
<!-- Created with Hypercube (http://tumic.wz.cz/hypercube) -->

<svg width="400" height="300" viewBox="0 0 400 300" xmlns="http://www.w3.org/2000/svg" baseProfile="tiny">

<g font-family="Helvetica" font-weight="normal">

<g>
	<polygon points="252,184 243,183 248,176" fill="#aaff00"/>
	<line x1="183" y1="135" x2="246" y2="180" stroke="#aaff00" stroke-width="2"/>
</g>
<g>
	<polygon points="131,97 140,98 135,105" fill="#aaff00"/>
	<line x1="183" y1="135" x2="137" y2="101" stroke="#aaff00" stroke-width="2"/>
</g>
<g>
	<polygon points="284,245 276,240 284,236" fill="#aaff00"/>
	<line x1="256" y1="187" x2="280" y2="239" stroke="#aaff00" stroke-width="2"/>
</g>
<g>
	<polygon points="309,145 306,154 300,146" fill="#aaff00"/>
	<line x1="256" y1="187" x2="303" y2="150" stroke="#aaff00" stroke-width="2"/>
</g>
<g>
	<polygon points="252,131 257,138 248,139" fill="#aaff00"/>
	<line x1="256" y1="187" x2="252" y2="138" stroke="#aaff00" stroke-width="2"/>
</g>
<g>
	<polygon points="318,202 309,205 312,196" fill="#aaff00"/>
	<line x1="256" y1="187" x2="311" y2="201" stroke="#aaff00" stroke-width="2"/>
</g>
<g>
	<polygon points="198,201 204,195 207,204" fill="#aaff00"/>
	<line x1="256" y1="187" x2="205" y2="200" stroke="#aaff00" stroke-width="2"/>
</g>
<g>
	<polygon points="226,251 225,242 234,246" fill="#aaff00"/>
	<line x1="256" y1="187" x2="229" y2="245" stroke="#aaff00" stroke-width="2"/>
</g>
<g>
	<polygon points="86,131 89,122 95,129" fill="#aaff00"/>
	<line x1="128" y1="95" x2="91" y2="126" stroke="#aaff00" stroke-width="2"/>
</g>
<g>
	<polygon points="82,61 91,62 86,69" fill="#aaff00"/>
	<line x1="128" y1="95" x2="88" y2="65" stroke="#aaff00" stroke-width="2"/>
</g>
<g>
	<polygon points="157,49 157,58 149,53" fill="#aaff00"/>
	<line x1="128" y1="95" x2="153" y2="55" stroke="#aaff00" stroke-width="2"/>
</g>

<g fill="#000000">
	<circle cx="182" cy="134" r="4"/>
</g>
<g fill="#000000">
	<circle cx="255" cy="186" r="4"/>
</g>
<g fill="#000000">
	<circle cx="127" cy="94" r="4"/>
</g>
<g fill="#000000">
	<circle cx="285" cy="249" r="4"/>
</g>
<g fill="#000000">
	<circle cx="312" cy="142" r="4"/>
</g>
<g fill="#000000">
	<circle cx="251" cy="126" r="4"/>
</g>
<g fill="#000000">
	<circle cx="322" cy="203" r="4"/>
</g>
<g fill="#000000">
	<circle cx="193" cy="202" r="4"/>
</g>
<g fill="#000000">
	<circle cx="224" cy="255" r="4"/>
</g>
<g fill="#000000">
	<circle cx="82" cy="133" r="4"/>
</g>
<g fill="#000000">
	<circle cx="78" cy="58" r="4"/>
</g>
<g fill="#000000">
	<circle cx="159" cy="45" r="4"/>
</g>

</g>

</svg>
