<?xml version="1.0" encoding="utf-8"?>
<!-- Created with Hypercube (http://tumic.wz.cz/hypercube) -->

<svg width="400" height="300" viewBox="0 0 400 300" xmlns="http://www.w3.org/2000/svg" baseProfile="tiny">

<g font-family="Helvetica" font-weight="normal">

<g>
	<polygon points="339,88 335,96 330,88" fill="#aaff00"/>
	<line x1="293" y1="118" x2="333" y2="92" stroke="#aaff00" stroke-width="2"/>
</g>
<g>
	<polygon points="289,120 284,127 280,120" fill="#aaff00"/>
	<line x1="230" y1="153" x2="282" y2="123" stroke="#aaff00" stroke-width="2"/>
</g>
<g>
	<polygon points="229,157 233,165 224,164" fill="#aaff00"/>
	<line x1="224" y1="215" x2="228" y2="164" stroke="#aaff00" stroke-width="2"/>
</g>
<g>
	<polygon points="230,148 225,140 234,140" fill="#aaff00"/>
	<line x1="230" y1="94" x2="230" y2="141" stroke="#aaff00" stroke-width="2"/>
</g>
<g>
	<polygon points="233,155 242,156 237,163" fill="#aaff00"/>
	<line x1="283" y1="193" x2="239" y2="160" stroke="#aaff00" stroke-width="2"/>
</g>
<g>
	<polygon points="225,153 217,157 217,148" fill="#aaff00"/>
	<line x1="126" y1="154" x2="218" y2="153" stroke="#aaff00" stroke-width="2"/>
</g>
<g>
	<polygon points="123,150 116,145 124,141" fill="#aaff00"/>
	<line x1="91" y1="90" x2="120" y2="143" stroke="#aaff00" stroke-width="2"/>
</g>
<g>
	<polygon points="127,158 133,164 125,167" fill="#aaff00"/>
	<line x1="144" y1="212" x2="129" y2="165" stroke="#aaff00" stroke-width="2"/>
</g>
<g>
	<polygon points="123,157 121,166 114,160" fill="#aaff00"/>
	<line x1="83" y1="206" x2="118" y2="163" stroke="#aaff00" stroke-width="2"/>
</g>
<g>
	<polygon points="121,153 113,157 114,148" fill="#aaff00"/>
	<line x1="59" y1="148" x2="114" y2="152" stroke="#aaff00" stroke-width="2"/>
</g>
<g>
	<polygon points="128,150 128,141 136,145" fill="#aaff00"/>
	<line x1="155" y1="104" x2="131" y2="143" stroke="#aaff00" stroke-width="2"/>
</g>

<g fill="#000000">
	<circle cx="292" cy="117" r="4"/>
</g>
<g fill="#000000">
	<circle cx="342" cy="85" r="4"/>
</g>
<g fill="#000000">
	<circle cx="229" cy="152" r="4"/>
</g>
<g fill="#000000">
	<circle cx="223" cy="214" r="4"/>
</g>
<g fill="#000000">
	<circle cx="229" cy="93" r="4"/>
</g>
<g fill="#000000">
	<circle cx="282" cy="192" r="4"/>
</g>
<g fill="#000000">
	<circle cx="125" cy="153" r="4"/>
</g>
<g fill="#000000">
	<circle cx="90" cy="89" r="4"/>
</g>
<g fill="#000000">
	<circle cx="143" cy="211" r="4"/>
</g>
<g fill="#000000">
	<circle cx="82" cy="205" r="4"/>
</g>
<g fill="#000000">
	<circle cx="58" cy="147" r="4"/>
</g>
<g fill="#000000">
	<circle cx="154" cy="103" r="4"/>
</g>

</g>

</svg>
