<?xml version="1.0" encoding="utf-8"?>
<!-- Created with Hypercube (http://tumic.wz.cz/hypercube) -->

<svg width="400" height="300" viewBox="0 0 400 300" xmlns="http://www.w3.org/2000/svg" baseProfile="tiny">

<g font-family="Helvetica" font-weight="normal">

<g>
	<polygon points="58,212 49,208 57,203" fill="#aaff00"/>
	<line x1="26" y1="170" x2="53" y2="206" stroke="#aaff00" stroke-width="2"/>
</g>
<g>
	<polygon points="71,137 67,145 62,138" fill="#aaff00"/>
	<line x1="26" y1="170" x2="65" y2="141" stroke="#aaff00" stroke-width="2"/>
</g>
<g>
	<polygon points="107,193 102,201 98,193" fill="#aaff00"/>
	<line x1="61" y1="216" x2="101" y2="196" stroke="#aaff00" stroke-width="2"/>
</g>
<g>
	<polygon points="141,140 141,149 133,145" fill="#aaff00"/>
	<line x1="112" y1="192" x2="138" y2="147" stroke="#aaff00" stroke-width="2"/>
</g>
<g>
	<polygon points="79,135 87,130 87,139" fill="#aaff00"/>
	<line x1="144" y1="137" x2="86" y2="135" stroke="#aaff00" stroke-width="2"/>
</g>
<g>
	<polygon points="201,104 196,112 192,104" fill="#aaff00"/>
	<line x1="144" y1="137" x2="194" y2="107" stroke="#aaff00" stroke-width="2"/>
</g>
<g>
	<polygon points="189,181 181,179 187,173" fill="#aaff00"/>
	<line x1="144" y1="137" x2="184" y2="176" stroke="#aaff00" stroke-width="2"/>
</g>
<g>
	<polygon points="130,77 136,83 127,85" fill="#aaff00"/>
	<line x1="144" y1="137" x2="131" y2="84" stroke="#aaff00" stroke-width="2"/>
</g>
<g>
	<polygon points="222,229 214,225 221,220" fill="#aaff00"/>
	<line x1="193" y1="185" x2="218" y2="223" stroke="#aaff00" stroke-width="2"/>
</g>
<g>
	<polygon points="312,68 305,73 304,64" fill="#aaff00"/>
	<line x1="262" y1="74" x2="305" y2="69" stroke="#aaff00" stroke-width="2"/>
</g>
<g>
	<polygon points="370,71 362,75 363,66" fill="#aaff00"/>
	<line x1="317" y1="68" x2="363" y2="71" stroke="#aaff00" stroke-width="2"/>
</g>
<g>
	<polygon points="257,75 252,83 248,75" fill="#aaff00"/>
	<line x1="205" y1="102" x2="251" y2="79" stroke="#aaff00" stroke-width="2"/>
</g>

<g fill="#000000">
	<circle cx="25" cy="169" r="4"/>
</g>
<g fill="#000000">
	<circle cx="60" cy="215" r="4"/>
</g>
<g fill="#000000">
	<circle cx="74" cy="134" r="4"/>
</g>
<g fill="#000000">
	<circle cx="111" cy="191" r="4"/>
</g>
<g fill="#000000">
	<circle cx="143" cy="136" r="4"/>
</g>
<g fill="#000000">
	<circle cx="204" cy="101" r="4"/>
</g>
<g fill="#000000">
	<circle cx="192" cy="184" r="4"/>
</g>
<g fill="#000000">
	<circle cx="128" cy="72" r="4"/>
</g>
<g fill="#000000">
	<circle cx="224" cy="232" r="4"/>
</g>
<g fill="#000000">
	<circle cx="261" cy="73" r="4"/>
</g>
<g fill="#000000">
	<circle cx="316" cy="67" r="4"/>
</g>
<g fill="#000000">
	<circle cx="374" cy="71" r="4"/>
</g>

</g>

</svg>
