<?xml version="1.0" encoding="utf-8"?>
<!-- Created with Hypercube (http://tumic.wz.cz/hypercube) -->

<svg width="400" height="300" viewBox="0 0 400 300" xmlns="http://www.w3.org/2000/svg" baseProfile="tiny">

<g font-family="Helvetica" font-weight="normal">

<g>
	<polygon points="180,218 172,222 173,213" fill="#aaff00"/>
	<line x1="101" y1="209" x2="173" y2="217" stroke="#aaff00" stroke-width="2"/>
</g>
<g>
	<polygon points="155,168 151,176 146,169" fill="#aaff00"/>
	<line x1="101" y1="209" x2="149" y2="172" stroke="#aaff00" stroke-width="2"/>
</g>
<g>
	<polygon points="242,177 238,185 233,178" fill="#aaff00"/>
	<line x1="185" y1="219" x2="236" y2="181" stroke="#aaff00" stroke-width="2"/>
</g>
<g>
	<polygon points="244,170 236,165 245,161" fill="#aaff00"/>
	<line x1="219" y1="114" x2="241" y2="164" stroke="#aaff00" stroke-width="2"/>
</g>
<g>
	<polygon points="183,214 175,209 183,205" fill="#aaff00"/>
	<line x1="159" y1="166" x2="179" y2="208" stroke="#aaff00" stroke-width="2"/>
</g>
<g>
	<polygon points="215,116 212,125 206,118" fill="#aaff00"/>
	<line x1="159" y1="166" x2="210" y2="121" stroke="#aaff00" stroke-width="2"/>
</g>
<g>
	<polygon points="180,218 172,221 173,213" fill="#aaff00"/>
	<line x1="144" y1="214" x2="173" y2="217" stroke="#aaff00" stroke-width="2"/>
</g>
<g>
	<polygon points="157,170 159,179 151,176" fill="#aaff00"/>
	<line x1="144" y1="214" x2="155" y2="177" stroke="#aaff00" stroke-width="2"/>
</g>
<g>
	<polygon points="189,219 197,216 196,225" fill="#aaff00"/>
	<line x1="235" y1="228" x2="196" y2="221" stroke="#aaff00" stroke-width="2"/>
</g>
<g>
	<polygon points="162,168 171,170 165,177" fill="#aaff00"/>
	<line x1="235" y1="228" x2="168" y2="173" stroke="#aaff00" stroke-width="2"/>
</g>
<g>
	<polygon points="239,225 243,218 248,226" fill="#aaff00"/>
	<line x1="301" y1="195" x2="245" y2="222" stroke="#aaff00" stroke-width="2"/>
</g>
<g>
	<polygon points="292,133 298,140 289,141" fill="#aaff00"/>
	<line x1="301" y1="195" x2="293" y2="140" stroke="#aaff00" stroke-width="2"/>
</g>
<g>
	<polygon points="223,114 231,112 230,120" fill="#aaff00"/>
	<line x1="292" y1="129" x2="230" y2="116" stroke="#aaff00" stroke-width="2"/>
</g>
<g>
	<polygon points="159,161 155,153 164,154" fill="#aaff00"/>
	<line x1="163" y1="120" x2="160" y2="154" stroke="#aaff00" stroke-width="2"/>
</g>
<g>
	<polygon points="214,114 207,119 206,110" fill="#aaff00"/>
	<line x1="163" y1="120" x2="207" y2="115" stroke="#aaff00" stroke-width="2"/>
</g>
<g>
	<polygon points="159,161 155,153 164,154" fill="#aaff00"/>
	<line x1="167" y1="73" x2="160" y2="154" stroke="#aaff00" stroke-width="2"/>
</g>
<g>
	<polygon points="215,111 206,109 212,102" fill="#aaff00"/>
	<line x1="167" y1="73" x2="209" y2="106" stroke="#aaff00" stroke-width="2"/>
</g>
<g>
	<polygon points="163,164 169,158 171,167" fill="#aaff00"/>
	<line x1="202" y1="156" x2="170" y2="163" stroke="#aaff00" stroke-width="2"/>
</g>
<g>
	<polygon points="217,118 218,127 210,123" fill="#aaff00"/>
	<line x1="202" y1="156" x2="214" y2="124" stroke="#aaff00" stroke-width="2"/>
</g>

<g fill="#000000">
	<circle cx="100" cy="208" r="4"/>
</g>
<g fill="#000000">
	<circle cx="184" cy="218" r="4"/>
</g>
<g fill="#000000">
	<circle cx="158" cy="165" r="4"/>
</g>
<g fill="#000000">
	<circle cx="143" cy="213" r="4"/>
</g>
<g fill="#000000">
	<circle cx="234" cy="227" r="4"/>
</g>
<g fill="#000000">
	<circle cx="300" cy="194" r="4"/>
</g>
<g fill="#000000">
	<circle cx="291" cy="128" r="4"/>
</g>
<g fill="#000000">
	<circle cx="218" cy="113" r="4"/>
</g>
<g fill="#000000">
	<circle cx="162" cy="119" r="4"/>
</g>
<g fill="#000000">
	<circle cx="166" cy="72" r="4"/>
</g>
<g fill="#000000">
	<circle cx="201" cy="155" r="4"/>
</g>
<g fill="#000000">
	<circle cx="245" cy="174" r="4"/>
</g>

</g>

</svg>
