<?xml version="1.0" encoding="utf-8"?>
<!-- Created with Hypercube (http://tumic.wz.cz/hypercube) -->

<svg width="400" height="300" viewBox="0 0 400 300" xmlns="http://www.w3.org/2000/svg" baseProfile="tiny">

<g font-family="Helvetica" font-weight="normal">

<g>
	<polygon points="211,169 216,162 220,170" fill="#aaff00"/>
	<line x1="258" y1="146" x2="218" y2="166" stroke="#aaff00" stroke-width="2"/>
</g>
<g>
	<polygon points="153,128 161,125 160,134" fill="#aaff00"/>
	<line x1="258" y1="146" x2="160" y2="129" stroke="#aaff00" stroke-width="2"/>
</g>
<g>
	<polygon points="227,222 226,213 234,217" fill="#aaff00"/>
	<line x1="258" y1="146" x2="230" y2="216" stroke="#aaff00" stroke-width="2"/>
</g>
<g>
	<polygon points="242,184 241,175 249,179" fill="#aaff00"/>
	<line x1="258" y1="146" x2="245" y2="178" stroke="#aaff00" stroke-width="2"/>
</g>
<g>
	<polygon points="236,186 228,187 232,179" fill="#aaff00"/>
	<line x1="208" y1="172" x2="230" y2="183" stroke="#aaff00" stroke-width="2"/>
</g>
<g>
	<polygon points="239,193 240,202 232,198" fill="#aaff00"/>
	<line x1="226" y1="227" x2="236" y2="199" stroke="#aaff00" stroke-width="2"/>
</g>
<g>
	<polygon points="253,145 245,148 246,139" fill="#aaff00"/>
	<line x1="196" y1="136" x2="246" y2="144" stroke="#aaff00" stroke-width="2"/>
</g>
<g>
	<polygon points="206,167 199,161 208,158" fill="#aaff00"/>
	<line x1="196" y1="136" x2="204" y2="160" stroke="#aaff00" stroke-width="2"/>
</g>
<g>
	<polygon points="153,128 161,125 160,134" fill="#aaff00"/>
	<line x1="196" y1="136" x2="160" y2="129" stroke="#aaff00" stroke-width="2"/>
</g>
<g>
	<polygon points="224,222 217,216 226,213" fill="#aaff00"/>
	<line x1="196" y1="136" x2="222" y2="215" stroke="#aaff00" stroke-width="2"/>
</g>
<g>
	<polygon points="96,108 105,107 101,115" fill="#aaff00"/>
	<line x1="149" y1="128" x2="102" y2="111" stroke="#aaff00" stroke-width="2"/>
</g>
<g>
	<polygon points="258,141 253,133 262,133" fill="#aaff00"/>
	<line x1="260" y1="75" x2="258" y2="134" stroke="#aaff00" stroke-width="2"/>
</g>
<g>
	<polygon points="240,105 240,96 248,101" fill="#aaff00"/>
	<line x1="260" y1="75" x2="244" y2="99" stroke="#aaff00" stroke-width="2"/>
</g>
<g>
	<polygon points="304,75 296,80 296,71" fill="#aaff00"/>
	<line x1="260" y1="75" x2="297" y2="75" stroke="#aaff00" stroke-width="2"/>
</g>
<g>
	<polygon points="222,74 230,69 230,78" fill="#aaff00"/>
	<line x1="260" y1="75" x2="229" y2="74" stroke="#aaff00" stroke-width="2"/>
</g>
<g>
	<polygon points="281,106 273,102 280,97" fill="#aaff00"/>
	<line x1="260" y1="75" x2="277" y2="100" stroke="#aaff00" stroke-width="2"/>
</g>
<g>
	<polygon points="199,132 201,124 208,130" fill="#aaff00"/>
	<line x1="260" y1="75" x2="204" y2="127" stroke="#aaff00" stroke-width="2"/>
</g>
<g>
	<polygon points="255,142 248,137 256,133" fill="#aaff00"/>
	<line x1="238" y1="109" x2="252" y2="135" stroke="#aaff00" stroke-width="2"/>
</g>
<g>
	<polygon points="220,77 228,82 220,86" fill="#aaff00"/>
	<line x1="238" y1="109" x2="223" y2="84" stroke="#aaff00" stroke-width="2"/>
</g>
<g>
	<polygon points="279,109 271,114 271,105" fill="#aaff00"/>
	<line x1="238" y1="109" x2="272" y2="109" stroke="#aaff00" stroke-width="2"/>
</g>
<g>
	<polygon points="255,142 248,137 255,133" fill="#aaff00"/>
	<line x1="218" y1="74" x2="252" y2="135" stroke="#aaff00" stroke-width="2"/>
</g>
<g>
	<polygon points="260,142 261,133 268,138" fill="#aaff00"/>
	<line x1="309" y1="76" x2="264" y2="136" stroke="#aaff00" stroke-width="2"/>
</g>
<g>
	<polygon points="222,74 230,69 230,78" fill="#aaff00"/>
	<line x1="309" y1="76" x2="229" y2="74" stroke="#aaff00" stroke-width="2"/>
</g>
<g>
	<polygon points="286,106 287,97 294,102" fill="#aaff00"/>
	<line x1="309" y1="76" x2="290" y2="100" stroke="#aaff00" stroke-width="2"/>
</g>
<g>
	<polygon points="260,142 261,133 268,138" fill="#aaff00"/>
	<line x1="284" y1="110" x2="264" y2="136" stroke="#aaff00" stroke-width="2"/>
</g>

<g fill="#000000">
	<circle cx="257" cy="145" r="4"/>
</g>
<g fill="#000000">
	<circle cx="207" cy="171" r="4"/>
</g>
<g fill="#000000">
	<circle cx="148" cy="127" r="4"/>
</g>
<g fill="#000000">
	<circle cx="225" cy="226" r="4"/>
</g>
<g fill="#000000">
	<circle cx="240" cy="188" r="4"/>
</g>
<g fill="#000000">
	<circle cx="91" cy="106" r="4"/>
</g>
<g fill="#000000">
	<circle cx="259" cy="74" r="4"/>
</g>
<g fill="#000000">
	<circle cx="237" cy="108" r="4"/>
</g>
<g fill="#000000">
	<circle cx="308" cy="75" r="4"/>
</g>
<g fill="#000000">
	<circle cx="217" cy="73" r="4"/>
</g>
<g fill="#000000">
	<circle cx="283" cy="109" r="4"/>
</g>
<g fill="#000000">
	<circle cx="195" cy="135" r="4"/>
</g>

</g>

</svg>
