<?xml version="1.0" encoding="utf-8"?>
<!-- Created with Hypercube (http://tumic.wz.cz/hypercube) -->

<svg width="400" height="300" viewBox="0 0 400 300" xmlns="http://www.w3.org/2000/svg" baseProfile="tiny">

<g font-family="Helvetica" font-weight="normal">

<g>
	<polygon points="246,156 254,151 254,160" fill="#aaff00"/>
	<line x1="302" y1="154" x2="253" y2="156" stroke="#aaff00" stroke-width="2"/>
</g>
<g>
	<polygon points="165,122 174,121 170,130" fill="#aaff00"/>
	<line x1="242" y1="157" x2="171" y2="125" stroke="#aaff00" stroke-width="2"/>
</g>
<g>
	<polygon points="223,210 221,201 230,204" fill="#aaff00"/>
	<line x1="242" y1="157" x2="225" y2="203" stroke="#aaff00" stroke-width="2"/>
</g>
<g>
	<polygon points="103,105 112,102 109,111" fill="#aaff00"/>
	<line x1="161" y1="121" x2="110" y2="107" stroke="#aaff00" stroke-width="2"/>
</g>
<g>
	<polygon points="147,76 153,82 145,85" fill="#aaff00"/>
	<line x1="161" y1="121" x2="149" y2="83" stroke="#aaff00" stroke-width="2"/>
</g>
<g>
	<polygon points="124,155 126,147 133,153" fill="#aaff00"/>
	<line x1="161" y1="121" x2="129" y2="150" stroke="#aaff00" stroke-width="2"/>
</g>
<g>
	<polygon points="201,98 196,105 192,98" fill="#aaff00"/>
	<line x1="161" y1="121" x2="194" y2="101" stroke="#aaff00" stroke-width="2"/>
</g>
<g>
	<polygon points="119,154 112,149 120,145" fill="#aaff00"/>
	<line x1="99" y1="104" x2="116" y2="148" stroke="#aaff00" stroke-width="2"/>
</g>
<g>
	<polygon points="115,37 118,46 109,43" fill="#aaff00"/>
	<line x1="99" y1="104" x2="114" y2="44" stroke="#aaff00" stroke-width="2"/>
</g>
<g>
	<polygon points="174,174 165,176 168,168" fill="#aaff00"/>
	<line x1="121" y1="159" x2="167" y2="172" stroke="#aaff00" stroke-width="2"/>
</g>
<g>
	<polygon points="218,211 209,210 215,203" fill="#aaff00"/>
	<line x1="179" y1="176" x2="213" y2="207" stroke="#aaff00" stroke-width="2"/>
</g>
<g>
	<polygon points="234,269 227,262 236,261" fill="#aaff00"/>
	<line x1="222" y1="215" x2="232" y2="262" stroke="#aaff00" stroke-width="2"/>
</g>
<g>
	<polygon points="180,171 178,162 187,165" fill="#aaff00"/>
	<line x1="205" y1="96" x2="182" y2="164" stroke="#aaff00" stroke-width="2"/>
</g>
<g>
	<polygon points="203,91 197,85 206,82" fill="#aaff00"/>
	<line x1="186" y1="27" x2="201" y2="84" stroke="#aaff00" stroke-width="2"/>
</g>
<g>
	<polygon points="143,68 135,64 142,59" fill="#aaff00"/>
	<line x1="117" y1="33" x2="139" y2="62" stroke="#aaff00" stroke-width="2"/>
</g>
<g>
	<polygon points="181,27 174,32 173,23" fill="#aaff00"/>
	<line x1="117" y1="33" x2="174" y2="28" stroke="#aaff00" stroke-width="2"/>
</g>

<g fill="#000000">
	<circle cx="301" cy="153" r="4"/>
</g>
<g fill="#000000">
	<circle cx="241" cy="156" r="4"/>
</g>
<g fill="#000000">
	<circle cx="160" cy="120" r="4"/>
</g>
<g fill="#000000">
	<circle cx="221" cy="214" r="4"/>
</g>
<g fill="#000000">
	<circle cx="98" cy="103" r="4"/>
</g>
<g fill="#000000">
	<circle cx="145" cy="71" r="4"/>
</g>
<g fill="#000000">
	<circle cx="120" cy="158" r="4"/>
</g>
<g fill="#000000">
	<circle cx="116" cy="32" r="4"/>
</g>
<g fill="#000000">
	<circle cx="178" cy="175" r="4"/>
</g>
<g fill="#000000">
	<circle cx="185" cy="26" r="4"/>
</g>
<g fill="#000000">
	<circle cx="204" cy="95" r="4"/>
</g>
<g fill="#000000">
	<circle cx="234" cy="273" r="4"/>
</g>

</g>

</svg>
