<?xml version="1.0" encoding="utf-8"?>
<!-- Created with Hypercube (http://tumic.wz.cz/hypercube) -->

<svg width="400" height="300" viewBox="0 0 400 300" xmlns="http://www.w3.org/2000/svg" baseProfile="tiny">

<g font-family="Helvetica" font-weight="normal">

<g>
	<polygon points="251,186 250,177 258,181" fill="#aaff00"/>
	<line x1="286" y1="107" x2="254" y2="180" stroke="#aaff00" stroke-width="2"/>
</g>
<g>
	<polygon points="247,120 253,113 256,122" fill="#aaff00"/>
	<line x1="286" y1="107" x2="254" y2="118" stroke="#aaff00" stroke-width="2"/>
</g>
<g>
	<polygon points="271,139 270,130 279,134" fill="#aaff00"/>
	<line x1="286" y1="107" x2="274" y2="133" stroke="#aaff00" stroke-width="2"/>
</g>
<g>
	<polygon points="205,88 213,85 211,94" fill="#aaff00"/>
	<line x1="286" y1="107" x2="212" y2="89" stroke="#aaff00" stroke-width="2"/>
</g>
<g>
	<polygon points="249,186 244,179 253,178" fill="#aaff00"/>
	<line x1="243" y1="122" x2="248" y2="179" stroke="#aaff00" stroke-width="2"/>
</g>
<g>
	<polygon points="204,89 213,91 207,98" fill="#aaff00"/>
	<line x1="243" y1="122" x2="209" y2="94" stroke="#aaff00" stroke-width="2"/>
</g>
<g>
	<polygon points="251,186 250,177 258,181" fill="#aaff00"/>
	<line x1="270" y1="144" x2="254" y2="180" stroke="#aaff00" stroke-width="2"/>
</g>
<g>
	<polygon points="204,89 213,91 207,98" fill="#aaff00"/>
	<line x1="270" y1="144" x2="210" y2="94" stroke="#aaff00" stroke-width="2"/>
</g>
<g>
	<polygon points="281,108 275,114 272,105" fill="#aaff00"/>
	<line x1="215" y1="126" x2="274" y2="110" stroke="#aaff00" stroke-width="2"/>
</g>
<g>
	<polygon points="238,122 231,128 230,119" fill="#aaff00"/>
	<line x1="215" y1="126" x2="231" y2="123" stroke="#aaff00" stroke-width="2"/>
</g>
<g>
	<polygon points="265,142 256,144 259,135" fill="#aaff00"/>
	<line x1="215" y1="126" x2="258" y2="140" stroke="#aaff00" stroke-width="2"/>
</g>
<g>
	<polygon points="189,157 191,148 198,154" fill="#aaff00"/>
	<line x1="215" y1="126" x2="194" y2="151" stroke="#aaff00" stroke-width="2"/>
</g>
<g>
	<polygon points="226,158 219,152 228,149" fill="#aaff00"/>
	<line x1="215" y1="126" x2="224" y2="151" stroke="#aaff00" stroke-width="2"/>
</g>
<g>
	<polygon points="158,144 164,137 167,146" fill="#aaff00"/>
	<line x1="215" y1="126" x2="165" y2="142" stroke="#aaff00" stroke-width="2"/>
</g>
<g>
	<polygon points="245,189 236,189 240,181" fill="#aaff00"/>
	<line x1="187" y1="161" x2="239" y2="185" stroke="#aaff00" stroke-width="2"/>
</g>
<g>
	<polygon points="200,91 203,99 194,98" fill="#aaff00"/>
	<line x1="187" y1="161" x2="198" y2="98" stroke="#aaff00" stroke-width="2"/>
</g>
<g>
	<polygon points="120,130 129,129 125,138" fill="#aaff00"/>
	<line x1="187" y1="161" x2="126" y2="133" stroke="#aaff00" stroke-width="2"/>
</g>
<g>
	<polygon points="183,209 179,201 188,202" fill="#aaff00"/>
	<line x1="187" y1="161" x2="183" y2="202" stroke="#aaff00" stroke-width="2"/>
</g>
<g>
	<polygon points="178,122 184,128 175,130" fill="#aaff00"/>
	<line x1="187" y1="161" x2="179" y2="129" stroke="#aaff00" stroke-width="2"/>
</g>
<g>
	<polygon points="196,88 191,96 187,88" fill="#aaff00"/>
	<line x1="116" y1="129" x2="190" y2="92" stroke="#aaff00" stroke-width="2"/>
</g>
<g>
	<polygon points="245,189 236,189 240,181" fill="#aaff00"/>
	<line x1="154" y1="146" x2="239" y2="186" stroke="#aaff00" stroke-width="2"/>
</g>
<g>
	<polygon points="198,90 196,99 189,93" fill="#aaff00"/>
	<line x1="154" y1="146" x2="193" y2="96" stroke="#aaff00" stroke-width="2"/>
</g>
<g>
	<polygon points="182,159 173,160 177,151" fill="#aaff00"/>
	<line x1="154" y1="146" x2="176" y2="156" stroke="#aaff00" stroke-width="2"/>
</g>
<g>
	<polygon points="120,130 129,129 125,138" fill="#aaff00"/>
	<line x1="154" y1="146" x2="126" y2="133" stroke="#aaff00" stroke-width="2"/>
</g>
<g>
	<polygon points="181,209 174,204 182,200" fill="#aaff00"/>
	<line x1="154" y1="146" x2="178" y2="203" stroke="#aaff00" stroke-width="2"/>
</g>
<g>
	<polygon points="174,121 172,130 165,124" fill="#aaff00"/>
	<line x1="154" y1="146" x2="169" y2="127" stroke="#aaff00" stroke-width="2"/>
</g>
<g>
	<polygon points="245,192 239,199 236,190" fill="#aaff00"/>
	<line x1="183" y1="214" x2="238" y2="194" stroke="#aaff00" stroke-width="2"/>
</g>
<g>
	<polygon points="198,90 197,99 189,93" fill="#aaff00"/>
	<line x1="177" y1="118" x2="193" y2="96" stroke="#aaff00" stroke-width="2"/>
</g>
<g>
	<polygon points="247,187 238,184 245,178" fill="#aaff00"/>
	<line x1="228" y1="163" x2="242" y2="181" stroke="#aaff00" stroke-width="2"/>
</g>
<g>
	<polygon points="241,126 243,135 234,131" fill="#aaff00"/>
	<line x1="228" y1="163" x2="238" y2="132" stroke="#aaff00" stroke-width="2"/>
</g>
<g>
	<polygon points="265,145 260,153 256,144" fill="#aaff00"/>
	<line x1="228" y1="163" x2="259" y2="148" stroke="#aaff00" stroke-width="2"/>
</g>
<g>
	<polygon points="202,91 209,97 200,100" fill="#aaff00"/>
	<line x1="228" y1="163" x2="204" y2="98" stroke="#aaff00" stroke-width="2"/>
</g>

<g fill="#000000">
	<circle cx="285" cy="106" r="4"/>
</g>
<g fill="#000000">
	<circle cx="249" cy="190" r="4"/>
</g>
<g fill="#000000">
	<circle cx="242" cy="121" r="4"/>
</g>
<g fill="#000000">
	<circle cx="269" cy="143" r="4"/>
</g>
<g fill="#000000">
	<circle cx="200" cy="86" r="4"/>
</g>
<g fill="#000000">
	<circle cx="214" cy="125" r="4"/>
</g>
<g fill="#000000">
	<circle cx="186" cy="160" r="4"/>
</g>
<g fill="#000000">
	<circle cx="227" cy="162" r="4"/>
</g>
<g fill="#000000">
	<circle cx="153" cy="145" r="4"/>
</g>
<g fill="#000000">
	<circle cx="115" cy="128" r="4"/>
</g>
<g fill="#000000">
	<circle cx="182" cy="213" r="4"/>
</g>
<g fill="#000000">
	<circle cx="176" cy="117" r="4"/>
</g>

</g>

</svg>
