<?xml version="1.0" encoding="utf-8"?>
<!-- Created with Hypercube (http://tumic.wz.cz/hypercube) -->

<svg width="400" height="300" viewBox="0 0 400 300" xmlns="http://www.w3.org/2000/svg" baseProfile="tiny">

<g font-family="Helvetica" font-weight="normal">

<g>
	<polygon points="135,71 135,80 128,76" fill="#aaff00"/>
	<line x1="97" y1="141" x2="132" y2="78" stroke="#aaff00" stroke-width="2"/>
</g>
<g>
	<polygon points="207,48 201,54 198,46" fill="#aaff00"/>
	<line x1="138" y1="68" x2="200" y2="50" stroke="#aaff00" stroke-width="2"/>
</g>
<g>
	<polygon points="211,51 215,59 206,58" fill="#aaff00"/>
	<line x1="208" y1="95" x2="211" y2="58" stroke="#aaff00" stroke-width="2"/>
</g>
<g>
	<polygon points="249,162 241,165 242,156" fill="#aaff00"/>
	<line x1="198" y1="153" x2="242" y2="160" stroke="#aaff00" stroke-width="2"/>
</g>
<g>
	<polygon points="207,99 210,107 201,106" fill="#aaff00"/>
	<line x1="198" y1="153" x2="206" y2="106" stroke="#aaff00" stroke-width="2"/>
</g>
<g>
	<polygon points="149,139 158,137 155,145" fill="#aaff00"/>
	<line x1="198" y1="153" x2="156" y2="141" stroke="#aaff00" stroke-width="2"/>
</g>
<g>
	<polygon points="298,162 290,166 290,157" fill="#aaff00"/>
	<line x1="254" y1="163" x2="291" y2="162" stroke="#aaff00" stroke-width="2"/>
</g>
<g>
	<polygon points="282,92 288,98 280,101" fill="#aaff00"/>
	<line x1="303" y1="162" x2="284" y2="99" stroke="#aaff00" stroke-width="2"/>
</g>
<g>
	<polygon points="215,49 224,49 220,57" fill="#aaff00"/>
	<line x1="281" y1="88" x2="222" y2="52" stroke="#aaff00" stroke-width="2"/>
</g>
<g>
	<polygon points="300,165 300,174 292,170" fill="#aaff00"/>
	<line x1="262" y1="233" x2="297" y2="172" stroke="#aaff00" stroke-width="2"/>
</g>
<g>
	<polygon points="257,234 251,240 248,232" fill="#aaff00"/>
	<line x1="188" y1="254" x2="250" y2="236" stroke="#aaff00" stroke-width="2"/>
</g>
<g>
	<polygon points="184,211 189,218 180,219" fill="#aaff00"/>
	<line x1="188" y1="254" x2="184" y2="218" stroke="#aaff00" stroke-width="2"/>
</g>
<g>
	<polygon points="116,221 125,220 121,229" fill="#aaff00"/>
	<line x1="188" y1="254" x2="122" y2="224" stroke="#aaff00" stroke-width="2"/>
</g>
<g>
	<polygon points="196,157 199,166 190,163" fill="#aaff00"/>
	<line x1="184" y1="207" x2="195" y2="164" stroke="#aaff00" stroke-width="2"/>
</g>
<g>
	<polygon points="97,145 103,152 94,153" fill="#aaff00"/>
	<line x1="112" y1="220" x2="99" y2="152" stroke="#aaff00" stroke-width="2"/>
</g>
<g>
	<polygon points="101,140 108,135 109,144" fill="#aaff00"/>
	<line x1="145" y1="138" x2="108" y2="140" stroke="#aaff00" stroke-width="2"/>
</g>

<g fill="#000000">
	<circle cx="96" cy="140" r="4"/>
</g>
<g fill="#000000">
	<circle cx="137" cy="67" r="4"/>
</g>
<g fill="#000000">
	<circle cx="197" cy="152" r="4"/>
</g>
<g fill="#000000">
	<circle cx="253" cy="162" r="4"/>
</g>
<g fill="#000000">
	<circle cx="207" cy="94" r="4"/>
</g>
<g fill="#000000">
	<circle cx="144" cy="137" r="4"/>
</g>
<g fill="#000000">
	<circle cx="211" cy="46" r="4"/>
</g>
<g fill="#000000">
	<circle cx="302" cy="161" r="4"/>
</g>
<g fill="#000000">
	<circle cx="280" cy="87" r="4"/>
</g>
<g fill="#000000">
	<circle cx="187" cy="253" r="4"/>
</g>
<g fill="#000000">
	<circle cx="261" cy="232" r="4"/>
</g>
<g fill="#000000">
	<circle cx="183" cy="206" r="4"/>
</g>
<g fill="#000000">
	<circle cx="111" cy="219" r="4"/>
</g>

</g>

</svg>
