<?xml version="1.0" encoding="utf-8"?>
<!-- Created with Hypercube (http://tumic.wz.cz/hypercube) -->

<svg width="400" height="300" viewBox="0 0 400 300" xmlns="http://www.w3.org/2000/svg" baseProfile="tiny">

<g font-family="Helvetica" font-weight="normal">

<g>
	<polygon points="137,151 128,154 131,145" fill="#aaff00"/>
	<line x1="83" y1="137" x2="130" y2="149" stroke="#aaff00" stroke-width="2"/>
</g>
<g>
	<polygon points="201,115 197,123 192,115" fill="#aaff00"/>
	<line x1="142" y1="153" x2="195" y2="119" stroke="#aaff00" stroke-width="2"/>
</g>
<g>
	<polygon points="169,212 161,207 170,203" fill="#aaff00"/>
	<line x1="142" y1="153" x2="166" y2="206" stroke="#aaff00" stroke-width="2"/>
</g>
<g>
	<polygon points="202,72 207,79 198,80" fill="#aaff00"/>
	<line x1="205" y1="113" x2="202" y2="79" stroke="#aaff00" stroke-width="2"/>
</g>
<g>
	<polygon points="261,109 254,114 253,105" fill="#aaff00"/>
	<line x1="205" y1="113" x2="254" y2="109" stroke="#aaff00" stroke-width="2"/>
</g>
<g>
	<polygon points="251,147 242,146 247,139" fill="#aaff00"/>
	<line x1="205" y1="113" x2="245" y2="143" stroke="#aaff00" stroke-width="2"/>
</g>
<g>
	<polygon points="206,153 201,145 210,145" fill="#aaff00"/>
	<line x1="202" y1="68" x2="206" y2="146" stroke="#aaff00" stroke-width="2"/>
</g>
<g>
	<polygon points="269,58 262,64 261,55" fill="#aaff00"/>
	<line x1="202" y1="68" x2="262" y2="59" stroke="#aaff00" stroke-width="2"/>
</g>
<g>
	<polygon points="250,150 243,156 242,147" fill="#aaff00"/>
	<line x1="207" y1="158" x2="243" y2="151" stroke="#aaff00" stroke-width="2"/>
</g>
<g>
	<polygon points="241,197 232,194 239,188" fill="#aaff00"/>
	<line x1="207" y1="158" x2="236" y2="192" stroke="#aaff00" stroke-width="2"/>
</g>
<g>
	<polygon points="256,145 253,136 262,139" fill="#aaff00"/>
	<line x1="266" y1="109" x2="258" y2="138" stroke="#aaff00" stroke-width="2"/>
</g>
<g>
	<polygon points="245,196 242,187 251,190" fill="#aaff00"/>
	<line x1="266" y1="109" x2="246" y2="189" stroke="#aaff00" stroke-width="2"/>
</g>
<g>
	<polygon points="175,216 182,209 183,218" fill="#aaff00"/>
	<line x1="244" y1="201" x2="182" y2="214" stroke="#aaff00" stroke-width="2"/>
</g>
<g>
	<polygon points="121,241 126,233 130,241" fill="#aaff00"/>
	<line x1="171" y1="217" x2="127" y2="237" stroke="#aaff00" stroke-width="2"/>
</g>
<g>
	<polygon points="259,151 268,151 264,159" fill="#aaff00"/>
	<line x1="301" y1="172" x2="265" y2="155" stroke="#aaff00" stroke-width="2"/>
</g>
<g>
	<polygon points="248,198 252,191 256,199" fill="#aaff00"/>
	<line x1="301" y1="172" x2="254" y2="195" stroke="#aaff00" stroke-width="2"/>
</g>
<g>
	<polygon points="270,108 278,103 278,112" fill="#aaff00"/>
	<line x1="318" y1="106" x2="277" y2="108" stroke="#aaff00" stroke-width="2"/>
</g>
<g>
	<polygon points="302,167 299,158 308,161" fill="#aaff00"/>
	<line x1="318" y1="106" x2="303" y2="160" stroke="#aaff00" stroke-width="2"/>
</g>
<g>
	<polygon points="266,104 263,96 272,97" fill="#aaff00"/>
	<line x1="274" y1="58" x2="267" y2="97" stroke="#aaff00" stroke-width="2"/>
</g>
<g>
	<polygon points="314,102 306,99 313,93" fill="#aaff00"/>
	<line x1="274" y1="58" x2="310" y2="97" stroke="#aaff00" stroke-width="2"/>
</g>

<g fill="#000000">
	<circle cx="82" cy="136" r="4"/>
</g>
<g fill="#000000">
	<circle cx="141" cy="152" r="4"/>
</g>
<g fill="#000000">
	<circle cx="204" cy="112" r="4"/>
</g>
<g fill="#000000">
	<circle cx="170" cy="216" r="4"/>
</g>
<g fill="#000000">
	<circle cx="201" cy="67" r="4"/>
</g>
<g fill="#000000">
	<circle cx="265" cy="108" r="4"/>
</g>
<g fill="#000000">
	<circle cx="116" cy="242" r="4"/>
</g>
<g fill="#000000">
	<circle cx="206" cy="157" r="4"/>
</g>
<g fill="#000000">
	<circle cx="273" cy="57" r="4"/>
</g>
<g fill="#000000">
	<circle cx="254" cy="149" r="4"/>
</g>
<g fill="#000000">
	<circle cx="243" cy="200" r="4"/>
</g>
<g fill="#000000">
	<circle cx="317" cy="105" r="4"/>
</g>
<g fill="#000000">
	<circle cx="300" cy="171" r="4"/>
</g>

</g>

</svg>
