<?xml version="1.0" encoding="utf-8"?>
<!-- Created with Hypercube (http://tumic.wz.cz/hypercube) -->

<svg width="400" height="300" viewBox="0 0 400 300" xmlns="http://www.w3.org/2000/svg" baseProfile="tiny">

<g font-family="Helvetica" font-weight="normal">

<g>
	<polygon points="7,131 15,135 8,140" fill="#aaff00"/>
	<line x1="41" y1="179" x2="11" y2="137" stroke="#aaff00" stroke-width="2"/>
</g>
<g>
	<polygon points="8,227 9,218 16,223" fill="#aaff00"/>
	<line x1="41" y1="179" x2="12" y2="221" stroke="#aaff00" stroke-width="2"/>
</g>
<g>
	<polygon points="11,74 14,82 6,81" fill="#aaff00"/>
	<line x1="5" y1="128" x2="10" y2="81" stroke="#aaff00" stroke-width="2"/>
</g>
<g>
	<polygon points="45,178 53,173 53,182" fill="#aaff00"/>
	<line x1="102" y1="176" x2="52" y2="178" stroke="#aaff00" stroke-width="2"/>
</g>
<g>
	<polygon points="106,175 113,170 114,179" fill="#aaff00"/>
	<line x1="159" y1="171" x2="113" y2="174" stroke="#aaff00" stroke-width="2"/>
</g>
<g>
	<polygon points="163,169 169,163 172,172" fill="#aaff00"/>
	<line x1="221" y1="154" x2="170" y2="167" stroke="#aaff00" stroke-width="2"/>
</g>
<g>
	<polygon points="224,150 226,142 232,148" fill="#aaff00"/>
	<line x1="264" y1="112" x2="229" y2="145" stroke="#aaff00" stroke-width="2"/>
</g>
<g>
	<polygon points="378,79 371,86 370,77" fill="#aaff00"/>
	<line x1="325" y1="92" x2="371" y2="81" stroke="#aaff00" stroke-width="2"/>
</g>
<g>
	<polygon points="268,110 274,103 277,112" fill="#aaff00"/>
	<line x1="325" y1="92" x2="275" y2="108" stroke="#aaff00" stroke-width="2"/>
</g>
<g>
	<polygon points="336,144 330,138 339,136" fill="#aaff00"/>
	<line x1="325" y1="92" x2="335" y2="137" stroke="#aaff00" stroke-width="2"/>
</g>
<g>
	<polygon points="394,129 387,122 396,121" fill="#aaff00"/>
	<line x1="383" y1="79" x2="392" y2="122" stroke="#aaff00" stroke-width="2"/>
</g>
<g>
	<polygon points="342,147 348,141 351,150" fill="#aaff00"/>
	<line x1="395" y1="134" x2="349" y2="146" stroke="#aaff00" stroke-width="2"/>
</g>
<g>
	<polygon points="284,163 290,157 293,166" fill="#aaff00"/>
	<line x1="338" y1="149" x2="291" y2="161" stroke="#aaff00" stroke-width="2"/>
</g>
<g>
	<polygon points="265,116 271,122 263,125" fill="#aaff00"/>
	<line x1="280" y1="165" x2="267" y2="123" stroke="#aaff00" stroke-width="2"/>
</g>
<g>
	<polygon points="225,154 233,151 232,160" fill="#aaff00"/>
	<line x1="280" y1="165" x2="232" y2="156" stroke="#aaff00" stroke-width="2"/>
</g>

<g fill="#000000">
	<circle cx="40" cy="178" r="4"/>
</g>
<g fill="#000000">
	<circle cx="101" cy="175" r="4"/>
</g>
<g fill="#000000">
	<circle cx="4" cy="127" r="4"/>
</g>
<g fill="#000000">
	<circle cx="11" cy="69" r="4"/>
</g>
<g fill="#000000">
	<circle cx="382" cy="78" r="4"/>
</g>
<g fill="#000000">
	<circle cx="324" cy="91" r="4"/>
</g>
<g fill="#000000">
	<circle cx="263" cy="111" r="4"/>
</g>
<g fill="#000000">
	<circle cx="337" cy="148" r="4"/>
</g>
<g fill="#000000">
	<circle cx="394" cy="133" r="4"/>
</g>
<g fill="#000000">
	<circle cx="279" cy="164" r="4"/>
</g>
<g fill="#000000">
	<circle cx="220" cy="153" r="4"/>
</g>
<g fill="#000000">
	<circle cx="158" cy="170" r="4"/>
</g>
<g fill="#000000">
	<circle cx="5" cy="230" r="4"/>
</g>

</g>

</svg>
