<?xml version="1.0" encoding="utf-8"?>
<!-- Created with Hypercube (http://tumic.wz.cz/hypercube) -->

<svg width="400" height="300" viewBox="0 0 400 300" xmlns="http://www.w3.org/2000/svg" baseProfile="tiny">

<g font-family="Helvetica" font-weight="normal">

<g>
	<polygon points="87,107 78,106 83,99" fill="#aaff00"/>
	<line x1="43" y1="77" x2="81" y2="103" stroke="#aaff00" stroke-width="2"/>
</g>
<g>
	<polygon points="146,87 141,94 137,86" fill="#aaff00"/>
	<line x1="91" y1="110" x2="140" y2="90" stroke="#aaff00" stroke-width="2"/>
</g>
<g>
	<polygon points="73,164 71,155 80,158" fill="#aaff00"/>
	<line x1="91" y1="110" x2="75" y2="157" stroke="#aaff00" stroke-width="2"/>
</g>
<g>
	<polygon points="210,97 202,100 203,91" fill="#aaff00"/>
	<line x1="151" y1="86" x2="203" y2="95" stroke="#aaff00" stroke-width="2"/>
</g>
<g>
	<polygon points="155,27 159,35 150,34" fill="#aaff00"/>
	<line x1="151" y1="86" x2="155" y2="34" stroke="#aaff00" stroke-width="2"/>
</g>
<g>
	<polygon points="273,111 264,114 267,105" fill="#aaff00"/>
	<line x1="215" y1="98" x2="266" y2="110" stroke="#aaff00" stroke-width="2"/>
</g>
<g>
	<polygon points="304,164 297,159 305,155" fill="#aaff00"/>
	<line x1="278" y1="113" x2="301" y2="157" stroke="#aaff00" stroke-width="2"/>
</g>
<g>
	<polygon points="315,75 313,83 307,77" fill="#aaff00"/>
	<line x1="278" y1="113" x2="310" y2="80" stroke="#aaff00" stroke-width="2"/>
</g>
<g>
	<polygon points="332,216 325,211 333,207" fill="#aaff00"/>
	<line x1="307" y1="168" x2="329" y2="209" stroke="#aaff00" stroke-width="2"/>
</g>
<g>
	<polygon points="358,266 350,261 358,257" fill="#aaff00"/>
	<line x1="335" y1="220" x2="354" y2="260" stroke="#aaff00" stroke-width="2"/>
</g>
<g>
	<polygon points="47,218 46,209 54,214" fill="#aaff00"/>
	<line x1="72" y1="169" x2="50" y2="212" stroke="#aaff00" stroke-width="2"/>
</g>
<g>
	<polygon points="41,274 37,266 46,267" fill="#aaff00"/>
	<line x1="45" y1="223" x2="41" y2="267" stroke="#aaff00" stroke-width="2"/>
</g>

<g fill="#000000">
	<circle cx="42" cy="76" r="4"/>
</g>
<g fill="#000000">
	<circle cx="90" cy="109" r="4"/>
</g>
<g fill="#000000">
	<circle cx="150" cy="85" r="4"/>
</g>
<g fill="#000000">
	<circle cx="71" cy="168" r="4"/>
</g>
<g fill="#000000">
	<circle cx="214" cy="97" r="4"/>
</g>
<g fill="#000000">
	<circle cx="155" cy="22" r="4"/>
</g>
<g fill="#000000">
	<circle cx="44" cy="222" r="4"/>
</g>
<g fill="#000000">
	<circle cx="277" cy="112" r="4"/>
</g>
<g fill="#000000">
	<circle cx="306" cy="167" r="4"/>
</g>
<g fill="#000000">
	<circle cx="318" cy="71" r="4"/>
</g>
<g fill="#000000">
	<circle cx="334" cy="219" r="4"/>
</g>
<g fill="#000000">
	<circle cx="359" cy="270" r="4"/>
</g>
<g fill="#000000">
	<circle cx="40" cy="278" r="4"/>
</g>

</g>

</svg>
