<?xml version="1.0" encoding="utf-8"?>
<!-- Created with Hypercube (http://tumic.wz.cz/hypercube) -->

<svg width="400" height="300" viewBox="0 0 400 300" xmlns="http://www.w3.org/2000/svg" baseProfile="tiny">

<g font-family="Helvetica" font-weight="normal">

<g>
	<polygon points="184,65 181,74 175,67" fill="#aaff00"/>
	<line x1="143" y1="103" x2="179" y2="70" stroke="#aaff00" stroke-width="2"/>
</g>
<g>
	<polygon points="107,153 108,144 115,149" fill="#aaff00"/>
	<line x1="143" y1="103" x2="111" y2="147" stroke="#aaff00" stroke-width="2"/>
</g>
<g>
	<polygon points="240,43 235,50 231,42" fill="#aaff00"/>
	<line x1="188" y1="63" x2="234" y2="46" stroke="#aaff00" stroke-width="2"/>
</g>
<g>
	<polygon points="298,46 290,50 291,41" fill="#aaff00"/>
	<line x1="245" y1="42" x2="291" y2="45" stroke="#aaff00" stroke-width="2"/>
</g>
<g>
	<polygon points="343,86 335,84 341,78" fill="#aaff00"/>
	<line x1="303" y1="47" x2="338" y2="81" stroke="#aaff00" stroke-width="2"/>
</g>
<g>
	<polygon points="355,147 349,140 358,139" fill="#aaff00"/>
	<line x1="347" y1="90" x2="354" y2="140" stroke="#aaff00" stroke-width="2"/>
</g>
<g>
	<polygon points="392,198 383,195 390,189" fill="#aaff00"/>
	<line x1="356" y1="152" x2="387" y2="192" stroke="#aaff00" stroke-width="2"/>
</g>
<g>
	<polygon points="315,187 318,178 324,185" fill="#aaff00"/>
	<line x1="356" y1="152" x2="320" y2="182" stroke="#aaff00" stroke-width="2"/>
</g>
<g>
	<polygon points="395,254 390,246 399,246" fill="#aaff00"/>
	<line x1="395" y1="202" x2="395" y2="247" stroke="#aaff00" stroke-width="2"/>
</g>
<g>
	<polygon points="128,202 121,197 129,193" fill="#aaff00"/>
	<line x1="105" y1="157" x2="125" y2="195" stroke="#aaff00" stroke-width="2"/>
</g>
<g>
	<polygon points="48,166 55,160 56,169" fill="#aaff00"/>
	<line x1="105" y1="157" x2="55" y2="165" stroke="#aaff00" stroke-width="2"/>
</g>
<g>
	<polygon points="8,198 11,190 17,197" fill="#aaff00"/>
	<line x1="44" y1="167" x2="13" y2="194" stroke="#aaff00" stroke-width="2"/>
</g>

<g fill="#000000">
	<circle cx="142" cy="102" r="4"/>
</g>
<g fill="#000000">
	<circle cx="187" cy="62" r="4"/>
</g>
<g fill="#000000">
	<circle cx="104" cy="156" r="4"/>
</g>
<g fill="#000000">
	<circle cx="244" cy="41" r="4"/>
</g>
<g fill="#000000">
	<circle cx="302" cy="46" r="4"/>
</g>
<g fill="#000000">
	<circle cx="346" cy="89" r="4"/>
</g>
<g fill="#000000">
	<circle cx="355" cy="151" r="4"/>
</g>
<g fill="#000000">
	<circle cx="394" cy="201" r="4"/>
</g>
<g fill="#000000">
	<circle cx="311" cy="189" r="4"/>
</g>
<g fill="#000000">
	<circle cx="394" cy="258" r="4"/>
</g>
<g fill="#000000">
	<circle cx="130" cy="205" r="4"/>
</g>
<g fill="#000000">
	<circle cx="43" cy="166" r="4"/>
</g>
<g fill="#000000">
	<circle cx="4" cy="201" r="4"/>
</g>

</g>

</svg>
