<?xml version="1.0" encoding="utf-8"?>
<!-- Created with Hypercube (http://tumic.wz.cz/hypercube) -->

<svg width="400" height="300" viewBox="0 0 400 300" xmlns="http://www.w3.org/2000/svg" baseProfile="tiny">

<g font-family="Helvetica" font-weight="normal">

<g>
	<polygon points="276,234 268,229 276,225" fill="#aaff00"/>
	<line x1="247" y1="184" x2="273" y2="227" stroke="#aaff00" stroke-width="2"/>
</g>
<g>
	<polygon points="202,106 203,115 195,111" fill="#aaff00"/>
	<line x1="178" y1="167" x2="199" y2="112" stroke="#aaff00" stroke-width="2"/>
</g>
<g>
	<polygon points="242,182 233,185 236,176" fill="#aaff00"/>
	<line x1="178" y1="167" x2="235" y2="181" stroke="#aaff00" stroke-width="2"/>
</g>
<g>
	<polygon points="233,55 233,64 225,59" fill="#aaff00"/>
	<line x1="204" y1="102" x2="229" y2="61" stroke="#aaff00" stroke-width="2"/>
</g>
<g>
	<polygon points="239,49 243,41 248,48" fill="#aaff00"/>
	<line x1="283" y1="21" x2="245" y2="45" stroke="#aaff00" stroke-width="2"/>
</g>
<g>
	<polygon points="287,20 294,13 295,22" fill="#aaff00"/>
	<line x1="333" y1="10" x2="294" y2="18" stroke="#aaff00" stroke-width="2"/>
</g>
<g>
	<polygon points="173,165 164,165 168,157" fill="#aaff00"/>
	<line x1="116" y1="138" x2="167" y2="162" stroke="#aaff00" stroke-width="2"/>
</g>
<g>
	<polygon points="112,135 103,136 107,128" fill="#aaff00"/>
	<line x1="67" y1="111" x2="105" y2="132" stroke="#aaff00" stroke-width="2"/>
</g>
<g>
	<polygon points="175,170 174,179 167,174" fill="#aaff00"/>
	<line x1="137" y1="229" x2="171" y2="176" stroke="#aaff00" stroke-width="2"/>
</g>
<g>
	<polygon points="140,232 148,234 142,240" fill="#aaff00"/>
	<line x1="183" y1="275" x2="145" y2="237" stroke="#aaff00" stroke-width="2"/>
</g>
<g>
	<polygon points="192,227 195,235 186,234" fill="#aaff00"/>
	<line x1="183" y1="275" x2="190" y2="234" stroke="#aaff00" stroke-width="2"/>
</g>
<g>
	<polygon points="235,289 226,292 229,283" fill="#aaff00"/>
	<line x1="183" y1="275" x2="228" y2="287" stroke="#aaff00" stroke-width="2"/>
</g>
<g>
	<polygon points="179,171 185,177 176,180" fill="#aaff00"/>
	<line x1="193" y1="223" x2="181" y2="178" stroke="#aaff00" stroke-width="2"/>
</g>
<g>
	<polygon points="276,241 275,250 268,245" fill="#aaff00"/>
	<line x1="240" y1="291" x2="272" y2="247" stroke="#aaff00" stroke-width="2"/>
</g>

<g fill="#000000">
	<circle cx="278" cy="237" r="4"/>
</g>
<g fill="#000000">
	<circle cx="235" cy="51" r="4"/>
</g>
<g fill="#000000">
	<circle cx="332" cy="9" r="4"/>
</g>
<g fill="#000000">
	<circle cx="282" cy="20" r="4"/>
</g>
<g fill="#000000">
	<circle cx="177" cy="166" r="4"/>
</g>
<g fill="#000000">
	<circle cx="203" cy="101" r="4"/>
</g>
<g fill="#000000">
	<circle cx="246" cy="183" r="4"/>
</g>
<g fill="#000000">
	<circle cx="66" cy="110" r="4"/>
</g>
<g fill="#000000">
	<circle cx="115" cy="137" r="4"/>
</g>
<g fill="#000000">
	<circle cx="182" cy="274" r="4"/>
</g>
<g fill="#000000">
	<circle cx="136" cy="228" r="4"/>
</g>
<g fill="#000000">
	<circle cx="192" cy="222" r="4"/>
</g>
<g fill="#000000">
	<circle cx="239" cy="290" r="4"/>
</g>

</g>

</svg>
