<?xml version="1.0" encoding="utf-8"?>
<!-- Created with Hypercube (http://tumic.wz.cz/hypercube) -->

<svg width="400" height="300" viewBox="0 0 400 300" xmlns="http://www.w3.org/2000/svg" baseProfile="tiny">

<g font-family="Helvetica" font-weight="normal">

<g>
	<polygon points="308,226 317,226 312,234" fill="#aaff00"/>
	<line x1="354" y1="255" x2="314" y2="230" stroke="#aaff00" stroke-width="2"/>
</g>
<g>
	<polygon points="256,172 264,174 258,181" fill="#aaff00"/>
	<line x1="305" y1="224" x2="261" y2="177" stroke="#aaff00" stroke-width="2"/>
</g>
<g>
	<polygon points="177,179 184,173 185,182" fill="#aaff00"/>
	<line x1="253" y1="169" x2="184" y2="178" stroke="#aaff00" stroke-width="2"/>
</g>
<g>
	<polygon points="286,109 286,118 278,114" fill="#aaff00"/>
	<line x1="253" y1="169" x2="283" y2="116" stroke="#aaff00" stroke-width="2"/>
</g>
<g>
	<polygon points="315,159 308,165 307,156" fill="#aaff00"/>
	<line x1="253" y1="169" x2="308" y2="160" stroke="#aaff00" stroke-width="2"/>
</g>
<g>
	<polygon points="219,106 226,111 218,115" fill="#aaff00"/>
	<line x1="253" y1="169" x2="222" y2="113" stroke="#aaff00" stroke-width="2"/>
</g>
<g>
	<polygon points="238,220 236,211 244,214" fill="#aaff00"/>
	<line x1="253" y1="169" x2="240" y2="213" stroke="#aaff00" stroke-width="2"/>
</g>
<g>
	<polygon points="117,153 126,153 122,161" fill="#aaff00"/>
	<line x1="173" y1="180" x2="123" y2="156" stroke="#aaff00" stroke-width="2"/>
</g>
<g>
	<polygon points="147,230 147,221 155,225" fill="#aaff00"/>
	<line x1="173" y1="180" x2="151" y2="224" stroke="#aaff00" stroke-width="2"/>
</g>
<g>
	<polygon points="68,118 77,119 72,126" fill="#aaff00"/>
	<line x1="113" y1="152" x2="74" y2="123" stroke="#aaff00" stroke-width="2"/>
</g>
<g>
	<polygon points="48,66 55,72 46,75" fill="#aaff00"/>
	<line x1="65" y1="116" x2="50" y2="73" stroke="#aaff00" stroke-width="2"/>
</g>
<g>
	<polygon points="208,50 214,57 205,58" fill="#aaff00"/>
	<line x1="217" y1="103" x2="209" y2="57" stroke="#aaff00" stroke-width="2"/>
</g>

<g fill="#000000">
	<circle cx="353" cy="254" r="4"/>
</g>
<g fill="#000000">
	<circle cx="304" cy="223" r="4"/>
</g>
<g fill="#000000">
	<circle cx="252" cy="168" r="4"/>
</g>
<g fill="#000000">
	<circle cx="172" cy="179" r="4"/>
</g>
<g fill="#000000">
	<circle cx="288" cy="105" r="4"/>
</g>
<g fill="#000000">
	<circle cx="319" cy="158" r="4"/>
</g>
<g fill="#000000">
	<circle cx="216" cy="102" r="4"/>
</g>
<g fill="#000000">
	<circle cx="236" cy="224" r="4"/>
</g>
<g fill="#000000">
	<circle cx="112" cy="151" r="4"/>
</g>
<g fill="#000000">
	<circle cx="145" cy="234" r="4"/>
</g>
<g fill="#000000">
	<circle cx="207" cy="45" r="4"/>
</g>
<g fill="#000000">
	<circle cx="64" cy="115" r="4"/>
</g>
<g fill="#000000">
	<circle cx="46" cy="61" r="4"/>
</g>

</g>

</svg>
