<?xml version="1.0" encoding="utf-8"?>
<!-- Created with Hypercube (http://tumic.wz.cz/hypercube) -->

<svg width="400" height="300" viewBox="0 0 400 300" xmlns="http://www.w3.org/2000/svg" baseProfile="tiny">

<g font-family="Helvetica" font-weight="normal">

<g>
	<polygon points="251,266 243,264 249,258" fill="#aaff00"/>
	<line x1="209" y1="225" x2="246" y2="261" stroke="#aaff00" stroke-width="2"/>
</g>
<g>
	<polygon points="176,267 177,258 185,263" fill="#aaff00"/>
	<line x1="209" y1="225" x2="181" y2="261" stroke="#aaff00" stroke-width="2"/>
</g>
<g>
	<polygon points="182,176 189,181 182,185" fill="#aaff00"/>
	<line x1="209" y1="225" x2="185" y2="183" stroke="#aaff00" stroke-width="2"/>
</g>
<g>
	<polygon points="147,225 155,221 155,230" fill="#aaff00"/>
	<line x1="209" y1="225" x2="154" y2="225" stroke="#aaff00" stroke-width="2"/>
</g>
<g>
	<polygon points="224,190 225,199 216,195" fill="#aaff00"/>
	<line x1="209" y1="225" x2="221" y2="196" stroke="#aaff00" stroke-width="2"/>
</g>
<g>
	<polygon points="171,267 163,263 170,258" fill="#aaff00"/>
	<line x1="143" y1="226" x2="167" y2="261" stroke="#aaff00" stroke-width="2"/>
</g>
<g>
	<polygon points="94,269 97,261 103,268" fill="#aaff00"/>
	<line x1="143" y1="226" x2="99" y2="265" stroke="#aaff00" stroke-width="2"/>
</g>
<g>
	<polygon points="97,189 106,191 100,198" fill="#aaff00"/>
	<line x1="143" y1="226" x2="103" y2="194" stroke="#aaff00" stroke-width="2"/>
</g>
<g>
	<polygon points="145,222 146,213 153,218" fill="#aaff00"/>
	<line x1="180" y1="173" x2="149" y2="216" stroke="#aaff00" stroke-width="2"/>
</g>
<g>
	<polygon points="221,184 212,186 215,178" fill="#aaff00"/>
	<line x1="180" y1="173" x2="214" y2="182" stroke="#aaff00" stroke-width="2"/>
</g>
<g>
	<polygon points="210,220 209,211 218,215" fill="#aaff00"/>
	<line x1="247" y1="140" x2="213" y2="214" stroke="#aaff00" stroke-width="2"/>
</g>
<g>
	<polygon points="184,171 189,163 193,171" fill="#aaff00"/>
	<line x1="247" y1="140" x2="190" y2="167" stroke="#aaff00" stroke-width="2"/>
</g>
<g>
	<polygon points="305,140 297,145 297,136" fill="#aaff00"/>
	<line x1="247" y1="140" x2="298" y2="140" stroke="#aaff00" stroke-width="2"/>
</g>
<g>
	<polygon points="245,78 249,86 240,86" fill="#aaff00"/>
	<line x1="247" y1="140" x2="245" y2="85" stroke="#aaff00" stroke-width="2"/>
</g>
<g>
	<polygon points="211,31 220,34 213,40" fill="#aaff00"/>
	<line x1="245" y1="74" x2="216" y2="37" stroke="#aaff00" stroke-width="2"/>
</g>
<g>
	<polygon points="287,44 283,52 278,45" fill="#aaff00"/>
	<line x1="245" y1="74" x2="281" y2="48" stroke="#aaff00" stroke-width="2"/>
</g>

<g fill="#000000">
	<circle cx="254" cy="269" r="4"/>
</g>
<g fill="#000000">
	<circle cx="173" cy="270" r="4"/>
</g>
<g fill="#000000">
	<circle cx="90" cy="272" r="4"/>
</g>
<g fill="#000000">
	<circle cx="93" cy="186" r="4"/>
</g>
<g fill="#000000">
	<circle cx="246" cy="139" r="4"/>
</g>
<g fill="#000000">
	<circle cx="208" cy="224" r="4"/>
</g>
<g fill="#000000">
	<circle cx="179" cy="172" r="4"/>
</g>
<g fill="#000000">
	<circle cx="309" cy="140" r="4"/>
</g>
<g fill="#000000">
	<circle cx="244" cy="73" r="4"/>
</g>
<g fill="#000000">
	<circle cx="142" cy="225" r="4"/>
</g>
<g fill="#000000">
	<circle cx="225" cy="185" r="4"/>
</g>
<g fill="#000000">
	<circle cx="208" cy="27" r="4"/>
</g>
<g fill="#000000">
	<circle cx="290" cy="41" r="4"/>
</g>

</g>

</svg>
