<?xml version="1.0" encoding="utf-8"?>
<!-- Created with Hypercube (http://tumic.wz.cz/hypercube) -->

<svg width="400" height="300" viewBox="0 0 400 300" xmlns="http://www.w3.org/2000/svg" baseProfile="tiny">

<g font-family="Helvetica" font-weight="normal">

<g>
	<polygon points="90,203 88,212 81,206" fill="#aaff00"/>
	<line x1="58" y1="244" x2="85" y2="209" stroke="#aaff00" stroke-width="2"/>
</g>
<g>
	<polygon points="162,222 153,224 156,215" fill="#aaff00"/>
	<line x1="93" y1="200" x2="155" y2="220" stroke="#aaff00" stroke-width="2"/>
</g>
<g>
	<polygon points="67,133 74,138 66,142" fill="#aaff00"/>
	<line x1="93" y1="200" x2="70" y2="139" stroke="#aaff00" stroke-width="2"/>
</g>
<g>
	<polygon points="123,166 121,175 115,169" fill="#aaff00"/>
	<line x1="93" y1="200" x2="119" y2="171" stroke="#aaff00" stroke-width="2"/>
</g>
<g>
	<polygon points="232,192 227,200 223,192" fill="#aaff00"/>
	<line x1="167" y1="224" x2="226" y2="195" stroke="#aaff00" stroke-width="2"/>
</g>
<g>
	<polygon points="177,174 179,182 171,181" fill="#aaff00"/>
	<line x1="167" y1="224" x2="175" y2="181" stroke="#aaff00" stroke-width="2"/>
</g>
<g>
	<polygon points="293,204 284,207 287,198" fill="#aaff00"/>
	<line x1="237" y1="191" x2="286" y2="203" stroke="#aaff00" stroke-width="2"/>
</g>
<g>
	<polygon points="339,233 330,232 335,225" fill="#aaff00"/>
	<line x1="298" y1="206" x2="333" y2="229" stroke="#aaff00" stroke-width="2"/>
</g>
<g>
	<polygon points="235,186 227,181 235,177" fill="#aaff00"/>
	<line x1="203" y1="122" x2="231" y2="180" stroke="#aaff00" stroke-width="2"/>
</g>
<g>
	<polygon points="130,160 135,153 139,161" fill="#aaff00"/>
	<line x1="203" y1="122" x2="137" y2="157" stroke="#aaff00" stroke-width="2"/>
</g>
<g>
	<polygon points="201,117 193,112 202,108" fill="#aaff00"/>
	<line x1="174" y1="58" x2="198" y2="111" stroke="#aaff00" stroke-width="2"/>
</g>
<g>
	<polygon points="169,58 162,64 161,55" fill="#aaff00"/>
	<line x1="108" y1="71" x2="162" y2="60" stroke="#aaff00" stroke-width="2"/>
</g>
<g>
	<polygon points="68,125 69,116 76,121" fill="#aaff00"/>
	<line x1="108" y1="71" x2="72" y2="119" stroke="#aaff00" stroke-width="2"/>
</g>
<g>
	<polygon points="110,74 119,77 112,83" fill="#aaff00"/>
	<line x1="140" y1="110" x2="115" y2="80" stroke="#aaff00" stroke-width="2"/>
</g>
<g>
	<polygon points="142,113 150,117 142,122" fill="#aaff00"/>
	<line x1="178" y1="170" x2="146" y2="119" stroke="#aaff00" stroke-width="2"/>
</g>

<g fill="#000000">
	<circle cx="57" cy="243" r="4"/>
</g>
<g fill="#000000">
	<circle cx="92" cy="199" r="4"/>
</g>
<g fill="#000000">
	<circle cx="166" cy="223" r="4"/>
</g>
<g fill="#000000">
	<circle cx="236" cy="190" r="4"/>
</g>
<g fill="#000000">
	<circle cx="177" cy="169" r="4"/>
</g>
<g fill="#000000">
	<circle cx="297" cy="205" r="4"/>
</g>
<g fill="#000000">
	<circle cx="139" cy="109" r="4"/>
</g>
<g fill="#000000">
	<circle cx="107" cy="70" r="4"/>
</g>
<g fill="#000000">
	<circle cx="173" cy="57" r="4"/>
</g>
<g fill="#000000">
	<circle cx="65" cy="128" r="4"/>
</g>
<g fill="#000000">
	<circle cx="202" cy="121" r="4"/>
</g>
<g fill="#000000">
	<circle cx="126" cy="162" r="4"/>
</g>
<g fill="#000000">
	<circle cx="342" cy="235" r="4"/>
</g>

</g>

</svg>
