<?xml version="1.0" encoding="utf-8"?>
<!-- Created with Hypercube (http://tumic.wz.cz/hypercube) -->

<svg width="400" height="300" viewBox="0 0 400 300" xmlns="http://www.w3.org/2000/svg" baseProfile="tiny">

<g font-family="Helvetica" font-weight="normal">

<g>
	<polygon points="140,176 134,169 143,168" fill="#aaff00"/>
	<line x1="130" y1="114" x2="139" y2="169" stroke="#aaff00" stroke-width="2"/>
</g>
<g>
	<polygon points="166,64 165,73 158,68" fill="#aaff00"/>
	<line x1="130" y1="114" x2="162" y2="70" stroke="#aaff00" stroke-width="2"/>
</g>
<g>
	<polygon points="94,206 99,199 103,206" fill="#aaff00"/>
	<line x1="141" y1="181" x2="101" y2="203" stroke="#aaff00" stroke-width="2"/>
</g>
<g>
	<polygon points="144,183 153,184 148,191" fill="#aaff00"/>
	<line x1="201" y1="221" x2="150" y2="187" stroke="#aaff00" stroke-width="2"/>
</g>
<g>
	<polygon points="256,196 251,204 247,195" fill="#aaff00"/>
	<line x1="201" y1="221" x2="250" y2="199" stroke="#aaff00" stroke-width="2"/>
</g>
<g>
	<polygon points="300,139 299,148 292,143" fill="#aaff00"/>
	<line x1="261" y1="195" x2="296" y2="145" stroke="#aaff00" stroke-width="2"/>
</g>
<g>
	<polygon points="298,134 289,136 292,127" fill="#aaff00"/>
	<line x1="250" y1="118" x2="291" y2="132" stroke="#aaff00" stroke-width="2"/>
</g>
<g>
	<polygon points="245,116 236,118 239,109" fill="#aaff00"/>
	<line x1="199" y1="101" x2="238" y2="114" stroke="#aaff00" stroke-width="2"/>
</g>
<g>
	<polygon points="196,97 188,93 195,88" fill="#aaff00"/>
	<line x1="169" y1="61" x2="191" y2="91" stroke="#aaff00" stroke-width="2"/>
</g>
<g>
	<polygon points="236,25 231,32 227,24" fill="#aaff00"/>
	<line x1="169" y1="61" x2="229" y2="28" stroke="#aaff00" stroke-width="2"/>
</g>
<g>
	<polygon points="253,61 246,55 255,52" fill="#aaff00"/>
	<line x1="240" y1="23" x2="251" y2="54" stroke="#aaff00" stroke-width="2"/>
</g>
<g>
	<polygon points="305,64 296,64 301,56" fill="#aaff00"/>
	<line x1="240" y1="23" x2="299" y2="60" stroke="#aaff00" stroke-width="2"/>
</g>
<g>
	<polygon points="250,113 246,105 255,106" fill="#aaff00"/>
	<line x1="255" y1="66" x2="251" y2="106" stroke="#aaff00" stroke-width="2"/>
</g>
<g>
	<polygon points="303,131 299,123 308,124" fill="#aaff00"/>
	<line x1="309" y1="67" x2="304" y2="124" stroke="#aaff00" stroke-width="2"/>
</g>
<g>
	<polygon points="200,225 205,233 196,233" fill="#aaff00"/>
	<line x1="200" y1="279" x2="200" y2="232" stroke="#aaff00" stroke-width="2"/>
</g>

<g fill="#000000">
	<circle cx="129" cy="113" r="4"/>
</g>
<g fill="#000000">
	<circle cx="140" cy="180" r="4"/>
</g>
<g fill="#000000">
	<circle cx="168" cy="60" r="4"/>
</g>
<g fill="#000000">
	<circle cx="90" cy="208" r="4"/>
</g>
<g fill="#000000">
	<circle cx="198" cy="100" r="4"/>
</g>
<g fill="#000000">
	<circle cx="239" cy="22" r="4"/>
</g>
<g fill="#000000">
	<circle cx="249" cy="117" r="4"/>
</g>
<g fill="#000000">
	<circle cx="302" cy="135" r="4"/>
</g>
<g fill="#000000">
	<circle cx="199" cy="278" r="4"/>
</g>
<g fill="#000000">
	<circle cx="200" cy="220" r="4"/>
</g>
<g fill="#000000">
	<circle cx="260" cy="194" r="4"/>
</g>
<g fill="#000000">
	<circle cx="254" cy="65" r="4"/>
</g>
<g fill="#000000">
	<circle cx="308" cy="66" r="4"/>
</g>

</g>

</svg>
