<?xml version="1.0" encoding="utf-8"?>
<!-- Created with Hypercube (http://tumic.wz.cz/hypercube) -->

<svg width="400" height="300" viewBox="0 0 400 300" xmlns="http://www.w3.org/2000/svg" baseProfile="tiny">

<g font-family="Helvetica" font-weight="normal">

<g>
	<polygon points="153,189 161,185 160,194" fill="#aaff00"/>
	<line x1="244" y1="195" x2="160" y2="189" stroke="#aaff00" stroke-width="2"/>
</g>
<g>
	<polygon points="153,189 161,186 160,195" fill="#aaff00"/>
	<line x1="212" y1="201" x2="160" y2="191" stroke="#aaff00" stroke-width="2"/>
</g>
<g>
	<polygon points="248,195 256,191 255,200" fill="#aaff00"/>
	<line x1="275" y1="197" x2="255" y2="195" stroke="#aaff00" stroke-width="2"/>
</g>
<g>
	<polygon points="153,189 161,185 160,194" fill="#aaff00"/>
	<line x1="275" y1="197" x2="160" y2="189" stroke="#aaff00" stroke-width="2"/>
</g>
<g>
	<polygon points="289,132 292,140 283,138" fill="#aaff00"/>
	<line x1="275" y1="197" x2="288" y2="139" stroke="#aaff00" stroke-width="2"/>
</g>
<g>
	<polygon points="227,103 234,108 226,112" fill="#aaff00"/>
	<line x1="275" y1="197" x2="230" y2="110" stroke="#aaff00" stroke-width="2"/>
</g>
<g>
	<polygon points="216,200 223,195 224,204" fill="#aaff00"/>
	<line x1="275" y1="197" x2="223" y2="200" stroke="#aaff00" stroke-width="2"/>
</g>
<g>
	<polygon points="185,191 193,187 192,196" fill="#aaff00"/>
	<line x1="275" y1="197" x2="192" y2="191" stroke="#aaff00" stroke-width="2"/>
</g>
<g>
	<polygon points="247,142 254,147 246,151" fill="#aaff00"/>
	<line x1="275" y1="197" x2="250" y2="149" stroke="#aaff00" stroke-width="2"/>
</g>
<g>
	<polygon points="229,101 238,100 234,108" fill="#aaff00"/>
	<line x1="291" y1="128" x2="235" y2="104" stroke="#aaff00" stroke-width="2"/>
</g>
<g>
	<polygon points="227,104 234,108 226,112" fill="#aaff00"/>
	<line x1="245" y1="139" x2="230" y2="110" stroke="#aaff00" stroke-width="2"/>
</g>
<g>
	<polygon points="240,191 231,189 238,183" fill="#aaff00"/>
	<line x1="213" y1="166" x2="235" y2="187" stroke="#aaff00" stroke-width="2"/>
</g>
<g>
	<polygon points="153,187 159,180 162,189" fill="#aaff00"/>
	<line x1="213" y1="166" x2="160" y2="185" stroke="#aaff00" stroke-width="2"/>
</g>
<g>
	<polygon points="224,104 227,112 218,111" fill="#aaff00"/>
	<line x1="213" y1="166" x2="222" y2="111" stroke="#aaff00" stroke-width="2"/>
</g>
<g>
	<polygon points="270,194 261,195 266,187" fill="#aaff00"/>
	<line x1="213" y1="166" x2="264" y2="191" stroke="#aaff00" stroke-width="2"/>
</g>
<g>
	<polygon points="184,188 187,179 193,186" fill="#aaff00"/>
	<line x1="213" y1="166" x2="190" y2="183" stroke="#aaff00" stroke-width="2"/>
</g>
<g>
	<polygon points="241,141 238,150 232,143" fill="#aaff00"/>
	<line x1="213" y1="166" x2="236" y2="146" stroke="#aaff00" stroke-width="2"/>
</g>
<g>
	<polygon points="153,189 161,185 160,194" fill="#aaff00"/>
	<line x1="181" y1="191" x2="160" y2="189" stroke="#aaff00" stroke-width="2"/>
</g>
<g>
	<polygon points="270,194 261,195 266,187" fill="#aaff00"/>
	<line x1="176" y1="147" x2="264" y2="191" stroke="#aaff00" stroke-width="2"/>
</g>
<g>
	<polygon points="149,125 158,127 152,134" fill="#aaff00"/>
	<line x1="176" y1="147" x2="155" y2="130" stroke="#aaff00" stroke-width="2"/>
</g>
<g>
	<polygon points="182,116 185,124 176,122" fill="#aaff00"/>
	<line x1="176" y1="147" x2="181" y2="123" stroke="#aaff00" stroke-width="2"/>
</g>
<g>
	<polygon points="114,133 122,131 121,139" fill="#aaff00"/>
	<line x1="176" y1="147" x2="121" y2="135" stroke="#aaff00" stroke-width="2"/>
</g>
<g>
	<polygon points="208,163 200,164 204,156" fill="#aaff00"/>
	<line x1="176" y1="147" x2="202" y2="160" stroke="#aaff00" stroke-width="2"/>
</g>
<g>
	<polygon points="148,184 143,176 152,176" fill="#aaff00"/>
	<line x1="146" y1="123" x2="148" y2="177" stroke="#aaff00" stroke-width="2"/>
</g>
<g>
	<polygon points="220,101 214,107 211,99" fill="#aaff00"/>
	<line x1="146" y1="123" x2="213" y2="103" stroke="#aaff00" stroke-width="2"/>
</g>
<g>
	<polygon points="179,113 173,119 170,111" fill="#aaff00"/>
	<line x1="146" y1="123" x2="172" y2="115" stroke="#aaff00" stroke-width="2"/>
</g>
<g>
	<polygon points="114,131 120,125 123,134" fill="#aaff00"/>
	<line x1="146" y1="123" x2="121" y2="129" stroke="#aaff00" stroke-width="2"/>
</g>
<g>
	<polygon points="150,184 149,175 158,179" fill="#aaff00"/>
	<line x1="184" y1="112" x2="153" y2="178" stroke="#aaff00" stroke-width="2"/>
</g>
<g>
	<polygon points="220,101 214,107 211,99" fill="#aaff00"/>
	<line x1="184" y1="112" x2="213" y2="103" stroke="#aaff00" stroke-width="2"/>
</g>
<g>
	<polygon points="146,185 138,181 145,176" fill="#aaff00"/>
	<line x1="110" y1="133" x2="142" y2="179" stroke="#aaff00" stroke-width="2"/>
</g>
<g>
	<polygon points="220,101 214,107 211,99" fill="#aaff00"/>
	<line x1="110" y1="133" x2="213" y2="103" stroke="#aaff00" stroke-width="2"/>
</g>

<g fill="#000000">
	<circle cx="243" cy="194" r="4"/>
</g>
<g fill="#000000">
	<circle cx="148" cy="188" r="4"/>
</g>
<g fill="#000000">
	<circle cx="290" cy="127" r="4"/>
</g>
<g fill="#000000">
	<circle cx="224" cy="99" r="4"/>
</g>
<g fill="#000000">
	<circle cx="211" cy="200" r="4"/>
</g>
<g fill="#000000">
	<circle cx="274" cy="196" r="4"/>
</g>
<g fill="#000000">
	<circle cx="180" cy="190" r="4"/>
</g>
<g fill="#000000">
	<circle cx="244" cy="138" r="4"/>
</g>
<g fill="#000000">
	<circle cx="175" cy="146" r="4"/>
</g>
<g fill="#000000">
	<circle cx="145" cy="122" r="4"/>
</g>
<g fill="#000000">
	<circle cx="183" cy="111" r="4"/>
</g>
<g fill="#000000">
	<circle cx="109" cy="132" r="4"/>
</g>
<g fill="#000000">
	<circle cx="212" cy="165" r="4"/>
</g>

</g>

</svg>
