<?xml version="1.0" encoding="utf-8"?>
<!-- Created with Hypercube (http://tumic.wz.cz/hypercube) -->

<svg width="400" height="300" viewBox="0 0 400 300" xmlns="http://www.w3.org/2000/svg" baseProfile="tiny">

<g font-family="Helvetica" font-weight="normal">

<g>
	<polygon points="346,29 340,35 337,26" fill="#aaff00"/>
	<line x1="297" y1="42" x2="339" y2="30" stroke="#aaff00" stroke-width="2"/>
</g>
<g>
	<polygon points="189,92 196,87 197,96" fill="#aaff00"/>
	<line x1="253" y1="88" x2="196" y2="92" stroke="#aaff00" stroke-width="2"/>
</g>
<g>
	<polygon points="293,45 291,53 285,47" fill="#aaff00"/>
	<line x1="253" y1="88" x2="288" y2="50" stroke="#aaff00" stroke-width="2"/>
</g>
<g>
	<polygon points="222,128 223,119 230,124" fill="#aaff00"/>
	<line x1="253" y1="88" x2="227" y2="122" stroke="#aaff00" stroke-width="2"/>
</g>
<g>
	<polygon points="269,143 263,137 271,134" fill="#aaff00"/>
	<line x1="253" y1="88" x2="267" y2="136" stroke="#aaff00" stroke-width="2"/>
</g>
<g>
	<polygon points="194,170 189,163 197,162" fill="#aaff00"/>
	<line x1="185" y1="93" x2="193" y2="163" stroke="#aaff00" stroke-width="2"/>
</g>
<g>
	<polygon points="133,166 141,163 140,172" fill="#aaff00"/>
	<line x1="195" y1="175" x2="140" y2="167" stroke="#aaff00" stroke-width="2"/>
</g>
<g>
	<polygon points="234,217 226,215 232,208" fill="#aaff00"/>
	<line x1="195" y1="175" x2="230" y2="212" stroke="#aaff00" stroke-width="2"/>
</g>
<g>
	<polygon points="74,185 80,178 83,187" fill="#aaff00"/>
	<line x1="129" y1="166" x2="81" y2="183" stroke="#aaff00" stroke-width="2"/>
</g>
<g>
	<polygon points="68,191 70,200 61,197" fill="#aaff00"/>
	<line x1="51" y1="246" x2="66" y2="198" stroke="#aaff00" stroke-width="2"/>
</g>
<g>
	<polygon points="155,242 150,250 146,242" fill="#aaff00"/>
	<line x1="106" y1="272" x2="148" y2="246" stroke="#aaff00" stroke-width="2"/>
</g>
<g>
	<polygon points="55,247 64,247 60,255" fill="#aaff00"/>
	<line x1="106" y1="272" x2="61" y2="250" stroke="#aaff00" stroke-width="2"/>
</g>
<g>
	<polygon points="192,178 192,187 185,183" fill="#aaff00"/>
	<line x1="159" y1="240" x2="189" y2="185" stroke="#aaff00" stroke-width="2"/>
</g>
<g>
	<polygon points="197,171 197,162 205,166" fill="#aaff00"/>
	<line x1="220" y1="132" x2="200" y2="164" stroke="#aaff00" stroke-width="2"/>
</g>
<g>
	<polygon points="199,173 205,166 208,175" fill="#aaff00"/>
	<line x1="271" y1="148" x2="206" y2="171" stroke="#aaff00" stroke-width="2"/>
</g>

<g fill="#000000">
	<circle cx="350" cy="27" r="4"/>
</g>
<g fill="#000000">
	<circle cx="69" cy="186" r="4"/>
</g>
<g fill="#000000">
	<circle cx="194" cy="174" r="4"/>
</g>
<g fill="#000000">
	<circle cx="128" cy="165" r="4"/>
</g>
<g fill="#000000">
	<circle cx="237" cy="220" r="4"/>
</g>
<g fill="#000000">
	<circle cx="252" cy="87" r="4"/>
</g>
<g fill="#000000">
	<circle cx="184" cy="92" r="4"/>
</g>
<g fill="#000000">
	<circle cx="296" cy="41" r="4"/>
</g>
<g fill="#000000">
	<circle cx="219" cy="131" r="4"/>
</g>
<g fill="#000000">
	<circle cx="270" cy="147" r="4"/>
</g>
<g fill="#000000">
	<circle cx="105" cy="271" r="4"/>
</g>
<g fill="#000000">
	<circle cx="158" cy="239" r="4"/>
</g>
<g fill="#000000">
	<circle cx="50" cy="245" r="4"/>
</g>

</g>

</svg>
