<?xml version="1.0" encoding="utf-8"?>
<!-- Created with Hypercube (http://tumic.wz.cz/hypercube) -->

<svg width="400" height="300" viewBox="0 0 400 300" xmlns="http://www.w3.org/2000/svg" baseProfile="tiny">

<g font-family="Helvetica" font-weight="normal">

<g>
	<polygon points="125,66 133,62 132,71" fill="#aaff00"/>
	<line x1="234" y1="79" x2="132" y2="67" stroke="#aaff00" stroke-width="2"/>
</g>
<g>
	<polygon points="202,102 206,94 211,101" fill="#aaff00"/>
	<line x1="234" y1="79" x2="208" y2="98" stroke="#aaff00" stroke-width="2"/>
</g>
<g>
	<polygon points="293,102 284,103 288,95" fill="#aaff00"/>
	<line x1="234" y1="79" x2="287" y2="99" stroke="#aaff00" stroke-width="2"/>
</g>
<g>
	<polygon points="263,30 263,39 255,35" fill="#aaff00"/>
	<line x1="234" y1="79" x2="259" y2="36" stroke="#aaff00" stroke-width="2"/>
</g>
<g>
	<polygon points="205,167 203,158 212,161" fill="#aaff00"/>
	<line x1="234" y1="79" x2="207" y2="160" stroke="#aaff00" stroke-width="2"/>
</g>
<g>
	<polygon points="158,70 150,74 151,65" fill="#aaff00"/>
	<line x1="121" y1="66" x2="151" y2="69" stroke="#aaff00" stroke-width="2"/>
</g>
<g>
	<polygon points="127,163 122,156 131,155" fill="#aaff00"/>
	<line x1="121" y1="66" x2="127" y2="156" stroke="#aaff00" stroke-width="2"/>
</g>
<g>
	<polygon points="127,114 129,105 136,111" fill="#aaff00"/>
	<line x1="163" y1="71" x2="132" y2="108" stroke="#aaff00" stroke-width="2"/>
</g>
<g>
	<polygon points="127,163 122,155 131,155" fill="#aaff00"/>
	<line x1="125" y1="118" x2="127" y2="156" stroke="#aaff00" stroke-width="2"/>
</g>
<g>
	<polygon points="164,139 155,139 159,132" fill="#aaff00"/>
	<line x1="125" y1="118" x2="157" y2="136" stroke="#aaff00" stroke-width="2"/>
</g>
<g>
	<polygon points="199,171 191,175 191,166" fill="#aaff00"/>
	<line x1="128" y1="168" x2="192" y2="171" stroke="#aaff00" stroke-width="2"/>
</g>
<g>
	<polygon points="153,217 146,212 154,208" fill="#aaff00"/>
	<line x1="128" y1="168" x2="150" y2="210" stroke="#aaff00" stroke-width="2"/>
</g>
<g>
	<polygon points="105,223 104,214 112,218" fill="#aaff00"/>
	<line x1="128" y1="168" x2="108" y2="217" stroke="#aaff00" stroke-width="2"/>
</g>
<g>
	<polygon points="159,217 161,209 167,215" fill="#aaff00"/>
	<line x1="204" y1="172" x2="164" y2="212" stroke="#aaff00" stroke-width="2"/>
</g>
<g>
	<polygon points="132,269 132,260 140,264" fill="#aaff00"/>
	<line x1="156" y1="221" x2="135" y2="263" stroke="#aaff00" stroke-width="2"/>
</g>
<g>
	<polygon points="151,221 144,227 143,218" fill="#aaff00"/>
	<line x1="104" y1="228" x2="144" y2="222" stroke="#aaff00" stroke-width="2"/>
</g>
<g>
	<polygon points="128,270 120,265 128,261" fill="#aaff00"/>
	<line x1="104" y1="228" x2="125" y2="263" stroke="#aaff00" stroke-width="2"/>
</g>
<g>
	<polygon points="131,165 135,157 140,165" fill="#aaff00"/>
	<line x1="168" y1="142" x2="137" y2="161" stroke="#aaff00" stroke-width="2"/>
</g>
<g>
	<polygon points="200,169 191,167 197,160" fill="#aaff00"/>
	<line x1="168" y1="142" x2="195" y2="164" stroke="#aaff00" stroke-width="2"/>
</g>
<g>
	<polygon points="166,74 175,76 168,82" fill="#aaff00"/>
	<line x1="199" y1="105" x2="171" y2="79" stroke="#aaff00" stroke-width="2"/>
</g>
<g>
	<polygon points="170,138 172,129 179,135" fill="#aaff00"/>
	<line x1="199" y1="105" x2="175" y2="133" stroke="#aaff00" stroke-width="2"/>
</g>

<g fill="#000000">
	<circle cx="233" cy="78" r="4"/>
</g>
<g fill="#000000">
	<circle cx="120" cy="65" r="4"/>
</g>
<g fill="#000000">
	<circle cx="198" cy="104" r="4"/>
</g>
<g fill="#000000">
	<circle cx="297" cy="103" r="4"/>
</g>
<g fill="#000000">
	<circle cx="265" cy="26" r="4"/>
</g>
<g fill="#000000">
	<circle cx="162" cy="70" r="4"/>
</g>
<g fill="#000000">
	<circle cx="127" cy="167" r="4"/>
</g>
<g fill="#000000">
	<circle cx="124" cy="117" r="4"/>
</g>
<g fill="#000000">
	<circle cx="167" cy="141" r="4"/>
</g>
<g fill="#000000">
	<circle cx="203" cy="171" r="4"/>
</g>
<g fill="#000000">
	<circle cx="155" cy="220" r="4"/>
</g>
<g fill="#000000">
	<circle cx="103" cy="227" r="4"/>
</g>
<g fill="#000000">
	<circle cx="130" cy="273" r="4"/>
</g>

</g>

</svg>
