<?xml version="1.0" encoding="utf-8"?>
<!-- Created with Hypercube (http://tumic.wz.cz/hypercube) -->

<svg width="400" height="300" viewBox="0 0 400 300" xmlns="http://www.w3.org/2000/svg" baseProfile="tiny">

<g font-family="Helvetica" font-weight="normal">

<g>
	<polygon points="107,137 114,131 115,140" fill="#aaff00"/>
	<line x1="189" y1="122" x2="114" y2="135" stroke="#aaff00" stroke-width="2"/>
</g>
<g>
	<polygon points="224,135 215,136 219,128" fill="#aaff00"/>
	<line x1="189" y1="122" x2="218" y2="132" stroke="#aaff00" stroke-width="2"/>
</g>
<g>
	<polygon points="158,138 163,131 167,138" fill="#aaff00"/>
	<line x1="189" y1="122" x2="165" y2="135" stroke="#aaff00" stroke-width="2"/>
</g>
<g>
	<polygon points="242,111 235,117 234,108" fill="#aaff00"/>
	<line x1="103" y1="138" x2="235" y2="113" stroke="#aaff00" stroke-width="2"/>
</g>
<g>
	<polygon points="163,162 154,163 158,155" fill="#aaff00"/>
	<line x1="103" y1="138" x2="157" y2="159" stroke="#aaff00" stroke-width="2"/>
</g>
<g>
	<polygon points="192,184 183,185 187,177" fill="#aaff00"/>
	<line x1="103" y1="138" x2="185" y2="181" stroke="#aaff00" stroke-width="2"/>
</g>
<g>
	<polygon points="125,133 118,139 117,130" fill="#aaff00"/>
	<line x1="103" y1="138" x2="118" y2="135" stroke="#aaff00" stroke-width="2"/>
</g>
<g>
	<polygon points="167,224 159,220 166,215" fill="#aaff00"/>
	<line x1="103" y1="138" x2="163" y2="218" stroke="#aaff00" stroke-width="2"/>
</g>
<g>
	<polygon points="178,205 169,204 175,197" fill="#aaff00"/>
	<line x1="103" y1="138" x2="173" y2="201" stroke="#aaff00" stroke-width="2"/>
</g>
<g>
	<polygon points="295,75 291,83 286,76" fill="#aaff00"/>
	<line x1="247" y1="111" x2="289" y2="79" stroke="#aaff00" stroke-width="2"/>
</g>
<g>
	<polygon points="244,114 243,123 236,118" fill="#aaff00"/>
	<line x1="229" y1="137" x2="240" y2="120" stroke="#aaff00" stroke-width="2"/>
</g>
<g>
	<polygon points="172,162 177,154 181,163" fill="#aaff00"/>
	<line x1="229" y1="137" x2="178" y2="159" stroke="#aaff00" stroke-width="2"/>
</g>
<g>
	<polygon points="198,183 199,174 206,179" fill="#aaff00"/>
	<line x1="229" y1="137" x2="202" y2="177" stroke="#aaff00" stroke-width="2"/>
</g>
<g>
	<polygon points="134,133 142,129 142,137" fill="#aaff00"/>
	<line x1="229" y1="137" x2="141" y2="133" stroke="#aaff00" stroke-width="2"/>
</g>
<g>
	<polygon points="172,224 172,215 180,220" fill="#aaff00"/>
	<line x1="229" y1="137" x2="176" y2="218" stroke="#aaff00" stroke-width="2"/>
</g>
<g>
	<polygon points="184,205 184,196 192,201" fill="#aaff00"/>
	<line x1="229" y1="137" x2="188" y2="199" stroke="#aaff00" stroke-width="2"/>
</g>
<g>
	<polygon points="195,152 200,144 204,153" fill="#aaff00"/>
	<line x1="229" y1="137" x2="201" y2="149" stroke="#aaff00" stroke-width="2"/>
</g>
<g>
	<polygon points="216,155 217,146 224,151" fill="#aaff00"/>
	<line x1="229" y1="137" x2="220" y2="149" stroke="#aaff00" stroke-width="2"/>
</g>
<g>
	<polygon points="243,113 239,121 234,114" fill="#aaff00"/>
	<line x1="168" y1="164" x2="237" y2="117" stroke="#aaff00" stroke-width="2"/>
</g>
<g>
	<polygon points="192,184 183,182 189,175" fill="#aaff00"/>
	<line x1="168" y1="164" x2="186" y2="179" stroke="#aaff00" stroke-width="2"/>
</g>
<g>
	<polygon points="133,135 142,137 136,144" fill="#aaff00"/>
	<line x1="168" y1="164" x2="139" y2="140" stroke="#aaff00" stroke-width="2"/>
</g>
<g>
	<polygon points="169,223 165,215 174,215" fill="#aaff00"/>
	<line x1="168" y1="164" x2="169" y2="216" stroke="#aaff00" stroke-width="2"/>
</g>
<g>
	<polygon points="180,204 174,198 182,195" fill="#aaff00"/>
	<line x1="168" y1="164" x2="178" y2="197" stroke="#aaff00" stroke-width="2"/>
</g>
<g>
	<polygon points="186,155 181,163 177,154" fill="#aaff00"/>
	<line x1="168" y1="164" x2="180" y2="158" stroke="#aaff00" stroke-width="2"/>
</g>
<g>
	<polygon points="209,159 202,164 201,155" fill="#aaff00"/>
	<line x1="168" y1="164" x2="202" y2="160" stroke="#aaff00" stroke-width="2"/>
</g>
<g>
	<polygon points="244,114 243,123 236,118" fill="#aaff00"/>
	<line x1="196" y1="187" x2="240" y2="120" stroke="#aaff00" stroke-width="2"/>
</g>
<g>
	<polygon points="133,135 142,137 136,144" fill="#aaff00"/>
	<line x1="196" y1="187" x2="139" y2="140" stroke="#aaff00" stroke-width="2"/>
</g>
<g>
	<polygon points="172,224 172,215 180,220" fill="#aaff00"/>
	<line x1="196" y1="187" x2="176" y2="218" stroke="#aaff00" stroke-width="2"/>
</g>
<g>
	<polygon points="184,205 184,196 192,201" fill="#aaff00"/>
	<line x1="196" y1="187" x2="188" y2="199" stroke="#aaff00" stroke-width="2"/>
</g>
<g>
	<polygon points="191,158 197,165 188,166" fill="#aaff00"/>
	<line x1="196" y1="187" x2="192" y2="165" stroke="#aaff00" stroke-width="2"/>
</g>
<g>
	<polygon points="211,162 211,171 203,166" fill="#aaff00"/>
	<line x1="196" y1="187" x2="207" y2="168" stroke="#aaff00" stroke-width="2"/>
</g>
<g>
	<polygon points="242,111 235,117 234,108" fill="#aaff00"/>
	<line x1="130" y1="133" x2="235" y2="113" stroke="#aaff00" stroke-width="2"/>
</g>
<g>
	<polygon points="168,223 161,218 169,214" fill="#aaff00"/>
	<line x1="130" y1="133" x2="165" y2="217" stroke="#aaff00" stroke-width="2"/>
</g>
<g>
	<polygon points="179,205 171,201 178,196" fill="#aaff00"/>
	<line x1="130" y1="133" x2="175" y2="199" stroke="#aaff00" stroke-width="2"/>
</g>
<g>
	<polygon points="209,157 200,159 203,151" fill="#aaff00"/>
	<line x1="130" y1="133" x2="202" y2="155" stroke="#aaff00" stroke-width="2"/>
</g>
<g>
	<polygon points="244,114 244,123 236,118" fill="#aaff00"/>
	<line x1="170" y1="228" x2="240" y2="120" stroke="#aaff00" stroke-width="2"/>
</g>
<g>
	<polygon points="179,212 179,221 171,216" fill="#aaff00"/>
	<line x1="170" y1="228" x2="175" y2="218" stroke="#aaff00" stroke-width="2"/>
</g>
<g>
	<polygon points="211,162 211,171 203,166" fill="#aaff00"/>
	<line x1="170" y1="228" x2="207" y2="168" stroke="#aaff00" stroke-width="2"/>
</g>
<g>
	<polygon points="211,162 211,171 203,166" fill="#aaff00"/>
	<line x1="182" y1="209" x2="207" y2="168" stroke="#aaff00" stroke-width="2"/>
</g>
<g>
	<polygon points="244,114 243,123 236,118" fill="#aaff00"/>
	<line x1="214" y1="159" x2="240" y2="120" stroke="#aaff00" stroke-width="2"/>
</g>
<g>
	<polygon points="242,112 236,119 233,110" fill="#aaff00"/>
	<line x1="155" y1="141" x2="235" y2="114" stroke="#aaff00" stroke-width="2"/>
</g>
<g>
	<polygon points="165,160 158,155 165,151" fill="#aaff00"/>
	<line x1="155" y1="141" x2="162" y2="153" stroke="#aaff00" stroke-width="2"/>
</g>
<g>
	<polygon points="134,134 143,132 140,141" fill="#aaff00"/>
	<line x1="155" y1="141" x2="141" y2="136" stroke="#aaff00" stroke-width="2"/>
</g>
<g>
	<polygon points="169,223 163,216 172,215" fill="#aaff00"/>
	<line x1="155" y1="141" x2="168" y2="216" stroke="#aaff00" stroke-width="2"/>
</g>
<g>
	<polygon points="186,152 177,154 180,145" fill="#aaff00"/>
	<line x1="155" y1="141" x2="180" y2="150" stroke="#aaff00" stroke-width="2"/>
</g>
<g>
	<polygon points="209,157 200,159 203,151" fill="#aaff00"/>
	<line x1="155" y1="141" x2="202" y2="155" stroke="#aaff00" stroke-width="2"/>
</g>
<g>
	<polygon points="243,113 239,122 234,114" fill="#aaff00"/>
	<line x1="191" y1="154" x2="237" y2="118" stroke="#aaff00" stroke-width="2"/>
</g>
<g>
	<polygon points="134,134 143,132 140,141" fill="#aaff00"/>
	<line x1="191" y1="154" x2="141" y2="136" stroke="#aaff00" stroke-width="2"/>
</g>
<g>
	<polygon points="171,223 169,214 177,217" fill="#aaff00"/>
	<line x1="191" y1="154" x2="173" y2="216" stroke="#aaff00" stroke-width="2"/>
</g>
<g>
	<polygon points="182,204 179,196 188,197" fill="#aaff00"/>
	<line x1="191" y1="154" x2="183" y2="197" stroke="#aaff00" stroke-width="2"/>
</g>
<g>
	<polygon points="209,158 201,160 202,151" fill="#aaff00"/>
	<line x1="191" y1="154" x2="202" y2="156" stroke="#aaff00" stroke-width="2"/>
</g>

<g fill="#000000">
	<circle cx="188" cy="121" r="4"/>
</g>
<g fill="#000000">
	<circle cx="102" cy="137" r="4"/>
</g>
<g fill="#000000">
	<circle cx="228" cy="136" r="4"/>
</g>
<g fill="#000000">
	<circle cx="154" cy="140" r="4"/>
</g>
<g fill="#000000">
	<circle cx="298" cy="72" r="4"/>
</g>
<g fill="#000000">
	<circle cx="246" cy="110" r="4"/>
</g>
<g fill="#000000">
	<circle cx="167" cy="163" r="4"/>
</g>
<g fill="#000000">
	<circle cx="195" cy="186" r="4"/>
</g>
<g fill="#000000">
	<circle cx="129" cy="132" r="4"/>
</g>
<g fill="#000000">
	<circle cx="169" cy="227" r="4"/>
</g>
<g fill="#000000">
	<circle cx="181" cy="208" r="4"/>
</g>
<g fill="#000000">
	<circle cx="190" cy="153" r="4"/>
</g>
<g fill="#000000">
	<circle cx="213" cy="158" r="4"/>
</g>

</g>

</svg>
