<?xml version="1.0" encoding="utf-8"?>
<!-- Created with Hypercube (http://tumic.wz.cz/hypercube) -->

<svg width="400" height="300" viewBox="0 0 400 300" xmlns="http://www.w3.org/2000/svg" baseProfile="tiny">

<g font-family="Helvetica" font-weight="normal">

<g>
	<polygon points="110,87 103,92 102,83" fill="#aaff00"/>
	<line x1="69" y1="90" x2="103" y2="87" stroke="#aaff00" stroke-width="2"/>
</g>
<g>
	<polygon points="152,132 143,133 147,125" fill="#aaff00"/>
	<line x1="69" y1="90" x2="145" y2="129" stroke="#aaff00" stroke-width="2"/>
</g>
<g>
	<polygon points="153,131 144,128 151,122" fill="#aaff00"/>
	<line x1="115" y1="87" x2="148" y2="126" stroke="#aaff00" stroke-width="2"/>
</g>
<g>
	<polygon points="121,179 116,172 125,171" fill="#aaff00"/>
	<line x1="115" y1="87" x2="121" y2="172" stroke="#aaff00" stroke-width="2"/>
</g>
<g>
	<polygon points="193,67 187,73 184,64" fill="#aaff00"/>
	<line x1="115" y1="87" x2="186" y2="68" stroke="#aaff00" stroke-width="2"/>
</g>
<g>
	<polygon points="172,99 164,101 165,93" fill="#aaff00"/>
	<line x1="115" y1="87" x2="165" y2="97" stroke="#aaff00" stroke-width="2"/>
</g>
<g>
	<polygon points="146,79 140,85 137,76" fill="#aaff00"/>
	<line x1="115" y1="87" x2="139" y2="80" stroke="#aaff00" stroke-width="2"/>
</g>
<g>
	<polygon points="118,135 113,128 122,127" fill="#aaff00"/>
	<line x1="115" y1="87" x2="118" y2="128" stroke="#aaff00" stroke-width="2"/>
</g>
<g>
	<polygon points="124,180 125,171 132,176" fill="#aaff00"/>
	<line x1="156" y1="135" x2="128" y2="174" stroke="#aaff00" stroke-width="2"/>
</g>
<g>
	<polygon points="195,69 195,78 187,74" fill="#aaff00"/>
	<line x1="156" y1="135" x2="191" y2="75" stroke="#aaff00" stroke-width="2"/>
</g>
<g>
	<polygon points="174,103 174,112 166,108" fill="#aaff00"/>
	<line x1="156" y1="135" x2="170" y2="110" stroke="#aaff00" stroke-width="2"/>
</g>
<g>
	<polygon points="151,82 156,89 147,90" fill="#aaff00"/>
	<line x1="156" y1="135" x2="152" y2="89" stroke="#aaff00" stroke-width="2"/>
</g>
<g>
	<polygon points="123,139 130,133 131,142" fill="#aaff00"/>
	<line x1="156" y1="135" x2="130" y2="138" stroke="#aaff00" stroke-width="2"/>
</g>
<g>
	<polygon points="165,232 157,229 164,223" fill="#aaff00"/>
	<line x1="122" y1="184" x2="161" y2="227" stroke="#aaff00" stroke-width="2"/>
</g>
<g>
	<polygon points="191,150 186,158 182,150" fill="#aaff00"/>
	<line x1="122" y1="184" x2="185" y2="153" stroke="#aaff00" stroke-width="2"/>
</g>
<g>
	<polygon points="197,70 202,78 193,78" fill="#aaff00"/>
	<line x1="196" y1="149" x2="197" y2="77" stroke="#aaff00" stroke-width="2"/>
</g>
<g>
	<polygon points="178,104 185,109 177,113" fill="#aaff00"/>
	<line x1="196" y1="149" x2="181" y2="110" stroke="#aaff00" stroke-width="2"/>
</g>
<g>
	<polygon points="123,140 131,136 130,145" fill="#aaff00"/>
	<line x1="196" y1="149" x2="130" y2="141" stroke="#aaff00" stroke-width="2"/>
</g>
<g>
	<polygon points="179,96 179,87 187,91" fill="#aaff00"/>
	<line x1="198" y1="66" x2="183" y2="90" stroke="#aaff00" stroke-width="2"/>
</g>
<g>
	<polygon points="155,76 161,70 164,79" fill="#aaff00"/>
	<line x1="198" y1="66" x2="162" y2="75" stroke="#aaff00" stroke-width="2"/>
</g>
<g>
	<polygon points="154,80 163,82 157,89" fill="#aaff00"/>
	<line x1="177" y1="100" x2="159" y2="85" stroke="#aaff00" stroke-width="2"/>
</g>
<g>
	<polygon points="56,164 61,157 65,165" fill="#aaff00"/>
	<line x1="119" y1="140" x2="62" y2="161" stroke="#aaff00" stroke-width="2"/>
</g>
<g>
	<polygon points="291,236 283,240 283,231" fill="#aaff00"/>
	<line x1="232" y1="236" x2="284" y2="236" stroke="#aaff00" stroke-width="2"/>
</g>
<g>
	<polygon points="345,236 337,240 337,231" fill="#aaff00"/>
	<line x1="296" y1="236" x2="338" y2="236" stroke="#aaff00" stroke-width="2"/>
</g>
<g>
	<polygon points="227,236 219,240 219,231" fill="#aaff00"/>
	<line x1="169" y1="236" x2="220" y2="236" stroke="#aaff00" stroke-width="2"/>
</g>

<g fill="#000000">
	<circle cx="68" cy="89" r="4"/>
</g>
<g fill="#000000">
	<circle cx="114" cy="86" r="4"/>
</g>
<g fill="#000000">
	<circle cx="155" cy="134" r="4"/>
</g>
<g fill="#000000">
	<circle cx="121" cy="183" r="4"/>
</g>
<g fill="#000000">
	<circle cx="197" cy="65" r="4"/>
</g>
<g fill="#000000">
	<circle cx="176" cy="99" r="4"/>
</g>
<g fill="#000000">
	<circle cx="150" cy="77" r="4"/>
</g>
<g fill="#000000">
	<circle cx="118" cy="139" r="4"/>
</g>
<g fill="#000000">
	<circle cx="231" cy="235" r="4"/>
</g>
<g fill="#000000">
	<circle cx="295" cy="235" r="4"/>
</g>
<g fill="#000000">
	<circle cx="349" cy="235" r="4"/>
</g>
<g fill="#000000">
	<circle cx="168" cy="235" r="4"/>
</g>
<g fill="#000000">
	<circle cx="195" cy="148" r="4"/>
</g>
<g fill="#000000">
	<circle cx="51" cy="165" r="4"/>
</g>

</g>

</svg>
