<?xml version="1.0" encoding="utf-8"?>
<!-- Created with Hypercube (http://tumic.wz.cz/hypercube) -->

<svg width="400" height="300" viewBox="0 0 400 300" xmlns="http://www.w3.org/2000/svg" baseProfile="tiny">

<g font-family="Helvetica" font-weight="normal">

<g>
	<polygon points="174,113 182,110 181,119" fill="#aaff00"/>
	<line x1="246" y1="123" x2="181" y2="114" stroke="#aaff00" stroke-width="2"/>
</g>
<g>
	<polygon points="301,145 292,146 296,138" fill="#aaff00"/>
	<line x1="246" y1="123" x2="295" y2="142" stroke="#aaff00" stroke-width="2"/>
</g>
<g>
	<polygon points="285,96 281,104 276,97" fill="#aaff00"/>
	<line x1="246" y1="123" x2="279" y2="100" stroke="#aaff00" stroke-width="2"/>
</g>
<g>
	<polygon points="107,181 108,172 115,178" fill="#aaff00"/>
	<line x1="170" y1="113" x2="111" y2="176" stroke="#aaff00" stroke-width="2"/>
</g>
<g>
	<polygon points="194,56 195,65 187,61" fill="#aaff00"/>
	<line x1="170" y1="113" x2="191" y2="62" stroke="#aaff00" stroke-width="2"/>
</g>
<g>
	<polygon points="131,70 139,73 132,79" fill="#aaff00"/>
	<line x1="170" y1="113" x2="135" y2="75" stroke="#aaff00" stroke-width="2"/>
</g>
<g>
	<polygon points="290,98 297,104 288,107" fill="#aaff00"/>
	<line x1="306" y1="147" x2="292" y2="105" stroke="#aaff00" stroke-width="2"/>
</g>
<g>
	<polygon points="318,201 312,195 321,192" fill="#aaff00"/>
	<line x1="306" y1="147" x2="317" y2="194" stroke="#aaff00" stroke-width="2"/>
</g>
<g>
	<polygon points="360,139 353,145 352,136" fill="#aaff00"/>
	<line x1="306" y1="147" x2="353" y2="140" stroke="#aaff00" stroke-width="2"/>
</g>
<g>
	<polygon points="66,233 67,224 75,229" fill="#aaff00"/>
	<line x1="104" y1="185" x2="71" y2="227" stroke="#aaff00" stroke-width="2"/>
</g>
<g>
	<polygon points="40,178 48,174 47,183" fill="#aaff00"/>
	<line x1="104" y1="185" x2="47" y2="179" stroke="#aaff00" stroke-width="2"/>
</g>
<g>
	<polygon points="157,196 149,198 150,190" fill="#aaff00"/>
	<line x1="104" y1="185" x2="150" y2="194" stroke="#aaff00" stroke-width="2"/>
</g>
<g>
	<polygon points="79,135 87,140 79,144" fill="#aaff00"/>
	<line x1="104" y1="185" x2="83" y2="141" stroke="#aaff00" stroke-width="2"/>
</g>
<g>
	<polygon points="126,244 119,239 127,235" fill="#aaff00"/>
	<line x1="104" y1="185" x2="123" y2="238" stroke="#aaff00" stroke-width="2"/>
</g>

<g fill="#000000">
	<circle cx="245" cy="122" r="4"/>
</g>
<g fill="#000000">
	<circle cx="169" cy="112" r="4"/>
</g>
<g fill="#000000">
	<circle cx="305" cy="146" r="4"/>
</g>
<g fill="#000000">
	<circle cx="288" cy="93" r="4"/>
</g>
<g fill="#000000">
	<circle cx="103" cy="184" r="4"/>
</g>
<g fill="#000000">
	<circle cx="195" cy="51" r="4"/>
</g>
<g fill="#000000">
	<circle cx="127" cy="66" r="4"/>
</g>
<g fill="#000000">
	<circle cx="319" cy="205" r="4"/>
</g>
<g fill="#000000">
	<circle cx="364" cy="138" r="4"/>
</g>
<g fill="#000000">
	<circle cx="63" cy="236" r="4"/>
</g>
<g fill="#000000">
	<circle cx="35" cy="177" r="4"/>
</g>
<g fill="#000000">
	<circle cx="161" cy="196" r="4"/>
</g>
<g fill="#000000">
	<circle cx="77" cy="130" r="4"/>
</g>
<g fill="#000000">
	<circle cx="127" cy="248" r="4"/>
</g>

</g>

</svg>
