<?xml version="1.0" encoding="utf-8"?>
<!-- Created with Hypercube (http://tumic.wz.cz/hypercube) -->

<svg width="400" height="300" viewBox="0 0 400 300" xmlns="http://www.w3.org/2000/svg" baseProfile="tiny">

<g font-family="Helvetica" font-weight="normal">

<g>
	<polygon points="224,140 232,135 232,144" fill="#aaff00"/>
	<line x1="303" y1="140" x2="231" y2="140" stroke="#aaff00" stroke-width="2"/>
</g>
<g>
	<polygon points="279,188 279,179 287,183" fill="#aaff00"/>
	<line x1="303" y1="140" x2="282" y2="182" stroke="#aaff00" stroke-width="2"/>
</g>
<g>
	<polygon points="274,189 265,188 271,181" fill="#aaff00"/>
	<line x1="220" y1="140" x2="269" y2="185" stroke="#aaff00" stroke-width="2"/>
</g>
<g>
	<polygon points="187,220 186,211 194,215" fill="#aaff00"/>
	<line x1="220" y1="140" x2="190" y2="214" stroke="#aaff00" stroke-width="2"/>
</g>
<g>
	<polygon points="222,170 217,163 226,162" fill="#aaff00"/>
	<line x1="220" y1="140" x2="222" y2="163" stroke="#aaff00" stroke-width="2"/>
</g>
<g>
	<polygon points="225,206 220,199 229,198" fill="#aaff00"/>
	<line x1="220" y1="140" x2="225" y2="199" stroke="#aaff00" stroke-width="2"/>
</g>
<g>
	<polygon points="251,168 242,167 248,160" fill="#aaff00"/>
	<line x1="220" y1="140" x2="246" y2="164" stroke="#aaff00" stroke-width="2"/>
</g>
<g>
	<polygon points="238,104 239,113 231,109" fill="#aaff00"/>
	<line x1="220" y1="140" x2="235" y2="111" stroke="#aaff00" stroke-width="2"/>
</g>
<g>
	<polygon points="181,151 187,145 190,153" fill="#aaff00"/>
	<line x1="220" y1="140" x2="188" y2="149" stroke="#aaff00" stroke-width="2"/>
</g>
<g>
	<polygon points="190,223 196,216 199,225" fill="#aaff00"/>
	<line x1="278" y1="193" x2="197" y2="221" stroke="#aaff00" stroke-width="2"/>
</g>
<g>
	<polygon points="227,176 236,174 233,183" fill="#aaff00"/>
	<line x1="278" y1="193" x2="234" y2="178" stroke="#aaff00" stroke-width="2"/>
</g>
<g>
	<polygon points="230,209 236,202 239,211" fill="#aaff00"/>
	<line x1="278" y1="193" x2="237" y2="207" stroke="#aaff00" stroke-width="2"/>
</g>
<g>
	<polygon points="258,175 267,176 261,183" fill="#aaff00"/>
	<line x1="278" y1="193" x2="263" y2="179" stroke="#aaff00" stroke-width="2"/>
</g>
<g>
	<polygon points="242,105 249,110 241,114" fill="#aaff00"/>
	<line x1="278" y1="193" x2="245" y2="111" stroke="#aaff00" stroke-width="2"/>
</g>
<g>
	<polygon points="177,157 182,164 174,165" fill="#aaff00"/>
	<line x1="186" y1="225" x2="178" y2="164" stroke="#aaff00" stroke-width="2"/>
</g>
<g>
	<polygon points="147,259 150,250 156,257" fill="#aaff00"/>
	<line x1="186" y1="225" x2="152" y2="254" stroke="#aaff00" stroke-width="2"/>
</g>
<g>
	<polygon points="218,173 209,173 213,165" fill="#aaff00"/>
	<line x1="177" y1="153" x2="212" y2="169" stroke="#aaff00" stroke-width="2"/>
</g>
<g>
	<polygon points="237,103 234,112 228,105" fill="#aaff00"/>
	<line x1="177" y1="153" x2="231" y2="108" stroke="#aaff00" stroke-width="2"/>
</g>
<g>
	<polygon points="225,206 220,199 229,198" fill="#aaff00"/>
	<line x1="223" y1="175" x2="225" y2="199" stroke="#aaff00" stroke-width="2"/>
</g>
<g>
	<polygon points="250,172 243,177 242,168" fill="#aaff00"/>
	<line x1="223" y1="175" x2="243" y2="173" stroke="#aaff00" stroke-width="2"/>
</g>
<g>
	<polygon points="252,175 251,184 244,179" fill="#aaff00"/>
	<line x1="226" y1="211" x2="248" y2="181" stroke="#aaff00" stroke-width="2"/>
</g>
<g>
	<polygon points="254,44 257,53 248,50" fill="#aaff00"/>
	<line x1="241" y1="101" x2="253" y2="51" stroke="#aaff00" stroke-width="2"/>
</g>
<g>
	<polygon points="98,174 102,182 93,182" fill="#aaff00"/>
	<line x1="98" y1="229" x2="98" y2="181" stroke="#aaff00" stroke-width="2"/>
</g>
<g>
	<polygon points="98,116 102,124 93,124" fill="#aaff00"/>
	<line x1="98" y1="170" x2="98" y2="123" stroke="#aaff00" stroke-width="2"/>
</g>
<g>
	<polygon points="101,231 110,232 105,239" fill="#aaff00"/>
	<line x1="144" y1="262" x2="107" y2="235" stroke="#aaff00" stroke-width="2"/>
</g>

<g fill="#000000">
	<circle cx="302" cy="139" r="4"/>
</g>
<g fill="#000000">
	<circle cx="219" cy="139" r="4"/>
</g>
<g fill="#000000">
	<circle cx="277" cy="192" r="4"/>
</g>
<g fill="#000000">
	<circle cx="185" cy="224" r="4"/>
</g>
<g fill="#000000">
	<circle cx="222" cy="174" r="4"/>
</g>
<g fill="#000000">
	<circle cx="225" cy="210" r="4"/>
</g>
<g fill="#000000">
	<circle cx="254" cy="171" r="4"/>
</g>
<g fill="#000000">
	<circle cx="240" cy="100" r="4"/>
</g>
<g fill="#000000">
	<circle cx="176" cy="152" r="4"/>
</g>
<g fill="#000000">
	<circle cx="143" cy="261" r="4"/>
</g>
<g fill="#000000">
	<circle cx="97" cy="228" r="4"/>
</g>
<g fill="#000000">
	<circle cx="97" cy="169" r="4"/>
</g>
<g fill="#000000">
	<circle cx="97" cy="111" r="4"/>
</g>
<g fill="#000000">
	<circle cx="255" cy="39" r="4"/>
</g>

</g>

</svg>
