<?xml version="1.0" encoding="utf-8"?>
<!-- Created with Hypercube (http://tumic.wz.cz/hypercube) -->

<svg width="400" height="300" viewBox="0 0 400 300" xmlns="http://www.w3.org/2000/svg" baseProfile="tiny">

<g font-family="Helvetica" font-weight="normal">

<g>
	<polygon points="106,134 115,134 111,142" fill="#aaff00"/>
	<line x1="139" y1="150" x2="112" y2="137" stroke="#aaff00" stroke-width="2"/>
</g>
<g>
	<polygon points="154,126 153,135 146,130" fill="#aaff00"/>
	<line x1="139" y1="150" x2="150" y2="132" stroke="#aaff00" stroke-width="2"/>
</g>
<g>
	<polygon points="152,123 145,129 144,120" fill="#aaff00"/>
	<line x1="102" y1="133" x2="145" y2="125" stroke="#aaff00" stroke-width="2"/>
</g>
<g>
	<polygon points="116,177 109,171 118,168" fill="#aaff00"/>
	<line x1="102" y1="133" x2="114" y2="170" stroke="#aaff00" stroke-width="2"/>
</g>
<g>
	<polygon points="78,99 86,103 79,108" fill="#aaff00"/>
	<line x1="102" y1="133" x2="82" y2="105" stroke="#aaff00" stroke-width="2"/>
</g>
<g>
	<polygon points="148,73 147,82 139,76" fill="#aaff00"/>
	<line x1="102" y1="133" x2="143" y2="79" stroke="#aaff00" stroke-width="2"/>
</g>
<g>
	<polygon points="112,87 115,96 106,93" fill="#aaff00"/>
	<line x1="102" y1="133" x2="111" y2="94" stroke="#aaff00" stroke-width="2"/>
</g>
<g>
	<polygon points="95,212 91,204 100,205" fill="#aaff00"/>
	<line x1="102" y1="133" x2="95" y2="205" stroke="#aaff00" stroke-width="2"/>
</g>
<g>
	<polygon points="65,159 69,151 74,158" fill="#aaff00"/>
	<line x1="102" y1="133" x2="71" y2="155" stroke="#aaff00" stroke-width="2"/>
</g>
<g>
	<polygon points="120,178 121,169 128,174" fill="#aaff00"/>
	<line x1="157" y1="123" x2="124" y2="172" stroke="#aaff00" stroke-width="2"/>
</g>
<g>
	<polygon points="80,97 89,95 86,104" fill="#aaff00"/>
	<line x1="157" y1="123" x2="87" y2="99" stroke="#aaff00" stroke-width="2"/>
</g>
<g>
	<polygon points="151,74 156,81 147,82" fill="#aaff00"/>
	<line x1="157" y1="123" x2="152" y2="81" stroke="#aaff00" stroke-width="2"/>
</g>
<g>
	<polygon points="117,86 126,88 119,94" fill="#aaff00"/>
	<line x1="157" y1="123" x2="122" y2="90" stroke="#aaff00" stroke-width="2"/>
</g>
<g>
	<polygon points="97,213 98,204 105,209" fill="#aaff00"/>
	<line x1="157" y1="123" x2="101" y2="207" stroke="#aaff00" stroke-width="2"/>
</g>
<g>
	<polygon points="66,163 75,161 72,170" fill="#aaff00"/>
	<line x1="118" y1="182" x2="73" y2="165" stroke="#aaff00" stroke-width="2"/>
</g>
<g>
	<polygon points="184,220 175,220 179,212" fill="#aaff00"/>
	<line x1="118" y1="182" x2="177" y2="217" stroke="#aaff00" stroke-width="2"/>
</g>
<g>
	<polygon points="75,100 77,108 69,107" fill="#aaff00"/>
	<line x1="62" y1="162" x2="73" y2="107" stroke="#aaff00" stroke-width="2"/>
</g>
<g>
	<polygon points="92,213 84,208 92,204" fill="#aaff00"/>
	<line x1="62" y1="162" x2="88" y2="206" stroke="#aaff00" stroke-width="2"/>
</g>
<g>
	<polygon points="146,71 140,78 137,69" fill="#aaff00"/>
	<line x1="76" y1="96" x2="139" y2="73" stroke="#aaff00" stroke-width="2"/>
</g>
<g>
	<polygon points="109,84 103,91 100,82" fill="#aaff00"/>
	<line x1="76" y1="96" x2="102" y2="86" stroke="#aaff00" stroke-width="2"/>
</g>
<g>
	<polygon points="118,81 124,74 127,83" fill="#aaff00"/>
	<line x1="151" y1="70" x2="125" y2="79" stroke="#aaff00" stroke-width="2"/>
</g>
<g>
	<polygon points="40,230 46,224 49,233" fill="#aaff00"/>
	<line x1="95" y1="217" x2="47" y2="229" stroke="#aaff00" stroke-width="2"/>
</g>
<g>
	<polygon points="304,231 296,236 296,227" fill="#aaff00"/>
	<line x1="254" y1="230" x2="297" y2="231" stroke="#aaff00" stroke-width="2"/>
</g>
<g>
	<polygon points="359,224 352,230 351,221" fill="#aaff00"/>
	<line x1="309" y1="232" x2="352" y2="225" stroke="#aaff00" stroke-width="2"/>
</g>
<g>
	<polygon points="249,229 241,233 242,224" fill="#aaff00"/>
	<line x1="188" y1="223" x2="242" y2="228" stroke="#aaff00" stroke-width="2"/>
</g>

<g fill="#000000">
	<circle cx="138" cy="149" r="4"/>
</g>
<g fill="#000000">
	<circle cx="101" cy="132" r="4"/>
</g>
<g fill="#000000">
	<circle cx="156" cy="122" r="4"/>
</g>
<g fill="#000000">
	<circle cx="117" cy="181" r="4"/>
</g>
<g fill="#000000">
	<circle cx="75" cy="95" r="4"/>
</g>
<g fill="#000000">
	<circle cx="150" cy="69" r="4"/>
</g>
<g fill="#000000">
	<circle cx="113" cy="82" r="4"/>
</g>
<g fill="#000000">
	<circle cx="94" cy="216" r="4"/>
</g>
<g fill="#000000">
	<circle cx="61" cy="161" r="4"/>
</g>
<g fill="#000000">
	<circle cx="253" cy="229" r="4"/>
</g>
<g fill="#000000">
	<circle cx="308" cy="231" r="4"/>
</g>
<g fill="#000000">
	<circle cx="363" cy="223" r="4"/>
</g>
<g fill="#000000">
	<circle cx="187" cy="222" r="4"/>
</g>
<g fill="#000000">
	<circle cx="35" cy="231" r="4"/>
</g>

</g>

</svg>
