<?xml version="1.0" encoding="utf-8"?>
<!-- Created with Hypercube (http://tumic.wz.cz/hypercube) -->

<svg width="400" height="300" viewBox="0 0 400 300" xmlns="http://www.w3.org/2000/svg" baseProfile="tiny">

<g font-family="Helvetica" font-weight="normal">

<g>
	<polygon points="273,125 266,120 274,116" fill="#aaff00"/>
	<line x1="254" y1="75" x2="270" y2="119" stroke="#aaff00" stroke-width="2"/>
</g>
<g>
	<polygon points="258,76 267,73 264,82" fill="#aaff00"/>
	<line x1="323" y1="92" x2="265" y2="77" stroke="#aaff00" stroke-width="2"/>
</g>
<g>
	<polygon points="253,70 247,63 255,62" fill="#aaff00"/>
	<line x1="240" y1="9" x2="251" y2="63" stroke="#aaff00" stroke-width="2"/>
</g>
<g>
	<polygon points="257,71 259,63 266,69" fill="#aaff00"/>
	<line x1="302" y1="30" x2="262" y2="67" stroke="#aaff00" stroke-width="2"/>
</g>
<g>
	<polygon points="251,78 251,87 243,83" fill="#aaff00"/>
	<line x1="207" y1="150" x2="247" y2="84" stroke="#aaff00" stroke-width="2"/>
</g>
<g>
	<polygon points="206,154 210,162 201,161" fill="#aaff00"/>
	<line x1="199" y1="229" x2="205" y2="161" stroke="#aaff00" stroke-width="2"/>
</g>
<g>
	<polygon points="198,233 203,241 194,241" fill="#aaff00"/>
	<line x1="197" y1="295" x2="198" y2="240" stroke="#aaff00" stroke-width="2"/>
</g>
<g>
	<polygon points="203,230 212,229 208,237" fill="#aaff00"/>
	<line x1="252" y1="250" x2="209" y2="233" stroke="#aaff00" stroke-width="2"/>
</g>
<g>
	<polygon points="194,230 188,237 185,228" fill="#aaff00"/>
	<line x1="144" y1="247" x2="187" y2="232" stroke="#aaff00" stroke-width="2"/>
</g>
<g>
	<polygon points="202,149 194,153 194,144" fill="#aaff00"/>
	<line x1="149" y1="147" x2="195" y2="149" stroke="#aaff00" stroke-width="2"/>
</g>
<g>
	<polygon points="249,73 240,75 243,66" fill="#aaff00"/>
	<line x1="185" y1="51" x2="242" y2="71" stroke="#aaff00" stroke-width="2"/>
</g>
<g>
	<polygon points="181,48 172,48 176,40" fill="#aaff00"/>
	<line x1="133" y1="21" x2="174" y2="45" stroke="#aaff00" stroke-width="2"/>
</g>
<g>
	<polygon points="128,19 119,21 122,13" fill="#aaff00"/>
	<line x1="79" y1="5" x2="121" y2="17" stroke="#aaff00" stroke-width="2"/>
</g>

<g fill="#000000">
	<circle cx="253" cy="74" r="4"/>
</g>
<g fill="#000000">
	<circle cx="274" cy="129" r="4"/>
</g>
<g fill="#000000">
	<circle cx="322" cy="91" r="4"/>
</g>
<g fill="#000000">
	<circle cx="239" cy="8" r="4"/>
</g>
<g fill="#000000">
	<circle cx="301" cy="29" r="4"/>
</g>
<g fill="#000000">
	<circle cx="206" cy="149" r="4"/>
</g>
<g fill="#000000">
	<circle cx="198" cy="228" r="4"/>
</g>
<g fill="#000000">
	<circle cx="196" cy="294" r="4"/>
</g>
<g fill="#000000">
	<circle cx="251" cy="249" r="4"/>
</g>
<g fill="#000000">
	<circle cx="143" cy="246" r="4"/>
</g>
<g fill="#000000">
	<circle cx="148" cy="146" r="4"/>
</g>
<g fill="#000000">
	<circle cx="184" cy="50" r="4"/>
</g>
<g fill="#000000">
	<circle cx="132" cy="20" r="4"/>
</g>
<g fill="#000000">
	<circle cx="78" cy="4" r="4"/>
</g>

</g>

</svg>
