<?xml version="1.0" encoding="utf-8"?>
<!-- Created with Hypercube (http://tumic.wz.cz/hypercube) -->

<svg width="400" height="300" viewBox="0 0 400 300" xmlns="http://www.w3.org/2000/svg" baseProfile="tiny">

<g font-family="Helvetica" font-weight="normal">

<g>
	<polygon points="198,106 189,106 193,98" fill="#aaff00"/>
	<line x1="152" y1="80" x2="191" y2="103" stroke="#aaff00" stroke-width="2"/>
</g>
<g>
	<polygon points="244,148 235,146 242,140" fill="#aaff00"/>
	<line x1="202" y1="109" x2="239" y2="144" stroke="#aaff00" stroke-width="2"/>
</g>
<g>
	<polygon points="279,215 272,211 280,206" fill="#aaff00"/>
	<line x1="248" y1="152" x2="276" y2="209" stroke="#aaff00" stroke-width="2"/>
</g>
<g>
	<polygon points="342,234 333,237 336,228" fill="#aaff00"/>
	<line x1="282" y1="220" x2="335" y2="233" stroke="#aaff00" stroke-width="2"/>
</g>
<g>
	<polygon points="302,275 295,270 303,266" fill="#aaff00"/>
	<line x1="282" y1="220" x2="299" y2="269" stroke="#aaff00" stroke-width="2"/>
</g>
<g>
	<polygon points="235,274 237,265 244,271" fill="#aaff00"/>
	<line x1="282" y1="220" x2="240" y2="269" stroke="#aaff00" stroke-width="2"/>
</g>
<g>
	<polygon points="332,168 330,176 324,170" fill="#aaff00"/>
	<line x1="282" y1="220" x2="327" y2="173" stroke="#aaff00" stroke-width="2"/>
</g>
<g>
	<polygon points="182,293 188,287 191,295" fill="#aaff00"/>
	<line x1="233" y1="278" x2="189" y2="291" stroke="#aaff00" stroke-width="2"/>
</g>
<g>
	<polygon points="376,128 373,137 367,130" fill="#aaff00"/>
	<line x1="336" y1="165" x2="371" y2="133" stroke="#aaff00" stroke-width="2"/>
</g>
<g>
	<polygon points="277,219 269,223 270,214" fill="#aaff00"/>
	<line x1="223" y1="216" x2="270" y2="219" stroke="#aaff00" stroke-width="2"/>
</g>
<g>
	<polygon points="49,56 58,55 53,63" fill="#aaff00"/>
	<line x1="93" y1="78" x2="55" y2="59" stroke="#aaff00" stroke-width="2"/>
</g>
<g>
	<polygon points="22,9 30,14 22,18" fill="#aaff00"/>
	<line x1="45" y1="54" x2="26" y2="15" stroke="#aaff00" stroke-width="2"/>
</g>
<g>
	<polygon points="97,78 105,73 105,82" fill="#aaff00"/>
	<line x1="152" y1="80" x2="104" y2="78" stroke="#aaff00" stroke-width="2"/>
</g>

<g fill="#000000">
	<circle cx="151" cy="79" r="4"/>
</g>
<g fill="#000000">
	<circle cx="201" cy="108" r="4"/>
</g>
<g fill="#000000">
	<circle cx="247" cy="151" r="4"/>
</g>
<g fill="#000000">
	<circle cx="281" cy="219" r="4"/>
</g>
<g fill="#000000">
	<circle cx="346" cy="235" r="4"/>
</g>
<g fill="#000000">
	<circle cx="303" cy="279" r="4"/>
</g>
<g fill="#000000">
	<circle cx="232" cy="277" r="4"/>
</g>
<g fill="#000000">
	<circle cx="335" cy="164" r="4"/>
</g>
<g fill="#000000">
	<circle cx="92" cy="77" r="4"/>
</g>
<g fill="#000000">
	<circle cx="44" cy="53" r="4"/>
</g>
<g fill="#000000">
	<circle cx="20" cy="4" r="4"/>
</g>
<g fill="#000000">
	<circle cx="222" cy="215" r="4"/>
</g>
<g fill="#000000">
	<circle cx="177" cy="294" r="4"/>
</g>
<g fill="#000000">
	<circle cx="379" cy="125" r="4"/>
</g>

</g>

</svg>
