<?xml version="1.0" encoding="utf-8"?>
<!-- Created with Hypercube (http://tumic.wz.cz/hypercube) -->

<svg width="400" height="300" viewBox="0 0 400 300" xmlns="http://www.w3.org/2000/svg" baseProfile="tiny">

<g font-family="Helvetica" font-weight="normal">

<g>
	<polygon points="167,80 176,80 172,88" fill="#aaff00"/>
	<line x1="195" y1="97" x2="173" y2="84" stroke="#aaff00" stroke-width="2"/>
</g>
<g>
	<polygon points="189,131 186,123 195,124" fill="#aaff00"/>
	<line x1="195" y1="97" x2="190" y2="124" stroke="#aaff00" stroke-width="2"/>
</g>
<g>
	<polygon points="187,131 180,126 188,122" fill="#aaff00"/>
	<line x1="164" y1="78" x2="184" y2="125" stroke="#aaff00" stroke-width="2"/>
</g>
<g>
	<polygon points="108,157 109,148 116,153" fill="#aaff00"/>
	<line x1="164" y1="78" x2="112" y2="151" stroke="#aaff00" stroke-width="2"/>
</g>
<g>
	<polygon points="233,119 224,119 228,111" fill="#aaff00"/>
	<line x1="164" y1="78" x2="226" y2="115" stroke="#aaff00" stroke-width="2"/>
</g>
<g>
	<polygon points="231,70 224,75 223,66" fill="#aaff00"/>
	<line x1="164" y1="78" x2="224" y2="71" stroke="#aaff00" stroke-width="2"/>
</g>
<g>
	<polygon points="143,107 144,98 151,103" fill="#aaff00"/>
	<line x1="164" y1="78" x2="147" y2="101" stroke="#aaff00" stroke-width="2"/>
</g>
<g>
	<polygon points="149,143 147,135 155,136" fill="#aaff00"/>
	<line x1="164" y1="78" x2="151" y2="136" stroke="#aaff00" stroke-width="2"/>
</g>
<g>
	<polygon points="110,159 116,153 119,161" fill="#aaff00"/>
	<line x1="189" y1="136" x2="117" y2="157" stroke="#aaff00" stroke-width="2"/>
</g>
<g>
	<polygon points="232,123 226,129 223,121" fill="#aaff00"/>
	<line x1="189" y1="136" x2="225" y2="125" stroke="#aaff00" stroke-width="2"/>
</g>
<g>
	<polygon points="233,73 232,82 225,77" fill="#aaff00"/>
	<line x1="189" y1="136" x2="229" y2="79" stroke="#aaff00" stroke-width="2"/>
</g>
<g>
	<polygon points="144,113 153,112 149,120" fill="#aaff00"/>
	<line x1="189" y1="136" x2="151" y2="116" stroke="#aaff00" stroke-width="2"/>
</g>
<g>
	<polygon points="144,149 138,155 135,147" fill="#aaff00"/>
	<line x1="106" y1="161" x2="137" y2="151" stroke="#aaff00" stroke-width="2"/>
</g>
<g>
	<polygon points="129,222 122,217 130,213" fill="#aaff00"/>
	<line x1="106" y1="161" x2="126" y2="216" stroke="#aaff00" stroke-width="2"/>
</g>
<g>
	<polygon points="232,123 226,129 223,121" fill="#aaff00"/>
	<line x1="149" y1="148" x2="225" y2="125" stroke="#aaff00" stroke-width="2"/>
</g>
<g>
	<polygon points="141,115 147,122 139,123" fill="#aaff00"/>
	<line x1="149" y1="148" x2="143" y2="122" stroke="#aaff00" stroke-width="2"/>
</g>
<g>
	<polygon points="236,74 240,82 231,82" fill="#aaff00"/>
	<line x1="237" y1="122" x2="236" y2="81" stroke="#aaff00" stroke-width="2"/>
</g>
<g>
	<polygon points="285,96 280,103 276,95" fill="#aaff00"/>
	<line x1="237" y1="122" x2="278" y2="99" stroke="#aaff00" stroke-width="2"/>
</g>
<g>
	<polygon points="284,92 275,93 279,84" fill="#aaff00"/>
	<line x1="236" y1="70" x2="278" y2="89" stroke="#aaff00" stroke-width="2"/>
</g>
<g>
	<polygon points="87,77 96,77 91,85" fill="#aaff00"/>
	<line x1="141" y1="111" x2="93" y2="81" stroke="#aaff00" stroke-width="2"/>
</g>
<g>
	<polygon points="256,232 248,236 248,227" fill="#aaff00"/>
	<line x1="194" y1="232" x2="249" y2="232" stroke="#aaff00" stroke-width="2"/>
</g>
<g>
	<polygon points="312,232 304,236 304,227" fill="#aaff00"/>
	<line x1="261" y1="232" x2="305" y2="232" stroke="#aaff00" stroke-width="2"/>
</g>
<g>
	<polygon points="189,231 181,235 182,226" fill="#aaff00"/>
	<line x1="131" y1="227" x2="182" y2="231" stroke="#aaff00" stroke-width="2"/>
</g>

<g fill="#000000">
	<circle cx="194" cy="96" r="4"/>
</g>
<g fill="#000000">
	<circle cx="163" cy="77" r="4"/>
</g>
<g fill="#000000">
	<circle cx="188" cy="135" r="4"/>
</g>
<g fill="#000000">
	<circle cx="105" cy="160" r="4"/>
</g>
<g fill="#000000">
	<circle cx="236" cy="121" r="4"/>
</g>
<g fill="#000000">
	<circle cx="235" cy="69" r="4"/>
</g>
<g fill="#000000">
	<circle cx="140" cy="110" r="4"/>
</g>
<g fill="#000000">
	<circle cx="148" cy="147" r="4"/>
</g>
<g fill="#000000">
	<circle cx="193" cy="231" r="4"/>
</g>
<g fill="#000000">
	<circle cx="260" cy="231" r="4"/>
</g>
<g fill="#000000">
	<circle cx="316" cy="231" r="4"/>
</g>
<g fill="#000000">
	<circle cx="130" cy="226" r="4"/>
</g>
<g fill="#000000">
	<circle cx="288" cy="93" r="4"/>
</g>
<g fill="#000000">
	<circle cx="83" cy="74" r="4"/>
</g>

</g>

</svg>
