<?xml version="1.0" encoding="utf-8"?>
<!-- Created with Hypercube (http://tumic.wz.cz/hypercube) -->

<svg width="400" height="300" viewBox="0 0 400 300" xmlns="http://www.w3.org/2000/svg" baseProfile="tiny">

<g font-family="Helvetica" font-weight="normal">

<g>
	<polygon points="235,147 244,147 240,155" fill="#aaff00"/>
	<line x1="286" y1="172" x2="241" y2="150" stroke="#aaff00" stroke-width="2"/>
</g>
<g>
	<polygon points="327,135 324,144 318,137" fill="#aaff00"/>
	<line x1="286" y1="172" x2="322" y2="140" stroke="#aaff00" stroke-width="2"/>
</g>
<g>
	<polygon points="288,226 283,218 292,218" fill="#aaff00"/>
	<line x1="286" y1="172" x2="288" y2="219" stroke="#aaff00" stroke-width="2"/>
</g>
<g>
	<polygon points="177,118 186,117 182,125" fill="#aaff00"/>
	<line x1="231" y1="146" x2="184" y2="121" stroke="#aaff00" stroke-width="2"/>
</g>
<g>
	<polygon points="143,70 151,74 144,79" fill="#aaff00"/>
	<line x1="174" y1="116" x2="147" y2="76" stroke="#aaff00" stroke-width="2"/>
</g>
<g>
	<polygon points="98,35 107,36 102,43" fill="#aaff00"/>
	<line x1="141" y1="67" x2="104" y2="39" stroke="#aaff00" stroke-width="2"/>
</g>
<g>
	<polygon points="45,20 54,17 51,26" fill="#aaff00"/>
	<line x1="95" y1="33" x2="52" y2="21" stroke="#aaff00" stroke-width="2"/>
</g>
<g>
	<polygon points="39,23 42,31 33,29" fill="#aaff00"/>
	<line x1="28" y1="76" x2="38" y2="30" stroke="#aaff00" stroke-width="2"/>
</g>
<g>
	<polygon points="136,68 131,75 127,67" fill="#aaff00"/>
	<line x1="87" y1="89" x2="130" y2="71" stroke="#aaff00" stroke-width="2"/>
</g>
<g>
	<polygon points="94,37 97,45 88,44" fill="#aaff00"/>
	<line x1="87" y1="89" x2="93" y2="44" stroke="#aaff00" stroke-width="2"/>
</g>
<g>
	<polygon points="32,76 40,74 39,83" fill="#aaff00"/>
	<line x1="87" y1="89" x2="39" y2="78" stroke="#aaff00" stroke-width="2"/>
</g>
<g>
	<polygon points="169,117 164,124 160,116" fill="#aaff00"/>
	<line x1="119" y1="138" x2="163" y2="120" stroke="#aaff00" stroke-width="2"/>
</g>
<g>
	<polygon points="89,92 97,96 89,101" fill="#aaff00"/>
	<line x1="119" y1="138" x2="93" y2="98" stroke="#aaff00" stroke-width="2"/>
</g>
<g>
	<polygon points="289,235 293,243 284,243" fill="#aaff00"/>
	<line x1="289" y1="282" x2="289" y2="242" stroke="#aaff00" stroke-width="2"/>
</g>
<g>
	<polygon points="333,129 334,120 342,126" fill="#aaff00"/>
	<line x1="368" y1="85" x2="338" y2="123" stroke="#aaff00" stroke-width="2"/>
</g>
<g>
	<polygon points="372,33 376,41 367,40" fill="#aaff00"/>
	<line x1="368" y1="85" x2="371" y2="40" stroke="#aaff00" stroke-width="2"/>
</g>

<g fill="#000000">
	<circle cx="367" cy="84" r="4"/>
</g>
<g fill="#000000">
	<circle cx="285" cy="171" r="4"/>
</g>
<g fill="#000000">
	<circle cx="230" cy="145" r="4"/>
</g>
<g fill="#000000">
	<circle cx="330" cy="132" r="4"/>
</g>
<g fill="#000000">
	<circle cx="288" cy="230" r="4"/>
</g>
<g fill="#000000">
	<circle cx="173" cy="115" r="4"/>
</g>
<g fill="#000000">
	<circle cx="118" cy="137" r="4"/>
</g>
<g fill="#000000">
	<circle cx="86" cy="88" r="4"/>
</g>
<g fill="#000000">
	<circle cx="140" cy="66" r="4"/>
</g>
<g fill="#000000">
	<circle cx="288" cy="281" r="4"/>
</g>
<g fill="#000000">
	<circle cx="372" cy="28" r="4"/>
</g>
<g fill="#000000">
	<circle cx="94" cy="32" r="4"/>
</g>
<g fill="#000000">
	<circle cx="27" cy="75" r="4"/>
</g>
<g fill="#000000">
	<circle cx="40" cy="18" r="4"/>
</g>

</g>

</svg>
