<?xml version="1.0" encoding="utf-8"?>
<!-- Created with Hypercube (http://tumic.wz.cz/hypercube) -->

<svg width="400" height="300" viewBox="0 0 400 300" xmlns="http://www.w3.org/2000/svg" baseProfile="tiny">

<g font-family="Helvetica" font-weight="normal">

<g>
	<polygon points="229,176 221,174 227,168" fill="#aaff00"/>
	<line x1="188" y1="133" x2="224" y2="171" stroke="#aaff00" stroke-width="2"/>
</g>
<g>
	<polygon points="146,100 155,101 149,109" fill="#aaff00"/>
	<line x1="188" y1="133" x2="152" y2="105" stroke="#aaff00" stroke-width="2"/>
</g>
<g>
	<polygon points="169,184 167,175 176,178" fill="#aaff00"/>
	<line x1="188" y1="133" x2="171" y2="177" stroke="#aaff00" stroke-width="2"/>
</g>
<g>
	<polygon points="201,68 203,76 195,75" fill="#aaff00"/>
	<line x1="188" y1="133" x2="199" y2="75" stroke="#aaff00" stroke-width="2"/>
</g>
<g>
	<polygon points="259,113 253,119 250,110" fill="#aaff00"/>
	<line x1="188" y1="133" x2="252" y2="115" stroke="#aaff00" stroke-width="2"/>
</g>
<g>
	<polygon points="101,166 106,159 110,167" fill="#aaff00"/>
	<line x1="188" y1="133" x2="107" y2="163" stroke="#aaff00" stroke-width="2"/>
</g>
<g>
	<polygon points="207,12 211,20 202,19" fill="#aaff00"/>
	<line x1="202" y1="64" x2="206" y2="19" stroke="#aaff00" stroke-width="2"/>
</g>
<g>
	<polygon points="318,103 311,109 310,100" fill="#aaff00"/>
	<line x1="264" y1="112" x2="311" y2="104" stroke="#aaff00" stroke-width="2"/>
</g>
<g>
	<polygon points="358,68 356,76 350,70" fill="#aaff00"/>
	<line x1="323" y1="103" x2="353" y2="73" stroke="#aaff00" stroke-width="2"/>
</g>
<g>
	<polygon points="43,180 49,174 52,183" fill="#aaff00"/>
	<line x1="97" y1="168" x2="50" y2="179" stroke="#aaff00" stroke-width="2"/>
</g>
<g>
	<polygon points="87,232 84,224 93,225" fill="#aaff00"/>
	<line x1="97" y1="168" x2="88" y2="225" stroke="#aaff00" stroke-width="2"/>
</g>
<g>
	<polygon points="59,120 68,123 61,129" fill="#aaff00"/>
	<line x1="97" y1="168" x2="64" y2="126" stroke="#aaff00" stroke-width="2"/>
</g>
<g>
	<polygon points="73,288 70,279 79,282" fill="#aaff00"/>
	<line x1="87" y1="237" x2="75" y2="281" stroke="#aaff00" stroke-width="2"/>
</g>

<g fill="#000000">
	<circle cx="187" cy="132" r="4"/>
</g>
<g fill="#000000">
	<circle cx="232" cy="179" r="4"/>
</g>
<g fill="#000000">
	<circle cx="142" cy="97" r="4"/>
</g>
<g fill="#000000">
	<circle cx="167" cy="188" r="4"/>
</g>
<g fill="#000000">
	<circle cx="201" cy="63" r="4"/>
</g>
<g fill="#000000">
	<circle cx="263" cy="111" r="4"/>
</g>
<g fill="#000000">
	<circle cx="96" cy="167" r="4"/>
</g>
<g fill="#000000">
	<circle cx="207" cy="7" r="4"/>
</g>
<g fill="#000000">
	<circle cx="322" cy="102" r="4"/>
</g>
<g fill="#000000">
	<circle cx="38" cy="181" r="4"/>
</g>
<g fill="#000000">
	<circle cx="86" cy="236" r="4"/>
</g>
<g fill="#000000">
	<circle cx="56" cy="116" r="4"/>
</g>
<g fill="#000000">
	<circle cx="361" cy="64" r="4"/>
</g>
<g fill="#000000">
	<circle cx="71" cy="292" r="4"/>
</g>

</g>

</svg>
