<?xml version="1.0" encoding="utf-8"?>
<!-- Created with Hypercube (http://tumic.wz.cz/hypercube) -->

<svg width="400" height="300" viewBox="0 0 400 300" xmlns="http://www.w3.org/2000/svg" baseProfile="tiny">

<g font-family="Helvetica" font-weight="normal">

<g>
	<polygon points="230,212 221,210 227,203" fill="#aaff00"/>
	<line x1="179" y1="167" x2="225" y2="207" stroke="#aaff00" stroke-width="2"/>
</g>
<g>
	<polygon points="136,176 142,170 144,179" fill="#aaff00"/>
	<line x1="179" y1="167" x2="143" y2="175" stroke="#aaff00" stroke-width="2"/>
</g>
<g>
	<polygon points="156,212 155,203 163,208" fill="#aaff00"/>
	<line x1="179" y1="167" x2="159" y2="206" stroke="#aaff00" stroke-width="2"/>
</g>
<g>
	<polygon points="278,244 269,243 274,236" fill="#aaff00"/>
	<line x1="234" y1="215" x2="272" y2="240" stroke="#aaff00" stroke-width="2"/>
</g>
<g>
	<polygon points="257,123 260,132 251,129" fill="#aaff00"/>
	<line x1="234" y1="215" x2="256" y2="130" stroke="#aaff00" stroke-width="2"/>
</g>
<g>
	<polygon points="256,122 256,131 248,126" fill="#aaff00"/>
	<line x1="234" y1="157" x2="252" y2="128" stroke="#aaff00" stroke-width="2"/>
</g>
<g>
	<polygon points="302,165 294,168 295,160" fill="#aaff00"/>
	<line x1="234" y1="157" x2="295" y2="164" stroke="#aaff00" stroke-width="2"/>
</g>
<g>
	<polygon points="196,212 197,203 204,208" fill="#aaff00"/>
	<line x1="234" y1="157" x2="200" y2="206" stroke="#aaff00" stroke-width="2"/>
</g>
<g>
	<polygon points="229,215 221,219 221,210" fill="#aaff00"/>
	<line x1="194" y1="216" x2="222" y2="215" stroke="#aaff00" stroke-width="2"/>
</g>
<g>
	<polygon points="135,180 144,180 140,188" fill="#aaff00"/>
	<line x1="194" y1="216" x2="141" y2="184" stroke="#aaff00" stroke-width="2"/>
</g>
<g>
	<polygon points="158,216 166,212 166,221" fill="#aaff00"/>
	<line x1="194" y1="216" x2="165" y2="216" stroke="#aaff00" stroke-width="2"/>
</g>
<g>
	<polygon points="134,181 141,186 134,190" fill="#aaff00"/>
	<line x1="154" y1="217" x2="137" y2="188" stroke="#aaff00" stroke-width="2"/>
</g>
<g>
	<polygon points="229,215 221,219 221,210" fill="#aaff00"/>
	<line x1="115" y1="218" x2="222" y2="215" stroke="#aaff00" stroke-width="2"/>
</g>
<g>
	<polygon points="130,182 131,191 123,187" fill="#aaff00"/>
	<line x1="115" y1="218" x2="127" y2="188" stroke="#aaff00" stroke-width="2"/>
</g>
<g>
	<polygon points="149,217 141,221 141,212" fill="#aaff00"/>
	<line x1="115" y1="218" x2="142" y2="217" stroke="#aaff00" stroke-width="2"/>
</g>
<g>
	<polygon points="177,162 169,157 177,153" fill="#aaff00"/>
	<line x1="156" y1="119" x2="173" y2="156" stroke="#aaff00" stroke-width="2"/>
</g>
<g>
	<polygon points="116,213 115,204 123,208" fill="#aaff00"/>
	<line x1="156" y1="119" x2="119" y2="207" stroke="#aaff00" stroke-width="2"/>
</g>
<g>
	<polygon points="229,155 220,155 224,147" fill="#aaff00"/>
	<line x1="156" y1="119" x2="223" y2="151" stroke="#aaff00" stroke-width="2"/>
</g>
<g>
	<polygon points="213,84 208,92 204,84" fill="#aaff00"/>
	<line x1="156" y1="119" x2="207" y2="88" stroke="#aaff00" stroke-width="2"/>
</g>
<g>
	<polygon points="147,58 153,65 144,66" fill="#aaff00"/>
	<line x1="156" y1="119" x2="148" y2="65" stroke="#aaff00" stroke-width="2"/>
</g>
<g>
	<polygon points="98,101 107,99 104,107" fill="#aaff00"/>
	<line x1="156" y1="119" x2="105" y2="103" stroke="#aaff00" stroke-width="2"/>
</g>
<g>
	<polygon points="255,116 246,114 252,107" fill="#aaff00"/>
	<line x1="217" y1="82" x2="250" y2="111" stroke="#aaff00" stroke-width="2"/>
</g>

<g fill="#000000">
	<circle cx="178" cy="166" r="4"/>
</g>
<g fill="#000000">
	<circle cx="233" cy="214" r="4"/>
</g>
<g fill="#000000">
	<circle cx="131" cy="177" r="4"/>
</g>
<g fill="#000000">
	<circle cx="153" cy="216" r="4"/>
</g>
<g fill="#000000">
	<circle cx="281" cy="246" r="4"/>
</g>
<g fill="#000000">
	<circle cx="258" cy="118" r="4"/>
</g>
<g fill="#000000">
	<circle cx="114" cy="217" r="4"/>
</g>
<g fill="#000000">
	<circle cx="233" cy="156" r="4"/>
</g>
<g fill="#000000">
	<circle cx="306" cy="165" r="4"/>
</g>
<g fill="#000000">
	<circle cx="193" cy="215" r="4"/>
</g>
<g fill="#000000">
	<circle cx="216" cy="81" r="4"/>
</g>
<g fill="#000000">
	<circle cx="155" cy="118" r="4"/>
</g>
<g fill="#000000">
	<circle cx="146" cy="53" r="4"/>
</g>
<g fill="#000000">
	<circle cx="93" cy="99" r="4"/>
</g>

</g>

</svg>
