<?xml version="1.0" encoding="utf-8"?>
<!-- Created with Hypercube (http://tumic.wz.cz/hypercube) -->

<svg width="400" height="300" viewBox="0 0 400 300" xmlns="http://www.w3.org/2000/svg" baseProfile="tiny">

<g font-family="Helvetica" font-weight="normal">

<g>
	<polygon points="269,205 271,197 277,203" fill="#aaff00"/>
	<line x1="318" y1="157" x2="274" y2="200" stroke="#aaff00" stroke-width="2"/>
</g>
<g>
	<polygon points="271,171 277,165 280,173" fill="#aaff00"/>
	<line x1="318" y1="157" x2="278" y2="169" stroke="#aaff00" stroke-width="2"/>
</g>
<g>
	<polygon points="266,177 271,185 262,185" fill="#aaff00"/>
	<line x1="266" y1="209" x2="266" y2="184" stroke="#aaff00" stroke-width="2"/>
</g>
<g>
	<polygon points="188,194 196,191 195,200" fill="#aaff00"/>
	<line x1="266" y1="209" x2="195" y2="196" stroke="#aaff00" stroke-width="2"/>
</g>
<g>
	<polygon points="268,246 263,239 272,238" fill="#aaff00"/>
	<line x1="266" y1="209" x2="268" y2="239" stroke="#aaff00" stroke-width="2"/>
</g>
<g>
	<polygon points="311,222 302,224 305,216" fill="#aaff00"/>
	<line x1="266" y1="209" x2="304" y2="220" stroke="#aaff00" stroke-width="2"/>
</g>
<g>
	<polygon points="235,145 243,150 235,154" fill="#aaff00"/>
	<line x1="266" y1="209" x2="238" y2="151" stroke="#aaff00" stroke-width="2"/>
</g>
<g>
	<polygon points="230,201 238,198 237,207" fill="#aaff00"/>
	<line x1="266" y1="209" x2="237" y2="203" stroke="#aaff00" stroke-width="2"/>
</g>
<g>
	<polygon points="188,192 194,186 197,195" fill="#aaff00"/>
	<line x1="267" y1="173" x2="195" y2="191" stroke="#aaff00" stroke-width="2"/>
</g>
<g>
	<polygon points="268,246 264,238 273,238" fill="#aaff00"/>
	<line x1="267" y1="173" x2="268" y2="239" stroke="#aaff00" stroke-width="2"/>
</g>
<g>
	<polygon points="312,220 304,218 310,212" fill="#aaff00"/>
	<line x1="267" y1="173" x2="307" y2="215" stroke="#aaff00" stroke-width="2"/>
</g>
<g>
	<polygon points="237,144 245,146 239,152" fill="#aaff00"/>
	<line x1="267" y1="173" x2="242" y2="149" stroke="#aaff00" stroke-width="2"/>
</g>
<g>
	<polygon points="229,198 233,190 238,197" fill="#aaff00"/>
	<line x1="267" y1="173" x2="235" y2="194" stroke="#aaff00" stroke-width="2"/>
</g>
<g>
	<polygon points="221,200 213,203 214,194" fill="#aaff00"/>
	<line x1="184" y1="194" x2="214" y2="199" stroke="#aaff00" stroke-width="2"/>
</g>
<g>
	<polygon points="125,183 133,180 132,189" fill="#aaff00"/>
	<line x1="184" y1="194" x2="132" y2="185" stroke="#aaff00" stroke-width="2"/>
</g>
<g>
	<polygon points="266,247 257,244 264,238" fill="#aaff00"/>
	<line x1="226" y1="201" x2="261" y2="242" stroke="#aaff00" stroke-width="2"/>
</g>
<g>
	<polygon points="233,145 236,153 227,152" fill="#aaff00"/>
	<line x1="226" y1="201" x2="232" y2="152" stroke="#aaff00" stroke-width="2"/>
</g>
<g>
	<polygon points="312,226 307,234 303,226" fill="#aaff00"/>
	<line x1="269" y1="251" x2="305" y2="229" stroke="#aaff00" stroke-width="2"/>
</g>
<g>
	<polygon points="318,275 309,276 314,268" fill="#aaff00"/>
	<line x1="269" y1="251" x2="312" y2="272" stroke="#aaff00" stroke-width="2"/>
</g>
<g>
	<polygon points="322,273 316,266 325,265" fill="#aaff00"/>
	<line x1="316" y1="224" x2="321" y2="266" stroke="#aaff00" stroke-width="2"/>
</g>
<g>
	<polygon points="240,83 244,91 235,90" fill="#aaff00"/>
	<line x1="234" y1="141" x2="239" y2="90" stroke="#aaff00" stroke-width="2"/>
</g>
<g>
	<polygon points="78,81 84,88 75,89" fill="#aaff00"/>
	<line x1="87" y1="135" x2="79" y2="88" stroke="#aaff00" stroke-width="2"/>
</g>
<g>
	<polygon points="78,28 82,36 73,36" fill="#aaff00"/>
	<line x1="78" y1="77" x2="78" y2="35" stroke="#aaff00" stroke-width="2"/>
</g>
<g>
	<polygon points="89,138 97,142 90,147" fill="#aaff00"/>
	<line x1="121" y1="183" x2="93" y2="144" stroke="#aaff00" stroke-width="2"/>
</g>

<g fill="#000000">
	<circle cx="317" cy="156" r="4"/>
</g>
<g fill="#000000">
	<circle cx="265" cy="208" r="4"/>
</g>
<g fill="#000000">
	<circle cx="266" cy="172" r="4"/>
</g>
<g fill="#000000">
	<circle cx="183" cy="193" r="4"/>
</g>
<g fill="#000000">
	<circle cx="268" cy="250" r="4"/>
</g>
<g fill="#000000">
	<circle cx="315" cy="223" r="4"/>
</g>
<g fill="#000000">
	<circle cx="233" cy="140" r="4"/>
</g>
<g fill="#000000">
	<circle cx="225" cy="200" r="4"/>
</g>
<g fill="#000000">
	<circle cx="120" cy="182" r="4"/>
</g>
<g fill="#000000">
	<circle cx="86" cy="134" r="4"/>
</g>
<g fill="#000000">
	<circle cx="77" cy="76" r="4"/>
</g>
<g fill="#000000">
	<circle cx="77" cy="23" r="4"/>
</g>
<g fill="#000000">
	<circle cx="322" cy="277" r="4"/>
</g>
<g fill="#000000">
	<circle cx="240" cy="78" r="4"/>
</g>

</g>

</svg>
