<?xml version="1.0" encoding="utf-8"?>
<!-- Created with Hypercube (http://tumic.wz.cz/hypercube) -->

<svg width="400" height="300" viewBox="0 0 400 300" xmlns="http://www.w3.org/2000/svg" baseProfile="tiny">

<g font-family="Helvetica" font-weight="normal">

<g>
	<polygon points="284,165 275,162 282,156" fill="#aaff00"/>
	<line x1="244" y1="117" x2="279" y2="159" stroke="#aaff00" stroke-width="2"/>
</g>
<g>
	<polygon points="278,225 275,217 284,218" fill="#aaff00"/>
	<line x1="287" y1="169" x2="279" y2="218" stroke="#aaff00" stroke-width="2"/>
</g>
<g>
	<polygon points="323,209 315,206 322,200" fill="#aaff00"/>
	<line x1="287" y1="169" x2="319" y2="204" stroke="#aaff00" stroke-width="2"/>
</g>
<g>
	<polygon points="340,164 333,169 332,160" fill="#aaff00"/>
	<line x1="287" y1="169" x2="333" y2="165" stroke="#aaff00" stroke-width="2"/>
</g>
<g>
	<polygon points="322,214 316,221 313,212" fill="#aaff00"/>
	<line x1="278" y1="230" x2="315" y2="216" stroke="#aaff00" stroke-width="2"/>
</g>
<g>
	<polygon points="317,264 308,262 314,255" fill="#aaff00"/>
	<line x1="278" y1="230" x2="312" y2="259" stroke="#aaff00" stroke-width="2"/>
</g>
<g>
	<polygon points="343,168 344,177 336,173" fill="#aaff00"/>
	<line x1="327" y1="213" x2="340" y2="174" stroke="#aaff00" stroke-width="2"/>
</g>
<g>
	<polygon points="321,262 317,254 326,255" fill="#aaff00"/>
	<line x1="327" y1="213" x2="322" y2="255" stroke="#aaff00" stroke-width="2"/>
</g>
<g>
	<polygon points="326,38 321,46 317,38" fill="#aaff00"/>
	<line x1="281" y1="65" x2="319" y2="41" stroke="#aaff00" stroke-width="2"/>
</g>
<g>
	<polygon points="383,34 375,38 375,29" fill="#aaff00"/>
	<line x1="330" y1="36" x2="376" y2="34" stroke="#aaff00" stroke-width="2"/>
</g>
<g>
	<polygon points="60,149 69,152 62,158" fill="#aaff00"/>
	<line x1="89" y1="183" x2="65" y2="154" stroke="#aaff00" stroke-width="2"/>
</g>
<g>
	<polygon points="114,133 115,142 107,138" fill="#aaff00"/>
	<line x1="89" y1="183" x2="111" y2="140" stroke="#aaff00" stroke-width="2"/>
</g>
<g>
	<polygon points="38,194 44,188 46,197" fill="#aaff00"/>
	<line x1="89" y1="183" x2="45" y2="193" stroke="#aaff00" stroke-width="2"/>
</g>
<g>
	<polygon points="112,131 106,137 103,128" fill="#aaff00"/>
	<line x1="58" y1="146" x2="105" y2="133" stroke="#aaff00" stroke-width="2"/>
</g>
<g>
	<polygon points="35,191 35,182 43,186" fill="#aaff00"/>
	<line x1="58" y1="146" x2="39" y2="185" stroke="#aaff00" stroke-width="2"/>
</g>
<g>
	<polygon points="171,115 165,121 162,112" fill="#aaff00"/>
	<line x1="117" y1="130" x2="164" y2="117" stroke="#aaff00" stroke-width="2"/>
</g>
<g>
	<polygon points="14,242 13,233 21,237" fill="#aaff00"/>
	<line x1="34" y1="196" x2="17" y2="236" stroke="#aaff00" stroke-width="2"/>
</g>
<g>
	<polygon points="278,68 277,77 270,72" fill="#aaff00"/>
	<line x1="244" y1="117" x2="274" y2="74" stroke="#aaff00" stroke-width="2"/>
</g>
<g>
	<polygon points="180,114 188,110 188,119" fill="#aaff00"/>
	<line x1="244" y1="117" x2="187" y2="114" stroke="#aaff00" stroke-width="2"/>
</g>

<g fill="#000000">
	<circle cx="243" cy="116" r="4"/>
</g>
<g fill="#000000">
	<circle cx="286" cy="168" r="4"/>
</g>
<g fill="#000000">
	<circle cx="277" cy="229" r="4"/>
</g>
<g fill="#000000">
	<circle cx="326" cy="212" r="4"/>
</g>
<g fill="#000000">
	<circle cx="344" cy="163" r="4"/>
</g>
<g fill="#000000">
	<circle cx="320" cy="266" r="4"/>
</g>
<g fill="#000000">
	<circle cx="280" cy="64" r="4"/>
</g>
<g fill="#000000">
	<circle cx="329" cy="35" r="4"/>
</g>
<g fill="#000000">
	<circle cx="387" cy="33" r="4"/>
</g>
<g fill="#000000">
	<circle cx="88" cy="182" r="4"/>
</g>
<g fill="#000000">
	<circle cx="57" cy="145" r="4"/>
</g>
<g fill="#000000">
	<circle cx="116" cy="129" r="4"/>
</g>
<g fill="#000000">
	<circle cx="33" cy="195" r="4"/>
</g>
<g fill="#000000">
	<circle cx="175" cy="113" r="4"/>
</g>
<g fill="#000000">
	<circle cx="12" cy="246" r="4"/>
</g>

</g>

</svg>
