<?xml version="1.0" encoding="utf-8"?>
<!-- Created with Hypercube (http://tumic.wz.cz/hypercube) -->

<svg width="400" height="300" viewBox="0 0 400 300" xmlns="http://www.w3.org/2000/svg" baseProfile="tiny">

<g font-family="Helvetica" font-weight="normal">

<g>
	<polygon points="332,153 327,161 323,153" fill="#aaff00"/>
	<line x1="278" y1="186" x2="325" y2="157" stroke="#aaff00" stroke-width="2"/>
</g>
<g>
	<polygon points="339,210 330,211 334,203" fill="#aaff00"/>
	<line x1="278" y1="186" x2="333" y2="207" stroke="#aaff00" stroke-width="2"/>
</g>
<g>
	<polygon points="241,236 242,227 249,232" fill="#aaff00"/>
	<line x1="278" y1="186" x2="245" y2="230" stroke="#aaff00" stroke-width="2"/>
</g>
<g>
	<polygon points="296,249 290,243 298,240" fill="#aaff00"/>
	<line x1="278" y1="186" x2="294" y2="242" stroke="#aaff00" stroke-width="2"/>
</g>
<g>
	<polygon points="278,181 276,173 284,174" fill="#aaff00"/>
	<line x1="295" y1="102" x2="280" y2="174" stroke="#aaff00" stroke-width="2"/>
</g>
<g>
	<polygon points="292,98 285,93 292,89" fill="#aaff00"/>
	<line x1="264" y1="47" x2="289" y2="91" stroke="#aaff00" stroke-width="2"/>
</g>
<g>
	<polygon points="259,48 253,54 250,46" fill="#aaff00"/>
	<line x1="204" y1="65" x2="252" y2="50" stroke="#aaff00" stroke-width="2"/>
</g>
<g>
	<polygon points="202,176 194,172 201,167" fill="#aaff00"/>
	<line x1="167" y1="123" x2="198" y2="170" stroke="#aaff00" stroke-width="2"/>
</g>
<g>
	<polygon points="201,68 201,77 193,72" fill="#aaff00"/>
	<line x1="167" y1="123" x2="197" y2="74" stroke="#aaff00" stroke-width="2"/>
</g>
<g>
	<polygon points="229,137 220,140 223,131" fill="#aaff00"/>
	<line x1="167" y1="123" x2="222" y2="136" stroke="#aaff00" stroke-width="2"/>
</g>
<g>
	<polygon points="273,185 265,189 266,180" fill="#aaff00"/>
	<line x1="205" y1="180" x2="266" y2="185" stroke="#aaff00" stroke-width="2"/>
</g>
<g>
	<polygon points="274,182 266,180 272,173" fill="#aaff00"/>
	<line x1="234" y1="139" x2="270" y2="177" stroke="#aaff00" stroke-width="2"/>
</g>
<g>
	<polygon points="163,125 158,133 154,125" fill="#aaff00"/>
	<line x1="107" y1="159" x2="156" y2="129" stroke="#aaff00" stroke-width="2"/>
</g>
<g>
	<polygon points="102,160 97,168 93,159" fill="#aaff00"/>
	<line x1="57" y1="181" x2="96" y2="163" stroke="#aaff00" stroke-width="2"/>
</g>
<g>
	<polygon points="163,119 154,117 161,111" fill="#aaff00"/>
	<line x1="116" y1="75" x2="158" y2="114" stroke="#aaff00" stroke-width="2"/>
</g>
<g>
	<polygon points="112,72 103,73 107,65" fill="#aaff00"/>
	<line x1="65" y1="47" x2="105" y2="69" stroke="#aaff00" stroke-width="2"/>
</g>

<g fill="#000000">
	<circle cx="277" cy="185" r="4"/>
</g>
<g fill="#000000">
	<circle cx="335" cy="150" r="4"/>
</g>
<g fill="#000000">
	<circle cx="343" cy="211" r="4"/>
</g>
<g fill="#000000">
	<circle cx="238" cy="239" r="4"/>
</g>
<g fill="#000000">
	<circle cx="297" cy="253" r="4"/>
</g>
<g fill="#000000">
	<circle cx="263" cy="46" r="4"/>
</g>
<g fill="#000000">
	<circle cx="294" cy="101" r="4"/>
</g>
<g fill="#000000">
	<circle cx="166" cy="122" r="4"/>
</g>
<g fill="#000000">
	<circle cx="204" cy="179" r="4"/>
</g>
<g fill="#000000">
	<circle cx="203" cy="64" r="4"/>
</g>
<g fill="#000000">
	<circle cx="233" cy="138" r="4"/>
</g>
<g fill="#000000">
	<circle cx="56" cy="180" r="4"/>
</g>
<g fill="#000000">
	<circle cx="106" cy="158" r="4"/>
</g>
<g fill="#000000">
	<circle cx="64" cy="46" r="4"/>
</g>
<g fill="#000000">
	<circle cx="115" cy="74" r="4"/>
</g>

</g>

</svg>
