<?xml version="1.0" encoding="utf-8"?>
<!-- Created with Hypercube (http://tumic.wz.cz/hypercube) -->

<svg width="400" height="300" viewBox="0 0 400 300" xmlns="http://www.w3.org/2000/svg" baseProfile="tiny">

<g font-family="Helvetica" font-weight="normal">

<g>
	<polygon points="268,88 273,81 277,89" fill="#aaff00"/>
	<line x1="324" y1="67" x2="274" y2="85" stroke="#aaff00" stroke-width="2"/>
</g>
<g>
	<polygon points="326,70 333,75 325,79" fill="#aaff00"/>
	<line x1="351" y1="117" x2="329" y2="77" stroke="#aaff00" stroke-width="2"/>
</g>
<g>
	<polygon points="346,118 341,125 337,117" fill="#aaff00"/>
	<line x1="294" y1="140" x2="340" y2="121" stroke="#aaff00" stroke-width="2"/>
</g>
<g>
	<polygon points="249,187 242,182 250,178" fill="#aaff00"/>
	<line x1="218" y1="111" x2="246" y2="181" stroke="#aaff00" stroke-width="2"/>
</g>
<g>
	<polygon points="289,138 280,139 284,131" fill="#aaff00"/>
	<line x1="218" y1="111" x2="283" y2="135" stroke="#aaff00" stroke-width="2"/>
</g>
<g>
	<polygon points="153,59 162,61 156,68" fill="#aaff00"/>
	<line x1="218" y1="111" x2="159" y2="64" stroke="#aaff00" stroke-width="2"/>
</g>
<g>
	<polygon points="232,54 235,63 226,60" fill="#aaff00"/>
	<line x1="218" y1="111" x2="231" y2="61" stroke="#aaff00" stroke-width="2"/>
</g>
<g>
	<polygon points="166,123 172,117 175,126" fill="#aaff00"/>
	<line x1="218" y1="111" x2="173" y2="122" stroke="#aaff00" stroke-width="2"/>
</g>
<g>
	<polygon points="266,246 260,240 268,237" fill="#aaff00"/>
	<line x1="251" y1="192" x2="264" y2="239" stroke="#aaff00" stroke-width="2"/>
</g>
<g>
	<polygon points="78,69 85,63 86,72" fill="#aaff00"/>
	<line x1="150" y1="57" x2="85" y2="68" stroke="#aaff00" stroke-width="2"/>
</g>
<g>
	<polygon points="72,74 74,83 65,80" fill="#aaff00"/>
	<line x1="51" y1="138" x2="70" y2="81" stroke="#aaff00" stroke-width="2"/>
</g>
<g>
	<polygon points="55,139 64,137 61,146" fill="#aaff00"/>
	<line x1="120" y1="160" x2="62" y2="141" stroke="#aaff00" stroke-width="2"/>
</g>
<g>
	<polygon points="97,117 104,122 96,126" fill="#aaff00"/>
	<line x1="120" y1="160" x2="100" y2="124" stroke="#aaff00" stroke-width="2"/>
</g>
<g>
	<polygon points="187,165 179,169 180,160" fill="#aaff00"/>
	<line x1="120" y1="160" x2="180" y2="165" stroke="#aaff00" stroke-width="2"/>
</g>
<g>
	<polygon points="75,74 83,79 75,83" fill="#aaff00"/>
	<line x1="95" y1="114" x2="79" y2="80" stroke="#aaff00" stroke-width="2"/>
</g>
<g>
	<polygon points="260,93 258,102 252,95" fill="#aaff00"/>
	<line x1="192" y1="166" x2="255" y2="98" stroke="#aaff00" stroke-width="2"/>
</g>
<g>
	<polygon points="123,157 126,148 132,155" fill="#aaff00"/>
	<line x1="162" y1="125" x2="128" y2="152" stroke="#aaff00" stroke-width="2"/>
</g>
<g>
	<polygon points="261,86 253,82 260,77" fill="#aaff00"/>
	<line x1="234" y1="50" x2="256" y2="80" stroke="#aaff00" stroke-width="2"/>
</g>

<g fill="#000000">
	<circle cx="263" cy="89" r="4"/>
</g>
<g fill="#000000">
	<circle cx="73" cy="69" r="4"/>
</g>
<g fill="#000000">
	<circle cx="267" cy="250" r="4"/>
</g>
<g fill="#000000">
	<circle cx="350" cy="116" r="4"/>
</g>
<g fill="#000000">
	<circle cx="323" cy="66" r="4"/>
</g>
<g fill="#000000">
	<circle cx="217" cy="110" r="4"/>
</g>
<g fill="#000000">
	<circle cx="250" cy="191" r="4"/>
</g>
<g fill="#000000">
	<circle cx="293" cy="139" r="4"/>
</g>
<g fill="#000000">
	<circle cx="149" cy="56" r="4"/>
</g>
<g fill="#000000">
	<circle cx="233" cy="49" r="4"/>
</g>
<g fill="#000000">
	<circle cx="161" cy="124" r="4"/>
</g>
<g fill="#000000">
	<circle cx="119" cy="159" r="4"/>
</g>
<g fill="#000000">
	<circle cx="50" cy="137" r="4"/>
</g>
<g fill="#000000">
	<circle cx="94" cy="113" r="4"/>
</g>
<g fill="#000000">
	<circle cx="191" cy="165" r="4"/>
</g>

</g>

</svg>
