<?xml version="1.0" encoding="utf-8"?>
<!-- Created with Hypercube (http://tumic.wz.cz/hypercube) -->

<svg width="400" height="300" viewBox="0 0 400 300" xmlns="http://www.w3.org/2000/svg" baseProfile="tiny">

<g font-family="Helvetica" font-weight="normal">

<g>
	<polygon points="216,186 221,179 225,187" fill="#aaff00"/>
	<line x1="296" y1="145" x2="223" y2="183" stroke="#aaff00" stroke-width="2"/>
</g>
<g>
	<polygon points="267,87 274,91 266,96" fill="#aaff00"/>
	<line x1="296" y1="145" x2="270" y2="93" stroke="#aaff00" stroke-width="2"/>
</g>
<g>
	<polygon points="263,161 268,154 272,162" fill="#aaff00"/>
	<line x1="296" y1="145" x2="270" y2="158" stroke="#aaff00" stroke-width="2"/>
</g>
<g>
	<polygon points="239,247 231,242 240,238" fill="#aaff00"/>
	<line x1="213" y1="189" x2="236" y2="241" stroke="#aaff00" stroke-width="2"/>
</g>
<g>
	<polygon points="145,157 154,157 150,165" fill="#aaff00"/>
	<line x1="213" y1="189" x2="151" y2="160" stroke="#aaff00" stroke-width="2"/>
</g>
<g>
	<polygon points="224,132 227,140 218,139" fill="#aaff00"/>
	<line x1="213" y1="189" x2="222" y2="139" stroke="#aaff00" stroke-width="2"/>
</g>
<g>
	<polygon points="245,253 254,251 251,260" fill="#aaff00"/>
	<line x1="298" y1="272" x2="252" y2="255" stroke="#aaff00" stroke-width="2"/>
</g>
<g>
	<polygon points="138,152 130,147 138,143" fill="#aaff00"/>
	<line x1="100" y1="89" x2="134" y2="146" stroke="#aaff00" stroke-width="2"/>
</g>
<g>
	<polygon points="48,114 52,107 57,115" fill="#aaff00"/>
	<line x1="100" y1="89" x2="54" y2="111" stroke="#aaff00" stroke-width="2"/>
</g>
<g>
	<polygon points="62,43 71,46 64,52" fill="#aaff00"/>
	<line x1="100" y1="89" x2="67" y2="49" stroke="#aaff00" stroke-width="2"/>
</g>
<g>
	<polygon points="103,85 105,76 111,83" fill="#aaff00"/>
	<line x1="151" y1="35" x2="108" y2="80" stroke="#aaff00" stroke-width="2"/>
</g>
<g>
	<polygon points="155,34 162,29 163,38" fill="#aaff00"/>
	<line x1="222" y1="28" x2="162" y2="33" stroke="#aaff00" stroke-width="2"/>
</g>
<g>
	<polygon points="224,31 233,34 226,40" fill="#aaff00"/>
	<line x1="265" y1="83" x2="229" y2="37" stroke="#aaff00" stroke-width="2"/>
</g>
<g>
	<polygon points="262,86 260,95 253,89" fill="#aaff00"/>
	<line x1="225" y1="128" x2="257" y2="91" stroke="#aaff00" stroke-width="2"/>
</g>
<g>
	<polygon points="256,160 248,158 254,152" fill="#aaff00"/>
	<line x1="225" y1="128" x2="251" y2="155" stroke="#aaff00" stroke-width="2"/>
</g>
<g>
	<polygon points="184,102 193,102 188,110" fill="#aaff00"/>
	<line x1="225" y1="128" x2="190" y2="106" stroke="#aaff00" stroke-width="2"/>
</g>
<g>
	<polygon points="351,273 343,278 343,269" fill="#aaff00"/>
	<line x1="298" y1="272" x2="344" y2="273" stroke="#aaff00" stroke-width="2"/>
</g>

<g fill="#000000">
	<circle cx="295" cy="144" r="4"/>
</g>
<g fill="#000000">
	<circle cx="212" cy="188" r="4"/>
</g>
<g fill="#000000">
	<circle cx="264" cy="82" r="4"/>
</g>
<g fill="#000000">
	<circle cx="259" cy="163" r="4"/>
</g>
<g fill="#000000">
	<circle cx="240" cy="251" r="4"/>
</g>
<g fill="#000000">
	<circle cx="140" cy="155" r="4"/>
</g>
<g fill="#000000">
	<circle cx="224" cy="127" r="4"/>
</g>
<g fill="#000000">
	<circle cx="150" cy="34" r="4"/>
</g>
<g fill="#000000">
	<circle cx="221" cy="27" r="4"/>
</g>
<g fill="#000000">
	<circle cx="99" cy="88" r="4"/>
</g>
<g fill="#000000">
	<circle cx="355" cy="273" r="4"/>
</g>
<g fill="#000000">
	<circle cx="297" cy="271" r="4"/>
</g>
<g fill="#000000">
	<circle cx="43" cy="116" r="4"/>
</g>
<g fill="#000000">
	<circle cx="180" cy="99" r="4"/>
</g>
<g fill="#000000">
	<circle cx="59" cy="39" r="4"/>
</g>

</g>

</svg>
