<?xml version="1.0" encoding="utf-8"?>
<!-- Created with Hypercube (http://tumic.wz.cz/hypercube) -->

<svg width="400" height="300" viewBox="0 0 400 300" xmlns="http://www.w3.org/2000/svg" baseProfile="tiny">

<g font-family="Helvetica" font-weight="normal">

<g>
	<polygon points="299,42 297,51 290,45" fill="#aaff00"/>
	<line x1="263" y1="87" x2="294" y2="48" stroke="#aaff00" stroke-width="2"/>
</g>
<g>
	<polygon points="260,90 259,99 252,94" fill="#aaff00"/>
	<line x1="200" y1="171" x2="255" y2="96" stroke="#aaff00" stroke-width="2"/>
</g>
<g>
	<polygon points="195,172 189,178 186,170" fill="#aaff00"/>
	<line x1="99" y1="200" x2="188" y2="174" stroke="#aaff00" stroke-width="2"/>
</g>
<g>
	<polygon points="203,173 212,173 207,181" fill="#aaff00"/>
	<line x1="245" y1="200" x2="209" y2="177" stroke="#aaff00" stroke-width="2"/>
</g>
<g>
	<polygon points="199,175 201,183 193,182" fill="#aaff00"/>
	<line x1="189" y1="225" x2="197" y2="182" stroke="#aaff00" stroke-width="2"/>
</g>
<g>
	<polygon points="203,173 212,173 208,180" fill="#aaff00"/>
	<line x1="294" y1="224" x2="210" y2="176" stroke="#aaff00" stroke-width="2"/>
</g>
<g>
	<polygon points="196,168 187,169 191,161" fill="#aaff00"/>
	<line x1="112" y1="124" x2="189" y2="165" stroke="#aaff00" stroke-width="2"/>
</g>
<g>
	<polygon points="204,170 211,164 212,173" fill="#aaff00"/>
	<line x1="292" y1="154" x2="211" y2="168" stroke="#aaff00" stroke-width="2"/>
</g>
<g>
	<polygon points="197,167 189,163 196,158" fill="#aaff00"/>
	<line x1="170" y1="126" x2="193" y2="161" stroke="#aaff00" stroke-width="2"/>
</g>
<g>
	<polygon points="203,167 205,158 211,164" fill="#aaff00"/>
	<line x1="234" y1="134" x2="207" y2="162" stroke="#aaff00" stroke-width="2"/>
</g>
<g>
	<polygon points="201,175 208,181 199,184" fill="#aaff00"/>
	<line x1="231" y1="263" x2="203" y2="182" stroke="#aaff00" stroke-width="2"/>
</g>
<g>
	<polygon points="197,174 196,183 189,178" fill="#aaff00"/>
	<line x1="142" y1="256" x2="193" y2="180" stroke="#aaff00" stroke-width="2"/>
</g>
<g>
	<polygon points="199,166 193,159 202,158" fill="#aaff00"/>
	<line x1="187" y1="74" x2="198" y2="159" stroke="#aaff00" stroke-width="2"/>
</g>
<g>
	<polygon points="195,171 188,177 187,168" fill="#aaff00"/>
	<line x1="145" y1="180" x2="188" y2="172" stroke="#aaff00" stroke-width="2"/>
</g>

<g fill="#000000">
	<circle cx="262" cy="86" r="4"/>
</g>
<g fill="#000000">
	<circle cx="301" cy="38" r="4"/>
</g>
<g fill="#000000">
	<circle cx="199" cy="170" r="4"/>
</g>
<g fill="#000000">
	<circle cx="98" cy="199" r="4"/>
</g>
<g fill="#000000">
	<circle cx="244" cy="199" r="4"/>
</g>
<g fill="#000000">
	<circle cx="188" cy="224" r="4"/>
</g>
<g fill="#000000">
	<circle cx="293" cy="223" r="4"/>
</g>
<g fill="#000000">
	<circle cx="111" cy="123" r="4"/>
</g>
<g fill="#000000">
	<circle cx="291" cy="153" r="4"/>
</g>
<g fill="#000000">
	<circle cx="169" cy="125" r="4"/>
</g>
<g fill="#000000">
	<circle cx="233" cy="133" r="4"/>
</g>
<g fill="#000000">
	<circle cx="230" cy="262" r="4"/>
</g>
<g fill="#000000">
	<circle cx="141" cy="255" r="4"/>
</g>
<g fill="#000000">
	<circle cx="186" cy="73" r="4"/>
</g>
<g fill="#000000">
	<circle cx="144" cy="179" r="4"/>
</g>

</g>

</svg>
