<?xml version="1.0" encoding="utf-8"?>
<!-- Created with Hypercube (http://tumic.wz.cz/hypercube) -->

<svg width="400" height="300" viewBox="0 0 400 300" xmlns="http://www.w3.org/2000/svg" baseProfile="tiny">

<g font-family="Helvetica" font-weight="normal">

<g>
	<polygon points="187,226 191,234 182,234" fill="#aaff00"/>
	<line x1="189" y1="286" x2="187" y2="233" stroke="#aaff00" stroke-width="2"/>
</g>
<g>
	<polygon points="263,234 255,237 256,228" fill="#aaff00"/>
	<line x1="187" y1="222" x2="256" y2="233" stroke="#aaff00" stroke-width="2"/>
</g>
<g>
	<polygon points="131,251 136,244 140,252" fill="#aaff00"/>
	<line x1="187" y1="222" x2="138" y2="248" stroke="#aaff00" stroke-width="2"/>
</g>
<g>
	<polygon points="163,147 169,153 161,156" fill="#aaff00"/>
	<line x1="187" y1="222" x2="165" y2="154" stroke="#aaff00" stroke-width="2"/>
</g>
<g>
	<polygon points="280,288 273,281 282,280" fill="#aaff00"/>
	<line x1="268" y1="235" x2="278" y2="281" stroke="#aaff00" stroke-width="2"/>
</g>
<g>
	<polygon points="296,187 296,196 288,192" fill="#aaff00"/>
	<line x1="268" y1="235" x2="292" y2="193" stroke="#aaff00" stroke-width="2"/>
</g>
<g>
	<polygon points="326,245 318,248 319,239" fill="#aaff00"/>
	<line x1="268" y1="235" x2="319" y2="243" stroke="#aaff00" stroke-width="2"/>
</g>
<g>
	<polygon points="87,287 90,278 96,285" fill="#aaff00"/>
	<line x1="128" y1="254" x2="93" y2="282" stroke="#aaff00" stroke-width="2"/>
</g>
<g>
	<polygon points="131,70 138,75 130,79" fill="#aaff00"/>
	<line x1="162" y1="143" x2="134" y2="76" stroke="#aaff00" stroke-width="2"/>
</g>
<g>
	<polygon points="110,160 116,153 119,162" fill="#aaff00"/>
	<line x1="162" y1="143" x2="117" y2="158" stroke="#aaff00" stroke-width="2"/>
</g>
<g>
	<polygon points="211,117 206,124 202,116" fill="#aaff00"/>
	<line x1="162" y1="143" x2="204" y2="120" stroke="#aaff00" stroke-width="2"/>
</g>
<g>
	<polygon points="74,70 81,65 82,74" fill="#aaff00"/>
	<line x1="130" y1="66" x2="81" y2="70" stroke="#aaff00" stroke-width="2"/>
</g>
<g>
	<polygon points="102,11 109,16 101,20" fill="#aaff00"/>
	<line x1="130" y1="66" x2="105" y2="18" stroke="#aaff00" stroke-width="2"/>
</g>
<g>
	<polygon points="172,28 169,37 163,30" fill="#aaff00"/>
	<line x1="130" y1="66" x2="167" y2="33" stroke="#aaff00" stroke-width="2"/>
</g>

<g fill="#000000">
	<circle cx="188" cy="285" r="4"/>
</g>
<g fill="#000000">
	<circle cx="186" cy="221" r="4"/>
</g>
<g fill="#000000">
	<circle cx="267" cy="234" r="4"/>
</g>
<g fill="#000000">
	<circle cx="127" cy="253" r="4"/>
</g>
<g fill="#000000">
	<circle cx="161" cy="142" r="4"/>
</g>
<g fill="#000000">
	<circle cx="280" cy="292" r="4"/>
</g>
<g fill="#000000">
	<circle cx="298" cy="183" r="4"/>
</g>
<g fill="#000000">
	<circle cx="330" cy="245" r="4"/>
</g>
<g fill="#000000">
	<circle cx="83" cy="289" r="4"/>
</g>
<g fill="#000000">
	<circle cx="129" cy="65" r="4"/>
</g>
<g fill="#000000">
	<circle cx="105" cy="161" r="4"/>
</g>
<g fill="#000000">
	<circle cx="214" cy="114" r="4"/>
</g>
<g fill="#000000">
	<circle cx="69" cy="70" r="4"/>
</g>
<g fill="#000000">
	<circle cx="99" cy="7" r="4"/>
</g>
<g fill="#000000">
	<circle cx="175" cy="25" r="4"/>
</g>

</g>

</svg>
