<?xml version="1.0" encoding="utf-8"?>
<!-- Created with Hypercube (http://tumic.wz.cz/hypercube) -->

<svg width="400" height="300" viewBox="0 0 400 300" xmlns="http://www.w3.org/2000/svg" baseProfile="tiny">

<g font-family="Helvetica" font-weight="normal">

<g>
	<polygon points="181,187 182,178 189,184" fill="#aaff00"/>
	<line x1="211" y1="155" x2="185" y2="182" stroke="#aaff00" stroke-width="2"/>
</g>
<g>
	<polygon points="283,105 279,113 274,106" fill="#aaff00"/>
	<line x1="211" y1="155" x2="277" y2="109" stroke="#aaff00" stroke-width="2"/>
</g>
<g>
	<polygon points="122,180 128,174 131,182" fill="#aaff00"/>
	<line x1="211" y1="155" x2="129" y2="178" stroke="#aaff00" stroke-width="2"/>
</g>
<g>
	<polygon points="122,182 130,179 129,188" fill="#aaff00"/>
	<line x1="178" y1="191" x2="129" y2="183" stroke="#aaff00" stroke-width="2"/>
</g>
<g>
	<polygon points="92,250 91,241 99,245" fill="#aaff00"/>
	<line x1="118" y1="182" x2="95" y2="244" stroke="#aaff00" stroke-width="2"/>
</g>
<g>
	<polygon points="140,129 141,138 133,134" fill="#aaff00"/>
	<line x1="118" y1="182" x2="137" y2="135" stroke="#aaff00" stroke-width="2"/>
</g>
<g>
	<polygon points="58,209 63,201 67,210" fill="#aaff00"/>
	<line x1="118" y1="182" x2="64" y2="206" stroke="#aaff00" stroke-width="2"/>
</g>
<g>
	<polygon points="86,111 94,116 85,120" fill="#aaff00"/>
	<line x1="118" y1="182" x2="89" y2="117" stroke="#aaff00" stroke-width="2"/>
</g>
<g>
	<polygon points="52,157 61,156 57,164" fill="#aaff00"/>
	<line x1="118" y1="182" x2="58" y2="160" stroke="#aaff00" stroke-width="2"/>
</g>
<g>
	<polygon points="147,242 139,237 147,233" fill="#aaff00"/>
	<line x1="118" y1="182" x2="143" y2="236" stroke="#aaff00" stroke-width="2"/>
</g>
<g>
	<polygon points="212,159 219,164 211,168" fill="#aaff00"/>
	<line x1="231" y1="206" x2="215" y2="165" stroke="#aaff00" stroke-width="2"/>
</g>
<g>
	<polygon points="182,192 191,190 188,198" fill="#aaff00"/>
	<line x1="231" y1="206" x2="189" y2="194" stroke="#aaff00" stroke-width="2"/>
</g>
<g>
	<polygon points="348,101 340,105 340,96" fill="#aaff00"/>
	<line x1="287" y1="103" x2="341" y2="101" stroke="#aaff00" stroke-width="2"/>
</g>
<g>
	<polygon points="250,60 259,63 252,69" fill="#aaff00"/>
	<line x1="287" y1="103" x2="255" y2="65" stroke="#aaff00" stroke-width="2"/>
</g>
<g>
	<polygon points="311,153 303,148 311,144" fill="#aaff00"/>
	<line x1="287" y1="103" x2="308" y2="147" stroke="#aaff00" stroke-width="2"/>
</g>
<g>
	<polygon points="314,49 315,58 307,54" fill="#aaff00"/>
	<line x1="287" y1="103" x2="311" y2="56" stroke="#aaff00" stroke-width="2"/>
</g>

<g fill="#000000">
	<circle cx="210" cy="154" r="4"/>
</g>
<g fill="#000000">
	<circle cx="177" cy="190" r="4"/>
</g>
<g fill="#000000">
	<circle cx="230" cy="205" r="4"/>
</g>
<g fill="#000000">
	<circle cx="286" cy="102" r="4"/>
</g>
<g fill="#000000">
	<circle cx="117" cy="181" r="4"/>
</g>
<g fill="#000000">
	<circle cx="352" cy="100" r="4"/>
</g>
<g fill="#000000">
	<circle cx="247" cy="56" r="4"/>
</g>
<g fill="#000000">
	<circle cx="312" cy="157" r="4"/>
</g>
<g fill="#000000">
	<circle cx="316" cy="45" r="4"/>
</g>
<g fill="#000000">
	<circle cx="90" cy="254" r="4"/>
</g>
<g fill="#000000">
	<circle cx="141" cy="124" r="4"/>
</g>
<g fill="#000000">
	<circle cx="53" cy="210" r="4"/>
</g>
<g fill="#000000">
	<circle cx="84" cy="106" r="4"/>
</g>
<g fill="#000000">
	<circle cx="47" cy="155" r="4"/>
</g>
<g fill="#000000">
	<circle cx="148" cy="246" r="4"/>
</g>

</g>

</svg>
