<?xml version="1.0" encoding="utf-8"?>
<!-- Created with Hypercube (http://tumic.wz.cz/hypercube) -->

<svg width="400" height="300" viewBox="0 0 400 300" xmlns="http://www.w3.org/2000/svg" baseProfile="tiny">

<g font-family="Helvetica" font-weight="normal">

<g>
	<polygon points="124,82 133,84 127,91" fill="#aaff00"/>
	<line x1="183" y1="129" x2="130" y2="87" stroke="#aaff00" stroke-width="2"/>
</g>
<g>
	<polygon points="119,84 120,93 112,89" fill="#aaff00"/>
	<line x1="99" y1="135" x2="116" y2="90" stroke="#aaff00" stroke-width="2"/>
</g>
<g>
	<polygon points="118,75 111,71 119,66" fill="#aaff00"/>
	<line x1="92" y1="22" x2="115" y2="69" stroke="#aaff00" stroke-width="2"/>
</g>
<g>
	<polygon points="124,76 126,68 132,74" fill="#aaff00"/>
	<line x1="161" y1="39" x2="129" y2="71" stroke="#aaff00" stroke-width="2"/>
</g>
<g>
	<polygon points="116,79 108,84 108,75" fill="#aaff00"/>
	<line x1="54" y1="78" x2="109" y2="79" stroke="#aaff00" stroke-width="2"/>
</g>
<g>
	<polygon points="289,246 282,241 290,237" fill="#aaff00"/>
	<line x1="268" y1="196" x2="286" y2="240" stroke="#aaff00" stroke-width="2"/>
</g>
<g>
	<polygon points="205,227 210,219 214,227" fill="#aaff00"/>
	<line x1="268" y1="196" x2="211" y2="223" stroke="#aaff00" stroke-width="2"/>
</g>
<g>
	<polygon points="326,186 319,192 318,183" fill="#aaff00"/>
	<line x1="268" y1="196" x2="319" y2="187" stroke="#aaff00" stroke-width="2"/>
</g>
<g>
	<polygon points="320,135 318,144 311,138" fill="#aaff00"/>
	<line x1="268" y1="196" x2="315" y2="140" stroke="#aaff00" stroke-width="2"/>
</g>
<g>
	<polygon points="265,127 270,135 261,135" fill="#aaff00"/>
	<line x1="268" y1="196" x2="265" y2="134" stroke="#aaff00" stroke-width="2"/>
</g>
<g>
	<polygon points="229,176 237,175 233,183" fill="#aaff00"/>
	<line x1="268" y1="196" x2="235" y2="179" stroke="#aaff00" stroke-width="2"/>
</g>
<g>
	<polygon points="186,131 195,133 189,140" fill="#aaff00"/>
	<line x1="268" y1="196" x2="192" y2="136" stroke="#aaff00" stroke-width="2"/>
</g>
<g>
	<polygon points="241,273 239,264 248,267" fill="#aaff00"/>
	<line x1="268" y1="196" x2="243" y2="266" stroke="#aaff00" stroke-width="2"/>
</g>
<g>
	<polygon points="344,241 335,241 339,233" fill="#aaff00"/>
	<line x1="268" y1="196" x2="337" y2="237" stroke="#aaff00" stroke-width="2"/>
</g>

<g fill="#000000">
	<circle cx="267" cy="195" r="4"/>
</g>
<g fill="#000000">
	<circle cx="290" cy="250" r="4"/>
</g>
<g fill="#000000">
	<circle cx="200" cy="228" r="4"/>
</g>
<g fill="#000000">
	<circle cx="330" cy="185" r="4"/>
</g>
<g fill="#000000">
	<circle cx="322" cy="131" r="4"/>
</g>
<g fill="#000000">
	<circle cx="264" cy="122" r="4"/>
</g>
<g fill="#000000">
	<circle cx="224" cy="173" r="4"/>
</g>
<g fill="#000000">
	<circle cx="182" cy="128" r="4"/>
</g>
<g fill="#000000">
	<circle cx="120" cy="79" r="4"/>
</g>
<g fill="#000000">
	<circle cx="239" cy="277" r="4"/>
</g>
<g fill="#000000">
	<circle cx="347" cy="243" r="4"/>
</g>
<g fill="#000000">
	<circle cx="98" cy="134" r="4"/>
</g>
<g fill="#000000">
	<circle cx="91" cy="21" r="4"/>
</g>
<g fill="#000000">
	<circle cx="160" cy="38" r="4"/>
</g>
<g fill="#000000">
	<circle cx="53" cy="77" r="4"/>
</g>

</g>

</svg>
