<?xml version="1.0" encoding="utf-8"?>
<!-- Created with Hypercube (http://tumic.wz.cz/hypercube) -->

<svg width="400" height="300" viewBox="0 0 400 300" xmlns="http://www.w3.org/2000/svg" baseProfile="tiny">

<g font-family="Helvetica" font-weight="normal">

<g>
	<polygon points="284,259 275,258 280,251" fill="#aaff00"/>
	<line x1="236" y1="225" x2="278" y2="255" stroke="#aaff00" stroke-width="2"/>
</g>
<g>
	<polygon points="234,229 235,238 227,234" fill="#aaff00"/>
	<line x1="211" y1="284" x2="231" y2="235" stroke="#aaff00" stroke-width="2"/>
</g>
<g>
	<polygon points="237,220 236,211 244,215" fill="#aaff00"/>
	<line x1="275" y1="131" x2="240" y2="214" stroke="#aaff00" stroke-width="2"/>
</g>
<g>
	<polygon points="234,123 242,120 241,129" fill="#aaff00"/>
	<line x1="275" y1="131" x2="241" y2="125" stroke="#aaff00" stroke-width="2"/>
</g>
<g>
	<polygon points="144,125 148,117 153,124" fill="#aaff00"/>
	<line x1="216" y1="73" x2="150" y2="121" stroke="#aaff00" stroke-width="2"/>
</g>
<g>
	<polygon points="228,118 222,112 231,109" fill="#aaff00"/>
	<line x1="216" y1="73" x2="226" y2="111" stroke="#aaff00" stroke-width="2"/>
</g>
<g>
	<polygon points="271,127 263,125 269,119" fill="#aaff00"/>
	<line x1="216" y1="73" x2="266" y2="122" stroke="#aaff00" stroke-width="2"/>
</g>
<g>
	<polygon points="165,88 171,82 174,90" fill="#aaff00"/>
	<line x1="216" y1="73" x2="172" y2="86" stroke="#aaff00" stroke-width="2"/>
</g>
<g>
	<polygon points="175,135 167,137 168,129" fill="#aaff00"/>
	<line x1="141" y1="128" x2="168" y2="133" stroke="#aaff00" stroke-width="2"/>
</g>
<g>
	<polygon points="143,124 142,115 150,119" fill="#aaff00"/>
	<line x1="161" y1="90" x2="146" y2="117" stroke="#aaff00" stroke-width="2"/>
</g>
<g>
	<polygon points="178,131 171,126 179,122" fill="#aaff00"/>
	<line x1="161" y1="90" x2="175" y2="125" stroke="#aaff00" stroke-width="2"/>
</g>
<g>
	<polygon points="225,121 216,121 220,113" fill="#aaff00"/>
	<line x1="161" y1="90" x2="219" y2="117" stroke="#aaff00" stroke-width="2"/>
</g>
<g>
	<polygon points="115,176 114,167 122,171" fill="#aaff00"/>
	<line x1="161" y1="90" x2="118" y2="169" stroke="#aaff00" stroke-width="2"/>
</g>
<g>
	<polygon points="144,130 153,132 147,139" fill="#aaff00"/>
	<line x1="197" y1="176" x2="149" y2="135" stroke="#aaff00" stroke-width="2"/>
</g>
<g>
	<polygon points="181,140 188,145 180,149" fill="#aaff00"/>
	<line x1="197" y1="176" x2="184" y2="146" stroke="#aaff00" stroke-width="2"/>
</g>
<g>
	<polygon points="227,126 227,135 219,131" fill="#aaff00"/>
	<line x1="197" y1="176" x2="223" y2="132" stroke="#aaff00" stroke-width="2"/>
</g>
<g>
	<polygon points="117,179 125,174 125,183" fill="#aaff00"/>
	<line x1="197" y1="176" x2="124" y2="179" stroke="#aaff00" stroke-width="2"/>
</g>
<g>
	<polygon points="245,179 237,183 238,174" fill="#aaff00"/>
	<line x1="197" y1="176" x2="238" y2="179" stroke="#aaff00" stroke-width="2"/>
</g>
<g>
	<polygon points="237,220 235,211 243,214" fill="#aaff00"/>
	<line x1="250" y1="180" x2="239" y2="213" stroke="#aaff00" stroke-width="2"/>
</g>
<g>
	<polygon points="231,127 238,133 229,136" fill="#aaff00"/>
	<line x1="250" y1="180" x2="233" y2="134" stroke="#aaff00" stroke-width="2"/>
</g>
<g>
	<polygon points="232,222 223,222 227,215" fill="#aaff00"/>
	<line x1="153" y1="178" x2="225" y2="219" stroke="#aaff00" stroke-width="2"/>
</g>
<g>
	<polygon points="142,132 148,138 139,141" fill="#aaff00"/>
	<line x1="153" y1="178" x2="143" y2="139" stroke="#aaff00" stroke-width="2"/>
</g>
<g>
	<polygon points="177,139 177,148 169,143" fill="#aaff00"/>
	<line x1="153" y1="178" x2="173" y2="145" stroke="#aaff00" stroke-width="2"/>
</g>
<g>
	<polygon points="117,179 125,174 125,183" fill="#aaff00"/>
	<line x1="153" y1="178" x2="124" y2="179" stroke="#aaff00" stroke-width="2"/>
</g>
<g>
	<polygon points="214,68 206,63 214,59" fill="#aaff00"/>
	<line x1="189" y1="17" x2="210" y2="62" stroke="#aaff00" stroke-width="2"/>
</g>
<g>
	<polygon points="219,70 222,61 228,68" fill="#aaff00"/>
	<line x1="267" y1="29" x2="224" y2="65" stroke="#aaff00" stroke-width="2"/>
</g>

<g fill="#000000">
	<circle cx="235" cy="224" r="4"/>
</g>
<g fill="#000000">
	<circle cx="287" cy="261" r="4"/>
</g>
<g fill="#000000">
	<circle cx="210" cy="283" r="4"/>
</g>
<g fill="#000000">
	<circle cx="140" cy="127" r="4"/>
</g>
<g fill="#000000">
	<circle cx="179" cy="135" r="4"/>
</g>
<g fill="#000000">
	<circle cx="215" cy="72" r="4"/>
</g>
<g fill="#000000">
	<circle cx="229" cy="122" r="4"/>
</g>
<g fill="#000000">
	<circle cx="274" cy="130" r="4"/>
</g>
<g fill="#000000">
	<circle cx="160" cy="89" r="4"/>
</g>
<g fill="#000000">
	<circle cx="112" cy="179" r="4"/>
</g>
<g fill="#000000">
	<circle cx="188" cy="16" r="4"/>
</g>
<g fill="#000000">
	<circle cx="266" cy="28" r="4"/>
</g>
<g fill="#000000">
	<circle cx="196" cy="175" r="4"/>
</g>
<g fill="#000000">
	<circle cx="249" cy="179" r="4"/>
</g>
<g fill="#000000">
	<circle cx="152" cy="177" r="4"/>
</g>

</g>

</svg>
