<?xml version="1.0" encoding="utf-8"?>
<!-- Created with Hypercube (http://tumic.wz.cz/hypercube) -->

<svg width="400" height="300" viewBox="0 0 400 300" xmlns="http://www.w3.org/2000/svg" baseProfile="tiny">

<g font-family="Helvetica" font-weight="normal">

<g>
	<polygon points="278,291 270,287 277,282" fill="#aaff00"/>
	<line x1="247" y1="249" x2="274" y2="285" stroke="#aaff00" stroke-width="2"/>
</g>
<g>
	<polygon points="226,192 233,198 224,201" fill="#aaff00"/>
	<line x1="247" y1="249" x2="228" y2="198" stroke="#aaff00" stroke-width="2"/>
</g>
<g>
	<polygon points="178,219 182,211 187,218" fill="#aaff00"/>
	<line x1="225" y1="188" x2="184" y2="215" stroke="#aaff00" stroke-width="2"/>
</g>
<g>
	<polygon points="205,111 211,117 202,120" fill="#aaff00"/>
	<line x1="225" y1="188" x2="206" y2="118" stroke="#aaff00" stroke-width="2"/>
</g>
<g>
	<polygon points="276,179 269,185 268,176" fill="#aaff00"/>
	<line x1="225" y1="188" x2="269" y2="180" stroke="#aaff00" stroke-width="2"/>
</g>
<g>
	<polygon points="161,136 165,128 170,135" fill="#aaff00"/>
	<line x1="204" y1="107" x2="167" y2="132" stroke="#aaff00" stroke-width="2"/>
</g>
<g>
	<polygon points="267,62 263,70 258,63" fill="#aaff00"/>
	<line x1="204" y1="107" x2="261" y2="66" stroke="#aaff00" stroke-width="2"/>
</g>
<g>
	<polygon points="135,60 144,61 139,68" fill="#aaff00"/>
	<line x1="204" y1="107" x2="141" y2="64" stroke="#aaff00" stroke-width="2"/>
</g>
<g>
	<polygon points="319,88 310,88 314,80" fill="#aaff00"/>
	<line x1="271" y1="60" x2="312" y2="85" stroke="#aaff00" stroke-width="2"/>
</g>
<g>
	<polygon points="250,12 257,17 249,21" fill="#aaff00"/>
	<line x1="271" y1="60" x2="253" y2="18" stroke="#aaff00" stroke-width="2"/>
</g>
<g>
	<polygon points="319,16 316,25 310,18" fill="#aaff00"/>
	<line x1="271" y1="60" x2="314" y2="21" stroke="#aaff00" stroke-width="2"/>
</g>
<g>
	<polygon points="80,88 85,80 89,88" fill="#aaff00"/>
	<line x1="132" y1="58" x2="87" y2="84" stroke="#aaff00" stroke-width="2"/>
</g>
<g>
	<polygon points="146,9 148,18 140,15" fill="#aaff00"/>
	<line x1="132" y1="58" x2="144" y2="16" stroke="#aaff00" stroke-width="2"/>
</g>
<g>
	<polygon points="81,20 90,21 85,28" fill="#aaff00"/>
	<line x1="132" y1="58" x2="87" y2="24" stroke="#aaff00" stroke-width="2"/>
</g>

<g fill="#000000">
	<circle cx="280" cy="294" r="4"/>
</g>
<g fill="#000000">
	<circle cx="246" cy="248" r="4"/>
</g>
<g fill="#000000">
	<circle cx="224" cy="187" r="4"/>
</g>
<g fill="#000000">
	<circle cx="174" cy="221" r="4"/>
</g>
<g fill="#000000">
	<circle cx="203" cy="106" r="4"/>
</g>
<g fill="#000000">
	<circle cx="280" cy="178" r="4"/>
</g>
<g fill="#000000">
	<circle cx="157" cy="138" r="4"/>
</g>
<g fill="#000000">
	<circle cx="270" cy="59" r="4"/>
</g>
<g fill="#000000">
	<circle cx="131" cy="57" r="4"/>
</g>
<g fill="#000000">
	<circle cx="322" cy="90" r="4"/>
</g>
<g fill="#000000">
	<circle cx="248" cy="7" r="4"/>
</g>
<g fill="#000000">
	<circle cx="322" cy="13" r="4"/>
</g>
<g fill="#000000">
	<circle cx="76" cy="90" r="4"/>
</g>
<g fill="#000000">
	<circle cx="147" cy="4" r="4"/>
</g>
<g fill="#000000">
	<circle cx="77" cy="17" r="4"/>
</g>

</g>

</svg>
