<?xml version="1.0" encoding="utf-8"?>
<!-- Created with Hypercube (http://tumic.wz.cz/hypercube) -->

<svg width="400" height="300" viewBox="0 0 400 300" xmlns="http://www.w3.org/2000/svg" baseProfile="tiny">

<g font-family="Helvetica" font-weight="normal">

<g>
	<polygon points="328,151 337,154 330,160" fill="#aaff00"/>
	<line x1="350" y1="177" x2="333" y2="157" stroke="#aaff00" stroke-width="2"/>
</g>
<g>
	<polygon points="318,203 321,194 327,201" fill="#aaff00"/>
	<line x1="350" y1="177" x2="324" y2="198" stroke="#aaff00" stroke-width="2"/>
</g>
<g>
	<polygon points="288,176 296,171 296,180" fill="#aaff00"/>
	<line x1="350" y1="177" x2="295" y2="176" stroke="#aaff00" stroke-width="2"/>
</g>
<g>
	<polygon points="282,233 285,224 291,231" fill="#aaff00"/>
	<line x1="350" y1="177" x2="287" y2="228" stroke="#aaff00" stroke-width="2"/>
</g>
<g>
	<polygon points="340,93 345,100 336,101" fill="#aaff00"/>
	<line x1="350" y1="177" x2="341" y2="100" stroke="#aaff00" stroke-width="2"/>
</g>
<g>
	<polygon points="303,120 312,123 305,129" fill="#aaff00"/>
	<line x1="350" y1="177" x2="308" y2="126" stroke="#aaff00" stroke-width="2"/>
</g>
<g>
	<polygon points="260,148 268,144 268,153" fill="#aaff00"/>
	<line x1="326" y1="148" x2="267" y2="148" stroke="#aaff00" stroke-width="2"/>
</g>
<g>
	<polygon points="259,152 267,154 261,160" fill="#aaff00"/>
	<line x1="315" y1="206" x2="264" y2="157" stroke="#aaff00" stroke-width="2"/>
</g>
<g>
	<polygon points="259,152 267,154 261,160" fill="#aaff00"/>
	<line x1="284" y1="176" x2="264" y2="157" stroke="#aaff00" stroke-width="2"/>
</g>
<g>
	<polygon points="257,153 263,159 254,162" fill="#aaff00"/>
	<line x1="279" y1="236" x2="258" y2="160" stroke="#aaff00" stroke-width="2"/>
</g>
<g>
	<polygon points="259,146 263,138 268,145" fill="#aaff00"/>
	<line x1="340" y1="89" x2="265" y2="142" stroke="#aaff00" stroke-width="2"/>
</g>
<g>
	<polygon points="259,146 263,138 268,145" fill="#aaff00"/>
	<line x1="301" y1="117" x2="265" y2="142" stroke="#aaff00" stroke-width="2"/>
</g>
<g>
	<polygon points="253,145 245,141 252,136" fill="#aaff00"/>
	<line x1="215" y1="94" x2="249" y2="139" stroke="#aaff00" stroke-width="2"/>
</g>
<g>
	<polygon points="213,89 206,84 214,80" fill="#aaff00"/>
	<line x1="195" y1="40" x2="210" y2="83" stroke="#aaff00" stroke-width="2"/>
</g>
<g>
	<polygon points="251,150 246,157 242,149" fill="#aaff00"/>
	<line x1="184" y1="180" x2="245" y2="153" stroke="#aaff00" stroke-width="2"/>
</g>
<g>
	<polygon points="179,181 174,188 170,180" fill="#aaff00"/>
	<line x1="124" y1="205" x2="173" y2="184" stroke="#aaff00" stroke-width="2"/>
</g>
<g>
	<polygon points="64,203 72,198 72,207" fill="#aaff00"/>
	<line x1="124" y1="205" x2="71" y2="203" stroke="#aaff00" stroke-width="2"/>
</g>
<g>
	<polygon points="106,256 104,247 113,250" fill="#aaff00"/>
	<line x1="124" y1="205" x2="108" y2="249" stroke="#aaff00" stroke-width="2"/>
</g>
<g>
	<polygon points="52,255 49,247 58,248" fill="#aaff00"/>
	<line x1="60" y1="203" x2="53" y2="248" stroke="#aaff00" stroke-width="2"/>
</g>
<g>
	<polygon points="56,260 64,255 64,264" fill="#aaff00"/>
	<line x1="105" y1="261" x2="63" y2="260" stroke="#aaff00" stroke-width="2"/>
</g>

<g fill="#000000">
	<circle cx="349" cy="176" r="4"/>
</g>
<g fill="#000000">
	<circle cx="325" cy="147" r="4"/>
</g>
<g fill="#000000">
	<circle cx="314" cy="205" r="4"/>
</g>
<g fill="#000000">
	<circle cx="283" cy="175" r="4"/>
</g>
<g fill="#000000">
	<circle cx="278" cy="235" r="4"/>
</g>
<g fill="#000000">
	<circle cx="339" cy="88" r="4"/>
</g>
<g fill="#000000">
	<circle cx="300" cy="116" r="4"/>
</g>
<g fill="#000000">
	<circle cx="255" cy="148" r="4"/>
</g>
<g fill="#000000">
	<circle cx="194" cy="39" r="4"/>
</g>
<g fill="#000000">
	<circle cx="214" cy="93" r="4"/>
</g>
<g fill="#000000">
	<circle cx="51" cy="259" r="4"/>
</g>
<g fill="#000000">
	<circle cx="123" cy="204" r="4"/>
</g>
<g fill="#000000">
	<circle cx="183" cy="179" r="4"/>
</g>
<g fill="#000000">
	<circle cx="59" cy="202" r="4"/>
</g>
<g fill="#000000">
	<circle cx="104" cy="260" r="4"/>
</g>

</g>

</svg>
