<?xml version="1.0" encoding="utf-8"?>
<!-- Created with Hypercube (http://tumic.wz.cz/hypercube) -->

<svg width="400" height="300" viewBox="0 0 400 300" xmlns="http://www.w3.org/2000/svg" baseProfile="tiny">

<g font-family="Helvetica" font-weight="normal">

<g>
	<polygon points="277,276 272,283 268,275" fill="#aaff00"/>
	<line x1="229" y1="295" x2="271" y2="279" stroke="#aaff00" stroke-width="2"/>
</g>
<g>
	<polygon points="230,248 235,256 226,256" fill="#aaff00"/>
	<line x1="229" y1="295" x2="230" y2="255" stroke="#aaff00" stroke-width="2"/>
</g>
<g>
	<polygon points="234,246 243,246 239,254" fill="#aaff00"/>
	<line x1="282" y1="275" x2="240" y2="250" stroke="#aaff00" stroke-width="2"/>
</g>
<g>
	<polygon points="275,238 281,245 272,246" fill="#aaff00"/>
	<line x1="282" y1="275" x2="276" y2="245" stroke="#aaff00" stroke-width="2"/>
</g>
<g>
	<polygon points="268,196 274,203 265,204" fill="#aaff00"/>
	<line x1="282" y1="275" x2="269" y2="203" stroke="#aaff00" stroke-width="2"/>
</g>
<g>
	<polygon points="270,234 264,241 262,232" fill="#aaff00"/>
	<line x1="231" y1="244" x2="263" y2="236" stroke="#aaff00" stroke-width="2"/>
</g>
<g>
	<polygon points="265,195 264,204 257,199" fill="#aaff00"/>
	<line x1="231" y1="244" x2="261" y2="201" stroke="#aaff00" stroke-width="2"/>
</g>
<g>
	<polygon points="274,229 268,222 277,221" fill="#aaff00"/>
	<line x1="268" y1="192" x2="273" y2="222" stroke="#aaff00" stroke-width="2"/>
</g>
<g>
	<polygon points="263,129 268,136 259,137" fill="#aaff00"/>
	<line x1="268" y1="192" x2="263" y2="136" stroke="#aaff00" stroke-width="2"/>
</g>
<g>
	<polygon points="343,41 341,49 335,43" fill="#aaff00"/>
	<line x1="305" y1="81" x2="338" y2="46" stroke="#aaff00" stroke-width="2"/>
</g>
<g>
	<polygon points="389,16 385,23 381,15" fill="#aaff00"/>
	<line x1="347" y1="38" x2="383" y2="19" stroke="#aaff00" stroke-width="2"/>
</g>
<g>
	<polygon points="47,56 54,50 55,59" fill="#aaff00"/>
	<line x1="97" y1="50" x2="54" y2="55" stroke="#aaff00" stroke-width="2"/>
</g>
<g>
	<polygon points="62,10 71,13 64,19" fill="#aaff00"/>
	<line x1="97" y1="50" x2="67" y2="15" stroke="#aaff00" stroke-width="2"/>
</g>
<g>
	<polygon points="136,87 127,85 134,79" fill="#aaff00"/>
	<line x1="97" y1="50" x2="131" y2="82" stroke="#aaff00" stroke-width="2"/>
</g>
<g>
	<polygon points="81,96 79,87 88,90" fill="#aaff00"/>
	<line x1="97" y1="50" x2="83" y2="89" stroke="#aaff00" stroke-width="2"/>
</g>
<g>
	<polygon points="58,11 60,20 51,17" fill="#aaff00"/>
	<line x1="43" y1="57" x2="56" y2="18" stroke="#aaff00" stroke-width="2"/>
</g>
<g>
	<polygon points="9,17 18,20 11,26" fill="#aaff00"/>
	<line x1="43" y1="57" x2="14" y2="22" stroke="#aaff00" stroke-width="2"/>
</g>
<g>
	<polygon points="11,13 18,7 19,16" fill="#aaff00"/>
	<line x1="60" y1="7" x2="18" y2="12" stroke="#aaff00" stroke-width="2"/>
</g>
<g>
	<polygon points="45,60 54,63 47,69" fill="#aaff00"/>
	<line x1="80" y1="101" x2="50" y2="65" stroke="#aaff00" stroke-width="2"/>
</g>
<g>
	<polygon points="135,91 128,97 127,88" fill="#aaff00"/>
	<line x1="80" y1="101" x2="128" y2="92" stroke="#aaff00" stroke-width="2"/>
</g>
<g>
	<polygon points="197,105 188,108 191,99" fill="#aaff00"/>
	<line x1="140" y1="91" x2="190" y2="104" stroke="#aaff00" stroke-width="2"/>
</g>
<g>
	<polygon points="301,84 299,93 293,86" fill="#aaff00"/>
	<line x1="263" y1="125" x2="296" y2="89" stroke="#aaff00" stroke-width="2"/>
</g>
<g>
	<polygon points="206,108 215,106 212,114" fill="#aaff00"/>
	<line x1="263" y1="125" x2="213" y2="110" stroke="#aaff00" stroke-width="2"/>
</g>

<g fill="#000000">
	<circle cx="228" cy="294" r="4"/>
</g>
<g fill="#000000">
	<circle cx="281" cy="274" r="4"/>
</g>
<g fill="#000000">
	<circle cx="230" cy="243" r="4"/>
</g>
<g fill="#000000">
	<circle cx="274" cy="233" r="4"/>
</g>
<g fill="#000000">
	<circle cx="267" cy="191" r="4"/>
</g>
<g fill="#000000">
	<circle cx="262" cy="124" r="4"/>
</g>
<g fill="#000000">
	<circle cx="304" cy="80" r="4"/>
</g>
<g fill="#000000">
	<circle cx="346" cy="37" r="4"/>
</g>
<g fill="#000000">
	<circle cx="393" cy="13" r="4"/>
</g>
<g fill="#000000">
	<circle cx="96" cy="49" r="4"/>
</g>
<g fill="#000000">
	<circle cx="42" cy="56" r="4"/>
</g>
<g fill="#000000">
	<circle cx="59" cy="6" r="4"/>
</g>
<g fill="#000000">
	<circle cx="139" cy="90" r="4"/>
</g>
<g fill="#000000">
	<circle cx="79" cy="100" r="4"/>
</g>
<g fill="#000000">
	<circle cx="6" cy="13" r="4"/>
</g>
<g fill="#000000">
	<circle cx="201" cy="106" r="4"/>
</g>

</g>

</svg>
