<?xml version="1.0" encoding="utf-8"?>
<!-- Created with Hypercube (http://tumic.wz.cz/hypercube) -->

<svg width="400" height="300" viewBox="0 0 400 300" xmlns="http://www.w3.org/2000/svg" baseProfile="tiny">

<g font-family="Helvetica" font-weight="normal">

<g>
	<polygon points="163,194 166,185 172,192" fill="#aaff00"/>
	<line x1="215" y1="153" x2="169" y2="189" stroke="#aaff00" stroke-width="2"/>
</g>
<g>
	<polygon points="240,94 241,103 233,99" fill="#aaff00"/>
	<line x1="215" y1="153" x2="237" y2="100" stroke="#aaff00" stroke-width="2"/>
</g>
<g>
	<polygon points="256,181 247,180 252,173" fill="#aaff00"/>
	<line x1="215" y1="153" x2="250" y2="177" stroke="#aaff00" stroke-width="2"/>
</g>
<g>
	<polygon points="179,257 172,251 181,248" fill="#aaff00"/>
	<line x1="160" y1="197" x2="177" y2="250" stroke="#aaff00" stroke-width="2"/>
</g>
<g>
	<polygon points="91,191 99,187 98,196" fill="#aaff00"/>
	<line x1="160" y1="197" x2="98" y2="191" stroke="#aaff00" stroke-width="2"/>
</g>
<g>
	<polygon points="139,292 143,284 148,291" fill="#aaff00"/>
	<line x1="181" y1="262" x2="145" y2="288" stroke="#aaff00" stroke-width="2"/>
</g>
<g>
	<polygon points="227,290 218,290 222,282" fill="#aaff00"/>
	<line x1="181" y1="262" x2="221" y2="286" stroke="#aaff00" stroke-width="2"/>
</g>
<g>
	<polygon points="45,231 47,223 53,229" fill="#aaff00"/>
	<line x1="87" y1="191" x2="50" y2="226" stroke="#aaff00" stroke-width="2"/>
</g>
<g>
	<polygon points="45,154 54,156 48,163" fill="#aaff00"/>
	<line x1="87" y1="191" x2="50" y2="159" stroke="#aaff00" stroke-width="2"/>
</g>
<g>
	<polygon points="189,60 198,60 194,68" fill="#aaff00"/>
	<line x1="242" y1="90" x2="196" y2="63" stroke="#aaff00" stroke-width="2"/>
</g>
<g>
	<polygon points="303,65 298,72 294,64" fill="#aaff00"/>
	<line x1="242" y1="90" x2="297" y2="68" stroke="#aaff00" stroke-width="2"/>
</g>
<g>
	<polygon points="190,9 194,17 185,16" fill="#aaff00"/>
	<line x1="186" y1="58" x2="189" y2="16" stroke="#aaff00" stroke-width="2"/>
</g>
<g>
	<polygon points="128,45 136,43 135,51" fill="#aaff00"/>
	<line x1="186" y1="58" x2="135" y2="47" stroke="#aaff00" stroke-width="2"/>
</g>
<g>
	<polygon points="329,16 330,25 321,21" fill="#aaff00"/>
	<line x1="308" y1="64" x2="326" y2="22" stroke="#aaff00" stroke-width="2"/>
</g>
<g>
	<polygon points="356,90 347,90 351,83" fill="#aaff00"/>
	<line x1="308" y1="64" x2="349" y2="87" stroke="#aaff00" stroke-width="2"/>
</g>

<g fill="#000000">
	<circle cx="214" cy="152" r="4"/>
</g>
<g fill="#000000">
	<circle cx="159" cy="196" r="4"/>
</g>
<g fill="#000000">
	<circle cx="241" cy="89" r="4"/>
</g>
<g fill="#000000">
	<circle cx="259" cy="183" r="4"/>
</g>
<g fill="#000000">
	<circle cx="180" cy="261" r="4"/>
</g>
<g fill="#000000">
	<circle cx="86" cy="190" r="4"/>
</g>
<g fill="#000000">
	<circle cx="135" cy="294" r="4"/>
</g>
<g fill="#000000">
	<circle cx="230" cy="292" r="4"/>
</g>
<g fill="#000000">
	<circle cx="41" cy="234" r="4"/>
</g>
<g fill="#000000">
	<circle cx="41" cy="151" r="4"/>
</g>
<g fill="#000000">
	<circle cx="185" cy="57" r="4"/>
</g>
<g fill="#000000">
	<circle cx="307" cy="63" r="4"/>
</g>
<g fill="#000000">
	<circle cx="190" cy="4" r="4"/>
</g>
<g fill="#000000">
	<circle cx="123" cy="44" r="4"/>
</g>
<g fill="#000000">
	<circle cx="330" cy="11" r="4"/>
</g>
<g fill="#000000">
	<circle cx="359" cy="92" r="4"/>
</g>

</g>

</svg>
