<?xml version="1.0" encoding="utf-8"?>
<!-- Created with Hypercube (http://tumic.wz.cz/hypercube) -->

<svg width="400" height="300" viewBox="0 0 400 300" xmlns="http://www.w3.org/2000/svg" baseProfile="tiny">

<g font-family="Helvetica" font-weight="normal">

<g>
	<polygon points="334,159 330,167 325,160" fill="#aaff00"/>
	<line x1="286" y1="196" x2="328" y2="164" stroke="#aaff00" stroke-width="2"/>
</g>
<g>
	<polygon points="123,151 131,147 131,156" fill="#aaff00"/>
	<line x1="190" y1="155" x2="130" y2="151" stroke="#aaff00" stroke-width="2"/>
</g>
<g>
	<polygon points="281,194 272,195 276,187" fill="#aaff00"/>
	<line x1="190" y1="155" x2="275" y2="191" stroke="#aaff00" stroke-width="2"/>
</g>
<g>
	<polygon points="62,160 59,152 68,153" fill="#aaff00"/>
	<line x1="72" y1="113" x2="64" y2="153" stroke="#aaff00" stroke-width="2"/>
</g>
<g>
	<polygon points="115,148 106,146 112,139" fill="#aaff00"/>
	<line x1="72" y1="113" x2="109" y2="143" stroke="#aaff00" stroke-width="2"/>
</g>
<g>
	<polygon points="114,152 108,158 105,149" fill="#aaff00"/>
	<line x1="62" y1="165" x2="107" y2="153" stroke="#aaff00" stroke-width="2"/>
</g>
<g>
	<polygon points="194,156 203,155 199,163" fill="#aaff00"/>
	<line x1="233" y1="172" x2="200" y2="159" stroke="#aaff00" stroke-width="2"/>
</g>
<g>
	<polygon points="284,139 280,147 275,139" fill="#aaff00"/>
	<line x1="233" y1="172" x2="278" y2="143" stroke="#aaff00" stroke-width="2"/>
</g>
<g>
	<polygon points="333,155 324,156 328,148" fill="#aaff00"/>
	<line x1="288" y1="137" x2="327" y2="152" stroke="#aaff00" stroke-width="2"/>
</g>
<g>
	<polygon points="286,89 290,97 281,97" fill="#aaff00"/>
	<line x1="288" y1="137" x2="286" y2="96" stroke="#aaff00" stroke-width="2"/>
</g>
<g>
	<polygon points="344,96 336,99 337,90" fill="#aaff00"/>
	<line x1="286" y1="85" x2="337" y2="94" stroke="#aaff00" stroke-width="2"/>
</g>
<g>
	<polygon points="338,152 335,144 344,145" fill="#aaff00"/>
	<line x1="349" y1="97" x2="340" y2="145" stroke="#aaff00" stroke-width="2"/>
</g>
<g>
	<polygon points="193,151 195,142 201,149" fill="#aaff00"/>
	<line x1="230" y1="112" x2="197" y2="146" stroke="#aaff00" stroke-width="2"/>
</g>
<g>
	<polygon points="281,86 276,94 272,86" fill="#aaff00"/>
	<line x1="230" y1="112" x2="275" y2="90" stroke="#aaff00" stroke-width="2"/>
</g>
<g>
	<polygon points="232,167 227,159 236,159" fill="#aaff00"/>
	<line x1="230" y1="112" x2="232" y2="160" stroke="#aaff00" stroke-width="2"/>
</g>
<g>
	<polygon points="231,176 232,185 223,181" fill="#aaff00"/>
	<line x1="203" y1="241" x2="228" y2="182" stroke="#aaff00" stroke-width="2"/>
</g>
<g>
	<polygon points="168,284 176,282 175,290" fill="#aaff00"/>
	<line x1="215" y1="295" x2="175" y2="286" stroke="#aaff00" stroke-width="2"/>
</g>
<g>
	<polygon points="203,245 210,252 201,253" fill="#aaff00"/>
	<line x1="215" y1="295" x2="205" y2="252" stroke="#aaff00" stroke-width="2"/>
</g>
<g>
	<polygon points="199,244 198,253 191,247" fill="#aaff00"/>
	<line x1="164" y1="284" x2="195" y2="249" stroke="#aaff00" stroke-width="2"/>
</g>
<g>
	<polygon points="70,108 63,103 71,99" fill="#aaff00"/>
	<line x1="51" y1="59" x2="67" y2="102" stroke="#aaff00" stroke-width="2"/>
</g>
<g>
	<polygon points="51,10 55,18 46,18" fill="#aaff00"/>
	<line x1="51" y1="59" x2="51" y2="17" stroke="#aaff00" stroke-width="2"/>
</g>

<g fill="#000000">
	<circle cx="50" cy="58" r="4"/>
</g>
<g fill="#000000">
	<circle cx="337" cy="156" r="4"/>
</g>
<g fill="#000000">
	<circle cx="71" cy="112" r="4"/>
</g>
<g fill="#000000">
	<circle cx="61" cy="164" r="4"/>
</g>
<g fill="#000000">
	<circle cx="118" cy="150" r="4"/>
</g>
<g fill="#000000">
	<circle cx="285" cy="195" r="4"/>
</g>
<g fill="#000000">
	<circle cx="189" cy="154" r="4"/>
</g>
<g fill="#000000">
	<circle cx="348" cy="96" r="4"/>
</g>
<g fill="#000000">
	<circle cx="285" cy="84" r="4"/>
</g>
<g fill="#000000">
	<circle cx="287" cy="136" r="4"/>
</g>
<g fill="#000000">
	<circle cx="232" cy="171" r="4"/>
</g>
<g fill="#000000">
	<circle cx="214" cy="294" r="4"/>
</g>
<g fill="#000000">
	<circle cx="163" cy="283" r="4"/>
</g>
<g fill="#000000">
	<circle cx="202" cy="240" r="4"/>
</g>
<g fill="#000000">
	<circle cx="50" cy="5" r="4"/>
</g>
<g fill="#000000">
	<circle cx="229" cy="111" r="4"/>
</g>

</g>

</svg>
