<?xml version="1.0" encoding="utf-8"?>
<!-- Created with Hypercube (http://tumic.wz.cz/hypercube) -->

<svg width="400" height="300" viewBox="0 0 400 300" xmlns="http://www.w3.org/2000/svg" baseProfile="tiny">

<g font-family="Helvetica" font-weight="normal">

<g>
	<polygon points="272,212 272,203 280,207" fill="#aaff00"/>
	<line x1="299" y1="167" x2="275" y2="205" stroke="#aaff00" stroke-width="2"/>
</g>
<g>
	<polygon points="211,217 219,213 219,222" fill="#aaff00"/>
	<line x1="270" y1="216" x2="218" y2="217" stroke="#aaff00" stroke-width="2"/>
</g>
<g>
	<polygon points="163,136 170,141 162,145" fill="#aaff00"/>
	<line x1="207" y1="218" x2="166" y2="143" stroke="#aaff00" stroke-width="2"/>
</g>
<g>
	<polygon points="175,73 178,82 169,79" fill="#aaff00"/>
	<line x1="161" y1="133" x2="174" y2="80" stroke="#aaff00" stroke-width="2"/>
</g>
<g>
	<polygon points="205,26 204,35 197,30" fill="#aaff00"/>
	<line x1="177" y1="69" x2="201" y2="32" stroke="#aaff00" stroke-width="2"/>
</g>
<g>
	<polygon points="156,132 148,135 149,126" fill="#aaff00"/>
	<line x1="95" y1="121" x2="149" y2="130" stroke="#aaff00" stroke-width="2"/>
</g>
<g>
	<polygon points="94,125 97,133 89,132" fill="#aaff00"/>
	<line x1="88" y1="178" x2="93" y2="132" stroke="#aaff00" stroke-width="2"/>
</g>
<g>
	<polygon points="92,179 101,179 97,187" fill="#aaff00"/>
	<line x1="139" y1="203" x2="98" y2="183" stroke="#aaff00" stroke-width="2"/>
</g>
<g>
	<polygon points="294,166 286,170 287,161" fill="#aaff00"/>
	<line x1="224" y1="160" x2="287" y2="165" stroke="#aaff00" stroke-width="2"/>
</g>
<g>
	<polygon points="143,200 147,193 152,201" fill="#aaff00"/>
	<line x1="224" y1="160" x2="149" y2="197" stroke="#aaff00" stroke-width="2"/>
</g>
<g>
	<polygon points="136,206 136,215 128,211" fill="#aaff00"/>
	<line x1="106" y1="256" x2="132" y2="212" stroke="#aaff00" stroke-width="2"/>
</g>
<g>
	<polygon points="91,118 82,117 87,110" fill="#aaff00"/>
	<line x1="47" y1="89" x2="85" y2="114" stroke="#aaff00" stroke-width="2"/>
</g>
<g>
	<polygon points="207,222 211,230 202,230" fill="#aaff00"/>
	<line x1="209" y1="280" x2="207" y2="229" stroke="#aaff00" stroke-width="2"/>
</g>
<g>
	<polygon points="301,163 302,154 309,159" fill="#aaff00"/>
	<line x1="335" y1="118" x2="305" y2="157" stroke="#aaff00" stroke-width="2"/>
</g>
<g>
	<polygon points="302,169 311,168 307,176" fill="#aaff00"/>
	<line x1="355" y1="196" x2="309" y2="172" stroke="#aaff00" stroke-width="2"/>
</g>
<g>
	<polygon points="261,20 253,25 253,16" fill="#aaff00"/>
	<line x1="208" y1="23" x2="254" y2="20" stroke="#aaff00" stroke-width="2"/>
</g>

<g fill="#000000">
	<circle cx="298" cy="166" r="4"/>
</g>
<g fill="#000000">
	<circle cx="269" cy="215" r="4"/>
</g>
<g fill="#000000">
	<circle cx="206" cy="217" r="4"/>
</g>
<g fill="#000000">
	<circle cx="138" cy="202" r="4"/>
</g>
<g fill="#000000">
	<circle cx="87" cy="177" r="4"/>
</g>
<g fill="#000000">
	<circle cx="94" cy="120" r="4"/>
</g>
<g fill="#000000">
	<circle cx="160" cy="132" r="4"/>
</g>
<g fill="#000000">
	<circle cx="176" cy="68" r="4"/>
</g>
<g fill="#000000">
	<circle cx="207" cy="22" r="4"/>
</g>
<g fill="#000000">
	<circle cx="334" cy="117" r="4"/>
</g>
<g fill="#000000">
	<circle cx="354" cy="195" r="4"/>
</g>
<g fill="#000000">
	<circle cx="223" cy="159" r="4"/>
</g>
<g fill="#000000">
	<circle cx="208" cy="279" r="4"/>
</g>
<g fill="#000000">
	<circle cx="105" cy="255" r="4"/>
</g>
<g fill="#000000">
	<circle cx="46" cy="88" r="4"/>
</g>
<g fill="#000000">
	<circle cx="265" cy="19" r="4"/>
</g>

</g>

</svg>
