<?xml version="1.0" encoding="utf-8"?>
<!-- Created with Hypercube (http://tumic.wz.cz/hypercube) -->

<svg width="400" height="300" viewBox="0 0 400 300" xmlns="http://www.w3.org/2000/svg" baseProfile="tiny">

<g font-family="Helvetica" font-weight="normal">

<g>
	<polygon points="242,118 251,118 246,126" fill="#aaff00"/>
	<line x1="285" y1="146" x2="248" y2="122" stroke="#aaff00" stroke-width="2"/>
</g>
<g>
	<polygon points="231,157 238,151 239,159" fill="#aaff00"/>
	<line x1="285" y1="146" x2="238" y2="155" stroke="#aaff00" stroke-width="2"/>
</g>
<g>
	<polygon points="228,153 226,144 234,147" fill="#aaff00"/>
	<line x1="239" y1="116" x2="230" y2="146" stroke="#aaff00" stroke-width="2"/>
</g>
<g>
	<polygon points="178,153 183,145 187,153" fill="#aaff00"/>
	<line x1="239" y1="116" x2="184" y2="149" stroke="#aaff00" stroke-width="2"/>
</g>
<g>
	<polygon points="195,102 204,100 201,108" fill="#aaff00"/>
	<line x1="239" y1="116" x2="202" y2="104" stroke="#aaff00" stroke-width="2"/>
</g>
<g>
	<polygon points="179,156 187,151 187,160" fill="#aaff00"/>
	<line x1="227" y1="158" x2="186" y2="156" stroke="#aaff00" stroke-width="2"/>
</g>
<g>
	<polygon points="193,104 201,108 193,113" fill="#aaff00"/>
	<line x1="227" y1="158" x2="197" y2="110" stroke="#aaff00" stroke-width="2"/>
</g>
<g>
	<polygon points="141,224 141,215 149,219" fill="#aaff00"/>
	<line x1="175" y1="156" x2="145" y2="218" stroke="#aaff00" stroke-width="2"/>
</g>
<g>
	<polygon points="159,284 152,278 161,275" fill="#aaff00"/>
	<line x1="140" y1="229" x2="157" y2="277" stroke="#aaff00" stroke-width="2"/>
</g>
<g>
	<polygon points="188,249 179,250 183,242" fill="#aaff00"/>
	<line x1="140" y1="229" x2="182" y2="246" stroke="#aaff00" stroke-width="2"/>
</g>
<g>
	<polygon points="80,234 87,229 88,238" fill="#aaff00"/>
	<line x1="140" y1="229" x2="87" y2="233" stroke="#aaff00" stroke-width="2"/>
</g>
<g>
	<polygon points="108,274 109,265 116,270" fill="#aaff00"/>
	<line x1="140" y1="229" x2="112" y2="268" stroke="#aaff00" stroke-width="2"/>
</g>
<g>
	<polygon points="190,254 188,263 181,257" fill="#aaff00"/>
	<line x1="161" y1="289" x2="185" y2="259" stroke="#aaff00" stroke-width="2"/>
</g>
<g>
	<polygon points="216,294 208,298 209,289" fill="#aaff00"/>
	<line x1="161" y1="289" x2="209" y2="293" stroke="#aaff00" stroke-width="2"/>
</g>
<g>
	<polygon points="218,291 210,287 218,282" fill="#aaff00"/>
	<line x1="193" y1="251" x2="214" y2="285" stroke="#aaff00" stroke-width="2"/>
</g>
<g>
	<polygon points="156,288 148,291 149,282" fill="#aaff00"/>
	<line x1="106" y1="278" x2="149" y2="286" stroke="#aaff00" stroke-width="2"/>
</g>
<g>
	<polygon points="78,238 86,242 79,247" fill="#aaff00"/>
	<line x1="106" y1="278" x2="82" y2="244" stroke="#aaff00" stroke-width="2"/>
</g>
<g>
	<polygon points="25,227 33,224 32,233" fill="#aaff00"/>
	<line x1="76" y1="235" x2="32" y2="228" stroke="#aaff00" stroke-width="2"/>
</g>
<g>
	<polygon points="176,151 174,142 182,145" fill="#aaff00"/>
	<line x1="191" y1="101" x2="178" y2="144" stroke="#aaff00" stroke-width="2"/>
</g>
<g>
	<polygon points="207,42 209,51 201,48" fill="#aaff00"/>
	<line x1="191" y1="101" x2="205" y2="49" stroke="#aaff00" stroke-width="2"/>
</g>
<g>
	<polygon points="316,5 308,10 308,1" fill="#aaff00"/>
	<line x1="264" y1="5" x2="309" y2="5" stroke="#aaff00" stroke-width="2"/>
</g>
<g>
	<polygon points="375,5 367,9 367,0" fill="#aaff00"/>
	<line x1="321" y1="6" x2="368" y2="5" stroke="#aaff00" stroke-width="2"/>
</g>
<g>
	<polygon points="260,7 255,15 251,7" fill="#aaff00"/>
	<line x1="209" y1="38" x2="253" y2="11" stroke="#aaff00" stroke-width="2"/>
</g>

<g fill="#000000">
	<circle cx="284" cy="145" r="4"/>
</g>
<g fill="#000000">
	<circle cx="238" cy="115" r="4"/>
</g>
<g fill="#000000">
	<circle cx="226" cy="157" r="4"/>
</g>
<g fill="#000000">
	<circle cx="174" cy="155" r="4"/>
</g>
<g fill="#000000">
	<circle cx="190" cy="100" r="4"/>
</g>
<g fill="#000000">
	<circle cx="139" cy="228" r="4"/>
</g>
<g fill="#000000">
	<circle cx="208" cy="37" r="4"/>
</g>
<g fill="#000000">
	<circle cx="263" cy="4" r="4"/>
</g>
<g fill="#000000">
	<circle cx="320" cy="5" r="4"/>
</g>
<g fill="#000000">
	<circle cx="379" cy="4" r="4"/>
</g>
<g fill="#000000">
	<circle cx="160" cy="288" r="4"/>
</g>
<g fill="#000000">
	<circle cx="192" cy="250" r="4"/>
</g>
<g fill="#000000">
	<circle cx="75" cy="234" r="4"/>
</g>
<g fill="#000000">
	<circle cx="105" cy="277" r="4"/>
</g>
<g fill="#000000">
	<circle cx="220" cy="294" r="4"/>
</g>
<g fill="#000000">
	<circle cx="20" cy="226" r="4"/>
</g>

</g>

</svg>
