<?xml version="1.0" encoding="utf-8"?>
<!-- Created with Hypercube (http://tumic.wz.cz/hypercube) -->

<svg width="400" height="300" viewBox="0 0 400 300" xmlns="http://www.w3.org/2000/svg" baseProfile="tiny">

<g font-family="Helvetica" font-weight="normal">

<g>
	<polygon points="278,67 276,76 269,70" fill="#aaff00"/>
	<line x1="241" y1="109" x2="273" y2="72" stroke="#aaff00" stroke-width="2"/>
</g>
<g>
	<polygon points="195,155 197,147 203,153" fill="#aaff00"/>
	<line x1="241" y1="109" x2="200" y2="150" stroke="#aaff00" stroke-width="2"/>
</g>
<g>
	<polygon points="266,191 257,192 261,184" fill="#aaff00"/>
	<line x1="192" y1="159" x2="260" y2="188" stroke="#aaff00" stroke-width="2"/>
</g>
<g>
	<polygon points="133,88 142,91 135,97" fill="#aaff00"/>
	<line x1="192" y1="159" x2="138" y2="94" stroke="#aaff00" stroke-width="2"/>
</g>
<g>
	<polygon points="207,206 200,200 209,197" fill="#aaff00"/>
	<line x1="192" y1="159" x2="205" y2="199" stroke="#aaff00" stroke-width="2"/>
</g>
<g>
	<polygon points="133,226 135,217 142,223" fill="#aaff00"/>
	<line x1="192" y1="159" x2="138" y2="221" stroke="#aaff00" stroke-width="2"/>
</g>
<g>
	<polygon points="329,176 323,182 320,174" fill="#aaff00"/>
	<line x1="271" y1="193" x2="322" y2="178" stroke="#aaff00" stroke-width="2"/>
</g>
<g>
	<polygon points="290,249 283,243 292,240" fill="#aaff00"/>
	<line x1="271" y1="193" x2="288" y2="242" stroke="#aaff00" stroke-width="2"/>
</g>
<g>
	<polygon points="72,66 81,64 78,73" fill="#aaff00"/>
	<line x1="131" y1="85" x2="79" y2="68" stroke="#aaff00" stroke-width="2"/>
</g>
<g>
	<polygon points="118,23 124,30 115,31" fill="#aaff00"/>
	<line x1="131" y1="85" x2="120" y2="30" stroke="#aaff00" stroke-width="2"/>
</g>
<g>
	<polygon points="172,48 169,57 163,50" fill="#aaff00"/>
	<line x1="131" y1="85" x2="167" y2="53" stroke="#aaff00" stroke-width="2"/>
</g>
<g>
	<polygon points="93,123 95,115 101,121" fill="#aaff00"/>
	<line x1="131" y1="85" x2="98" y2="118" stroke="#aaff00" stroke-width="2"/>
</g>
<g>
	<polygon points="73,216 81,214 80,223" fill="#aaff00"/>
	<line x1="131" y1="230" x2="80" y2="218" stroke="#aaff00" stroke-width="2"/>
</g>
<g>
	<polygon points="162,278 154,274 162,269" fill="#aaff00"/>
	<line x1="131" y1="230" x2="158" y2="272" stroke="#aaff00" stroke-width="2"/>
</g>
<g>
	<polygon points="96,278 97,269 104,274" fill="#aaff00"/>
	<line x1="131" y1="230" x2="100" y2="272" stroke="#aaff00" stroke-width="2"/>
</g>

<g fill="#000000">
	<circle cx="240" cy="108" r="4"/>
</g>
<g fill="#000000">
	<circle cx="280" cy="63" r="4"/>
</g>
<g fill="#000000">
	<circle cx="191" cy="158" r="4"/>
</g>
<g fill="#000000">
	<circle cx="270" cy="192" r="4"/>
</g>
<g fill="#000000">
	<circle cx="130" cy="84" r="4"/>
</g>
<g fill="#000000">
	<circle cx="208" cy="210" r="4"/>
</g>
<g fill="#000000">
	<circle cx="130" cy="229" r="4"/>
</g>
<g fill="#000000">
	<circle cx="333" cy="174" r="4"/>
</g>
<g fill="#000000">
	<circle cx="291" cy="253" r="4"/>
</g>
<g fill="#000000">
	<circle cx="67" cy="64" r="4"/>
</g>
<g fill="#000000">
	<circle cx="117" cy="18" r="4"/>
</g>
<g fill="#000000">
	<circle cx="175" cy="45" r="4"/>
</g>
<g fill="#000000">
	<circle cx="89" cy="126" r="4"/>
</g>
<g fill="#000000">
	<circle cx="68" cy="215" r="4"/>
</g>
<g fill="#000000">
	<circle cx="164" cy="281" r="4"/>
</g>
<g fill="#000000">
	<circle cx="93" cy="281" r="4"/>
</g>

</g>

</svg>
