<?xml version="1.0" encoding="utf-8"?>
<!-- Created with Hypercube (http://tumic.wz.cz/hypercube) -->

<svg width="400" height="300" viewBox="0 0 400 300" xmlns="http://www.w3.org/2000/svg" baseProfile="tiny">

<g font-family="Helvetica" font-weight="normal">

<g>
	<polygon points="284,180 293,179 289,187" fill="#aaff00"/>
	<line x1="332" y1="205" x2="291" y2="183" stroke="#aaff00" stroke-width="2"/>
</g>
<g>
	<polygon points="253,141 261,145 254,150" fill="#aaff00"/>
	<line x1="281" y1="178" x2="258" y2="147" stroke="#aaff00" stroke-width="2"/>
</g>
<g>
	<polygon points="214,184 221,179 222,188" fill="#aaff00"/>
	<line x1="281" y1="178" x2="221" y2="183" stroke="#aaff00" stroke-width="2"/>
</g>
<g>
	<polygon points="212,181 214,172 221,178" fill="#aaff00"/>
	<line x1="251" y1="138" x2="217" y2="176" stroke="#aaff00" stroke-width="2"/>
</g>
<g>
	<polygon points="214,248 209,241 218,240" fill="#aaff00"/>
	<line x1="210" y1="185" x2="214" y2="241" stroke="#aaff00" stroke-width="2"/>
</g>
<g>
	<polygon points="174,224 176,215 183,221" fill="#aaff00"/>
	<line x1="210" y1="185" x2="179" y2="219" stroke="#aaff00" stroke-width="2"/>
</g>
<g>
	<polygon points="142,185 150,181 150,190" fill="#aaff00"/>
	<line x1="210" y1="185" x2="149" y2="185" stroke="#aaff00" stroke-width="2"/>
</g>
<g>
	<polygon points="148,117 156,120 149,126" fill="#aaff00"/>
	<line x1="210" y1="185" x2="152" y2="122" stroke="#aaff00" stroke-width="2"/>
</g>
<g>
	<polygon points="175,230 184,230 180,238" fill="#aaff00"/>
	<line x1="215" y1="253" x2="182" y2="233" stroke="#aaff00" stroke-width="2"/>
</g>
<g>
	<polygon points="128,248 133,240 137,248" fill="#aaff00"/>
	<line x1="172" y1="228" x2="134" y2="245" stroke="#aaff00" stroke-width="2"/>
</g>
<g>
	<polygon points="140,189 149,192 142,198" fill="#aaff00"/>
	<line x1="172" y1="228" x2="145" y2="195" stroke="#aaff00" stroke-width="2"/>
</g>
<g>
	<polygon points="137,190 139,198 130,197" fill="#aaff00"/>
	<line x1="124" y1="250" x2="135" y2="197" stroke="#aaff00" stroke-width="2"/>
</g>
<g>
	<polygon points="74,195 81,189 82,198" fill="#aaff00"/>
	<line x1="138" y1="186" x2="81" y2="194" stroke="#aaff00" stroke-width="2"/>
</g>
<g>
	<polygon points="102,154 111,155 105,162" fill="#aaff00"/>
	<line x1="138" y1="186" x2="107" y2="158" stroke="#aaff00" stroke-width="2"/>
</g>
<g>
	<polygon points="144,118 148,126 139,125" fill="#aaff00"/>
	<line x1="138" y1="186" x2="143" y2="125" stroke="#aaff00" stroke-width="2"/>
</g>
<g>
	<polygon points="96,154 96,163 88,158" fill="#aaff00"/>
	<line x1="70" y1="196" x2="92" y2="160" stroke="#aaff00" stroke-width="2"/>
</g>
<g>
	<polygon points="81,108 88,113 80,117" fill="#aaff00"/>
	<line x1="99" y1="151" x2="84" y2="114" stroke="#aaff00" stroke-width="2"/>
</g>
<g>
	<polygon points="141,116 138,125 132,118" fill="#aaff00"/>
	<line x1="99" y1="151" x2="135" y2="121" stroke="#aaff00" stroke-width="2"/>
</g>
<g>
	<polygon points="140,113 132,116 133,107" fill="#aaff00"/>
	<line x1="80" y1="104" x2="133" y2="112" stroke="#aaff00" stroke-width="2"/>
</g>
<g>
	<polygon points="192,86 187,94 183,86" fill="#aaff00"/>
	<line x1="145" y1="114" x2="185" y2="89" stroke="#aaff00" stroke-width="2"/>
</g>
<g>
	<polygon points="164,52 166,61 157,58" fill="#aaff00"/>
	<line x1="145" y1="114" x2="162" y2="59" stroke="#aaff00" stroke-width="2"/>
</g>
<g>
	<polygon points="120,53 127,58 119,62" fill="#aaff00"/>
	<line x1="145" y1="114" x2="123" y2="59" stroke="#aaff00" stroke-width="2"/>
</g>
<g>
	<polygon points="168,51 177,54 170,60" fill="#aaff00"/>
	<line x1="196" y1="84" x2="173" y2="56" stroke="#aaff00" stroke-width="2"/>
</g>
<g>
	<polygon points="123,48 131,44 131,53" fill="#aaff00"/>
	<line x1="166" y1="48" x2="130" y2="48" stroke="#aaff00" stroke-width="2"/>
</g>
<g>
	<polygon points="327,206 322,213 318,205" fill="#aaff00"/>
	<line x1="279" y1="226" x2="321" y2="209" stroke="#aaff00" stroke-width="2"/>
</g>
<g>
	<polygon points="280,182 284,190 275,190" fill="#aaff00"/>
	<line x1="279" y1="226" x2="280" y2="189" stroke="#aaff00" stroke-width="2"/>
</g>
<g>
	<polygon points="213,187 222,187 218,195" fill="#aaff00"/>
	<line x1="279" y1="226" x2="220" y2="190" stroke="#aaff00" stroke-width="2"/>
</g>

<g fill="#000000">
	<circle cx="331" cy="204" r="4"/>
</g>
<g fill="#000000">
	<circle cx="280" cy="177" r="4"/>
</g>
<g fill="#000000">
	<circle cx="250" cy="137" r="4"/>
</g>
<g fill="#000000">
	<circle cx="209" cy="184" r="4"/>
</g>
<g fill="#000000">
	<circle cx="214" cy="252" r="4"/>
</g>
<g fill="#000000">
	<circle cx="171" cy="227" r="4"/>
</g>
<g fill="#000000">
	<circle cx="123" cy="249" r="4"/>
</g>
<g fill="#000000">
	<circle cx="137" cy="185" r="4"/>
</g>
<g fill="#000000">
	<circle cx="69" cy="195" r="4"/>
</g>
<g fill="#000000">
	<circle cx="98" cy="150" r="4"/>
</g>
<g fill="#000000">
	<circle cx="79" cy="103" r="4"/>
</g>
<g fill="#000000">
	<circle cx="144" cy="113" r="4"/>
</g>
<g fill="#000000">
	<circle cx="195" cy="83" r="4"/>
</g>
<g fill="#000000">
	<circle cx="165" cy="47" r="4"/>
</g>
<g fill="#000000">
	<circle cx="118" cy="48" r="4"/>
</g>
<g fill="#000000">
	<circle cx="278" cy="225" r="4"/>
</g>

</g>

</svg>
