<?xml version="1.0" encoding="utf-8"?>
<!-- Created with Hypercube (http://tumic.wz.cz/hypercube) -->

<svg width="400" height="300" viewBox="0 0 400 300" xmlns="http://www.w3.org/2000/svg" baseProfile="tiny">

<g font-family="Helvetica" font-weight="normal">

<g>
	<polygon points="363,117 367,125 358,124" fill="#aaff00"/>
	<line x1="359" y1="169" x2="362" y2="124" stroke="#aaff00" stroke-width="2"/>
</g>
<g>
	<polygon points="301,169 309,164 309,173" fill="#aaff00"/>
	<line x1="359" y1="169" x2="308" y2="169" stroke="#aaff00" stroke-width="2"/>
</g>
<g>
	<polygon points="234,196 239,188 243,197" fill="#aaff00"/>
	<line x1="297" y1="169" x2="240" y2="193" stroke="#aaff00" stroke-width="2"/>
</g>
<g>
	<polygon points="184,238 187,229 193,236" fill="#aaff00"/>
	<line x1="230" y1="198" x2="189" y2="233" stroke="#aaff00" stroke-width="2"/>
</g>
<g>
	<polygon points="238,269 233,262 242,261" fill="#aaff00"/>
	<line x1="230" y1="198" x2="237" y2="262" stroke="#aaff00" stroke-width="2"/>
</g>
<g>
	<polygon points="154,185 162,182 161,191" fill="#aaff00"/>
	<line x1="230" y1="198" x2="161" y2="186" stroke="#aaff00" stroke-width="2"/>
</g>
<g>
	<polygon points="234,113 238,121 229,121" fill="#aaff00"/>
	<line x1="230" y1="198" x2="234" y2="120" stroke="#aaff00" stroke-width="2"/>
</g>
<g>
	<polygon points="283,232 274,232 279,224" fill="#aaff00"/>
	<line x1="230" y1="198" x2="277" y2="228" stroke="#aaff00" stroke-width="2"/>
</g>
<g>
	<polygon points="87,203 93,197 96,205" fill="#aaff00"/>
	<line x1="150" y1="185" x2="94" y2="201" stroke="#aaff00" stroke-width="2"/>
</g>
<g>
	<polygon points="55,252 55,243 63,247" fill="#aaff00"/>
	<line x1="83" y1="205" x2="58" y2="245" stroke="#aaff00" stroke-width="2"/>
</g>
<g>
	<polygon points="79,202 70,201 75,194" fill="#aaff00"/>
	<line x1="37" y1="172" x2="73" y2="198" stroke="#aaff00" stroke-width="2"/>
</g>
<g>
	<polygon points="254,53 256,62 247,59" fill="#aaff00"/>
	<line x1="235" y1="109" x2="252" y2="60" stroke="#aaff00" stroke-width="2"/>
</g>
<g>
	<polygon points="182,72 191,73 186,80" fill="#aaff00"/>
	<line x1="235" y1="109" x2="188" y2="76" stroke="#aaff00" stroke-width="2"/>
</g>
<g>
	<polygon points="143,30 152,33 145,39" fill="#aaff00"/>
	<line x1="179" y1="70" x2="148" y2="35" stroke="#aaff00" stroke-width="2"/>
</g>
<g>
	<polygon points="359,113 351,117 351,108" fill="#aaff00"/>
	<line x1="301" y1="115" x2="352" y2="113" stroke="#aaff00" stroke-width="2"/>
</g>
<g>
	<polygon points="297,164 293,156 302,157" fill="#aaff00"/>
	<line x1="301" y1="115" x2="297" y2="157" stroke="#aaff00" stroke-width="2"/>
</g>
<g>
	<polygon points="239,109 247,105 246,114" fill="#aaff00"/>
	<line x1="301" y1="115" x2="246" y2="110" stroke="#aaff00" stroke-width="2"/>
</g>

<g fill="#000000">
	<circle cx="363" cy="112" r="4"/>
</g>
<g fill="#000000">
	<circle cx="296" cy="168" r="4"/>
</g>
<g fill="#000000">
	<circle cx="229" cy="197" r="4"/>
</g>
<g fill="#000000">
	<circle cx="180" cy="240" r="4"/>
</g>
<g fill="#000000">
	<circle cx="238" cy="273" r="4"/>
</g>
<g fill="#000000">
	<circle cx="149" cy="184" r="4"/>
</g>
<g fill="#000000">
	<circle cx="234" cy="108" r="4"/>
</g>
<g fill="#000000">
	<circle cx="286" cy="234" r="4"/>
</g>
<g fill="#000000">
	<circle cx="82" cy="204" r="4"/>
</g>
<g fill="#000000">
	<circle cx="52" cy="255" r="4"/>
</g>
<g fill="#000000">
	<circle cx="36" cy="171" r="4"/>
</g>
<g fill="#000000">
	<circle cx="255" cy="48" r="4"/>
</g>
<g fill="#000000">
	<circle cx="178" cy="69" r="4"/>
</g>
<g fill="#000000">
	<circle cx="140" cy="26" r="4"/>
</g>
<g fill="#000000">
	<circle cx="358" cy="168" r="4"/>
</g>
<g fill="#000000">
	<circle cx="300" cy="114" r="4"/>
</g>

</g>

</svg>
