<?xml version="1.0" encoding="utf-8"?>
<!-- Created with Hypercube (http://tumic.wz.cz/hypercube) -->

<svg width="400" height="300" viewBox="0 0 400 300" xmlns="http://www.w3.org/2000/svg" baseProfile="tiny">

<g font-family="Helvetica" font-weight="normal">

<g>
	<polygon points="218,131 220,140 211,137" fill="#aaff00"/>
	<line x1="201" y1="186" x2="216" y2="138" stroke="#aaff00" stroke-width="2"/>
</g>
<g>
	<polygon points="199,246 194,238 203,238" fill="#aaff00"/>
	<line x1="201" y1="186" x2="199" y2="239" stroke="#aaff00" stroke-width="2"/>
</g>
<g>
	<polygon points="274,165 268,171 265,163" fill="#aaff00"/>
	<line x1="201" y1="186" x2="267" y2="167" stroke="#aaff00" stroke-width="2"/>
</g>
<g>
	<polygon points="142,191 149,186 150,195" fill="#aaff00"/>
	<line x1="201" y1="186" x2="149" y2="190" stroke="#aaff00" stroke-width="2"/>
</g>
<g>
	<polygon points="249,221 240,220 245,213" fill="#aaff00"/>
	<line x1="201" y1="186" x2="243" y2="217" stroke="#aaff00" stroke-width="2"/>
</g>
<g>
	<polygon points="345,164 337,169 337,160" fill="#aaff00"/>
	<line x1="279" y1="164" x2="338" y2="164" stroke="#aaff00" stroke-width="2"/>
</g>
<g>
	<polygon points="380,211 372,207 379,202" fill="#aaff00"/>
	<line x1="350" y1="165" x2="376" y2="205" stroke="#aaff00" stroke-width="2"/>
</g>
<g>
	<polygon points="352,161 353,152 360,157" fill="#aaff00"/>
	<line x1="385" y1="118" x2="356" y2="155" stroke="#aaff00" stroke-width="2"/>
</g>
<g>
	<polygon points="122,249 119,240 128,243" fill="#aaff00"/>
	<line x1="138" y1="192" x2="124" y2="242" stroke="#aaff00" stroke-width="2"/>
</g>
<g>
	<polygon points="144,110 148,118 139,117" fill="#aaff00"/>
	<line x1="138" y1="192" x2="144" y2="117" stroke="#aaff00" stroke-width="2"/>
</g>
<g>
	<polygon points="139,51 144,58 135,59" fill="#aaff00"/>
	<line x1="145" y1="106" x2="140" y2="58" stroke="#aaff00" stroke-width="2"/>
</g>
<g>
	<polygon points="133,192 126,197 125,188" fill="#aaff00"/>
	<line x1="73" y1="197" x2="126" y2="192" stroke="#aaff00" stroke-width="2"/>
</g>
<g>
	<polygon points="97,154 97,163 89,159" fill="#aaff00"/>
	<line x1="73" y1="197" x2="94" y2="161" stroke="#aaff00" stroke-width="2"/>
</g>
<g>
	<polygon points="21,183 30,180 27,189" fill="#aaff00"/>
	<line x1="73" y1="197" x2="28" y2="185" stroke="#aaff00" stroke-width="2"/>
</g>
<g>
	<polygon points="196,184 187,186 190,177" fill="#aaff00"/>
	<line x1="100" y1="151" x2="189" y2="182" stroke="#aaff00" stroke-width="2"/>
</g>
<g>
	<polygon points="95,149 86,151 89,142" fill="#aaff00"/>
	<line x1="37" y1="129" x2="88" y2="147" stroke="#aaff00" stroke-width="2"/>
</g>
<g>
	<polygon points="18,177 17,168 25,172" fill="#aaff00"/>
	<line x1="37" y1="129" x2="21" y2="171" stroke="#aaff00" stroke-width="2"/>
</g>

<g fill="#000000">
	<circle cx="219" cy="126" r="4"/>
</g>
<g fill="#000000">
	<circle cx="200" cy="185" r="4"/>
</g>
<g fill="#000000">
	<circle cx="198" cy="250" r="4"/>
</g>
<g fill="#000000">
	<circle cx="278" cy="163" r="4"/>
</g>
<g fill="#000000">
	<circle cx="137" cy="191" r="4"/>
</g>
<g fill="#000000">
	<circle cx="252" cy="223" r="4"/>
</g>
<g fill="#000000">
	<circle cx="99" cy="150" r="4"/>
</g>
<g fill="#000000">
	<circle cx="349" cy="164" r="4"/>
</g>
<g fill="#000000">
	<circle cx="382" cy="214" r="4"/>
</g>
<g fill="#000000">
	<circle cx="384" cy="117" r="4"/>
</g>
<g fill="#000000">
	<circle cx="120" cy="253" r="4"/>
</g>
<g fill="#000000">
	<circle cx="144" cy="105" r="4"/>
</g>
<g fill="#000000">
	<circle cx="138" cy="46" r="4"/>
</g>
<g fill="#000000">
	<circle cx="36" cy="128" r="4"/>
</g>
<g fill="#000000">
	<circle cx="16" cy="181" r="4"/>
</g>
<g fill="#000000">
	<circle cx="72" cy="196" r="4"/>
</g>

</g>

</svg>
