<?xml version="1.0" encoding="utf-8"?>
<!-- Created with Hypercube (http://tumic.wz.cz/hypercube) -->

<svg width="400" height="300" viewBox="0 0 400 300" xmlns="http://www.w3.org/2000/svg" baseProfile="tiny">

<g font-family="Helvetica" font-weight="normal">

<g>
	<polygon points="155,198 163,194 163,203" fill="#aaff00"/>
	<line x1="234" y1="202" x2="162" y2="198" stroke="#aaff00" stroke-width="2"/>
</g>
<g>
	<polygon points="261,251 254,246 261,242" fill="#aaff00"/>
	<line x1="234" y1="202" x2="258" y2="244" stroke="#aaff00" stroke-width="2"/>
</g>
<g>
	<polygon points="211,151 219,156 210,160" fill="#aaff00"/>
	<line x1="234" y1="202" x2="214" y2="157" stroke="#aaff00" stroke-width="2"/>
</g>
<g>
	<polygon points="206,149 203,158 197,151" fill="#aaff00"/>
	<line x1="151" y1="198" x2="201" y2="154" stroke="#aaff00" stroke-width="2"/>
</g>
<g>
	<polygon points="177,174 174,183 168,176" fill="#aaff00"/>
	<line x1="151" y1="198" x2="172" y2="179" stroke="#aaff00" stroke-width="2"/>
</g>
<g>
	<polygon points="100,175 109,174 105,183" fill="#aaff00"/>
	<line x1="151" y1="198" x2="106" y2="178" stroke="#aaff00" stroke-width="2"/>
</g>
<g>
	<polygon points="139,156 145,162 137,165" fill="#aaff00"/>
	<line x1="151" y1="198" x2="141" y2="163" stroke="#aaff00" stroke-width="2"/>
</g>
<g>
	<polygon points="99,244 102,235 108,242" fill="#aaff00"/>
	<line x1="151" y1="198" x2="104" y2="239" stroke="#aaff00" stroke-width="2"/>
</g>
<g>
	<polygon points="151,250 146,242 155,242" fill="#aaff00"/>
	<line x1="151" y1="198" x2="151" y2="243" stroke="#aaff00" stroke-width="2"/>
</g>
<g>
	<polygon points="151,193 148,185 157,186" fill="#aaff00"/>
	<line x1="165" y1="124" x2="153" y2="186" stroke="#aaff00" stroke-width="2"/>
</g>
<g>
	<polygon points="205,144 197,145 201,137" fill="#aaff00"/>
	<line x1="165" y1="124" x2="199" y2="141" stroke="#aaff00" stroke-width="2"/>
</g>
<g>
	<polygon points="179,167 172,161 181,158" fill="#aaff00"/>
	<line x1="165" y1="124" x2="177" y2="160" stroke="#aaff00" stroke-width="2"/>
</g>
<g>
	<polygon points="128,105 136,104 132,112" fill="#aaff00"/>
	<line x1="165" y1="124" x2="134" y2="108" stroke="#aaff00" stroke-width="2"/>
</g>
<g>
	<polygon points="208,75 206,84 199,78" fill="#aaff00"/>
	<line x1="165" y1="124" x2="203" y2="80" stroke="#aaff00" stroke-width="2"/>
</g>
<g>
	<polygon points="99,171 103,163 108,170" fill="#aaff00"/>
	<line x1="165" y1="124" x2="105" y2="167" stroke="#aaff00" stroke-width="2"/>
</g>
<g>
	<polygon points="141,148 143,140 149,146" fill="#aaff00"/>
	<line x1="165" y1="124" x2="146" y2="143" stroke="#aaff00" stroke-width="2"/>
</g>
<g>
	<polygon points="206,149 203,158 197,151" fill="#aaff00"/>
	<line x1="181" y1="172" x2="201" y2="154" stroke="#aaff00" stroke-width="2"/>
</g>
<g>
	<polygon points="149,193 143,187 151,184" fill="#aaff00"/>
	<line x1="124" y1="103" x2="147" y2="186" stroke="#aaff00" stroke-width="2"/>
</g>
<g>
	<polygon points="205,144 197,145 201,137" fill="#aaff00"/>
	<line x1="124" y1="103" x2="199" y2="141" stroke="#aaff00" stroke-width="2"/>
</g>
<g>
	<polygon points="98,51 105,55 97,60" fill="#aaff00"/>
	<line x1="124" y1="103" x2="101" y2="57" stroke="#aaff00" stroke-width="2"/>
</g>
<g>
	<polygon points="154,195 157,186 163,193" fill="#aaff00"/>
	<line x1="246" y1="120" x2="160" y2="190" stroke="#aaff00" stroke-width="2"/>
</g>
<g>
	<polygon points="213,144 217,136 222,143" fill="#aaff00"/>
	<line x1="246" y1="120" x2="219" y2="139" stroke="#aaff00" stroke-width="2"/>
</g>
<g>
	<polygon points="213,75 221,79 214,84" fill="#aaff00"/>
	<line x1="246" y1="120" x2="217" y2="81" stroke="#aaff00" stroke-width="2"/>
</g>
<g>
	<polygon points="300,104 294,110 291,102" fill="#aaff00"/>
	<line x1="246" y1="120" x2="293" y2="106" stroke="#aaff00" stroke-width="2"/>
</g>
<g>
	<polygon points="154,201 162,203 156,209" fill="#aaff00"/>
	<line x1="207" y1="255" x2="159" y2="206" stroke="#aaff00" stroke-width="2"/>
</g>
<g>
	<polygon points="259,255 251,259 251,250" fill="#aaff00"/>
	<line x1="207" y1="255" x2="252" y2="255" stroke="#aaff00" stroke-width="2"/>
</g>

<g fill="#000000">
	<circle cx="233" cy="201" r="4"/>
</g>
<g fill="#000000">
	<circle cx="150" cy="197" r="4"/>
</g>
<g fill="#000000">
	<circle cx="263" cy="254" r="4"/>
</g>
<g fill="#000000">
	<circle cx="209" cy="146" r="4"/>
</g>
<g fill="#000000">
	<circle cx="164" cy="123" r="4"/>
</g>
<g fill="#000000">
	<circle cx="180" cy="171" r="4"/>
</g>
<g fill="#000000">
	<circle cx="123" cy="102" r="4"/>
</g>
<g fill="#000000">
	<circle cx="210" cy="71" r="4"/>
</g>
<g fill="#000000">
	<circle cx="95" cy="173" r="4"/>
</g>
<g fill="#000000">
	<circle cx="137" cy="151" r="4"/>
</g>
<g fill="#000000">
	<circle cx="95" cy="246" r="4"/>
</g>
<g fill="#000000">
	<circle cx="150" cy="254" r="4"/>
</g>
<g fill="#000000">
	<circle cx="95" cy="46" r="4"/>
</g>
<g fill="#000000">
	<circle cx="206" cy="254" r="4"/>
</g>
<g fill="#000000">
	<circle cx="245" cy="119" r="4"/>
</g>
<g fill="#000000">
	<circle cx="304" cy="102" r="4"/>
</g>

</g>

</svg>
