<?xml version="1.0" encoding="utf-8"?>
<!-- Created with Hypercube (http://tumic.wz.cz/hypercube) -->

<svg width="400" height="300" viewBox="0 0 400 300" xmlns="http://www.w3.org/2000/svg" baseProfile="tiny">

<g font-family="Helvetica" font-weight="normal">

<g>
	<polygon points="206,154 215,155 210,162" fill="#aaff00"/>
	<line x1="288" y1="216" x2="212" y2="159" stroke="#aaff00" stroke-width="2"/>
</g>
<g>
	<polygon points="289,95 285,103 280,95" fill="#aaff00"/>
	<line x1="203" y1="152" x2="283" y2="99" stroke="#aaff00" stroke-width="2"/>
</g>
<g>
	<polygon points="190,107 196,113 188,116" fill="#aaff00"/>
	<line x1="203" y1="152" x2="192" y2="114" stroke="#aaff00" stroke-width="2"/>
</g>
<g>
	<polygon points="243,127 238,135 234,127" fill="#aaff00"/>
	<line x1="203" y1="152" x2="237" y2="131" stroke="#aaff00" stroke-width="2"/>
</g>
<g>
	<polygon points="102,141 110,137 109,146" fill="#aaff00"/>
	<line x1="203" y1="152" x2="109" y2="142" stroke="#aaff00" stroke-width="2"/>
</g>
<g>
	<polygon points="237,67 238,76 230,72" fill="#aaff00"/>
	<line x1="203" y1="152" x2="234" y2="73" stroke="#aaff00" stroke-width="2"/>
</g>
<g>
	<polygon points="298,154 290,159 290,150" fill="#aaff00"/>
	<line x1="203" y1="152" x2="291" y2="154" stroke="#aaff00" stroke-width="2"/>
</g>
<g>
	<polygon points="117,204 122,196 126,204" fill="#aaff00"/>
	<line x1="203" y1="152" x2="123" y2="200" stroke="#aaff00" stroke-width="2"/>
</g>
<g>
	<polygon points="239,183 230,181 236,174" fill="#aaff00"/>
	<line x1="203" y1="152" x2="234" y2="178" stroke="#aaff00" stroke-width="2"/>
</g>
<g>
	<polygon points="187,197 185,188 194,191" fill="#aaff00"/>
	<line x1="203" y1="152" x2="189" y2="190" stroke="#aaff00" stroke-width="2"/>
</g>
<g>
	<polygon points="155,152 163,147 163,156" fill="#aaff00"/>
	<line x1="203" y1="152" x2="162" y2="152" stroke="#aaff00" stroke-width="2"/>
</g>
<g>
	<polygon points="132,92 141,94 135,101" fill="#aaff00"/>
	<line x1="203" y1="152" x2="137" y2="97" stroke="#aaff00" stroke-width="2"/>
</g>
<g>
	<polygon points="162,246 161,237 169,241" fill="#aaff00"/>
	<line x1="203" y1="152" x2="165" y2="240" stroke="#aaff00" stroke-width="2"/>
</g>
<g>
	<polygon points="180,55 186,61 177,64" fill="#aaff00"/>
	<line x1="203" y1="152" x2="181" y2="62" stroke="#aaff00" stroke-width="2"/>
</g>
<g>
	<polygon points="228,244 222,238 231,235" fill="#aaff00"/>
	<line x1="203" y1="152" x2="226" y2="237" stroke="#aaff00" stroke-width="2"/>
</g>

<g fill="#000000">
	<circle cx="287" cy="215" r="4"/>
</g>
<g fill="#000000">
	<circle cx="202" cy="151" r="4"/>
</g>
<g fill="#000000">
	<circle cx="292" cy="92" r="4"/>
</g>
<g fill="#000000">
	<circle cx="188" cy="102" r="4"/>
</g>
<g fill="#000000">
	<circle cx="246" cy="124" r="4"/>
</g>
<g fill="#000000">
	<circle cx="97" cy="140" r="4"/>
</g>
<g fill="#000000">
	<circle cx="238" cy="62" r="4"/>
</g>
<g fill="#000000">
	<circle cx="302" cy="154" r="4"/>
</g>
<g fill="#000000">
	<circle cx="113" cy="206" r="4"/>
</g>
<g fill="#000000">
	<circle cx="242" cy="185" r="4"/>
</g>
<g fill="#000000">
	<circle cx="185" cy="201" r="4"/>
</g>
<g fill="#000000">
	<circle cx="150" cy="151" r="4"/>
</g>
<g fill="#000000">
	<circle cx="128" cy="89" r="4"/>
</g>
<g fill="#000000">
	<circle cx="160" cy="250" r="4"/>
</g>
<g fill="#000000">
	<circle cx="178" cy="50" r="4"/>
</g>
<g fill="#000000">
	<circle cx="229" cy="248" r="4"/>
</g>

</g>

</svg>
