<?xml version="1.0" encoding="utf-8"?>
<!-- Created with Hypercube (http://tumic.wz.cz/hypercube) -->

<svg width="400" height="300" viewBox="0 0 400 300" xmlns="http://www.w3.org/2000/svg" baseProfile="tiny">

<g font-family="Helvetica" font-weight="normal">

<g>
	<polygon points="243,120 247,128 238,128" fill="#aaff00"/>
	<line x1="243" y1="209" x2="243" y2="127" stroke="#aaff00" stroke-width="2"/>
</g>
<g>
	<polygon points="207,177 216,179 210,186" fill="#aaff00"/>
	<line x1="243" y1="209" x2="212" y2="182" stroke="#aaff00" stroke-width="2"/>
</g>
<g>
	<polygon points="203,221 209,214 212,223" fill="#aaff00"/>
	<line x1="243" y1="209" x2="210" y2="219" stroke="#aaff00" stroke-width="2"/>
</g>
<g>
	<polygon points="278,199 272,205 269,196" fill="#aaff00"/>
	<line x1="243" y1="209" x2="271" y2="201" stroke="#aaff00" stroke-width="2"/>
</g>
<g>
	<polygon points="206,83 215,84 209,91" fill="#aaff00"/>
	<line x1="243" y1="116" x2="211" y2="87" stroke="#aaff00" stroke-width="2"/>
</g>
<g>
	<polygon points="200,127 206,121 209,130" fill="#aaff00"/>
	<line x1="243" y1="116" x2="207" y2="125" stroke="#aaff00" stroke-width="2"/>
</g>
<g>
	<polygon points="279,124 271,126 272,117" fill="#aaff00"/>
	<line x1="243" y1="116" x2="272" y2="122" stroke="#aaff00" stroke-width="2"/>
</g>
<g>
	<polygon points="163,92 169,85 172,94" fill="#aaff00"/>
	<line x1="203" y1="80" x2="170" y2="90" stroke="#aaff00" stroke-width="2"/>
</g>
<g>
	<polygon points="238,68 232,75 229,66" fill="#aaff00"/>
	<line x1="203" y1="80" x2="231" y2="70" stroke="#aaff00" stroke-width="2"/>
</g>
<g>
	<polygon points="124,104 130,98 133,106" fill="#aaff00"/>
	<line x1="159" y1="94" x2="131" y2="102" stroke="#aaff00" stroke-width="2"/>
</g>
<g>
	<polygon points="124,104 130,97 133,106" fill="#aaff00"/>
	<line x1="243" y1="67" x2="131" y2="102" stroke="#aaff00" stroke-width="2"/>
</g>
<g>
	<polygon points="245,70 253,74 246,79" fill="#aaff00"/>
	<line x1="284" y1="125" x2="249" y2="76" stroke="#aaff00" stroke-width="2"/>
</g>
<g>
	<polygon points="162,144 169,138 170,147" fill="#aaff00"/>
	<line x1="284" y1="125" x2="169" y2="143" stroke="#aaff00" stroke-width="2"/>
</g>
<g>
	<polygon points="123,109 131,111 125,117" fill="#aaff00"/>
	<line x1="158" y1="145" x2="128" y2="114" stroke="#aaff00" stroke-width="2"/>
</g>
<g>
	<polygon points="162,97 171,99 164,105" fill="#aaff00"/>
	<line x1="196" y1="129" x2="167" y2="102" stroke="#aaff00" stroke-width="2"/>
</g>
<g>
	<polygon points="162,143 167,136 171,144" fill="#aaff00"/>
	<line x1="196" y1="129" x2="168" y2="140" stroke="#aaff00" stroke-width="2"/>
</g>
<g>
	<polygon points="196,133 200,141 191,141" fill="#aaff00"/>
	<line x1="199" y1="223" x2="196" y2="140" stroke="#aaff00" stroke-width="2"/>
</g>
<g>
	<polygon points="160,192 169,194 163,201" fill="#aaff00"/>
	<line x1="199" y1="223" x2="166" y2="197" stroke="#aaff00" stroke-width="2"/>
</g>
<g>
	<polygon points="164,233 170,227 173,235" fill="#aaff00"/>
	<line x1="199" y1="223" x2="171" y2="231" stroke="#aaff00" stroke-width="2"/>
</g>
<g>
	<polygon points="158,98 163,106 154,106" fill="#aaff00"/>
	<line x1="157" y1="190" x2="158" y2="105" stroke="#aaff00" stroke-width="2"/>
</g>
<g>
	<polygon points="122,180 131,178 128,186" fill="#aaff00"/>
	<line x1="157" y1="190" x2="129" y2="182" stroke="#aaff00" stroke-width="2"/>
</g>
<g>
	<polygon points="119,110 124,118 115,118" fill="#aaff00"/>
	<line x1="118" y1="179" x2="119" y2="117" stroke="#aaff00" stroke-width="2"/>
</g>
<g>
	<polygon points="242,71 247,79 238,79" fill="#aaff00"/>
	<line x1="242" y1="159" x2="242" y2="78" stroke="#aaff00" stroke-width="2"/>
</g>
<g>
	<polygon points="122,178 129,172 130,181" fill="#aaff00"/>
	<line x1="242" y1="159" x2="129" y2="177" stroke="#aaff00" stroke-width="2"/>
</g>
<g>
	<polygon points="203,84 207,92 198,92" fill="#aaff00"/>
	<line x1="204" y1="175" x2="203" y2="91" stroke="#aaff00" stroke-width="2"/>
</g>
<g>
	<polygon points="161,188 167,181 170,190" fill="#aaff00"/>
	<line x1="204" y1="175" x2="168" y2="186" stroke="#aaff00" stroke-width="2"/>
</g>
<g>
	<polygon points="237,160 232,167 228,159" fill="#aaff00"/>
	<line x1="204" y1="175" x2="231" y2="163" stroke="#aaff00" stroke-width="2"/>
</g>
<g>
	<polygon points="283,129 288,137 279,137" fill="#aaff00"/>
	<line x1="283" y1="198" x2="283" y2="136" stroke="#aaff00" stroke-width="2"/>
</g>
<g>
	<polygon points="245,162 254,164 247,170" fill="#aaff00"/>
	<line x1="283" y1="198" x2="250" y2="167" stroke="#aaff00" stroke-width="2"/>
</g>
<g>
	<polygon points="164,233 170,227 173,235" fill="#aaff00"/>
	<line x1="283" y1="198" x2="171" y2="231" stroke="#aaff00" stroke-width="2"/>
</g>
<g>
	<polygon points="158,149 162,157 153,157" fill="#aaff00"/>
	<line x1="160" y1="235" x2="158" y2="156" stroke="#aaff00" stroke-width="2"/>
</g>
<g>
	<polygon points="120,182 128,186 121,191" fill="#aaff00"/>
	<line x1="160" y1="235" x2="125" y2="188" stroke="#aaff00" stroke-width="2"/>
</g>

<g fill="#000000">
	<circle cx="242" cy="208" r="4"/>
</g>
<g fill="#000000">
	<circle cx="242" cy="115" r="4"/>
</g>
<g fill="#000000">
	<circle cx="203" cy="174" r="4"/>
</g>
<g fill="#000000">
	<circle cx="198" cy="222" r="4"/>
</g>
<g fill="#000000">
	<circle cx="282" cy="197" r="4"/>
</g>
<g fill="#000000">
	<circle cx="202" cy="79" r="4"/>
</g>
<g fill="#000000">
	<circle cx="195" cy="128" r="4"/>
</g>
<g fill="#000000">
	<circle cx="283" cy="124" r="4"/>
</g>
<g fill="#000000">
	<circle cx="156" cy="189" r="4"/>
</g>
<g fill="#000000">
	<circle cx="241" cy="158" r="4"/>
</g>
<g fill="#000000">
	<circle cx="159" cy="234" r="4"/>
</g>
<g fill="#000000">
	<circle cx="158" cy="93" r="4"/>
</g>
<g fill="#000000">
	<circle cx="242" cy="66" r="4"/>
</g>
<g fill="#000000">
	<circle cx="157" cy="144" r="4"/>
</g>
<g fill="#000000">
	<circle cx="117" cy="178" r="4"/>
</g>
<g fill="#000000">
	<circle cx="119" cy="105" r="4"/>
</g>

</g>

</svg>
