<?xml version="1.0" encoding="utf-8"?>
<!-- Created with Hypercube (http://tumic.wz.cz/hypercube) -->

<svg width="400" height="300" viewBox="0 0 400 300" xmlns="http://www.w3.org/2000/svg" baseProfile="tiny">

<g font-family="Helvetica" font-weight="normal">

<g>
	<polygon points="299,184 307,188 300,193" fill="#aaff00"/>
	<line x1="325" y1="222" x2="303" y2="190" stroke="#aaff00" stroke-width="2"/>
</g>
<g>
	<polygon points="361,187 359,195 352,189" fill="#aaff00"/>
	<line x1="325" y1="222" x2="356" y2="192" stroke="#aaff00" stroke-width="2"/>
</g>
<g>
	<polygon points="331,156 335,164 326,163" fill="#aaff00"/>
	<line x1="325" y1="222" x2="330" y2="163" stroke="#aaff00" stroke-width="2"/>
</g>
<g>
	<polygon points="360,183 352,187 352,178" fill="#aaff00"/>
	<line x1="297" y1="181" x2="353" y2="183" stroke="#aaff00" stroke-width="2"/>
</g>
<g>
	<polygon points="328,154 325,163 319,156" fill="#aaff00"/>
	<line x1="297" y1="181" x2="322" y2="159" stroke="#aaff00" stroke-width="2"/>
</g>
<g>
	<polygon points="248,149 257,149 252,157" fill="#aaff00"/>
	<line x1="297" y1="181" x2="254" y2="153" stroke="#aaff00" stroke-width="2"/>
</g>
<g>
	<polygon points="335,155 343,157 337,163" fill="#aaff00"/>
	<line x1="365" y1="184" x2="340" y2="160" stroke="#aaff00" stroke-width="2"/>
</g>
<g>
	<polygon points="365,120 370,128 361,128" fill="#aaff00"/>
	<line x1="365" y1="184" x2="365" y2="127" stroke="#aaff00" stroke-width="2"/>
</g>
<g>
	<polygon points="362,119 360,128 354,121" fill="#aaff00"/>
	<line x1="332" y1="152" x2="357" y2="124" stroke="#aaff00" stroke-width="2"/>
</g>
<g>
	<polygon points="304,111 312,115 305,120" fill="#aaff00"/>
	<line x1="332" y1="152" x2="308" y2="117" stroke="#aaff00" stroke-width="2"/>
</g>
<g>
	<polygon points="306,108 314,105 313,113" fill="#aaff00"/>
	<line x1="366" y1="116" x2="313" y2="109" stroke="#aaff00" stroke-width="2"/>
</g>
<g>
	<polygon points="248,144 252,136 257,143" fill="#aaff00"/>
	<line x1="302" y1="108" x2="254" y2="140" stroke="#aaff00" stroke-width="2"/>
</g>
<g>
	<polygon points="216,182 218,173 225,179" fill="#aaff00"/>
	<line x1="245" y1="147" x2="221" y2="176" stroke="#aaff00" stroke-width="2"/>
</g>
<g>
	<polygon points="171,187 176,180 180,187" fill="#aaff00"/>
	<line x1="245" y1="147" x2="178" y2="184" stroke="#aaff00" stroke-width="2"/>
</g>
<g>
	<polygon points="165,128 174,131 167,137" fill="#aaff00"/>
	<line x1="214" y1="186" x2="170" y2="133" stroke="#aaff00" stroke-width="2"/>
</g>
<g>
	<polygon points="172,189 179,184 180,193" fill="#aaff00"/>
	<line x1="214" y1="186" x2="179" y2="188" stroke="#aaff00" stroke-width="2"/>
</g>
<g>
	<polygon points="99,117 107,113 106,122" fill="#aaff00"/>
	<line x1="163" y1="125" x2="106" y2="118" stroke="#aaff00" stroke-width="2"/>
</g>
<g>
	<polygon points="39,135 45,128 48,137" fill="#aaff00"/>
	<line x1="95" y1="117" x2="46" y2="133" stroke="#aaff00" stroke-width="2"/>
</g>
<g>
	<polygon points="101,176 96,169 105,168" fill="#aaff00"/>
	<line x1="95" y1="117" x2="100" y2="169" stroke="#aaff00" stroke-width="2"/>
</g>
<g>
	<polygon points="46,188 40,181 48,180" fill="#aaff00"/>
	<line x1="35" y1="137" x2="44" y2="181" stroke="#aaff00" stroke-width="2"/>
</g>
<g>
	<polygon points="163,189 155,192 156,183" fill="#aaff00"/>
	<line x1="102" y1="181" x2="156" y2="188" stroke="#aaff00" stroke-width="2"/>
</g>
<g>
	<polygon points="51,192 58,185 59,194" fill="#aaff00"/>
	<line x1="102" y1="181" x2="58" y2="190" stroke="#aaff00" stroke-width="2"/>
</g>
<g>
	<polygon points="94,112 88,105 97,104" fill="#aaff00"/>
	<line x1="86" y1="58" x2="93" y2="105" stroke="#aaff00" stroke-width="2"/>
</g>
<g>
	<polygon points="320,223 314,229 311,221" fill="#aaff00"/>
	<line x1="260" y1="242" x2="313" y2="225" stroke="#aaff00" stroke-width="2"/>
</g>
<g>
	<polygon points="216,189 225,192 218,198" fill="#aaff00"/>
	<line x1="260" y1="242" x2="221" y2="195" stroke="#aaff00" stroke-width="2"/>
</g>

<g fill="#000000">
	<circle cx="324" cy="221" r="4"/>
</g>
<g fill="#000000">
	<circle cx="296" cy="180" r="4"/>
</g>
<g fill="#000000">
	<circle cx="364" cy="183" r="4"/>
</g>
<g fill="#000000">
	<circle cx="331" cy="151" r="4"/>
</g>
<g fill="#000000">
	<circle cx="259" cy="241" r="4"/>
</g>
<g fill="#000000">
	<circle cx="213" cy="185" r="4"/>
</g>
<g fill="#000000">
	<circle cx="244" cy="146" r="4"/>
</g>
<g fill="#000000">
	<circle cx="365" cy="115" r="4"/>
</g>
<g fill="#000000">
	<circle cx="301" cy="107" r="4"/>
</g>
<g fill="#000000">
	<circle cx="162" cy="124" r="4"/>
</g>
<g fill="#000000">
	<circle cx="167" cy="189" r="4"/>
</g>
<g fill="#000000">
	<circle cx="94" cy="116" r="4"/>
</g>
<g fill="#000000">
	<circle cx="34" cy="136" r="4"/>
</g>
<g fill="#000000">
	<circle cx="101" cy="180" r="4"/>
</g>
<g fill="#000000">
	<circle cx="85" cy="57" r="4"/>
</g>
<g fill="#000000">
	<circle cx="46" cy="192" r="4"/>
</g>

</g>

</svg>
