<?xml version="1.0" encoding="utf-8"?>
<!-- Created with Hypercube (http://tumic.wz.cz/hypercube) -->

<svg width="400" height="300" viewBox="0 0 400 300" xmlns="http://www.w3.org/2000/svg" baseProfile="tiny">

<g font-family="Helvetica" font-weight="normal">

<g>
	<polygon points="234,172 240,165 243,174" fill="#aaff00"/>
	<line x1="305" y1="148" x2="241" y2="170" stroke="#aaff00" stroke-width="2"/>
</g>
<g>
	<polygon points="354,118 349,126 345,118" fill="#aaff00"/>
	<line x1="305" y1="148" x2="347" y2="122" stroke="#aaff00" stroke-width="2"/>
</g>
<g>
	<polygon points="353,246 344,246 348,238" fill="#aaff00"/>
	<line x1="302" y1="221" x2="347" y2="242" stroke="#aaff00" stroke-width="2"/>
</g>
<g>
	<polygon points="171,249 169,257 163,251" fill="#aaff00"/>
	<line x1="135" y1="285" x2="166" y2="254" stroke="#aaff00" stroke-width="2"/>
</g>
<g>
	<polygon points="94,75 103,77 96,83" fill="#aaff00"/>
	<line x1="143" y1="120" x2="99" y2="79" stroke="#aaff00" stroke-width="2"/>
</g>
<g>
	<polygon points="113,21 114,30 105,26" fill="#aaff00"/>
	<line x1="91" y1="72" x2="110" y2="27" stroke="#aaff00" stroke-width="2"/>
</g>
<g>
	<polygon points="47,37 56,39 50,46" fill="#aaff00"/>
	<line x1="91" y1="72" x2="53" y2="42" stroke="#aaff00" stroke-width="2"/>
</g>
<g>
	<polygon points="51,110 53,102 59,108" fill="#aaff00"/>
	<line x1="91" y1="72" x2="56" y2="105" stroke="#aaff00" stroke-width="2"/>
</g>
<g>
	<polygon points="171,182 178,176 179,185" fill="#aaff00"/>
	<line x1="230" y1="174" x2="178" y2="181" stroke="#aaff00" stroke-width="2"/>
</g>
<g>
	<polygon points="298,218 289,218 294,210" fill="#aaff00"/>
	<line x1="230" y1="174" x2="292" y2="214" stroke="#aaff00" stroke-width="2"/>
</g>
<g>
	<polygon points="207,126 215,131 207,135" fill="#aaff00"/>
	<line x1="230" y1="174" x2="210" y2="132" stroke="#aaff00" stroke-width="2"/>
</g>
<g>
	<polygon points="259,107 260,116 251,112" fill="#aaff00"/>
	<line x1="230" y1="174" x2="256" y2="113" stroke="#aaff00" stroke-width="2"/>
</g>
<g>
	<polygon points="237,235 232,228 240,227" fill="#aaff00"/>
	<line x1="230" y1="174" x2="236" y2="228" stroke="#aaff00" stroke-width="2"/>
</g>
<g>
	<polygon points="177,242 178,233 186,238" fill="#aaff00"/>
	<line x1="230" y1="174" x2="182" y2="236" stroke="#aaff00" stroke-width="2"/>
</g>
<g>
	<polygon points="146,122 155,122 151,130" fill="#aaff00"/>
	<line x1="230" y1="174" x2="152" y2="126" stroke="#aaff00" stroke-width="2"/>
</g>

<g fill="#000000">
	<circle cx="304" cy="147" r="4"/>
</g>
<g fill="#000000">
	<circle cx="229" cy="173" r="4"/>
</g>
<g fill="#000000">
	<circle cx="357" cy="115" r="4"/>
</g>
<g fill="#000000">
	<circle cx="166" cy="182" r="4"/>
</g>
<g fill="#000000">
	<circle cx="301" cy="220" r="4"/>
</g>
<g fill="#000000">
	<circle cx="357" cy="247" r="4"/>
</g>
<g fill="#000000">
	<circle cx="205" cy="121" r="4"/>
</g>
<g fill="#000000">
	<circle cx="260" cy="102" r="4"/>
</g>
<g fill="#000000">
	<circle cx="237" cy="239" r="4"/>
</g>
<g fill="#000000">
	<circle cx="174" cy="245" r="4"/>
</g>
<g fill="#000000">
	<circle cx="134" cy="284" r="4"/>
</g>
<g fill="#000000">
	<circle cx="142" cy="119" r="4"/>
</g>
<g fill="#000000">
	<circle cx="90" cy="71" r="4"/>
</g>
<g fill="#000000">
	<circle cx="114" cy="16" r="4"/>
</g>
<g fill="#000000">
	<circle cx="43" cy="34" r="4"/>
</g>
<g fill="#000000">
	<circle cx="47" cy="113" r="4"/>
</g>

</g>

</svg>
