<?xml version="1.0" encoding="utf-8"?>
<!-- Created with Hypercube (http://tumic.wz.cz/hypercube) -->

<svg width="400" height="300" viewBox="0 0 400 300" xmlns="http://www.w3.org/2000/svg" baseProfile="tiny">

<g font-family="Helvetica" font-weight="normal">

<g>
	<polygon points="192,16 190,25 183,19" fill="#aaff00"/>
	<line x1="157" y1="60" x2="187" y2="22" stroke="#aaff00" stroke-width="2"/>
</g>
<g>
	<polygon points="153,56 145,54 151,48" fill="#aaff00"/>
	<line x1="113" y1="16" x2="148" y2="51" stroke="#aaff00" stroke-width="2"/>
</g>
<g>
	<polygon points="160,62 169,62 165,69" fill="#aaff00"/>
	<line x1="245" y1="109" x2="167" y2="65" stroke="#aaff00" stroke-width="2"/>
</g>
<g>
	<polygon points="211,139 214,131 220,137" fill="#aaff00"/>
	<line x1="245" y1="109" x2="216" y2="135" stroke="#aaff00" stroke-width="2"/>
</g>
<g>
	<polygon points="144,175 152,171 151,180" fill="#aaff00"/>
	<line x1="237" y1="182" x2="151" y2="175" stroke="#aaff00" stroke-width="2"/>
</g>
<g>
	<polygon points="210,146 218,150 211,155" fill="#aaff00"/>
	<line x1="237" y1="182" x2="214" y2="152" stroke="#aaff00" stroke-width="2"/>
</g>
<g>
	<polygon points="244,113 248,121 239,120" fill="#aaff00"/>
	<line x1="237" y1="182" x2="243" y2="120" stroke="#aaff00" stroke-width="2"/>
</g>
<g>
	<polygon points="184,177 192,173 191,182" fill="#aaff00"/>
	<line x1="237" y1="182" x2="191" y2="178" stroke="#aaff00" stroke-width="2"/>
</g>
<g>
	<polygon points="144,134 148,142 139,141" fill="#aaff00"/>
	<line x1="140" y1="175" x2="143" y2="141" stroke="#aaff00" stroke-width="2"/>
</g>
<g>
	<polygon points="144,175 152,171 152,180" fill="#aaff00"/>
	<line x1="180" y1="177" x2="151" y2="175" stroke="#aaff00" stroke-width="2"/>
</g>
<g>
	<polygon points="147,133 155,137 148,142" fill="#aaff00"/>
	<line x1="180" y1="177" x2="151" y2="139" stroke="#aaff00" stroke-width="2"/>
</g>
<g>
	<polygon points="205,146 203,155 196,149" fill="#aaff00"/>
	<line x1="180" y1="177" x2="200" y2="152" stroke="#aaff00" stroke-width="2"/>
</g>
<g>
	<polygon points="102,195 108,189 111,198" fill="#aaff00"/>
	<line x1="180" y1="177" x2="109" y2="194" stroke="#aaff00" stroke-width="2"/>
</g>
<g>
	<polygon points="140,179 146,186 137,187" fill="#aaff00"/>
	<line x1="147" y1="227" x2="141" y2="186" stroke="#aaff00" stroke-width="2"/>
</g>
<g>
	<polygon points="205,146 204,155 197,150" fill="#aaff00"/>
	<line x1="147" y1="227" x2="201" y2="152" stroke="#aaff00" stroke-width="2"/>
</g>
<g>
	<polygon points="101,199 110,199 106,207" fill="#aaff00"/>
	<line x1="147" y1="227" x2="107" y2="203" stroke="#aaff00" stroke-width="2"/>
</g>
<g>
	<polygon points="134,283 131,275 140,277" fill="#aaff00"/>
	<line x1="147" y1="227" x2="135" y2="276" stroke="#aaff00" stroke-width="2"/>
</g>
<g>
	<polygon points="154,63 152,72 145,66" fill="#aaff00"/>
	<line x1="99" y1="130" x2="149" y2="69" stroke="#aaff00" stroke-width="2"/>
</g>
<g>
	<polygon points="136,171 128,168 135,162" fill="#aaff00"/>
	<line x1="99" y1="130" x2="132" y2="166" stroke="#aaff00" stroke-width="2"/>
</g>
<g>
	<polygon points="140,130 132,134 132,125" fill="#aaff00"/>
	<line x1="99" y1="130" x2="133" y2="130" stroke="#aaff00" stroke-width="2"/>
</g>
<g>
	<polygon points="98,192 93,184 102,184" fill="#aaff00"/>
	<line x1="99" y1="130" x2="98" y2="185" stroke="#aaff00" stroke-width="2"/>
</g>
<g>
	<polygon points="238,186 246,191 238,195" fill="#aaff00"/>
	<line x1="266" y1="242" x2="242" y2="192" stroke="#aaff00" stroke-width="2"/>
</g>
<g>
	<polygon points="241,181 248,176 249,185" fill="#aaff00"/>
	<line x1="302" y1="177" x2="248" y2="181" stroke="#aaff00" stroke-width="2"/>
</g>
<g>
	<polygon points="160,62 169,62 165,69" fill="#aaff00"/>
	<line x1="200" y1="84" x2="167" y2="65" stroke="#aaff00" stroke-width="2"/>
</g>
<g>
	<polygon points="207,138 201,131 210,130" fill="#aaff00"/>
	<line x1="200" y1="84" x2="206" y2="131" stroke="#aaff00" stroke-width="2"/>
</g>

<g fill="#000000">
	<circle cx="156" cy="59" r="4"/>
</g>
<g fill="#000000">
	<circle cx="194" cy="12" r="4"/>
</g>
<g fill="#000000">
	<circle cx="112" cy="15" r="4"/>
</g>
<g fill="#000000">
	<circle cx="139" cy="174" r="4"/>
</g>
<g fill="#000000">
	<circle cx="144" cy="129" r="4"/>
</g>
<g fill="#000000">
	<circle cx="236" cy="181" r="4"/>
</g>
<g fill="#000000">
	<circle cx="207" cy="142" r="4"/>
</g>
<g fill="#000000">
	<circle cx="244" cy="108" r="4"/>
</g>
<g fill="#000000">
	<circle cx="179" cy="176" r="4"/>
</g>
<g fill="#000000">
	<circle cx="97" cy="196" r="4"/>
</g>
<g fill="#000000">
	<circle cx="265" cy="241" r="4"/>
</g>
<g fill="#000000">
	<circle cx="301" cy="176" r="4"/>
</g>
<g fill="#000000">
	<circle cx="146" cy="226" r="4"/>
</g>
<g fill="#000000">
	<circle cx="132" cy="287" r="4"/>
</g>
<g fill="#000000">
	<circle cx="199" cy="83" r="4"/>
</g>
<g fill="#000000">
	<circle cx="98" cy="129" r="4"/>
</g>

</g>

</svg>
