<?xml version="1.0" encoding="utf-8"?>
<!-- Created with Hypercube (http://tumic.wz.cz/hypercube) -->

<svg width="400" height="300" viewBox="0 0 400 300" xmlns="http://www.w3.org/2000/svg" baseProfile="tiny">

<g font-family="Helvetica" font-weight="normal">

<g>
	<polygon points="341,86 340,95 333,90" fill="#aaff00"/>
	<line x1="300" y1="142" x2="337" y2="92" stroke="#aaff00" stroke-width="2"/>
</g>
<g>
	<polygon points="275,94 282,99 274,103" fill="#aaff00"/>
	<line x1="300" y1="142" x2="278" y2="101" stroke="#aaff00" stroke-width="2"/>
</g>
<g>
	<polygon points="272,25 281,27 275,34" fill="#aaff00"/>
	<line x1="344" y1="83" x2="278" y2="30" stroke="#aaff00" stroke-width="2"/>
</g>
<g>
	<polygon points="314,59 323,61 317,68" fill="#aaff00"/>
	<line x1="344" y1="83" x2="320" y2="64" stroke="#aaff00" stroke-width="2"/>
</g>
<g>
	<polygon points="269,27 274,35 265,35" fill="#aaff00"/>
	<line x1="273" y1="91" x2="269" y2="34" stroke="#aaff00" stroke-width="2"/>
</g>
<g>
	<polygon points="307,60 304,68 298,61" fill="#aaff00"/>
	<line x1="273" y1="91" x2="302" y2="64" stroke="#aaff00" stroke-width="2"/>
</g>
<g>
	<polygon points="221,97 228,92 229,100" fill="#aaff00"/>
	<line x1="273" y1="91" x2="228" y2="96" stroke="#aaff00" stroke-width="2"/>
</g>
<g>
	<polygon points="264,22 256,26 257,17" fill="#aaff00"/>
	<line x1="183" y1="14" x2="257" y2="21" stroke="#aaff00" stroke-width="2"/>
</g>
<g>
	<polygon points="215,93 208,88 216,84" fill="#aaff00"/>
	<line x1="183" y1="14" x2="212" y2="87" stroke="#aaff00" stroke-width="2"/>
</g>
<g>
	<polygon points="216,17 208,21 209,12" fill="#aaff00"/>
	<line x1="183" y1="14" x2="209" y2="16" stroke="#aaff00" stroke-width="2"/>
</g>
<g>
	<polygon points="264,25 260,32 255,24" fill="#aaff00"/>
	<line x1="201" y1="57" x2="258" y2="28" stroke="#aaff00" stroke-width="2"/>
</g>
<g>
	<polygon points="218,22 219,30 211,26" fill="#aaff00"/>
	<line x1="201" y1="57" x2="215" y2="28" stroke="#aaff00" stroke-width="2"/>
</g>
<g>
	<polygon points="196,57 189,63 188,54" fill="#aaff00"/>
	<line x1="141" y1="65" x2="189" y2="58" stroke="#aaff00" stroke-width="2"/>
</g>
<g>
	<polygon points="180,17 178,26 171,20" fill="#aaff00"/>
	<line x1="141" y1="65" x2="175" y2="23" stroke="#aaff00" stroke-width="2"/>
</g>
<g>
	<polygon points="139,69 141,78 132,75" fill="#aaff00"/>
	<line x1="117" y1="132" x2="137" y2="76" stroke="#aaff00" stroke-width="2"/>
</g>
<g>
	<polygon points="61,129 69,125 69,134" fill="#aaff00"/>
	<line x1="117" y1="132" x2="68" y2="129" stroke="#aaff00" stroke-width="2"/>
</g>
<g>
	<polygon points="233,193 225,197 225,188" fill="#aaff00"/>
	<line x1="159" y1="190" x2="226" y2="193" stroke="#aaff00" stroke-width="2"/>
</g>
<g>
	<polygon points="119,135 127,139 120,144" fill="#aaff00"/>
	<line x1="159" y1="190" x2="123" y2="141" stroke="#aaff00" stroke-width="2"/>
</g>
<g>
	<polygon points="296,144 293,153 287,146" fill="#aaff00"/>
	<line x1="238" y1="194" x2="291" y2="149" stroke="#aaff00" stroke-width="2"/>
</g>
<g>
	<polygon points="261,241 254,237 262,232" fill="#aaff00"/>
	<line x1="238" y1="194" x2="258" y2="235" stroke="#aaff00" stroke-width="2"/>
</g>
<g>
	<polygon points="156,193 155,202 148,197" fill="#aaff00"/>
	<line x1="121" y1="241" x2="152" y2="199" stroke="#aaff00" stroke-width="2"/>
</g>
<g>
	<polygon points="118,244 117,253 110,248" fill="#aaff00"/>
	<line x1="90" y1="287" x2="114" y2="250" stroke="#aaff00" stroke-width="2"/>
</g>

<g fill="#000000">
	<circle cx="299" cy="141" r="4"/>
</g>
<g fill="#000000">
	<circle cx="343" cy="82" r="4"/>
</g>
<g fill="#000000">
	<circle cx="272" cy="90" r="4"/>
</g>
<g fill="#000000">
	<circle cx="268" cy="22" r="4"/>
</g>
<g fill="#000000">
	<circle cx="310" cy="56" r="4"/>
</g>
<g fill="#000000">
	<circle cx="216" cy="97" r="4"/>
</g>
<g fill="#000000">
	<circle cx="140" cy="64" r="4"/>
</g>
<g fill="#000000">
	<circle cx="200" cy="56" r="4"/>
</g>
<g fill="#000000">
	<circle cx="182" cy="13" r="4"/>
</g>
<g fill="#000000">
	<circle cx="220" cy="17" r="4"/>
</g>
<g fill="#000000">
	<circle cx="158" cy="189" r="4"/>
</g>
<g fill="#000000">
	<circle cx="237" cy="193" r="4"/>
</g>
<g fill="#000000">
	<circle cx="116" cy="131" r="4"/>
</g>
<g fill="#000000">
	<circle cx="263" cy="245" r="4"/>
</g>
<g fill="#000000">
	<circle cx="56" cy="128" r="4"/>
</g>
<g fill="#000000">
	<circle cx="89" cy="286" r="4"/>
</g>
<g fill="#000000">
	<circle cx="120" cy="240" r="4"/>
</g>

</g>

</svg>
