<?xml version="1.0" encoding="utf-8"?>
<!-- Created with Hypercube (http://tumic.wz.cz/hypercube) -->

<svg width="400" height="300" viewBox="0 0 400 300" xmlns="http://www.w3.org/2000/svg" baseProfile="tiny">

<g font-family="Helvetica" font-weight="normal">

<g>
	<polygon points="320,199 311,200 315,191" fill="#aaff00"/>
	<line x1="268" y1="176" x2="314" y2="196" stroke="#aaff00" stroke-width="2"/>
</g>
<g>
	<polygon points="193,275 189,267 198,268" fill="#aaff00"/>
	<line x1="197" y1="219" x2="193" y2="268" stroke="#aaff00" stroke-width="2"/>
</g>
<g>
	<polygon points="150,75 159,78 152,84" fill="#aaff00"/>
	<line x1="180" y1="111" x2="155" y2="81" stroke="#aaff00" stroke-width="2"/>
</g>
<g>
	<polygon points="181,160 177,152 186,152" fill="#aaff00"/>
	<line x1="180" y1="111" x2="181" y2="153" stroke="#aaff00" stroke-width="2"/>
</g>
<g>
	<polygon points="80,141 86,135 89,143" fill="#aaff00"/>
	<line x1="180" y1="111" x2="87" y2="139" stroke="#aaff00" stroke-width="2"/>
</g>
<g>
	<polygon points="118,28 126,32 119,37" fill="#aaff00"/>
	<line x1="180" y1="111" x2="122" y2="34" stroke="#aaff00" stroke-width="2"/>
</g>
<g>
	<polygon points="134,127 140,120 143,129" fill="#aaff00"/>
	<line x1="180" y1="111" x2="141" y2="125" stroke="#aaff00" stroke-width="2"/>
</g>
<g>
	<polygon points="182,25 187,33 178,33" fill="#aaff00"/>
	<line x1="180" y1="111" x2="182" y2="32" stroke="#aaff00" stroke-width="2"/>
</g>
<g>
	<polygon points="264,173 255,172 260,165" fill="#aaff00"/>
	<line x1="180" y1="111" x2="258" y2="169" stroke="#aaff00" stroke-width="2"/>
</g>
<g>
	<polygon points="196,214 190,207 199,206" fill="#aaff00"/>
	<line x1="180" y1="111" x2="195" y2="207" stroke="#aaff00" stroke-width="2"/>
</g>
<g>
	<polygon points="226,133 217,133 221,125" fill="#aaff00"/>
	<line x1="180" y1="111" x2="220" y2="130" stroke="#aaff00" stroke-width="2"/>
</g>
<g>
	<polygon points="272,95 265,101 264,92" fill="#aaff00"/>
	<line x1="180" y1="111" x2="265" y2="96" stroke="#aaff00" stroke-width="2"/>
</g>
<g>
	<polygon points="131,188 131,179 139,183" fill="#aaff00"/>
	<line x1="180" y1="111" x2="135" y2="182" stroke="#aaff00" stroke-width="2"/>
</g>
<g>
	<polygon points="212,77 210,85 204,79" fill="#aaff00"/>
	<line x1="180" y1="111" x2="207" y2="82" stroke="#aaff00" stroke-width="2"/>
</g>
<g>
	<polygon points="247,33 245,42 238,36" fill="#aaff00"/>
	<line x1="180" y1="111" x2="242" y2="38" stroke="#aaff00" stroke-width="2"/>
</g>
<g>
	<polygon points="91,83 100,81 97,89" fill="#aaff00"/>
	<line x1="180" y1="111" x2="98" y2="85" stroke="#aaff00" stroke-width="2"/>
</g>

<g fill="#000000">
	<circle cx="179" cy="110" r="4"/>
</g>
<g fill="#000000">
	<circle cx="147" cy="71" r="4"/>
</g>
<g fill="#000000">
	<circle cx="181" cy="164" r="4"/>
</g>
<g fill="#000000">
	<circle cx="75" cy="142" r="4"/>
</g>
<g fill="#000000">
	<circle cx="115" cy="24" r="4"/>
</g>
<g fill="#000000">
	<circle cx="129" cy="128" r="4"/>
</g>
<g fill="#000000">
	<circle cx="182" cy="20" r="4"/>
</g>
<g fill="#000000">
	<circle cx="267" cy="175" r="4"/>
</g>
<g fill="#000000">
	<circle cx="324" cy="200" r="4"/>
</g>
<g fill="#000000">
	<circle cx="196" cy="218" r="4"/>
</g>
<g fill="#000000">
	<circle cx="192" cy="279" r="4"/>
</g>
<g fill="#000000">
	<circle cx="230" cy="134" r="4"/>
</g>
<g fill="#000000">
	<circle cx="276" cy="94" r="4"/>
</g>
<g fill="#000000">
	<circle cx="128" cy="191" r="4"/>
</g>
<g fill="#000000">
	<circle cx="215" cy="73" r="4"/>
</g>
<g fill="#000000">
	<circle cx="249" cy="29" r="4"/>
</g>
<g fill="#000000">
	<circle cx="86" cy="81" r="4"/>
</g>

</g>

</svg>
