<?xml version="1.0" encoding="utf-8"?>
<!-- Created with Hypercube (http://tumic.wz.cz/hypercube) -->

<svg width="400" height="300" viewBox="0 0 400 300" xmlns="http://www.w3.org/2000/svg" baseProfile="tiny">

<g font-family="Helvetica" font-weight="normal">

<g>
	<polygon points="132,145 135,137 141,144" fill="#aaff00"/>
	<line x1="199" y1="85" x2="137" y2="141" stroke="#aaff00" stroke-width="2"/>
</g>
<g>
	<polygon points="190,163 186,155 195,156" fill="#aaff00"/>
	<line x1="199" y1="85" x2="191" y2="156" stroke="#aaff00" stroke-width="2"/>
</g>
<g>
	<polygon points="106,47 115,46 111,54" fill="#aaff00"/>
	<line x1="199" y1="85" x2="112" y2="50" stroke="#aaff00" stroke-width="2"/>
</g>
<g>
	<polygon points="239,92 231,95 232,86" fill="#aaff00"/>
	<line x1="199" y1="85" x2="232" y2="90" stroke="#aaff00" stroke-width="2"/>
</g>
<g>
	<polygon points="151,85 159,81 159,90" fill="#aaff00"/>
	<line x1="199" y1="85" x2="158" y2="85" stroke="#aaff00" stroke-width="2"/>
</g>
<g>
	<polygon points="259,30 256,39 250,32" fill="#aaff00"/>
	<line x1="199" y1="85" x2="254" y2="35" stroke="#aaff00" stroke-width="2"/>
</g>
<g>
	<polygon points="296,85 288,89 288,80" fill="#aaff00"/>
	<line x1="199" y1="85" x2="289" y2="85" stroke="#aaff00" stroke-width="2"/>
</g>
<g>
	<polygon points="163,25 171,30 163,34" fill="#aaff00"/>
	<line x1="199" y1="85" x2="167" y2="32" stroke="#aaff00" stroke-width="2"/>
</g>
<g>
	<polygon points="211,23 214,31 205,30" fill="#aaff00"/>
	<line x1="199" y1="85" x2="209" y2="30" stroke="#aaff00" stroke-width="2"/>
</g>
<g>
	<polygon points="245,146 237,142 244,137" fill="#aaff00"/>
	<line x1="199" y1="85" x2="240" y2="140" stroke="#aaff00" stroke-width="2"/>
</g>
<g>
	<polygon points="112,211 109,202 118,205" fill="#aaff00"/>
	<line x1="129" y1="149" x2="114" y2="204" stroke="#aaff00" stroke-width="2"/>
</g>
<g>
	<polygon points="152,185 144,181 152,176" fill="#aaff00"/>
	<line x1="129" y1="149" x2="148" y2="179" stroke="#aaff00" stroke-width="2"/>
</g>
<g>
	<polygon points="115,276 110,269 119,268" fill="#aaff00"/>
	<line x1="111" y1="216" x2="115" y2="269" stroke="#aaff00" stroke-width="2"/>
</g>
<g>
	<polygon points="57,228 64,221 65,230" fill="#aaff00"/>
	<line x1="111" y1="216" x2="64" y2="226" stroke="#aaff00" stroke-width="2"/>
</g>
<g>
	<polygon points="114,213 119,205 123,213" fill="#aaff00"/>
	<line x1="190" y1="168" x2="120" y2="209" stroke="#aaff00" stroke-width="2"/>
</g>
<g>
	<polygon points="158,186 163,178 167,186" fill="#aaff00"/>
	<line x1="190" y1="168" x2="165" y2="182" stroke="#aaff00" stroke-width="2"/>
</g>
<g>
	<polygon points="351,78 344,84 343,75" fill="#aaff00"/>
	<line x1="301" y1="85" x2="344" y2="79" stroke="#aaff00" stroke-width="2"/>
</g>
<g>
	<polygon points="50,23 59,22 55,30" fill="#aaff00"/>
	<line x1="102" y1="46" x2="56" y2="26" stroke="#aaff00" stroke-width="2"/>
</g>

<g fill="#000000">
	<circle cx="198" cy="84" r="4"/>
</g>
<g fill="#000000">
	<circle cx="128" cy="148" r="4"/>
</g>
<g fill="#000000">
	<circle cx="189" cy="167" r="4"/>
</g>
<g fill="#000000">
	<circle cx="101" cy="45" r="4"/>
</g>
<g fill="#000000">
	<circle cx="243" cy="92" r="4"/>
</g>
<g fill="#000000">
	<circle cx="146" cy="85" r="4"/>
</g>
<g fill="#000000">
	<circle cx="262" cy="27" r="4"/>
</g>
<g fill="#000000">
	<circle cx="300" cy="84" r="4"/>
</g>
<g fill="#000000">
	<circle cx="160" cy="21" r="4"/>
</g>
<g fill="#000000">
	<circle cx="211" cy="18" r="4"/>
</g>
<g fill="#000000">
	<circle cx="247" cy="149" r="4"/>
</g>
<g fill="#000000">
	<circle cx="110" cy="215" r="4"/>
</g>
<g fill="#000000">
	<circle cx="154" cy="188" r="4"/>
</g>
<g fill="#000000">
	<circle cx="355" cy="77" r="4"/>
</g>
<g fill="#000000">
	<circle cx="115" cy="280" r="4"/>
</g>
<g fill="#000000">
	<circle cx="52" cy="228" r="4"/>
</g>
<g fill="#000000">
	<circle cx="45" cy="21" r="4"/>
</g>

</g>

</svg>
