<?xml version="1.0" encoding="utf-8"?>
<!-- Created with Hypercube (http://tumic.wz.cz/hypercube) -->

<svg width="400" height="300" viewBox="0 0 400 300" xmlns="http://www.w3.org/2000/svg" baseProfile="tiny">

<g font-family="Helvetica" font-weight="normal">

<g>
	<polygon points="139,271 136,263 145,264" fill="#aaff00"/>
	<line x1="147" y1="217" x2="140" y2="264" stroke="#aaff00" stroke-width="2"/>
</g>
<g>
	<polygon points="182,235 173,236 177,228" fill="#aaff00"/>
	<line x1="147" y1="217" x2="175" y2="232" stroke="#aaff00" stroke-width="2"/>
</g>
<g>
	<polygon points="189,195 184,202 180,194" fill="#aaff00"/>
	<line x1="147" y1="217" x2="182" y2="198" stroke="#aaff00" stroke-width="2"/>
</g>
<g>
	<polygon points="182,240 179,249 173,242" fill="#aaff00"/>
	<line x1="139" y1="276" x2="176" y2="245" stroke="#aaff00" stroke-width="2"/>
</g>
<g>
	<polygon points="219,265 210,263 216,256" fill="#aaff00"/>
	<line x1="186" y1="238" x2="213" y2="260" stroke="#aaff00" stroke-width="2"/>
</g>
<g>
	<polygon points="240,201 236,209 231,202" fill="#aaff00"/>
	<line x1="186" y1="238" x2="234" y2="205" stroke="#aaff00" stroke-width="2"/>
</g>
<g>
	<polygon points="157,125 163,131 154,134" fill="#aaff00"/>
	<line x1="186" y1="238" x2="158" y2="132" stroke="#aaff00" stroke-width="2"/>
</g>
<g>
	<polygon points="194,197 201,202 193,206" fill="#aaff00"/>
	<line x1="223" y1="268" x2="197" y2="203" stroke="#aaff00" stroke-width="2"/>
</g>
<g>
	<polygon points="249,144 246,153 240,146" fill="#aaff00"/>
	<line x1="193" y1="193" x2="244" y2="149" stroke="#aaff00" stroke-width="2"/>
</g>
<g>
	<polygon points="100,179 108,176 107,185" fill="#aaff00"/>
	<line x1="193" y1="193" x2="107" y2="180" stroke="#aaff00" stroke-width="2"/>
</g>
<g>
	<polygon points="206,89 215,92 208,98" fill="#aaff00"/>
	<line x1="253" y1="142" x2="211" y2="94" stroke="#aaff00" stroke-width="2"/>
</g>
<g>
	<polygon points="244,194 241,186 250,187" fill="#aaff00"/>
	<line x1="253" y1="142" x2="245" y2="187" stroke="#aaff00" stroke-width="2"/>
</g>
<g>
	<polygon points="218,30 221,39 212,36" fill="#aaff00"/>
	<line x1="204" y1="86" x2="216" y2="37" stroke="#aaff00" stroke-width="2"/>
</g>
<g>
	<polygon points="136,74 144,71 143,80" fill="#aaff00"/>
	<line x1="204" y1="86" x2="143" y2="75" stroke="#aaff00" stroke-width="2"/>
</g>
<g>
	<polygon points="168,24 176,19 176,28" fill="#aaff00"/>
	<line x1="220" y1="26" x2="175" y2="24" stroke="#aaff00" stroke-width="2"/>
</g>
<g>
	<polygon points="109,24 117,19 117,28" fill="#aaff00"/>
	<line x1="164" y1="24" x2="116" y2="24" stroke="#aaff00" stroke-width="2"/>
</g>
<g>
	<polygon points="107,27 114,32 106,36" fill="#aaff00"/>
	<line x1="132" y1="74" x2="110" y2="34" stroke="#aaff00" stroke-width="2"/>
</g>
<g>
	<polygon points="200,88 196,96 191,89" fill="#aaff00"/>
	<line x1="156" y1="121" x2="194" y2="92" stroke="#aaff00" stroke-width="2"/>
</g>
<g>
	<polygon points="134,78 141,82 133,86" fill="#aaff00"/>
	<line x1="156" y1="121" x2="137" y2="84" stroke="#aaff00" stroke-width="2"/>
</g>
<g>
	<polygon points="154,125 157,134 148,131" fill="#aaff00"/>
	<line x1="145" y1="167" x2="153" y2="132" stroke="#aaff00" stroke-width="2"/>
</g>
<g>
	<polygon points="149,168 158,166 155,175" fill="#aaff00"/>
	<line x1="244" y1="199" x2="156" y2="170" stroke="#aaff00" stroke-width="2"/>
</g>
<g>
	<polygon points="248,200 257,199 253,207" fill="#aaff00"/>
	<line x1="306" y1="222" x2="254" y2="203" stroke="#aaff00" stroke-width="2"/>
</g>
<g>
	<polygon points="140,168 134,174 131,165" fill="#aaff00"/>
	<line x1="96" y1="179" x2="133" y2="169" stroke="#aaff00" stroke-width="2"/>
</g>
<g>
	<polygon points="149,213 150,204 157,209" fill="#aaff00"/>
	<line x1="200" y1="140" x2="153" y2="207" stroke="#aaff00" stroke-width="2"/>
</g>
<g>
	<polygon points="203,90 207,98 198,97" fill="#aaff00"/>
	<line x1="200" y1="140" x2="203" y2="97" stroke="#aaff00" stroke-width="2"/>
</g>

<g fill="#000000">
	<circle cx="146" cy="216" r="4"/>
</g>
<g fill="#000000">
	<circle cx="138" cy="275" r="4"/>
</g>
<g fill="#000000">
	<circle cx="185" cy="237" r="4"/>
</g>
<g fill="#000000">
	<circle cx="192" cy="192" r="4"/>
</g>
<g fill="#000000">
	<circle cx="199" cy="139" r="4"/>
</g>
<g fill="#000000">
	<circle cx="203" cy="85" r="4"/>
</g>
<g fill="#000000">
	<circle cx="222" cy="267" r="4"/>
</g>
<g fill="#000000">
	<circle cx="243" cy="198" r="4"/>
</g>
<g fill="#000000">
	<circle cx="155" cy="120" r="4"/>
</g>
<g fill="#000000">
	<circle cx="252" cy="141" r="4"/>
</g>
<g fill="#000000">
	<circle cx="95" cy="178" r="4"/>
</g>
<g fill="#000000">
	<circle cx="144" cy="166" r="4"/>
</g>
<g fill="#000000">
	<circle cx="305" cy="221" r="4"/>
</g>
<g fill="#000000">
	<circle cx="219" cy="25" r="4"/>
</g>
<g fill="#000000">
	<circle cx="131" cy="73" r="4"/>
</g>
<g fill="#000000">
	<circle cx="163" cy="23" r="4"/>
</g>
<g fill="#000000">
	<circle cx="104" cy="23" r="4"/>
</g>

</g>

</svg>
