<?xml version="1.0" encoding="utf-8"?>
<!-- Created with Hypercube (http://tumic.wz.cz/hypercube) -->

<svg width="400" height="300" viewBox="0 0 400 300" xmlns="http://www.w3.org/2000/svg" baseProfile="tiny">

<g font-family="Helvetica" font-weight="normal">

<g>
	<polygon points="200,192 195,184 204,184" fill="#aaff00"/>
	<line x1="201" y1="142" x2="200" y2="185" stroke="#aaff00" stroke-width="2"/>
</g>
<g>
	<polygon points="148,206 150,197 157,203" fill="#aaff00"/>
	<line x1="201" y1="142" x2="153" y2="200" stroke="#aaff00" stroke-width="2"/>
</g>
<g>
	<polygon points="192,48 197,55 188,56" fill="#aaff00"/>
	<line x1="201" y1="142" x2="193" y2="55" stroke="#aaff00" stroke-width="2"/>
</g>
<g>
	<polygon points="128,59 137,62 130,68" fill="#aaff00"/>
	<line x1="201" y1="142" x2="133" y2="64" stroke="#aaff00" stroke-width="2"/>
</g>
<g>
	<polygon points="295,87 290,95 286,87" fill="#aaff00"/>
	<line x1="201" y1="142" x2="288" y2="90" stroke="#aaff00" stroke-width="2"/>
</g>
<g>
	<polygon points="233,238 226,232 235,229" fill="#aaff00"/>
	<line x1="201" y1="142" x2="231" y2="231" stroke="#aaff00" stroke-width="2"/>
</g>
<g>
	<polygon points="284,204 275,203 280,196" fill="#aaff00"/>
	<line x1="201" y1="142" x2="278" y2="200" stroke="#aaff00" stroke-width="2"/>
</g>
<g>
	<polygon points="242,168 233,168 238,160" fill="#aaff00"/>
	<line x1="201" y1="142" x2="236" y2="164" stroke="#aaff00" stroke-width="2"/>
</g>
<g>
	<polygon points="246,48 246,57 238,53" fill="#aaff00"/>
	<line x1="201" y1="142" x2="242" y2="54" stroke="#aaff00" stroke-width="2"/>
</g>
<g>
	<polygon points="176,251 173,243 182,245" fill="#aaff00"/>
	<line x1="201" y1="142" x2="177" y2="244" stroke="#aaff00" stroke-width="2"/>
</g>
<g>
	<polygon points="302,149 294,153 295,144" fill="#aaff00"/>
	<line x1="201" y1="142" x2="295" y2="149" stroke="#aaff00" stroke-width="2"/>
</g>
<g>
	<polygon points="153,153 159,147 162,156" fill="#aaff00"/>
	<line x1="201" y1="142" x2="160" y2="152" stroke="#aaff00" stroke-width="2"/>
</g>
<g>
	<polygon points="252,117 247,125 243,117" fill="#aaff00"/>
	<line x1="201" y1="142" x2="246" y2="120" stroke="#aaff00" stroke-width="2"/>
</g>
<g>
	<polygon points="210,96 213,104 204,103" fill="#aaff00"/>
	<line x1="201" y1="142" x2="208" y2="103" stroke="#aaff00" stroke-width="2"/>
</g>
<g>
	<polygon points="158,103 167,105 161,112" fill="#aaff00"/>
	<line x1="201" y1="142" x2="163" y2="108" stroke="#aaff00" stroke-width="2"/>
</g>
<g>
	<polygon points="99,185 104,178 108,186" fill="#aaff00"/>
	<line x1="201" y1="142" x2="105" y2="182" stroke="#aaff00" stroke-width="2"/>
</g>
<g>
	<polygon points="103,122 111,119 110,128" fill="#aaff00"/>
	<line x1="201" y1="142" x2="110" y2="124" stroke="#aaff00" stroke-width="2"/>
</g>

<g fill="#000000">
	<circle cx="200" cy="141" r="4"/>
</g>
<g fill="#000000">
	<circle cx="199" cy="196" r="4"/>
</g>
<g fill="#000000">
	<circle cx="145" cy="209" r="4"/>
</g>
<g fill="#000000">
	<circle cx="191" cy="43" r="4"/>
</g>
<g fill="#000000">
	<circle cx="125" cy="55" r="4"/>
</g>
<g fill="#000000">
	<circle cx="298" cy="84" r="4"/>
</g>
<g fill="#000000">
	<circle cx="234" cy="242" r="4"/>
</g>
<g fill="#000000">
	<circle cx="287" cy="206" r="4"/>
</g>
<g fill="#000000">
	<circle cx="245" cy="170" r="4"/>
</g>
<g fill="#000000">
	<circle cx="247" cy="43" r="4"/>
</g>
<g fill="#000000">
	<circle cx="174" cy="255" r="4"/>
</g>
<g fill="#000000">
	<circle cx="306" cy="149" r="4"/>
</g>
<g fill="#000000">
	<circle cx="148" cy="154" r="4"/>
</g>
<g fill="#000000">
	<circle cx="256" cy="115" r="4"/>
</g>
<g fill="#000000">
	<circle cx="210" cy="91" r="4"/>
</g>
<g fill="#000000">
	<circle cx="154" cy="100" r="4"/>
</g>
<g fill="#000000">
	<circle cx="94" cy="186" r="4"/>
</g>
<g fill="#000000">
	<circle cx="98" cy="121" r="4"/>
</g>

</g>

</svg>
