<?xml version="1.0" encoding="utf-8"?>
<!-- Created with Hypercube (http://tumic.wz.cz/hypercube) -->

<svg width="400" height="300" viewBox="0 0 400 300" xmlns="http://www.w3.org/2000/svg" baseProfile="tiny">

<g font-family="Helvetica" font-weight="normal">

<g>
	<polygon points="256,231 264,226 264,235" fill="#aaff00"/>
	<line x1="343" y1="233" x2="263" y2="231" stroke="#aaff00" stroke-width="2"/>
</g>
<g>
	<polygon points="315,183 322,188 315,192" fill="#aaff00"/>
	<line x1="343" y1="233" x2="318" y2="190" stroke="#aaff00" stroke-width="2"/>
</g>
<g>
	<polygon points="293,231 285,236 285,227" fill="#aaff00"/>
	<line x1="252" y1="231" x2="286" y2="231" stroke="#aaff00" stroke-width="2"/>
</g>
<g>
	<polygon points="188,147 197,151 189,156" fill="#aaff00"/>
	<line x1="252" y1="231" x2="193" y2="153" stroke="#aaff00" stroke-width="2"/>
</g>
<g>
	<polygon points="299,227 297,218 305,221" fill="#aaff00"/>
	<line x1="313" y1="180" x2="301" y2="220" stroke="#aaff00" stroke-width="2"/>
</g>
<g>
	<polygon points="308,179 300,182 301,174" fill="#aaff00"/>
	<line x1="249" y1="172" x2="301" y2="178" stroke="#aaff00" stroke-width="2"/>
</g>
<g>
	<polygon points="194,199 198,192 202,200" fill="#aaff00"/>
	<line x1="249" y1="172" x2="200" y2="196" stroke="#aaff00" stroke-width="2"/>
</g>
<g>
	<polygon points="186,148 191,155 182,156" fill="#aaff00"/>
	<line x1="190" y1="202" x2="186" y2="155" stroke="#aaff00" stroke-width="2"/>
</g>
<g>
	<polygon points="163,259 162,250 171,254" fill="#aaff00"/>
	<line x1="190" y1="202" x2="166" y2="253" stroke="#aaff00" stroke-width="2"/>
</g>
<g>
	<polygon points="190,89 194,97 185,96" fill="#aaff00"/>
	<line x1="186" y1="144" x2="190" y2="96" stroke="#aaff00" stroke-width="2"/>
</g>
<g>
	<polygon points="116,167 122,160 125,169" fill="#aaff00"/>
	<line x1="186" y1="144" x2="123" y2="165" stroke="#aaff00" stroke-width="2"/>
</g>
<g>
	<polygon points="128,96 137,98 131,105" fill="#aaff00"/>
	<line x1="186" y1="144" x2="134" y2="101" stroke="#aaff00" stroke-width="2"/>
</g>
<g>
	<polygon points="61,188 66,181 70,189" fill="#aaff00"/>
	<line x1="112" y1="169" x2="67" y2="185" stroke="#aaff00" stroke-width="2"/>
</g>
<g>
	<polygon points="86,59 95,61 89,68" fill="#aaff00"/>
	<line x1="125" y1="94" x2="91" y2="64" stroke="#aaff00" stroke-width="2"/>
</g>
<g>
	<polygon points="189,141 193,133 198,140" fill="#aaff00"/>
	<line x1="262" y1="93" x2="195" y2="137" stroke="#aaff00" stroke-width="2"/>
</g>
<g>
	<polygon points="283,38 284,47 276,43" fill="#aaff00"/>
	<line x1="262" y1="93" x2="280" y2="44" stroke="#aaff00" stroke-width="2"/>
</g>
<g>
	<polygon points="288,31 293,24 297,31" fill="#aaff00"/>
	<line x1="335" y1="6" x2="295" y2="28" stroke="#aaff00" stroke-width="2"/>
</g>
<g>
	<polygon points="313,175 309,167 318,168" fill="#aaff00"/>
	<line x1="318" y1="121" x2="313" y2="168" stroke="#aaff00" stroke-width="2"/>
</g>
<g>
	<polygon points="266,95 275,94 270,102" fill="#aaff00"/>
	<line x1="318" y1="121" x2="272" y2="98" stroke="#aaff00" stroke-width="2"/>
</g>
<g>
	<polygon points="158,266 154,274 149,266" fill="#aaff00"/>
	<line x1="114" y1="295" x2="152" y2="270" stroke="#aaff00" stroke-width="2"/>
</g>

<g fill="#000000">
	<circle cx="342" cy="232" r="4"/>
</g>
<g fill="#000000">
	<circle cx="251" cy="230" r="4"/>
</g>
<g fill="#000000">
	<circle cx="312" cy="179" r="4"/>
</g>
<g fill="#000000">
	<circle cx="297" cy="231" r="4"/>
</g>
<g fill="#000000">
	<circle cx="185" cy="143" r="4"/>
</g>
<g fill="#000000">
	<circle cx="190" cy="84" r="4"/>
</g>
<g fill="#000000">
	<circle cx="111" cy="168" r="4"/>
</g>
<g fill="#000000">
	<circle cx="124" cy="93" r="4"/>
</g>
<g fill="#000000">
	<circle cx="248" cy="171" r="4"/>
</g>
<g fill="#000000">
	<circle cx="189" cy="201" r="4"/>
</g>
<g fill="#000000">
	<circle cx="161" cy="263" r="4"/>
</g>
<g fill="#000000">
	<circle cx="113" cy="294" r="4"/>
</g>
<g fill="#000000">
	<circle cx="56" cy="189" r="4"/>
</g>
<g fill="#000000">
	<circle cx="317" cy="120" r="4"/>
</g>
<g fill="#000000">
	<circle cx="261" cy="92" r="4"/>
</g>
<g fill="#000000">
	<circle cx="284" cy="33" r="4"/>
</g>
<g fill="#000000">
	<circle cx="334" cy="5" r="4"/>
</g>
<g fill="#000000">
	<circle cx="82" cy="56" r="4"/>
</g>

</g>

</svg>
