<?xml version="1.0" encoding="utf-8"?>
<!-- Created with Hypercube (http://tumic.wz.cz/hypercube) -->

<svg width="400" height="300" viewBox="0 0 400 300" xmlns="http://www.w3.org/2000/svg" baseProfile="tiny">

<g font-family="Helvetica" font-weight="normal">

<g>
	<polygon points="203,137 200,129 209,130" fill="#aaff00"/>
	<line x1="216" y1="65" x2="204" y2="130" stroke="#aaff00" stroke-width="2"/>
</g>
<g>
	<polygon points="218,180 211,175 219,171" fill="#aaff00"/>
	<line x1="203" y1="142" x2="215" y2="174" stroke="#aaff00" stroke-width="2"/>
</g>
<g>
	<polygon points="206,145 214,148 207,154" fill="#aaff00"/>
	<line x1="272" y1="219" x2="210" y2="150" stroke="#aaff00" stroke-width="2"/>
</g>
<g>
	<polygon points="274,222 283,225 276,231" fill="#aaff00"/>
	<line x1="312" y1="264" x2="279" y2="227" stroke="#aaff00" stroke-width="2"/>
</g>
<g>
	<polygon points="202,146 206,154 197,154" fill="#aaff00"/>
	<line x1="199" y1="237" x2="202" y2="153" stroke="#aaff00" stroke-width="2"/>
</g>
<g>
	<polygon points="198,241 200,249 191,248" fill="#aaff00"/>
	<line x1="186" y1="295" x2="196" y2="248" stroke="#aaff00" stroke-width="2"/>
</g>
<g>
	<polygon points="206,139 210,130 215,138" fill="#aaff00"/>
	<line x1="277" y1="86" x2="212" y2="134" stroke="#aaff00" stroke-width="2"/>
</g>
<g>
	<polygon points="280,83 284,75 289,82" fill="#aaff00"/>
	<line x1="329" y1="51" x2="286" y2="79" stroke="#aaff00" stroke-width="2"/>
</g>
<g>
	<polygon points="207,142 215,139 214,148" fill="#aaff00"/>
	<line x1="281" y1="152" x2="214" y2="143" stroke="#aaff00" stroke-width="2"/>
</g>
<g>
	<polygon points="285,152 293,148 293,157" fill="#aaff00"/>
	<line x1="340" y1="155" x2="292" y2="152" stroke="#aaff00" stroke-width="2"/>
</g>
<g>
	<polygon points="198,141 190,144 191,135" fill="#aaff00"/>
	<line x1="122" y1="131" x2="191" y2="140" stroke="#aaff00" stroke-width="2"/>
</g>
<g>
	<polygon points="117,130 109,134 110,125" fill="#aaff00"/>
	<line x1="61" y1="126" x2="110" y2="130" stroke="#aaff00" stroke-width="2"/>
</g>
<g>
	<polygon points="200,138 192,134 199,129" fill="#aaff00"/>
	<line x1="153" y1="74" x2="196" y2="132" stroke="#aaff00" stroke-width="2"/>
</g>
<g>
	<polygon points="150,70 141,67 149,61" fill="#aaff00"/>
	<line x1="116" y1="26" x2="145" y2="64" stroke="#aaff00" stroke-width="2"/>
</g>
<g>
	<polygon points="199,144 196,153 190,146" fill="#aaff00"/>
	<line x1="139" y1="193" x2="193" y2="149" stroke="#aaff00" stroke-width="2"/>
</g>
<g>
	<polygon points="135,195 131,203 126,195" fill="#aaff00"/>
	<line x1="88" y1="226" x2="129" y2="199" stroke="#aaff00" stroke-width="2"/>
</g>
<g>
	<polygon points="216,60 212,52 221,53" fill="#aaff00"/>
	<line x1="221" y1="6" x2="216" y2="53" stroke="#aaff00" stroke-width="2"/>
</g>

<g fill="#000000">
	<circle cx="215" cy="64" r="4"/>
</g>
<g fill="#000000">
	<circle cx="202" cy="141" r="4"/>
</g>
<g fill="#000000">
	<circle cx="271" cy="218" r="4"/>
</g>
<g fill="#000000">
	<circle cx="198" cy="236" r="4"/>
</g>
<g fill="#000000">
	<circle cx="276" cy="85" r="4"/>
</g>
<g fill="#000000">
	<circle cx="280" cy="151" r="4"/>
</g>
<g fill="#000000">
	<circle cx="121" cy="130" r="4"/>
</g>
<g fill="#000000">
	<circle cx="152" cy="73" r="4"/>
</g>
<g fill="#000000">
	<circle cx="138" cy="192" r="4"/>
</g>
<g fill="#000000">
	<circle cx="219" cy="184" r="4"/>
</g>
<g fill="#000000">
	<circle cx="339" cy="154" r="4"/>
</g>
<g fill="#000000">
	<circle cx="60" cy="125" r="4"/>
</g>
<g fill="#000000">
	<circle cx="115" cy="25" r="4"/>
</g>
<g fill="#000000">
	<circle cx="87" cy="225" r="4"/>
</g>
<g fill="#000000">
	<circle cx="220" cy="5" r="4"/>
</g>
<g fill="#000000">
	<circle cx="311" cy="263" r="4"/>
</g>
<g fill="#000000">
	<circle cx="185" cy="294" r="4"/>
</g>
<g fill="#000000">
	<circle cx="328" cy="50" r="4"/>
</g>

</g>

</svg>
