<?xml version="1.0" encoding="utf-8"?>
<!-- Created with Hypercube (http://tumic.wz.cz/hypercube) -->

<svg width="400" height="300" viewBox="0 0 400 300" xmlns="http://www.w3.org/2000/svg" baseProfile="tiny">

<g font-family="Helvetica" font-weight="normal">

<g>
	<polygon points="249,154 248,163 241,158" fill="#aaff00"/>
	<line x1="219" y1="195" x2="244" y2="160" stroke="#aaff00" stroke-width="2"/>
</g>
<g>
	<polygon points="280,191 273,196 272,187" fill="#aaff00"/>
	<line x1="219" y1="195" x2="273" y2="191" stroke="#aaff00" stroke-width="2"/>
</g>
<g>
	<polygon points="271,107 272,116 263,112" fill="#aaff00"/>
	<line x1="252" y1="151" x2="268" y2="113" stroke="#aaff00" stroke-width="2"/>
</g>
<g>
	<polygon points="280,42 283,50 275,49" fill="#aaff00"/>
	<line x1="273" y1="103" x2="279" y2="49" stroke="#aaff00" stroke-width="2"/>
</g>
<g>
	<polygon points="330,128 321,129 325,120" fill="#aaff00"/>
	<line x1="273" y1="103" x2="324" y2="125" stroke="#aaff00" stroke-width="2"/>
</g>
<g>
	<polygon points="336,70 331,77 327,69" fill="#aaff00"/>
	<line x1="273" y1="103" x2="329" y2="73" stroke="#aaff00" stroke-width="2"/>
</g>
<g>
	<polygon points="273,107 279,114 270,115" fill="#aaff00"/>
	<line x1="285" y1="191" x2="274" y2="114" stroke="#aaff00" stroke-width="2"/>
</g>
<g>
	<polygon points="269,100 260,98 266,91" fill="#aaff00"/>
	<line x1="191" y1="38" x2="263" y2="95" stroke="#aaff00" stroke-width="2"/>
</g>
<g>
	<polygon points="158,73 160,64 166,71" fill="#aaff00"/>
	<line x1="191" y1="38" x2="162" y2="68" stroke="#aaff00" stroke-width="2"/>
</g>
<g>
	<polygon points="204,78 197,72 206,69" fill="#aaff00"/>
	<line x1="191" y1="38" x2="202" y2="71" stroke="#aaff00" stroke-width="2"/>
</g>
<g>
	<polygon points="153,81 156,90 147,87" fill="#aaff00"/>
	<line x1="143" y1="122" x2="151" y2="88" stroke="#aaff00" stroke-width="2"/>
</g>
<g>
	<polygon points="202,85 197,93 193,85" fill="#aaff00"/>
	<line x1="143" y1="122" x2="196" y2="89" stroke="#aaff00" stroke-width="2"/>
</g>
<g>
	<polygon points="268,104 263,111 259,103" fill="#aaff00"/>
	<line x1="198" y1="132" x2="262" y2="107" stroke="#aaff00" stroke-width="2"/>
</g>
<g>
	<polygon points="157,80 166,83 159,89" fill="#aaff00"/>
	<line x1="198" y1="132" x2="162" y2="86" stroke="#aaff00" stroke-width="2"/>
</g>
<g>
	<polygon points="205,87 208,95 199,94" fill="#aaff00"/>
	<line x1="198" y1="132" x2="204" y2="94" stroke="#aaff00" stroke-width="2"/>
</g>
<g>
	<polygon points="195,135 196,144 188,140" fill="#aaff00"/>
	<line x1="156" y1="209" x2="192" y2="142" stroke="#aaff00" stroke-width="2"/>
</g>
<g>
	<polygon points="155,265 150,257 159,257" fill="#aaff00"/>
	<line x1="156" y1="209" x2="155" y2="258" stroke="#aaff00" stroke-width="2"/>
</g>
<g>
	<polygon points="214,193 205,196 208,187" fill="#aaff00"/>
	<line x1="119" y1="171" x2="207" y2="192" stroke="#aaff00" stroke-width="2"/>
</g>
<g>
	<polygon points="141,126 141,135 133,131" fill="#aaff00"/>
	<line x1="119" y1="171" x2="137" y2="132" stroke="#aaff00" stroke-width="2"/>
</g>
<g>
	<polygon points="66,190 71,183 75,191" fill="#aaff00"/>
	<line x1="119" y1="171" x2="72" y2="187" stroke="#aaff00" stroke-width="2"/>
</g>
<g>
	<polygon points="82,103 89,108 81,112" fill="#aaff00"/>
	<line x1="119" y1="171" x2="85" y2="110" stroke="#aaff00" stroke-width="2"/>
</g>
<g>
	<polygon points="152,205 144,203 150,197" fill="#aaff00"/>
	<line x1="119" y1="171" x2="147" y2="200" stroke="#aaff00" stroke-width="2"/>
</g>
<g>
	<polygon points="114,35 115,44 107,40" fill="#aaff00"/>
	<line x1="80" y1="100" x2="111" y2="42" stroke="#aaff00" stroke-width="2"/>
</g>
<g>
	<polygon points="186,37 178,41 179,32" fill="#aaff00"/>
	<line x1="117" y1="32" x2="179" y2="37" stroke="#aaff00" stroke-width="2"/>
</g>

<g fill="#000000">
	<circle cx="218" cy="194" r="4"/>
</g>
<g fill="#000000">
	<circle cx="251" cy="150" r="4"/>
</g>
<g fill="#000000">
	<circle cx="284" cy="190" r="4"/>
</g>
<g fill="#000000">
	<circle cx="116" cy="31" r="4"/>
</g>
<g fill="#000000">
	<circle cx="190" cy="37" r="4"/>
</g>
<g fill="#000000">
	<circle cx="272" cy="102" r="4"/>
</g>
<g fill="#000000">
	<circle cx="154" cy="76" r="4"/>
</g>
<g fill="#000000">
	<circle cx="205" cy="82" r="4"/>
</g>
<g fill="#000000">
	<circle cx="280" cy="37" r="4"/>
</g>
<g fill="#000000">
	<circle cx="334" cy="129" r="4"/>
</g>
<g fill="#000000">
	<circle cx="339" cy="67" r="4"/>
</g>
<g fill="#000000">
	<circle cx="118" cy="170" r="4"/>
</g>
<g fill="#000000">
	<circle cx="142" cy="121" r="4"/>
</g>
<g fill="#000000">
	<circle cx="61" cy="191" r="4"/>
</g>
<g fill="#000000">
	<circle cx="79" cy="99" r="4"/>
</g>
<g fill="#000000">
	<circle cx="155" cy="208" r="4"/>
</g>
<g fill="#000000">
	<circle cx="197" cy="131" r="4"/>
</g>
<g fill="#000000">
	<circle cx="154" cy="269" r="4"/>
</g>

</g>

</svg>
