<?xml version="1.0" encoding="utf-8"?>
<!-- Created with Hypercube (http://tumic.wz.cz/hypercube) -->

<svg width="400" height="300" viewBox="0 0 400 300" xmlns="http://www.w3.org/2000/svg" baseProfile="tiny">

<g font-family="Helvetica" font-weight="normal">

<g>
	<polygon points="320,86 318,94 312,88" fill="#aaff00"/>
	<line x1="289" y1="117" x2="315" y2="91" stroke="#aaff00" stroke-width="2"/>
</g>
<g>
	<polygon points="196,178 200,170 205,177" fill="#aaff00"/>
	<line x1="289" y1="117" x2="202" y2="174" stroke="#aaff00" stroke-width="2"/>
</g>
<g>
	<polygon points="373,93 367,99 364,90" fill="#aaff00"/>
	<line x1="289" y1="117" x2="366" y2="95" stroke="#aaff00" stroke-width="2"/>
</g>
<g>
	<polygon points="371,150 362,151 366,143" fill="#aaff00"/>
	<line x1="289" y1="117" x2="365" y2="147" stroke="#aaff00" stroke-width="2"/>
</g>
<g>
	<polygon points="315,155 307,151 314,146" fill="#aaff00"/>
	<line x1="289" y1="117" x2="311" y2="149" stroke="#aaff00" stroke-width="2"/>
</g>
<g>
	<polygon points="251,150 254,141 260,148" fill="#aaff00"/>
	<line x1="289" y1="117" x2="256" y2="145" stroke="#aaff00" stroke-width="2"/>
</g>
<g>
	<polygon points="274,201 271,193 280,194" fill="#aaff00"/>
	<line x1="289" y1="117" x2="275" y2="194" stroke="#aaff00" stroke-width="2"/>
</g>
<g>
	<polygon points="347,35 346,44 339,39" fill="#aaff00"/>
	<line x1="289" y1="117" x2="343" y2="41" stroke="#aaff00" stroke-width="2"/>
</g>
<g>
	<polygon points="213,107 221,104 220,112" fill="#aaff00"/>
	<line x1="289" y1="117" x2="220" y2="108" stroke="#aaff00" stroke-width="2"/>
</g>
<g>
	<polygon points="261,81 270,85 262,90" fill="#aaff00"/>
	<line x1="289" y1="117" x2="266" y2="87" stroke="#aaff00" stroke-width="2"/>
</g>
<g>
	<polygon points="220,46 228,48 222,54" fill="#aaff00"/>
	<line x1="289" y1="117" x2="225" y2="51" stroke="#aaff00" stroke-width="2"/>
</g>
<g>
	<polygon points="335,206 328,201 336,197" fill="#aaff00"/>
	<line x1="289" y1="117" x2="332" y2="199" stroke="#aaff00" stroke-width="2"/>
</g>
<g>
	<polygon points="287,31 291,39 282,39" fill="#aaff00"/>
	<line x1="289" y1="117" x2="287" y2="38" stroke="#aaff00" stroke-width="2"/>
</g>
<g>
	<polygon points="136,206 141,198 145,207" fill="#aaff00"/>
	<line x1="193" y1="181" x2="142" y2="203" stroke="#aaff00" stroke-width="2"/>
</g>
<g>
	<polygon points="70,218 77,212 78,221" fill="#aaff00"/>
	<line x1="132" y1="208" x2="77" y2="217" stroke="#aaff00" stroke-width="2"/>
</g>
<g>
	<polygon points="26,183 35,185 29,192" fill="#aaff00"/>
	<line x1="66" y1="219" x2="31" y2="188" stroke="#aaff00" stroke-width="2"/>
</g>
<g>
	<polygon points="52,269 49,260 58,263" fill="#aaff00"/>
	<line x1="66" y1="219" x2="54" y2="262" stroke="#aaff00" stroke-width="2"/>
</g>

<g fill="#000000">
	<circle cx="288" cy="116" r="4"/>
</g>
<g fill="#000000">
	<circle cx="323" cy="82" r="4"/>
</g>
<g fill="#000000">
	<circle cx="192" cy="180" r="4"/>
</g>
<g fill="#000000">
	<circle cx="377" cy="91" r="4"/>
</g>
<g fill="#000000">
	<circle cx="375" cy="151" r="4"/>
</g>
<g fill="#000000">
	<circle cx="317" cy="158" r="4"/>
</g>
<g fill="#000000">
	<circle cx="247" cy="152" r="4"/>
</g>
<g fill="#000000">
	<circle cx="273" cy="205" r="4"/>
</g>
<g fill="#000000">
	<circle cx="349" cy="31" r="4"/>
</g>
<g fill="#000000">
	<circle cx="208" cy="106" r="4"/>
</g>
<g fill="#000000">
	<circle cx="258" cy="77" r="4"/>
</g>
<g fill="#000000">
	<circle cx="216" cy="42" r="4"/>
</g>
<g fill="#000000">
	<circle cx="337" cy="209" r="4"/>
</g>
<g fill="#000000">
	<circle cx="286" cy="26" r="4"/>
</g>
<g fill="#000000">
	<circle cx="131" cy="207" r="4"/>
</g>
<g fill="#000000">
	<circle cx="65" cy="218" r="4"/>
</g>
<g fill="#000000">
	<circle cx="22" cy="180" r="4"/>
</g>
<g fill="#000000">
	<circle cx="50" cy="273" r="4"/>
</g>

</g>

</svg>
