<?xml version="1.0" encoding="utf-8"?>
<!-- Created with Hypercube (http://tumic.wz.cz/hypercube) -->

<svg width="400" height="300" viewBox="0 0 400 300" xmlns="http://www.w3.org/2000/svg" baseProfile="tiny">

<g font-family="Helvetica" font-weight="normal">

<g>
	<polygon points="230,180 229,171 237,175" fill="#aaff00"/>
	<line x1="256" y1="132" x2="233" y2="173" stroke="#aaff00" stroke-width="2"/>
</g>
<g>
	<polygon points="231,96 239,100 232,105" fill="#aaff00"/>
	<line x1="256" y1="132" x2="235" y2="102" stroke="#aaff00" stroke-width="2"/>
</g>
<g>
	<polygon points="283,162 274,159 281,153" fill="#aaff00"/>
	<line x1="256" y1="132" x2="278" y2="157" stroke="#aaff00" stroke-width="2"/>
</g>
<g>
	<polygon points="288,104 285,113 279,106" fill="#aaff00"/>
	<line x1="256" y1="132" x2="283" y2="109" stroke="#aaff00" stroke-width="2"/>
</g>
<g>
	<polygon points="197,169 206,169 202,177" fill="#aaff00"/>
	<line x1="228" y1="184" x2="203" y2="172" stroke="#aaff00" stroke-width="2"/>
</g>
<g>
	<polygon points="159,198 166,192 167,200" fill="#aaff00"/>
	<line x1="228" y1="184" x2="166" y2="196" stroke="#aaff00" stroke-width="2"/>
</g>
<g>
	<polygon points="281,167 275,173 272,165" fill="#aaff00"/>
	<line x1="228" y1="184" x2="274" y2="169" stroke="#aaff00" stroke-width="2"/>
</g>
<g>
	<polygon points="232,237 227,230 236,229" fill="#aaff00"/>
	<line x1="228" y1="184" x2="231" y2="230" stroke="#aaff00" stroke-width="2"/>
</g>
<g>
	<polygon points="182,102 188,109 179,110" fill="#aaff00"/>
	<line x1="193" y1="168" x2="183" y2="109" stroke="#aaff00" stroke-width="2"/>
</g>
<g>
	<polygon points="164,142 173,143 167,150" fill="#aaff00"/>
	<line x1="193" y1="168" x2="169" y2="146" stroke="#aaff00" stroke-width="2"/>
</g>
<g>
	<polygon points="158,196 161,187 167,194" fill="#aaff00"/>
	<line x1="193" y1="168" x2="164" y2="191" stroke="#aaff00" stroke-width="2"/>
</g>
<g>
	<polygon points="281,166 273,170 273,161" fill="#aaff00"/>
	<line x1="193" y1="168" x2="274" y2="166" stroke="#aaff00" stroke-width="2"/>
</g>
<g>
	<polygon points="183,231 180,223 189,224" fill="#aaff00"/>
	<line x1="193" y1="168" x2="184" y2="224" stroke="#aaff00" stroke-width="2"/>
</g>
<g>
	<polygon points="204,52 205,61 197,56" fill="#aaff00"/>
	<line x1="182" y1="98" x2="201" y2="58" stroke="#aaff00" stroke-width="2"/>
</g>
<g>
	<polygon points="291,59 283,62 284,53" fill="#aaff00"/>
	<line x1="207" y1="48" x2="284" y2="58" stroke="#aaff00" stroke-width="2"/>
</g>
<g>
	<polygon points="252,18 248,26 243,18" fill="#aaff00"/>
	<line x1="207" y1="48" x2="246" y2="22" stroke="#aaff00" stroke-width="2"/>
</g>
<g>
	<polygon points="286,161 282,153 291,154" fill="#aaff00"/>
	<line x1="296" y1="60" x2="287" y2="154" stroke="#aaff00" stroke-width="2"/>
</g>
<g>
	<polygon points="292,97 288,89 297,90" fill="#aaff00"/>
	<line x1="296" y1="60" x2="293" y2="90" stroke="#aaff00" stroke-width="2"/>
</g>
<g>
	<polygon points="268,201 268,192 276,196" fill="#aaff00"/>
	<line x1="286" y1="166" x2="272" y2="195" stroke="#aaff00" stroke-width="2"/>
</g>
<g>
	<polygon points="236,238 238,229 244,236" fill="#aaff00"/>
	<line x1="267" y1="206" x2="241" y2="233" stroke="#aaff00" stroke-width="2"/>
</g>
<g>
	<polygon points="187,236 195,232 194,241" fill="#aaff00"/>
	<line x1="233" y1="242" x2="194" y2="237" stroke="#aaff00" stroke-width="2"/>
</g>
<g>
	<polygon points="231,246 232,255 224,251" fill="#aaff00"/>
	<line x1="216" y1="285" x2="228" y2="252" stroke="#aaff00" stroke-width="2"/>
</g>
<g>
	<polygon points="287,261 281,268 278,259" fill="#aaff00"/>
	<line x1="216" y1="285" x2="280" y2="263" stroke="#aaff00" stroke-width="2"/>
</g>
<g>
	<polygon points="286,170 291,177 282,178" fill="#aaff00"/>
	<line x1="292" y1="260" x2="286" y2="177" stroke="#aaff00" stroke-width="2"/>
</g>
<g>
	<polygon points="160,143 164,151 155,150" fill="#aaff00"/>
	<line x1="155" y1="199" x2="159" y2="150" stroke="#aaff00" stroke-width="2"/>
</g>
<g>
	<polygon points="213,281 205,277 212,272" fill="#aaff00"/>
	<line x1="155" y1="199" x2="209" y2="275" stroke="#aaff00" stroke-width="2"/>
</g>
<g>
	<polygon points="109,169 118,169 113,177" fill="#aaff00"/>
	<line x1="155" y1="199" x2="115" y2="173" stroke="#aaff00" stroke-width="2"/>
</g>
<g>
	<polygon points="179,102 180,110 172,106" fill="#aaff00"/>
	<line x1="161" y1="139" x2="176" y2="108" stroke="#aaff00" stroke-width="2"/>
</g>
<g>
	<polygon points="204,52 205,61 197,56" fill="#aaff00"/>
	<line x1="161" y1="139" x2="201" y2="58" stroke="#aaff00" stroke-width="2"/>
</g>
<g>
	<polygon points="263,203 254,203 259,195" fill="#aaff00"/>
	<line x1="161" y1="139" x2="257" y2="199" stroke="#aaff00" stroke-width="2"/>
</g>
<g>
	<polygon points="156,141 152,148 148,140" fill="#aaff00"/>
	<line x1="106" y1="167" x2="150" y2="144" stroke="#aaff00" stroke-width="2"/>
</g>
<g>
	<polygon points="292,56 284,53 291,47" fill="#aaff00"/>
	<line x1="256" y1="16" x2="288" y2="51" stroke="#aaff00" stroke-width="2"/>
</g>
<g>
	<polygon points="186,97 193,92 194,101" fill="#aaff00"/>
	<line x1="229" y1="93" x2="193" y2="96" stroke="#aaff00" stroke-width="2"/>
</g>

<g fill="#000000">
	<circle cx="255" cy="131" r="4"/>
</g>
<g fill="#000000">
	<circle cx="227" cy="183" r="4"/>
</g>
<g fill="#000000">
	<circle cx="228" cy="92" r="4"/>
</g>
<g fill="#000000">
	<circle cx="181" cy="97" r="4"/>
</g>
<g fill="#000000">
	<circle cx="192" cy="167" r="4"/>
</g>
<g fill="#000000">
	<circle cx="206" cy="47" r="4"/>
</g>
<g fill="#000000">
	<circle cx="160" cy="138" r="4"/>
</g>
<g fill="#000000">
	<circle cx="154" cy="198" r="4"/>
</g>
<g fill="#000000">
	<circle cx="285" cy="165" r="4"/>
</g>
<g fill="#000000">
	<circle cx="266" cy="205" r="4"/>
</g>
<g fill="#000000">
	<circle cx="295" cy="59" r="4"/>
</g>
<g fill="#000000">
	<circle cx="291" cy="101" r="4"/>
</g>
<g fill="#000000">
	<circle cx="232" cy="241" r="4"/>
</g>
<g fill="#000000">
	<circle cx="182" cy="235" r="4"/>
</g>
<g fill="#000000">
	<circle cx="255" cy="15" r="4"/>
</g>
<g fill="#000000">
	<circle cx="215" cy="284" r="4"/>
</g>
<g fill="#000000">
	<circle cx="291" cy="259" r="4"/>
</g>
<g fill="#000000">
	<circle cx="105" cy="166" r="4"/>
</g>

</g>

</svg>
