<?xml version="1.0" encoding="utf-8"?>
<!-- Created with Hypercube (http://tumic.wz.cz/hypercube) -->

<svg width="400" height="300" viewBox="0 0 400 300" xmlns="http://www.w3.org/2000/svg" baseProfile="tiny">

<g font-family="Helvetica" font-weight="normal">

<g>
	<polygon points="170,6 164,12 161,4" fill="#aaff00"/>
	<line x1="124" y1="20" x2="163" y2="8" stroke="#aaff00" stroke-width="2"/>
</g>
<g>
	<polygon points="189,106 180,105 185,98" fill="#aaff00"/>
	<line x1="152" y1="80" x2="183" y2="102" stroke="#aaff00" stroke-width="2"/>
</g>
<g>
	<polygon points="95,80 103,76 103,85" fill="#aaff00"/>
	<line x1="152" y1="80" x2="102" y2="80" stroke="#aaff00" stroke-width="2"/>
</g>
<g>
	<polygon points="125,24 133,29 125,33" fill="#aaff00"/>
	<line x1="152" y1="80" x2="128" y2="30" stroke="#aaff00" stroke-width="2"/>
</g>
<g>
	<polygon points="234,59 228,65 225,56" fill="#aaff00"/>
	<line x1="152" y1="80" x2="227" y2="60" stroke="#aaff00" stroke-width="2"/>
</g>
<g>
	<polygon points="138,167 135,159 144,160" fill="#aaff00"/>
	<line x1="152" y1="80" x2="139" y2="160" stroke="#aaff00" stroke-width="2"/>
</g>
<g>
	<polygon points="222,149 214,145 221,140" fill="#aaff00"/>
	<line x1="193" y1="109" x2="218" y2="143" stroke="#aaff00" stroke-width="2"/>
</g>
<g>
	<polygon points="245,109 237,114 237,105" fill="#aaff00"/>
	<line x1="193" y1="109" x2="238" y2="109" stroke="#aaff00" stroke-width="2"/>
</g>
<g>
	<polygon points="241,229 240,220 249,224" fill="#aaff00"/>
	<line x1="262" y1="183" x2="244" y2="223" stroke="#aaff00" stroke-width="2"/>
</g>
<g>
	<polygon points="228,155 237,157 231,164" fill="#aaff00"/>
	<line x1="262" y1="183" x2="234" y2="160" stroke="#aaff00" stroke-width="2"/>
</g>
<g>
	<polygon points="250,114 256,121 247,122" fill="#aaff00"/>
	<line x1="262" y1="183" x2="251" y2="121" stroke="#aaff00" stroke-width="2"/>
</g>
<g>
	<polygon points="272,291 264,286 272,282" fill="#aaff00"/>
	<line x1="240" y1="234" x2="269" y2="284" stroke="#aaff00" stroke-width="2"/>
</g>
<g>
	<polygon points="305,239 297,243 298,234" fill="#aaff00"/>
	<line x1="240" y1="234" x2="298" y2="239" stroke="#aaff00" stroke-width="2"/>
</g>
<g>
	<polygon points="214,290 213,281 222,285" fill="#aaff00"/>
	<line x1="240" y1="234" x2="217" y2="284" stroke="#aaff00" stroke-width="2"/>
</g>
<g>
	<polygon points="235,234 228,239 227,230" fill="#aaff00"/>
	<line x1="148" y1="240" x2="228" y2="234" stroke="#aaff00" stroke-width="2"/>
</g>
<g>
	<polygon points="147,235 141,228 150,227" fill="#aaff00"/>
	<line x1="138" y1="172" x2="146" y2="228" stroke="#aaff00" stroke-width="2"/>
</g>
<g>
	<polygon points="182,203 173,202 178,195" fill="#aaff00"/>
	<line x1="138" y1="172" x2="176" y2="199" stroke="#aaff00" stroke-width="2"/>
</g>
<g>
	<polygon points="236,231 227,232 231,224" fill="#aaff00"/>
	<line x1="186" y1="206" x2="229" y2="228" stroke="#aaff00" stroke-width="2"/>
</g>
<g>
	<polygon points="241,229 240,220 249,224" fill="#aaff00"/>
	<line x1="284" y1="137" x2="244" y2="223" stroke="#aaff00" stroke-width="2"/>
</g>
<g>
	<polygon points="229,151 235,145 238,154" fill="#aaff00"/>
	<line x1="284" y1="137" x2="236" y2="149" stroke="#aaff00" stroke-width="2"/>
</g>
<g>
	<polygon points="253,112 262,114 256,121" fill="#aaff00"/>
	<line x1="284" y1="137" x2="259" y2="117" stroke="#aaff00" stroke-width="2"/>
</g>
<g>
	<polygon points="281,133 274,128 281,124" fill="#aaff00"/>
	<line x1="239" y1="58" x2="278" y2="126" stroke="#aaff00" stroke-width="2"/>
</g>
<g>
	<polygon points="277,15 276,24 269,18" fill="#aaff00"/>
	<line x1="239" y1="58" x2="273" y2="20" stroke="#aaff00" stroke-width="2"/>
</g>

<g fill="#000000">
	<circle cx="174" cy="4" r="4"/>
</g>
<g fill="#000000">
	<circle cx="147" cy="239" r="4"/>
</g>
<g fill="#000000">
	<circle cx="239" cy="233" r="4"/>
</g>
<g fill="#000000">
	<circle cx="261" cy="182" r="4"/>
</g>
<g fill="#000000">
	<circle cx="224" cy="152" r="4"/>
</g>
<g fill="#000000">
	<circle cx="249" cy="109" r="4"/>
</g>
<g fill="#000000">
	<circle cx="185" cy="205" r="4"/>
</g>
<g fill="#000000">
	<circle cx="151" cy="79" r="4"/>
</g>
<g fill="#000000">
	<circle cx="192" cy="108" r="4"/>
</g>
<g fill="#000000">
	<circle cx="90" cy="80" r="4"/>
</g>
<g fill="#000000">
	<circle cx="123" cy="19" r="4"/>
</g>
<g fill="#000000">
	<circle cx="238" cy="57" r="4"/>
</g>
<g fill="#000000">
	<circle cx="137" cy="171" r="4"/>
</g>
<g fill="#000000">
	<circle cx="283" cy="136" r="4"/>
</g>
<g fill="#000000">
	<circle cx="280" cy="11" r="4"/>
</g>
<g fill="#000000">
	<circle cx="274" cy="294" r="4"/>
</g>
<g fill="#000000">
	<circle cx="309" cy="239" r="4"/>
</g>
<g fill="#000000">
	<circle cx="212" cy="294" r="4"/>
</g>

</g>

</svg>
