<?xml version="1.0" encoding="utf-8"?>
<!-- Created with Hypercube (http://tumic.wz.cz/hypercube) -->

<svg width="400" height="300" viewBox="0 0 400 300" xmlns="http://www.w3.org/2000/svg" baseProfile="tiny">

<g font-family="Helvetica" font-weight="normal">

<g>
	<polygon points="212,70 220,74 213,79" fill="#aaff00"/>
	<line x1="249" y1="122" x2="216" y2="76" stroke="#aaff00" stroke-width="2"/>
</g>
<g>
	<polygon points="331,171 322,171 326,163" fill="#aaff00"/>
	<line x1="249" y1="122" x2="324" y2="167" stroke="#aaff00" stroke-width="2"/>
</g>
<g>
	<polygon points="237,172 234,164 243,166" fill="#aaff00"/>
	<line x1="249" y1="122" x2="238" y2="165" stroke="#aaff00" stroke-width="2"/>
</g>
<g>
	<polygon points="284,64 284,73 276,69" fill="#aaff00"/>
	<line x1="249" y1="122" x2="280" y2="70" stroke="#aaff00" stroke-width="2"/>
</g>
<g>
	<polygon points="367,113 368,122 360,118" fill="#aaff00"/>
	<line x1="335" y1="174" x2="364" y2="120" stroke="#aaff00" stroke-width="2"/>
</g>
<g>
	<polygon points="351,241 345,235 354,232" fill="#aaff00"/>
	<line x1="335" y1="174" x2="350" y2="234" stroke="#aaff00" stroke-width="2"/>
</g>
<g>
	<polygon points="299,216 301,207 308,213" fill="#aaff00"/>
	<line x1="335" y1="174" x2="304" y2="210" stroke="#aaff00" stroke-width="2"/>
</g>
<g>
	<polygon points="322,128 328,134 319,137" fill="#aaff00"/>
	<line x1="335" y1="174" x2="324" y2="135" stroke="#aaff00" stroke-width="2"/>
</g>
<g>
	<polygon points="390,188 381,191 384,182" fill="#aaff00"/>
	<line x1="335" y1="174" x2="383" y2="186" stroke="#aaff00" stroke-width="2"/>
</g>
<g>
	<polygon points="378,151 373,158 369,150" fill="#aaff00"/>
	<line x1="335" y1="174" x2="371" y2="154" stroke="#aaff00" stroke-width="2"/>
</g>
<g>
	<polygon points="365,111 359,117 356,109" fill="#aaff00"/>
	<line x1="321" y1="124" x2="358" y2="113" stroke="#aaff00" stroke-width="2"/>
</g>
<g>
	<polygon points="371,114 377,120 369,123" fill="#aaff00"/>
	<line x1="395" y1="190" x2="373" y2="121" stroke="#aaff00" stroke-width="2"/>
</g>
<g>
	<polygon points="371,114 377,120 369,123" fill="#aaff00"/>
	<line x1="382" y1="149" x2="373" y2="121" stroke="#aaff00" stroke-width="2"/>
</g>
<g>
	<polygon points="368,105 360,100 369,96" fill="#aaff00"/>
	<line x1="346" y1="55" x2="365" y2="99" stroke="#aaff00" stroke-width="2"/>
</g>
<g>
	<polygon points="341,55 334,60 333,51" fill="#aaff00"/>
	<line x1="287" y1="61" x2="334" y2="56" stroke="#aaff00" stroke-width="2"/>
</g>
<g>
	<polygon points="244,122 237,128 236,119" fill="#aaff00"/>
	<line x1="181" y1="133" x2="237" y2="123" stroke="#aaff00" stroke-width="2"/>
</g>
<g>
	<polygon points="176,134 171,142 167,133" fill="#aaff00"/>
	<line x1="126" y1="157" x2="170" y2="137" stroke="#aaff00" stroke-width="2"/>
</g>
<g>
	<polygon points="121,157 113,162 113,153" fill="#aaff00"/>
	<line x1="72" y1="160" x2="114" y2="157" stroke="#aaff00" stroke-width="2"/>
</g>
<g>
	<polygon points="67,159 59,162 60,153" fill="#aaff00"/>
	<line x1="17" y1="150" x2="60" y2="157" stroke="#aaff00" stroke-width="2"/>
</g>
<g>
	<polygon points="5,98 11,105 3,106" fill="#aaff00"/>
	<line x1="17" y1="150" x2="7" y2="105" stroke="#aaff00" stroke-width="2"/>
</g>
<g>
	<polygon points="16,154 18,162 10,161" fill="#aaff00"/>
	<line x1="5" y1="207" x2="14" y2="161" stroke="#aaff00" stroke-width="2"/>
</g>

<g fill="#000000">
	<circle cx="248" cy="121" r="4"/>
</g>
<g fill="#000000">
	<circle cx="209" cy="66" r="4"/>
</g>
<g fill="#000000">
	<circle cx="334" cy="173" r="4"/>
</g>
<g fill="#000000">
	<circle cx="235" cy="176" r="4"/>
</g>
<g fill="#000000">
	<circle cx="286" cy="60" r="4"/>
</g>
<g fill="#000000">
	<circle cx="369" cy="109" r="4"/>
</g>
<g fill="#000000">
	<circle cx="352" cy="245" r="4"/>
</g>
<g fill="#000000">
	<circle cx="296" cy="219" r="4"/>
</g>
<g fill="#000000">
	<circle cx="320" cy="123" r="4"/>
</g>
<g fill="#000000">
	<circle cx="394" cy="189" r="4"/>
</g>
<g fill="#000000">
	<circle cx="381" cy="148" r="4"/>
</g>
<g fill="#000000">
	<circle cx="345" cy="54" r="4"/>
</g>
<g fill="#000000">
	<circle cx="4" cy="206" r="4"/>
</g>
<g fill="#000000">
	<circle cx="16" cy="149" r="4"/>
</g>
<g fill="#000000">
	<circle cx="71" cy="159" r="4"/>
</g>
<g fill="#000000">
	<circle cx="4" cy="93" r="4"/>
</g>
<g fill="#000000">
	<circle cx="125" cy="156" r="4"/>
</g>
<g fill="#000000">
	<circle cx="180" cy="132" r="4"/>
</g>

</g>

</svg>
