<?xml version="1.0" encoding="utf-8"?>
<!-- Created with Hypercube (http://tumic.wz.cz/hypercube) -->

<svg width="400" height="300" viewBox="0 0 400 300" xmlns="http://www.w3.org/2000/svg" baseProfile="tiny">

<g font-family="Helvetica" font-weight="normal">

<g>
	<polygon points="125,187 130,180 134,188" fill="#aaff00"/>
	<line x1="218" y1="148" x2="131" y2="184" stroke="#aaff00" stroke-width="2"/>
</g>
<g>
	<polygon points="176,185 179,176 185,183" fill="#aaff00"/>
	<line x1="218" y1="148" x2="181" y2="180" stroke="#aaff00" stroke-width="2"/>
</g>
<g>
	<polygon points="131,145 139,140 139,149" fill="#aaff00"/>
	<line x1="218" y1="148" x2="138" y2="145" stroke="#aaff00" stroke-width="2"/>
</g>
<g>
	<polygon points="219,222 215,214 224,214" fill="#aaff00"/>
	<line x1="218" y1="148" x2="219" y2="215" stroke="#aaff00" stroke-width="2"/>
</g>
<g>
	<polygon points="313,167 305,170 306,161" fill="#aaff00"/>
	<line x1="218" y1="148" x2="306" y2="165" stroke="#aaff00" stroke-width="2"/>
</g>
<g>
	<polygon points="182,114 191,116 184,122" fill="#aaff00"/>
	<line x1="218" y1="148" x2="187" y2="119" stroke="#aaff00" stroke-width="2"/>
</g>
<g>
	<polygon points="193,62 199,68 191,71" fill="#aaff00"/>
	<line x1="218" y1="148" x2="195" y2="69" stroke="#aaff00" stroke-width="2"/>
</g>
<g>
	<polygon points="296,99 291,107 287,99" fill="#aaff00"/>
	<line x1="218" y1="148" x2="290" y2="103" stroke="#aaff00" stroke-width="2"/>
</g>
<g>
	<polygon points="240,91 241,100 233,96" fill="#aaff00"/>
	<line x1="218" y1="148" x2="237" y2="97" stroke="#aaff00" stroke-width="2"/>
</g>
<g>
	<polygon points="274,220 265,217 273,211" fill="#aaff00"/>
	<line x1="218" y1="148" x2="269" y2="214" stroke="#aaff00" stroke-width="2"/>
</g>
<g>
	<polygon points="259,162 250,164 253,155" fill="#aaff00"/>
	<line x1="218" y1="148" x2="252" y2="160" stroke="#aaff00" stroke-width="2"/>
</g>
<g>
	<polygon points="126,149 129,157 120,156" fill="#aaff00"/>
	<line x1="121" y1="189" x2="125" y2="156" stroke="#aaff00" stroke-width="2"/>
</g>
<g>
	<polygon points="138,237 131,231 140,228" fill="#aaff00"/>
	<line x1="121" y1="189" x2="136" y2="230" stroke="#aaff00" stroke-width="2"/>
</g>
<g>
	<polygon points="71,184 79,180 78,189" fill="#aaff00"/>
	<line x1="121" y1="189" x2="78" y2="185" stroke="#aaff00" stroke-width="2"/>
</g>
<g>
	<polygon points="95,124 102,129 94,133" fill="#aaff00"/>
	<line x1="121" y1="189" x2="98" y2="130" stroke="#aaff00" stroke-width="2"/>
</g>
<g>
	<polygon points="70,181 74,173 79,181" fill="#aaff00"/>
	<line x1="127" y1="145" x2="76" y2="177" stroke="#aaff00" stroke-width="2"/>
</g>
<g>
	<polygon points="97,122 106,123 101,131" fill="#aaff00"/>
	<line x1="127" y1="145" x2="103" y2="127" stroke="#aaff00" stroke-width="2"/>
</g>
<g>
	<polygon points="68,145 76,140 76,149" fill="#aaff00"/>
	<line x1="127" y1="145" x2="75" y2="145" stroke="#aaff00" stroke-width="2"/>
</g>
<g>
	<polygon points="63,96 72,97 67,105" fill="#aaff00"/>
	<line x1="127" y1="145" x2="69" y2="101" stroke="#aaff00" stroke-width="2"/>
</g>
<g>
	<polygon points="64,149 69,156 60,157" fill="#aaff00"/>
	<line x1="67" y1="184" x2="64" y2="156" stroke="#aaff00" stroke-width="2"/>
</g>
<g>
	<polygon points="60,98 65,105 56,106" fill="#aaff00"/>
	<line x1="67" y1="184" x2="60" y2="105" stroke="#aaff00" stroke-width="2"/>
</g>
<g>
	<polygon points="67,142 70,133 76,140" fill="#aaff00"/>
	<line x1="94" y1="120" x2="72" y2="137" stroke="#aaff00" stroke-width="2"/>
</g>
<g>
	<polygon points="63,96 72,97 67,105" fill="#aaff00"/>
	<line x1="94" y1="120" x2="69" y2="101" stroke="#aaff00" stroke-width="2"/>
</g>
<g>
	<polygon points="130,148 139,150 132,156" fill="#aaff00"/>
	<line x1="173" y1="188" x2="135" y2="152" stroke="#aaff00" stroke-width="2"/>
</g>
<g>
	<polygon points="142,238 142,229 150,233" fill="#aaff00"/>
	<line x1="173" y1="188" x2="146" y2="232" stroke="#aaff00" stroke-width="2"/>
</g>
<g>
	<polygon points="337,62 335,70 328,64" fill="#aaff00"/>
	<line x1="300" y1="97" x2="332" y2="66" stroke="#aaff00" stroke-width="2"/>
</g>

<g fill="#000000">
	<circle cx="217" cy="147" r="4"/>
</g>
<g fill="#000000">
	<circle cx="120" cy="188" r="4"/>
</g>
<g fill="#000000">
	<circle cx="172" cy="187" r="4"/>
</g>
<g fill="#000000">
	<circle cx="126" cy="144" r="4"/>
</g>
<g fill="#000000">
	<circle cx="219" cy="226" r="4"/>
</g>
<g fill="#000000">
	<circle cx="317" cy="167" r="4"/>
</g>
<g fill="#000000">
	<circle cx="178" cy="110" r="4"/>
</g>
<g fill="#000000">
	<circle cx="191" cy="57" r="4"/>
</g>
<g fill="#000000">
	<circle cx="299" cy="96" r="4"/>
</g>
<g fill="#000000">
	<circle cx="241" cy="86" r="4"/>
</g>
<g fill="#000000">
	<circle cx="276" cy="223" r="4"/>
</g>
<g fill="#000000">
	<circle cx="263" cy="163" r="4"/>
</g>
<g fill="#000000">
	<circle cx="139" cy="241" r="4"/>
</g>
<g fill="#000000">
	<circle cx="66" cy="183" r="4"/>
</g>
<g fill="#000000">
	<circle cx="93" cy="119" r="4"/>
</g>
<g fill="#000000">
	<circle cx="63" cy="144" r="4"/>
</g>
<g fill="#000000">
	<circle cx="59" cy="93" r="4"/>
</g>
<g fill="#000000">
	<circle cx="340" cy="58" r="4"/>
</g>

</g>

</svg>
