<?xml version="1.0" encoding="utf-8"?>
<!-- Created with Hypercube (http://tumic.wz.cz/hypercube) -->

<svg width="400" height="300" viewBox="0 0 400 300" xmlns="http://www.w3.org/2000/svg" baseProfile="tiny">

<g font-family="Helvetica" font-weight="normal">

<g>
	<polygon points="277,210 268,208 274,201" fill="#aaff00"/>
	<line x1="227" y1="169" x2="271" y2="205" stroke="#aaff00" stroke-width="2"/>
</g>
<g>
	<polygon points="335,225 326,228 329,219" fill="#aaff00"/>
	<line x1="281" y1="213" x2="328" y2="224" stroke="#aaff00" stroke-width="2"/>
</g>
<g>
	<polygon points="267,262 264,253 273,256" fill="#aaff00"/>
	<line x1="281" y1="213" x2="269" y2="255" stroke="#aaff00" stroke-width="2"/>
</g>
<g>
	<polygon points="223,166 214,165 219,158" fill="#aaff00"/>
	<line x1="137" y1="105" x2="217" y2="162" stroke="#aaff00" stroke-width="2"/>
</g>
<g>
	<polygon points="121,149 119,140 128,143" fill="#aaff00"/>
	<line x1="137" y1="105" x2="123" y2="142" stroke="#aaff00" stroke-width="2"/>
</g>
<g>
	<polygon points="98,60 107,63 100,69" fill="#aaff00"/>
	<line x1="137" y1="105" x2="103" y2="65" stroke="#aaff00" stroke-width="2"/>
</g>
<g>
	<polygon points="156,52 157,61 149,57" fill="#aaff00"/>
	<line x1="137" y1="105" x2="153" y2="58" stroke="#aaff00" stroke-width="2"/>
</g>
<g>
	<polygon points="169,160 164,168 160,160" fill="#aaff00"/>
	<line x1="94" y1="196" x2="163" y2="163" stroke="#aaff00" stroke-width="2"/>
</g>
<g>
	<polygon points="117,157 117,166 109,162" fill="#aaff00"/>
	<line x1="94" y1="196" x2="113" y2="163" stroke="#aaff00" stroke-width="2"/>
</g>
<g>
	<polygon points="104,251 98,244 107,243" fill="#aaff00"/>
	<line x1="94" y1="196" x2="102" y2="244" stroke="#aaff00" stroke-width="2"/>
</g>
<g>
	<polygon points="36,221 41,213 45,222" fill="#aaff00"/>
	<line x1="94" y1="196" x2="42" y2="218" stroke="#aaff00" stroke-width="2"/>
</g>
<g>
	<polygon points="233,100 231,108 225,102" fill="#aaff00"/>
	<line x1="174" y1="159" x2="228" y2="105" stroke="#aaff00" stroke-width="2"/>
</g>
<g>
	<polygon points="248,39 251,47 242,46" fill="#aaff00"/>
	<line x1="237" y1="97" x2="246" y2="46" stroke="#aaff00" stroke-width="2"/>
</g>
<g>
	<polygon points="294,97 286,101 286,92" fill="#aaff00"/>
	<line x1="237" y1="97" x2="287" y2="97" stroke="#aaff00" stroke-width="2"/>
</g>
<g>
	<polygon points="132,106 126,113 123,104" fill="#aaff00"/>
	<line x1="66" y1="128" x2="125" y2="108" stroke="#aaff00" stroke-width="2"/>
</g>
<g>
	<polygon points="92,191 85,186 93,182" fill="#aaff00"/>
	<line x1="66" y1="128" x2="89" y2="185" stroke="#aaff00" stroke-width="2"/>
</g>
<g>
	<polygon points="62,125 53,124 58,117" fill="#aaff00"/>
	<line x1="14" y1="91" x2="56" y2="121" stroke="#aaff00" stroke-width="2"/>
</g>
<g>
	<polygon points="13,86 7,79 16,78" fill="#aaff00"/>
	<line x1="5" y1="34" x2="12" y2="79" stroke="#aaff00" stroke-width="2"/>
</g>
<g>
	<polygon points="390,243 381,245 384,236" fill="#aaff00"/>
	<line x1="340" y1="227" x2="383" y2="241" stroke="#aaff00" stroke-width="2"/>
</g>

<g fill="#000000">
	<circle cx="226" cy="168" r="4"/>
</g>
<g fill="#000000">
	<circle cx="280" cy="212" r="4"/>
</g>
<g fill="#000000">
	<circle cx="339" cy="226" r="4"/>
</g>
<g fill="#000000">
	<circle cx="265" cy="266" r="4"/>
</g>
<g fill="#000000">
	<circle cx="173" cy="158" r="4"/>
</g>
<g fill="#000000">
	<circle cx="236" cy="96" r="4"/>
</g>
<g fill="#000000">
	<circle cx="248" cy="34" r="4"/>
</g>
<g fill="#000000">
	<circle cx="298" cy="96" r="4"/>
</g>
<g fill="#000000">
	<circle cx="65" cy="127" r="4"/>
</g>
<g fill="#000000">
	<circle cx="136" cy="104" r="4"/>
</g>
<g fill="#000000">
	<circle cx="93" cy="195" r="4"/>
</g>
<g fill="#000000">
	<circle cx="119" cy="153" r="4"/>
</g>
<g fill="#000000">
	<circle cx="95" cy="56" r="4"/>
</g>
<g fill="#000000">
	<circle cx="157" cy="47" r="4"/>
</g>
<g fill="#000000">
	<circle cx="104" cy="255" r="4"/>
</g>
<g fill="#000000">
	<circle cx="31" cy="222" r="4"/>
</g>
<g fill="#000000">
	<circle cx="4" cy="33" r="4"/>
</g>
<g fill="#000000">
	<circle cx="13" cy="90" r="4"/>
</g>
<g fill="#000000">
	<circle cx="394" cy="244" r="4"/>
</g>

</g>

</svg>
