<?xml version="1.0" encoding="utf-8"?>
<!-- Created with Hypercube (http://tumic.wz.cz/hypercube) -->

<svg width="400" height="300" viewBox="0 0 400 300" xmlns="http://www.w3.org/2000/svg" baseProfile="tiny">

<g font-family="Helvetica" font-weight="normal">

<g>
	<polygon points="204,39 209,32 213,40" fill="#aaff00"/>
	<line x1="268" y1="15" x2="210" y2="36" stroke="#aaff00" stroke-width="2"/>
</g>
<g>
	<polygon points="319,5 312,11 311,2" fill="#aaff00"/>
	<line x1="268" y1="15" x2="312" y2="7" stroke="#aaff00" stroke-width="2"/>
</g>
<g>
	<polygon points="310,50 301,48 307,41" fill="#aaff00"/>
	<line x1="268" y1="15" x2="304" y2="45" stroke="#aaff00" stroke-width="2"/>
</g>
<g>
	<polygon points="171,116 170,107 178,111" fill="#aaff00"/>
	<line x1="200" y1="41" x2="174" y2="110" stroke="#aaff00" stroke-width="2"/>
</g>
<g>
	<polygon points="196,38 187,36 193,29" fill="#aaff00"/>
	<line x1="158" y1="5" x2="191" y2="33" stroke="#aaff00" stroke-width="2"/>
</g>
<g>
	<polygon points="314,48 312,40 320,41" fill="#aaff00"/>
	<line x1="324" y1="5" x2="316" y2="41" stroke="#aaff00" stroke-width="2"/>
</g>
<g>
	<polygon points="287,95 287,86 295,90" fill="#aaff00"/>
	<line x1="314" y1="53" x2="291" y2="89" stroke="#aaff00" stroke-width="2"/>
</g>
<g>
	<polygon points="231,106 238,100 239,109" fill="#aaff00"/>
	<line x1="285" y1="99" x2="238" y2="105" stroke="#aaff00" stroke-width="2"/>
</g>
<g>
	<polygon points="252,155 245,150 253,146" fill="#aaff00"/>
	<line x1="227" y1="107" x2="249" y2="148" stroke="#aaff00" stroke-width="2"/>
</g>
<g>
	<polygon points="222,105 213,107 216,99" fill="#aaff00"/>
	<line x1="135" y1="81" x2="215" y2="103" stroke="#aaff00" stroke-width="2"/>
</g>
<g>
	<polygon points="130,80 122,83 123,74" fill="#aaff00"/>
	<line x1="74" y1="69" x2="123" y2="78" stroke="#aaff00" stroke-width="2"/>
</g>
<g>
	<polygon points="196,229 188,225 195,220" fill="#aaff00"/>
	<line x1="163" y1="183" x2="192" y2="223" stroke="#aaff00" stroke-width="2"/>
</g>
<g>
	<polygon points="266,252 257,254 260,246" fill="#aaff00"/>
	<line x1="199" y1="233" x2="259" y2="250" stroke="#aaff00" stroke-width="2"/>
</g>
<g>
	<polygon points="141,270 145,262 150,270" fill="#aaff00"/>
	<line x1="199" y1="233" x2="147" y2="266" stroke="#aaff00" stroke-width="2"/>
</g>
<g>
	<polygon points="322,229 317,237 313,229" fill="#aaff00"/>
	<line x1="271" y1="254" x2="316" y2="232" stroke="#aaff00" stroke-width="2"/>
</g>
<g>
	<polygon points="274,257 282,260 275,266" fill="#aaff00"/>
	<line x1="308" y1="295" x2="278" y2="262" stroke="#aaff00" stroke-width="2"/>
</g>
<g>
	<polygon points="83,286 89,280 92,289" fill="#aaff00"/>
	<line x1="138" y1="273" x2="90" y2="285" stroke="#aaff00" stroke-width="2"/>
</g>
<g>
	<polygon points="142,274 151,274 147,282" fill="#aaff00"/>
	<line x1="185" y1="295" x2="148" y2="277" stroke="#aaff00" stroke-width="2"/>
</g>
<g>
	<polygon points="163,178 159,170 168,171" fill="#aaff00"/>
	<line x1="170" y1="121" x2="164" y2="171" stroke="#aaff00" stroke-width="2"/>
</g>

<g fill="#000000">
	<circle cx="267" cy="14" r="4"/>
</g>
<g fill="#000000">
	<circle cx="199" cy="40" r="4"/>
</g>
<g fill="#000000">
	<circle cx="323" cy="4" r="4"/>
</g>
<g fill="#000000">
	<circle cx="313" cy="52" r="4"/>
</g>
<g fill="#000000">
	<circle cx="169" cy="120" r="4"/>
</g>
<g fill="#000000">
	<circle cx="284" cy="98" r="4"/>
</g>
<g fill="#000000">
	<circle cx="226" cy="106" r="4"/>
</g>
<g fill="#000000">
	<circle cx="254" cy="158" r="4"/>
</g>
<g fill="#000000">
	<circle cx="73" cy="68" r="4"/>
</g>
<g fill="#000000">
	<circle cx="134" cy="80" r="4"/>
</g>
<g fill="#000000">
	<circle cx="162" cy="182" r="4"/>
</g>
<g fill="#000000">
	<circle cx="198" cy="232" r="4"/>
</g>
<g fill="#000000">
	<circle cx="270" cy="253" r="4"/>
</g>
<g fill="#000000">
	<circle cx="137" cy="272" r="4"/>
</g>
<g fill="#000000">
	<circle cx="326" cy="227" r="4"/>
</g>
<g fill="#000000">
	<circle cx="78" cy="287" r="4"/>
</g>
<g fill="#000000">
	<circle cx="307" cy="294" r="4"/>
</g>
<g fill="#000000">
	<circle cx="157" cy="4" r="4"/>
</g>
<g fill="#000000">
	<circle cx="184" cy="294" r="4"/>
</g>

</g>

</svg>
