<?xml version="1.0" encoding="utf-8"?>
<!-- Created with Hypercube (http://tumic.wz.cz/hypercube) -->

<svg width="400" height="300" viewBox="0 0 400 300" xmlns="http://www.w3.org/2000/svg" baseProfile="tiny">

<g font-family="Helvetica" font-weight="normal">

<g>
	<polygon points="256,22 262,29 253,30" fill="#aaff00"/>
	<line x1="264" y1="63" x2="258" y2="29" stroke="#aaff00" stroke-width="2"/>
</g>
<g>
	<polygon points="211,70 213,61 220,67" fill="#aaff00"/>
	<line x1="256" y1="18" x2="216" y2="65" stroke="#aaff00" stroke-width="2"/>
</g>
<g>
	<polygon points="143,86 150,80 151,89" fill="#aaff00"/>
	<line x1="209" y1="74" x2="150" y2="84" stroke="#aaff00" stroke-width="2"/>
</g>
<g>
	<polygon points="81,106 87,99 90,108" fill="#aaff00"/>
	<line x1="139" y1="87" x2="88" y2="104" stroke="#aaff00" stroke-width="2"/>
</g>
<g>
	<polygon points="25,104 33,100 32,109" fill="#aaff00"/>
	<line x1="77" y1="108" x2="32" y2="104" stroke="#aaff00" stroke-width="2"/>
</g>
<g>
	<polygon points="37,152 38,143 45,149" fill="#aaff00"/>
	<line x1="77" y1="108" x2="41" y2="147" stroke="#aaff00" stroke-width="2"/>
</g>
<g>
	<polygon points="32,151 26,145 35,142" fill="#aaff00"/>
	<line x1="21" y1="104" x2="31" y2="144" stroke="#aaff00" stroke-width="2"/>
</g>
<g>
	<polygon points="36,209 31,201 40,201" fill="#aaff00"/>
	<line x1="34" y1="156" x2="36" y2="202" stroke="#aaff00" stroke-width="2"/>
</g>
<g>
	<polygon points="81,245 72,244 77,237" fill="#aaff00"/>
	<line x1="37" y1="214" x2="75" y2="241" stroke="#aaff00" stroke-width="2"/>
</g>
<g>
	<polygon points="100,290 93,284 102,281" fill="#aaff00"/>
	<line x1="85" y1="248" x2="98" y2="284" stroke="#aaff00" stroke-width="2"/>
</g>
<g>
	<polygon points="137,265 128,267 131,258" fill="#aaff00"/>
	<line x1="85" y1="248" x2="130" y2="263" stroke="#aaff00" stroke-width="2"/>
</g>
<g>
	<polygon points="138,269 134,277 129,270" fill="#aaff00"/>
	<line x1="102" y1="295" x2="132" y2="273" stroke="#aaff00" stroke-width="2"/>
</g>
<g>
	<polygon points="195,276 187,279 188,270" fill="#aaff00"/>
	<line x1="142" y1="267" x2="188" y2="275" stroke="#aaff00" stroke-width="2"/>
</g>
<g>
	<polygon points="251,277 243,282 243,273" fill="#aaff00"/>
	<line x1="200" y1="277" x2="244" y2="277" stroke="#aaff00" stroke-width="2"/>
</g>
<g>
	<polygon points="265,67 272,72 264,76" fill="#aaff00"/>
	<line x1="281" y1="106" x2="268" y2="73" stroke="#aaff00" stroke-width="2"/>
</g>
<g>
	<polygon points="213,75 222,74 218,83" fill="#aaff00"/>
	<line x1="281" y1="106" x2="219" y2="78" stroke="#aaff00" stroke-width="2"/>
</g>
<g>
	<polygon points="317,154 309,150 316,145" fill="#aaff00"/>
	<line x1="281" y1="106" x2="312" y2="148" stroke="#aaff00" stroke-width="2"/>
</g>
<g>
	<polygon points="359,193 350,192 356,185" fill="#aaff00"/>
	<line x1="320" y1="158" x2="354" y2="189" stroke="#aaff00" stroke-width="2"/>
</g>
<g>
	<polygon points="260,19 269,18 265,27" fill="#aaff00"/>
	<line x1="322" y1="48" x2="266" y2="22" stroke="#aaff00" stroke-width="2"/>
</g>
<g>
	<polygon points="357,8 356,17 349,11" fill="#aaff00"/>
	<line x1="322" y1="48" x2="353" y2="13" stroke="#aaff00" stroke-width="2"/>
</g>
<g>
	<polygon points="283,102 284,93 291,98" fill="#aaff00"/>
	<line x1="322" y1="48" x2="287" y2="96" stroke="#aaff00" stroke-width="2"/>
</g>
<g>
	<polygon points="326,49 335,47 332,56" fill="#aaff00"/>
	<line x1="380" y1="69" x2="332" y2="51" stroke="#aaff00" stroke-width="2"/>
</g>

<g fill="#000000">
	<circle cx="263" cy="62" r="4"/>
</g>
<g fill="#000000">
	<circle cx="208" cy="73" r="4"/>
</g>
<g fill="#000000">
	<circle cx="319" cy="157" r="4"/>
</g>
<g fill="#000000">
	<circle cx="255" cy="17" r="4"/>
</g>
<g fill="#000000">
	<circle cx="138" cy="86" r="4"/>
</g>
<g fill="#000000">
	<circle cx="360" cy="4" r="4"/>
</g>
<g fill="#000000">
	<circle cx="362" cy="196" r="4"/>
</g>
<g fill="#000000">
	<circle cx="255" cy="277" r="4"/>
</g>
<g fill="#000000">
	<circle cx="76" cy="107" r="4"/>
</g>
<g fill="#000000">
	<circle cx="84" cy="247" r="4"/>
</g>
<g fill="#000000">
	<circle cx="20" cy="103" r="4"/>
</g>
<g fill="#000000">
	<circle cx="101" cy="294" r="4"/>
</g>
<g fill="#000000">
	<circle cx="33" cy="155" r="4"/>
</g>
<g fill="#000000">
	<circle cx="141" cy="266" r="4"/>
</g>
<g fill="#000000">
	<circle cx="36" cy="213" r="4"/>
</g>
<g fill="#000000">
	<circle cx="199" cy="276" r="4"/>
</g>
<g fill="#000000">
	<circle cx="379" cy="68" r="4"/>
</g>
<g fill="#000000">
	<circle cx="321" cy="47" r="4"/>
</g>
<g fill="#000000">
	<circle cx="280" cy="105" r="4"/>
</g>

</g>

</svg>
