<?xml version="1.0" encoding="utf-8"?>
<!-- Created with Hypercube (http://tumic.wz.cz/hypercube) -->

<svg width="400" height="300" viewBox="0 0 400 300" xmlns="http://www.w3.org/2000/svg" baseProfile="tiny">

<g font-family="Helvetica" font-weight="normal">

<g>
	<polygon points="180,88 187,93 179,97" fill="#aaff00"/>
	<line x1="200" y1="136" x2="183" y2="94" stroke="#aaff00" stroke-width="2"/>
</g>
<g>
	<polygon points="292,136 284,140 284,131" fill="#aaff00"/>
	<line x1="200" y1="136" x2="285" y2="136" stroke="#aaff00" stroke-width="2"/>
</g>
<g>
	<polygon points="208,234 203,227 212,226" fill="#aaff00"/>
	<line x1="200" y1="136" x2="207" y2="227" stroke="#aaff00" stroke-width="2"/>
</g>
<g>
	<polygon points="105,77 114,77 110,85" fill="#aaff00"/>
	<line x1="200" y1="136" x2="111" y2="81" stroke="#aaff00" stroke-width="2"/>
</g>
<g>
	<polygon points="242,64 242,73 234,69" fill="#aaff00"/>
	<line x1="200" y1="136" x2="238" y2="71" stroke="#aaff00" stroke-width="2"/>
</g>
<g>
	<polygon points="140,142 147,137 148,146" fill="#aaff00"/>
	<line x1="200" y1="136" x2="147" y2="141" stroke="#aaff00" stroke-width="2"/>
</g>
<g>
	<polygon points="238,169 229,167 235,160" fill="#aaff00"/>
	<line x1="200" y1="136" x2="233" y2="164" stroke="#aaff00" stroke-width="2"/>
</g>
<g>
	<polygon points="172,181 172,172 180,176" fill="#aaff00"/>
	<line x1="200" y1="136" x2="176" y2="175" stroke="#aaff00" stroke-width="2"/>
</g>
<g>
	<polygon points="350,104 345,112 341,104" fill="#aaff00"/>
	<line x1="297" y1="136" x2="343" y2="107" stroke="#aaff00" stroke-width="2"/>
</g>
<g>
	<polygon points="343,170 334,169 339,162" fill="#aaff00"/>
	<line x1="297" y1="136" x2="337" y2="166" stroke="#aaff00" stroke-width="2"/>
</g>
<g>
	<polygon points="155,269 160,261 164,269" fill="#aaff00"/>
	<line x1="209" y1="239" x2="162" y2="266" stroke="#aaff00" stroke-width="2"/>
</g>
<g>
	<polygon points="211,290 206,282 215,282" fill="#aaff00"/>
	<line x1="209" y1="239" x2="211" y2="283" stroke="#aaff00" stroke-width="2"/>
</g>
<g>
	<polygon points="263,258 254,260 257,251" fill="#aaff00"/>
	<line x1="209" y1="239" x2="256" y2="256" stroke="#aaff00" stroke-width="2"/>
</g>
<g>
	<polygon points="49,40 58,41 53,48" fill="#aaff00"/>
	<line x1="102" y1="75" x2="55" y2="44" stroke="#aaff00" stroke-width="2"/>
</g>
<g>
	<polygon points="50,108 54,100 59,108" fill="#aaff00"/>
	<line x1="102" y1="75" x2="56" y2="104" stroke="#aaff00" stroke-width="2"/>
</g>
<g>
	<polygon points="110,19 113,27 104,26" fill="#aaff00"/>
	<line x1="102" y1="75" x2="109" y2="26" stroke="#aaff00" stroke-width="2"/>
</g>
<g>
	<polygon points="226,10 233,16 224,19" fill="#aaff00"/>
	<line x1="245" y1="61" x2="228" y2="16" stroke="#aaff00" stroke-width="2"/>
</g>
<g>
	<polygon points="291,24 288,33 282,26" fill="#aaff00"/>
	<line x1="245" y1="61" x2="285" y2="29" stroke="#aaff00" stroke-width="2"/>
</g>

<g fill="#000000">
	<circle cx="199" cy="135" r="4"/>
</g>
<g fill="#000000">
	<circle cx="178" cy="83" r="4"/>
</g>
<g fill="#000000">
	<circle cx="296" cy="135" r="4"/>
</g>
<g fill="#000000">
	<circle cx="208" cy="238" r="4"/>
</g>
<g fill="#000000">
	<circle cx="101" cy="74" r="4"/>
</g>
<g fill="#000000">
	<circle cx="244" cy="60" r="4"/>
</g>
<g fill="#000000">
	<circle cx="135" cy="142" r="4"/>
</g>
<g fill="#000000">
	<circle cx="241" cy="171" r="4"/>
</g>
<g fill="#000000">
	<circle cx="169" cy="184" r="4"/>
</g>
<g fill="#000000">
	<circle cx="353" cy="101" r="4"/>
</g>
<g fill="#000000">
	<circle cx="346" cy="172" r="4"/>
</g>
<g fill="#000000">
	<circle cx="151" cy="271" r="4"/>
</g>
<g fill="#000000">
	<circle cx="211" cy="294" r="4"/>
</g>
<g fill="#000000">
	<circle cx="267" cy="259" r="4"/>
</g>
<g fill="#000000">
	<circle cx="45" cy="37" r="4"/>
</g>
<g fill="#000000">
	<circle cx="46" cy="110" r="4"/>
</g>
<g fill="#000000">
	<circle cx="110" cy="14" r="4"/>
</g>
<g fill="#000000">
	<circle cx="224" cy="5" r="4"/>
</g>
<g fill="#000000">
	<circle cx="294" cy="21" r="4"/>
</g>

</g>

</svg>
