<?xml version="1.0" encoding="utf-8"?>
<!-- Created with Hypercube (http://tumic.wz.cz/hypercube) -->

<svg width="400" height="300" viewBox="0 0 400 300" xmlns="http://www.w3.org/2000/svg" baseProfile="tiny">

<g font-family="Helvetica" font-weight="normal">

<g>
	<polygon points="196,100 204,97 203,106" fill="#aaff00"/>
	<line x1="283" y1="114" x2="203" y2="101" stroke="#aaff00" stroke-width="2"/>
</g>
<g>
	<polygon points="327,62 333,69 324,70" fill="#aaff00"/>
	<line x1="336" y1="124" x2="328" y2="69" stroke="#aaff00" stroke-width="2"/>
</g>
<g>
	<polygon points="316,184 314,175 323,178" fill="#aaff00"/>
	<line x1="336" y1="124" x2="318" y2="177" stroke="#aaff00" stroke-width="2"/>
</g>
<g>
	<polygon points="287,114 295,111 294,120" fill="#aaff00"/>
	<line x1="336" y1="124" x2="294" y2="116" stroke="#aaff00" stroke-width="2"/>
</g>
<g>
	<polygon points="262,45 270,42 269,51" fill="#aaff00"/>
	<line x1="327" y1="58" x2="269" y2="47" stroke="#aaff00" stroke-width="2"/>
</g>
<g>
	<polygon points="213,34 222,31 219,40" fill="#aaff00"/>
	<line x1="258" y1="45" x2="220" y2="35" stroke="#aaff00" stroke-width="2"/>
</g>
<g>
	<polygon points="237,80 237,71 245,75" fill="#aaff00"/>
	<line x1="258" y1="45" x2="240" y2="73" stroke="#aaff00" stroke-width="2"/>
</g>
<g>
	<polygon points="160,20 169,17 166,26" fill="#aaff00"/>
	<line x1="258" y1="45" x2="167" y2="21" stroke="#aaff00" stroke-width="2"/>
</g>
<g>
	<polygon points="193,95 190,86 199,89" fill="#aaff00"/>
	<line x1="209" y1="33" x2="194" y2="88" stroke="#aaff00" stroke-width="2"/>
</g>
<g>
	<polygon points="196,98 201,91 205,99" fill="#aaff00"/>
	<line x1="235" y1="84" x2="202" y2="95" stroke="#aaff00" stroke-width="2"/>
</g>
<g>
	<polygon points="92,54 97,47 101,54" fill="#aaff00"/>
	<line x1="156" y1="19" x2="99" y2="51" stroke="#aaff00" stroke-width="2"/>
</g>
<g>
	<polygon points="129,80 120,80 124,72" fill="#aaff00"/>
	<line x1="89" y1="57" x2="122" y2="77" stroke="#aaff00" stroke-width="2"/>
</g>
<g>
	<polygon points="187,98 178,100 181,92" fill="#aaff00"/>
	<line x1="133" y1="83" x2="180" y2="96" stroke="#aaff00" stroke-width="2"/>
</g>
<g>
	<polygon points="87,61 89,70 80,67" fill="#aaff00"/>
	<line x1="66" y1="122" x2="85" y2="68" stroke="#aaff00" stroke-width="2"/>
</g>
<g>
	<polygon points="148,225 140,223 146,217" fill="#aaff00"/>
	<line x1="103" y1="182" x2="143" y2="220" stroke="#aaff00" stroke-width="2"/>
</g>
<g>
	<polygon points="150,153 145,161 141,153" fill="#aaff00"/>
	<line x1="103" y1="182" x2="144" y2="157" stroke="#aaff00" stroke-width="2"/>
</g>
<g>
	<polygon points="68,125 76,130 68,134" fill="#aaff00"/>
	<line x1="103" y1="182" x2="72" y2="131" stroke="#aaff00" stroke-width="2"/>
</g>
<g>
	<polygon points="222,229 214,233 214,224" fill="#aaff00"/>
	<line x1="152" y1="229" x2="215" y2="229" stroke="#aaff00" stroke-width="2"/>
</g>
<g>
	<polygon points="229,233 236,237 228,241" fill="#aaff00"/>
	<line x1="254" y1="282" x2="232" y2="239" stroke="#aaff00" stroke-width="2"/>
</g>
<g>
	<polygon points="254,165 261,170 253,174" fill="#aaff00"/>
	<line x1="281" y1="236" x2="257" y2="171" stroke="#aaff00" stroke-width="2"/>
</g>
<g>
	<polygon points="256,278 256,269 264,273" fill="#aaff00"/>
	<line x1="281" y1="236" x2="259" y2="271" stroke="#aaff00" stroke-width="2"/>
</g>
<g>
	<polygon points="257,49 261,57 252,57" fill="#aaff00"/>
	<line x1="253" y1="161" x2="257" y2="56" stroke="#aaff00" stroke-width="2"/>
</g>
<g>
	<polygon points="231,227 236,219 240,228" fill="#aaff00"/>
	<line x1="315" y1="189" x2="237" y2="224" stroke="#aaff00" stroke-width="2"/>
</g>
<g>
	<polygon points="189,103 188,112 181,107" fill="#aaff00"/>
	<line x1="154" y1="151" x2="185" y2="109" stroke="#aaff00" stroke-width="2"/>
</g>

<g fill="#000000">
	<circle cx="191" cy="99" r="4"/>
</g>
<g fill="#000000">
	<circle cx="280" cy="235" r="4"/>
</g>
<g fill="#000000">
	<circle cx="252" cy="160" r="4"/>
</g>
<g fill="#000000">
	<circle cx="253" cy="281" r="4"/>
</g>
<g fill="#000000">
	<circle cx="335" cy="123" r="4"/>
</g>
<g fill="#000000">
	<circle cx="326" cy="57" r="4"/>
</g>
<g fill="#000000">
	<circle cx="314" cy="188" r="4"/>
</g>
<g fill="#000000">
	<circle cx="282" cy="113" r="4"/>
</g>
<g fill="#000000">
	<circle cx="257" cy="44" r="4"/>
</g>
<g fill="#000000">
	<circle cx="208" cy="32" r="4"/>
</g>
<g fill="#000000">
	<circle cx="234" cy="83" r="4"/>
</g>
<g fill="#000000">
	<circle cx="155" cy="18" r="4"/>
</g>
<g fill="#000000">
	<circle cx="88" cy="56" r="4"/>
</g>
<g fill="#000000">
	<circle cx="132" cy="82" r="4"/>
</g>
<g fill="#000000">
	<circle cx="226" cy="228" r="4"/>
</g>
<g fill="#000000">
	<circle cx="102" cy="181" r="4"/>
</g>
<g fill="#000000">
	<circle cx="151" cy="228" r="4"/>
</g>
<g fill="#000000">
	<circle cx="153" cy="150" r="4"/>
</g>
<g fill="#000000">
	<circle cx="65" cy="121" r="4"/>
</g>

</g>

</svg>
