<?xml version="1.0" encoding="utf-8"?>
<!-- Created with Hypercube (http://tumic.wz.cz/hypercube) -->

<svg width="400" height="300" viewBox="0 0 400 300" xmlns="http://www.w3.org/2000/svg" baseProfile="tiny">

<g font-family="Helvetica" font-weight="normal">

<g>
	<polygon points="148,25 139,25 143,17" fill="#aaff00"/>
	<line x1="113" y1="5" x2="141" y2="22" stroke="#aaff00" stroke-width="2"/>
</g>
<g>
	<polygon points="187,60 178,58 185,52" fill="#aaff00"/>
	<line x1="152" y1="28" x2="182" y2="56" stroke="#aaff00" stroke-width="2"/>
</g>
<g>
	<polygon points="249,64 241,69 241,60" fill="#aaff00"/>
	<line x1="191" y1="64" x2="242" y2="64" stroke="#aaff00" stroke-width="2"/>
</g>
<g>
	<polygon points="314,78 306,81 308,72" fill="#aaff00"/>
	<line x1="254" y1="65" x2="307" y2="77" stroke="#aaff00" stroke-width="2"/>
</g>
<g>
	<polygon points="370,83 362,87 363,78" fill="#aaff00"/>
	<line x1="319" y1="80" x2="363" y2="83" stroke="#aaff00" stroke-width="2"/>
</g>
<g>
	<polygon points="347,127 339,122 347,118" fill="#aaff00"/>
	<line x1="319" y1="80" x2="343" y2="121" stroke="#aaff00" stroke-width="2"/>
</g>
<g>
	<polygon points="352,127 351,118 359,122" fill="#aaff00"/>
	<line x1="375" y1="84" x2="355" y2="120" stroke="#aaff00" stroke-width="2"/>
</g>
<g>
	<polygon points="337,185 334,176 343,179" fill="#aaff00"/>
	<line x1="350" y1="131" x2="338" y2="178" stroke="#aaff00" stroke-width="2"/>
</g>
<g>
	<polygon points="308,238 308,229 316,233" fill="#aaff00"/>
	<line x1="336" y1="190" x2="311" y2="231" stroke="#aaff00" stroke-width="2"/>
</g>
<g>
	<polygon points="315,290 309,283 318,282" fill="#aaff00"/>
	<line x1="306" y1="242" x2="313" y2="283" stroke="#aaff00" stroke-width="2"/>
</g>
<g>
	<polygon points="264,279 267,271 273,278" fill="#aaff00"/>
	<line x1="306" y1="242" x2="269" y2="275" stroke="#aaff00" stroke-width="2"/>
</g>
<g>
	<polygon points="265,283 273,281 272,290" fill="#aaff00"/>
	<line x1="316" y1="295" x2="272" y2="285" stroke="#aaff00" stroke-width="2"/>
</g>
<g>
	<polygon points="206,294 213,288 214,296" fill="#aaff00"/>
	<line x1="261" y1="283" x2="213" y2="292" stroke="#aaff00" stroke-width="2"/>
</g>
<g>
	<polygon points="151,295 159,290 159,299" fill="#aaff00"/>
	<line x1="202" y1="295" x2="158" y2="295" stroke="#aaff00" stroke-width="2"/>
</g>
<g>
	<polygon points="113,9 119,16 110,17" fill="#aaff00"/>
	<line x1="123" y1="77" x2="114" y2="16" stroke="#aaff00" stroke-width="2"/>
</g>
<g>
	<polygon points="186,64 179,70 178,61" fill="#aaff00"/>
	<line x1="123" y1="77" x2="179" y2="66" stroke="#aaff00" stroke-width="2"/>
</g>
<g>
	<polygon points="101,136 99,127 108,130" fill="#aaff00"/>
	<line x1="123" y1="77" x2="103" y2="129" stroke="#aaff00" stroke-width="2"/>
</g>
<g>
	<polygon points="66,181 68,172 75,178" fill="#aaff00"/>
	<line x1="100" y1="141" x2="71" y2="175" stroke="#aaff00" stroke-width="2"/>
</g>
<g>
	<polygon points="147,29 141,35 138,26" fill="#aaff00"/>
	<line x1="73" y1="48" x2="140" y2="30" stroke="#aaff00" stroke-width="2"/>
</g>
<g>
	<polygon points="30,8 39,10 32,16" fill="#aaff00"/>
	<line x1="73" y1="48" x2="35" y2="12" stroke="#aaff00" stroke-width="2"/>
</g>
<g>
	<polygon points="119,74 110,74 114,66" fill="#aaff00"/>
	<line x1="73" y1="48" x2="112" y2="71" stroke="#aaff00" stroke-width="2"/>
</g>
<g>
	<polygon points="69,50 65,58 60,51" fill="#aaff00"/>
	<line x1="25" y1="82" x2="63" y2="54" stroke="#aaff00" stroke-width="2"/>
</g>

<g fill="#000000">
	<circle cx="112" cy="4" r="4"/>
</g>
<g fill="#000000">
	<circle cx="190" cy="63" r="4"/>
</g>
<g fill="#000000">
	<circle cx="99" cy="140" r="4"/>
</g>
<g fill="#000000">
	<circle cx="151" cy="27" r="4"/>
</g>
<g fill="#000000">
	<circle cx="253" cy="64" r="4"/>
</g>
<g fill="#000000">
	<circle cx="318" cy="79" r="4"/>
</g>
<g fill="#000000">
	<circle cx="305" cy="241" r="4"/>
</g>
<g fill="#000000">
	<circle cx="374" cy="83" r="4"/>
</g>
<g fill="#000000">
	<circle cx="315" cy="294" r="4"/>
</g>
<g fill="#000000">
	<circle cx="349" cy="130" r="4"/>
</g>
<g fill="#000000">
	<circle cx="260" cy="282" r="4"/>
</g>
<g fill="#000000">
	<circle cx="335" cy="189" r="4"/>
</g>
<g fill="#000000">
	<circle cx="201" cy="294" r="4"/>
</g>
<g fill="#000000">
	<circle cx="63" cy="184" r="4"/>
</g>
<g fill="#000000">
	<circle cx="146" cy="294" r="4"/>
</g>
<g fill="#000000">
	<circle cx="24" cy="81" r="4"/>
</g>
<g fill="#000000">
	<circle cx="72" cy="47" r="4"/>
</g>
<g fill="#000000">
	<circle cx="26" cy="4" r="4"/>
</g>
<g fill="#000000">
	<circle cx="122" cy="76" r="4"/>
</g>

</g>

</svg>
