<?xml version="1.0" encoding="utf-8"?>
<!-- Created with Hypercube (http://tumic.wz.cz/hypercube) -->

<svg width="400" height="300" viewBox="0 0 400 300" xmlns="http://www.w3.org/2000/svg" baseProfile="tiny">

<g font-family="Helvetica" font-weight="normal">

<g>
	<polygon points="206,55 208,64 200,61" fill="#aaff00"/>
	<line x1="195" y1="95" x2="204" y2="62" stroke="#aaff00" stroke-width="2"/>
</g>
<g>
	<polygon points="154,76 163,75 159,84" fill="#aaff00"/>
	<line x1="195" y1="95" x2="160" y2="79" stroke="#aaff00" stroke-width="2"/>
</g>
<g>
	<polygon points="198,149 193,142 202,141" fill="#aaff00"/>
	<line x1="195" y1="95" x2="198" y2="142" stroke="#aaff00" stroke-width="2"/>
</g>
<g>
	<polygon points="154,73 159,66 163,74" fill="#aaff00"/>
	<line x1="208" y1="51" x2="160" y2="70" stroke="#aaff00" stroke-width="2"/>
</g>
<g>
	<polygon points="199,149 195,141 204,142" fill="#aaff00"/>
	<line x1="208" y1="51" x2="200" y2="142" stroke="#aaff00" stroke-width="2"/>
</g>
<g>
	<polygon points="239,70 230,70 234,62" fill="#aaff00"/>
	<line x1="208" y1="51" x2="233" y2="66" stroke="#aaff00" stroke-width="2"/>
</g>
<g>
	<polygon points="273,91 264,91 268,83" fill="#aaff00"/>
	<line x1="208" y1="51" x2="267" y2="87" stroke="#aaff00" stroke-width="2"/>
</g>
<g>
	<polygon points="196,150 188,145 196,141" fill="#aaff00"/>
	<line x1="150" y1="75" x2="192" y2="144" stroke="#aaff00" stroke-width="2"/>
</g>
<g>
	<polygon points="201,150 200,141 208,145" fill="#aaff00"/>
	<line x1="243" y1="73" x2="204" y2="143" stroke="#aaff00" stroke-width="2"/>
</g>
<g>
	<polygon points="273,91 264,91 268,83" fill="#aaff00"/>
	<line x1="243" y1="73" x2="267" y2="87" stroke="#aaff00" stroke-width="2"/>
</g>
<g>
	<polygon points="202,151 206,142 211,150" fill="#aaff00"/>
	<line x1="277" y1="94" x2="208" y2="146" stroke="#aaff00" stroke-width="2"/>
</g>
<g>
	<polygon points="252,129 253,120 260,125" fill="#aaff00"/>
	<line x1="277" y1="94" x2="256" y2="123" stroke="#aaff00" stroke-width="2"/>
</g>
<g>
	<polygon points="290,141 284,135 292,132" fill="#aaff00"/>
	<line x1="277" y1="94" x2="288" y2="134" stroke="#aaff00" stroke-width="2"/>
</g>
<g>
	<polygon points="203,152 208,145 212,153" fill="#aaff00"/>
	<line x1="250" y1="133" x2="209" y2="149" stroke="#aaff00" stroke-width="2"/>
</g>
<g>
	<polygon points="287,144 278,146 281,138" fill="#aaff00"/>
	<line x1="250" y1="133" x2="280" y2="142" stroke="#aaff00" stroke-width="2"/>
</g>
<g>
	<polygon points="203,153 210,148 211,157" fill="#aaff00"/>
	<line x1="292" y1="146" x2="210" y2="152" stroke="#aaff00" stroke-width="2"/>
</g>
<g>
	<polygon points="280,178 278,169 287,172" fill="#aaff00"/>
	<line x1="292" y1="146" x2="282" y2="171" stroke="#aaff00" stroke-width="2"/>
</g>
<g>
	<polygon points="268,216 266,207 275,210" fill="#aaff00"/>
	<line x1="292" y1="146" x2="270" y2="209" stroke="#aaff00" stroke-width="2"/>
</g>
<g>
	<polygon points="203,155 212,153 209,162" fill="#aaff00"/>
	<line x1="279" y1="183" x2="209" y2="157" stroke="#aaff00" stroke-width="2"/>
</g>
<g>
	<polygon points="268,216 266,207 274,210" fill="#aaff00"/>
	<line x1="279" y1="183" x2="270" y2="209" stroke="#aaff00" stroke-width="2"/>
</g>
<g>
	<polygon points="202,157 210,159 204,165" fill="#aaff00"/>
	<line x1="267" y1="221" x2="207" y2="162" stroke="#aaff00" stroke-width="2"/>
</g>
<g>
	<polygon points="226,203 235,202 231,210" fill="#aaff00"/>
	<line x1="267" y1="221" x2="232" y2="206" stroke="#aaff00" stroke-width="2"/>
</g>
<g>
	<polygon points="223,248 227,240 232,248" fill="#aaff00"/>
	<line x1="267" y1="221" x2="229" y2="244" stroke="#aaff00" stroke-width="2"/>
</g>
<g>
	<polygon points="200,158 208,163 200,167" fill="#aaff00"/>
	<line x1="222" y1="202" x2="204" y2="164" stroke="#aaff00" stroke-width="2"/>
</g>
<g>
	<polygon points="220,246 216,238 224,238" fill="#aaff00"/>
	<line x1="222" y1="202" x2="220" y2="239" stroke="#aaff00" stroke-width="2"/>
</g>
<g>
	<polygon points="199,158 205,165 197,166" fill="#aaff00"/>
	<line x1="220" y1="251" x2="201" y2="165" stroke="#aaff00" stroke-width="2"/>
</g>
<g>
	<polygon points="185,243 193,240 191,249" fill="#aaff00"/>
	<line x1="220" y1="251" x2="192" y2="244" stroke="#aaff00" stroke-width="2"/>
</g>
<g>
	<polygon points="145,233 153,231 151,240" fill="#aaff00"/>
	<line x1="220" y1="251" x2="152" y2="235" stroke="#aaff00" stroke-width="2"/>
</g>
<g>
	<polygon points="198,158 200,166 192,165" fill="#aaff00"/>
	<line x1="181" y1="242" x2="196" y2="165" stroke="#aaff00" stroke-width="2"/>
</g>
<g>
	<polygon points="145,233 153,231 152,240" fill="#aaff00"/>
	<line x1="181" y1="242" x2="152" y2="235" stroke="#aaff00" stroke-width="2"/>
</g>
<g>
	<polygon points="196,157 195,166 188,161" fill="#aaff00"/>
	<line x1="141" y1="233" x2="192" y2="163" stroke="#aaff00" stroke-width="2"/>
</g>
<g>
	<polygon points="154,192 156,201 147,198" fill="#aaff00"/>
	<line x1="141" y1="233" x2="152" y2="199" stroke="#aaff00" stroke-width="2"/>
</g>
<g>
	<polygon points="110,195 119,198 112,204" fill="#aaff00"/>
	<line x1="141" y1="233" x2="115" y2="201" stroke="#aaff00" stroke-width="2"/>
</g>
<g>
	<polygon points="195,156 192,165 186,158" fill="#aaff00"/>
	<line x1="156" y1="188" x2="189" y2="161" stroke="#aaff00" stroke-width="2"/>
</g>
<g>
	<polygon points="112,191 119,186 120,195" fill="#aaff00"/>
	<line x1="156" y1="188" x2="119" y2="191" stroke="#aaff00" stroke-width="2"/>
</g>
<g>
	<polygon points="194,155 189,162 185,154" fill="#aaff00"/>
	<line x1="108" y1="192" x2="188" y2="158" stroke="#aaff00" stroke-width="2"/>
</g>
<g>
	<polygon points="108,155 113,163 104,163" fill="#aaff00"/>
	<line x1="108" y1="192" x2="108" y2="162" stroke="#aaff00" stroke-width="2"/>
</g>
<g>
	<polygon points="108,115 113,123 104,123" fill="#aaff00"/>
	<line x1="108" y1="192" x2="108" y2="122" stroke="#aaff00" stroke-width="2"/>
</g>
<g>
	<polygon points="194,153 186,158 186,149" fill="#aaff00"/>
	<line x1="109" y1="151" x2="187" y2="153" stroke="#aaff00" stroke-width="2"/>
</g>
<g>
	<polygon points="109,115 113,123 104,123" fill="#aaff00"/>
	<line x1="109" y1="151" x2="109" y2="122" stroke="#aaff00" stroke-width="2"/>
</g>
<g>
	<polygon points="146,77 143,86 137,79" fill="#aaff00"/>
	<line x1="109" y1="111" x2="141" y2="82" stroke="#aaff00" stroke-width="2"/>
</g>
<g>
	<polygon points="194,152 185,152 189,144" fill="#aaff00"/>
	<line x1="109" y1="111" x2="188" y2="148" stroke="#aaff00" stroke-width="2"/>
</g>
<g>
	<polygon points="150,120 141,123 144,114" fill="#aaff00"/>
	<line x1="109" y1="111" x2="143" y2="119" stroke="#aaff00" stroke-width="2"/>
</g>
<g>
	<polygon points="150,79 155,86 146,87" fill="#aaff00"/>
	<line x1="155" y1="122" x2="151" y2="86" stroke="#aaff00" stroke-width="2"/>
</g>
<g>
	<polygon points="195,151 186,150 191,143" fill="#aaff00"/>
	<line x1="155" y1="122" x2="189" y2="147" stroke="#aaff00" stroke-width="2"/>
</g>

<g fill="#000000">
	<circle cx="194" cy="94" r="4"/>
</g>
<g fill="#000000">
	<circle cx="207" cy="50" r="4"/>
</g>
<g fill="#000000">
	<circle cx="149" cy="74" r="4"/>
</g>
<g fill="#000000">
	<circle cx="198" cy="153" r="4"/>
</g>
<g fill="#000000">
	<circle cx="242" cy="72" r="4"/>
</g>
<g fill="#000000">
	<circle cx="276" cy="93" r="4"/>
</g>
<g fill="#000000">
	<circle cx="249" cy="132" r="4"/>
</g>
<g fill="#000000">
	<circle cx="291" cy="145" r="4"/>
</g>
<g fill="#000000">
	<circle cx="278" cy="182" r="4"/>
</g>
<g fill="#000000">
	<circle cx="266" cy="220" r="4"/>
</g>
<g fill="#000000">
	<circle cx="221" cy="201" r="4"/>
</g>
<g fill="#000000">
	<circle cx="219" cy="250" r="4"/>
</g>
<g fill="#000000">
	<circle cx="180" cy="241" r="4"/>
</g>
<g fill="#000000">
	<circle cx="140" cy="232" r="4"/>
</g>
<g fill="#000000">
	<circle cx="155" cy="187" r="4"/>
</g>
<g fill="#000000">
	<circle cx="107" cy="191" r="4"/>
</g>
<g fill="#000000">
	<circle cx="108" cy="150" r="4"/>
</g>
<g fill="#000000">
	<circle cx="108" cy="110" r="4"/>
</g>
<g fill="#000000">
	<circle cx="154" cy="121" r="4"/>
</g>

</g>

</svg>
