<?xml version="1.0" encoding="utf-8"?>
<!-- Created with Hypercube (http://tumic.wz.cz/hypercube) -->

<svg width="400" height="300" viewBox="0 0 400 300" xmlns="http://www.w3.org/2000/svg" baseProfile="tiny">

<g font-family="Helvetica" font-weight="normal">

<g>
	<polygon points="149,267 156,261 157,270" fill="#aaff00"/>
	<line x1="197" y1="260" x2="156" y2="266" stroke="#aaff00" stroke-width="2"/>
</g>
<g>
	<polygon points="228,153 230,162 222,159" fill="#aaff00"/>
	<line x1="197" y1="260" x2="226" y2="160" stroke="#aaff00" stroke-width="2"/>
</g>
<g>
	<polygon points="159,237 168,237 164,245" fill="#aaff00"/>
	<line x1="197" y1="260" x2="165" y2="241" stroke="#aaff00" stroke-width="2"/>
</g>
<g>
	<polygon points="198,223 202,231 193,231" fill="#aaff00"/>
	<line x1="197" y1="260" x2="198" y2="230" stroke="#aaff00" stroke-width="2"/>
</g>
<g>
	<polygon points="154,239 156,248 147,245" fill="#aaff00"/>
	<line x1="145" y1="268" x2="152" y2="246" stroke="#aaff00" stroke-width="2"/>
</g>
<g>
	<polygon points="290,245 283,251 282,242" fill="#aaff00"/>
	<line x1="145" y1="268" x2="283" y2="246" stroke="#aaff00" stroke-width="2"/>
</g>
<g>
	<polygon points="178,162 180,171 171,168" fill="#aaff00"/>
	<line x1="145" y1="268" x2="176" y2="169" stroke="#aaff00" stroke-width="2"/>
</g>
<g>
	<polygon points="107,105 113,111 104,113" fill="#aaff00"/>
	<line x1="145" y1="268" x2="108" y2="112" stroke="#aaff00" stroke-width="2"/>
</g>
<g>
	<polygon points="194,220 189,227 185,219" fill="#aaff00"/>
	<line x1="156" y1="235" x2="188" y2="223" stroke="#aaff00" stroke-width="2"/>
</g>
<g>
	<polygon points="157,197 161,205 152,205" fill="#aaff00"/>
	<line x1="156" y1="235" x2="157" y2="204" stroke="#aaff00" stroke-width="2"/>
</g>
<g>
	<polygon points="126,175 135,175 131,183" fill="#aaff00"/>
	<line x1="199" y1="219" x2="133" y2="179" stroke="#aaff00" stroke-width="2"/>
</g>
<g>
	<polygon points="248,239 239,240 243,232" fill="#aaff00"/>
	<line x1="199" y1="219" x2="242" y2="236" stroke="#aaff00" stroke-width="2"/>
</g>
<g>
	<polygon points="107,105 113,111 104,113" fill="#aaff00"/>
	<line x1="123" y1="173" x2="108" y2="112" stroke="#aaff00" stroke-width="2"/>
</g>
<g>
	<polygon points="176,57 171,65 167,57" fill="#aaff00"/>
	<line x1="106" y1="101" x2="170" y2="61" stroke="#aaff00" stroke-width="2"/>
</g>
<g>
	<polygon points="176,57 172,65 167,58" fill="#aaff00"/>
	<line x1="147" y1="78" x2="170" y2="61" stroke="#aaff00" stroke-width="2"/>
</g>
<g>
	<polygon points="126,169 128,161 134,167" fill="#aaff00"/>
	<line x1="176" y1="119" x2="131" y2="164" stroke="#aaff00" stroke-width="2"/>
</g>
<g>
	<polygon points="149,81 157,85 150,90" fill="#aaff00"/>
	<line x1="176" y1="119" x2="153" y2="87" stroke="#aaff00" stroke-width="2"/>
</g>
<g>
	<polygon points="282,194 273,192 279,185" fill="#aaff00"/>
	<line x1="230" y1="149" x2="277" y2="189" stroke="#aaff00" stroke-width="2"/>
</g>
<g>
	<polygon points="179,121 188,121 184,128" fill="#aaff00"/>
	<line x1="230" y1="149" x2="186" y2="124" stroke="#aaff00" stroke-width="2"/>
</g>
<g>
	<polygon points="217,94 224,101 215,102" fill="#aaff00"/>
	<line x1="230" y1="149" x2="219" y2="101" stroke="#aaff00" stroke-width="2"/>
</g>
<g>
	<polygon points="255,237 256,228 263,233" fill="#aaff00"/>
	<line x1="286" y1="197" x2="260" y2="231" stroke="#aaff00" stroke-width="2"/>
</g>
<g>
	<polygon points="249,190 257,187 256,196" fill="#aaff00"/>
	<line x1="286" y1="197" x2="256" y2="191" stroke="#aaff00" stroke-width="2"/>
</g>
<g>
	<polygon points="245,194 251,201 242,202" fill="#aaff00"/>
	<line x1="253" y1="241" x2="246" y2="201" stroke="#aaff00" stroke-width="2"/>
</g>
<g>
	<polygon points="126,175 135,175 131,183" fill="#aaff00"/>
	<line x1="158" y1="193" x2="133" y2="178" stroke="#aaff00" stroke-width="2"/>
</g>
<g>
	<polygon points="131,137 139,142 131,146" fill="#aaff00"/>
	<line x1="158" y1="193" x2="134" y2="143" stroke="#aaff00" stroke-width="2"/>
</g>
<g>
	<polygon points="240,190 232,194 232,185" fill="#aaff00"/>
	<line x1="158" y1="193" x2="233" y2="190" stroke="#aaff00" stroke-width="2"/>
</g>
<g>
	<polygon points="108,104 116,108 109,113" fill="#aaff00"/>
	<line x1="130" y1="133" x2="113" y2="110" stroke="#aaff00" stroke-width="2"/>
</g>
<g>
	<polygon points="145,82 147,91 139,88" fill="#aaff00"/>
	<line x1="130" y1="133" x2="143" y2="89" stroke="#aaff00" stroke-width="2"/>
</g>
<g>
	<polygon points="176,123 181,130 172,131" fill="#aaff00"/>
	<line x1="180" y1="158" x2="177" y2="130" stroke="#aaff00" stroke-width="2"/>
</g>
<g>
	<polygon points="214,93 215,102 207,98" fill="#aaff00"/>
	<line x1="180" y1="158" x2="211" y2="100" stroke="#aaff00" stroke-width="2"/>
</g>
<g>
	<polygon points="134,135 143,134 138,142" fill="#aaff00"/>
	<line x1="180" y1="158" x2="140" y2="138" stroke="#aaff00" stroke-width="2"/>
</g>
<g>
	<polygon points="151,78 159,75 158,84" fill="#aaff00"/>
	<line x1="217" y1="90" x2="158" y2="79" stroke="#aaff00" stroke-width="2"/>
</g>
<g>
	<polygon points="213,37 218,44 209,45" fill="#aaff00"/>
	<line x1="217" y1="90" x2="213" y2="44" stroke="#aaff00" stroke-width="2"/>
</g>
<g>
	<polygon points="109,98 113,90 118,98" fill="#aaff00"/>
	<line x1="213" y1="33" x2="115" y2="94" stroke="#aaff00" stroke-width="2"/>
</g>
<g>
	<polygon points="183,52 187,44 192,51" fill="#aaff00"/>
	<line x1="213" y1="33" x2="189" y2="48" stroke="#aaff00" stroke-width="2"/>
</g>
<g>
	<polygon points="246,185 244,176 253,179" fill="#aaff00"/>
	<line x1="271" y1="116" x2="248" y2="178" stroke="#aaff00" stroke-width="2"/>
</g>
<g>
	<polygon points="215,36 223,40 216,45" fill="#aaff00"/>
	<line x1="271" y1="116" x2="219" y2="42" stroke="#aaff00" stroke-width="2"/>
</g>
<g>
	<polygon points="183,57 192,58 187,65" fill="#aaff00"/>
	<line x1="271" y1="116" x2="189" y2="61" stroke="#aaff00" stroke-width="2"/>
</g>
<g>
	<polygon points="286,201 292,208 283,209" fill="#aaff00"/>
	<line x1="295" y1="245" x2="288" y2="208" stroke="#aaff00" stroke-width="2"/>
</g>
<g>
	<polygon points="257,241 265,237 264,246" fill="#aaff00"/>
	<line x1="295" y1="245" x2="264" y2="242" stroke="#aaff00" stroke-width="2"/>
</g>
<g>
	<polygon points="271,120 277,127 268,128" fill="#aaff00"/>
	<line x1="295" y1="245" x2="273" y2="127" stroke="#aaff00" stroke-width="2"/>
</g>

<g fill="#000000">
	<circle cx="196" cy="259" r="4"/>
</g>
<g fill="#000000">
	<circle cx="144" cy="267" r="4"/>
</g>
<g fill="#000000">
	<circle cx="229" cy="148" r="4"/>
</g>
<g fill="#000000">
	<circle cx="155" cy="234" r="4"/>
</g>
<g fill="#000000">
	<circle cx="198" cy="218" r="4"/>
</g>
<g fill="#000000">
	<circle cx="294" cy="244" r="4"/>
</g>
<g fill="#000000">
	<circle cx="179" cy="157" r="4"/>
</g>
<g fill="#000000">
	<circle cx="285" cy="196" r="4"/>
</g>
<g fill="#000000">
	<circle cx="175" cy="118" r="4"/>
</g>
<g fill="#000000">
	<circle cx="216" cy="89" r="4"/>
</g>
<g fill="#000000">
	<circle cx="157" cy="192" r="4"/>
</g>
<g fill="#000000">
	<circle cx="122" cy="172" r="4"/>
</g>
<g fill="#000000">
	<circle cx="252" cy="240" r="4"/>
</g>
<g fill="#000000">
	<circle cx="129" cy="132" r="4"/>
</g>
<g fill="#000000">
	<circle cx="244" cy="189" r="4"/>
</g>
<g fill="#000000">
	<circle cx="105" cy="100" r="4"/>
</g>
<g fill="#000000">
	<circle cx="146" cy="77" r="4"/>
</g>
<g fill="#000000">
	<circle cx="270" cy="115" r="4"/>
</g>
<g fill="#000000">
	<circle cx="212" cy="32" r="4"/>
</g>
<g fill="#000000">
	<circle cx="179" cy="54" r="4"/>
</g>

</g>

</svg>
