<?xml version="1.0" encoding="utf-8"?>
<!-- Created with Hypercube (http://tumic.wz.cz/hypercube) -->

<svg width="400" height="300" viewBox="0 0 400 300" xmlns="http://www.w3.org/2000/svg" baseProfile="tiny">

<g font-family="Helvetica" font-weight="normal">

<g>
	<polygon points="189,148 194,155 185,156" fill="#aaff00"/>
	<line x1="197" y1="261" x2="189" y2="155" stroke="#aaff00" stroke-width="2"/>
</g>
<g>
	<polygon points="227,189 228,198 220,194" fill="#aaff00"/>
	<line x1="197" y1="261" x2="224" y2="195" stroke="#aaff00" stroke-width="2"/>
</g>
<g>
	<polygon points="122,188 130,190 124,196" fill="#aaff00"/>
	<line x1="197" y1="261" x2="127" y2="193" stroke="#aaff00" stroke-width="2"/>
</g>
<g>
	<polygon points="138,144 145,148 137,153" fill="#aaff00"/>
	<line x1="197" y1="261" x2="141" y2="150" stroke="#aaff00" stroke-width="2"/>
</g>
<g>
	<polygon points="256,121 257,130 249,126" fill="#aaff00"/>
	<line x1="197" y1="261" x2="253" y2="127" stroke="#aaff00" stroke-width="2"/>
</g>
<g>
	<polygon points="174,215 181,219 173,224" fill="#aaff00"/>
	<line x1="197" y1="261" x2="177" y2="221" stroke="#aaff00" stroke-width="2"/>
</g>
<g>
	<polygon points="279,109 280,118 272,114" fill="#aaff00"/>
	<line x1="197" y1="261" x2="276" y2="116" stroke="#aaff00" stroke-width="2"/>
</g>
<g>
	<polygon points="151,278 156,271 160,279" fill="#aaff00"/>
	<line x1="197" y1="261" x2="157" y2="275" stroke="#aaff00" stroke-width="2"/>
</g>
<g>
	<polygon points="225,181 217,179 223,173" fill="#aaff00"/>
	<line x1="189" y1="144" x2="220" y2="176" stroke="#aaff00" stroke-width="2"/>
</g>
<g>
	<polygon points="140,140 148,136 147,145" fill="#aaff00"/>
	<line x1="189" y1="144" x2="147" y2="140" stroke="#aaff00" stroke-width="2"/>
</g>
<g>
	<polygon points="217,149 209,152 210,143" fill="#aaff00"/>
	<line x1="189" y1="144" x2="210" y2="147" stroke="#aaff00" stroke-width="2"/>
</g>
<g>
	<polygon points="228,128 223,135 219,127" fill="#aaff00"/>
	<line x1="189" y1="144" x2="222" y2="131" stroke="#aaff00" stroke-width="2"/>
</g>
<g>
	<polygon points="201,105 203,114 194,111" fill="#aaff00"/>
	<line x1="189" y1="144" x2="199" y2="112" stroke="#aaff00" stroke-width="2"/>
</g>
<g>
	<polygon points="193,165 187,159 196,157" fill="#aaff00"/>
	<line x1="189" y1="144" x2="192" y2="158" stroke="#aaff00" stroke-width="2"/>
</g>
<g>
	<polygon points="152,100 161,103 154,109" fill="#aaff00"/>
	<line x1="189" y1="144" x2="157" y2="105" stroke="#aaff00" stroke-width="2"/>
</g>
<g>
	<polygon points="173,206 170,197 179,200" fill="#aaff00"/>
	<line x1="189" y1="144" x2="174" y2="199" stroke="#aaff00" stroke-width="2"/>
</g>
<g>
	<polygon points="256,121 257,130 249,126" fill="#aaff00"/>
	<line x1="229" y1="185" x2="253" y2="127" stroke="#aaff00" stroke-width="2"/>
</g>
<g>
	<polygon points="232,131 236,139 227,138" fill="#aaff00"/>
	<line x1="229" y1="185" x2="232" y2="138" stroke="#aaff00" stroke-width="2"/>
</g>
<g>
	<polygon points="199,171 208,170 204,179" fill="#aaff00"/>
	<line x1="229" y1="185" x2="205" y2="174" stroke="#aaff00" stroke-width="2"/>
</g>
<g>
	<polygon points="206,195 211,187 215,196" fill="#aaff00"/>
	<line x1="229" y1="185" x2="212" y2="192" stroke="#aaff00" stroke-width="2"/>
</g>
<g>
	<polygon points="176,209 181,201 185,209" fill="#aaff00"/>
	<line x1="229" y1="185" x2="182" y2="206" stroke="#aaff00" stroke-width="2"/>
</g>
<g>
	<polygon points="164,156 173,155 169,164" fill="#aaff00"/>
	<line x1="229" y1="185" x2="170" y2="159" stroke="#aaff00" stroke-width="2"/>
</g>
<g>
	<polygon points="279,109 278,118 271,113" fill="#aaff00"/>
	<line x1="229" y1="185" x2="275" y2="115" stroke="#aaff00" stroke-width="2"/>
</g>
<g>
	<polygon points="140,139 147,133 148,142" fill="#aaff00"/>
	<line x1="258" y1="117" x2="147" y2="137" stroke="#aaff00" stroke-width="2"/>
</g>
<g>
	<polygon points="225,146 228,138 234,145" fill="#aaff00"/>
	<line x1="258" y1="117" x2="230" y2="142" stroke="#aaff00" stroke-width="2"/>
</g>
<g>
	<polygon points="237,125 242,118 246,126" fill="#aaff00"/>
	<line x1="258" y1="117" x2="243" y2="122" stroke="#aaff00" stroke-width="2"/>
</g>
<g>
	<polygon points="207,102 216,100 213,108" fill="#aaff00"/>
	<line x1="258" y1="117" x2="214" y2="104" stroke="#aaff00" stroke-width="2"/>
</g>
<g>
	<polygon points="164,153 169,146 173,154" fill="#aaff00"/>
	<line x1="258" y1="117" x2="170" y2="150" stroke="#aaff00" stroke-width="2"/>
</g>
<g>
	<polygon points="277,107 272,115 268,107" fill="#aaff00"/>
	<line x1="258" y1="117" x2="271" y2="110" stroke="#aaff00" stroke-width="2"/>
</g>
<g>
	<polygon points="165,38 167,47 159,44" fill="#aaff00"/>
	<line x1="136" y1="140" x2="163" y2="45" stroke="#aaff00" stroke-width="2"/>
</g>
<g>
	<polygon points="236,21 229,27 228,18" fill="#aaff00"/>
	<line x1="167" y1="34" x2="229" y2="23" stroke="#aaff00" stroke-width="2"/>
</g>
<g>
	<polygon points="231,61 228,52 237,55" fill="#aaff00"/>
	<line x1="241" y1="21" x2="232" y2="54" stroke="#aaff00" stroke-width="2"/>
</g>
<g>
	<polygon points="139,137 144,129 148,137" fill="#aaff00"/>
	<line x1="203" y1="101" x2="146" y2="134" stroke="#aaff00" stroke-width="2"/>
</g>
<g>
	<polygon points="227,69 226,78 218,72" fill="#aaff00"/>
	<line x1="203" y1="101" x2="222" y2="75" stroke="#aaff00" stroke-width="2"/>
</g>
<g>
	<polygon points="223,145 223,136 231,140" fill="#aaff00"/>
	<line x1="233" y1="127" x2="227" y2="139" stroke="#aaff00" stroke-width="2"/>
</g>
<g>
	<polygon points="206,103 215,105 209,112" fill="#aaff00"/>
	<line x1="233" y1="127" x2="211" y2="108" stroke="#aaff00" stroke-width="2"/>
</g>
<g>
	<polygon points="203,192 202,183 211,187" fill="#aaff00"/>
	<line x1="233" y1="127" x2="206" y2="186" stroke="#aaff00" stroke-width="2"/>
</g>
<g>
	<polygon points="164,153 169,146 173,154" fill="#aaff00"/>
	<line x1="233" y1="127" x2="170" y2="150" stroke="#aaff00" stroke-width="2"/>
</g>
<g>
	<polygon points="277,107 272,114 268,106" fill="#aaff00"/>
	<line x1="233" y1="127" x2="271" y2="110" stroke="#aaff00" stroke-width="2"/>
</g>
<g>
	<polygon points="123,184 130,178 131,187" fill="#aaff00"/>
	<line x1="195" y1="170" x2="130" y2="182" stroke="#aaff00" stroke-width="2"/>
</g>
<g>
	<polygon points="218,152 214,160 209,153" fill="#aaff00"/>
	<line x1="195" y1="170" x2="212" y2="156" stroke="#aaff00" stroke-width="2"/>
</g>
<g>
	<polygon points="202,105 206,113 197,112" fill="#aaff00"/>
	<line x1="195" y1="170" x2="201" y2="112" stroke="#aaff00" stroke-width="2"/>
</g>
<g>
	<polygon points="278,108 274,116 269,109" fill="#aaff00"/>
	<line x1="195" y1="170" x2="272" y2="112" stroke="#aaff00" stroke-width="2"/>
</g>
<g>
	<polygon points="208,225 202,219 211,216" fill="#aaff00"/>
	<line x1="195" y1="170" x2="207" y2="218" stroke="#aaff00" stroke-width="2"/>
</g>
<g>
	<polygon points="134,144 135,153 127,149" fill="#aaff00"/>
	<line x1="119" y1="185" x2="131" y2="150" stroke="#aaff00" stroke-width="2"/>
</g>
<g>
	<polygon points="148,101 150,110 141,107" fill="#aaff00"/>
	<line x1="119" y1="185" x2="146" y2="108" stroke="#aaff00" stroke-width="2"/>
</g>
<g>
	<polygon points="137,135 135,126 144,129" fill="#aaff00"/>
	<line x1="150" y1="97" x2="139" y2="128" stroke="#aaff00" stroke-width="2"/>
</g>
<g>
	<polygon points="207,101 215,97 214,106" fill="#aaff00"/>
	<line x1="282" y1="106" x2="214" y2="101" stroke="#aaff00" stroke-width="2"/>
</g>
<g>
	<polygon points="154,97 162,93 161,102" fill="#aaff00"/>
	<line x1="282" y1="106" x2="161" y2="97" stroke="#aaff00" stroke-width="2"/>
</g>
<g>
	<polygon points="233,68 242,69 237,77" fill="#aaff00"/>
	<line x1="282" y1="106" x2="239" y2="73" stroke="#aaff00" stroke-width="2"/>
</g>
<g>
	<polygon points="242,25 250,30 242,34" fill="#aaff00"/>
	<line x1="282" y1="106" x2="246" y2="31" stroke="#aaff00" stroke-width="2"/>
</g>
<g>
	<polygon points="122,182 126,174 131,181" fill="#aaff00"/>
	<line x1="160" y1="155" x2="128" y2="178" stroke="#aaff00" stroke-width="2"/>
</g>
<g>
	<polygon points="139,142 148,142 144,150" fill="#aaff00"/>
	<line x1="160" y1="155" x2="145" y2="146" stroke="#aaff00" stroke-width="2"/>
</g>
<g>
	<polygon points="217,150 210,155 209,146" fill="#aaff00"/>
	<line x1="160" y1="155" x2="210" y2="150" stroke="#aaff00" stroke-width="2"/>
</g>
<g>
	<polygon points="190,168 181,169 185,161" fill="#aaff00"/>
	<line x1="160" y1="155" x2="184" y2="165" stroke="#aaff00" stroke-width="2"/>
</g>
<g>
	<polygon points="227,69 225,78 218,72" fill="#aaff00"/>
	<line x1="160" y1="155" x2="222" y2="75" stroke="#aaff00" stroke-width="2"/>
</g>
<g>
	<polygon points="139,142 148,144 142,151" fill="#aaff00"/>
	<line x1="202" y1="197" x2="144" y2="147" stroke="#aaff00" stroke-width="2"/>
</g>
<g>
	<polygon points="220,154 221,163 213,159" fill="#aaff00"/>
	<line x1="202" y1="197" x2="217" y2="160" stroke="#aaff00" stroke-width="2"/>
</g>
<g>
	<polygon points="163,158 171,160 165,166" fill="#aaff00"/>
	<line x1="202" y1="197" x2="168" y2="163" stroke="#aaff00" stroke-width="2"/>
</g>
<g>
	<polygon points="208,225 202,219 211,216" fill="#aaff00"/>
	<line x1="202" y1="197" x2="207" y2="218" stroke="#aaff00" stroke-width="2"/>
</g>
<g>
	<polygon points="138,144 145,148 137,153" fill="#aaff00"/>
	<line x1="172" y1="211" x2="141" y2="150" stroke="#aaff00" stroke-width="2"/>
</g>
<g>
	<polygon points="160,159 166,166 158,167" fill="#aaff00"/>
	<line x1="172" y1="211" x2="162" y2="166" stroke="#aaff00" stroke-width="2"/>
</g>
<g>
	<polygon points="205,227 196,228 201,220" fill="#aaff00"/>
	<line x1="172" y1="211" x2="199" y2="224" stroke="#aaff00" stroke-width="2"/>
</g>
<g>
	<polygon points="148,275 146,266 155,269" fill="#aaff00"/>
	<line x1="172" y1="211" x2="150" y2="269" stroke="#aaff00" stroke-width="2"/>
</g>

<g fill="#000000">
	<circle cx="196" cy="260" r="4"/>
</g>
<g fill="#000000">
	<circle cx="188" cy="143" r="4"/>
</g>
<g fill="#000000">
	<circle cx="228" cy="184" r="4"/>
</g>
<g fill="#000000">
	<circle cx="118" cy="184" r="4"/>
</g>
<g fill="#000000">
	<circle cx="135" cy="139" r="4"/>
</g>
<g fill="#000000">
	<circle cx="257" cy="116" r="4"/>
</g>
<g fill="#000000">
	<circle cx="221" cy="149" r="4"/>
</g>
<g fill="#000000">
	<circle cx="232" cy="126" r="4"/>
</g>
<g fill="#000000">
	<circle cx="202" cy="100" r="4"/>
</g>
<g fill="#000000">
	<circle cx="194" cy="169" r="4"/>
</g>
<g fill="#000000">
	<circle cx="149" cy="96" r="4"/>
</g>
<g fill="#000000">
	<circle cx="201" cy="196" r="4"/>
</g>
<g fill="#000000">
	<circle cx="171" cy="210" r="4"/>
</g>
<g fill="#000000">
	<circle cx="159" cy="154" r="4"/>
</g>
<g fill="#000000">
	<circle cx="166" cy="33" r="4"/>
</g>
<g fill="#000000">
	<circle cx="281" cy="105" r="4"/>
</g>
<g fill="#000000">
	<circle cx="209" cy="229" r="4"/>
</g>
<g fill="#000000">
	<circle cx="229" cy="65" r="4"/>
</g>
<g fill="#000000">
	<circle cx="146" cy="279" r="4"/>
</g>
<g fill="#000000">
	<circle cx="240" cy="20" r="4"/>
</g>

</g>

</svg>
