<?xml version="1.0" encoding="utf-8"?>
<!-- Created with Hypercube (http://tumic.wz.cz/hypercube) -->

<svg width="400" height="300" viewBox="0 0 400 300" xmlns="http://www.w3.org/2000/svg" baseProfile="tiny">

<g font-family="Helvetica" font-weight="normal">

<g>
	<polygon points="273,248 271,239 280,242" fill="#aaff00"/>
	<line x1="297" y1="183" x2="275" y2="241" stroke="#aaff00" stroke-width="2"/>
</g>
<g>
	<polygon points="248,184 256,180 256,189" fill="#aaff00"/>
	<line x1="297" y1="183" x2="255" y2="184" stroke="#aaff00" stroke-width="2"/>
</g>
<g>
	<polygon points="295,111 299,119 290,119" fill="#aaff00"/>
	<line x1="297" y1="183" x2="295" y2="118" stroke="#aaff00" stroke-width="2"/>
</g>
<g>
	<polygon points="224,242 232,240 231,248" fill="#aaff00"/>
	<line x1="272" y1="253" x2="231" y2="244" stroke="#aaff00" stroke-width="2"/>
</g>
<g>
	<polygon points="216,291 220,283 225,290" fill="#aaff00"/>
	<line x1="272" y1="253" x2="222" y2="287" stroke="#aaff00" stroke-width="2"/>
</g>
<g>
	<polygon points="176,234 184,231 183,240" fill="#aaff00"/>
	<line x1="220" y1="242" x2="183" y2="235" stroke="#aaff00" stroke-width="2"/>
</g>
<g>
	<polygon points="174,237 182,241 175,246" fill="#aaff00"/>
	<line x1="213" y1="294" x2="178" y2="243" stroke="#aaff00" stroke-width="2"/>
</g>
<g>
	<polygon points="216,244 212,252 207,244" fill="#aaff00"/>
	<line x1="157" y1="283" x2="210" y2="248" stroke="#aaff00" stroke-width="2"/>
</g>
<g>
	<polygon points="208,293 200,296 201,287" fill="#aaff00"/>
	<line x1="157" y1="283" x2="201" y2="291" stroke="#aaff00" stroke-width="2"/>
</g>
<g>
	<polygon points="181,184 177,191 173,183" fill="#aaff00"/>
	<line x1="106" y1="223" x2="175" y2="187" stroke="#aaff00" stroke-width="2"/>
</g>
<g>
	<polygon points="154,279 145,276 152,270" fill="#aaff00"/>
	<line x1="106" y1="223" x2="149" y2="274" stroke="#aaff00" stroke-width="2"/>
</g>
<g>
	<polygon points="66,153 74,158 66,162" fill="#aaff00"/>
	<line x1="106" y1="223" x2="69" y2="160" stroke="#aaff00" stroke-width="2"/>
</g>
<g>
	<polygon points="221,237 220,228 228,232" fill="#aaff00"/>
	<line x1="244" y1="185" x2="224" y2="231" stroke="#aaff00" stroke-width="2"/>
</g>
<g>
	<polygon points="190,182 198,178 198,187" fill="#aaff00"/>
	<line x1="244" y1="185" x2="197" y2="182" stroke="#aaff00" stroke-width="2"/>
</g>
<g>
	<polygon points="64,145 61,137 70,138" fill="#aaff00"/>
	<line x1="77" y1="78" x2="66" y2="138" stroke="#aaff00" stroke-width="2"/>
</g>
<g>
	<polygon points="114,62 109,69 105,61" fill="#aaff00"/>
	<line x1="77" y1="78" x2="108" y2="65" stroke="#aaff00" stroke-width="2"/>
</g>
<g>
	<polygon points="139,106 131,101 140,97" fill="#aaff00"/>
	<line x1="119" y1="61" x2="136" y2="100" stroke="#aaff00" stroke-width="2"/>
</g>
<g>
	<polygon points="133,163 130,155 139,156" fill="#aaff00"/>
	<line x1="141" y1="111" x2="134" y2="156" stroke="#aaff00" stroke-width="2"/>
</g>
<g>
	<polygon points="169,230 161,225 169,221" fill="#aaff00"/>
	<line x1="133" y1="168" x2="166" y2="223" stroke="#aaff00" stroke-width="2"/>
</g>
<g>
	<polygon points="81,76 86,69 90,77" fill="#aaff00"/>
	<line x1="172" y1="39" x2="87" y2="73" stroke="#aaff00" stroke-width="2"/>
</g>
<g>
	<polygon points="176,39 184,36 183,45" fill="#aaff00"/>
	<line x1="247" y1="53" x2="183" y2="41" stroke="#aaff00" stroke-width="2"/>
</g>
<g>
	<polygon points="277,9 276,18 269,13" fill="#aaff00"/>
	<line x1="247" y1="53" x2="273" y2="15" stroke="#aaff00" stroke-width="2"/>
</g>
<g>
	<polygon points="249,56 258,59 251,65" fill="#aaff00"/>
	<line x1="295" y1="107" x2="254" y2="61" stroke="#aaff00" stroke-width="2"/>
</g>
<g>
	<polygon points="343,91 337,98 334,89" fill="#aaff00"/>
	<line x1="295" y1="107" x2="336" y2="93" stroke="#aaff00" stroke-width="2"/>
</g>
<g>
	<polygon points="102,225 97,233 93,225" fill="#aaff00"/>
	<line x1="54" y1="255" x2="96" y2="229" stroke="#aaff00" stroke-width="2"/>
</g>

<g fill="#000000">
	<circle cx="296" cy="182" r="4"/>
</g>
<g fill="#000000">
	<circle cx="271" cy="252" r="4"/>
</g>
<g fill="#000000">
	<circle cx="243" cy="184" r="4"/>
</g>
<g fill="#000000">
	<circle cx="294" cy="106" r="4"/>
</g>
<g fill="#000000">
	<circle cx="219" cy="241" r="4"/>
</g>
<g fill="#000000">
	<circle cx="212" cy="293" r="4"/>
</g>
<g fill="#000000">
	<circle cx="185" cy="181" r="4"/>
</g>
<g fill="#000000">
	<circle cx="246" cy="52" r="4"/>
</g>
<g fill="#000000">
	<circle cx="347" cy="89" r="4"/>
</g>
<g fill="#000000">
	<circle cx="53" cy="254" r="4"/>
</g>
<g fill="#000000">
	<circle cx="105" cy="222" r="4"/>
</g>
<g fill="#000000">
	<circle cx="156" cy="282" r="4"/>
</g>
<g fill="#000000">
	<circle cx="63" cy="149" r="4"/>
</g>
<g fill="#000000">
	<circle cx="171" cy="233" r="4"/>
</g>
<g fill="#000000">
	<circle cx="171" cy="38" r="4"/>
</g>
<g fill="#000000">
	<circle cx="279" cy="5" r="4"/>
</g>
<g fill="#000000">
	<circle cx="76" cy="77" r="4"/>
</g>
<g fill="#000000">
	<circle cx="118" cy="60" r="4"/>
</g>
<g fill="#000000">
	<circle cx="140" cy="110" r="4"/>
</g>
<g fill="#000000">
	<circle cx="132" cy="167" r="4"/>
</g>

</g>

</svg>
