<?xml version="1.0" encoding="utf-8"?>
<!-- Created with Hypercube (http://tumic.wz.cz/hypercube) -->

<svg width="400" height="300" viewBox="0 0 400 300" xmlns="http://www.w3.org/2000/svg" baseProfile="tiny">

<g font-family="Helvetica" font-weight="normal">

<g>
	<polygon points="143,190 150,184 151,193" fill="#aaff00"/>
	<line x1="257" y1="172" x2="150" y2="189" stroke="#aaff00" stroke-width="2"/>
</g>
<g>
	<polygon points="93,236 95,228 101,234" fill="#aaff00"/>
	<line x1="139" y1="191" x2="98" y2="231" stroke="#aaff00" stroke-width="2"/>
</g>
<g>
	<polygon points="86,243 84,252 78,245" fill="#aaff00"/>
	<line x1="51" y1="282" x2="82" y2="248" stroke="#aaff00" stroke-width="2"/>
</g>
<g>
	<polygon points="135,188 126,187 131,180" fill="#aaff00"/>
	<line x1="89" y1="157" x2="129" y2="184" stroke="#aaff00" stroke-width="2"/>
</g>
<g>
	<polygon points="346,292 337,290 343,283" fill="#aaff00"/>
	<line x1="307" y1="259" x2="341" y2="287" stroke="#aaff00" stroke-width="2"/>
</g>
<g>
	<polygon points="172,33 179,38 171,42" fill="#aaff00"/>
	<line x1="195" y1="89" x2="175" y2="39" stroke="#aaff00" stroke-width="2"/>
</g>
<g>
	<polygon points="215,6 210,14 206,6" fill="#aaff00"/>
	<line x1="171" y1="29" x2="209" y2="10" stroke="#aaff00" stroke-width="2"/>
</g>
<g>
	<polygon points="166,27 157,27 161,19" fill="#aaff00"/>
	<line x1="119" y1="5" x2="160" y2="24" stroke="#aaff00" stroke-width="2"/>
</g>
<g>
	<polygon points="304,255 296,250 304,246" fill="#aaff00"/>
	<line x1="257" y1="172" x2="301" y2="248" stroke="#aaff00" stroke-width="2"/>
</g>
<g>
	<polygon points="197,92 205,96 198,101" fill="#aaff00"/>
	<line x1="257" y1="172" x2="201" y2="98" stroke="#aaff00" stroke-width="2"/>
</g>
<g>
	<polygon points="202,152 211,150 208,159" fill="#aaff00"/>
	<line x1="257" y1="172" x2="209" y2="154" stroke="#aaff00" stroke-width="2"/>
</g>
<g>
	<polygon points="337,203 328,204 332,196" fill="#aaff00"/>
	<line x1="257" y1="172" x2="331" y2="200" stroke="#aaff00" stroke-width="2"/>
</g>
<g>
	<polygon points="226,260 224,251 233,254" fill="#aaff00"/>
	<line x1="257" y1="172" x2="228" y2="253" stroke="#aaff00" stroke-width="2"/>
</g>
<g>
	<polygon points="300,160 294,166 291,157" fill="#aaff00"/>
	<line x1="257" y1="172" x2="293" y2="162" stroke="#aaff00" stroke-width="2"/>
</g>
<g>
	<polygon points="298,90 299,99 291,95" fill="#aaff00"/>
	<line x1="257" y1="172" x2="295" y2="97" stroke="#aaff00" stroke-width="2"/>
</g>
<g>
	<polygon points="253,119 258,126 249,127" fill="#aaff00"/>
	<line x1="257" y1="172" x2="253" y2="126" stroke="#aaff00" stroke-width="2"/>
</g>
<g>
	<polygon points="345,131 340,139 336,130" fill="#aaff00"/>
	<line x1="257" y1="172" x2="339" y2="134" stroke="#aaff00" stroke-width="2"/>
</g>
<g>
	<polygon points="210,207 214,198 219,206" fill="#aaff00"/>
	<line x1="257" y1="172" x2="216" y2="202" stroke="#aaff00" stroke-width="2"/>
</g>
<g>
	<polygon points="271,213 264,207 273,204" fill="#aaff00"/>
	<line x1="257" y1="172" x2="269" y2="206" stroke="#aaff00" stroke-width="2"/>
</g>

<g fill="#000000">
	<circle cx="256" cy="171" r="4"/>
</g>
<g fill="#000000">
	<circle cx="138" cy="190" r="4"/>
</g>
<g fill="#000000">
	<circle cx="306" cy="258" r="4"/>
</g>
<g fill="#000000">
	<circle cx="349" cy="294" r="4"/>
</g>
<g fill="#000000">
	<circle cx="194" cy="88" r="4"/>
</g>
<g fill="#000000">
	<circle cx="170" cy="28" r="4"/>
</g>
<g fill="#000000">
	<circle cx="197" cy="150" r="4"/>
</g>
<g fill="#000000">
	<circle cx="341" cy="204" r="4"/>
</g>
<g fill="#000000">
	<circle cx="224" cy="264" r="4"/>
</g>
<g fill="#000000">
	<circle cx="118" cy="4" r="4"/>
</g>
<g fill="#000000">
	<circle cx="304" cy="158" r="4"/>
</g>
<g fill="#000000">
	<circle cx="300" cy="86" r="4"/>
</g>
<g fill="#000000">
	<circle cx="252" cy="114" r="4"/>
</g>
<g fill="#000000">
	<circle cx="50" cy="281" r="4"/>
</g>
<g fill="#000000">
	<circle cx="89" cy="239" r="4"/>
</g>
<g fill="#000000">
	<circle cx="349" cy="129" r="4"/>
</g>
<g fill="#000000">
	<circle cx="206" cy="209" r="4"/>
</g>
<g fill="#000000">
	<circle cx="272" cy="217" r="4"/>
</g>
<g fill="#000000">
	<circle cx="88" cy="156" r="4"/>
</g>
<g fill="#000000">
	<circle cx="219" cy="4" r="4"/>
</g>

</g>

</svg>
