<?xml version="1.0" encoding="utf-8"?>
<!-- Created with Hypercube (http://tumic.wz.cz/hypercube) -->

<svg width="400" height="300" viewBox="0 0 400 300" xmlns="http://www.w3.org/2000/svg" baseProfile="tiny">

<g font-family="Helvetica" font-weight="normal">

<g>
	<polygon points="342,9 350,7 349,15" fill="#aaff00"/>
	<line x1="391" y1="20" x2="349" y2="11" stroke="#aaff00" stroke-width="2"/>
</g>
<g>
	<polygon points="391,24 396,31 387,32" fill="#aaff00"/>
	<line x1="395" y1="75" x2="391" y2="31" stroke="#aaff00" stroke-width="2"/>
</g>
<g>
	<polygon points="393,127 388,119 397,119" fill="#aaff00"/>
	<line x1="395" y1="75" x2="393" y2="120" stroke="#aaff00" stroke-width="2"/>
</g>
<g>
	<polygon points="356,185 357,176 364,181" fill="#aaff00"/>
	<line x1="393" y1="132" x2="360" y2="179" stroke="#aaff00" stroke-width="2"/>
</g>
<g>
	<polygon points="392,235 383,232 390,226" fill="#aaff00"/>
	<line x1="354" y1="189" x2="387" y2="229" stroke="#aaff00" stroke-width="2"/>
</g>
<g>
	<polygon points="393,286 388,278 397,278" fill="#aaff00"/>
	<line x1="395" y1="239" x2="393" y2="279" stroke="#aaff00" stroke-width="2"/>
</g>
<g>
	<polygon points="350,192 347,200 341,193" fill="#aaff00"/>
	<line x1="296" y1="241" x2="345" y2="196" stroke="#aaff00" stroke-width="2"/>
</g>
<g>
	<polygon points="293,237 285,233 292,228" fill="#aaff00"/>
	<line x1="258" y1="186" x2="289" y2="231" stroke="#aaff00" stroke-width="2"/>
</g>
<g>
	<polygon points="300,141 298,149 292,143" fill="#aaff00"/>
	<line x1="258" y1="186" x2="295" y2="146" stroke="#aaff00" stroke-width="2"/>
</g>
<g>
	<polygon points="300,191 292,194 293,185" fill="#aaff00"/>
	<line x1="258" y1="186" x2="293" y2="190" stroke="#aaff00" stroke-width="2"/>
</g>
<g>
	<polygon points="350,185 342,183 348,177" fill="#aaff00"/>
	<line x1="304" y1="138" x2="345" y2="180" stroke="#aaff00" stroke-width="2"/>
</g>
<g>
	<polygon points="349,189 342,194 341,185" fill="#aaff00"/>
	<line x1="305" y1="192" x2="342" y2="189" stroke="#aaff00" stroke-width="2"/>
</g>
<g>
	<polygon points="253,184 244,187 247,178" fill="#aaff00"/>
	<line x1="197" y1="170" x2="246" y2="183" stroke="#aaff00" stroke-width="2"/>
</g>
<g>
	<polygon points="192,168 183,168 187,160" fill="#aaff00"/>
	<line x1="139" y1="143" x2="186" y2="165" stroke="#aaff00" stroke-width="2"/>
</g>
<g>
	<polygon points="87,179 91,171 96,178" fill="#aaff00"/>
	<line x1="139" y1="143" x2="93" y2="175" stroke="#aaff00" stroke-width="2"/>
</g>
<g>
	<polygon points="32,174 40,171 39,180" fill="#aaff00"/>
	<line x1="84" y1="182" x2="39" y2="175" stroke="#aaff00" stroke-width="2"/>
</g>
<g>
	<polygon points="26,169 18,164 26,160" fill="#aaff00"/>
	<line x1="5" y1="124" x2="23" y2="163" stroke="#aaff00" stroke-width="2"/>
</g>
<g>
	<polygon points="5,119 0,111 9,111" fill="#aaff00"/>
	<line x1="5" y1="65" x2="5" y2="112" stroke="#aaff00" stroke-width="2"/>
</g>
<g>
	<polygon points="7,61 8,52 16,57" fill="#aaff00"/>
	<line x1="40" y1="19" x2="12" y2="55" stroke="#aaff00" stroke-width="2"/>
</g>
<g>
	<polygon points="126,75 119,70 126,66" fill="#aaff00"/>
	<line x1="99" y1="25" x2="123" y2="68" stroke="#aaff00" stroke-width="2"/>
</g>
<g>
	<polygon points="44,19 52,15 51,24" fill="#aaff00"/>
	<line x1="99" y1="25" x2="51" y2="20" stroke="#aaff00" stroke-width="2"/>
</g>
<g>
	<polygon points="138,138 132,131 141,130" fill="#aaff00"/>
	<line x1="129" y1="79" x2="137" y2="131" stroke="#aaff00" stroke-width="2"/>
</g>

<g fill="#000000">
	<circle cx="337" cy="8" r="4"/>
</g>
<g fill="#000000">
	<circle cx="392" cy="290" r="4"/>
</g>
<g fill="#000000">
	<circle cx="27" cy="173" r="4"/>
</g>
<g fill="#000000">
	<circle cx="4" cy="64" r="4"/>
</g>
<g fill="#000000">
	<circle cx="4" cy="123" r="4"/>
</g>
<g fill="#000000">
	<circle cx="353" cy="188" r="4"/>
</g>
<g fill="#000000">
	<circle cx="394" cy="238" r="4"/>
</g>
<g fill="#000000">
	<circle cx="394" cy="74" r="4"/>
</g>
<g fill="#000000">
	<circle cx="390" cy="19" r="4"/>
</g>
<g fill="#000000">
	<circle cx="392" cy="131" r="4"/>
</g>
<g fill="#000000">
	<circle cx="257" cy="185" r="4"/>
</g>
<g fill="#000000">
	<circle cx="295" cy="240" r="4"/>
</g>
<g fill="#000000">
	<circle cx="303" cy="137" r="4"/>
</g>
<g fill="#000000">
	<circle cx="304" cy="191" r="4"/>
</g>
<g fill="#000000">
	<circle cx="138" cy="142" r="4"/>
</g>
<g fill="#000000">
	<circle cx="196" cy="169" r="4"/>
</g>
<g fill="#000000">
	<circle cx="83" cy="181" r="4"/>
</g>
<g fill="#000000">
	<circle cx="98" cy="24" r="4"/>
</g>
<g fill="#000000">
	<circle cx="128" cy="78" r="4"/>
</g>
<g fill="#000000">
	<circle cx="39" cy="18" r="4"/>
</g>

</g>

</svg>
