<?xml version="1.0" encoding="utf-8"?>
<!-- Created with Hypercube (http://tumic.wz.cz/hypercube) -->

<svg width="400" height="300" viewBox="0 0 400 300" xmlns="http://www.w3.org/2000/svg" baseProfile="tiny">

<g font-family="Helvetica" font-weight="normal">

<g>
	<polygon points="123,112 127,120 118,120" fill="#aaff00"/>
	<line x1="123" y1="172" x2="123" y2="119" stroke="#aaff00" stroke-width="2"/>
</g>
<g>
	<polygon points="163,200 154,199 159,192" fill="#aaff00"/>
	<line x1="123" y1="172" x2="157" y2="196" stroke="#aaff00" stroke-width="2"/>
</g>
<g>
	<polygon points="139,55 141,64 133,61" fill="#aaff00"/>
	<line x1="123" y1="108" x2="137" y2="62" stroke="#aaff00" stroke-width="2"/>
</g>
<g>
	<polygon points="160,92 155,99 151,91" fill="#aaff00"/>
	<line x1="123" y1="108" x2="154" y2="95" stroke="#aaff00" stroke-width="2"/>
</g>
<g>
	<polygon points="243,64 235,67 236,58" fill="#aaff00"/>
	<line x1="141" y1="51" x2="236" y2="63" stroke="#aaff00" stroke-width="2"/>
</g>
<g>
	<polygon points="78,123 80,114 87,120" fill="#aaff00"/>
	<line x1="141" y1="51" x2="83" y2="118" stroke="#aaff00" stroke-width="2"/>
</g>
<g>
	<polygon points="327,131 318,129 324,122" fill="#aaff00"/>
	<line x1="248" y1="65" x2="322" y2="126" stroke="#aaff00" stroke-width="2"/>
</g>
<g>
	<polygon points="287,98 278,96 284,89" fill="#aaff00"/>
	<line x1="248" y1="65" x2="282" y2="93" stroke="#aaff00" stroke-width="2"/>
</g>
<g>
	<polygon points="328,137 328,146 320,142" fill="#aaff00"/>
	<line x1="292" y1="197" x2="324" y2="143" stroke="#aaff00" stroke-width="2"/>
</g>
<g>
	<polygon points="291,105 295,113 286,113" fill="#aaff00"/>
	<line x1="292" y1="197" x2="291" y2="112" stroke="#aaff00" stroke-width="2"/>
</g>
<g>
	<polygon points="288,200 286,208 280,202" fill="#aaff00"/>
	<line x1="237" y1="250" x2="283" y2="205" stroke="#aaff00" stroke-width="2"/>
</g>
<g>
	<polygon points="143,249 151,244 151,253" fill="#aaff00"/>
	<line x1="237" y1="250" x2="150" y2="249" stroke="#aaff00" stroke-width="2"/>
</g>
<g>
	<polygon points="76,187 84,189 78,195" fill="#aaff00"/>
	<line x1="139" y1="249" x2="81" y2="192" stroke="#aaff00" stroke-width="2"/>
</g>
<g>
	<polygon points="74,234 82,232 81,241" fill="#aaff00"/>
	<line x1="139" y1="249" x2="81" y2="236" stroke="#aaff00" stroke-width="2"/>
</g>
<g>
	<polygon points="73,179 69,171 78,171" fill="#aaff00"/>
	<line x1="76" y1="127" x2="73" y2="172" stroke="#aaff00" stroke-width="2"/>
</g>
<g>
	<polygon points="70,229 66,221 75,221" fill="#aaff00"/>
	<line x1="76" y1="127" x2="70" y2="222" stroke="#aaff00" stroke-width="2"/>
</g>
<g>
	<polygon points="243,66 237,72 234,64" fill="#aaff00"/>
	<line x1="165" y1="91" x2="236" y2="68" stroke="#aaff00" stroke-width="2"/>
</g>
<g>
	<polygon points="80,125 85,118 89,126" fill="#aaff00"/>
	<line x1="165" y1="91" x2="86" y2="122" stroke="#aaff00" stroke-width="2"/>
</g>
<g>
	<polygon points="145,51 153,48 152,57" fill="#aaff00"/>
	<line x1="194" y1="58" x2="152" y2="52" stroke="#aaff00" stroke-width="2"/>
</g>
<g>
	<polygon points="167,87 169,78 176,84" fill="#aaff00"/>
	<line x1="194" y1="58" x2="172" y2="82" stroke="#aaff00" stroke-width="2"/>
</g>
<g>
	<polygon points="196,61 203,66 195,70" fill="#aaff00"/>
	<line x1="227" y1="122" x2="199" y2="68" stroke="#aaff00" stroke-width="2"/>
</g>
<g>
	<polygon points="236,186 230,179 239,178" fill="#aaff00"/>
	<line x1="227" y1="122" x2="235" y2="179" stroke="#aaff00" stroke-width="2"/>
</g>
<g>
	<polygon points="237,245 232,237 241,237" fill="#aaff00"/>
	<line x1="237" y1="191" x2="237" y2="238" stroke="#aaff00" stroke-width="2"/>
</g>
<g>
	<polygon points="206,223 208,214 214,221" fill="#aaff00"/>
	<line x1="237" y1="191" x2="211" y2="218" stroke="#aaff00" stroke-width="2"/>
</g>
<g>
	<polygon points="287,198 281,205 278,196" fill="#aaff00"/>
	<line x1="203" y1="227" x2="280" y2="200" stroke="#aaff00" stroke-width="2"/>
</g>
<g>
	<polygon points="143,247 149,240 152,249" fill="#aaff00"/>
	<line x1="203" y1="227" x2="150" y2="245" stroke="#aaff00" stroke-width="2"/>
</g>
<g>
	<polygon points="233,247 224,246 229,239" fill="#aaff00"/>
	<line x1="167" y1="203" x2="227" y2="243" stroke="#aaff00" stroke-width="2"/>
</g>
<g>
	<polygon points="199,224 190,223 195,216" fill="#aaff00"/>
	<line x1="167" y1="203" x2="193" y2="220" stroke="#aaff00" stroke-width="2"/>
</g>
<g>
	<polygon points="126,111 135,113 128,119" fill="#aaff00"/>
	<line x1="166" y1="149" x2="131" y2="116" stroke="#aaff00" stroke-width="2"/>
</g>
<g>
	<polygon points="166,198 162,190 171,190" fill="#aaff00"/>
	<line x1="166" y1="149" x2="166" y2="191" stroke="#aaff00" stroke-width="2"/>
</g>
<g>
	<polygon points="230,124 239,126 233,133" fill="#aaff00"/>
	<line x1="264" y1="151" x2="236" y2="129" stroke="#aaff00" stroke-width="2"/>
</g>
<g>
	<polygon points="239,187 240,178 247,183" fill="#aaff00"/>
	<line x1="264" y1="151" x2="243" y2="181" stroke="#aaff00" stroke-width="2"/>
</g>

<g fill="#000000">
	<circle cx="122" cy="171" r="4"/>
</g>
<g fill="#000000">
	<circle cx="122" cy="107" r="4"/>
</g>
<g fill="#000000">
	<circle cx="166" cy="202" r="4"/>
</g>
<g fill="#000000">
	<circle cx="140" cy="50" r="4"/>
</g>
<g fill="#000000">
	<circle cx="164" cy="90" r="4"/>
</g>
<g fill="#000000">
	<circle cx="247" cy="64" r="4"/>
</g>
<g fill="#000000">
	<circle cx="75" cy="126" r="4"/>
</g>
<g fill="#000000">
	<circle cx="330" cy="133" r="4"/>
</g>
<g fill="#000000">
	<circle cx="290" cy="100" r="4"/>
</g>
<g fill="#000000">
	<circle cx="226" cy="121" r="4"/>
</g>
<g fill="#000000">
	<circle cx="193" cy="57" r="4"/>
</g>
<g fill="#000000">
	<circle cx="236" cy="190" r="4"/>
</g>
<g fill="#000000">
	<circle cx="72" cy="183" r="4"/>
</g>
<g fill="#000000">
	<circle cx="69" cy="233" r="4"/>
</g>
<g fill="#000000">
	<circle cx="165" cy="148" r="4"/>
</g>
<g fill="#000000">
	<circle cx="236" cy="249" r="4"/>
</g>
<g fill="#000000">
	<circle cx="202" cy="226" r="4"/>
</g>
<g fill="#000000">
	<circle cx="291" cy="196" r="4"/>
</g>
<g fill="#000000">
	<circle cx="138" cy="248" r="4"/>
</g>
<g fill="#000000">
	<circle cx="263" cy="150" r="4"/>
</g>

</g>

</svg>
