<?xml version="1.0" encoding="utf-8"?>
<!-- Created with Hypercube (http://tumic.wz.cz/hypercube) -->

<svg width="400" height="300" viewBox="0 0 400 300" xmlns="http://www.w3.org/2000/svg" baseProfile="tiny">

<g font-family="Helvetica" font-weight="normal">

<g>
	<polygon points="140,204 145,197 149,205" fill="#aaff00"/>
	<line x1="186" y1="185" x2="146" y2="201" stroke="#aaff00" stroke-width="2"/>
</g>
<g>
	<polygon points="233,192 225,195 226,186" fill="#aaff00"/>
	<line x1="186" y1="185" x2="226" y2="191" stroke="#aaff00" stroke-width="2"/>
</g>
<g>
	<polygon points="95,166 103,168 97,174" fill="#aaff00"/>
	<line x1="136" y1="206" x2="100" y2="171" stroke="#aaff00" stroke-width="2"/>
</g>
<g>
	<polygon points="133,166 138,173 129,174" fill="#aaff00"/>
	<line x1="136" y1="206" x2="133" y2="173" stroke="#aaff00" stroke-width="2"/>
</g>
<g>
	<polygon points="138,72 139,81 131,77" fill="#aaff00"/>
	<line x1="92" y1="163" x2="135" y2="79" stroke="#aaff00" stroke-width="2"/>
</g>
<g>
	<polygon points="134,121 132,129 126,123" fill="#aaff00"/>
	<line x1="92" y1="163" x2="129" y2="126" stroke="#aaff00" stroke-width="2"/>
</g>
<g>
	<polygon points="231,46 225,52 222,43" fill="#aaff00"/>
	<line x1="141" y1="69" x2="224" y2="47" stroke="#aaff00" stroke-width="2"/>
</g>
<g>
	<polygon points="189,16 187,25 181,18" fill="#aaff00"/>
	<line x1="141" y1="69" x2="185" y2="21" stroke="#aaff00" stroke-width="2"/>
</g>
<g>
	<polygon points="239,47 248,48 243,55" fill="#aaff00"/>
	<line x1="281" y1="78" x2="245" y2="51" stroke="#aaff00" stroke-width="2"/>
</g>
<g>
	<polygon points="196,15 205,16 200,23" fill="#aaff00"/>
	<line x1="281" y1="78" x2="202" y2="19" stroke="#aaff00" stroke-width="2"/>
</g>
<g>
	<polygon points="282,82 289,87 281,91" fill="#aaff00"/>
	<line x1="308" y1="146" x2="285" y2="88" stroke="#aaff00" stroke-width="2"/>
</g>
<g>
	<polygon points="254,121 263,120 259,129" fill="#aaff00"/>
	<line x1="308" y1="146" x2="260" y2="124" stroke="#aaff00" stroke-width="2"/>
</g>
<g>
	<polygon points="200,126 207,120 208,129" fill="#aaff00"/>
	<line x1="250" y1="120" x2="207" y2="125" stroke="#aaff00" stroke-width="2"/>
</g>
<g>
	<polygon points="197,84 206,85 201,92" fill="#aaff00"/>
	<line x1="250" y1="120" x2="203" y2="88" stroke="#aaff00" stroke-width="2"/>
</g>
<g>
	<polygon points="191,126 183,129 184,120" fill="#aaff00"/>
	<line x1="138" y1="118" x2="184" y2="125" stroke="#aaff00" stroke-width="2"/>
</g>
<g>
	<polygon points="190,84 186,92 181,84" fill="#aaff00"/>
	<line x1="138" y1="118" x2="184" y2="88" stroke="#aaff00" stroke-width="2"/>
</g>
<g>
	<polygon points="140,73 144,81 135,80" fill="#aaff00"/>
	<line x1="133" y1="162" x2="139" y2="80" stroke="#aaff00" stroke-width="2"/>
</g>
<g>
	<polygon points="137,122 141,130 132,129" fill="#aaff00"/>
	<line x1="133" y1="162" x2="136" y2="129" stroke="#aaff00" stroke-width="2"/>
</g>
<g>
	<polygon points="93,167 101,172 93,176" fill="#aaff00"/>
	<line x1="140" y1="266" x2="96" y2="173" stroke="#aaff00" stroke-width="2"/>
</g>
<g>
	<polygon points="133,166 138,173 129,174" fill="#aaff00"/>
	<line x1="140" y1="266" x2="133" y2="173" stroke="#aaff00" stroke-width="2"/>
</g>
<g>
	<polygon points="144,266 152,264 151,272" fill="#aaff00"/>
	<line x1="199" y1="278" x2="151" y2="268" stroke="#aaff00" stroke-width="2"/>
</g>
<g>
	<polygon points="275,235 270,242 266,235" fill="#aaff00"/>
	<line x1="199" y1="278" x2="268" y2="238" stroke="#aaff00" stroke-width="2"/>
</g>
<g>
	<polygon points="306,150 308,159 299,156" fill="#aaff00"/>
	<line x1="279" y1="233" x2="304" y2="157" stroke="#aaff00" stroke-width="2"/>
</g>
<g>
	<polygon points="273,172 278,179 269,180" fill="#aaff00"/>
	<line x1="279" y1="233" x2="274" y2="179" stroke="#aaff00" stroke-width="2"/>
</g>
<g>
	<polygon points="280,82 284,90 275,89" fill="#aaff00"/>
	<line x1="273" y1="168" x2="279" y2="89" stroke="#aaff00" stroke-width="2"/>
</g>
<g>
	<polygon points="251,124 259,129 251,133" fill="#aaff00"/>
	<line x1="273" y1="168" x2="255" y2="130" stroke="#aaff00" stroke-width="2"/>
</g>
<g>
	<polygon points="304,148 300,156 295,149" fill="#aaff00"/>
	<line x1="238" y1="193" x2="298" y2="152" stroke="#aaff00" stroke-width="2"/>
</g>
<g>
	<polygon points="269,170 265,178 260,171" fill="#aaff00"/>
	<line x1="238" y1="193" x2="263" y2="174" stroke="#aaff00" stroke-width="2"/>
</g>
<g>
	<polygon points="140,207 149,207 145,215" fill="#aaff00"/>
	<line x1="189" y1="231" x2="146" y2="210" stroke="#aaff00" stroke-width="2"/>
</g>
<g>
	<polygon points="234,195 231,204 225,196" fill="#aaff00"/>
	<line x1="189" y1="231" x2="228" y2="200" stroke="#aaff00" stroke-width="2"/>
</g>
<g>
	<polygon points="144,266 152,264 151,272" fill="#aaff00"/>
	<line x1="248" y1="288" x2="151" y2="268" stroke="#aaff00" stroke-width="2"/>
</g>
<g>
	<polygon points="276,236 276,245 269,241" fill="#aaff00"/>
	<line x1="248" y1="288" x2="273" y2="243" stroke="#aaff00" stroke-width="2"/>
</g>

<g fill="#000000">
	<circle cx="185" cy="184" r="4"/>
</g>
<g fill="#000000">
	<circle cx="135" cy="205" r="4"/>
</g>
<g fill="#000000">
	<circle cx="237" cy="192" r="4"/>
</g>
<g fill="#000000">
	<circle cx="91" cy="162" r="4"/>
</g>
<g fill="#000000">
	<circle cx="132" cy="161" r="4"/>
</g>
<g fill="#000000">
	<circle cx="140" cy="68" r="4"/>
</g>
<g fill="#000000">
	<circle cx="137" cy="117" r="4"/>
</g>
<g fill="#000000">
	<circle cx="235" cy="44" r="4"/>
</g>
<g fill="#000000">
	<circle cx="192" cy="12" r="4"/>
</g>
<g fill="#000000">
	<circle cx="198" cy="277" r="4"/>
</g>
<g fill="#000000">
	<circle cx="139" cy="265" r="4"/>
</g>
<g fill="#000000">
	<circle cx="278" cy="232" r="4"/>
</g>
<g fill="#000000">
	<circle cx="195" cy="126" r="4"/>
</g>
<g fill="#000000">
	<circle cx="193" cy="81" r="4"/>
</g>
<g fill="#000000">
	<circle cx="188" cy="230" r="4"/>
</g>
<g fill="#000000">
	<circle cx="307" cy="145" r="4"/>
</g>
<g fill="#000000">
	<circle cx="272" cy="167" r="4"/>
</g>
<g fill="#000000">
	<circle cx="280" cy="77" r="4"/>
</g>
<g fill="#000000">
	<circle cx="249" cy="119" r="4"/>
</g>
<g fill="#000000">
	<circle cx="247" cy="287" r="4"/>
</g>

</g>

</svg>
