<?xml version="1.0" encoding="utf-8"?>
<!-- Created with Hypercube (http://tumic.wz.cz/hypercube) -->

<svg width="400" height="300" viewBox="0 0 400 300" xmlns="http://www.w3.org/2000/svg" baseProfile="tiny">

<g font-family="Helvetica" font-weight="normal">

<g>
	<polygon points="84,8 92,12 85,17" fill="#aaff00"/>
	<line x1="119" y1="54" x2="89" y2="14" stroke="#aaff00" stroke-width="2"/>
</g>
<g>
	<polygon points="65,102 74,99 71,108" fill="#aaff00"/>
	<line x1="129" y1="119" x2="72" y2="103" stroke="#aaff00" stroke-width="2"/>
</g>
<g>
	<polygon points="173,168 164,165 171,159" fill="#aaff00"/>
	<line x1="129" y1="119" x2="168" y2="163" stroke="#aaff00" stroke-width="2"/>
</g>
<g>
	<polygon points="119,58 125,65 116,66" fill="#aaff00"/>
	<line x1="129" y1="119" x2="120" y2="65" stroke="#aaff00" stroke-width="2"/>
</g>
<g>
	<polygon points="18,63 27,65 21,72" fill="#aaff00"/>
	<line x1="61" y1="101" x2="23" y2="68" stroke="#aaff00" stroke-width="2"/>
</g>
<g>
	<polygon points="23,10 26,18 17,17" fill="#aaff00"/>
	<line x1="15" y1="61" x2="22" y2="17" stroke="#aaff00" stroke-width="2"/>
</g>
<g>
	<polygon points="77,5 69,9 69,0" fill="#aaff00"/>
	<line x1="24" y1="6" x2="70" y2="5" stroke="#aaff00" stroke-width="2"/>
</g>
<g>
	<polygon points="220,210 211,208 217,201" fill="#aaff00"/>
	<line x1="176" y1="172" x2="215" y2="205" stroke="#aaff00" stroke-width="2"/>
</g>
<g>
	<polygon points="227,210 231,202 236,210" fill="#aaff00"/>
	<line x1="275" y1="180" x2="233" y2="206" stroke="#aaff00" stroke-width="2"/>
</g>
<g>
	<polygon points="278,177 283,169 287,177" fill="#aaff00"/>
	<line x1="323" y1="152" x2="285" y2="174" stroke="#aaff00" stroke-width="2"/>
</g>
<g>
	<polygon points="225,217 232,222 224,226" fill="#aaff00"/>
	<line x1="248" y1="274" x2="228" y2="223" stroke="#aaff00" stroke-width="2"/>
</g>
<g>
	<polygon points="252,275 261,274 257,282" fill="#aaff00"/>
	<line x1="302" y1="295" x2="258" y2="278" stroke="#aaff00" stroke-width="2"/>
</g>
<g>
	<polygon points="306,295 314,290 314,299" fill="#aaff00"/>
	<line x1="360" y1="295" x2="313" y2="295" stroke="#aaff00" stroke-width="2"/>
</g>
<g>
	<polygon points="362,291 362,282 370,286" fill="#aaff00"/>
	<line x1="386" y1="250" x2="365" y2="284" stroke="#aaff00" stroke-width="2"/>
</g>
<g>
	<polygon points="126,122 126,131 118,127" fill="#aaff00"/>
	<line x1="94" y1="176" x2="122" y2="128" stroke="#aaff00" stroke-width="2"/>
</g>
<g>
	<polygon points="91,179 89,188 82,182" fill="#aaff00"/>
	<line x1="59" y1="220" x2="86" y2="185" stroke="#aaff00" stroke-width="2"/>
</g>
<g>
	<polygon points="132,116 137,108 141,116" fill="#aaff00"/>
	<line x1="200" y1="76" x2="139" y2="112" stroke="#aaff00" stroke-width="2"/>
</g>
<g>
	<polygon points="203,73 206,64 212,71" fill="#aaff00"/>
	<line x1="248" y1="35" x2="208" y2="68" stroke="#aaff00" stroke-width="2"/>
</g>
<g>
	<polygon points="252,33 257,25 261,33" fill="#aaff00"/>
	<line x1="298" y1="11" x2="258" y2="29" stroke="#aaff00" stroke-width="2"/>
</g>
<g>
	<polygon points="302,10 309,5 310,14" fill="#aaff00"/>
	<line x1="352" y1="5" x2="309" y2="9" stroke="#aaff00" stroke-width="2"/>
</g>

<g fill="#000000">
	<circle cx="81" cy="4" r="4"/>
</g>
<g fill="#000000">
	<circle cx="223" cy="212" r="4"/>
</g>
<g fill="#000000">
	<circle cx="322" cy="151" r="4"/>
</g>
<g fill="#000000">
	<circle cx="274" cy="179" r="4"/>
</g>
<g fill="#000000">
	<circle cx="301" cy="294" r="4"/>
</g>
<g fill="#000000">
	<circle cx="247" cy="273" r="4"/>
</g>
<g fill="#000000">
	<circle cx="385" cy="249" r="4"/>
</g>
<g fill="#000000">
	<circle cx="359" cy="294" r="4"/>
</g>
<g fill="#000000">
	<circle cx="128" cy="118" r="4"/>
</g>
<g fill="#000000">
	<circle cx="60" cy="100" r="4"/>
</g>
<g fill="#000000">
	<circle cx="175" cy="171" r="4"/>
</g>
<g fill="#000000">
	<circle cx="118" cy="53" r="4"/>
</g>
<g fill="#000000">
	<circle cx="58" cy="219" r="4"/>
</g>
<g fill="#000000">
	<circle cx="93" cy="175" r="4"/>
</g>
<g fill="#000000">
	<circle cx="247" cy="34" r="4"/>
</g>
<g fill="#000000">
	<circle cx="199" cy="75" r="4"/>
</g>
<g fill="#000000">
	<circle cx="351" cy="4" r="4"/>
</g>
<g fill="#000000">
	<circle cx="297" cy="10" r="4"/>
</g>
<g fill="#000000">
	<circle cx="14" cy="60" r="4"/>
</g>
<g fill="#000000">
	<circle cx="23" cy="5" r="4"/>
</g>

</g>

</svg>
