<?xml version="1.0" encoding="utf-8"?>
<!-- Created with Hypercube (http://tumic.wz.cz/hypercube) -->

<svg width="400" height="300" viewBox="0 0 400 300" xmlns="http://www.w3.org/2000/svg" baseProfile="tiny">

<g font-family="Helvetica" font-weight="normal">

<g>
	<polygon points="26,188 28,197 19,194" fill="#aaff00"/>
	<line x1="10" y1="238" x2="24" y2="195" stroke="#aaff00" stroke-width="2"/>
</g>
<g>
	<polygon points="64,147 62,155 56,149" fill="#aaff00"/>
	<line x1="28" y1="184" x2="59" y2="152" stroke="#aaff00" stroke-width="2"/>
</g>
<g>
	<polygon points="119,117 114,124 110,116" fill="#aaff00"/>
	<line x1="68" y1="144" x2="112" y2="120" stroke="#aaff00" stroke-width="2"/>
</g>
<g>
	<polygon points="181,143 172,143 176,135" fill="#aaff00"/>
	<line x1="123" y1="115" x2="175" y2="139" stroke="#aaff00" stroke-width="2"/>
</g>
<g>
	<polygon points="142,56 144,65 135,62" fill="#aaff00"/>
	<line x1="123" y1="115" x2="140" y2="63" stroke="#aaff00" stroke-width="2"/>
</g>
<g>
	<polygon points="211,99 211,108 203,104" fill="#aaff00"/>
	<line x1="186" y1="145" x2="208" y2="106" stroke="#aaff00" stroke-width="2"/>
</g>
<g>
	<polygon points="251,175 242,175 246,167" fill="#aaff00"/>
	<line x1="186" y1="145" x2="245" y2="172" stroke="#aaff00" stroke-width="2"/>
</g>
<g>
	<polygon points="273,81 267,87 264,78" fill="#aaff00"/>
	<line x1="214" y1="96" x2="266" y2="82" stroke="#aaff00" stroke-width="2"/>
</g>
<g>
	<polygon points="213,32 222,33 217,40" fill="#aaff00"/>
	<line x1="278" y1="80" x2="219" y2="36" stroke="#aaff00" stroke-width="2"/>
</g>
<g>
	<polygon points="317,186 310,181 318,177" fill="#aaff00"/>
	<line x1="278" y1="80" x2="314" y2="180" stroke="#aaff00" stroke-width="2"/>
</g>
<g>
	<polygon points="148,50 154,43 157,52" fill="#aaff00"/>
	<line x1="210" y1="30" x2="155" y2="48" stroke="#aaff00" stroke-width="2"/>
</g>
<g>
	<polygon points="347,242 340,237 347,233" fill="#aaff00"/>
	<line x1="319" y1="191" x2="344" y2="235" stroke="#aaff00" stroke-width="2"/>
</g>
<g>
	<polygon points="376,289 368,284 376,280" fill="#aaff00"/>
	<line x1="350" y1="246" x2="372" y2="283" stroke="#aaff00" stroke-width="2"/>
</g>
<g>
	<polygon points="276,84 278,93 269,90" fill="#aaff00"/>
	<line x1="260" y1="131" x2="274" y2="91" stroke="#aaff00" stroke-width="2"/>
</g>
<g>
	<polygon points="259,135 263,143 254,142" fill="#aaff00"/>
	<line x1="256" y1="177" x2="258" y2="142" stroke="#aaff00" stroke-width="2"/>
</g>
<g>
	<polygon points="354,142 348,149 345,140" fill="#aaff00"/>
	<line x1="256" y1="177" x2="347" y2="144" stroke="#aaff00" stroke-width="2"/>
</g>
<g>
	<polygon points="325,117 334,118 329,125" fill="#aaff00"/>
	<line x1="359" y1="141" x2="331" y2="121" stroke="#aaff00" stroke-width="2"/>
</g>
<g>
	<polygon points="389,76 389,85 381,81" fill="#aaff00"/>
	<line x1="359" y1="141" x2="386" y2="82" stroke="#aaff00" stroke-width="2"/>
</g>
<g>
	<polygon points="281,82 290,84 284,91" fill="#aaff00"/>
	<line x1="322" y1="115" x2="287" y2="87" stroke="#aaff00" stroke-width="2"/>
</g>
<g>
	<polygon points="341,60 349,58 348,67" fill="#aaff00"/>
	<line x1="391" y1="72" x2="348" y2="62" stroke="#aaff00" stroke-width="2"/>
</g>
<g>
	<polygon points="376,11 382,17 373,20" fill="#aaff00"/>
	<line x1="391" y1="72" x2="377" y2="18" stroke="#aaff00" stroke-width="2"/>
</g>
<g>
	<polygon points="282,78 288,71 291,80" fill="#aaff00"/>
	<line x1="337" y1="60" x2="289" y2="76" stroke="#aaff00" stroke-width="2"/>
</g>
<g>
	<polygon points="314,6 322,1 322,10" fill="#aaff00"/>
	<line x1="375" y1="7" x2="321" y2="6" stroke="#aaff00" stroke-width="2"/>
</g>
<g>
	<polygon points="279,75 278,66 287,70" fill="#aaff00"/>
	<line x1="310" y1="6" x2="282" y2="69" stroke="#aaff00" stroke-width="2"/>
</g>
<g>
	<polygon points="10,242 14,250 5,250" fill="#aaff00"/>
	<line x1="10" y1="294" x2="10" y2="249" stroke="#aaff00" stroke-width="2"/>
</g>

<g fill="#000000">
	<circle cx="9" cy="293" r="4"/>
</g>
<g fill="#000000">
	<circle cx="9" cy="237" r="4"/>
</g>
<g fill="#000000">
	<circle cx="27" cy="183" r="4"/>
</g>
<g fill="#000000">
	<circle cx="67" cy="143" r="4"/>
</g>
<g fill="#000000">
	<circle cx="122" cy="114" r="4"/>
</g>
<g fill="#000000">
	<circle cx="185" cy="144" r="4"/>
</g>
<g fill="#000000">
	<circle cx="213" cy="95" r="4"/>
</g>
<g fill="#000000">
	<circle cx="255" cy="176" r="4"/>
</g>
<g fill="#000000">
	<circle cx="277" cy="79" r="4"/>
</g>
<g fill="#000000">
	<circle cx="259" cy="130" r="4"/>
</g>
<g fill="#000000">
	<circle cx="358" cy="140" r="4"/>
</g>
<g fill="#000000">
	<circle cx="209" cy="29" r="4"/>
</g>
<g fill="#000000">
	<circle cx="318" cy="190" r="4"/>
</g>
<g fill="#000000">
	<circle cx="143" cy="51" r="4"/>
</g>
<g fill="#000000">
	<circle cx="349" cy="245" r="4"/>
</g>
<g fill="#000000">
	<circle cx="378" cy="292" r="4"/>
</g>
<g fill="#000000">
	<circle cx="321" cy="114" r="4"/>
</g>
<g fill="#000000">
	<circle cx="390" cy="71" r="4"/>
</g>
<g fill="#000000">
	<circle cx="336" cy="59" r="4"/>
</g>
<g fill="#000000">
	<circle cx="374" cy="6" r="4"/>
</g>
<g fill="#000000">
	<circle cx="309" cy="5" r="4"/>
</g>

</g>

</svg>
