<?xml version="1.0" encoding="utf-8"?>
<!-- Created with Hypercube (http://tumic.wz.cz/hypercube) -->

<svg width="400" height="300" viewBox="0 0 400 300" xmlns="http://www.w3.org/2000/svg" baseProfile="tiny">

<g font-family="Helvetica" font-weight="normal">

<g>
	<polygon points="257,289 249,291 250,282" fill="#aaff00"/>
	<line x1="208" y1="278" x2="250" y2="287" stroke="#aaff00" stroke-width="2"/>
</g>
<g>
	<polygon points="166,231 174,234 167,240" fill="#aaff00"/>
	<line x1="208" y1="278" x2="170" y2="236" stroke="#aaff00" stroke-width="2"/>
</g>
<g>
	<polygon points="105,235 112,229 113,238" fill="#aaff00"/>
	<line x1="163" y1="228" x2="112" y2="234" stroke="#aaff00" stroke-width="2"/>
</g>
<g>
	<polygon points="136,285 135,276 144,280" fill="#aaff00"/>
	<line x1="163" y1="228" x2="139" y2="279" stroke="#aaff00" stroke-width="2"/>
</g>
<g>
	<polygon points="206,204 201,211 197,204" fill="#aaff00"/>
	<line x1="163" y1="228" x2="199" y2="207" stroke="#aaff00" stroke-width="2"/>
</g>
<g>
	<polygon points="165,143 170,151 161,151" fill="#aaff00"/>
	<line x1="163" y1="228" x2="165" y2="150" stroke="#aaff00" stroke-width="2"/>
</g>
<g>
	<polygon points="263,129 256,134 255,125" fill="#aaff00"/>
	<line x1="166" y1="139" x2="256" y2="130" stroke="#aaff00" stroke-width="2"/>
</g>
<g>
	<polygon points="166,73 170,81 161,81" fill="#aaff00"/>
	<line x1="166" y1="139" x2="166" y2="80" stroke="#aaff00" stroke-width="2"/>
</g>
<g>
	<polygon points="79,139 87,135 87,144" fill="#aaff00"/>
	<line x1="166" y1="139" x2="86" y2="139" stroke="#aaff00" stroke-width="2"/>
</g>
<g>
	<polygon points="325,172 316,171 321,164" fill="#aaff00"/>
	<line x1="268" y1="129" x2="319" y2="167" stroke="#aaff00" stroke-width="2"/>
</g>
<g>
	<polygon points="308,75 307,84 300,79" fill="#aaff00"/>
	<line x1="268" y1="129" x2="303" y2="81" stroke="#aaff00" stroke-width="2"/>
</g>
<g>
	<polygon points="350,227 343,222 351,218" fill="#aaff00"/>
	<line x1="329" y1="175" x2="347" y2="221" stroke="#aaff00" stroke-width="2"/>
</g>
<g>
	<polygon points="386,168 379,173 378,164" fill="#aaff00"/>
	<line x1="329" y1="175" x2="379" y2="169" stroke="#aaff00" stroke-width="2"/>
</g>
<g>
	<polygon points="307,15 312,22 303,23" fill="#aaff00"/>
	<line x1="311" y1="72" x2="307" y2="22" stroke="#aaff00" stroke-width="2"/>
</g>
<g>
	<polygon points="366,57 360,63 357,54" fill="#aaff00"/>
	<line x1="311" y1="72" x2="359" y2="59" stroke="#aaff00" stroke-width="2"/>
</g>
<g>
	<polygon points="198,26 197,35 189,30" fill="#aaff00"/>
	<line x1="166" y1="69" x2="193" y2="32" stroke="#aaff00" stroke-width="2"/>
</g>
<g>
	<polygon points="126,27 134,29 128,35" fill="#aaff00"/>
	<line x1="166" y1="69" x2="131" y2="32" stroke="#aaff00" stroke-width="2"/>
</g>
<g>
	<polygon points="61,84 67,90 58,93" fill="#aaff00"/>
	<line x1="75" y1="140" x2="62" y2="91" stroke="#aaff00" stroke-width="2"/>
</g>
<g>
	<polygon points="40,182 42,173 49,179" fill="#aaff00"/>
	<line x1="75" y1="140" x2="45" y2="176" stroke="#aaff00" stroke-width="2"/>
</g>
<g>
	<polygon points="14,127 22,124 21,133" fill="#aaff00"/>
	<line x1="75" y1="140" x2="21" y2="129" stroke="#aaff00" stroke-width="2"/>
</g>

<g fill="#000000">
	<circle cx="207" cy="277" r="4"/>
</g>
<g fill="#000000">
	<circle cx="261" cy="289" r="4"/>
</g>
<g fill="#000000">
	<circle cx="162" cy="227" r="4"/>
</g>
<g fill="#000000">
	<circle cx="100" cy="235" r="4"/>
</g>
<g fill="#000000">
	<circle cx="134" cy="289" r="4"/>
</g>
<g fill="#000000">
	<circle cx="209" cy="201" r="4"/>
</g>
<g fill="#000000">
	<circle cx="165" cy="138" r="4"/>
</g>
<g fill="#000000">
	<circle cx="267" cy="128" r="4"/>
</g>
<g fill="#000000">
	<circle cx="165" cy="68" r="4"/>
</g>
<g fill="#000000">
	<circle cx="74" cy="139" r="4"/>
</g>
<g fill="#000000">
	<circle cx="328" cy="174" r="4"/>
</g>
<g fill="#000000">
	<circle cx="310" cy="71" r="4"/>
</g>
<g fill="#000000">
	<circle cx="200" cy="22" r="4"/>
</g>
<g fill="#000000">
	<circle cx="122" cy="23" r="4"/>
</g>
<g fill="#000000">
	<circle cx="59" cy="79" r="4"/>
</g>
<g fill="#000000">
	<circle cx="37" cy="185" r="4"/>
</g>
<g fill="#000000">
	<circle cx="9" cy="126" r="4"/>
</g>
<g fill="#000000">
	<circle cx="351" cy="231" r="4"/>
</g>
<g fill="#000000">
	<circle cx="390" cy="167" r="4"/>
</g>
<g fill="#000000">
	<circle cx="306" cy="10" r="4"/>
</g>
<g fill="#000000">
	<circle cx="370" cy="55" r="4"/>
</g>

</g>

</svg>
