<?xml version="1.0" encoding="utf-8"?>
<!-- Created with Hypercube (http://tumic.wz.cz/hypercube) -->

<svg width="400" height="300" viewBox="0 0 400 300" xmlns="http://www.w3.org/2000/svg" baseProfile="tiny">

<g font-family="Helvetica" font-weight="normal">

<g>
	<polygon points="243,240 235,245 235,236" fill="#aaff00"/>
	<line x1="130" y1="238" x2="236" y2="240" stroke="#aaff00" stroke-width="2"/>
</g>
<g>
	<polygon points="205,196 200,203 196,196" fill="#aaff00"/>
	<line x1="130" y1="238" x2="198" y2="199" stroke="#aaff00" stroke-width="2"/>
</g>
<g>
	<polygon points="89,159 96,164 88,168" fill="#aaff00"/>
	<line x1="130" y1="238" x2="92" y2="166" stroke="#aaff00" stroke-width="2"/>
</g>
<g>
	<polygon points="211,197 220,200 213,206" fill="#aaff00"/>
	<line x1="248" y1="241" x2="216" y2="202" stroke="#aaff00" stroke-width="2"/>
</g>
<g>
	<polygon points="213,240 221,235 221,244" fill="#aaff00"/>
	<line x1="248" y1="241" x2="220" y2="240" stroke="#aaff00" stroke-width="2"/>
</g>
<g>
	<polygon points="280,151 282,160 273,157" fill="#aaff00"/>
	<line x1="248" y1="241" x2="278" y2="157" stroke="#aaff00" stroke-width="2"/>
</g>
<g>
	<polygon points="167,156 175,158 169,165" fill="#aaff00"/>
	<line x1="248" y1="241" x2="172" y2="161" stroke="#aaff00" stroke-width="2"/>
</g>
<g>
	<polygon points="261,203 263,212 254,209" fill="#aaff00"/>
	<line x1="248" y1="241" x2="259" y2="210" stroke="#aaff00" stroke-width="2"/>
</g>
<g>
	<polygon points="259,290 252,283 261,282" fill="#aaff00"/>
	<line x1="248" y1="241" x2="257" y2="283" stroke="#aaff00" stroke-width="2"/>
</g>
<g>
	<polygon points="312,268 303,269 307,261" fill="#aaff00"/>
	<line x1="248" y1="241" x2="306" y2="265" stroke="#aaff00" stroke-width="2"/>
</g>
<g>
	<polygon points="278,149 274,157 269,149" fill="#aaff00"/>
	<line x1="209" y1="194" x2="272" y2="153" stroke="#aaff00" stroke-width="2"/>
</g>
<g>
	<polygon points="167,156 176,157 170,164" fill="#aaff00"/>
	<line x1="209" y1="194" x2="172" y2="160" stroke="#aaff00" stroke-width="2"/>
</g>
<g>
	<polygon points="258,198 250,202 251,193" fill="#aaff00"/>
	<line x1="209" y1="194" x2="251" y2="197" stroke="#aaff00" stroke-width="2"/>
</g>
<g>
	<polygon points="227,149 228,158 220,154" fill="#aaff00"/>
	<line x1="209" y1="194" x2="224" y2="155" stroke="#aaff00" stroke-width="2"/>
</g>
<g>
	<polygon points="309,92 310,101 302,97" fill="#aaff00"/>
	<line x1="282" y1="147" x2="306" y2="99" stroke="#aaff00" stroke-width="2"/>
</g>
<g>
	<polygon points="345,152 337,156 338,147" fill="#aaff00"/>
	<line x1="282" y1="147" x2="338" y2="151" stroke="#aaff00" stroke-width="2"/>
</g>
<g>
	<polygon points="277,145 268,145 272,137" fill="#aaff00"/>
	<line x1="197" y1="106" x2="271" y2="141" stroke="#aaff00" stroke-width="2"/>
</g>
<g>
	<polygon points="192,107 187,115 183,106" fill="#aaff00"/>
	<line x1="87" y1="156" x2="186" y2="110" stroke="#aaff00" stroke-width="2"/>
</g>
<g>
	<polygon points="120,140 115,148 111,139" fill="#aaff00"/>
	<line x1="87" y1="156" x2="114" y2="143" stroke="#aaff00" stroke-width="2"/>
</g>
<g>
	<polygon points="104,190 97,185 105,181" fill="#aaff00"/>
	<line x1="87" y1="156" x2="101" y2="183" stroke="#aaff00" stroke-width="2"/>
</g>
<g>
	<polygon points="159,151 150,153 153,144" fill="#aaff00"/>
	<line x1="125" y1="139" x2="152" y2="149" stroke="#aaff00" stroke-width="2"/>
</g>
<g>
	<polygon points="163,64 167,72 158,72" fill="#aaff00"/>
	<line x1="164" y1="153" x2="163" y2="71" stroke="#aaff00" stroke-width="2"/>
</g>
<g>
	<polygon points="96,86 104,88 98,94" fill="#aaff00"/>
	<line x1="164" y1="153" x2="101" y2="91" stroke="#aaff00" stroke-width="2"/>
</g>
<g>
	<polygon points="170,9 173,17 164,16" fill="#aaff00"/>
	<line x1="163" y1="60" x2="169" y2="16" stroke="#aaff00" stroke-width="2"/>
</g>
<g>
	<polygon points="53,39 62,42 55,48" fill="#aaff00"/>
	<line x1="93" y1="83" x2="58" y2="44" stroke="#aaff00" stroke-width="2"/>
</g>
<g>
	<polygon points="160,155 156,163 151,156" fill="#aaff00"/>
	<line x1="107" y1="194" x2="154" y2="159" stroke="#aaff00" stroke-width="2"/>
</g>
<g>
	<polygon points="209,198 213,206 204,206" fill="#aaff00"/>
	<line x1="209" y1="240" x2="209" y2="205" stroke="#aaff00" stroke-width="2"/>
</g>
<g>
	<polygon points="175,239 183,234 183,243" fill="#aaff00"/>
	<line x1="209" y1="240" x2="182" y2="239" stroke="#aaff00" stroke-width="2"/>
</g>
<g>
	<polygon points="206,197 204,206 197,200" fill="#aaff00"/>
	<line x1="171" y1="239" x2="201" y2="202" stroke="#aaff00" stroke-width="2"/>
</g>

<g fill="#000000">
	<circle cx="129" cy="237" r="4"/>
</g>
<g fill="#000000">
	<circle cx="247" cy="240" r="4"/>
</g>
<g fill="#000000">
	<circle cx="208" cy="193" r="4"/>
</g>
<g fill="#000000">
	<circle cx="86" cy="155" r="4"/>
</g>
<g fill="#000000">
	<circle cx="208" cy="239" r="4"/>
</g>
<g fill="#000000">
	<circle cx="281" cy="146" r="4"/>
</g>
<g fill="#000000">
	<circle cx="163" cy="152" r="4"/>
</g>
<g fill="#000000">
	<circle cx="262" cy="198" r="4"/>
</g>
<g fill="#000000">
	<circle cx="259" cy="294" r="4"/>
</g>
<g fill="#000000">
	<circle cx="316" cy="269" r="4"/>
</g>
<g fill="#000000">
	<circle cx="228" cy="144" r="4"/>
</g>
<g fill="#000000">
	<circle cx="196" cy="105" r="4"/>
</g>
<g fill="#000000">
	<circle cx="124" cy="138" r="4"/>
</g>
<g fill="#000000">
	<circle cx="106" cy="193" r="4"/>
</g>
<g fill="#000000">
	<circle cx="170" cy="238" r="4"/>
</g>
<g fill="#000000">
	<circle cx="311" cy="88" r="4"/>
</g>
<g fill="#000000">
	<circle cx="349" cy="152" r="4"/>
</g>
<g fill="#000000">
	<circle cx="162" cy="59" r="4"/>
</g>
<g fill="#000000">
	<circle cx="92" cy="82" r="4"/>
</g>
<g fill="#000000">
	<circle cx="170" cy="4" r="4"/>
</g>
<g fill="#000000">
	<circle cx="50" cy="35" r="4"/>
</g>

</g>

</svg>
