<?xml version="1.0" encoding="utf-8"?>
<!-- Created with Hypercube (http://tumic.wz.cz/hypercube) -->

<svg width="400" height="300" viewBox="0 0 400 300" xmlns="http://www.w3.org/2000/svg" baseProfile="tiny">

<g font-family="Helvetica" font-weight="normal">

<g>
	<polygon points="171,239 179,235 178,244" fill="#aaff00"/>
	<line x1="218" y1="244" x2="178" y2="240" stroke="#aaff00" stroke-width="2"/>
</g>
<g>
	<polygon points="181,176 188,181 180,185" fill="#aaff00"/>
	<line x1="218" y1="244" x2="184" y2="183" stroke="#aaff00" stroke-width="2"/>
</g>
<g>
	<polygon points="178,177 181,185 172,184" fill="#aaff00"/>
	<line x1="167" y1="239" x2="176" y2="184" stroke="#aaff00" stroke-width="2"/>
</g>
<g>
	<polygon points="183,173 191,170 190,179" fill="#aaff00"/>
	<line x1="269" y1="186" x2="190" y2="174" stroke="#aaff00" stroke-width="2"/>
</g>
<g>
	<polygon points="271,182 271,173 279,178" fill="#aaff00"/>
	<line x1="317" y1="112" x2="275" y2="176" stroke="#aaff00" stroke-width="2"/>
</g>
<g>
	<polygon points="357,69 355,77 349,71" fill="#aaff00"/>
	<line x1="317" y1="112" x2="352" y2="74" stroke="#aaff00" stroke-width="2"/>
</g>
<g>
	<polygon points="327,157 320,150 329,149" fill="#aaff00"/>
	<line x1="317" y1="112" x2="325" y2="150" stroke="#aaff00" stroke-width="2"/>
</g>
<g>
	<polygon points="332,223 327,216 336,215" fill="#aaff00"/>
	<line x1="328" y1="162" x2="332" y2="216" stroke="#aaff00" stroke-width="2"/>
</g>
<g>
	<polygon points="286,262 290,254 295,261" fill="#aaff00"/>
	<line x1="333" y1="228" x2="292" y2="258" stroke="#aaff00" stroke-width="2"/>
</g>
<g>
	<polygon points="222,245 231,243 228,252" fill="#aaff00"/>
	<line x1="283" y1="265" x2="229" y2="247" stroke="#aaff00" stroke-width="2"/>
</g>
<g>
	<polygon points="312,110 303,113 306,104" fill="#aaff00"/>
	<line x1="249" y1="94" x2="305" y2="109" stroke="#aaff00" stroke-width="2"/>
</g>
<g>
	<polygon points="324,159 315,157 321,150" fill="#aaff00"/>
	<line x1="249" y1="94" x2="319" y2="154" stroke="#aaff00" stroke-width="2"/>
</g>
<g>
	<polygon points="261,132 254,126 263,123" fill="#aaff00"/>
	<line x1="249" y1="94" x2="259" y2="125" stroke="#aaff00" stroke-width="2"/>
</g>
<g>
	<polygon points="221,150 221,141 229,145" fill="#aaff00"/>
	<line x1="249" y1="94" x2="225" y2="144" stroke="#aaff00" stroke-width="2"/>
</g>
<g>
	<polygon points="206,72 215,72 211,80" fill="#aaff00"/>
	<line x1="249" y1="94" x2="212" y2="76" stroke="#aaff00" stroke-width="2"/>
</g>
<g>
	<polygon points="196,115 201,108 205,116" fill="#aaff00"/>
	<line x1="249" y1="94" x2="202" y2="112" stroke="#aaff00" stroke-width="2"/>
</g>
<g>
	<polygon points="183,171 188,164 192,172" fill="#aaff00"/>
	<line x1="263" y1="137" x2="189" y2="168" stroke="#aaff00" stroke-width="2"/>
</g>
<g>
	<polygon points="183,171 188,163 192,172" fill="#aaff00"/>
	<line x1="220" y1="155" x2="189" y2="168" stroke="#aaff00" stroke-width="2"/>
</g>
<g>
	<polygon points="179,168 177,160 186,161" fill="#aaff00"/>
	<line x1="202" y1="71" x2="181" y2="161" stroke="#aaff00" stroke-width="2"/>
</g>
<g>
	<polygon points="180,168 177,160 186,162" fill="#aaff00"/>
	<line x1="192" y1="117" x2="181" y2="161" stroke="#aaff00" stroke-width="2"/>
</g>
<g>
	<polygon points="245,91 236,91 240,83" fill="#aaff00"/>
	<line x1="157" y1="36" x2="239" y2="87" stroke="#aaff00" stroke-width="2"/>
</g>
<g>
	<polygon points="152,37 146,44 143,35" fill="#aaff00"/>
	<line x1="91" y1="59" x2="145" y2="39" stroke="#aaff00" stroke-width="2"/>
</g>
<g>
	<polygon points="86,60 81,67 77,59" fill="#aaff00"/>
	<line x1="41" y1="78" x2="80" y2="63" stroke="#aaff00" stroke-width="2"/>
</g>
<g>
	<polygon points="43,81 51,85 44,90" fill="#aaff00"/>
	<line x1="76" y1="127" x2="47" y2="87" stroke="#aaff00" stroke-width="2"/>
</g>
<g>
	<polygon points="90,63 92,71 83,70" fill="#aaff00"/>
	<line x1="76" y1="127" x2="88" y2="70" stroke="#aaff00" stroke-width="2"/>
</g>
<g>
	<polygon points="120,177 111,174 118,168" fill="#aaff00"/>
	<line x1="76" y1="127" x2="115" y2="172" stroke="#aaff00" stroke-width="2"/>
</g>
<g>
	<polygon points="74,185 69,177 78,177" fill="#aaff00"/>
	<line x1="76" y1="127" x2="74" y2="178" stroke="#aaff00" stroke-width="2"/>
</g>
<g>
	<polygon points="123,123 116,128 115,119" fill="#aaff00"/>
	<line x1="76" y1="127" x2="116" y2="123" stroke="#aaff00" stroke-width="2"/>
</g>
<g>
	<polygon points="174,173 167,179 166,170" fill="#aaff00"/>
	<line x1="123" y1="181" x2="167" y2="174" stroke="#aaff00" stroke-width="2"/>
</g>
<g>
	<polygon points="174,173 167,179 166,170" fill="#aaff00"/>
	<line x1="74" y1="190" x2="167" y2="174" stroke="#aaff00" stroke-width="2"/>
</g>
<g>
	<polygon points="175,169 167,167 173,161" fill="#aaff00"/>
	<line x1="128" y1="123" x2="170" y2="164" stroke="#aaff00" stroke-width="2"/>
</g>

<g fill="#000000">
	<circle cx="217" cy="243" r="4"/>
</g>
<g fill="#000000">
	<circle cx="166" cy="238" r="4"/>
</g>
<g fill="#000000">
	<circle cx="178" cy="172" r="4"/>
</g>
<g fill="#000000">
	<circle cx="268" cy="185" r="4"/>
</g>
<g fill="#000000">
	<circle cx="360" cy="65" r="4"/>
</g>
<g fill="#000000">
	<circle cx="40" cy="77" r="4"/>
</g>
<g fill="#000000">
	<circle cx="90" cy="58" r="4"/>
</g>
<g fill="#000000">
	<circle cx="156" cy="35" r="4"/>
</g>
<g fill="#000000">
	<circle cx="316" cy="111" r="4"/>
</g>
<g fill="#000000">
	<circle cx="327" cy="161" r="4"/>
</g>
<g fill="#000000">
	<circle cx="332" cy="227" r="4"/>
</g>
<g fill="#000000">
	<circle cx="75" cy="126" r="4"/>
</g>
<g fill="#000000">
	<circle cx="122" cy="180" r="4"/>
</g>
<g fill="#000000">
	<circle cx="73" cy="189" r="4"/>
</g>
<g fill="#000000">
	<circle cx="127" cy="122" r="4"/>
</g>
<g fill="#000000">
	<circle cx="248" cy="93" r="4"/>
</g>
<g fill="#000000">
	<circle cx="262" cy="136" r="4"/>
</g>
<g fill="#000000">
	<circle cx="219" cy="154" r="4"/>
</g>
<g fill="#000000">
	<circle cx="201" cy="70" r="4"/>
</g>
<g fill="#000000">
	<circle cx="191" cy="116" r="4"/>
</g>
<g fill="#000000">
	<circle cx="282" cy="264" r="4"/>
</g>

</g>

</svg>
