<?xml version="1.0" encoding="utf-8"?>
<!-- Created with Hypercube (http://tumic.wz.cz/hypercube) -->

<svg width="400" height="300" viewBox="0 0 400 300" xmlns="http://www.w3.org/2000/svg" baseProfile="tiny">

<g font-family="Helvetica" font-weight="normal">

<g>
	<polygon points="391,100 382,99 387,92" fill="#aaff00"/>
	<line x1="347" y1="68" x2="385" y2="96" stroke="#aaff00" stroke-width="2"/>
</g>
<g>
	<polygon points="395,158 390,150 399,150" fill="#aaff00"/>
	<line x1="395" y1="103" x2="395" y2="151" stroke="#aaff00" stroke-width="2"/>
</g>
<g>
	<polygon points="395,215 390,207 399,207" fill="#aaff00"/>
	<line x1="395" y1="163" x2="395" y2="208" stroke="#aaff00" stroke-width="2"/>
</g>
<g>
	<polygon points="342,68 335,74 334,65" fill="#aaff00"/>
	<line x1="284" y1="78" x2="335" y2="69" stroke="#aaff00" stroke-width="2"/>
</g>
<g>
	<polygon points="231,103 236,95 240,103" fill="#aaff00"/>
	<line x1="284" y1="78" x2="237" y2="99" stroke="#aaff00" stroke-width="2"/>
</g>
<g>
	<polygon points="292,130 286,123 295,122" fill="#aaff00"/>
	<line x1="284" y1="78" x2="291" y2="123" stroke="#aaff00" stroke-width="2"/>
</g>
<g>
	<polygon points="262,26 269,31 261,35" fill="#aaff00"/>
	<line x1="284" y1="78" x2="265" y2="32" stroke="#aaff00" stroke-width="2"/>
</g>
<g>
	<polygon points="181,136 185,128 190,135" fill="#aaff00"/>
	<line x1="227" y1="105" x2="187" y2="132" stroke="#aaff00" stroke-width="2"/>
</g>
<g>
	<polygon points="135,172 138,163 144,170" fill="#aaff00"/>
	<line x1="178" y1="139" x2="141" y2="167" stroke="#aaff00" stroke-width="2"/>
</g>
<g>
	<polygon points="85,213 88,204 94,211" fill="#aaff00"/>
	<line x1="132" y1="175" x2="91" y2="208" stroke="#aaff00" stroke-width="2"/>
</g>
<g>
	<polygon points="211,6 220,4 217,12" fill="#aaff00"/>
	<line x1="261" y1="22" x2="218" y2="8" stroke="#aaff00" stroke-width="2"/>
</g>
<g>
	<polygon points="159,5 167,0 167,9" fill="#aaff00"/>
	<line x1="207" y1="5" x2="166" y2="5" stroke="#aaff00" stroke-width="2"/>
</g>
<g>
	<polygon points="191,289 182,287 188,280" fill="#aaff00"/>
	<line x1="150" y1="252" x2="186" y2="284" stroke="#aaff00" stroke-width="2"/>
</g>
<g>
	<polygon points="30,100 38,105 30,109" fill="#aaff00"/>
	<line x1="59" y1="147" x2="34" y2="106" stroke="#aaff00" stroke-width="2"/>
</g>
<g>
	<polygon points="7,291 8,282 15,287" fill="#aaff00"/>
	<line x1="34" y1="253" x2="11" y2="285" stroke="#aaff00" stroke-width="2"/>
</g>
<g>
	<polygon points="90,273 84,266 93,265" fill="#aaff00"/>
	<line x1="82" y1="216" x2="89" y2="266" stroke="#aaff00" stroke-width="2"/>
</g>
<g>
	<polygon points="17,201 25,198 23,207" fill="#aaff00"/>
	<line x1="82" y1="216" x2="24" y2="202" stroke="#aaff00" stroke-width="2"/>
</g>
<g>
	<polygon points="146,249 137,250 141,242" fill="#aaff00"/>
	<line x1="82" y1="216" x2="139" y2="246" stroke="#aaff00" stroke-width="2"/>
</g>
<g>
	<polygon points="60,151 67,157 58,160" fill="#aaff00"/>
	<line x1="82" y1="216" x2="62" y2="158" stroke="#aaff00" stroke-width="2"/>
</g>
<g>
	<polygon points="37,250 40,241 46,249" fill="#aaff00"/>
	<line x1="82" y1="216" x2="43" y2="245" stroke="#aaff00" stroke-width="2"/>
</g>

<g fill="#000000">
	<circle cx="346" cy="67" r="4"/>
</g>
<g fill="#000000">
	<circle cx="394" cy="102" r="4"/>
</g>
<g fill="#000000">
	<circle cx="131" cy="174" r="4"/>
</g>
<g fill="#000000">
	<circle cx="81" cy="215" r="4"/>
</g>
<g fill="#000000">
	<circle cx="177" cy="138" r="4"/>
</g>
<g fill="#000000">
	<circle cx="226" cy="104" r="4"/>
</g>
<g fill="#000000">
	<circle cx="90" cy="277" r="4"/>
</g>
<g fill="#000000">
	<circle cx="394" cy="162" r="4"/>
</g>
<g fill="#000000">
	<circle cx="394" cy="219" r="4"/>
</g>
<g fill="#000000">
	<circle cx="12" cy="199" r="4"/>
</g>
<g fill="#000000">
	<circle cx="292" cy="134" r="4"/>
</g>
<g fill="#000000">
	<circle cx="206" cy="4" r="4"/>
</g>
<g fill="#000000">
	<circle cx="154" cy="4" r="4"/>
</g>
<g fill="#000000">
	<circle cx="260" cy="21" r="4"/>
</g>
<g fill="#000000">
	<circle cx="149" cy="251" r="4"/>
</g>
<g fill="#000000">
	<circle cx="194" cy="291" r="4"/>
</g>
<g fill="#000000">
	<circle cx="58" cy="146" r="4"/>
</g>
<g fill="#000000">
	<circle cx="27" cy="96" r="4"/>
</g>
<g fill="#000000">
	<circle cx="33" cy="252" r="4"/>
</g>
<g fill="#000000">
	<circle cx="4" cy="294" r="4"/>
</g>
<g fill="#000000">
	<circle cx="283" cy="77" r="4"/>
</g>

</g>

</svg>
