<?xml version="1.0" encoding="utf-8"?>
<!-- Created with Hypercube (http://tumic.wz.cz/hypercube) -->

<svg width="400" height="300" viewBox="0 0 400 300" xmlns="http://www.w3.org/2000/svg" baseProfile="tiny">

<g font-family="Helvetica" font-weight="normal">

<g>
	<polygon points="316,172 307,170 313,163" fill="#aaff00"/>
	<line x1="225" y1="92" x2="311" y2="167" stroke="#aaff00" stroke-width="2"/>
</g>
<g>
	<polygon points="163,151 165,143 171,149" fill="#aaff00"/>
	<line x1="225" y1="92" x2="168" y2="146" stroke="#aaff00" stroke-width="2"/>
</g>
<g>
	<polygon points="283,40 280,49 274,42" fill="#aaff00"/>
	<line x1="225" y1="92" x2="278" y2="45" stroke="#aaff00" stroke-width="2"/>
</g>
<g>
	<polygon points="274,97 266,101 267,92" fill="#aaff00"/>
	<line x1="225" y1="92" x2="267" y2="96" stroke="#aaff00" stroke-width="2"/>
</g>
<g>
	<polygon points="229,28 233,36 224,35" fill="#aaff00"/>
	<line x1="225" y1="92" x2="229" y2="35" stroke="#aaff00" stroke-width="2"/>
</g>
<g>
	<polygon points="113,191 116,182 122,189" fill="#aaff00"/>
	<line x1="160" y1="155" x2="119" y2="186" stroke="#aaff00" stroke-width="2"/>
</g>
<g>
	<polygon points="225,96 230,103 221,104" fill="#aaff00"/>
	<line x1="232" y1="155" x2="226" y2="103" stroke="#aaff00" stroke-width="2"/>
</g>
<g>
	<polygon points="230,159 232,168 223,165" fill="#aaff00"/>
	<line x1="216" y1="205" x2="228" y2="166" stroke="#aaff00" stroke-width="2"/>
</g>
<g>
	<polygon points="220,91 212,96 212,87" fill="#aaff00"/>
	<line x1="154" y1="90" x2="213" y2="91" stroke="#aaff00" stroke-width="2"/>
</g>
<g>
	<polygon points="149,91 143,97 140,88" fill="#aaff00"/>
	<line x1="93" y1="105" x2="142" y2="92" stroke="#aaff00" stroke-width="2"/>
</g>
<g>
	<polygon points="222,88 213,85 220,79" fill="#aaff00"/>
	<line x1="169" y1="27" x2="217" y2="83" stroke="#aaff00" stroke-width="2"/>
</g>
<g>
	<polygon points="164,25 155,27 158,18" fill="#aaff00"/>
	<line x1="112" y1="7" x2="157" y2="23" stroke="#aaff00" stroke-width="2"/>
</g>
<g>
	<polygon points="61,5 69,0 69,9" fill="#aaff00"/>
	<line x1="112" y1="7" x2="68" y2="5" stroke="#aaff00" stroke-width="2"/>
</g>
<g>
	<polygon points="15,30 20,22 24,30" fill="#aaff00"/>
	<line x1="57" y1="5" x2="21" y2="26" stroke="#aaff00" stroke-width="2"/>
</g>
<g>
	<polygon points="259,291 260,282 267,287" fill="#aaff00"/>
	<line x1="293" y1="246" x2="263" y2="285" stroke="#aaff00" stroke-width="2"/>
</g>
<g>
	<polygon points="202,295 210,290 210,299" fill="#aaff00"/>
	<line x1="257" y1="295" x2="209" y2="295" stroke="#aaff00" stroke-width="2"/>
</g>
<g>
	<polygon points="294,241 293,232 301,236" fill="#aaff00"/>
	<line x1="320" y1="175" x2="297" y2="235" stroke="#aaff00" stroke-width="2"/>
</g>
<g>
	<polygon points="351,228 343,223 351,219" fill="#aaff00"/>
	<line x1="320" y1="175" x2="348" y2="221" stroke="#aaff00" stroke-width="2"/>
</g>
<g>
	<polygon points="355,129 354,138 346,132" fill="#aaff00"/>
	<line x1="320" y1="175" x2="350" y2="135" stroke="#aaff00" stroke-width="2"/>
</g>
<g>
	<polygon points="383,180 375,184 376,175" fill="#aaff00"/>
	<line x1="320" y1="175" x2="376" y2="179" stroke="#aaff00" stroke-width="2"/>
</g>

<g fill="#000000">
	<circle cx="224" cy="91" r="4"/>
</g>
<g fill="#000000">
	<circle cx="319" cy="174" r="4"/>
</g>
<g fill="#000000">
	<circle cx="159" cy="154" r="4"/>
</g>
<g fill="#000000">
	<circle cx="286" cy="37" r="4"/>
</g>
<g fill="#000000">
	<circle cx="278" cy="97" r="4"/>
</g>
<g fill="#000000">
	<circle cx="229" cy="23" r="4"/>
</g>
<g fill="#000000">
	<circle cx="11" cy="32" r="4"/>
</g>
<g fill="#000000">
	<circle cx="292" cy="245" r="4"/>
</g>
<g fill="#000000">
	<circle cx="256" cy="294" r="4"/>
</g>
<g fill="#000000">
	<circle cx="197" cy="294" r="4"/>
</g>
<g fill="#000000">
	<circle cx="353" cy="231" r="4"/>
</g>
<g fill="#000000">
	<circle cx="215" cy="204" r="4"/>
</g>
<g fill="#000000">
	<circle cx="231" cy="154" r="4"/>
</g>
<g fill="#000000">
	<circle cx="92" cy="104" r="4"/>
</g>
<g fill="#000000">
	<circle cx="153" cy="89" r="4"/>
</g>
<g fill="#000000">
	<circle cx="357" cy="125" r="4"/>
</g>
<g fill="#000000">
	<circle cx="111" cy="6" r="4"/>
</g>
<g fill="#000000">
	<circle cx="168" cy="26" r="4"/>
</g>
<g fill="#000000">
	<circle cx="56" cy="4" r="4"/>
</g>
<g fill="#000000">
	<circle cx="109" cy="193" r="4"/>
</g>
<g fill="#000000">
	<circle cx="387" cy="180" r="4"/>
</g>

</g>

</svg>
