<?xml version="1.0" encoding="utf-8"?>
<!-- Created with Hypercube (http://tumic.wz.cz/hypercube) -->

<svg width="400" height="300" viewBox="0 0 400 300" xmlns="http://www.w3.org/2000/svg" baseProfile="tiny">

<g font-family="Helvetica" font-weight="normal">

<g>
	<polygon points="147,233 146,242 139,237" fill="#aaff00"/>
	<line x1="132" y1="256" x2="143" y2="239" stroke="#aaff00" stroke-width="2"/>
</g>
<g>
	<polygon points="200,157 199,166 192,161" fill="#aaff00"/>
	<line x1="132" y1="256" x2="196" y2="163" stroke="#aaff00" stroke-width="2"/>
</g>
<g>
	<polygon points="200,157 199,166 192,161" fill="#aaff00"/>
	<line x1="150" y1="230" x2="196" y2="163" stroke="#aaff00" stroke-width="2"/>
</g>
<g>
	<polygon points="199,156 195,164 190,157" fill="#aaff00"/>
	<line x1="177" y1="173" x2="193" y2="160" stroke="#aaff00" stroke-width="2"/>
</g>
<g>
	<polygon points="134,252 135,243 142,248" fill="#aaff00"/>
	<line x1="169" y1="202" x2="138" y2="246" stroke="#aaff00" stroke-width="2"/>
</g>
<g>
	<polygon points="152,226 153,217 160,222" fill="#aaff00"/>
	<line x1="169" y1="202" x2="156" y2="220" stroke="#aaff00" stroke-width="2"/>
</g>
<g>
	<polygon points="200,157 199,166 192,161" fill="#aaff00"/>
	<line x1="169" y1="202" x2="196" y2="163" stroke="#aaff00" stroke-width="2"/>
</g>
<g>
	<polygon points="175,177 178,186 169,183" fill="#aaff00"/>
	<line x1="169" y1="202" x2="173" y2="184" stroke="#aaff00" stroke-width="2"/>
</g>
<g>
	<polygon points="74,237 79,230 83,238" fill="#aaff00"/>
	<line x1="169" y1="202" x2="80" y2="234" stroke="#aaff00" stroke-width="2"/>
</g>
<g>
	<polygon points="153,152 159,158 151,161" fill="#aaff00"/>
	<line x1="169" y1="202" x2="155" y2="159" stroke="#aaff00" stroke-width="2"/>
</g>
<g>
	<polygon points="115,146 123,148 117,154" fill="#aaff00"/>
	<line x1="169" y1="202" x2="120" y2="151" stroke="#aaff00" stroke-width="2"/>
</g>
<g>
	<polygon points="118,192 126,189 125,198" fill="#aaff00"/>
	<line x1="169" y1="202" x2="125" y2="194" stroke="#aaff00" stroke-width="2"/>
</g>
<g>
	<polygon points="198,153 190,157 191,148" fill="#aaff00"/>
	<line x1="152" y1="148" x2="191" y2="152" stroke="#aaff00" stroke-width="2"/>
</g>
<g>
	<polygon points="116,143 124,140 123,148" fill="#aaff00"/>
	<line x1="152" y1="148" x2="123" y2="144" stroke="#aaff00" stroke-width="2"/>
</g>
<g>
	<polygon points="198,153 190,156 191,148" fill="#aaff00"/>
	<line x1="112" y1="143" x2="191" y2="152" stroke="#aaff00" stroke-width="2"/>
</g>
<g>
	<polygon points="113,187 109,179 117,179" fill="#aaff00"/>
	<line x1="112" y1="143" x2="113" y2="180" stroke="#aaff00" stroke-width="2"/>
</g>
<g>
	<polygon points="130,251 124,245 133,242" fill="#aaff00"/>
	<line x1="114" y1="192" x2="128" y2="244" stroke="#aaff00" stroke-width="2"/>
</g>
<g>
	<polygon points="198,155 193,162 189,154" fill="#aaff00"/>
	<line x1="114" y1="192" x2="192" y2="158" stroke="#aaff00" stroke-width="2"/>
</g>
<g>
	<polygon points="207,155 216,153 213,162" fill="#aaff00"/>
	<line x1="260" y1="173" x2="214" y2="157" stroke="#aaff00" stroke-width="2"/>
</g>
<g>
	<polygon points="173,200 179,193 182,202" fill="#aaff00"/>
	<line x1="260" y1="173" x2="180" y2="198" stroke="#aaff00" stroke-width="2"/>
</g>
<g>
	<polygon points="279,137 279,146 272,142" fill="#aaff00"/>
	<line x1="260" y1="173" x2="276" y2="144" stroke="#aaff00" stroke-width="2"/>
</g>
<g>
	<polygon points="270,220 264,213 272,212" fill="#aaff00"/>
	<line x1="260" y1="173" x2="268" y2="213" stroke="#aaff00" stroke-width="2"/>
</g>
<g>
	<polygon points="235,181 241,174 244,183" fill="#aaff00"/>
	<line x1="260" y1="173" x2="242" y2="179" stroke="#aaff00" stroke-width="2"/>
</g>
<g>
	<polygon points="290,164 284,170 281,162" fill="#aaff00"/>
	<line x1="260" y1="173" x2="283" y2="166" stroke="#aaff00" stroke-width="2"/>
</g>
<g>
	<polygon points="156,149 164,146 162,155" fill="#aaff00"/>
	<line x1="260" y1="173" x2="163" y2="150" stroke="#aaff00" stroke-width="2"/>
</g>
<g>
	<polygon points="207,152 213,146 216,155" fill="#aaff00"/>
	<line x1="282" y1="134" x2="214" y2="151" stroke="#aaff00" stroke-width="2"/>
</g>
<g>
	<polygon points="287,92 295,96 288,101" fill="#aaff00"/>
	<line x1="331" y1="153" x2="291" y2="98" stroke="#aaff00" stroke-width="2"/>
</g>
<g>
	<polygon points="173,200 179,194 182,202" fill="#aaff00"/>
	<line x1="331" y1="153" x2="180" y2="198" stroke="#aaff00" stroke-width="2"/>
</g>
<g>
	<polygon points="251,121 260,120 256,128" fill="#aaff00"/>
	<line x1="331" y1="153" x2="257" y2="124" stroke="#aaff00" stroke-width="2"/>
</g>
<g>
	<polygon points="264,171 270,165 273,173" fill="#aaff00"/>
	<line x1="331" y1="153" x2="271" y2="169" stroke="#aaff00" stroke-width="2"/>
</g>
<g>
	<polygon points="286,135 295,134 291,142" fill="#aaff00"/>
	<line x1="331" y1="153" x2="292" y2="138" stroke="#aaff00" stroke-width="2"/>
</g>
<g>
	<polygon points="273,221 275,212 282,218" fill="#aaff00"/>
	<line x1="331" y1="153" x2="278" y2="216" stroke="#aaff00" stroke-width="2"/>
</g>
<g>
	<polygon points="235,181 241,175 244,183" fill="#aaff00"/>
	<line x1="331" y1="153" x2="242" y2="179" stroke="#aaff00" stroke-width="2"/>
</g>
<g>
	<polygon points="299,161 305,155 308,164" fill="#aaff00"/>
	<line x1="331" y1="153" x2="306" y2="159" stroke="#aaff00" stroke-width="2"/>
</g>
<g>
	<polygon points="206,151 209,142 215,149" fill="#aaff00"/>
	<line x1="285" y1="89" x2="212" y2="146" stroke="#aaff00" stroke-width="2"/>
</g>
<g>
	<polygon points="250,117 253,108 259,115" fill="#aaff00"/>
	<line x1="285" y1="89" x2="256" y2="112" stroke="#aaff00" stroke-width="2"/>
</g>
<g>
	<polygon points="206,151 209,142 215,150" fill="#aaff00"/>
	<line x1="247" y1="120" x2="212" y2="146" stroke="#aaff00" stroke-width="2"/>
</g>
<g>
	<polygon points="258,168 252,162 261,159" fill="#aaff00"/>
	<line x1="247" y1="120" x2="257" y2="161" stroke="#aaff00" stroke-width="2"/>
</g>
<g>
	<polygon points="187,90 192,82 196,90" fill="#aaff00"/>
	<line x1="256" y1="48" x2="193" y2="86" stroke="#aaff00" stroke-width="2"/>
</g>
<g>
	<polygon points="328,149 320,145 327,140" fill="#aaff00"/>
	<line x1="256" y1="48" x2="324" y2="143" stroke="#aaff00" stroke-width="2"/>
</g>
<g>
	<polygon points="282,85 274,81 281,76" fill="#aaff00"/>
	<line x1="256" y1="48" x2="278" y2="79" stroke="#aaff00" stroke-width="2"/>
</g>
<g>
	<polygon points="224,67 229,59 233,67" fill="#aaff00"/>
	<line x1="256" y1="48" x2="230" y2="63" stroke="#aaff00" stroke-width="2"/>
</g>
<g>
	<polygon points="172,46 180,41 180,50" fill="#aaff00"/>
	<line x1="256" y1="48" x2="179" y2="46" stroke="#aaff00" stroke-width="2"/>
</g>
<g>
	<polygon points="201,149 195,143 203,140" fill="#aaff00"/>
	<line x1="184" y1="93" x2="199" y2="142" stroke="#aaff00" stroke-width="2"/>
</g>
<g>
	<polygon points="203,149 201,141 209,142" fill="#aaff00"/>
	<line x1="221" y1="70" x2="205" y2="142" stroke="#aaff00" stroke-width="2"/>
</g>
<g>
	<polygon points="201,149 194,143 203,140" fill="#aaff00"/>
	<line x1="168" y1="46" x2="199" y2="142" stroke="#aaff00" stroke-width="2"/>
</g>
<g>
	<polygon points="206,157 214,159 208,165" fill="#aaff00"/>
	<line x1="271" y1="225" x2="211" y2="162" stroke="#aaff00" stroke-width="2"/>
</g>
<g>
	<polygon points="206,157 214,159 208,165" fill="#aaff00"/>
	<line x1="231" y1="183" x2="211" y2="162" stroke="#aaff00" stroke-width="2"/>
</g>
<g>
	<polygon points="207,154 215,150 214,159" fill="#aaff00"/>
	<line x1="295" y1="163" x2="214" y2="155" stroke="#aaff00" stroke-width="2"/>
</g>

<g fill="#000000">
	<circle cx="131" cy="255" r="4"/>
</g>
<g fill="#000000">
	<circle cx="149" cy="229" r="4"/>
</g>
<g fill="#000000">
	<circle cx="202" cy="153" r="4"/>
</g>
<g fill="#000000">
	<circle cx="176" cy="172" r="4"/>
</g>
<g fill="#000000">
	<circle cx="69" cy="238" r="4"/>
</g>
<g fill="#000000">
	<circle cx="255" cy="47" r="4"/>
</g>
<g fill="#000000">
	<circle cx="183" cy="92" r="4"/>
</g>
<g fill="#000000">
	<circle cx="330" cy="152" r="4"/>
</g>
<g fill="#000000">
	<circle cx="284" cy="88" r="4"/>
</g>
<g fill="#000000">
	<circle cx="220" cy="69" r="4"/>
</g>
<g fill="#000000">
	<circle cx="167" cy="45" r="4"/>
</g>
<g fill="#000000">
	<circle cx="168" cy="201" r="4"/>
</g>
<g fill="#000000">
	<circle cx="246" cy="119" r="4"/>
</g>
<g fill="#000000">
	<circle cx="259" cy="172" r="4"/>
</g>
<g fill="#000000">
	<circle cx="281" cy="133" r="4"/>
</g>
<g fill="#000000">
	<circle cx="270" cy="224" r="4"/>
</g>
<g fill="#000000">
	<circle cx="230" cy="182" r="4"/>
</g>
<g fill="#000000">
	<circle cx="294" cy="162" r="4"/>
</g>
<g fill="#000000">
	<circle cx="151" cy="147" r="4"/>
</g>
<g fill="#000000">
	<circle cx="111" cy="142" r="4"/>
</g>
<g fill="#000000">
	<circle cx="113" cy="191" r="4"/>
</g>

</g>

</svg>
