<?xml version="1.0" encoding="utf-8"?>
<!-- Created with Hypercube (http://tumic.wz.cz/hypercube) -->

<svg width="400" height="300" viewBox="0 0 400 300" xmlns="http://www.w3.org/2000/svg" baseProfile="tiny">

<g font-family="Helvetica" font-weight="normal">

<g>
	<polygon points="261,208 252,209 256,201" fill="#aaff00"/>
	<line x1="169" y1="159" x2="254" y2="205" stroke="#aaff00" stroke-width="2"/>
</g>
<g>
	<polygon points="227,189 218,190 222,182" fill="#aaff00"/>
	<line x1="169" y1="159" x2="220" y2="186" stroke="#aaff00" stroke-width="2"/>
</g>
<g>
	<polygon points="247,238 239,236 245,230" fill="#aaff00"/>
	<line x1="169" y1="159" x2="242" y2="233" stroke="#aaff00" stroke-width="2"/>
</g>
<g>
	<polygon points="123,136 132,135 127,143" fill="#aaff00"/>
	<line x1="169" y1="159" x2="129" y2="139" stroke="#aaff00" stroke-width="2"/>
</g>
<g>
	<polygon points="229,87 227,96 220,90" fill="#aaff00"/>
	<line x1="169" y1="159" x2="224" y2="92" stroke="#aaff00" stroke-width="2"/>
</g>
<g>
	<polygon points="178,225 172,218 181,217" fill="#aaff00"/>
	<line x1="169" y1="159" x2="177" y2="218" stroke="#aaff00" stroke-width="2"/>
</g>
<g>
	<polygon points="236,128 231,136 227,127" fill="#aaff00"/>
	<line x1="169" y1="159" x2="230" y2="131" stroke="#aaff00" stroke-width="2"/>
</g>
<g>
	<polygon points="198,124 196,133 189,127" fill="#aaff00"/>
	<line x1="169" y1="159" x2="193" y2="129" stroke="#aaff00" stroke-width="2"/>
</g>
<g>
	<polygon points="123,196 126,187 132,194" fill="#aaff00"/>
	<line x1="169" y1="159" x2="129" y2="191" stroke="#aaff00" stroke-width="2"/>
</g>
<g>
	<polygon points="334,222 326,225 327,216" fill="#aaff00"/>
	<line x1="265" y1="211" x2="327" y2="221" stroke="#aaff00" stroke-width="2"/>
</g>
<g>
	<polygon points="302,129 303,138 294,134" fill="#aaff00"/>
	<line x1="265" y1="211" x2="299" y2="135" stroke="#aaff00" stroke-width="2"/>
</g>
<g>
	<polygon points="198,185 207,184 203,192" fill="#aaff00"/>
	<line x1="265" y1="211" x2="204" y2="188" stroke="#aaff00" stroke-width="2"/>
</g>
<g>
	<polygon points="262,174 267,181 258,182" fill="#aaff00"/>
	<line x1="265" y1="211" x2="262" y2="181" stroke="#aaff00" stroke-width="2"/>
</g>
<g>
	<polygon points="300,128 297,136 291,129" fill="#aaff00"/>
	<line x1="231" y1="192" x2="295" y2="132" stroke="#aaff00" stroke-width="2"/>
</g>
<g>
	<polygon points="198,184 206,182 205,190" fill="#aaff00"/>
	<line x1="231" y1="192" x2="205" y2="186" stroke="#aaff00" stroke-width="2"/>
</g>
<g>
	<polygon points="258,172 254,180 249,173" fill="#aaff00"/>
	<line x1="231" y1="192" x2="252" y2="176" stroke="#aaff00" stroke-width="2"/>
</g>
<g>
	<polygon points="219,160 226,166 217,169" fill="#aaff00"/>
	<line x1="231" y1="192" x2="221" y2="166" stroke="#aaff00" stroke-width="2"/>
</g>
<g>
	<polygon points="302,129 303,138 294,134" fill="#aaff00"/>
	<line x1="251" y1="242" x2="299" y2="135" stroke="#aaff00" stroke-width="2"/>
</g>
<g>
	<polygon points="197,187 205,189 199,195" fill="#aaff00"/>
	<line x1="251" y1="242" x2="202" y2="192" stroke="#aaff00" stroke-width="2"/>
</g>
<g>
	<polygon points="261,174 264,182 255,181" fill="#aaff00"/>
	<line x1="251" y1="242" x2="260" y2="181" stroke="#aaff00" stroke-width="2"/>
</g>
<g>
	<polygon points="288,278 280,276 286,270" fill="#aaff00"/>
	<line x1="251" y1="242" x2="283" y2="273" stroke="#aaff00" stroke-width="2"/>
</g>
<g>
	<polygon points="300,122 291,122 295,115" fill="#aaff00"/>
	<line x1="232" y1="84" x2="293" y2="119" stroke="#aaff00" stroke-width="2"/>
</g>
<g>
	<polygon points="195,179 194,170 202,174" fill="#aaff00"/>
	<line x1="232" y1="84" x2="198" y2="173" stroke="#aaff00" stroke-width="2"/>
</g>
<g>
	<polygon points="260,165 253,159 262,156" fill="#aaff00"/>
	<line x1="232" y1="84" x2="258" y2="158" stroke="#aaff00" stroke-width="2"/>
</g>
<g>
	<polygon points="251,23 253,32 244,29" fill="#aaff00"/>
	<line x1="232" y1="84" x2="249" y2="30" stroke="#aaff00" stroke-width="2"/>
</g>
<g>
	<polygon points="192,188 194,197 185,194" fill="#aaff00"/>
	<line x1="179" y1="230" x2="190" y2="195" stroke="#aaff00" stroke-width="2"/>
</g>
<g>
	<polygon points="258,172 254,180 249,173" fill="#aaff00"/>
	<line x1="179" y1="230" x2="252" y2="176" stroke="#aaff00" stroke-width="2"/>
</g>
<g>
	<polygon points="152,278 152,269 159,273" fill="#aaff00"/>
	<line x1="179" y1="230" x2="155" y2="271" stroke="#aaff00" stroke-width="2"/>
</g>
<g>
	<polygon points="299,125 291,129 291,120" fill="#aaff00"/>
	<line x1="241" y1="127" x2="292" y2="125" stroke="#aaff00" stroke-width="2"/>
</g>
<g>
	<polygon points="196,180 198,171 205,177" fill="#aaff00"/>
	<line x1="241" y1="127" x2="201" y2="174" stroke="#aaff00" stroke-width="2"/>
</g>
<g>
	<polygon points="260,165 252,160 260,156" fill="#aaff00"/>
	<line x1="241" y1="127" x2="256" y2="159" stroke="#aaff00" stroke-width="2"/>
</g>
<g>
	<polygon points="269,124 262,129 261,120" fill="#aaff00"/>
	<line x1="241" y1="127" x2="262" y2="125" stroke="#aaff00" stroke-width="2"/>
</g>
<g>
	<polygon points="299,124 291,129 291,120" fill="#aaff00"/>
	<line x1="201" y1="121" x2="292" y2="124" stroke="#aaff00" stroke-width="2"/>
</g>
<g>
	<polygon points="194,179 190,171 199,172" fill="#aaff00"/>
	<line x1="201" y1="121" x2="195" y2="172" stroke="#aaff00" stroke-width="2"/>
</g>
<g>
	<polygon points="258,167 249,165 255,158" fill="#aaff00"/>
	<line x1="201" y1="121" x2="252" y2="162" stroke="#aaff00" stroke-width="2"/>
</g>
<g>
	<polygon points="165,60 173,65 165,69" fill="#aaff00"/>
	<line x1="201" y1="121" x2="168" y2="67" stroke="#aaff00" stroke-width="2"/>
</g>
<g>
	<polygon points="190,181 181,180 186,173" fill="#aaff00"/>
	<line x1="119" y1="134" x2="184" y2="177" stroke="#aaff00" stroke-width="2"/>
</g>
<g>
	<polygon points="69,101 78,102 73,109" fill="#aaff00"/>
	<line x1="119" y1="134" x2="75" y2="105" stroke="#aaff00" stroke-width="2"/>
</g>
<g>
	<polygon points="189,184 182,190 181,182" fill="#aaff00"/>
	<line x1="120" y1="199" x2="182" y2="186" stroke="#aaff00" stroke-width="2"/>
</g>
<g>
	<polygon points="66,222 71,215 75,223" fill="#aaff00"/>
	<line x1="120" y1="199" x2="72" y2="219" stroke="#aaff00" stroke-width="2"/>
</g>

<g fill="#000000">
	<circle cx="168" cy="158" r="4"/>
</g>
<g fill="#000000">
	<circle cx="264" cy="210" r="4"/>
</g>
<g fill="#000000">
	<circle cx="230" cy="191" r="4"/>
</g>
<g fill="#000000">
	<circle cx="250" cy="241" r="4"/>
</g>
<g fill="#000000">
	<circle cx="118" cy="133" r="4"/>
</g>
<g fill="#000000">
	<circle cx="231" cy="83" r="4"/>
</g>
<g fill="#000000">
	<circle cx="178" cy="229" r="4"/>
</g>
<g fill="#000000">
	<circle cx="240" cy="126" r="4"/>
</g>
<g fill="#000000">
	<circle cx="200" cy="120" r="4"/>
</g>
<g fill="#000000">
	<circle cx="119" cy="198" r="4"/>
</g>
<g fill="#000000">
	<circle cx="338" cy="222" r="4"/>
</g>
<g fill="#000000">
	<circle cx="303" cy="124" r="4"/>
</g>
<g fill="#000000">
	<circle cx="193" cy="183" r="4"/>
</g>
<g fill="#000000">
	<circle cx="261" cy="169" r="4"/>
</g>
<g fill="#000000">
	<circle cx="217" cy="155" r="4"/>
</g>
<g fill="#000000">
	<circle cx="291" cy="281" r="4"/>
</g>
<g fill="#000000">
	<circle cx="65" cy="98" r="4"/>
</g>
<g fill="#000000">
	<circle cx="252" cy="18" r="4"/>
</g>
<g fill="#000000">
	<circle cx="149" cy="281" r="4"/>
</g>
<g fill="#000000">
	<circle cx="273" cy="123" r="4"/>
</g>
<g fill="#000000">
	<circle cx="162" cy="56" r="4"/>
</g>
<g fill="#000000">
	<circle cx="61" cy="223" r="4"/>
</g>

</g>

</svg>
