<?xml version="1.0" encoding="utf-8"?>
<!-- Created with Hypercube (http://tumic.wz.cz/hypercube) -->

<svg width="400" height="300" viewBox="0 0 400 300" xmlns="http://www.w3.org/2000/svg" baseProfile="tiny">

<g font-family="Helvetica" font-weight="normal">

<g>
	<polygon points="149,219 147,210 156,213" fill="#aaff00"/>
	<line x1="171" y1="158" x2="151" y2="212" stroke="#aaff00" stroke-width="2"/>
</g>
<g>
	<polygon points="137,175 142,168 146,176" fill="#aaff00"/>
	<line x1="171" y1="158" x2="144" y2="172" stroke="#aaff00" stroke-width="2"/>
</g>
<g>
	<polygon points="269,168 261,172 262,163" fill="#aaff00"/>
	<line x1="171" y1="158" x2="262" y2="167" stroke="#aaff00" stroke-width="2"/>
</g>
<g>
	<polygon points="159,114 165,120 156,123" fill="#aaff00"/>
	<line x1="171" y1="158" x2="161" y2="121" stroke="#aaff00" stroke-width="2"/>
</g>
<g>
	<polygon points="199,172 190,172 194,164" fill="#aaff00"/>
	<line x1="171" y1="158" x2="193" y2="168" stroke="#aaff00" stroke-width="2"/>
</g>
<g>
	<polygon points="201,82 202,91 194,87" fill="#aaff00"/>
	<line x1="171" y1="158" x2="198" y2="88" stroke="#aaff00" stroke-width="2"/>
</g>
<g>
	<polygon points="188,285 180,281 187,276" fill="#aaff00"/>
	<line x1="148" y1="224" x2="184" y2="279" stroke="#aaff00" stroke-width="2"/>
</g>
<g>
	<polygon points="197,134 197,143 190,139" fill="#aaff00"/>
	<line x1="148" y1="224" x2="194" y2="141" stroke="#aaff00" stroke-width="2"/>
</g>
<g>
	<polygon points="122,140 128,146 120,149" fill="#aaff00"/>
	<line x1="148" y1="224" x2="124" y2="147" stroke="#aaff00" stroke-width="2"/>
</g>
<g>
	<polygon points="105,272 107,263 114,269" fill="#aaff00"/>
	<line x1="148" y1="224" x2="110" y2="267" stroke="#aaff00" stroke-width="2"/>
</g>
<g>
	<polygon points="189,224 181,229 181,220" fill="#aaff00"/>
	<line x1="148" y1="224" x2="182" y2="224" stroke="#aaff00" stroke-width="2"/>
</g>
<g>
	<polygon points="243,237 235,240 236,231" fill="#aaff00"/>
	<line x1="148" y1="224" x2="236" y2="236" stroke="#aaff00" stroke-width="2"/>
</g>
<g>
	<polygon points="196,133 192,141 187,134" fill="#aaff00"/>
	<line x1="134" y1="178" x2="190" y2="137" stroke="#aaff00" stroke-width="2"/>
</g>
<g>
	<polygon points="122,140 128,146 120,149" fill="#aaff00"/>
	<line x1="134" y1="178" x2="124" y2="147" stroke="#aaff00" stroke-width="2"/>
</g>
<g>
	<polygon points="190,222 181,220 187,213" fill="#aaff00"/>
	<line x1="134" y1="178" x2="184" y2="217" stroke="#aaff00" stroke-width="2"/>
</g>
<g>
	<polygon points="64,187 71,181 72,190" fill="#aaff00"/>
	<line x1="134" y1="178" x2="71" y2="186" stroke="#aaff00" stroke-width="2"/>
</g>
<g>
	<polygon points="195,128 186,129 191,121" fill="#aaff00"/>
	<line x1="158" y1="110" x2="189" y2="125" stroke="#aaff00" stroke-width="2"/>
</g>
<g>
	<polygon points="124,133 128,125 133,132" fill="#aaff00"/>
	<line x1="158" y1="110" x2="130" y2="129" stroke="#aaff00" stroke-width="2"/>
</g>
<g>
	<polygon points="111,63 119,65 113,71" fill="#aaff00"/>
	<line x1="158" y1="110" x2="116" y2="68" stroke="#aaff00" stroke-width="2"/>
</g>
<g>
	<polygon points="200,135 205,142 196,143" fill="#aaff00"/>
	<line x1="204" y1="174" x2="201" y2="142" stroke="#aaff00" stroke-width="2"/>
</g>
<g>
	<polygon points="125,137 134,137 130,145" fill="#aaff00"/>
	<line x1="204" y1="174" x2="131" y2="140" stroke="#aaff00" stroke-width="2"/>
</g>
<g>
	<polygon points="194,220 191,212 200,213" fill="#aaff00"/>
	<line x1="204" y1="174" x2="196" y2="213" stroke="#aaff00" stroke-width="2"/>
</g>
<g>
	<polygon points="246,126 244,135 237,129" fill="#aaff00"/>
	<line x1="204" y1="174" x2="241" y2="131" stroke="#aaff00" stroke-width="2"/>
</g>
<g>
	<polygon points="236,190 227,190 231,182" fill="#aaff00"/>
	<line x1="204" y1="174" x2="230" y2="186" stroke="#aaff00" stroke-width="2"/>
</g>
<g>
	<polygon points="204,133 212,132 208,140" fill="#aaff00"/>
	<line x1="274" y1="169" x2="210" y2="136" stroke="#aaff00" stroke-width="2"/>
</g>
<g>
	<polygon points="197,222 201,214 206,221" fill="#aaff00"/>
	<line x1="274" y1="169" x2="203" y2="218" stroke="#aaff00" stroke-width="2"/>
</g>
<g>
	<polygon points="249,233 248,224 256,228" fill="#aaff00"/>
	<line x1="274" y1="169" x2="252" y2="227" stroke="#aaff00" stroke-width="2"/>
</g>
<g>
	<polygon points="336,164 329,169 328,160" fill="#aaff00"/>
	<line x1="274" y1="169" x2="329" y2="164" stroke="#aaff00" stroke-width="2"/>
</g>
<g>
	<polygon points="251,126 258,131 250,135" fill="#aaff00"/>
	<line x1="274" y1="169" x2="254" y2="133" stroke="#aaff00" stroke-width="2"/>
</g>
<g>
	<polygon points="282,86 286,94 277,93" fill="#aaff00"/>
	<line x1="274" y1="169" x2="281" y2="93" stroke="#aaff00" stroke-width="2"/>
</g>
<g>
	<polygon points="200,126 196,118 205,118" fill="#aaff00"/>
	<line x1="203" y1="78" x2="200" y2="119" stroke="#aaff00" stroke-width="2"/>
</g>
<g>
	<polygon points="124,133 128,125 133,132" fill="#aaff00"/>
	<line x1="203" y1="78" x2="130" y2="129" stroke="#aaff00" stroke-width="2"/>
</g>
<g>
	<polygon points="245,119 237,117 243,111" fill="#aaff00"/>
	<line x1="203" y1="78" x2="240" y2="114" stroke="#aaff00" stroke-width="2"/>
</g>
<g>
	<polygon points="278,81 270,85 270,76" fill="#aaff00"/>
	<line x1="203" y1="78" x2="271" y2="81" stroke="#aaff00" stroke-width="2"/>
</g>
<g>
	<polygon points="215,17 218,25 209,24" fill="#aaff00"/>
	<line x1="203" y1="78" x2="213" y2="24" stroke="#aaff00" stroke-width="2"/>
</g>
<g>
	<polygon points="319,289 311,293 311,284" fill="#aaff00"/>
	<line x1="264" y1="289" x2="312" y2="289" stroke="#aaff00" stroke-width="2"/>
</g>
<g>
	<polygon points="195,289 203,284 203,293" fill="#aaff00"/>
	<line x1="264" y1="289" x2="202" y2="289" stroke="#aaff00" stroke-width="2"/>
</g>

<g fill="#000000">
	<circle cx="263" cy="288" r="4"/>
</g>
<g fill="#000000">
	<circle cx="323" cy="288" r="4"/>
</g>
<g fill="#000000">
	<circle cx="170" cy="157" r="4"/>
</g>
<g fill="#000000">
	<circle cx="147" cy="223" r="4"/>
</g>
<g fill="#000000">
	<circle cx="133" cy="177" r="4"/>
</g>
<g fill="#000000">
	<circle cx="273" cy="168" r="4"/>
</g>
<g fill="#000000">
	<circle cx="157" cy="109" r="4"/>
</g>
<g fill="#000000">
	<circle cx="203" cy="173" r="4"/>
</g>
<g fill="#000000">
	<circle cx="202" cy="77" r="4"/>
</g>
<g fill="#000000">
	<circle cx="190" cy="288" r="4"/>
</g>
<g fill="#000000">
	<circle cx="199" cy="130" r="4"/>
</g>
<g fill="#000000">
	<circle cx="120" cy="135" r="4"/>
</g>
<g fill="#000000">
	<circle cx="102" cy="275" r="4"/>
</g>
<g fill="#000000">
	<circle cx="193" cy="224" r="4"/>
</g>
<g fill="#000000">
	<circle cx="247" cy="237" r="4"/>
</g>
<g fill="#000000">
	<circle cx="59" cy="187" r="4"/>
</g>
<g fill="#000000">
	<circle cx="340" cy="163" r="4"/>
</g>
<g fill="#000000">
	<circle cx="248" cy="122" r="4"/>
</g>
<g fill="#000000">
	<circle cx="282" cy="81" r="4"/>
</g>
<g fill="#000000">
	<circle cx="107" cy="59" r="4"/>
</g>
<g fill="#000000">
	<circle cx="240" cy="191" r="4"/>
</g>
<g fill="#000000">
	<circle cx="215" cy="12" r="4"/>
</g>

</g>

</svg>
