<?xml version="1.0" encoding="utf-8"?>
<!-- Created with Hypercube (http://tumic.wz.cz/hypercube) -->

<svg width="400" height="300" viewBox="0 0 400 300" xmlns="http://www.w3.org/2000/svg" baseProfile="tiny">

<g font-family="Helvetica" font-weight="normal">

<g>
	<polygon points="74,220 82,217 81,226" fill="#aaff00"/>
	<line x1="113" y1="228" x2="81" y2="222" stroke="#aaff00" stroke-width="2"/>
</g>
<g>
	<polygon points="113,287 108,279 117,279" fill="#aaff00"/>
	<line x1="113" y1="228" x2="113" y2="280" stroke="#aaff00" stroke-width="2"/>
</g>
<g>
	<polygon points="146,246 137,246 141,239" fill="#aaff00"/>
	<line x1="113" y1="228" x2="139" y2="243" stroke="#aaff00" stroke-width="2"/>
</g>
<g>
	<polygon points="102,172 108,179 99,180" fill="#aaff00"/>
	<line x1="113" y1="228" x2="104" y2="179" stroke="#aaff00" stroke-width="2"/>
</g>
<g>
	<polygon points="161,203 156,211 152,203" fill="#aaff00"/>
	<line x1="113" y1="228" x2="155" y2="207" stroke="#aaff00" stroke-width="2"/>
</g>
<g>
	<polygon points="74,221 83,219 80,228" fill="#aaff00"/>
	<line x1="150" y1="249" x2="80" y2="223" stroke="#aaff00" stroke-width="2"/>
</g>
<g>
	<polygon points="115,288 117,279 124,285" fill="#aaff00"/>
	<line x1="150" y1="249" x2="120" y2="283" stroke="#aaff00" stroke-width="2"/>
</g>
<g>
	<polygon points="185,147 187,156 178,153" fill="#aaff00"/>
	<line x1="150" y1="249" x2="183" y2="154" stroke="#aaff00" stroke-width="2"/>
</g>
<g>
	<polygon points="207,90 208,99 200,95" fill="#aaff00"/>
	<line x1="187" y1="143" x2="204" y2="96" stroke="#aaff00" stroke-width="2"/>
</g>
<g>
	<polygon points="214,25 218,33 209,32" fill="#aaff00"/>
	<line x1="209" y1="86" x2="213" y2="32" stroke="#aaff00" stroke-width="2"/>
</g>
<g>
	<polygon points="189,139 190,130 197,135" fill="#aaff00"/>
	<line x1="245" y1="65" x2="193" y2="133" stroke="#aaff00" stroke-width="2"/>
</g>
<g>
	<polygon points="212,83 217,75 221,83" fill="#aaff00"/>
	<line x1="245" y1="65" x2="219" y2="80" stroke="#aaff00" stroke-width="2"/>
</g>
<g>
	<polygon points="217,24 225,28 218,33" fill="#aaff00"/>
	<line x1="245" y1="65" x2="221" y2="30" stroke="#aaff00" stroke-width="2"/>
</g>
<g>
	<polygon points="280,11 279,20 272,15" fill="#aaff00"/>
	<line x1="245" y1="65" x2="276" y2="17" stroke="#aaff00" stroke-width="2"/>
</g>
<g>
	<polygon points="191,141 197,135 199,144" fill="#aaff00"/>
	<line x1="238" y1="131" x2="198" y2="140" stroke="#aaff00" stroke-width="2"/>
</g>
<g>
	<polygon points="244,69 248,77 239,76" fill="#aaff00"/>
	<line x1="238" y1="131" x2="243" y2="76" stroke="#aaff00" stroke-width="2"/>
</g>
<g>
	<polygon points="204,86 197,91 196,82" fill="#aaff00"/>
	<line x1="92" y1="95" x2="197" y2="86" stroke="#aaff00" stroke-width="2"/>
</g>
<g>
	<polygon points="51,51 59,53 53,60" fill="#aaff00"/>
	<line x1="92" y1="95" x2="55" y2="56" stroke="#aaff00" stroke-width="2"/>
</g>
<g>
	<polygon points="32,113 38,107 41,115" fill="#aaff00"/>
	<line x1="92" y1="95" x2="39" y2="111" stroke="#aaff00" stroke-width="2"/>
</g>
<g>
	<polygon points="72,216 72,207 80,211" fill="#aaff00"/>
	<line x1="102" y1="168" x2="76" y2="210" stroke="#aaff00" stroke-width="2"/>
</g>
<g>
	<polygon points="182,144 176,150 173,142" fill="#aaff00"/>
	<line x1="102" y1="168" x2="175" y2="146" stroke="#aaff00" stroke-width="2"/>
</g>
<g>
	<polygon points="92,99 98,106 89,107" fill="#aaff00"/>
	<line x1="102" y1="168" x2="93" y2="106" stroke="#aaff00" stroke-width="2"/>
</g>
<g>
	<polygon points="184,139 176,135 184,130" fill="#aaff00"/>
	<line x1="137" y1="67" x2="180" y2="133" stroke="#aaff00" stroke-width="2"/>
</g>
<g>
	<polygon points="95,92 100,84 104,92" fill="#aaff00"/>
	<line x1="137" y1="67" x2="101" y2="88" stroke="#aaff00" stroke-width="2"/>
</g>
<g>
	<polygon points="122,12 128,18 119,21" fill="#aaff00"/>
	<line x1="137" y1="67" x2="124" y2="19" stroke="#aaff00" stroke-width="2"/>
</g>
<g>
	<polygon points="213,87 222,86 218,94" fill="#aaff00"/>
	<line x1="291" y1="119" x2="219" y2="90" stroke="#aaff00" stroke-width="2"/>
</g>
<g>
	<polygon points="309,79 310,88 301,84" fill="#aaff00"/>
	<line x1="291" y1="119" x2="306" y2="85" stroke="#aaff00" stroke-width="2"/>
</g>
<g>
	<polygon points="213,85 220,80 221,89" fill="#aaff00"/>
	<line x1="311" y1="75" x2="220" y2="84" stroke="#aaff00" stroke-width="2"/>
</g>
<g>
	<polygon points="369,68 362,73 361,64" fill="#aaff00"/>
	<line x1="311" y1="75" x2="362" y2="69" stroke="#aaff00" stroke-width="2"/>
</g>
<g>
	<polygon points="182,141 173,143 176,135" fill="#aaff00"/>
	<line x1="143" y1="130" x2="175" y2="139" stroke="#aaff00" stroke-width="2"/>
</g>
<g>
	<polygon points="190,146 198,148 192,155" fill="#aaff00"/>
	<line x1="241" y1="201" x2="194" y2="151" stroke="#aaff00" stroke-width="2"/>
</g>

<g fill="#000000">
	<circle cx="112" cy="227" r="4"/>
</g>
<g fill="#000000">
	<circle cx="69" cy="219" r="4"/>
</g>
<g fill="#000000">
	<circle cx="112" cy="291" r="4"/>
</g>
<g fill="#000000">
	<circle cx="149" cy="248" r="4"/>
</g>
<g fill="#000000">
	<circle cx="101" cy="167" r="4"/>
</g>
<g fill="#000000">
	<circle cx="165" cy="201" r="4"/>
</g>
<g fill="#000000">
	<circle cx="186" cy="142" r="4"/>
</g>
<g fill="#000000">
	<circle cx="91" cy="94" r="4"/>
</g>
<g fill="#000000">
	<circle cx="208" cy="85" r="4"/>
</g>
<g fill="#000000">
	<circle cx="290" cy="118" r="4"/>
</g>
<g fill="#000000">
	<circle cx="310" cy="74" r="4"/>
</g>
<g fill="#000000">
	<circle cx="214" cy="20" r="4"/>
</g>
<g fill="#000000">
	<circle cx="373" cy="67" r="4"/>
</g>
<g fill="#000000">
	<circle cx="47" cy="47" r="4"/>
</g>
<g fill="#000000">
	<circle cx="27" cy="114" r="4"/>
</g>
<g fill="#000000">
	<circle cx="136" cy="66" r="4"/>
</g>
<g fill="#000000">
	<circle cx="120" cy="7" r="4"/>
</g>
<g fill="#000000">
	<circle cx="244" cy="64" r="4"/>
</g>
<g fill="#000000">
	<circle cx="282" cy="7" r="4"/>
</g>
<g fill="#000000">
	<circle cx="237" cy="130" r="4"/>
</g>
<g fill="#000000">
	<circle cx="142" cy="129" r="4"/>
</g>
<g fill="#000000">
	<circle cx="240" cy="200" r="4"/>
</g>

</g>

</svg>
