<?xml version="1.0" encoding="utf-8"?>
<!-- Created with Hypercube (http://tumic.wz.cz/hypercube) -->

<svg width="400" height="300" viewBox="0 0 400 300" xmlns="http://www.w3.org/2000/svg" baseProfile="tiny">

<g font-family="Helvetica" font-weight="normal">

<g>
	<polygon points="159,90 151,88 157,81" fill="#aaff00"/>
	<line x1="113" y1="40" x2="155" y2="85" stroke="#aaff00" stroke-width="2"/>
</g>
<g>
	<polygon points="198,59 196,67 190,61" fill="#aaff00"/>
	<line x1="163" y1="94" x2="193" y2="64" stroke="#aaff00" stroke-width="2"/>
</g>
<g>
	<polygon points="167,93 174,88 175,97" fill="#aaff00"/>
	<line x1="250" y1="86" x2="174" y2="92" stroke="#aaff00" stroke-width="2"/>
</g>
<g>
	<polygon points="205,58 214,58 210,66" fill="#aaff00"/>
	<line x1="250" y1="86" x2="211" y2="62" stroke="#aaff00" stroke-width="2"/>
</g>
<g>
	<polygon points="329,106 320,109 323,100" fill="#aaff00"/>
	<line x1="250" y1="86" x2="322" y2="105" stroke="#aaff00" stroke-width="2"/>
</g>
<g>
	<polygon points="390,97 383,103 382,94" fill="#aaff00"/>
	<line x1="334" y1="108" x2="383" y2="99" stroke="#aaff00" stroke-width="2"/>
</g>
<g>
	<polygon points="341,49 344,57 335,56" fill="#aaff00"/>
	<line x1="334" y1="108" x2="340" y2="56" stroke="#aaff00" stroke-width="2"/>
</g>
<g>
	<polygon points="335,112 342,117 334,121" fill="#aaff00"/>
	<line x1="366" y1="184" x2="338" y2="118" stroke="#aaff00" stroke-width="2"/>
</g>
<g>
	<polygon points="355,243 352,235 361,236" fill="#aaff00"/>
	<line x1="366" y1="184" x2="356" y2="236" stroke="#aaff00" stroke-width="2"/>
</g>
<g>
	<polygon points="308,288 311,279 317,286" fill="#aaff00"/>
	<line x1="355" y1="248" x2="313" y2="283" stroke="#aaff00" stroke-width="2"/>
</g>
<g>
	<polygon points="245,293 253,288 253,297" fill="#aaff00"/>
	<line x1="305" y1="291" x2="252" y2="293" stroke="#aaff00" stroke-width="2"/>
</g>
<g>
	<polygon points="157,252 164,257 156,261" fill="#aaff00"/>
	<line x1="174" y1="295" x2="160" y2="258" stroke="#aaff00" stroke-width="2"/>
</g>
<g>
	<polygon points="236,294 228,298 228,289" fill="#aaff00"/>
	<line x1="174" y1="295" x2="229" y2="294" stroke="#aaff00" stroke-width="2"/>
</g>
<g>
	<polygon points="169,295 161,299 161,290" fill="#aaff00"/>
	<line x1="113" y1="295" x2="162" y2="295" stroke="#aaff00" stroke-width="2"/>
</g>
<g>
	<polygon points="331,111 329,120 322,114" fill="#aaff00"/>
	<line x1="301" y1="150" x2="326" y2="117" stroke="#aaff00" stroke-width="2"/>
</g>
<g>
	<polygon points="280,192 280,183 288,187" fill="#aaff00"/>
	<line x1="301" y1="150" x2="283" y2="186" stroke="#aaff00" stroke-width="2"/>
</g>
<g>
	<polygon points="203,51 201,42 210,45" fill="#aaff00"/>
	<line x1="220" y1="5" x2="205" y2="44" stroke="#aaff00" stroke-width="2"/>
</g>
<g>
	<polygon points="161,98 161,107 153,103" fill="#aaff00"/>
	<line x1="134" y1="154" x2="157" y2="104" stroke="#aaff00" stroke-width="2"/>
</g>
<g>
	<polygon points="158,94 151,100 150,91" fill="#aaff00"/>
	<line x1="98" y1="107" x2="151" y2="96" stroke="#aaff00" stroke-width="2"/>
</g>
<g>
	<polygon points="165,97 174,101 166,106" fill="#aaff00"/>
	<line x1="197" y1="139" x2="170" y2="103" stroke="#aaff00" stroke-width="2"/>
</g>
<g>
	<polygon points="9,8 17,5 16,14" fill="#aaff00"/>
	<line x1="59" y1="18" x2="16" y2="10" stroke="#aaff00" stroke-width="2"/>
</g>
<g>
	<polygon points="63,19 72,18 68,26" fill="#aaff00"/>
	<line x1="113" y1="40" x2="69" y2="22" stroke="#aaff00" stroke-width="2"/>
</g>

<g fill="#000000">
	<circle cx="112" cy="39" r="4"/>
</g>
<g fill="#000000">
	<circle cx="162" cy="93" r="4"/>
</g>
<g fill="#000000">
	<circle cx="201" cy="55" r="4"/>
</g>
<g fill="#000000">
	<circle cx="133" cy="153" r="4"/>
</g>
<g fill="#000000">
	<circle cx="249" cy="85" r="4"/>
</g>
<g fill="#000000">
	<circle cx="333" cy="107" r="4"/>
</g>
<g fill="#000000">
	<circle cx="394" cy="96" r="4"/>
</g>
<g fill="#000000">
	<circle cx="341" cy="44" r="4"/>
</g>
<g fill="#000000">
	<circle cx="97" cy="106" r="4"/>
</g>
<g fill="#000000">
	<circle cx="196" cy="138" r="4"/>
</g>
<g fill="#000000">
	<circle cx="219" cy="4" r="4"/>
</g>
<g fill="#000000">
	<circle cx="112" cy="294" r="4"/>
</g>
<g fill="#000000">
	<circle cx="173" cy="294" r="4"/>
</g>
<g fill="#000000">
	<circle cx="155" cy="247" r="4"/>
</g>
<g fill="#000000">
	<circle cx="240" cy="293" r="4"/>
</g>
<g fill="#000000">
	<circle cx="365" cy="183" r="4"/>
</g>
<g fill="#000000">
	<circle cx="354" cy="247" r="4"/>
</g>
<g fill="#000000">
	<circle cx="304" cy="290" r="4"/>
</g>
<g fill="#000000">
	<circle cx="58" cy="17" r="4"/>
</g>
<g fill="#000000">
	<circle cx="4" cy="7" r="4"/>
</g>
<g fill="#000000">
	<circle cx="300" cy="149" r="4"/>
</g>
<g fill="#000000">
	<circle cx="278" cy="196" r="4"/>
</g>

</g>

</svg>
