<?xml version="1.0" encoding="utf-8"?>
<!-- Created with Hypercube (http://tumic.wz.cz/hypercube) -->

<svg width="400" height="300" viewBox="0 0 400 300" xmlns="http://www.w3.org/2000/svg" baseProfile="tiny">

<g font-family="Helvetica" font-weight="normal">

<g>
	<polygon points="58,176 66,172 66,181" fill="#aaff00"/>
	<line x1="100" y1="178" x2="65" y2="176" stroke="#aaff00" stroke-width="2"/>
</g>
<g>
	<polygon points="87,132 93,138 84,141" fill="#aaff00"/>
	<line x1="100" y1="178" x2="89" y2="139" stroke="#aaff00" stroke-width="2"/>
</g>
<g>
	<polygon points="11,174 19,170 19,179" fill="#aaff00"/>
	<line x1="100" y1="178" x2="18" y2="174" stroke="#aaff00" stroke-width="2"/>
</g>
<g>
	<polygon points="43,129 49,136 41,137" fill="#aaff00"/>
	<line x1="54" y1="176" x2="45" y2="136" stroke="#aaff00" stroke-width="2"/>
</g>
<g>
	<polygon points="9,170 10,161 17,166" fill="#aaff00"/>
	<line x1="43" y1="125" x2="13" y2="164" stroke="#aaff00" stroke-width="2"/>
</g>
<g>
	<polygon points="47,125 55,121 54,130" fill="#aaff00"/>
	<line x1="86" y1="128" x2="54" y2="125" stroke="#aaff00" stroke-width="2"/>
</g>
<g>
	<polygon points="47,125 55,121 54,130" fill="#aaff00"/>
	<line x1="137" y1="131" x2="54" y2="125" stroke="#aaff00" stroke-width="2"/>
</g>
<g>
	<polygon points="140,134 149,135 143,142" fill="#aaff00"/>
	<line x1="194" y1="182" x2="145" y2="138" stroke="#aaff00" stroke-width="2"/>
</g>
<g>
	<polygon points="151,214 155,205 160,213" fill="#aaff00"/>
	<line x1="194" y1="182" x2="157" y2="209" stroke="#aaff00" stroke-width="2"/>
</g>
<g>
	<polygon points="287,182 279,186 279,177" fill="#aaff00"/>
	<line x1="194" y1="182" x2="280" y2="182" stroke="#aaff00" stroke-width="2"/>
</g>
<g>
	<polygon points="103,180 112,182 106,189" fill="#aaff00"/>
	<line x1="148" y1="217" x2="109" y2="185" stroke="#aaff00" stroke-width="2"/>
</g>
<g>
	<polygon points="356,185 348,189 348,180" fill="#aaff00"/>
	<line x1="292" y1="182" x2="349" y2="185" stroke="#aaff00" stroke-width="2"/>
</g>
<g>
	<polygon points="362,190 369,195 361,199" fill="#aaff00"/>
	<line x1="385" y1="245" x2="365" y2="196" stroke="#aaff00" stroke-width="2"/>
</g>
<g>
	<polygon points="298,288 306,284 305,293" fill="#aaff00"/>
	<line x1="354" y1="292" x2="305" y2="288" stroke="#aaff00" stroke-width="2"/>
</g>
<g>
	<polygon points="382,248 381,257 374,252" fill="#aaff00"/>
	<line x1="354" y1="292" x2="378" y2="254" stroke="#aaff00" stroke-width="2"/>
</g>
<g>
	<polygon points="262,238 270,242 262,247" fill="#aaff00"/>
	<line x1="294" y1="288" x2="266" y2="244" stroke="#aaff00" stroke-width="2"/>
</g>
<g>
	<polygon points="259,230 253,223 262,222" fill="#aaff00"/>
	<line x1="247" y1="149" x2="258" y2="223" stroke="#aaff00" stroke-width="2"/>
</g>
<g>
	<polygon points="258,33 258,42 250,37" fill="#aaff00"/>
	<line x1="228" y1="81" x2="254" y2="39" stroke="#aaff00" stroke-width="2"/>
</g>
<g>
	<polygon points="245,144 239,138 248,135" fill="#aaff00"/>
	<line x1="228" y1="81" x2="243" y2="137" stroke="#aaff00" stroke-width="2"/>
</g>
<g>
	<polygon points="170,89 177,83 178,92" fill="#aaff00"/>
	<line x1="228" y1="81" x2="177" y2="88" stroke="#aaff00" stroke-width="2"/>
</g>
<g>
	<polygon points="311,10 306,17 302,9" fill="#aaff00"/>
	<line x1="261" y1="30" x2="305" y2="13" stroke="#aaff00" stroke-width="2"/>
</g>
<g>
	<polygon points="320,9 328,7 327,15" fill="#aaff00"/>
	<line x1="372" y1="21" x2="327" y2="11" stroke="#aaff00" stroke-width="2"/>
</g>
<g>
	<polygon points="373,25 381,30 372,34" fill="#aaff00"/>
	<line x1="395" y1="73" x2="376" y2="31" stroke="#aaff00" stroke-width="2"/>
</g>
<g>
	<polygon points="395,128 390,120 399,120" fill="#aaff00"/>
	<line x1="395" y1="73" x2="395" y2="121" stroke="#aaff00" stroke-width="2"/>
</g>
<g>
	<polygon points="363,182 363,173 371,178" fill="#aaff00"/>
	<line x1="395" y1="133" x2="367" y2="176" stroke="#aaff00" stroke-width="2"/>
</g>
<g>
	<polygon points="102,174 103,165 110,170" fill="#aaff00"/>
	<line x1="166" y1="90" x2="107" y2="168" stroke="#aaff00" stroke-width="2"/>
</g>

<g fill="#000000">
	<circle cx="99" cy="177" r="4"/>
</g>
<g fill="#000000">
	<circle cx="53" cy="175" r="4"/>
</g>
<g fill="#000000">
	<circle cx="85" cy="127" r="4"/>
</g>
<g fill="#000000">
	<circle cx="315" cy="8" r="4"/>
</g>
<g fill="#000000">
	<circle cx="42" cy="124" r="4"/>
</g>
<g fill="#000000">
	<circle cx="6" cy="173" r="4"/>
</g>
<g fill="#000000">
	<circle cx="360" cy="185" r="4"/>
</g>
<g fill="#000000">
	<circle cx="193" cy="181" r="4"/>
</g>
<g fill="#000000">
	<circle cx="136" cy="130" r="4"/>
</g>
<g fill="#000000">
	<circle cx="147" cy="216" r="4"/>
</g>
<g fill="#000000">
	<circle cx="291" cy="181" r="4"/>
</g>
<g fill="#000000">
	<circle cx="353" cy="291" r="4"/>
</g>
<g fill="#000000">
	<circle cx="293" cy="287" r="4"/>
</g>
<g fill="#000000">
	<circle cx="384" cy="244" r="4"/>
</g>
<g fill="#000000">
	<circle cx="394" cy="72" r="4"/>
</g>
<g fill="#000000">
	<circle cx="371" cy="20" r="4"/>
</g>
<g fill="#000000">
	<circle cx="394" cy="132" r="4"/>
</g>
<g fill="#000000">
	<circle cx="259" cy="234" r="4"/>
</g>
<g fill="#000000">
	<circle cx="227" cy="80" r="4"/>
</g>
<g fill="#000000">
	<circle cx="260" cy="29" r="4"/>
</g>
<g fill="#000000">
	<circle cx="246" cy="148" r="4"/>
</g>
<g fill="#000000">
	<circle cx="165" cy="89" r="4"/>
</g>

</g>

</svg>
