<?xml version="1.0" encoding="utf-8"?>
<!-- Created with Hypercube (http://tumic.wz.cz/hypercube) -->

<svg width="400" height="300" viewBox="0 0 400 300" xmlns="http://www.w3.org/2000/svg" baseProfile="tiny">

<g font-family="Helvetica" font-weight="normal">

<g>
	<polygon points="141,149 148,144 149,153" fill="#aaff00"/>
	<line x1="201" y1="146" x2="148" y2="149" stroke="#aaff00" stroke-width="2"/>
</g>
<g>
	<polygon points="205,146 213,144 212,152" fill="#aaff00"/>
	<line x1="255" y1="157" x2="212" y2="148" stroke="#aaff00" stroke-width="2"/>
</g>
<g>
	<polygon points="257,153 258,144 266,149" fill="#aaff00"/>
	<line x1="286" y1="116" x2="262" y2="147" stroke="#aaff00" stroke-width="2"/>
</g>
<g>
	<polygon points="214,55 223,53 220,61" fill="#aaff00"/>
	<line x1="268" y1="72" x2="221" y2="57" stroke="#aaff00" stroke-width="2"/>
</g>
<g>
	<polygon points="284,111 277,106 285,102" fill="#aaff00"/>
	<line x1="268" y1="72" x2="281" y2="105" stroke="#aaff00" stroke-width="2"/>
</g>
<g>
	<polygon points="188,96 194,90 197,98" fill="#aaff00"/>
	<line x1="268" y1="72" x2="195" y2="94" stroke="#aaff00" stroke-width="2"/>
</g>
<g>
	<polygon points="135,53 143,48 143,57" fill="#aaff00"/>
	<line x1="210" y1="54" x2="142" y2="53" stroke="#aaff00" stroke-width="2"/>
</g>
<g>
	<polygon points="97,97 98,88 105,93" fill="#aaff00"/>
	<line x1="131" y1="53" x2="102" y2="91" stroke="#aaff00" stroke-width="2"/>
</g>
<g>
	<polygon points="134,146 125,143 132,137" fill="#aaff00"/>
	<line x1="95" y1="101" x2="129" y2="141" stroke="#aaff00" stroke-width="2"/>
</g>
<g>
	<polygon points="131,48 128,40 137,41" fill="#aaff00"/>
	<line x1="138" y1="5" x2="132" y2="41" stroke="#aaff00" stroke-width="2"/>
</g>
<g>
	<polygon points="254,5 246,10 246,1" fill="#aaff00"/>
	<line x1="195" y1="5" x2="247" y2="5" stroke="#aaff00" stroke-width="2"/>
</g>
<g>
	<polygon points="142,5 150,0 150,9" fill="#aaff00"/>
	<line x1="195" y1="5" x2="149" y2="5" stroke="#aaff00" stroke-width="2"/>
</g>
<g>
	<polygon points="267,67 261,60 270,59" fill="#aaff00"/>
	<line x1="259" y1="6" x2="266" y2="60" stroke="#aaff00" stroke-width="2"/>
</g>
<g>
	<polygon points="140,146 141,137 148,143" fill="#aaff00"/>
	<line x1="184" y1="98" x2="144" y2="141" stroke="#aaff00" stroke-width="2"/>
</g>
<g>
	<polygon points="269,76 276,81 268,85" fill="#aaff00"/>
	<line x1="310" y1="174" x2="272" y2="82" stroke="#aaff00" stroke-width="2"/>
</g>
<g>
	<polygon points="244,213 239,221 235,213" fill="#aaff00"/>
	<line x1="197" y1="242" x2="238" y2="217" stroke="#aaff00" stroke-width="2"/>
</g>
<g>
	<polygon points="306,176 301,184 297,176" fill="#aaff00"/>
	<line x1="197" y1="242" x2="299" y2="180" stroke="#aaff00" stroke-width="2"/>
</g>
<g>
	<polygon points="142,191 151,193 144,199" fill="#aaff00"/>
	<line x1="197" y1="242" x2="147" y2="195" stroke="#aaff00" stroke-width="2"/>
</g>
<g>
	<polygon points="96,217 105,214 102,223" fill="#aaff00"/>
	<line x1="197" y1="242" x2="103" y2="218" stroke="#aaff00" stroke-width="2"/>
</g>
<g>
	<polygon points="187,199 193,206 185,207" fill="#aaff00"/>
	<line x1="197" y1="242" x2="189" y2="206" stroke="#aaff00" stroke-width="2"/>
</g>
<g>
	<polygon points="145,229 154,226 151,235" fill="#aaff00"/>
	<line x1="197" y1="242" x2="152" y2="230" stroke="#aaff00" stroke-width="2"/>
</g>
<g>
	<polygon points="254,161 257,169 248,168" fill="#aaff00"/>
	<line x1="248" y1="211" x2="253" y2="168" stroke="#aaff00" stroke-width="2"/>
</g>
<g>
	<polygon points="137,154 142,162 133,162" fill="#aaff00"/>
	<line x1="139" y1="188" x2="137" y2="161" stroke="#aaff00" stroke-width="2"/>
</g>
<g>
	<polygon points="134,153 133,162 126,157" fill="#aaff00"/>
	<line x1="92" y1="216" x2="130" y2="159" stroke="#aaff00" stroke-width="2"/>
</g>
<g>
	<polygon points="140,153 149,154 143,161" fill="#aaff00"/>
	<line x1="187" y1="195" x2="145" y2="157" stroke="#aaff00" stroke-width="2"/>
</g>
<g>
	<polygon points="137,154 142,162 133,162" fill="#aaff00"/>
	<line x1="141" y1="228" x2="137" y2="161" stroke="#aaff00" stroke-width="2"/>
</g>
<g>
	<polygon points="194,245 193,254 186,249" fill="#aaff00"/>
	<line x1="160" y1="295" x2="190" y2="251" stroke="#aaff00" stroke-width="2"/>
</g>
<g>
	<polygon points="164,295 172,290 172,299" fill="#aaff00"/>
	<line x1="208" y1="295" x2="171" y2="295" stroke="#aaff00" stroke-width="2"/>
</g>
<g>
	<polygon points="251,289 244,294 243,286" fill="#aaff00"/>
	<line x1="208" y1="295" x2="244" y2="290" stroke="#aaff00" stroke-width="2"/>
</g>
<g>
	<polygon points="200,244 209,246 203,253" fill="#aaff00"/>
	<line x1="256" y1="289" x2="206" y2="249" stroke="#aaff00" stroke-width="2"/>
</g>

<g fill="#000000">
	<circle cx="136" cy="149" r="4"/>
</g>
<g fill="#000000">
	<circle cx="254" cy="156" r="4"/>
</g>
<g fill="#000000">
	<circle cx="200" cy="145" r="4"/>
</g>
<g fill="#000000">
	<circle cx="130" cy="52" r="4"/>
</g>
<g fill="#000000">
	<circle cx="94" cy="100" r="4"/>
</g>
<g fill="#000000">
	<circle cx="267" cy="71" r="4"/>
</g>
<g fill="#000000">
	<circle cx="209" cy="53" r="4"/>
</g>
<g fill="#000000">
	<circle cx="285" cy="115" r="4"/>
</g>
<g fill="#000000">
	<circle cx="183" cy="97" r="4"/>
</g>
<g fill="#000000">
	<circle cx="194" cy="4" r="4"/>
</g>
<g fill="#000000">
	<circle cx="258" cy="5" r="4"/>
</g>
<g fill="#000000">
	<circle cx="137" cy="4" r="4"/>
</g>
<g fill="#000000">
	<circle cx="196" cy="241" r="4"/>
</g>
<g fill="#000000">
	<circle cx="247" cy="210" r="4"/>
</g>
<g fill="#000000">
	<circle cx="309" cy="173" r="4"/>
</g>
<g fill="#000000">
	<circle cx="138" cy="187" r="4"/>
</g>
<g fill="#000000">
	<circle cx="91" cy="215" r="4"/>
</g>
<g fill="#000000">
	<circle cx="186" cy="194" r="4"/>
</g>
<g fill="#000000">
	<circle cx="140" cy="227" r="4"/>
</g>
<g fill="#000000">
	<circle cx="207" cy="294" r="4"/>
</g>
<g fill="#000000">
	<circle cx="159" cy="294" r="4"/>
</g>
<g fill="#000000">
	<circle cx="255" cy="288" r="4"/>
</g>

</g>

</svg>
