<?xml version="1.0" encoding="utf-8"?>
<!-- Created with Hypercube (http://tumic.wz.cz/hypercube) -->

<svg width="400" height="300" viewBox="0 0 400 300" xmlns="http://www.w3.org/2000/svg" baseProfile="tiny">

<g font-family="Helvetica" font-weight="normal">

<g>
	<polygon points="247,178 256,176 253,184" fill="#aaff00"/>
	<line x1="326" y1="202" x2="254" y2="180" stroke="#aaff00" stroke-width="2"/>
</g>
<g>
	<polygon points="175,179 183,174 183,183" fill="#aaff00"/>
	<line x1="243" y1="177" x2="182" y2="179" stroke="#aaff00" stroke-width="2"/>
</g>
<g>
	<polygon points="198,242 199,233 206,238" fill="#aaff00"/>
	<line x1="243" y1="177" x2="202" y2="236" stroke="#aaff00" stroke-width="2"/>
</g>
<g>
	<polygon points="289,148 284,156 280,148" fill="#aaff00"/>
	<line x1="243" y1="177" x2="283" y2="152" stroke="#aaff00" stroke-width="2"/>
</g>
<g>
	<polygon points="268,240 261,235 269,231" fill="#aaff00"/>
	<line x1="243" y1="177" x2="265" y2="234" stroke="#aaff00" stroke-width="2"/>
</g>
<g>
	<polygon points="221,126 228,131 220,135" fill="#aaff00"/>
	<line x1="243" y1="177" x2="224" y2="132" stroke="#aaff00" stroke-width="2"/>
</g>
<g>
	<polygon points="240,64 244,72 235,72" fill="#aaff00"/>
	<line x1="243" y1="177" x2="240" y2="71" stroke="#aaff00" stroke-width="2"/>
</g>
<g>
	<polygon points="120,155 129,155 125,163" fill="#aaff00"/>
	<line x1="171" y1="180" x2="126" y2="158" stroke="#aaff00" stroke-width="2"/>
</g>
<g>
	<polygon points="72,105 80,108 73,114" fill="#aaff00"/>
	<line x1="116" y1="154" x2="76" y2="110" stroke="#aaff00" stroke-width="2"/>
</g>
<g>
	<polygon points="25,121 30,113 34,122" fill="#aaff00"/>
	<line x1="69" y1="102" x2="31" y2="118" stroke="#aaff00" stroke-width="2"/>
</g>
<g>
	<polygon points="58,165 49,162 56,156" fill="#aaff00"/>
	<line x1="21" y1="123" x2="53" y2="160" stroke="#aaff00" stroke-width="2"/>
</g>
<g>
	<polygon points="141,110 137,118 132,111" fill="#aaff00"/>
	<line x1="61" y1="169" x2="135" y2="114" stroke="#aaff00" stroke-width="2"/>
</g>
<g>
	<polygon points="215,121 207,124 208,115" fill="#aaff00"/>
	<line x1="145" y1="108" x2="208" y2="119" stroke="#aaff00" stroke-width="2"/>
</g>
<g>
	<polygon points="288,98 282,105 279,96" fill="#aaff00"/>
	<line x1="220" y1="122" x2="281" y2="100" stroke="#aaff00" stroke-width="2"/>
</g>
<g>
	<polygon points="332,49 330,58 323,52" fill="#aaff00"/>
	<line x1="293" y1="97" x2="327" y2="55" stroke="#aaff00" stroke-width="2"/>
</g>
<g>
	<polygon points="292,21 301,21 297,29" fill="#aaff00"/>
	<line x1="335" y1="46" x2="299" y2="24" stroke="#aaff00" stroke-width="2"/>
</g>
<g>
	<polygon points="243,57 246,48 252,55" fill="#aaff00"/>
	<line x1="289" y1="19" x2="248" y2="52" stroke="#aaff00" stroke-width="2"/>
</g>
<g>
	<polygon points="213,10 220,15 212,19" fill="#aaff00"/>
	<line x1="240" y1="60" x2="216" y2="17" stroke="#aaff00" stroke-width="2"/>
</g>
<g>
	<polygon points="293,101 297,109 288,109" fill="#aaff00"/>
	<line x1="293" y1="146" x2="293" y2="108" stroke="#aaff00" stroke-width="2"/>
</g>
<g>
	<polygon points="60,173 62,181 54,180" fill="#aaff00"/>
	<line x1="47" y1="234" x2="58" y2="180" stroke="#aaff00" stroke-width="2"/>
</g>
<g>
	<polygon points="49,237 57,241 50,246" fill="#aaff00"/>
	<line x1="83" y1="284" x2="53" y2="243" stroke="#aaff00" stroke-width="2"/>
</g>
<g>
	<polygon points="87,284 95,280 95,289" fill="#aaff00"/>
	<line x1="142" y1="287" x2="94" y2="284" stroke="#aaff00" stroke-width="2"/>
</g>
<g>
	<polygon points="145,284 149,275 154,283" fill="#aaff00"/>
	<line x1="196" y1="246" x2="151" y2="279" stroke="#aaff00" stroke-width="2"/>
</g>
<g>
	<polygon points="291,290 283,285 291,281" fill="#aaff00"/>
	<line x1="270" y1="245" x2="288" y2="284" stroke="#aaff00" stroke-width="2"/>
</g>
<g>
	<polygon points="330,203 339,201 336,209" fill="#aaff00"/>
	<line x1="380" y1="218" x2="337" y2="205" stroke="#aaff00" stroke-width="2"/>
</g>

<g fill="#000000">
	<circle cx="325" cy="201" r="4"/>
</g>
<g fill="#000000">
	<circle cx="242" cy="176" r="4"/>
</g>
<g fill="#000000">
	<circle cx="170" cy="179" r="4"/>
</g>
<g fill="#000000">
	<circle cx="195" cy="245" r="4"/>
</g>
<g fill="#000000">
	<circle cx="292" cy="145" r="4"/>
</g>
<g fill="#000000">
	<circle cx="269" cy="244" r="4"/>
</g>
<g fill="#000000">
	<circle cx="115" cy="153" r="4"/>
</g>
<g fill="#000000">
	<circle cx="141" cy="286" r="4"/>
</g>
<g fill="#000000">
	<circle cx="82" cy="283" r="4"/>
</g>
<g fill="#000000">
	<circle cx="68" cy="101" r="4"/>
</g>
<g fill="#000000">
	<circle cx="46" cy="233" r="4"/>
</g>
<g fill="#000000">
	<circle cx="20" cy="122" r="4"/>
</g>
<g fill="#000000">
	<circle cx="60" cy="168" r="4"/>
</g>
<g fill="#000000">
	<circle cx="144" cy="107" r="4"/>
</g>
<g fill="#000000">
	<circle cx="219" cy="121" r="4"/>
</g>
<g fill="#000000">
	<circle cx="292" cy="96" r="4"/>
</g>
<g fill="#000000">
	<circle cx="334" cy="45" r="4"/>
</g>
<g fill="#000000">
	<circle cx="288" cy="18" r="4"/>
</g>
<g fill="#000000">
	<circle cx="239" cy="59" r="4"/>
</g>
<g fill="#000000">
	<circle cx="379" cy="217" r="4"/>
</g>
<g fill="#000000">
	<circle cx="292" cy="294" r="4"/>
</g>
<g fill="#000000">
	<circle cx="210" cy="6" r="4"/>
</g>

</g>

</svg>
