<?xml version="1.0" encoding="utf-8"?>
<!-- Created with Hypercube (http://tumic.wz.cz/hypercube) -->

<svg width="400" height="300" viewBox="0 0 400 300" xmlns="http://www.w3.org/2000/svg" baseProfile="tiny">

<g font-family="Helvetica" font-weight="normal">

<g>
	<polygon points="208,181 214,175 217,184" fill="#aaff00"/>
	<line x1="283" y1="163" x2="215" y2="180" stroke="#aaff00" stroke-width="2"/>
</g>
<g>
	<polygon points="240,224 231,221 238,215" fill="#aaff00"/>
	<line x1="204" y1="183" x2="235" y2="219" stroke="#aaff00" stroke-width="2"/>
</g>
<g>
	<polygon points="174,243 174,234 182,238" fill="#aaff00"/>
	<line x1="204" y1="183" x2="178" y2="237" stroke="#aaff00" stroke-width="2"/>
</g>
<g>
	<polygon points="142,128 151,130 145,137" fill="#aaff00"/>
	<line x1="204" y1="183" x2="147" y2="133" stroke="#aaff00" stroke-width="2"/>
</g>
<g>
	<polygon points="141,291 142,282 149,287" fill="#aaff00"/>
	<line x1="173" y1="248" x2="145" y2="285" stroke="#aaff00" stroke-width="2"/>
</g>
<g>
	<polygon points="118,238 126,235 125,244" fill="#aaff00"/>
	<line x1="173" y1="248" x2="125" y2="239" stroke="#aaff00" stroke-width="2"/>
</g>
<g>
	<polygon points="207,291 198,288 205,282" fill="#aaff00"/>
	<line x1="173" y1="248" x2="202" y2="285" stroke="#aaff00" stroke-width="2"/>
</g>
<g>
	<polygon points="148,59 151,67 142,66" fill="#aaff00"/>
	<line x1="139" y1="126" x2="147" y2="66" stroke="#aaff00" stroke-width="2"/>
</g>
<g>
	<polygon points="67,127 75,123 75,132" fill="#aaff00"/>
	<line x1="139" y1="126" x2="74" y2="127" stroke="#aaff00" stroke-width="2"/>
</g>
<g>
	<polygon points="201,66 193,68 194,60" fill="#aaff00"/>
	<line x1="149" y1="55" x2="194" y2="64" stroke="#aaff00" stroke-width="2"/>
</g>
<g>
	<polygon points="108,12 116,14 110,20" fill="#aaff00"/>
	<line x1="149" y1="55" x2="113" y2="17" stroke="#aaff00" stroke-width="2"/>
</g>
<g>
	<polygon points="180,8 179,17 172,12" fill="#aaff00"/>
	<line x1="149" y1="55" x2="176" y2="14" stroke="#aaff00" stroke-width="2"/>
</g>
<g>
	<polygon points="44,75 51,81 42,84" fill="#aaff00"/>
	<line x1="63" y1="128" x2="46" y2="82" stroke="#aaff00" stroke-width="2"/>
</g>
<g>
	<polygon points="9,128 17,123 17,132" fill="#aaff00"/>
	<line x1="63" y1="128" x2="16" y2="128" stroke="#aaff00" stroke-width="2"/>
</g>
<g>
	<polygon points="36,181 35,172 43,177" fill="#aaff00"/>
	<line x1="63" y1="128" x2="39" y2="175" stroke="#aaff00" stroke-width="2"/>
</g>
<g>
	<polygon points="321,103 321,94 329,99" fill="#aaff00"/>
	<line x1="354" y1="53" x2="325" y2="97" stroke="#aaff00" stroke-width="2"/>
</g>
<g>
	<polygon points="391,88 382,86 389,80" fill="#aaff00"/>
	<line x1="354" y1="53" x2="386" y2="83" stroke="#aaff00" stroke-width="2"/>
</g>
<g>
	<polygon points="322,10 330,14 323,19" fill="#aaff00"/>
	<line x1="354" y1="53" x2="326" y2="16" stroke="#aaff00" stroke-width="2"/>
</g>
<g>
	<polygon points="392,10 390,19 383,13" fill="#aaff00"/>
	<line x1="354" y1="53" x2="387" y2="15" stroke="#aaff00" stroke-width="2"/>
</g>
<g>
	<polygon points="329,193 320,192 325,185" fill="#aaff00"/>
	<line x1="283" y1="163" x2="323" y2="189" stroke="#aaff00" stroke-width="2"/>
</g>
<g>
	<polygon points="316,110 316,119 308,114" fill="#aaff00"/>
	<line x1="283" y1="163" x2="312" y2="116" stroke="#aaff00" stroke-width="2"/>
</g>

<g fill="#000000">
	<circle cx="282" cy="162" r="4"/>
</g>
<g fill="#000000">
	<circle cx="203" cy="182" r="4"/>
</g>
<g fill="#000000">
	<circle cx="242" cy="227" r="4"/>
</g>
<g fill="#000000">
	<circle cx="172" cy="247" r="4"/>
</g>
<g fill="#000000">
	<circle cx="138" cy="125" r="4"/>
</g>
<g fill="#000000">
	<circle cx="138" cy="294" r="4"/>
</g>
<g fill="#000000">
	<circle cx="113" cy="237" r="4"/>
</g>
<g fill="#000000">
	<circle cx="209" cy="294" r="4"/>
</g>
<g fill="#000000">
	<circle cx="148" cy="54" r="4"/>
</g>
<g fill="#000000">
	<circle cx="205" cy="66" r="4"/>
</g>
<g fill="#000000">
	<circle cx="104" cy="8" r="4"/>
</g>
<g fill="#000000">
	<circle cx="182" cy="4" r="4"/>
</g>
<g fill="#000000">
	<circle cx="62" cy="127" r="4"/>
</g>
<g fill="#000000">
	<circle cx="42" cy="70" r="4"/>
</g>
<g fill="#000000">
	<circle cx="4" cy="127" r="4"/>
</g>
<g fill="#000000">
	<circle cx="33" cy="185" r="4"/>
</g>
<g fill="#000000">
	<circle cx="332" cy="195" r="4"/>
</g>
<g fill="#000000">
	<circle cx="353" cy="52" r="4"/>
</g>
<g fill="#000000">
	<circle cx="318" cy="106" r="4"/>
</g>
<g fill="#000000">
	<circle cx="394" cy="91" r="4"/>
</g>
<g fill="#000000">
	<circle cx="319" cy="6" r="4"/>
</g>
<g fill="#000000">
	<circle cx="394" cy="6" r="4"/>
</g>

</g>

</svg>
