<?xml version="1.0" encoding="utf-8"?>
<!-- Created with Hypercube (http://tumic.wz.cz/hypercube) -->

<svg width="400" height="300" viewBox="0 0 400 300" xmlns="http://www.w3.org/2000/svg" baseProfile="tiny">

<g font-family="Helvetica" font-weight="normal">

<g>
	<polygon points="130,290 125,283 134,282" fill="#aaff00"/>
	<line x1="127" y1="239" x2="130" y2="283" stroke="#aaff00" stroke-width="2"/>
</g>
<g>
	<polygon points="122,238 114,243 114,234" fill="#aaff00"/>
	<line x1="65" y1="238" x2="115" y2="238" stroke="#aaff00" stroke-width="2"/>
</g>
<g>
	<polygon points="123,242 121,250 115,244" fill="#aaff00"/>
	<line x1="72" y1="295" x2="118" y2="247" stroke="#aaff00" stroke-width="2"/>
</g>
<g>
	<polygon points="130,241 139,241 134,249" fill="#aaff00"/>
	<line x1="185" y1="277" x2="136" y2="245" stroke="#aaff00" stroke-width="2"/>
</g>
<g>
	<polygon points="125,234 119,228 128,225" fill="#aaff00"/>
	<line x1="105" y1="148" x2="124" y2="227" stroke="#aaff00" stroke-width="2"/>
</g>
<g>
	<polygon points="153,166 144,167 148,159" fill="#aaff00"/>
	<line x1="105" y1="148" x2="147" y2="163" stroke="#aaff00" stroke-width="2"/>
</g>
<g>
	<polygon points="50,169 55,162 59,170" fill="#aaff00"/>
	<line x1="105" y1="148" x2="56" y2="166" stroke="#aaff00" stroke-width="2"/>
</g>
<g>
	<polygon points="131,237 136,230 140,238" fill="#aaff00"/>
	<line x1="206" y1="205" x2="137" y2="234" stroke="#aaff00" stroke-width="2"/>
</g>
<g>
	<polygon points="161,170 170,171 164,179" fill="#aaff00"/>
	<line x1="206" y1="205" x2="167" y2="175" stroke="#aaff00" stroke-width="2"/>
</g>
<g>
	<polygon points="251,242 242,240 248,233" fill="#aaff00"/>
	<line x1="206" y1="205" x2="245" y2="237" stroke="#aaff00" stroke-width="2"/>
</g>
<g>
	<polygon points="220,107 228,109 222,115" fill="#aaff00"/>
	<line x1="262" y1="149" x2="225" y2="112" stroke="#aaff00" stroke-width="2"/>
</g>
<g>
	<polygon points="209,201 211,193 217,199" fill="#aaff00"/>
	<line x1="262" y1="149" x2="214" y2="196" stroke="#aaff00" stroke-width="2"/>
</g>
<g>
	<polygon points="309,181 300,180 305,173" fill="#aaff00"/>
	<line x1="262" y1="149" x2="303" y2="177" stroke="#aaff00" stroke-width="2"/>
</g>
<g>
	<polygon points="107,144 107,135 115,139" fill="#aaff00"/>
	<line x1="155" y1="64" x2="110" y2="137" stroke="#aaff00" stroke-width="2"/>
</g>
<g>
	<polygon points="213,101 204,101 209,93" fill="#aaff00"/>
	<line x1="155" y1="64" x2="207" y2="97" stroke="#aaff00" stroke-width="2"/>
</g>
<g>
	<polygon points="209,35 204,42 200,34" fill="#aaff00"/>
	<line x1="155" y1="64" x2="202" y2="38" stroke="#aaff00" stroke-width="2"/>
</g>
<g>
	<polygon points="150,63 142,67 142,58" fill="#aaff00"/>
	<line x1="101" y1="61" x2="143" y2="63" stroke="#aaff00" stroke-width="2"/>
</g>
<g>
	<polygon points="155,59 152,51 161,52" fill="#aaff00"/>
	<line x1="164" y1="5" x2="156" y2="52" stroke="#aaff00" stroke-width="2"/>
</g>
<g>
	<polygon points="152,60 143,57 150,51" fill="#aaff00"/>
	<line x1="106" y1="7" x2="147" y2="55" stroke="#aaff00" stroke-width="2"/>
</g>
<g>
	<polygon points="264,145 265,136 272,141" fill="#aaff00"/>
	<line x1="304" y1="92" x2="268" y2="139" stroke="#aaff00" stroke-width="2"/>
</g>
<g>
	<polygon points="329,39 329,48 321,44" fill="#aaff00"/>
	<line x1="304" y1="92" x2="325" y2="45" stroke="#aaff00" stroke-width="2"/>
</g>
<g>
	<polygon points="351,106 342,108 345,100" fill="#aaff00"/>
	<line x1="304" y1="92" x2="344" y2="104" stroke="#aaff00" stroke-width="2"/>
</g>
<g>
	<polygon points="101,145 92,145 97,137" fill="#aaff00"/>
	<line x1="47" y1="110" x2="95" y2="141" stroke="#aaff00" stroke-width="2"/>
</g>

<g fill="#000000">
	<circle cx="126" cy="238" r="4"/>
</g>
<g fill="#000000">
	<circle cx="130" cy="294" r="4"/>
</g>
<g fill="#000000">
	<circle cx="64" cy="237" r="4"/>
</g>
<g fill="#000000">
	<circle cx="71" cy="294" r="4"/>
</g>
<g fill="#000000">
	<circle cx="184" cy="276" r="4"/>
</g>
<g fill="#000000">
	<circle cx="104" cy="147" r="4"/>
</g>
<g fill="#000000">
	<circle cx="157" cy="167" r="4"/>
</g>
<g fill="#000000">
	<circle cx="45" cy="170" r="4"/>
</g>
<g fill="#000000">
	<circle cx="154" cy="63" r="4"/>
</g>
<g fill="#000000">
	<circle cx="216" cy="103" r="4"/>
</g>
<g fill="#000000">
	<circle cx="212" cy="32" r="4"/>
</g>
<g fill="#000000">
	<circle cx="100" cy="60" r="4"/>
</g>
<g fill="#000000">
	<circle cx="163" cy="4" r="4"/>
</g>
<g fill="#000000">
	<circle cx="105" cy="6" r="4"/>
</g>
<g fill="#000000">
	<circle cx="46" cy="109" r="4"/>
</g>
<g fill="#000000">
	<circle cx="205" cy="204" r="4"/>
</g>
<g fill="#000000">
	<circle cx="254" cy="244" r="4"/>
</g>
<g fill="#000000">
	<circle cx="261" cy="148" r="4"/>
</g>
<g fill="#000000">
	<circle cx="312" cy="183" r="4"/>
</g>
<g fill="#000000">
	<circle cx="303" cy="91" r="4"/>
</g>
<g fill="#000000">
	<circle cx="330" cy="34" r="4"/>
</g>
<g fill="#000000">
	<circle cx="355" cy="107" r="4"/>
</g>

</g>

</svg>
