<?xml version="1.0" encoding="utf-8"?>
<!-- Created with Hypercube (http://tumic.wz.cz/hypercube) -->

<svg width="400" height="300" viewBox="0 0 400 300" xmlns="http://www.w3.org/2000/svg" baseProfile="tiny">

<g font-family="Helvetica" font-weight="normal">

<g>
	<polygon points="210,74 216,81 207,82" fill="#aaff00"/>
	<line x1="224" y1="149" x2="212" y2="81" stroke="#aaff00" stroke-width="2"/>
</g>
<g>
	<polygon points="325,149 317,154 317,145" fill="#aaff00"/>
	<line x1="224" y1="149" x2="318" y2="149" stroke="#aaff00" stroke-width="2"/>
</g>
<g>
	<polygon points="158,225 160,216 167,222" fill="#aaff00"/>
	<line x1="224" y1="149" x2="163" y2="220" stroke="#aaff00" stroke-width="2"/>
</g>
<g>
	<polygon points="261,112 259,120 253,114" fill="#aaff00"/>
	<line x1="224" y1="149" x2="256" y2="117" stroke="#aaff00" stroke-width="2"/>
</g>
<g>
	<polygon points="164,127 173,125 170,134" fill="#aaff00"/>
	<line x1="224" y1="149" x2="171" y2="129" stroke="#aaff00" stroke-width="2"/>
</g>
<g>
	<polygon points="234,200 228,193 237,192" fill="#aaff00"/>
	<line x1="224" y1="149" x2="232" y2="193" stroke="#aaff00" stroke-width="2"/>
</g>
<g>
	<polygon points="204,15 209,22 200,23" fill="#aaff00"/>
	<line x1="210" y1="70" x2="205" y2="22" stroke="#aaff00" stroke-width="2"/>
</g>
<g>
	<polygon points="377,204 368,201 375,195" fill="#aaff00"/>
	<line x1="330" y1="150" x2="372" y2="199" stroke="#aaff00" stroke-width="2"/>
</g>
<g>
	<polygon points="314,201 312,192 320,195" fill="#aaff00"/>
	<line x1="330" y1="150" x2="316" y2="194" stroke="#aaff00" stroke-width="2"/>
</g>
<g>
	<polygon points="350,86 352,95 343,92" fill="#aaff00"/>
	<line x1="330" y1="150" x2="348" y2="93" stroke="#aaff00" stroke-width="2"/>
</g>
<g>
	<polygon points="390,137 383,143 382,134" fill="#aaff00"/>
	<line x1="330" y1="150" x2="383" y2="139" stroke="#aaff00" stroke-width="2"/>
</g>
<g>
	<polygon points="393,257 387,251 396,248" fill="#aaff00"/>
	<line x1="380" y1="208" x2="391" y2="250" stroke="#aaff00" stroke-width="2"/>
</g>
<g>
	<polygon points="369,33 371,42 362,39" fill="#aaff00"/>
	<line x1="352" y1="82" x2="367" y2="40" stroke="#aaff00" stroke-width="2"/>
</g>
<g>
	<polygon points="123,88 131,90 125,96" fill="#aaff00"/>
	<line x1="160" y1="126" x2="128" y2="93" stroke="#aaff00" stroke-width="2"/>
</g>
<g>
	<polygon points="87,209 78,211 81,203" fill="#aaff00"/>
	<line x1="29" y1="192" x2="80" y2="207" stroke="#aaff00" stroke-width="2"/>
</g>
<g>
	<polygon points="6,240 5,231 14,235" fill="#aaff00"/>
	<line x1="29" y1="192" x2="9" y2="234" stroke="#aaff00" stroke-width="2"/>
</g>
<g>
	<polygon points="27,187 20,182 28,178" fill="#aaff00"/>
	<line x1="5" y1="136" x2="24" y2="181" stroke="#aaff00" stroke-width="2"/>
</g>
<g>
	<polygon points="5,131 0,123 9,123" fill="#aaff00"/>
	<line x1="5" y1="80" x2="5" y2="124" stroke="#aaff00" stroke-width="2"/>
</g>
<g>
	<polygon points="122,279 123,270 130,275" fill="#aaff00"/>
	<line x1="156" y1="229" x2="126" y2="273" stroke="#aaff00" stroke-width="2"/>
</g>
<g>
	<polygon points="184,285 177,280 185,276" fill="#aaff00"/>
	<line x1="156" y1="229" x2="181" y2="278" stroke="#aaff00" stroke-width="2"/>
</g>
<g>
	<polygon points="96,212 105,209 102,218" fill="#aaff00"/>
	<line x1="156" y1="229" x2="103" y2="214" stroke="#aaff00" stroke-width="2"/>
</g>

<g fill="#000000">
	<circle cx="223" cy="148" r="4"/>
</g>
<g fill="#000000">
	<circle cx="119" cy="282" r="4"/>
</g>
<g fill="#000000">
	<circle cx="186" cy="288" r="4"/>
</g>
<g fill="#000000">
	<circle cx="91" cy="210" r="4"/>
</g>
<g fill="#000000">
	<circle cx="4" cy="244" r="4"/>
</g>
<g fill="#000000">
	<circle cx="4" cy="79" r="4"/>
</g>
<g fill="#000000">
	<circle cx="4" cy="135" r="4"/>
</g>
<g fill="#000000">
	<circle cx="28" cy="191" r="4"/>
</g>
<g fill="#000000">
	<circle cx="209" cy="69" r="4"/>
</g>
<g fill="#000000">
	<circle cx="329" cy="149" r="4"/>
</g>
<g fill="#000000">
	<circle cx="155" cy="228" r="4"/>
</g>
<g fill="#000000">
	<circle cx="264" cy="108" r="4"/>
</g>
<g fill="#000000">
	<circle cx="159" cy="125" r="4"/>
</g>
<g fill="#000000">
	<circle cx="234" cy="204" r="4"/>
</g>
<g fill="#000000">
	<circle cx="203" cy="10" r="4"/>
</g>
<g fill="#000000">
	<circle cx="379" cy="207" r="4"/>
</g>
<g fill="#000000">
	<circle cx="312" cy="205" r="4"/>
</g>
<g fill="#000000">
	<circle cx="351" cy="81" r="4"/>
</g>
<g fill="#000000">
	<circle cx="394" cy="136" r="4"/>
</g>
<g fill="#000000">
	<circle cx="394" cy="261" r="4"/>
</g>
<g fill="#000000">
	<circle cx="370" cy="28" r="4"/>
</g>
<g fill="#000000">
	<circle cx="119" cy="84" r="4"/>
</g>

</g>

</svg>
