<?xml version="1.0" encoding="utf-8"?>
<!-- Created with Hypercube (http://tumic.wz.cz/hypercube) -->

<svg width="400" height="300" viewBox="0 0 400 300" xmlns="http://www.w3.org/2000/svg" baseProfile="tiny">

<g font-family="Helvetica" font-weight="normal">

<g>
	<polygon points="331,240 322,239 327,232" fill="#aaff00"/>
	<line x1="280" y1="204" x2="325" y2="236" stroke="#aaff00" stroke-width="2"/>
</g>
<g>
	<polygon points="236,121 243,126 235,130" fill="#aaff00"/>
	<line x1="280" y1="204" x2="239" y2="128" stroke="#aaff00" stroke-width="2"/>
</g>
<g>
	<polygon points="389,255 380,258 383,249" fill="#aaff00"/>
	<line x1="335" y1="243" x2="382" y2="254" stroke="#aaff00" stroke-width="2"/>
</g>
<g>
	<polygon points="323,290 320,281 329,284" fill="#aaff00"/>
	<line x1="335" y1="243" x2="324" y2="283" stroke="#aaff00" stroke-width="2"/>
</g>
<g>
	<polygon points="284,90 279,97 275,90" fill="#aaff00"/>
	<line x1="234" y1="118" x2="277" y2="93" stroke="#aaff00" stroke-width="2"/>
</g>
<g>
	<polygon points="189,69 197,71 191,78" fill="#aaff00"/>
	<line x1="234" y1="118" x2="193" y2="74" stroke="#aaff00" stroke-width="2"/>
</g>
<g>
	<polygon points="326,45 324,54 317,48" fill="#aaff00"/>
	<line x1="288" y1="88" x2="321" y2="50" stroke="#aaff00" stroke-width="2"/>
</g>
<g>
	<polygon points="278,145 275,137 284,138" fill="#aaff00"/>
	<line x1="288" y1="88" x2="279" y2="138" stroke="#aaff00" stroke-width="2"/>
</g>
<g>
	<polygon points="337,145 330,150 329,141" fill="#aaff00"/>
	<line x1="278" y1="150" x2="330" y2="145" stroke="#aaff00" stroke-width="2"/>
</g>
<g>
	<polygon points="193,203 197,195 202,203" fill="#aaff00"/>
	<line x1="278" y1="150" x2="199" y2="199" stroke="#aaff00" stroke-width="2"/>
</g>
<g>
	<polygon points="136,181 145,180 141,189" fill="#aaff00"/>
	<line x1="190" y1="206" x2="142" y2="184" stroke="#aaff00" stroke-width="2"/>
</g>
<g>
	<polygon points="128,253 132,244 137,252" fill="#aaff00"/>
	<line x1="190" y1="206" x2="134" y2="248" stroke="#aaff00" stroke-width="2"/>
</g>
<g>
	<polygon points="74,170 82,167 81,176" fill="#aaff00"/>
	<line x1="132" y1="180" x2="81" y2="171" stroke="#aaff00" stroke-width="2"/>
</g>
<g>
	<polygon points="123,135 129,142 120,143" fill="#aaff00"/>
	<line x1="132" y1="180" x2="125" y2="142" stroke="#aaff00" stroke-width="2"/>
</g>
<g>
	<polygon points="156,291 147,288 154,282" fill="#aaff00"/>
	<line x1="125" y1="256" x2="151" y2="286" stroke="#aaff00" stroke-width="2"/>
</g>
<g>
	<polygon points="59,264 66,258 67,267" fill="#aaff00"/>
	<line x1="125" y1="256" x2="66" y2="263" stroke="#aaff00" stroke-width="2"/>
</g>
<g>
	<polygon points="10,292 15,284 19,292" fill="#aaff00"/>
	<line x1="55" y1="265" x2="16" y2="288" stroke="#aaff00" stroke-width="2"/>
</g>
<g>
	<polygon points="10,229 19,231 13,238" fill="#aaff00"/>
	<line x1="55" y1="265" x2="16" y2="234" stroke="#aaff00" stroke-width="2"/>
</g>
<g>
	<polygon points="169,9 175,15 167,18" fill="#aaff00"/>
	<line x1="186" y1="66" x2="171" y2="16" stroke="#aaff00" stroke-width="2"/>
</g>
<g>
	<polygon points="132,66 140,61 140,70" fill="#aaff00"/>
	<line x1="186" y1="66" x2="139" y2="66" stroke="#aaff00" stroke-width="2"/>
</g>
<g>
	<polygon points="217,5 209,9 209,0" fill="#aaff00"/>
	<line x1="168" y1="5" x2="210" y2="5" stroke="#aaff00" stroke-width="2"/>
</g>
<g>
	<polygon points="109,5 117,0 117,9" fill="#aaff00"/>
	<line x1="168" y1="5" x2="116" y2="5" stroke="#aaff00" stroke-width="2"/>
</g>

<g fill="#000000">
	<circle cx="279" cy="203" r="4"/>
</g>
<g fill="#000000">
	<circle cx="334" cy="242" r="4"/>
</g>
<g fill="#000000">
	<circle cx="233" cy="117" r="4"/>
</g>
<g fill="#000000">
	<circle cx="393" cy="256" r="4"/>
</g>
<g fill="#000000">
	<circle cx="321" cy="294" r="4"/>
</g>
<g fill="#000000">
	<circle cx="287" cy="87" r="4"/>
</g>
<g fill="#000000">
	<circle cx="185" cy="65" r="4"/>
</g>
<g fill="#000000">
	<circle cx="328" cy="41" r="4"/>
</g>
<g fill="#000000">
	<circle cx="277" cy="149" r="4"/>
</g>
<g fill="#000000">
	<circle cx="341" cy="144" r="4"/>
</g>
<g fill="#000000">
	<circle cx="189" cy="205" r="4"/>
</g>
<g fill="#000000">
	<circle cx="131" cy="179" r="4"/>
</g>
<g fill="#000000">
	<circle cx="124" cy="255" r="4"/>
</g>
<g fill="#000000">
	<circle cx="69" cy="169" r="4"/>
</g>
<g fill="#000000">
	<circle cx="122" cy="130" r="4"/>
</g>
<g fill="#000000">
	<circle cx="158" cy="294" r="4"/>
</g>
<g fill="#000000">
	<circle cx="54" cy="264" r="4"/>
</g>
<g fill="#000000">
	<circle cx="6" cy="294" r="4"/>
</g>
<g fill="#000000">
	<circle cx="6" cy="226" r="4"/>
</g>
<g fill="#000000">
	<circle cx="167" cy="4" r="4"/>
</g>
<g fill="#000000">
	<circle cx="127" cy="65" r="4"/>
</g>
<g fill="#000000">
	<circle cx="221" cy="4" r="4"/>
</g>
<g fill="#000000">
	<circle cx="104" cy="4" r="4"/>
</g>

</g>

</svg>
