<?xml version="1.0" encoding="utf-8"?>
<!-- Created with Hypercube (http://tumic.wz.cz/hypercube) -->

<svg width="400" height="300" viewBox="0 0 400 300" xmlns="http://www.w3.org/2000/svg" baseProfile="tiny">

<g font-family="Helvetica" font-weight="normal">

<g>
	<polygon points="347,252 344,244 353,245" fill="#aaff00"/>
	<line x1="362" y1="152" x2="348" y2="245" stroke="#aaff00" stroke-width="2"/>
</g>
<g>
	<polygon points="264,260 272,255 272,264" fill="#aaff00"/>
	<line x1="347" y1="257" x2="271" y2="260" stroke="#aaff00" stroke-width="2"/>
</g>
<g>
	<polygon points="257,257 248,254 255,248" fill="#aaff00"/>
	<line x1="197" y1="184" x2="252" y2="251" stroke="#aaff00" stroke-width="2"/>
</g>
<g>
	<polygon points="159,89 166,94 158,98" fill="#aaff00"/>
	<line x1="197" y1="184" x2="162" y2="95" stroke="#aaff00" stroke-width="2"/>
</g>
<g>
	<polygon points="193,186 189,195 184,187" fill="#aaff00"/>
	<line x1="160" y1="212" x2="187" y2="191" stroke="#aaff00" stroke-width="2"/>
</g>
<g>
	<polygon points="141,270 139,261 148,264" fill="#aaff00"/>
	<line x1="160" y1="212" x2="143" y2="263" stroke="#aaff00" stroke-width="2"/>
</g>
<g>
	<polygon points="98,229 104,223 107,231" fill="#aaff00"/>
	<line x1="160" y1="212" x2="105" y2="227" stroke="#aaff00" stroke-width="2"/>
</g>
<g>
	<polygon points="181,293 172,294 176,285" fill="#aaff00"/>
	<line x1="140" y1="275" x2="175" y2="290" stroke="#aaff00" stroke-width="2"/>
</g>
<g>
	<polygon points="323,100 317,106 314,98" fill="#aaff00"/>
	<line x1="259" y1="120" x2="316" y2="102" stroke="#aaff00" stroke-width="2"/>
</g>
<g>
	<polygon points="163,208 165,200 172,206" fill="#aaff00"/>
	<line x1="259" y1="120" x2="168" y2="204" stroke="#aaff00" stroke-width="2"/>
</g>
<g>
	<polygon points="359,148 351,144 359,139" fill="#aaff00"/>
	<line x1="328" y1="99" x2="355" y2="142" stroke="#aaff00" stroke-width="2"/>
</g>
<g>
	<polygon points="257,115 251,109 260,106" fill="#aaff00"/>
	<line x1="245" y1="62" x2="256" y2="108" stroke="#aaff00" stroke-width="2"/>
</g>
<g>
	<polygon points="212,113 212,104 220,109" fill="#aaff00"/>
	<line x1="245" y1="62" x2="216" y2="107" stroke="#aaff00" stroke-width="2"/>
</g>
<g>
	<polygon points="262,9 264,18 255,15" fill="#aaff00"/>
	<line x1="245" y1="62" x2="260" y2="16" stroke="#aaff00" stroke-width="2"/>
</g>
<g>
	<polygon points="133,138 139,132 142,140" fill="#aaff00"/>
	<line x1="210" y1="117" x2="140" y2="136" stroke="#aaff00" stroke-width="2"/>
</g>
<g>
	<polygon points="71,140 79,135 79,144" fill="#aaff00"/>
	<line x1="129" y1="140" x2="78" y2="140" stroke="#aaff00" stroke-width="2"/>
</g>
<g>
	<polygon points="41,101 49,105 42,110" fill="#aaff00"/>
	<line x1="67" y1="140" x2="45" y2="107" stroke="#aaff00" stroke-width="2"/>
</g>
<g>
	<polygon points="357,153 351,159 348,150" fill="#aaff00"/>
	<line x1="303" y1="168" x2="350" y2="155" stroke="#aaff00" stroke-width="2"/>
</g>
<g>
	<polygon points="213,119 222,118 218,126" fill="#aaff00"/>
	<line x1="303" y1="168" x2="220" y2="122" stroke="#aaff00" stroke-width="2"/>
</g>
<g>
	<polygon points="260,189 265,182 269,190" fill="#aaff00"/>
	<line x1="303" y1="168" x2="267" y2="186" stroke="#aaff00" stroke-width="2"/>
</g>
<g>
	<polygon points="351,197 342,197 346,189" fill="#aaff00"/>
	<line x1="303" y1="168" x2="345" y2="193" stroke="#aaff00" stroke-width="2"/>
</g>
<g>
	<polygon points="303,219 299,211 308,211" fill="#aaff00"/>
	<line x1="303" y1="168" x2="303" y2="212" stroke="#aaff00" stroke-width="2"/>
</g>
<g>
	<polygon points="82,7 91,6 87,14" fill="#aaff00"/>
	<line x1="127" y1="30" x2="89" y2="10" stroke="#aaff00" stroke-width="2"/>
</g>
<g>
	<polygon points="129,33 136,38 129,42" fill="#aaff00"/>
	<line x1="158" y1="85" x2="132" y2="40" stroke="#aaff00" stroke-width="2"/>
</g>

<g fill="#000000">
	<circle cx="361" cy="151" r="4"/>
</g>
<g fill="#000000">
	<circle cx="346" cy="256" r="4"/>
</g>
<g fill="#000000">
	<circle cx="259" cy="260" r="4"/>
</g>
<g fill="#000000">
	<circle cx="196" cy="183" r="4"/>
</g>
<g fill="#000000">
	<circle cx="157" cy="84" r="4"/>
</g>
<g fill="#000000">
	<circle cx="327" cy="98" r="4"/>
</g>
<g fill="#000000">
	<circle cx="139" cy="274" r="4"/>
</g>
<g fill="#000000">
	<circle cx="185" cy="294" r="4"/>
</g>
<g fill="#000000">
	<circle cx="258" cy="119" r="4"/>
</g>
<g fill="#000000">
	<circle cx="159" cy="211" r="4"/>
</g>
<g fill="#000000">
	<circle cx="93" cy="230" r="4"/>
</g>
<g fill="#000000">
	<circle cx="209" cy="116" r="4"/>
</g>
<g fill="#000000">
	<circle cx="128" cy="139" r="4"/>
</g>
<g fill="#000000">
	<circle cx="66" cy="139" r="4"/>
</g>
<g fill="#000000">
	<circle cx="38" cy="97" r="4"/>
</g>
<g fill="#000000">
	<circle cx="126" cy="29" r="4"/>
</g>
<g fill="#000000">
	<circle cx="78" cy="4" r="4"/>
</g>
<g fill="#000000">
	<circle cx="302" cy="167" r="4"/>
</g>
<g fill="#000000">
	<circle cx="256" cy="191" r="4"/>
</g>
<g fill="#000000">
	<circle cx="354" cy="199" r="4"/>
</g>
<g fill="#000000">
	<circle cx="303" cy="223" r="4"/>
</g>
<g fill="#000000">
	<circle cx="244" cy="61" r="4"/>
</g>
<g fill="#000000">
	<circle cx="263" cy="4" r="4"/>
</g>

</g>

</svg>
