<?xml version="1.0" encoding="utf-8"?>
<!-- Created with Hypercube (http://tumic.wz.cz/hypercube) -->

<svg width="400" height="300" viewBox="0 0 400 300" xmlns="http://www.w3.org/2000/svg" baseProfile="tiny">

<g font-family="Helvetica" font-weight="normal">

<g>
	<polygon points="176,211 184,215 177,220" fill="#aaff00"/>
	<line x1="196" y1="241" x2="180" y2="217" stroke="#aaff00" stroke-width="2"/>
</g>
<g>
	<polygon points="128,257 134,251 137,260" fill="#aaff00"/>
	<line x1="196" y1="241" x2="135" y2="256" stroke="#aaff00" stroke-width="2"/>
</g>
<g>
	<polygon points="127,255 129,247 135,253" fill="#aaff00"/>
	<line x1="174" y1="208" x2="132" y2="250" stroke="#aaff00" stroke-width="2"/>
</g>
<g>
	<polygon points="121,255 112,252 119,246" fill="#aaff00"/>
	<line x1="61" y1="184" x2="116" y2="250" stroke="#aaff00" stroke-width="2"/>
</g>
<g>
	<polygon points="87,214 78,211 85,205" fill="#aaff00"/>
	<line x1="61" y1="184" x2="82" y2="209" stroke="#aaff00" stroke-width="2"/>
</g>
<g>
	<polygon points="121,255 112,252 119,246" fill="#aaff00"/>
	<line x1="90" y1="218" x2="116" y2="250" stroke="#aaff00" stroke-width="2"/>
</g>
<g>
	<polygon points="130,216 122,221 122,212" fill="#aaff00"/>
	<line x1="90" y1="218" x2="123" y2="216" stroke="#aaff00" stroke-width="2"/>
</g>
<g>
	<polygon points="191,239 182,240 186,232" fill="#aaff00"/>
	<line x1="135" y1="216" x2="185" y2="236" stroke="#aaff00" stroke-width="2"/>
</g>
<g>
	<polygon points="125,254 122,245 131,248" fill="#aaff00"/>
	<line x1="135" y1="216" x2="126" y2="247" stroke="#aaff00" stroke-width="2"/>
</g>
<g>
	<polygon points="193,237 185,233 192,228" fill="#aaff00"/>
	<line x1="138" y1="153" x2="189" y2="231" stroke="#aaff00" stroke-width="2"/>
</g>
<g>
	<polygon points="171,204 163,200 171,195" fill="#aaff00"/>
	<line x1="138" y1="153" x2="167" y2="198" stroke="#aaff00" stroke-width="2"/>
</g>
<g>
	<polygon points="94,144 102,141 101,150" fill="#aaff00"/>
	<line x1="138" y1="153" x2="101" y2="146" stroke="#aaff00" stroke-width="2"/>
</g>
<g>
	<polygon points="65,182 70,175 74,183" fill="#aaff00"/>
	<line x1="138" y1="153" x2="71" y2="179" stroke="#aaff00" stroke-width="2"/>
</g>
<g>
	<polygon points="92,214 93,205 100,210" fill="#aaff00"/>
	<line x1="138" y1="153" x2="96" y2="208" stroke="#aaff00" stroke-width="2"/>
</g>
<g>
	<polygon points="135,211 131,203 140,203" fill="#aaff00"/>
	<line x1="138" y1="153" x2="135" y2="204" stroke="#aaff00" stroke-width="2"/>
</g>
<g>
	<polygon points="140,149 142,140 149,146" fill="#aaff00"/>
	<line x1="180" y1="102" x2="145" y2="143" stroke="#aaff00" stroke-width="2"/>
</g>
<g>
	<polygon points="182,98 182,89 190,93" fill="#aaff00"/>
	<line x1="214" y1="44" x2="185" y2="91" stroke="#aaff00" stroke-width="2"/>
</g>
<g>
	<polygon points="231,143 225,136 234,135" fill="#aaff00"/>
	<line x1="214" y1="44" x2="230" y2="136" stroke="#aaff00" stroke-width="2"/>
</g>
<g>
	<polygon points="286,42 278,46 278,37" fill="#aaff00"/>
	<line x1="214" y1="44" x2="279" y2="42" stroke="#aaff00" stroke-width="2"/>
</g>
<g>
	<polygon points="227,91 221,85 229,82" fill="#aaff00"/>
	<line x1="214" y1="44" x2="225" y2="84" stroke="#aaff00" stroke-width="2"/>
</g>
<g>
	<polygon points="189,136 186,127 195,130" fill="#aaff00"/>
	<line x1="214" y1="44" x2="191" y2="129" stroke="#aaff00" stroke-width="2"/>
</g>
<g>
	<polygon points="140,78 145,70 149,78" fill="#aaff00"/>
	<line x1="214" y1="44" x2="146" y2="75" stroke="#aaff00" stroke-width="2"/>
</g>
<g>
	<polygon points="101,43 109,38 109,47" fill="#aaff00"/>
	<line x1="214" y1="44" x2="108" y2="43" stroke="#aaff00" stroke-width="2"/>
</g>
<g>
	<polygon points="140,112 142,104 149,110" fill="#aaff00"/>
	<line x1="214" y1="44" x2="145" y2="108" stroke="#aaff00" stroke-width="2"/>
</g>
<g>
	<polygon points="180,60 185,52 189,60" fill="#aaff00"/>
	<line x1="214" y1="44" x2="186" y2="56" stroke="#aaff00" stroke-width="2"/>
</g>
<g>
	<polygon points="139,44 147,39 147,48" fill="#aaff00"/>
	<line x1="214" y1="44" x2="146" y2="44" stroke="#aaff00" stroke-width="2"/>
</g>
<g>
	<polygon points="142,152 150,147 150,156" fill="#aaff00"/>
	<line x1="232" y1="148" x2="149" y2="152" stroke="#aaff00" stroke-width="2"/>
</g>
<g>
	<polygon points="192,141 200,138 199,147" fill="#aaff00"/>
	<line x1="232" y1="148" x2="199" y2="142" stroke="#aaff00" stroke-width="2"/>
</g>
<g>
	<polygon points="142,151 148,145 151,154" fill="#aaff00"/>
	<line x1="188" y1="141" x2="149" y2="150" stroke="#aaff00" stroke-width="2"/>
</g>
<g>
	<polygon points="138,83 147,86 140,92" fill="#aaff00"/>
	<line x1="188" y1="141" x2="143" y2="88" stroke="#aaff00" stroke-width="2"/>
</g>
<g>
	<polygon points="175,99 166,100 171,92" fill="#aaff00"/>
	<line x1="136" y1="80" x2="169" y2="96" stroke="#aaff00" stroke-width="2"/>
</g>
<g>
	<polygon points="137,148 133,140 142,140" fill="#aaff00"/>
	<line x1="136" y1="80" x2="137" y2="141" stroke="#aaff00" stroke-width="2"/>
</g>
<g>
	<polygon points="100,46 109,48 102,54" fill="#aaff00"/>
	<line x1="136" y1="80" x2="105" y2="51" stroke="#aaff00" stroke-width="2"/>
</g>
<g>
	<polygon points="136,111 132,103 141,103" fill="#aaff00"/>
	<line x1="136" y1="80" x2="136" y2="104" stroke="#aaff00" stroke-width="2"/>
</g>
<g>
	<polygon points="171,63 166,71 162,62" fill="#aaff00"/>
	<line x1="136" y1="80" x2="165" y2="66" stroke="#aaff00" stroke-width="2"/>
</g>
<g>
	<polygon points="135,48 139,56 130,56" fill="#aaff00"/>
	<line x1="136" y1="80" x2="135" y2="55" stroke="#aaff00" stroke-width="2"/>
</g>
<g>
	<polygon points="63,180 64,171 71,176" fill="#aaff00"/>
	<line x1="136" y1="80" x2="67" y2="174" stroke="#aaff00" stroke-width="2"/>
</g>
<g>
	<polygon points="136,148 129,143 137,139" fill="#aaff00"/>
	<line x1="97" y1="43" x2="133" y2="142" stroke="#aaff00" stroke-width="2"/>
</g>
<g>
	<polygon points="137,148 133,140 142,140" fill="#aaff00"/>
	<line x1="137" y1="116" x2="137" y2="141" stroke="#aaff00" stroke-width="2"/>
</g>
<g>
	<polygon points="139,148 138,139 146,143" fill="#aaff00"/>
	<line x1="176" y1="62" x2="142" y2="142" stroke="#aaff00" stroke-width="2"/>
</g>
<g>
	<polygon points="137,148 133,140 142,140" fill="#aaff00"/>
	<line x1="135" y1="44" x2="137" y2="141" stroke="#aaff00" stroke-width="2"/>
</g>
<g>
	<polygon points="336,65 334,73 327,67" fill="#aaff00"/>
	<line x1="281" y1="118" x2="331" y2="70" stroke="#aaff00" stroke-width="2"/>
</g>
<g>
	<polygon points="217,47 225,50 218,56" fill="#aaff00"/>
	<line x1="281" y1="118" x2="221" y2="52" stroke="#aaff00" stroke-width="2"/>
</g>
<g>
	<polygon points="235,145 240,137 244,145" fill="#aaff00"/>
	<line x1="281" y1="118" x2="241" y2="141" stroke="#aaff00" stroke-width="2"/>
</g>
<g>
	<polygon points="257,70 265,75 257,79" fill="#aaff00"/>
	<line x1="281" y1="118" x2="261" y2="76" stroke="#aaff00" stroke-width="2"/>
</g>
<g>
	<polygon points="304,95 302,103 296,97" fill="#aaff00"/>
	<line x1="281" y1="118" x2="299" y2="100" stroke="#aaff00" stroke-width="2"/>
</g>
<g>
	<polygon points="218,44 226,41 225,50" fill="#aaff00"/>
	<line x1="340" y1="62" x2="225" y2="45" stroke="#aaff00" stroke-width="2"/>
</g>
<g>
	<polygon points="217,46 226,45 222,53" fill="#aaff00"/>
	<line x1="256" y1="66" x2="224" y2="49" stroke="#aaff00" stroke-width="2"/>
</g>
<g>
	<polygon points="218,46 226,45 222,53" fill="#aaff00"/>
	<line x1="308" y1="92" x2="224" y2="49" stroke="#aaff00" stroke-width="2"/>
</g>

<g fill="#000000">
	<circle cx="195" cy="240" r="4"/>
</g>
<g fill="#000000">
	<circle cx="173" cy="207" r="4"/>
</g>
<g fill="#000000">
	<circle cx="123" cy="258" r="4"/>
</g>
<g fill="#000000">
	<circle cx="179" cy="101" r="4"/>
</g>
<g fill="#000000">
	<circle cx="137" cy="152" r="4"/>
</g>
<g fill="#000000">
	<circle cx="280" cy="117" r="4"/>
</g>
<g fill="#000000">
	<circle cx="339" cy="61" r="4"/>
</g>
<g fill="#000000">
	<circle cx="213" cy="43" r="4"/>
</g>
<g fill="#000000">
	<circle cx="231" cy="147" r="4"/>
</g>
<g fill="#000000">
	<circle cx="255" cy="65" r="4"/>
</g>
<g fill="#000000">
	<circle cx="307" cy="91" r="4"/>
</g>
<g fill="#000000">
	<circle cx="290" cy="41" r="4"/>
</g>
<g fill="#000000">
	<circle cx="228" cy="95" r="4"/>
</g>
<g fill="#000000">
	<circle cx="187" cy="140" r="4"/>
</g>
<g fill="#000000">
	<circle cx="135" cy="79" r="4"/>
</g>
<g fill="#000000">
	<circle cx="96" cy="42" r="4"/>
</g>
<g fill="#000000">
	<circle cx="136" cy="115" r="4"/>
</g>
<g fill="#000000">
	<circle cx="175" cy="61" r="4"/>
</g>
<g fill="#000000">
	<circle cx="134" cy="43" r="4"/>
</g>
<g fill="#000000">
	<circle cx="89" cy="143" r="4"/>
</g>
<g fill="#000000">
	<circle cx="60" cy="183" r="4"/>
</g>
<g fill="#000000">
	<circle cx="89" cy="217" r="4"/>
</g>
<g fill="#000000">
	<circle cx="134" cy="215" r="4"/>
</g>

</g>

</svg>
