<?xml version="1.0" encoding="utf-8"?>
<!-- Created with Hypercube (http://tumic.wz.cz/hypercube) -->

<svg width="400" height="300" viewBox="0 0 400 300" xmlns="http://www.w3.org/2000/svg" baseProfile="tiny">

<g font-family="Helvetica" font-weight="normal">

<g>
	<polygon points="293,152 285,157 285,148" fill="#aaff00"/>
	<line x1="229" y1="152" x2="286" y2="152" stroke="#aaff00" stroke-width="2"/>
</g>
<g>
	<polygon points="240,241 234,234 243,233" fill="#aaff00"/>
	<line x1="229" y1="152" x2="239" y2="234" stroke="#aaff00" stroke-width="2"/>
</g>
<g>
	<polygon points="203,202 202,193 210,197" fill="#aaff00"/>
	<line x1="229" y1="152" x2="206" y2="195" stroke="#aaff00" stroke-width="2"/>
</g>
<g>
	<polygon points="156,192 161,185 165,192" fill="#aaff00"/>
	<line x1="229" y1="152" x2="163" y2="189" stroke="#aaff00" stroke-width="2"/>
</g>
<g>
	<polygon points="178,129 187,128 183,137" fill="#aaff00"/>
	<line x1="229" y1="152" x2="184" y2="132" stroke="#aaff00" stroke-width="2"/>
</g>
<g>
	<polygon points="212,84 218,90 209,93" fill="#aaff00"/>
	<line x1="229" y1="152" x2="213" y2="91" stroke="#aaff00" stroke-width="2"/>
</g>
<g>
	<polygon points="263,76 264,85 255,81" fill="#aaff00"/>
	<line x1="229" y1="152" x2="260" y2="82" stroke="#aaff00" stroke-width="2"/>
</g>
<g>
	<polygon points="334,188 326,186 332,180" fill="#aaff00"/>
	<line x1="298" y1="153" x2="329" y2="183" stroke="#aaff00" stroke-width="2"/>
</g>
<g>
	<polygon points="295,226 298,217 304,224" fill="#aaff00"/>
	<line x1="338" y1="192" x2="301" y2="221" stroke="#aaff00" stroke-width="2"/>
</g>
<g>
	<polygon points="205,207 214,204 211,213" fill="#aaff00"/>
	<line x1="292" y1="229" x2="212" y2="208" stroke="#aaff00" stroke-width="2"/>
</g>
<g>
	<polygon points="71,184 79,181 78,190" fill="#aaff00"/>
	<line x1="201" y1="206" x2="78" y2="185" stroke="#aaff00" stroke-width="2"/>
</g>
<g>
	<polygon points="65,141 70,149 61,149" fill="#aaff00"/>
	<line x1="67" y1="184" x2="65" y2="148" stroke="#aaff00" stroke-width="2"/>
</g>
<g>
	<polygon points="62,82 67,90 58,90" fill="#aaff00"/>
	<line x1="67" y1="184" x2="62" y2="89" stroke="#aaff00" stroke-width="2"/>
</g>
<g>
	<polygon points="65,224 61,216 70,216" fill="#aaff00"/>
	<line x1="67" y1="184" x2="65" y2="217" stroke="#aaff00" stroke-width="2"/>
</g>
<g>
	<polygon points="62,271 58,263 67,263" fill="#aaff00"/>
	<line x1="67" y1="184" x2="62" y2="264" stroke="#aaff00" stroke-width="2"/>
</g>
<g>
	<polygon points="102,103 99,112 93,105" fill="#aaff00"/>
	<line x1="65" y1="137" x2="97" y2="108" stroke="#aaff00" stroke-width="2"/>
</g>
<g>
	<polygon points="65,80 74,79 70,87" fill="#aaff00"/>
	<line x1="106" y1="101" x2="72" y2="83" stroke="#aaff00" stroke-width="2"/>
</g>
<g>
	<polygon points="109,51 113,59 104,58" fill="#aaff00"/>
	<line x1="106" y1="101" x2="109" y2="58" stroke="#aaff00" stroke-width="2"/>
</g>
<g>
	<polygon points="152,18 148,26 143,19" fill="#aaff00"/>
	<line x1="62" y1="78" x2="146" y2="22" stroke="#aaff00" stroke-width="2"/>
</g>
<g>
	<polygon points="208,21 200,25 201,16" fill="#aaff00"/>
	<line x1="156" y1="16" x2="201" y2="20" stroke="#aaff00" stroke-width="2"/>
</g>
<g>
	<polygon points="159,69 162,60 168,67" fill="#aaff00"/>
	<line x1="213" y1="22" x2="164" y2="64" stroke="#aaff00" stroke-width="2"/>
</g>
<g>
	<polygon points="125,150 124,141 132,145" fill="#aaff00"/>
	<line x1="156" y1="72" x2="128" y2="144" stroke="#aaff00" stroke-width="2"/>
</g>
<g>
	<polygon points="123,159 126,167 117,166" fill="#aaff00"/>
	<line x1="110" y1="243" x2="122" y2="166" stroke="#aaff00" stroke-width="2"/>
</g>
<g>
	<polygon points="105,241 96,243 99,235" fill="#aaff00"/>
	<line x1="65" y1="229" x2="98" y2="239" stroke="#aaff00" stroke-width="2"/>
</g>
<g>
	<polygon points="106,245 102,253 97,246" fill="#aaff00"/>
	<line x1="62" y1="276" x2="100" y2="249" stroke="#aaff00" stroke-width="2"/>
</g>
<g>
	<polygon points="152,69 143,70 147,62" fill="#aaff00"/>
	<line x1="110" y1="47" x2="145" y2="66" stroke="#aaff00" stroke-width="2"/>
</g>
<g>
	<polygon points="216,25 224,27 218,33" fill="#aaff00"/>
	<line x1="265" y1="72" x2="221" y2="30" stroke="#aaff00" stroke-width="2"/>
</g>
<g>
	<polygon points="158,19 167,22 160,28" fill="#aaff00"/>
	<line x1="211" y1="80" x2="163" y2="24" stroke="#aaff00" stroke-width="2"/>
</g>
<g>
	<polygon points="110,102 119,101 115,109" fill="#aaff00"/>
	<line x1="174" y1="128" x2="116" y2="105" stroke="#aaff00" stroke-width="2"/>
</g>
<g>
	<polygon points="71,184 79,181 78,190" fill="#aaff00"/>
	<line x1="153" y1="195" x2="78" y2="185" stroke="#aaff00" stroke-width="2"/>
</g>
<g>
	<polygon points="291,233 294,241 285,240" fill="#aaff00"/>
	<line x1="284" y1="284" x2="290" y2="240" stroke="#aaff00" stroke-width="2"/>
</g>
<g>
	<polygon points="280,281 271,279 277,272" fill="#aaff00"/>
	<line x1="241" y1="246" x2="275" y2="276" stroke="#aaff00" stroke-width="2"/>
</g>

<g fill="#000000">
	<circle cx="228" cy="151" r="4"/>
</g>
<g fill="#000000">
	<circle cx="297" cy="152" r="4"/>
</g>
<g fill="#000000">
	<circle cx="240" cy="245" r="4"/>
</g>
<g fill="#000000">
	<circle cx="200" cy="205" r="4"/>
</g>
<g fill="#000000">
	<circle cx="152" cy="194" r="4"/>
</g>
<g fill="#000000">
	<circle cx="173" cy="127" r="4"/>
</g>
<g fill="#000000">
	<circle cx="210" cy="79" r="4"/>
</g>
<g fill="#000000">
	<circle cx="264" cy="71" r="4"/>
</g>
<g fill="#000000">
	<circle cx="337" cy="191" r="4"/>
</g>
<g fill="#000000">
	<circle cx="283" cy="283" r="4"/>
</g>
<g fill="#000000">
	<circle cx="291" cy="228" r="4"/>
</g>
<g fill="#000000">
	<circle cx="66" cy="183" r="4"/>
</g>
<g fill="#000000">
	<circle cx="64" cy="136" r="4"/>
</g>
<g fill="#000000">
	<circle cx="61" cy="77" r="4"/>
</g>
<g fill="#000000">
	<circle cx="64" cy="228" r="4"/>
</g>
<g fill="#000000">
	<circle cx="61" cy="275" r="4"/>
</g>
<g fill="#000000">
	<circle cx="105" cy="100" r="4"/>
</g>
<g fill="#000000">
	<circle cx="109" cy="46" r="4"/>
</g>
<g fill="#000000">
	<circle cx="155" cy="15" r="4"/>
</g>
<g fill="#000000">
	<circle cx="212" cy="21" r="4"/>
</g>
<g fill="#000000">
	<circle cx="155" cy="71" r="4"/>
</g>
<g fill="#000000">
	<circle cx="109" cy="242" r="4"/>
</g>
<g fill="#000000">
	<circle cx="123" cy="154" r="4"/>
</g>

</g>

</svg>
