<?xml version="1.0" encoding="utf-8"?>
<!-- Created with Hypercube (http://tumic.wz.cz/hypercube) -->

<svg width="400" height="300" viewBox="0 0 400 300" xmlns="http://www.w3.org/2000/svg" baseProfile="tiny">

<g font-family="Helvetica" font-weight="normal">

<g>
	<polygon points="138,210 146,213 139,219" fill="#aaff00"/>
	<line x1="174" y1="250" x2="142" y2="215" stroke="#aaff00" stroke-width="2"/>
</g>
<g>
	<polygon points="232,254 224,258 225,249" fill="#aaff00"/>
	<line x1="174" y1="250" x2="225" y2="254" stroke="#aaff00" stroke-width="2"/>
</g>
<g>
	<polygon points="204,291 196,287 203,282" fill="#aaff00"/>
	<line x1="174" y1="250" x2="200" y2="285" stroke="#aaff00" stroke-width="2"/>
</g>
<g>
	<polygon points="154,290 154,281 162,285" fill="#aaff00"/>
	<line x1="174" y1="250" x2="157" y2="284" stroke="#aaff00" stroke-width="2"/>
</g>
<g>
	<polygon points="111,258 118,252 119,261" fill="#aaff00"/>
	<line x1="174" y1="250" x2="118" y2="257" stroke="#aaff00" stroke-width="2"/>
</g>
<g>
	<polygon points="118,152 124,158 116,161" fill="#aaff00"/>
	<line x1="135" y1="207" x2="120" y2="159" stroke="#aaff00" stroke-width="2"/>
</g>
<g>
	<polygon points="119,61 124,69 115,69" fill="#aaff00"/>
	<line x1="117" y1="148" x2="119" y2="68" stroke="#aaff00" stroke-width="2"/>
</g>
<g>
	<polygon points="75,8 83,10 77,17" fill="#aaff00"/>
	<line x1="120" y1="57" x2="79" y2="13" stroke="#aaff00" stroke-width="2"/>
</g>
<g>
	<polygon points="152,99 143,95 151,90" fill="#aaff00"/>
	<line x1="120" y1="57" x2="147" y2="93" stroke="#aaff00" stroke-width="2"/>
</g>
<g>
	<polygon points="179,49 172,54 171,46" fill="#aaff00"/>
	<line x1="120" y1="57" x2="172" y2="50" stroke="#aaff00" stroke-width="2"/>
</g>
<g>
	<polygon points="165,8 163,17 157,10" fill="#aaff00"/>
	<line x1="120" y1="57" x2="160" y2="13" stroke="#aaff00" stroke-width="2"/>
</g>
<g>
	<polygon points="122,9 126,17 117,17" fill="#aaff00"/>
	<line x1="120" y1="57" x2="122" y2="16" stroke="#aaff00" stroke-width="2"/>
</g>
<g>
	<polygon points="59,51 67,47 66,56" fill="#aaff00"/>
	<line x1="120" y1="57" x2="66" y2="52" stroke="#aaff00" stroke-width="2"/>
</g>
<g>
	<polygon points="83,93 85,85 91,91" fill="#aaff00"/>
	<line x1="120" y1="57" x2="88" y2="88" stroke="#aaff00" stroke-width="2"/>
</g>
<g>
	<polygon points="56,46 55,37 63,41" fill="#aaff00"/>
	<line x1="72" y1="5" x2="59" y2="40" stroke="#aaff00" stroke-width="2"/>
</g>
<g>
	<polygon points="77,93 70,88 78,84" fill="#aaff00"/>
	<line x1="55" y1="51" x2="74" y2="86" stroke="#aaff00" stroke-width="2"/>
</g>
<g>
	<polygon points="150,102 142,106 143,97" fill="#aaff00"/>
	<line x1="80" y1="97" x2="143" y2="102" stroke="#aaff00" stroke-width="2"/>
</g>
<g>
	<polygon points="22,112 28,106 31,115" fill="#aaff00"/>
	<line x1="80" y1="97" x2="29" y2="110" stroke="#aaff00" stroke-width="2"/>
</g>
<g>
	<polygon points="224,111 216,114 217,106" fill="#aaff00"/>
	<line x1="155" y1="103" x2="217" y2="110" stroke="#aaff00" stroke-width="2"/>
</g>
<g>
	<polygon points="284,94 278,101 275,92" fill="#aaff00"/>
	<line x1="229" y1="112" x2="277" y2="96" stroke="#aaff00" stroke-width="2"/>
</g>
<g>
	<polygon points="334,59 330,67 325,60" fill="#aaff00"/>
	<line x1="289" y1="93" x2="328" y2="63" stroke="#aaff00" stroke-width="2"/>
</g>
<g>
	<polygon points="378,77 370,78 374,70" fill="#aaff00"/>
	<line x1="338" y1="57" x2="372" y2="74" stroke="#aaff00" stroke-width="2"/>
</g>
<g>
	<polygon points="379,27 375,35 370,28" fill="#aaff00"/>
	<line x1="338" y1="57" x2="373" y2="31" stroke="#aaff00" stroke-width="2"/>
</g>
<g>
	<polygon points="383,75 378,67 387,67" fill="#aaff00"/>
	<line x1="383" y1="25" x2="383" y2="68" stroke="#aaff00" stroke-width="2"/>
</g>
<g>
	<polygon points="76,5 84,0 84,9" fill="#aaff00"/>
	<line x1="123" y1="5" x2="83" y2="5" stroke="#aaff00" stroke-width="2"/>
</g>
<g>
	<polygon points="127,5 135,0 135,9" fill="#aaff00"/>
	<line x1="169" y1="5" x2="134" y2="5" stroke="#aaff00" stroke-width="2"/>
</g>
<g>
	<polygon points="170,9 177,15 168,18" fill="#aaff00"/>
	<line x1="184" y1="49" x2="172" y2="16" stroke="#aaff00" stroke-width="2"/>
</g>
<g>
	<polygon points="132,210 133,219 125,215" fill="#aaff00"/>
	<line x1="107" y1="259" x2="129" y2="217" stroke="#aaff00" stroke-width="2"/>
</g>
<g>
	<polygon points="61,292 65,284 70,291" fill="#aaff00"/>
	<line x1="107" y1="259" x2="67" y2="288" stroke="#aaff00" stroke-width="2"/>
</g>
<g>
	<polygon points="56,233 64,232 60,240" fill="#aaff00"/>
	<line x1="107" y1="259" x2="62" y2="236" stroke="#aaff00" stroke-width="2"/>
</g>
<g>
	<polygon points="110,261 119,263 113,270" fill="#aaff00"/>
	<line x1="153" y1="295" x2="116" y2="266" stroke="#aaff00" stroke-width="2"/>
</g>
<g>
	<polygon points="157,295 165,290 165,299" fill="#aaff00"/>
	<line x1="207" y1="295" x2="164" y2="295" stroke="#aaff00" stroke-width="2"/>
</g>
<g>
	<polygon points="209,291 210,282 217,287" fill="#aaff00"/>
	<line x1="237" y1="255" x2="214" y2="285" stroke="#aaff00" stroke-width="2"/>
</g>

<g fill="#000000">
	<circle cx="173" cy="249" r="4"/>
</g>
<g fill="#000000">
	<circle cx="134" cy="206" r="4"/>
</g>
<g fill="#000000">
	<circle cx="236" cy="254" r="4"/>
</g>
<g fill="#000000">
	<circle cx="206" cy="294" r="4"/>
</g>
<g fill="#000000">
	<circle cx="152" cy="294" r="4"/>
</g>
<g fill="#000000">
	<circle cx="106" cy="258" r="4"/>
</g>
<g fill="#000000">
	<circle cx="116" cy="147" r="4"/>
</g>
<g fill="#000000">
	<circle cx="119" cy="56" r="4"/>
</g>
<g fill="#000000">
	<circle cx="71" cy="4" r="4"/>
</g>
<g fill="#000000">
	<circle cx="154" cy="102" r="4"/>
</g>
<g fill="#000000">
	<circle cx="183" cy="48" r="4"/>
</g>
<g fill="#000000">
	<circle cx="168" cy="4" r="4"/>
</g>
<g fill="#000000">
	<circle cx="122" cy="4" r="4"/>
</g>
<g fill="#000000">
	<circle cx="54" cy="50" r="4"/>
</g>
<g fill="#000000">
	<circle cx="79" cy="96" r="4"/>
</g>
<g fill="#000000">
	<circle cx="228" cy="111" r="4"/>
</g>
<g fill="#000000">
	<circle cx="288" cy="92" r="4"/>
</g>
<g fill="#000000">
	<circle cx="337" cy="56" r="4"/>
</g>
<g fill="#000000">
	<circle cx="382" cy="79" r="4"/>
</g>
<g fill="#000000">
	<circle cx="382" cy="24" r="4"/>
</g>
<g fill="#000000">
	<circle cx="57" cy="294" r="4"/>
</g>
<g fill="#000000">
	<circle cx="51" cy="230" r="4"/>
</g>
<g fill="#000000">
	<circle cx="17" cy="113" r="4"/>
</g>

</g>

</svg>
