<?xml version="1.0" encoding="utf-8"?>
<!-- Created with Hypercube (http://tumic.wz.cz/hypercube) -->

<svg width="400" height="300" viewBox="0 0 400 300" xmlns="http://www.w3.org/2000/svg" baseProfile="tiny">

<g font-family="Helvetica" font-weight="normal">

<g>
	<polygon points="392,291 384,286 392,282" fill="#aaff00"/>
	<line x1="368" y1="249" x2="389" y2="284" stroke="#aaff00" stroke-width="2"/>
</g>
<g>
	<polygon points="337,202 345,206 338,211" fill="#aaff00"/>
	<line x1="368" y1="249" x2="341" y2="208" stroke="#aaff00" stroke-width="2"/>
</g>
<g>
	<polygon points="337,291 338,282 345,287" fill="#aaff00"/>
	<line x1="368" y1="249" x2="341" y2="285" stroke="#aaff00" stroke-width="2"/>
</g>
<g>
	<polygon points="371,154 369,163 362,157" fill="#aaff00"/>
	<line x1="335" y1="199" x2="366" y2="160" stroke="#aaff00" stroke-width="2"/>
</g>
<g>
	<polygon points="273,212 280,206 281,214" fill="#aaff00"/>
	<line x1="335" y1="199" x2="280" y2="210" stroke="#aaff00" stroke-width="2"/>
</g>
<g>
	<polygon points="189,238 195,231 198,240" fill="#aaff00"/>
	<line x1="269" y1="213" x2="196" y2="236" stroke="#aaff00" stroke-width="2"/>
</g>
<g>
	<polygon points="154,194 162,198 155,203" fill="#aaff00"/>
	<line x1="185" y1="240" x2="158" y2="200" stroke="#aaff00" stroke-width="2"/>
</g>
<g>
	<polygon points="186,290 182,282 191,282" fill="#aaff00"/>
	<line x1="185" y1="240" x2="186" y2="283" stroke="#aaff00" stroke-width="2"/>
</g>
<g>
	<polygon points="98,221 106,219 105,227" fill="#aaff00"/>
	<line x1="185" y1="240" x2="105" y2="223" stroke="#aaff00" stroke-width="2"/>
</g>
<g>
	<polygon points="209,190 210,199 202,194" fill="#aaff00"/>
	<line x1="185" y1="240" x2="206" y2="196" stroke="#aaff00" stroke-width="2"/>
</g>
<g>
	<polygon points="134,280 137,271 143,278" fill="#aaff00"/>
	<line x1="185" y1="240" x2="140" y2="275" stroke="#aaff00" stroke-width="2"/>
</g>
<g>
	<polygon points="238,282 229,280 235,273" fill="#aaff00"/>
	<line x1="185" y1="240" x2="232" y2="277" stroke="#aaff00" stroke-width="2"/>
</g>
<g>
	<polygon points="47,256 51,247 56,255" fill="#aaff00"/>
	<line x1="94" y1="221" x2="53" y2="251" stroke="#aaff00" stroke-width="2"/>
</g>
<g>
	<polygon points="66,165 73,169 65,174" fill="#aaff00"/>
	<line x1="94" y1="221" x2="69" y2="171" stroke="#aaff00" stroke-width="2"/>
</g>
<g>
	<polygon points="63,103 67,111 58,111" fill="#aaff00"/>
	<line x1="64" y1="161" x2="63" y2="110" stroke="#aaff00" stroke-width="2"/>
</g>
<g>
	<polygon points="10,103 17,98 18,107" fill="#aaff00"/>
	<line x1="63" y1="99" x2="17" y2="102" stroke="#aaff00" stroke-width="2"/>
</g>
<g>
	<polygon points="100,48 99,57 92,52" fill="#aaff00"/>
	<line x1="63" y1="99" x2="96" y2="54" stroke="#aaff00" stroke-width="2"/>
</g>
<g>
	<polygon points="162,30 156,36 153,27" fill="#aaff00"/>
	<line x1="103" y1="45" x2="155" y2="31" stroke="#aaff00" stroke-width="2"/>
</g>
<g>
	<polygon points="65,8 73,10 67,16" fill="#aaff00"/>
	<line x1="103" y1="45" x2="70" y2="13" stroke="#aaff00" stroke-width="2"/>
</g>
<g>
	<polygon points="216,6 211,14 207,5" fill="#aaff00"/>
	<line x1="167" y1="29" x2="210" y2="9" stroke="#aaff00" stroke-width="2"/>
</g>
<g>
	<polygon points="202,64 194,62 200,56" fill="#aaff00"/>
	<line x1="167" y1="29" x2="197" y2="59" stroke="#aaff00" stroke-width="2"/>
</g>
<g>
	<polygon points="9,5 17,0 17,9" fill="#aaff00"/>
	<line x1="62" y1="5" x2="16" y2="5" stroke="#aaff00" stroke-width="2"/>
</g>

<g fill="#000000">
	<circle cx="367" cy="248" r="4"/>
</g>
<g fill="#000000">
	<circle cx="394" cy="294" r="4"/>
</g>
<g fill="#000000">
	<circle cx="334" cy="198" r="4"/>
</g>
<g fill="#000000">
	<circle cx="334" cy="294" r="4"/>
</g>
<g fill="#000000">
	<circle cx="373" cy="150" r="4"/>
</g>
<g fill="#000000">
	<circle cx="268" cy="212" r="4"/>
</g>
<g fill="#000000">
	<circle cx="184" cy="239" r="4"/>
</g>
<g fill="#000000">
	<circle cx="151" cy="190" r="4"/>
</g>
<g fill="#000000">
	<circle cx="186" cy="294" r="4"/>
</g>
<g fill="#000000">
	<circle cx="93" cy="220" r="4"/>
</g>
<g fill="#000000">
	<circle cx="211" cy="185" r="4"/>
</g>
<g fill="#000000">
	<circle cx="130" cy="282" r="4"/>
</g>
<g fill="#000000">
	<circle cx="241" cy="284" r="4"/>
</g>
<g fill="#000000">
	<circle cx="43" cy="258" r="4"/>
</g>
<g fill="#000000">
	<circle cx="63" cy="160" r="4"/>
</g>
<g fill="#000000">
	<circle cx="62" cy="98" r="4"/>
</g>
<g fill="#000000">
	<circle cx="5" cy="103" r="4"/>
</g>
<g fill="#000000">
	<circle cx="102" cy="44" r="4"/>
</g>
<g fill="#000000">
	<circle cx="166" cy="28" r="4"/>
</g>
<g fill="#000000">
	<circle cx="61" cy="4" r="4"/>
</g>
<g fill="#000000">
	<circle cx="220" cy="4" r="4"/>
</g>
<g fill="#000000">
	<circle cx="205" cy="67" r="4"/>
</g>
<g fill="#000000">
	<circle cx="4" cy="4" r="4"/>
</g>

</g>

</svg>
