<?xml version="1.0" encoding="utf-8"?>
<!-- Created with Hypercube (http://tumic.wz.cz/hypercube) -->

<svg width="400" height="300" viewBox="0 0 400 300" xmlns="http://www.w3.org/2000/svg" baseProfile="tiny">

<g font-family="Helvetica" font-weight="normal">

<g>
	<polygon points="80,101 84,109 75,108" fill="#aaff00"/>
	<line x1="77" y1="156" x2="80" y2="108" stroke="#aaff00" stroke-width="2"/>
</g>
<g>
	<polygon points="104,201 107,210 98,207" fill="#aaff00"/>
	<line x1="93" y1="246" x2="103" y2="208" stroke="#aaff00" stroke-width="2"/>
</g>
<g>
	<polygon points="77,160 83,167 74,168" fill="#aaff00"/>
	<line x1="93" y1="246" x2="79" y2="167" stroke="#aaff00" stroke-width="2"/>
</g>
<g>
	<polygon points="137,155 136,164 128,159" fill="#aaff00"/>
	<line x1="106" y1="197" x2="132" y2="161" stroke="#aaff00" stroke-width="2"/>
</g>
<g>
	<polygon points="144,152 152,148 151,157" fill="#aaff00"/>
	<line x1="191" y1="156" x2="151" y2="152" stroke="#aaff00" stroke-width="2"/>
</g>
<g>
	<polygon points="195,157 204,154 201,163" fill="#aaff00"/>
	<line x1="235" y1="168" x2="202" y2="159" stroke="#aaff00" stroke-width="2"/>
</g>
<g>
	<polygon points="163,98 171,100 165,106" fill="#aaff00"/>
	<line x1="235" y1="168" x2="168" y2="103" stroke="#aaff00" stroke-width="2"/>
</g>
<g>
	<polygon points="186,244 186,235 194,240" fill="#aaff00"/>
	<line x1="235" y1="168" x2="190" y2="238" stroke="#aaff00" stroke-width="2"/>
</g>
<g>
	<polygon points="261,231 254,226 262,222" fill="#aaff00"/>
	<line x1="235" y1="168" x2="258" y2="225" stroke="#aaff00" stroke-width="2"/>
</g>
<g>
	<polygon points="85,96 93,92 93,101" fill="#aaff00"/>
	<line x1="160" y1="95" x2="92" y2="96" stroke="#aaff00" stroke-width="2"/>
</g>
<g>
	<polygon points="97,246 105,241 105,250" fill="#aaff00"/>
	<line x1="184" y1="248" x2="104" y2="246" stroke="#aaff00" stroke-width="2"/>
</g>
<g>
	<polygon points="294,278 286,274 293,269" fill="#aaff00"/>
	<line x1="263" y1="236" x2="290" y2="272" stroke="#aaff00" stroke-width="2"/>
</g>
<g>
	<polygon points="230,170 226,177 221,169" fill="#aaff00"/>
	<line x1="152" y1="210" x2="224" y2="173" stroke="#aaff00" stroke-width="2"/>
</g>
<g>
	<polygon points="147,209 139,212 140,203" fill="#aaff00"/>
	<line x1="26" y1="190" x2="140" y2="208" stroke="#aaff00" stroke-width="2"/>
</g>
<g>
	<polygon points="24,95 28,103 19,103" fill="#aaff00"/>
	<line x1="26" y1="190" x2="24" y2="102" stroke="#aaff00" stroke-width="2"/>
</g>
<g>
	<polygon points="25,143 29,151 20,151" fill="#aaff00"/>
	<line x1="26" y1="190" x2="25" y2="150" stroke="#aaff00" stroke-width="2"/>
</g>
<g>
	<polygon points="34,230 28,223 37,222" fill="#aaff00"/>
	<line x1="26" y1="190" x2="32" y2="223" stroke="#aaff00" stroke-width="2"/>
</g>
<g>
	<polygon points="43,276 37,269 46,268" fill="#aaff00"/>
	<line x1="26" y1="190" x2="41" y2="269" stroke="#aaff00" stroke-width="2"/>
</g>
<g>
	<polygon points="76,96 68,100 69,91" fill="#aaff00"/>
	<line x1="24" y1="91" x2="69" y2="95" stroke="#aaff00" stroke-width="2"/>
</g>
<g>
	<polygon points="77,99 73,107 68,100" fill="#aaff00"/>
	<line x1="25" y1="139" x2="71" y2="104" stroke="#aaff00" stroke-width="2"/>
</g>
<g>
	<polygon points="88,245 80,248 81,239" fill="#aaff00"/>
	<line x1="35" y1="235" x2="81" y2="243" stroke="#aaff00" stroke-width="2"/>
</g>
<g>
	<polygon points="89,248 85,256 80,249" fill="#aaff00"/>
	<line x1="44" y1="281" x2="83" y2="252" stroke="#aaff00" stroke-width="2"/>
</g>
<g>
	<polygon points="238,165 242,157 247,164" fill="#aaff00"/>
	<line x1="300" y1="119" x2="244" y2="160" stroke="#aaff00" stroke-width="2"/>
</g>
<g>
	<polygon points="303,116 306,107 312,114" fill="#aaff00"/>
	<line x1="348" y1="81" x2="309" y2="111" stroke="#aaff00" stroke-width="2"/>
</g>
<g>
	<polygon points="239,168 247,165 246,174" fill="#aaff00"/>
	<line x1="316" y1="184" x2="246" y2="170" stroke="#aaff00" stroke-width="2"/>
</g>
<g>
	<polygon points="320,184 328,180 327,189" fill="#aaff00"/>
	<line x1="376" y1="191" x2="327" y2="185" stroke="#aaff00" stroke-width="2"/>
</g>
<g>
	<polygon points="235,163 231,155 240,156" fill="#aaff00"/>
	<line x1="242" y1="81" x2="235" y2="156" stroke="#aaff00" stroke-width="2"/>
</g>
<g>
	<polygon points="242,76 239,68 248,69" fill="#aaff00"/>
	<line x1="250" y1="19" x2="243" y2="69" stroke="#aaff00" stroke-width="2"/>
</g>

<g fill="#000000">
	<circle cx="80" cy="96" r="4"/>
</g>
<g fill="#000000">
	<circle cx="296" cy="281" r="4"/>
</g>
<g fill="#000000">
	<circle cx="139" cy="151" r="4"/>
</g>
<g fill="#000000">
	<circle cx="92" cy="245" r="4"/>
</g>
<g fill="#000000">
	<circle cx="105" cy="196" r="4"/>
</g>
<g fill="#000000">
	<circle cx="76" cy="155" r="4"/>
</g>
<g fill="#000000">
	<circle cx="234" cy="167" r="4"/>
</g>
<g fill="#000000">
	<circle cx="190" cy="155" r="4"/>
</g>
<g fill="#000000">
	<circle cx="159" cy="94" r="4"/>
</g>
<g fill="#000000">
	<circle cx="183" cy="247" r="4"/>
</g>
<g fill="#000000">
	<circle cx="262" cy="235" r="4"/>
</g>
<g fill="#000000">
	<circle cx="25" cy="189" r="4"/>
</g>
<g fill="#000000">
	<circle cx="151" cy="209" r="4"/>
</g>
<g fill="#000000">
	<circle cx="23" cy="90" r="4"/>
</g>
<g fill="#000000">
	<circle cx="24" cy="138" r="4"/>
</g>
<g fill="#000000">
	<circle cx="34" cy="234" r="4"/>
</g>
<g fill="#000000">
	<circle cx="43" cy="280" r="4"/>
</g>
<g fill="#000000">
	<circle cx="347" cy="80" r="4"/>
</g>
<g fill="#000000">
	<circle cx="299" cy="118" r="4"/>
</g>
<g fill="#000000">
	<circle cx="375" cy="190" r="4"/>
</g>
<g fill="#000000">
	<circle cx="315" cy="183" r="4"/>
</g>
<g fill="#000000">
	<circle cx="249" cy="18" r="4"/>
</g>
<g fill="#000000">
	<circle cx="241" cy="80" r="4"/>
</g>

</g>

</svg>
