<?xml version="1.0" encoding="utf-8"?>
<!-- Created with Hypercube (http://tumic.wz.cz/hypercube) -->

<svg width="400" height="300" viewBox="0 0 400 300" xmlns="http://www.w3.org/2000/svg" baseProfile="tiny">

<g font-family="Helvetica" font-weight="normal">

<g>
	<polygon points="137,237 141,229 146,236" fill="#aaff00"/>
	<line x1="210" y1="186" x2="143" y2="233" stroke="#aaff00" stroke-width="2"/>
</g>
<g>
	<polygon points="184,142 192,147 184,151" fill="#aaff00"/>
	<line x1="210" y1="186" x2="187" y2="149" stroke="#aaff00" stroke-width="2"/>
</g>
<g>
	<polygon points="272,135 269,144 263,137" fill="#aaff00"/>
	<line x1="210" y1="186" x2="266" y2="140" stroke="#aaff00" stroke-width="2"/>
</g>
<g>
	<polygon points="127,110 136,112 130,118" fill="#aaff00"/>
	<line x1="210" y1="186" x2="132" y2="114" stroke="#aaff00" stroke-width="2"/>
</g>
<g>
	<polygon points="210,95 214,103 205,103" fill="#aaff00"/>
	<line x1="210" y1="186" x2="210" y2="102" stroke="#aaff00" stroke-width="2"/>
</g>
<g>
	<polygon points="199,167 207,172 199,176" fill="#aaff00"/>
	<line x1="210" y1="186" x2="202" y2="174" stroke="#aaff00" stroke-width="2"/>
</g>
<g>
	<polygon points="245,119 246,128 238,124" fill="#aaff00"/>
	<line x1="210" y1="186" x2="242" y2="126" stroke="#aaff00" stroke-width="2"/>
</g>
<g>
	<polygon points="161,108 169,113 161,117" fill="#aaff00"/>
	<line x1="210" y1="186" x2="165" y2="114" stroke="#aaff00" stroke-width="2"/>
</g>
<g>
	<polygon points="250,86 251,95 243,91" fill="#aaff00"/>
	<line x1="210" y1="186" x2="247" y2="92" stroke="#aaff00" stroke-width="2"/>
</g>
<g>
	<polygon points="318,99 315,108 309,101" fill="#aaff00"/>
	<line x1="210" y1="186" x2="312" y2="104" stroke="#aaff00" stroke-width="2"/>
</g>
<g>
	<polygon points="342,80 339,89 333,82" fill="#aaff00"/>
	<line x1="210" y1="186" x2="336" y2="85" stroke="#aaff00" stroke-width="2"/>
</g>
<g>
	<polygon points="157,137 166,139 159,145" fill="#aaff00"/>
	<line x1="210" y1="186" x2="162" y2="141" stroke="#aaff00" stroke-width="2"/>
</g>
<g>
	<polygon points="122,155 131,153 128,162" fill="#aaff00"/>
	<line x1="210" y1="186" x2="129" y2="157" stroke="#aaff00" stroke-width="2"/>
</g>
<g>
	<polygon points="223,152 224,161 216,157" fill="#aaff00"/>
	<line x1="210" y1="186" x2="220" y2="158" stroke="#aaff00" stroke-width="2"/>
</g>
<g>
	<polygon points="206,125 211,132 202,133" fill="#aaff00"/>
	<line x1="210" y1="186" x2="206" y2="132" stroke="#aaff00" stroke-width="2"/>
</g>
<g>
	<polygon points="152,165 161,163 158,172" fill="#aaff00"/>
	<line x1="210" y1="186" x2="159" y2="167" stroke="#aaff00" stroke-width="2"/>
</g>
<g>
	<polygon points="58,133 67,131 64,140" fill="#aaff00"/>
	<line x1="210" y1="186" x2="65" y2="135" stroke="#aaff00" stroke-width="2"/>
</g>
<g>
	<polygon points="93,145 102,143 99,152" fill="#aaff00"/>
	<line x1="210" y1="186" x2="100" y2="147" stroke="#aaff00" stroke-width="2"/>
</g>
<g>
	<polygon points="182,89 188,95 180,98" fill="#aaff00"/>
	<line x1="210" y1="186" x2="184" y2="96" stroke="#aaff00" stroke-width="2"/>
</g>
<g>
	<polygon points="145,200 151,194 153,203" fill="#aaff00"/>
	<line x1="210" y1="186" x2="152" y2="199" stroke="#aaff00" stroke-width="2"/>
</g>
<g>
	<polygon points="282,92 281,101 273,95" fill="#aaff00"/>
	<line x1="210" y1="186" x2="277" y2="98" stroke="#aaff00" stroke-width="2"/>
</g>
<g>
	<polygon points="165,66 168,74 159,73" fill="#aaff00"/>
	<line x1="134" y1="240" x2="163" y2="73" stroke="#aaff00" stroke-width="2"/>
</g>
<g>
	<polygon points="166,66 172,73 164,74" fill="#aaff00"/>
	<line x1="182" y1="139" x2="168" y2="73" stroke="#aaff00" stroke-width="2"/>
</g>
<g>
	<polygon points="169,64 178,64 173,72" fill="#aaff00"/>
	<line x1="276" y1="133" x2="175" y2="68" stroke="#aaff00" stroke-width="2"/>
</g>
<g>
	<polygon points="162,65 160,74 154,67" fill="#aaff00"/>
	<line x1="124" y1="107" x2="158" y2="70" stroke="#aaff00" stroke-width="2"/>
</g>
<g>
	<polygon points="169,64 178,65 173,72" fill="#aaff00"/>
	<line x1="210" y1="91" x2="175" y2="68" stroke="#aaff00" stroke-width="2"/>
</g>
<g>
	<polygon points="167,66 173,72 165,75" fill="#aaff00"/>
	<line x1="197" y1="164" x2="169" y2="73" stroke="#aaff00" stroke-width="2"/>
</g>
<g>
	<polygon points="169,64 178,65 173,72" fill="#aaff00"/>
	<line x1="248" y1="116" x2="175" y2="68" stroke="#aaff00" stroke-width="2"/>
</g>
<g>
	<polygon points="165,66 168,74 159,73" fill="#aaff00"/>
	<line x1="159" y1="105" x2="164" y2="73" stroke="#aaff00" stroke-width="2"/>
</g>
<g>
	<polygon points="170,63 178,60 176,69" fill="#aaff00"/>
	<line x1="252" y1="82" x2="177" y2="64" stroke="#aaff00" stroke-width="2"/>
</g>
<g>
	<polygon points="170,62 178,60 177,69" fill="#aaff00"/>
	<line x1="322" y1="97" x2="177" y2="64" stroke="#aaff00" stroke-width="2"/>
</g>
<g>
	<polygon points="170,62 178,58 177,67" fill="#aaff00"/>
	<line x1="346" y1="78" x2="177" y2="63" stroke="#aaff00" stroke-width="2"/>
</g>
<g>
	<polygon points="165,66 168,74 159,73" fill="#aaff00"/>
	<line x1="154" y1="134" x2="164" y2="73" stroke="#aaff00" stroke-width="2"/>
</g>
<g>
	<polygon points="163,65 164,74 156,70" fill="#aaff00"/>
	<line x1="118" y1="154" x2="160" y2="72" stroke="#aaff00" stroke-width="2"/>
</g>
<g>
	<polygon points="168,65 176,69 169,74" fill="#aaff00"/>
	<line x1="225" y1="148" x2="172" y2="71" stroke="#aaff00" stroke-width="2"/>
</g>
<g>
	<polygon points="168,65 176,69 169,74" fill="#aaff00"/>
	<line x1="206" y1="121" x2="172" y2="71" stroke="#aaff00" stroke-width="2"/>
</g>
<g>
	<polygon points="165,66 168,74 159,73" fill="#aaff00"/>
	<line x1="148" y1="164" x2="163" y2="73" stroke="#aaff00" stroke-width="2"/>
</g>
<g>
	<polygon points="162,64 157,72 153,64" fill="#aaff00"/>
	<line x1="54" y1="132" x2="156" y2="68" stroke="#aaff00" stroke-width="2"/>
</g>
<g>
	<polygon points="162,65 160,74 154,67" fill="#aaff00"/>
	<line x1="89" y1="144" x2="157" y2="70" stroke="#aaff00" stroke-width="2"/>
</g>
<g>
	<polygon points="168,65 176,69 168,74" fill="#aaff00"/>
	<line x1="181" y1="85" x2="172" y2="71" stroke="#aaff00" stroke-width="2"/>
</g>
<g>
	<polygon points="165,66 168,74 159,73" fill="#aaff00"/>
	<line x1="141" y1="202" x2="163" y2="73" stroke="#aaff00" stroke-width="2"/>
</g>
<g>
	<polygon points="170,62 178,60 176,69" fill="#aaff00"/>
	<line x1="285" y1="89" x2="177" y2="64" stroke="#aaff00" stroke-width="2"/>
</g>

<g fill="#000000">
	<circle cx="209" cy="185" r="4"/>
</g>
<g fill="#000000">
	<circle cx="133" cy="239" r="4"/>
</g>
<g fill="#000000">
	<circle cx="181" cy="138" r="4"/>
</g>
<g fill="#000000">
	<circle cx="275" cy="132" r="4"/>
</g>
<g fill="#000000">
	<circle cx="123" cy="106" r="4"/>
</g>
<g fill="#000000">
	<circle cx="209" cy="90" r="4"/>
</g>
<g fill="#000000">
	<circle cx="196" cy="163" r="4"/>
</g>
<g fill="#000000">
	<circle cx="247" cy="115" r="4"/>
</g>
<g fill="#000000">
	<circle cx="158" cy="104" r="4"/>
</g>
<g fill="#000000">
	<circle cx="251" cy="81" r="4"/>
</g>
<g fill="#000000">
	<circle cx="321" cy="96" r="4"/>
</g>
<g fill="#000000">
	<circle cx="345" cy="77" r="4"/>
</g>
<g fill="#000000">
	<circle cx="153" cy="133" r="4"/>
</g>
<g fill="#000000">
	<circle cx="117" cy="153" r="4"/>
</g>
<g fill="#000000">
	<circle cx="224" cy="147" r="4"/>
</g>
<g fill="#000000">
	<circle cx="205" cy="120" r="4"/>
</g>
<g fill="#000000">
	<circle cx="147" cy="163" r="4"/>
</g>
<g fill="#000000">
	<circle cx="53" cy="131" r="4"/>
</g>
<g fill="#000000">
	<circle cx="88" cy="143" r="4"/>
</g>
<g fill="#000000">
	<circle cx="180" cy="84" r="4"/>
</g>
<g fill="#000000">
	<circle cx="140" cy="201" r="4"/>
</g>
<g fill="#000000">
	<circle cx="284" cy="88" r="4"/>
</g>
<g fill="#000000">
	<circle cx="165" cy="61" r="4"/>
</g>

</g>

</svg>
