<?xml version="1.0" encoding="utf-8"?>
<!-- Created with Hypercube (http://tumic.wz.cz/hypercube) -->

<svg width="400" height="300" viewBox="0 0 400 300" xmlns="http://www.w3.org/2000/svg" baseProfile="tiny">

<g font-family="Helvetica" font-weight="normal">

<g>
	<polygon points="305,89 301,97 296,90" fill="#aaff00"/>
	<line x1="196" y1="165" x2="299" y2="93" stroke="#aaff00" stroke-width="2"/>
</g>
<g>
	<polygon points="156,158 164,155 163,164" fill="#aaff00"/>
	<line x1="196" y1="165" x2="163" y2="159" stroke="#aaff00" stroke-width="2"/>
</g>
<g>
	<polygon points="149,198 153,190 158,197" fill="#aaff00"/>
	<line x1="196" y1="165" x2="155" y2="194" stroke="#aaff00" stroke-width="2"/>
</g>
<g>
	<polygon points="151,104 159,108 152,113" fill="#aaff00"/>
	<line x1="196" y1="165" x2="155" y2="110" stroke="#aaff00" stroke-width="2"/>
</g>
<g>
	<polygon points="201,230 196,223 205,222" fill="#aaff00"/>
	<line x1="196" y1="165" x2="201" y2="223" stroke="#aaff00" stroke-width="2"/>
</g>
<g>
	<polygon points="263,221 254,219 260,212" fill="#aaff00"/>
	<line x1="196" y1="165" x2="258" y2="216" stroke="#aaff00" stroke-width="2"/>
</g>
<g>
	<polygon points="114,230 117,221 123,228" fill="#aaff00"/>
	<line x1="196" y1="165" x2="120" y2="225" stroke="#aaff00" stroke-width="2"/>
</g>
<g>
	<polygon points="199,105 203,113 194,112" fill="#aaff00"/>
	<line x1="196" y1="165" x2="199" y2="112" stroke="#aaff00" stroke-width="2"/>
</g>
<g>
	<polygon points="246,159 239,164 238,155" fill="#aaff00"/>
	<line x1="196" y1="165" x2="239" y2="160" stroke="#aaff00" stroke-width="2"/>
</g>
<g>
	<polygon points="91,123 100,122 96,130" fill="#aaff00"/>
	<line x1="196" y1="165" x2="97" y2="126" stroke="#aaff00" stroke-width="2"/>
</g>
<g>
	<polygon points="151,162 154,170 145,169" fill="#aaff00"/>
	<line x1="146" y1="201" x2="150" y2="169" stroke="#aaff00" stroke-width="2"/>
</g>
<g>
	<polygon points="142,204 139,212 133,205" fill="#aaff00"/>
	<line x1="111" y1="233" x2="137" y2="208" stroke="#aaff00" stroke-width="2"/>
</g>
<g>
	<polygon points="56,210 65,209 61,217" fill="#aaff00"/>
	<line x1="111" y1="233" x2="62" y2="213" stroke="#aaff00" stroke-width="2"/>
</g>
<g>
	<polygon points="53,204 52,195 60,199" fill="#aaff00"/>
	<line x1="87" y1="122" x2="56" y2="198" stroke="#aaff00" stroke-width="2"/>
</g>
<g>
	<polygon points="22,123 30,119 30,128" fill="#aaff00"/>
	<line x1="87" y1="122" x2="29" y2="123" stroke="#aaff00" stroke-width="2"/>
</g>
<g>
	<polygon points="93,165 87,158 96,157" fill="#aaff00"/>
	<line x1="87" y1="122" x2="92" y2="158" stroke="#aaff00" stroke-width="2"/>
</g>
<g>
	<polygon points="83,59 88,67 79,67" fill="#aaff00"/>
	<line x1="87" y1="122" x2="83" y2="66" stroke="#aaff00" stroke-width="2"/>
</g>
<g>
	<polygon points="44,83 53,84 47,91" fill="#aaff00"/>
	<line x1="87" y1="122" x2="49" y2="87" stroke="#aaff00" stroke-width="2"/>
</g>
<g>
	<polygon points="20,120 19,111 27,115" fill="#aaff00"/>
	<line x1="41" y1="80" x2="23" y2="113" stroke="#aaff00" stroke-width="2"/>
</g>
<g>
	<polygon points="79,57 74,65 70,57" fill="#aaff00"/>
	<line x1="41" y1="80" x2="72" y2="60" stroke="#aaff00" stroke-width="2"/>
</g>
<g>
	<polygon points="142,198 133,198 137,190" fill="#aaff00"/>
	<line x1="94" y1="170" x2="135" y2="195" stroke="#aaff00" stroke-width="2"/>
</g>
<g>
	<polygon points="91,120 97,113 100,122" fill="#aaff00"/>
	<line x1="149" y1="101" x2="98" y2="118" stroke="#aaff00" stroke-width="2"/>
</g>
<g>
	<polygon points="153,101 161,96 161,105" fill="#aaff00"/>
	<line x1="200" y1="101" x2="160" y2="101" stroke="#aaff00" stroke-width="2"/>
</g>
<g>
	<polygon points="201,239 205,247 196,246" fill="#aaff00"/>
	<line x1="196" y1="288" x2="200" y2="246" stroke="#aaff00" stroke-width="2"/>
</g>
<g>
	<polygon points="270,227 278,229 272,235" fill="#aaff00"/>
	<line x1="311" y1="270" x2="275" y2="232" stroke="#aaff00" stroke-width="2"/>
</g>
<g>
	<polygon points="326,138 319,132 328,129" fill="#aaff00"/>
	<line x1="309" y1="87" x2="324" y2="131" stroke="#aaff00" stroke-width="2"/>
</g>
<g>
	<polygon points="362,50 358,58 353,51" fill="#aaff00"/>
	<line x1="309" y1="87" x2="356" y2="54" stroke="#aaff00" stroke-width="2"/>
</g>
<g>
	<polygon points="315,18 319,26 310,25" fill="#aaff00"/>
	<line x1="309" y1="87" x2="314" y2="25" stroke="#aaff00" stroke-width="2"/>
</g>
<g>
	<polygon points="268,50 277,51 271,58" fill="#aaff00"/>
	<line x1="309" y1="87" x2="273" y2="54" stroke="#aaff00" stroke-width="2"/>
</g>
<g>
	<polygon points="379,106 370,109 373,100" fill="#aaff00"/>
	<line x1="309" y1="87" x2="372" y2="104" stroke="#aaff00" stroke-width="2"/>
</g>

<g fill="#000000">
	<circle cx="308" cy="86" r="4"/>
</g>
<g fill="#000000">
	<circle cx="327" cy="142" r="4"/>
</g>
<g fill="#000000">
	<circle cx="195" cy="164" r="4"/>
</g>
<g fill="#000000">
	<circle cx="151" cy="157" r="4"/>
</g>
<g fill="#000000">
	<circle cx="145" cy="200" r="4"/>
</g>
<g fill="#000000">
	<circle cx="148" cy="100" r="4"/>
</g>
<g fill="#000000">
	<circle cx="201" cy="234" r="4"/>
</g>
<g fill="#000000">
	<circle cx="266" cy="223" r="4"/>
</g>
<g fill="#000000">
	<circle cx="110" cy="232" r="4"/>
</g>
<g fill="#000000">
	<circle cx="199" cy="100" r="4"/>
</g>
<g fill="#000000">
	<circle cx="250" cy="158" r="4"/>
</g>
<g fill="#000000">
	<circle cx="86" cy="121" r="4"/>
</g>
<g fill="#000000">
	<circle cx="51" cy="208" r="4"/>
</g>
<g fill="#000000">
	<circle cx="17" cy="123" r="4"/>
</g>
<g fill="#000000">
	<circle cx="93" cy="169" r="4"/>
</g>
<g fill="#000000">
	<circle cx="82" cy="54" r="4"/>
</g>
<g fill="#000000">
	<circle cx="40" cy="79" r="4"/>
</g>
<g fill="#000000">
	<circle cx="365" cy="47" r="4"/>
</g>
<g fill="#000000">
	<circle cx="315" cy="13" r="4"/>
</g>
<g fill="#000000">
	<circle cx="195" cy="287" r="4"/>
</g>
<g fill="#000000">
	<circle cx="310" cy="269" r="4"/>
</g>
<g fill="#000000">
	<circle cx="264" cy="46" r="4"/>
</g>
<g fill="#000000">
	<circle cx="383" cy="107" r="4"/>
</g>

</g>

</svg>
