<?xml version="1.0" encoding="utf-8"?>
<!-- Created with Hypercube (http://tumic.wz.cz/hypercube) -->

<svg width="400" height="300" viewBox="0 0 400 300" xmlns="http://www.w3.org/2000/svg" baseProfile="tiny">

<g font-family="Helvetica" font-weight="normal">

<g>
	<polygon points="261,66 269,62 269,71" fill="#aaff00"/>
	<line x1="300" y1="66" x2="268" y2="66" stroke="#aaff00" stroke-width="2"/>
</g>
<g>
	<polygon points="263,24 272,27 265,33" fill="#aaff00"/>
	<line x1="300" y1="66" x2="268" y2="29" stroke="#aaff00" stroke-width="2"/>
</g>
<g>
	<polygon points="260,25 264,33 255,32" fill="#aaff00"/>
	<line x1="257" y1="67" x2="259" y2="32" stroke="#aaff00" stroke-width="2"/>
</g>
<g>
	<polygon points="256,21 248,26 248,17" fill="#aaff00"/>
	<line x1="183" y1="25" x2="249" y2="21" stroke="#aaff00" stroke-width="2"/>
</g>
<g>
	<polygon points="218,20 211,25 210,17" fill="#aaff00"/>
	<line x1="183" y1="25" x2="211" y2="21" stroke="#aaff00" stroke-width="2"/>
</g>
<g>
	<polygon points="256,20 248,25 248,16" fill="#aaff00"/>
	<line x1="223" y1="20" x2="249" y2="20" stroke="#aaff00" stroke-width="2"/>
</g>
<g>
	<polygon points="294,20 286,24 286,15" fill="#aaff00"/>
	<line x1="223" y1="20" x2="287" y2="20" stroke="#aaff00" stroke-width="2"/>
</g>
<g>
	<polygon points="299,61 295,53 304,53" fill="#aaff00"/>
	<line x1="299" y1="20" x2="299" y2="54" stroke="#aaff00" stroke-width="2"/>
</g>
<g>
	<polygon points="265,20 273,16 273,25" fill="#aaff00"/>
	<line x1="299" y1="20" x2="272" y2="20" stroke="#aaff00" stroke-width="2"/>
</g>
<g>
	<polygon points="295,66 287,71 287,62" fill="#aaff00"/>
	<line x1="196" y1="71" x2="288" y2="66" stroke="#aaff00" stroke-width="2"/>
</g>
<g>
	<polygon points="252,67 245,72 244,63" fill="#aaff00"/>
	<line x1="196" y1="71" x2="245" y2="67" stroke="#aaff00" stroke-width="2"/>
</g>
<g>
	<polygon points="125,22 134,23 129,30" fill="#aaff00"/>
	<line x1="196" y1="71" x2="131" y2="26" stroke="#aaff00" stroke-width="2"/>
</g>
<g>
	<polygon points="184,29 190,35 182,38" fill="#aaff00"/>
	<line x1="196" y1="71" x2="186" y2="36" stroke="#aaff00" stroke-width="2"/>
</g>
<g>
	<polygon points="220,23 221,32 213,28" fill="#aaff00"/>
	<line x1="196" y1="71" x2="217" y2="30" stroke="#aaff00" stroke-width="2"/>
</g>
<g>
	<polygon points="294,21 289,29 285,21" fill="#aaff00"/>
	<line x1="196" y1="71" x2="288" y2="25" stroke="#aaff00" stroke-width="2"/>
</g>
<g>
	<polygon points="198,74 207,77 200,83" fill="#aaff00"/>
	<line x1="224" y1="104" x2="203" y2="79" stroke="#aaff00" stroke-width="2"/>
</g>
<g>
	<polygon points="222,108 222,117 214,113" fill="#aaff00"/>
	<line x1="187" y1="179" x2="218" y2="114" stroke="#aaff00" stroke-width="2"/>
</g>
<g>
	<polygon points="124,165 132,163 131,171" fill="#aaff00"/>
	<line x1="187" y1="179" x2="131" y2="167" stroke="#aaff00" stroke-width="2"/>
</g>
<g>
	<polygon points="249,239 241,237 247,231" fill="#aaff00"/>
	<line x1="187" y1="179" x2="244" y2="234" stroke="#aaff00" stroke-width="2"/>
</g>
<g>
	<polygon points="271,193 263,196 264,187" fill="#aaff00"/>
	<line x1="187" y1="179" x2="264" y2="192" stroke="#aaff00" stroke-width="2"/>
</g>
<g>
	<polygon points="105,116 114,117 109,125" fill="#aaff00"/>
	<line x1="187" y1="179" x2="111" y2="121" stroke="#aaff00" stroke-width="2"/>
</g>
<g>
	<polygon points="179,109 184,116 175,117" fill="#aaff00"/>
	<line x1="187" y1="179" x2="180" y2="116" stroke="#aaff00" stroke-width="2"/>
</g>
<g>
	<polygon points="139,101 147,106 139,110" fill="#aaff00"/>
	<line x1="187" y1="179" x2="143" y2="107" stroke="#aaff00" stroke-width="2"/>
</g>
<g>
	<polygon points="164,141 172,146 164,150" fill="#aaff00"/>
	<line x1="187" y1="179" x2="168" y2="147" stroke="#aaff00" stroke-width="2"/>
</g>
<g>
	<polygon points="249,139 245,147 240,139" fill="#aaff00"/>
	<line x1="187" y1="179" x2="243" y2="143" stroke="#aaff00" stroke-width="2"/>
</g>
<g>
	<polygon points="203,146 203,155 195,151" fill="#aaff00"/>
	<line x1="187" y1="179" x2="199" y2="152" stroke="#aaff00" stroke-width="2"/>
</g>
<g>
	<polygon points="193,74 191,83 184,77" fill="#aaff00"/>
	<line x1="120" y1="165" x2="188" y2="80" stroke="#aaff00" stroke-width="2"/>
</g>
<g>
	<polygon points="103,118 110,124 101,127" fill="#aaff00"/>
	<line x1="120" y1="165" x2="105" y2="125" stroke="#aaff00" stroke-width="2"/>
</g>
<g>
	<polygon points="191,72 186,80 182,72" fill="#aaff00"/>
	<line x1="102" y1="114" x2="185" y2="75" stroke="#aaff00" stroke-width="2"/>
</g>
<g>
	<polygon points="174,105 167,110 166,101" fill="#aaff00"/>
	<line x1="102" y1="114" x2="167" y2="106" stroke="#aaff00" stroke-width="2"/>
</g>
<g>
	<polygon points="219,104 211,108 211,99" fill="#aaff00"/>
	<line x1="179" y1="105" x2="212" y2="104" stroke="#aaff00" stroke-width="2"/>
</g>
<g>
	<polygon points="193,75 194,84 186,79" fill="#aaff00"/>
	<line x1="179" y1="105" x2="190" y2="81" stroke="#aaff00" stroke-width="2"/>
</g>
<g>
	<polygon points="141,98 149,95 148,104" fill="#aaff00"/>
	<line x1="179" y1="105" x2="148" y2="99" stroke="#aaff00" stroke-width="2"/>
</g>
<g>
	<polygon points="164,133 163,125 171,129" fill="#aaff00"/>
	<line x1="179" y1="105" x2="167" y2="127" stroke="#aaff00" stroke-width="2"/>
</g>
<g>
	<polygon points="248,135 239,136 243,127" fill="#aaff00"/>
	<line x1="179" y1="105" x2="242" y2="132" stroke="#aaff00" stroke-width="2"/>
</g>
<g>
	<polygon points="202,138 194,134 201,129" fill="#aaff00"/>
	<line x1="179" y1="105" x2="198" y2="132" stroke="#aaff00" stroke-width="2"/>
</g>
<g>
	<polygon points="182,29 186,37 177,37" fill="#aaff00"/>
	<line x1="179" y1="105" x2="182" y2="36" stroke="#aaff00" stroke-width="2"/>
</g>
<g>
	<polygon points="191,72 186,80 182,72" fill="#aaff00"/>
	<line x1="137" y1="98" x2="185" y2="75" stroke="#aaff00" stroke-width="2"/>
</g>
<g>
	<polygon points="193,75 194,83 186,79" fill="#aaff00"/>
	<line x1="162" y1="138" x2="190" y2="81" stroke="#aaff00" stroke-width="2"/>
</g>
<g>
	<polygon points="198,74 207,77 200,83" fill="#aaff00"/>
	<line x1="253" y1="137" x2="203" y2="79" stroke="#aaff00" stroke-width="2"/>
</g>
<g>
	<polygon points="196,75 202,82 193,83" fill="#aaff00"/>
	<line x1="205" y1="142" x2="197" y2="82" stroke="#aaff00" stroke-width="2"/>
</g>
<g>
	<polygon points="184,182 185,191 177,187" fill="#aaff00"/>
	<line x1="150" y1="247" x2="181" y2="189" stroke="#aaff00" stroke-width="2"/>
</g>
<g>
	<polygon points="121,169 128,174 119,178" fill="#aaff00"/>
	<line x1="150" y1="247" x2="124" y2="175" stroke="#aaff00" stroke-width="2"/>
</g>
<g>
	<polygon points="199,278 190,278 195,270" fill="#aaff00"/>
	<line x1="150" y1="247" x2="193" y2="274" stroke="#aaff00" stroke-width="2"/>
</g>
<g>
	<polygon points="189,230 184,237 180,229" fill="#aaff00"/>
	<line x1="150" y1="247" x2="183" y2="233" stroke="#aaff00" stroke-width="2"/>
</g>
<g>
	<polygon points="138,214 145,220 136,223" fill="#aaff00"/>
	<line x1="150" y1="247" x2="140" y2="221" stroke="#aaff00" stroke-width="2"/>
</g>
<g>
	<polygon points="187,183 193,190 184,191" fill="#aaff00"/>
	<line x1="203" y1="281" x2="188" y2="190" stroke="#aaff00" stroke-width="2"/>
</g>
<g>
	<polygon points="187,183 193,190 184,191" fill="#aaff00"/>
	<line x1="194" y1="229" x2="188" y2="190" stroke="#aaff00" stroke-width="2"/>
</g>
<g>
	<polygon points="183,181 178,189 174,181" fill="#aaff00"/>
	<line x1="137" y1="210" x2="177" y2="185" stroke="#aaff00" stroke-width="2"/>
</g>

<g fill="#000000">
	<circle cx="299" cy="65" r="4"/>
</g>
<g fill="#000000">
	<circle cx="256" cy="66" r="4"/>
</g>
<g fill="#000000">
	<circle cx="260" cy="20" r="4"/>
</g>
<g fill="#000000">
	<circle cx="223" cy="103" r="4"/>
</g>
<g fill="#000000">
	<circle cx="195" cy="70" r="4"/>
</g>
<g fill="#000000">
	<circle cx="186" cy="178" r="4"/>
</g>
<g fill="#000000">
	<circle cx="119" cy="164" r="4"/>
</g>
<g fill="#000000">
	<circle cx="252" cy="242" r="4"/>
</g>
<g fill="#000000">
	<circle cx="275" cy="193" r="4"/>
</g>
<g fill="#000000">
	<circle cx="101" cy="113" r="4"/>
</g>
<g fill="#000000">
	<circle cx="178" cy="104" r="4"/>
</g>
<g fill="#000000">
	<circle cx="136" cy="97" r="4"/>
</g>
<g fill="#000000">
	<circle cx="161" cy="137" r="4"/>
</g>
<g fill="#000000">
	<circle cx="252" cy="136" r="4"/>
</g>
<g fill="#000000">
	<circle cx="204" cy="141" r="4"/>
</g>
<g fill="#000000">
	<circle cx="121" cy="19" r="4"/>
</g>
<g fill="#000000">
	<circle cx="182" cy="24" r="4"/>
</g>
<g fill="#000000">
	<circle cx="222" cy="19" r="4"/>
</g>
<g fill="#000000">
	<circle cx="298" cy="19" r="4"/>
</g>
<g fill="#000000">
	<circle cx="149" cy="246" r="4"/>
</g>
<g fill="#000000">
	<circle cx="202" cy="280" r="4"/>
</g>
<g fill="#000000">
	<circle cx="193" cy="228" r="4"/>
</g>
<g fill="#000000">
	<circle cx="136" cy="209" r="4"/>
</g>

</g>

</svg>
