<?xml version="1.0" encoding="utf-8"?>
<!-- Created with Hypercube (http://tumic.wz.cz/hypercube) -->

<svg width="400" height="300" viewBox="0 0 400 300" xmlns="http://www.w3.org/2000/svg" baseProfile="tiny">

<g font-family="Helvetica" font-weight="normal">

<g>
	<polygon points="229,76 236,82 227,85" fill="#aaff00"/>
	<line x1="248" y1="128" x2="231" y2="83" stroke="#aaff00" stroke-width="2"/>
</g>
<g>
	<polygon points="285,93 283,101 276,95" fill="#aaff00"/>
	<line x1="248" y1="128" x2="280" y2="97" stroke="#aaff00" stroke-width="2"/>
</g>
<g>
	<polygon points="206,29 213,33 205,37" fill="#aaff00"/>
	<line x1="228" y1="72" x2="209" y2="35" stroke="#aaff00" stroke-width="2"/>
</g>
<g>
	<polygon points="289,35 281,38 282,30" fill="#aaff00"/>
	<line x1="204" y1="25" x2="282" y2="34" stroke="#aaff00" stroke-width="2"/>
</g>
<g>
	<polygon points="115,18 123,14 122,23" fill="#aaff00"/>
	<line x1="204" y1="25" x2="122" y2="18" stroke="#aaff00" stroke-width="2"/>
</g>
<g>
	<polygon points="170,58 172,50 178,56" fill="#aaff00"/>
	<line x1="204" y1="25" x2="175" y2="53" stroke="#aaff00" stroke-width="2"/>
</g>
<g>
	<polygon points="289,85 285,77 294,78" fill="#aaff00"/>
	<line x1="294" y1="36" x2="290" y2="78" stroke="#aaff00" stroke-width="2"/>
</g>
<g>
	<polygon points="348,92 340,90 346,84" fill="#aaff00"/>
	<line x1="294" y1="36" x2="343" y2="87" stroke="#aaff00" stroke-width="2"/>
</g>
<g>
	<polygon points="350,161 345,153 354,153" fill="#aaff00"/>
	<line x1="352" y1="96" x2="350" y2="154" stroke="#aaff00" stroke-width="2"/>
</g>
<g>
	<polygon points="390,130 381,128 387,121" fill="#aaff00"/>
	<line x1="352" y1="96" x2="385" y2="125" stroke="#aaff00" stroke-width="2"/>
</g>
<g>
	<polygon points="306,229 307,220 314,225" fill="#aaff00"/>
	<line x1="350" y1="166" x2="310" y2="223" stroke="#aaff00" stroke-width="2"/>
</g>
<g>
	<polygon points="244,274 248,266 253,273" fill="#aaff00"/>
	<line x1="304" y1="233" x2="250" y2="270" stroke="#aaff00" stroke-width="2"/>
</g>
<g>
	<polygon points="170,282 177,277 178,286" fill="#aaff00"/>
	<line x1="241" y1="277" x2="177" y2="282" stroke="#aaff00" stroke-width="2"/>
</g>
<g>
	<polygon points="98,270 106,267 105,276" fill="#aaff00"/>
	<line x1="166" y1="283" x2="105" y2="272" stroke="#aaff00" stroke-width="2"/>
</g>
<g>
	<polygon points="33,256 41,254 40,262" fill="#aaff00"/>
	<line x1="94" y1="270" x2="40" y2="258" stroke="#aaff00" stroke-width="2"/>
</g>
<g>
	<polygon points="73,217 80,222 72,226" fill="#aaff00"/>
	<line x1="94" y1="270" x2="76" y2="223" stroke="#aaff00" stroke-width="2"/>
</g>
<g>
	<polygon points="18,192 24,199 15,200" fill="#aaff00"/>
	<line x1="29" y1="256" x2="19" y2="199" stroke="#aaff00" stroke-width="2"/>
</g>
<g>
	<polygon points="7,119 13,126 4,127" fill="#aaff00"/>
	<line x1="18" y1="188" x2="8" y2="126" stroke="#aaff00" stroke-width="2"/>
</g>
<g>
	<polygon points="28,49 30,58 21,55" fill="#aaff00"/>
	<line x1="7" y1="115" x2="26" y2="56" stroke="#aaff00" stroke-width="2"/>
</g>
<g>
	<polygon points="106,19 100,26 97,17" fill="#aaff00"/>
	<line x1="30" y1="45" x2="99" y2="21" stroke="#aaff00" stroke-width="2"/>
</g>
<g>
	<polygon points="89,57 89,48 96,52" fill="#aaff00"/>
	<line x1="111" y1="18" x2="92" y2="50" stroke="#aaff00" stroke-width="2"/>
</g>
<g>
	<polygon points="91,112 86,105 95,104" fill="#aaff00"/>
	<line x1="87" y1="61" x2="90" y2="105" stroke="#aaff00" stroke-width="2"/>
</g>
<g>
	<polygon points="140,115 132,119 132,110" fill="#aaff00"/>
	<line x1="92" y1="117" x2="133" y2="115" stroke="#aaff00" stroke-width="2"/>
</g>
<g>
	<polygon points="165,66 166,75 158,71" fill="#aaff00"/>
	<line x1="145" y1="115" x2="162" y2="72" stroke="#aaff00" stroke-width="2"/>
</g>
<g>
	<polygon points="22,189 31,189 27,197" fill="#aaff00"/>
	<line x1="72" y1="213" x2="28" y2="192" stroke="#aaff00" stroke-width="2"/>
</g>
<g>
	<polygon points="353,163 357,155 362,162" fill="#aaff00"/>
	<line x1="394" y1="133" x2="359" y2="158" stroke="#aaff00" stroke-width="2"/>
</g>
<g>
	<polygon points="246,132 248,141 239,138" fill="#aaff00"/>
	<line x1="230" y1="179" x2="244" y2="139" stroke="#aaff00" stroke-width="2"/>
</g>

<g fill="#000000">
	<circle cx="229" cy="178" r="4"/>
</g>
<g fill="#000000">
	<circle cx="247" cy="127" r="4"/>
</g>
<g fill="#000000">
	<circle cx="227" cy="71" r="4"/>
</g>
<g fill="#000000">
	<circle cx="203" cy="24" r="4"/>
</g>
<g fill="#000000">
	<circle cx="293" cy="35" r="4"/>
</g>
<g fill="#000000">
	<circle cx="288" cy="89" r="4"/>
</g>
<g fill="#000000">
	<circle cx="351" cy="95" r="4"/>
</g>
<g fill="#000000">
	<circle cx="349" cy="165" r="4"/>
</g>
<g fill="#000000">
	<circle cx="393" cy="132" r="4"/>
</g>
<g fill="#000000">
	<circle cx="303" cy="232" r="4"/>
</g>
<g fill="#000000">
	<circle cx="240" cy="276" r="4"/>
</g>
<g fill="#000000">
	<circle cx="165" cy="282" r="4"/>
</g>
<g fill="#000000">
	<circle cx="93" cy="269" r="4"/>
</g>
<g fill="#000000">
	<circle cx="28" cy="255" r="4"/>
</g>
<g fill="#000000">
	<circle cx="71" cy="212" r="4"/>
</g>
<g fill="#000000">
	<circle cx="17" cy="187" r="4"/>
</g>
<g fill="#000000">
	<circle cx="6" cy="114" r="4"/>
</g>
<g fill="#000000">
	<circle cx="29" cy="44" r="4"/>
</g>
<g fill="#000000">
	<circle cx="110" cy="17" r="4"/>
</g>
<g fill="#000000">
	<circle cx="86" cy="60" r="4"/>
</g>
<g fill="#000000">
	<circle cx="91" cy="116" r="4"/>
</g>
<g fill="#000000">
	<circle cx="144" cy="114" r="4"/>
</g>
<g fill="#000000">
	<circle cx="166" cy="61" r="4"/>
</g>

</g>

</svg>
