<?xml version="1.0" encoding="utf-8"?>
<!-- Created with Hypercube (http://tumic.wz.cz/hypercube) -->

<svg width="400" height="300" viewBox="0 0 400 300" xmlns="http://www.w3.org/2000/svg" baseProfile="tiny">

<g font-family="Helvetica" font-weight="normal">

<g>
	<polygon points="153,76 151,85 145,78" fill="#aaff00"/>
	<line x1="119" y1="113" x2="148" y2="81" stroke="#aaff00" stroke-width="2"/>
</g>
<g>
	<polygon points="105,237 101,229 110,230" fill="#aaff00"/>
	<line x1="119" y1="113" x2="106" y2="230" stroke="#aaff00" stroke-width="2"/>
</g>
<g>
	<polygon points="150,151 141,148 148,142" fill="#aaff00"/>
	<line x1="119" y1="113" x2="145" y2="145" stroke="#aaff00" stroke-width="2"/>
</g>
<g>
	<polygon points="45,113 53,108 53,117" fill="#aaff00"/>
	<line x1="119" y1="113" x2="52" y2="113" stroke="#aaff00" stroke-width="2"/>
</g>
<g>
	<polygon points="193,109 185,114 185,105" fill="#aaff00"/>
	<line x1="119" y1="113" x2="186" y2="109" stroke="#aaff00" stroke-width="2"/>
</g>
<g>
	<polygon points="85,68 93,72 86,77" fill="#aaff00"/>
	<line x1="119" y1="113" x2="90" y2="74" stroke="#aaff00" stroke-width="2"/>
</g>
<g>
	<polygon points="119,33 124,41 115,41" fill="#aaff00"/>
	<line x1="119" y1="113" x2="119" y2="40" stroke="#aaff00" stroke-width="2"/>
</g>
<g>
	<polygon points="77,290 77,281 85,285" fill="#aaff00"/>
	<line x1="105" y1="242" x2="80" y2="283" stroke="#aaff00" stroke-width="2"/>
</g>
<g>
	<polygon points="48,224 57,222 54,230" fill="#aaff00"/>
	<line x1="105" y1="242" x2="55" y2="226" stroke="#aaff00" stroke-width="2"/>
</g>
<g>
	<polygon points="73,179 72,188 65,183" fill="#aaff00"/>
	<line x1="44" y1="223" x2="69" y2="185" stroke="#aaff00" stroke-width="2"/>
</g>
<g>
	<polygon points="141,192 139,183 147,186" fill="#aaff00"/>
	<line x1="153" y1="155" x2="143" y2="185" stroke="#aaff00" stroke-width="2"/>
</g>
<g>
	<polygon points="80,174 86,168 89,177" fill="#aaff00"/>
	<line x1="153" y1="155" x2="87" y2="172" stroke="#aaff00" stroke-width="2"/>
</g>
<g>
	<polygon points="184,210 175,212 178,204" fill="#aaff00"/>
	<line x1="140" y1="197" x2="177" y2="208" stroke="#aaff00" stroke-width="2"/>
</g>
<g>
	<polygon points="165,251 165,242 173,246" fill="#aaff00"/>
	<line x1="189" y1="212" x2="169" y2="244" stroke="#aaff00" stroke-width="2"/>
</g>
<g>
	<polygon points="156,157 165,157 161,164" fill="#aaff00"/>
	<line x1="237" y1="202" x2="163" y2="160" stroke="#aaff00" stroke-width="2"/>
</g>
<g>
	<polygon points="297,193 290,199 289,190" fill="#aaff00"/>
	<line x1="237" y1="202" x2="290" y2="194" stroke="#aaff00" stroke-width="2"/>
</g>
<g>
	<polygon points="193,211 200,205 201,213" fill="#aaff00"/>
	<line x1="237" y1="202" x2="200" y2="209" stroke="#aaff00" stroke-width="2"/>
</g>
<g>
	<polygon points="354,201 346,204 347,195" fill="#aaff00"/>
	<line x1="302" y1="193" x2="347" y2="200" stroke="#aaff00" stroke-width="2"/>
</g>
<g>
	<polygon points="235,206 236,215 228,211" fill="#aaff00"/>
	<line x1="212" y1="269" x2="232" y2="212" stroke="#aaff00" stroke-width="2"/>
</g>
<g>
	<polygon points="109,243 118,240 115,249" fill="#aaff00"/>
	<line x1="212" y1="269" x2="116" y2="244" stroke="#aaff00" stroke-width="2"/>
</g>
<g>
	<polygon points="216,271 224,270 220,278" fill="#aaff00"/>
	<line x1="263" y1="295" x2="222" y2="274" stroke="#aaff00" stroke-width="2"/>
</g>
<g>
	<polygon points="116,32 114,40 108,34" fill="#aaff00"/>
	<line x1="83" y1="65" x2="111" y2="37" stroke="#aaff00" stroke-width="2"/>
</g>
<g>
	<polygon points="156,7 151,15 147,7" fill="#aaff00"/>
	<line x1="120" y1="29" x2="149" y2="11" stroke="#aaff00" stroke-width="2"/>
</g>
<g>
	<polygon points="209,6 203,12 200,3" fill="#aaff00"/>
	<line x1="120" y1="29" x2="202" y2="7" stroke="#aaff00" stroke-width="2"/>
</g>
<g>
	<polygon points="270,5 262,9 262,0" fill="#aaff00"/>
	<line x1="214" y1="5" x2="263" y2="5" stroke="#aaff00" stroke-width="2"/>
</g>
<g>
	<polygon points="115,27 106,28 110,20" fill="#aaff00"/>
	<line x1="61" y1="5" x2="109" y2="24" stroke="#aaff00" stroke-width="2"/>
</g>

<g fill="#000000">
	<circle cx="156" cy="72" r="4"/>
</g>
<g fill="#000000">
	<circle cx="211" cy="268" r="4"/>
</g>
<g fill="#000000">
	<circle cx="236" cy="201" r="4"/>
</g>
<g fill="#000000">
	<circle cx="104" cy="241" r="4"/>
</g>
<g fill="#000000">
	<circle cx="152" cy="154" r="4"/>
</g>
<g fill="#000000">
	<circle cx="301" cy="192" r="4"/>
</g>
<g fill="#000000">
	<circle cx="188" cy="211" r="4"/>
</g>
<g fill="#000000">
	<circle cx="139" cy="196" r="4"/>
</g>
<g fill="#000000">
	<circle cx="75" cy="175" r="4"/>
</g>
<g fill="#000000">
	<circle cx="358" cy="201" r="4"/>
</g>
<g fill="#000000">
	<circle cx="162" cy="254" r="4"/>
</g>
<g fill="#000000">
	<circle cx="74" cy="293" r="4"/>
</g>
<g fill="#000000">
	<circle cx="43" cy="222" r="4"/>
</g>
<g fill="#000000">
	<circle cx="40" cy="112" r="4"/>
</g>
<g fill="#000000">
	<circle cx="197" cy="108" r="4"/>
</g>
<g fill="#000000">
	<circle cx="82" cy="64" r="4"/>
</g>
<g fill="#000000">
	<circle cx="119" cy="28" r="4"/>
</g>
<g fill="#000000">
	<circle cx="159" cy="4" r="4"/>
</g>
<g fill="#000000">
	<circle cx="213" cy="4" r="4"/>
</g>
<g fill="#000000">
	<circle cx="274" cy="4" r="4"/>
</g>
<g fill="#000000">
	<circle cx="262" cy="294" r="4"/>
</g>
<g fill="#000000">
	<circle cx="60" cy="4" r="4"/>
</g>
<g fill="#000000">
	<circle cx="118" cy="112" r="4"/>
</g>

</g>

</svg>
