<?xml version="1.0" encoding="utf-8"?>
<!-- Created with Hypercube (http://tumic.wz.cz/hypercube) -->

<svg width="400" height="300" viewBox="0 0 400 300" xmlns="http://www.w3.org/2000/svg" baseProfile="tiny">

<g font-family="Helvetica" font-weight="normal">

<g>
	<polygon points="246,131 249,122 255,129" fill="#aaff00"/>
	<line x1="333" y1="62" x2="252" y2="126" stroke="#aaff00" stroke-width="2"/>
</g>
<g>
	<polygon points="145,151 152,145 153,154" fill="#aaff00"/>
	<line x1="243" y1="134" x2="152" y2="149" stroke="#aaff00" stroke-width="2"/>
</g>
<g>
	<polygon points="203,185 204,176 212,181" fill="#aaff00"/>
	<line x1="243" y1="134" x2="208" y2="179" stroke="#aaff00" stroke-width="2"/>
</g>
<g>
	<polygon points="197,142 204,136 205,145" fill="#aaff00"/>
	<line x1="243" y1="134" x2="204" y2="140" stroke="#aaff00" stroke-width="2"/>
</g>
<g>
	<polygon points="249,177 243,170 252,169" fill="#aaff00"/>
	<line x1="243" y1="134" x2="248" y2="170" stroke="#aaff00" stroke-width="2"/>
</g>
<g>
	<polygon points="257,225 251,218 260,217" fill="#aaff00"/>
	<line x1="243" y1="134" x2="256" y2="218" stroke="#aaff00" stroke-width="2"/>
</g>
<g>
	<polygon points="301,148 292,151 295,142" fill="#aaff00"/>
	<line x1="243" y1="134" x2="294" y2="147" stroke="#aaff00" stroke-width="2"/>
</g>
<g>
	<polygon points="143,155 151,159 143,164" fill="#aaff00"/>
	<line x1="189" y1="228" x2="147" y2="161" stroke="#aaff00" stroke-width="2"/>
</g>
<g>
	<polygon points="199,193 201,202 193,199" fill="#aaff00"/>
	<line x1="189" y1="228" x2="197" y2="200" stroke="#aaff00" stroke-width="2"/>
</g>
<g>
	<polygon points="192,147 196,155 187,155" fill="#aaff00"/>
	<line x1="189" y1="228" x2="192" y2="154" stroke="#aaff00" stroke-width="2"/>
</g>
<g>
	<polygon points="246,184 242,192 237,185" fill="#aaff00"/>
	<line x1="189" y1="228" x2="240" y2="189" stroke="#aaff00" stroke-width="2"/>
</g>
<g>
	<polygon points="253,229 245,234 245,225" fill="#aaff00"/>
	<line x1="189" y1="228" x2="246" y2="229" stroke="#aaff00" stroke-width="2"/>
</g>
<g>
	<polygon points="191,231 199,236 191,240" fill="#aaff00"/>
	<line x1="228" y1="295" x2="194" y2="238" stroke="#aaff00" stroke-width="2"/>
</g>
<g>
	<polygon points="184,229 178,235 175,227" fill="#aaff00"/>
	<line x1="123" y1="247" x2="177" y2="231" stroke="#aaff00" stroke-width="2"/>
</g>
<g>
	<polygon points="187,232 188,241 180,237" fill="#aaff00"/>
	<line x1="163" y1="294" x2="184" y2="238" stroke="#aaff00" stroke-width="2"/>
</g>
<g>
	<polygon points="137,149 128,149 132,141" fill="#aaff00"/>
	<line x1="67" y1="108" x2="130" y2="146" stroke="#aaff00" stroke-width="2"/>
</g>
<g>
	<polygon points="9,122 15,116 18,125" fill="#aaff00"/>
	<line x1="67" y1="108" x2="16" y2="121" stroke="#aaff00" stroke-width="2"/>
</g>
<g>
	<polygon points="63,104 55,101 62,95" fill="#aaff00"/>
	<line x1="23" y1="59" x2="59" y2="99" stroke="#aaff00" stroke-width="2"/>
</g>
<g>
	<polygon points="68,103 68,94 76,98" fill="#aaff00"/>
	<line x1="94" y1="51" x2="72" y2="97" stroke="#aaff00" stroke-width="2"/>
</g>
<g>
	<polygon points="65,112 68,121 59,118" fill="#aaff00"/>
	<line x1="52" y1="168" x2="64" y2="119" stroke="#aaff00" stroke-width="2"/>
</g>
<g>
	<polygon points="240,130 232,126 239,121" fill="#aaff00"/>
	<line x1="202" y1="72" x2="236" y2="124" stroke="#aaff00" stroke-width="2"/>
</g>
<g>
	<polygon points="244,129 243,120 251,124" fill="#aaff00"/>
	<line x1="264" y1="82" x2="247" y2="123" stroke="#aaff00" stroke-width="2"/>
</g>
<g>
	<polygon points="299,8 307,12 299,17" fill="#aaff00"/>
	<line x1="333" y1="62" x2="303" y2="14" stroke="#aaff00" stroke-width="2"/>
</g>
<g>
	<polygon points="390,54 383,60 382,51" fill="#aaff00"/>
	<line x1="333" y1="62" x2="383" y2="55" stroke="#aaff00" stroke-width="2"/>
</g>
<g>
	<polygon points="376,112 367,109 374,103" fill="#aaff00"/>
	<line x1="333" y1="62" x2="371" y2="107" stroke="#aaff00" stroke-width="2"/>
</g>
<g>
	<polygon points="361,8 362,17 354,13" fill="#aaff00"/>
	<line x1="333" y1="62" x2="358" y2="15" stroke="#aaff00" stroke-width="2"/>
</g>

<g fill="#000000">
	<circle cx="332" cy="61" r="4"/>
</g>
<g fill="#000000">
	<circle cx="242" cy="133" r="4"/>
</g>
<g fill="#000000">
	<circle cx="140" cy="151" r="4"/>
</g>
<g fill="#000000">
	<circle cx="200" cy="188" r="4"/>
</g>
<g fill="#000000">
	<circle cx="192" cy="142" r="4"/>
</g>
<g fill="#000000">
	<circle cx="249" cy="181" r="4"/>
</g>
<g fill="#000000">
	<circle cx="257" cy="229" r="4"/>
</g>
<g fill="#000000">
	<circle cx="305" cy="149" r="4"/>
</g>
<g fill="#000000">
	<circle cx="201" cy="71" r="4"/>
</g>
<g fill="#000000">
	<circle cx="263" cy="81" r="4"/>
</g>
<g fill="#000000">
	<circle cx="227" cy="294" r="4"/>
</g>
<g fill="#000000">
	<circle cx="188" cy="227" r="4"/>
</g>
<g fill="#000000">
	<circle cx="122" cy="246" r="4"/>
</g>
<g fill="#000000">
	<circle cx="162" cy="293" r="4"/>
</g>
<g fill="#000000">
	<circle cx="296" cy="4" r="4"/>
</g>
<g fill="#000000">
	<circle cx="394" cy="53" r="4"/>
</g>
<g fill="#000000">
	<circle cx="378" cy="115" r="4"/>
</g>
<g fill="#000000">
	<circle cx="363" cy="4" r="4"/>
</g>
<g fill="#000000">
	<circle cx="22" cy="58" r="4"/>
</g>
<g fill="#000000">
	<circle cx="66" cy="107" r="4"/>
</g>
<g fill="#000000">
	<circle cx="4" cy="123" r="4"/>
</g>
<g fill="#000000">
	<circle cx="93" cy="50" r="4"/>
</g>
<g fill="#000000">
	<circle cx="51" cy="167" r="4"/>
</g>

</g>

</svg>
