<?xml version="1.0" encoding="utf-8"?>
<!-- Created with Hypercube (http://tumic.wz.cz/hypercube) -->

<svg width="400" height="300" viewBox="0 0 400 300" xmlns="http://www.w3.org/2000/svg" baseProfile="tiny">

<g font-family="Helvetica" font-weight="normal">

<g>
	<polygon points="371,56 364,62 363,53" fill="#aaff00"/>
	<line x1="322" y1="65" x2="364" y2="57" stroke="#aaff00" stroke-width="2"/>
</g>
<g>
	<polygon points="317,64 309,68 310,59" fill="#aaff00"/>
	<line x1="246" y1="59" x2="310" y2="64" stroke="#aaff00" stroke-width="2"/>
</g>
<g>
	<polygon points="191,60 199,56 199,65" fill="#aaff00"/>
	<line x1="246" y1="59" x2="198" y2="60" stroke="#aaff00" stroke-width="2"/>
</g>
<g>
	<polygon points="231,103 229,94 238,97" fill="#aaff00"/>
	<line x1="246" y1="59" x2="233" y2="96" stroke="#aaff00" stroke-width="2"/>
</g>
<g>
	<polygon points="223,9 231,14 222,18" fill="#aaff00"/>
	<line x1="246" y1="59" x2="226" y2="15" stroke="#aaff00" stroke-width="2"/>
</g>
<g>
	<polygon points="284,8 283,17 275,12" fill="#aaff00"/>
	<line x1="246" y1="59" x2="279" y2="14" stroke="#aaff00" stroke-width="2"/>
</g>
<g>
	<polygon points="242,61 239,70 233,63" fill="#aaff00"/>
	<line x1="172" y1="119" x2="236" y2="66" stroke="#aaff00" stroke-width="2"/>
</g>
<g>
	<polygon points="185,65 188,74 179,71" fill="#aaff00"/>
	<line x1="172" y1="119" x2="184" y2="72" stroke="#aaff00" stroke-width="2"/>
</g>
<g>
	<polygon points="225,108 218,114 217,105" fill="#aaff00"/>
	<line x1="172" y1="119" x2="218" y2="110" stroke="#aaff00" stroke-width="2"/>
</g>
<g>
	<polygon points="128,149 132,141 137,148" fill="#aaff00"/>
	<line x1="172" y1="119" x2="134" y2="145" stroke="#aaff00" stroke-width="2"/>
</g>
<g>
	<polygon points="81,135 88,129 89,138" fill="#aaff00"/>
	<line x1="172" y1="119" x2="88" y2="133" stroke="#aaff00" stroke-width="2"/>
</g>
<g>
	<polygon points="236,176 227,174 233,167" fill="#aaff00"/>
	<line x1="172" y1="119" x2="231" y2="171" stroke="#aaff00" stroke-width="2"/>
</g>
<g>
	<polygon points="175,189 170,181 179,181" fill="#aaff00"/>
	<line x1="172" y1="119" x2="175" y2="182" stroke="#aaff00" stroke-width="2"/>
</g>
<g>
	<polygon points="108,67 117,69 111,76" fill="#aaff00"/>
	<line x1="172" y1="119" x2="114" y2="72" stroke="#aaff00" stroke-width="2"/>
</g>
<g>
	<polygon points="37,185 39,176 46,182" fill="#aaff00"/>
	<line x1="77" y1="136" x2="42" y2="179" stroke="#aaff00" stroke-width="2"/>
</g>
<g>
	<polygon points="120,150 111,152 114,143" fill="#aaff00"/>
	<line x1="77" y1="136" x2="113" y2="148" stroke="#aaff00" stroke-width="2"/>
</g>
<g>
	<polygon points="61,100 68,105 60,109" fill="#aaff00"/>
	<line x1="77" y1="136" x2="64" y2="106" stroke="#aaff00" stroke-width="2"/>
</g>
<g>
	<polygon points="43,58 50,63 42,67" fill="#aaff00"/>
	<line x1="77" y1="136" x2="46" y2="64" stroke="#aaff00" stroke-width="2"/>
</g>
<g>
	<polygon points="24,238 22,230 30,231" fill="#aaff00"/>
	<line x1="35" y1="189" x2="26" y2="231" stroke="#aaff00" stroke-width="2"/>
</g>
<g>
	<polygon points="63,93 67,85 72,92" fill="#aaff00"/>
	<line x1="105" y1="65" x2="69" y2="89" stroke="#aaff00" stroke-width="2"/>
</g>
<g>
	<polygon points="46,54 54,51 53,60" fill="#aaff00"/>
	<line x1="105" y1="65" x2="53" y2="56" stroke="#aaff00" stroke-width="2"/>
</g>
<g>
	<polygon points="102,9 107,17 98,17" fill="#aaff00"/>
	<line x1="105" y1="65" x2="102" y2="16" stroke="#aaff00" stroke-width="2"/>
</g>
<g>
	<polygon points="276,233 268,229 275,224" fill="#aaff00"/>
	<line x1="240" y1="179" x2="272" y2="227" stroke="#aaff00" stroke-width="2"/>
</g>
<g>
	<polygon points="328,276 319,274 325,267" fill="#aaff00"/>
	<line x1="279" y1="237" x2="322" y2="271" stroke="#aaff00" stroke-width="2"/>
</g>
<g>
	<polygon points="328,207 323,215 319,207" fill="#aaff00"/>
	<line x1="279" y1="237" x2="321" y2="211" stroke="#aaff00" stroke-width="2"/>
</g>
<g>
	<polygon points="263,290 261,281 269,284" fill="#aaff00"/>
	<line x1="279" y1="237" x2="265" y2="283" stroke="#aaff00" stroke-width="2"/>
</g>
<g>
	<polygon points="274,237 267,242 266,233" fill="#aaff00"/>
	<line x1="213" y1="242" x2="267" y2="237" stroke="#aaff00" stroke-width="2"/>
</g>
<g>
	<polygon points="210,238 201,235 209,229" fill="#aaff00"/>
	<line x1="176" y1="194" x2="205" y2="232" stroke="#aaff00" stroke-width="2"/>
</g>

<g fill="#000000">
	<circle cx="321" cy="64" r="4"/>
</g>
<g fill="#000000">
	<circle cx="375" cy="55" r="4"/>
</g>
<g fill="#000000">
	<circle cx="34" cy="188" r="4"/>
</g>
<g fill="#000000">
	<circle cx="23" cy="242" r="4"/>
</g>
<g fill="#000000">
	<circle cx="171" cy="118" r="4"/>
</g>
<g fill="#000000">
	<circle cx="245" cy="58" r="4"/>
</g>
<g fill="#000000">
	<circle cx="186" cy="60" r="4"/>
</g>
<g fill="#000000">
	<circle cx="229" cy="107" r="4"/>
</g>
<g fill="#000000">
	<circle cx="124" cy="151" r="4"/>
</g>
<g fill="#000000">
	<circle cx="76" cy="135" r="4"/>
</g>
<g fill="#000000">
	<circle cx="239" cy="178" r="4"/>
</g>
<g fill="#000000">
	<circle cx="175" cy="193" r="4"/>
</g>
<g fill="#000000">
	<circle cx="104" cy="64" r="4"/>
</g>
<g fill="#000000">
	<circle cx="221" cy="4" r="4"/>
</g>
<g fill="#000000">
	<circle cx="286" cy="4" r="4"/>
</g>
<g fill="#000000">
	<circle cx="59" cy="95" r="4"/>
</g>
<g fill="#000000">
	<circle cx="41" cy="53" r="4"/>
</g>
<g fill="#000000">
	<circle cx="278" cy="236" r="4"/>
</g>
<g fill="#000000">
	<circle cx="331" cy="278" r="4"/>
</g>
<g fill="#000000">
	<circle cx="331" cy="204" r="4"/>
</g>
<g fill="#000000">
	<circle cx="261" cy="294" r="4"/>
</g>
<g fill="#000000">
	<circle cx="212" cy="241" r="4"/>
</g>
<g fill="#000000">
	<circle cx="101" cy="4" r="4"/>
</g>

</g>

</svg>
