<?xml version="1.0" encoding="utf-8"?>
<!-- Created with Hypercube (http://tumic.wz.cz/hypercube) -->

<svg width="400" height="300" viewBox="0 0 400 300" xmlns="http://www.w3.org/2000/svg" baseProfile="tiny">

<g font-family="Helvetica" font-weight="normal">

<g>
	<polygon points="136,295 128,299 128,290" fill="#aaff00"/>
	<line x1="86" y1="295" x2="129" y2="295" stroke="#aaff00" stroke-width="2"/>
</g>
<g>
	<polygon points="49,254 57,257 50,263" fill="#aaff00"/>
	<line x1="86" y1="295" x2="53" y2="259" stroke="#aaff00" stroke-width="2"/>
</g>
<g>
	<polygon points="127,248 133,254 125,257" fill="#aaff00"/>
	<line x1="141" y1="295" x2="129" y2="255" stroke="#aaff00" stroke-width="2"/>
</g>
<g>
	<polygon points="87,202 95,204 89,211" fill="#aaff00"/>
	<line x1="126" y1="244" x2="91" y2="207" stroke="#aaff00" stroke-width="2"/>
</g>
<g>
	<polygon points="67,134 73,140 64,143" fill="#aaff00"/>
	<line x1="84" y1="199" x2="68" y2="141" stroke="#aaff00" stroke-width="2"/>
</g>
<g>
	<polygon points="157,133 154,142 148,135" fill="#aaff00"/>
	<line x1="84" y1="199" x2="152" y2="138" stroke="#aaff00" stroke-width="2"/>
</g>
<g>
	<polygon points="97,59 98,68 89,64" fill="#aaff00"/>
	<line x1="66" y1="130" x2="94" y2="65" stroke="#aaff00" stroke-width="2"/>
</g>
<g>
	<polygon points="183,11 178,18 174,10" fill="#aaff00"/>
	<line x1="99" y1="55" x2="176" y2="14" stroke="#aaff00" stroke-width="2"/>
</g>
<g>
	<polygon points="264,19 256,22 257,13" fill="#aaff00"/>
	<line x1="187" y1="9" x2="257" y2="18" stroke="#aaff00" stroke-width="2"/>
</g>
<g>
	<polygon points="314,6 308,12 305,4" fill="#aaff00"/>
	<line x1="269" y1="20" x2="307" y2="8" stroke="#aaff00" stroke-width="2"/>
</g>
<g>
	<polygon points="322,64 313,62 319,55" fill="#aaff00"/>
	<line x1="269" y1="20" x2="316" y2="59" stroke="#aaff00" stroke-width="2"/>
</g>
<g>
	<polygon points="330,68 339,65 336,74" fill="#aaff00"/>
	<line x1="385" y1="81" x2="337" y2="69" stroke="#aaff00" stroke-width="2"/>
</g>
<g>
	<polygon points="97,50 89,45 98,41" fill="#aaff00"/>
	<line x1="77" y1="5" x2="94" y2="44" stroke="#aaff00" stroke-width="2"/>
</g>
<g>
	<polygon points="94,54 86,58 86,49" fill="#aaff00"/>
	<line x1="27" y1="51" x2="87" y2="54" stroke="#aaff00" stroke-width="2"/>
</g>
<g>
	<polygon points="101,58 110,61 103,67" fill="#aaff00"/>
	<line x1="161" y1="131" x2="106" y2="64" stroke="#aaff00" stroke-width="2"/>
</g>
<g>
	<polygon points="170,181 164,174 173,173" fill="#aaff00"/>
	<line x1="161" y1="131" x2="168" y2="174" stroke="#aaff00" stroke-width="2"/>
</g>
<g>
	<polygon points="211,92 207,101 202,93" fill="#aaff00"/>
	<line x1="161" y1="131" x2="205" y2="97" stroke="#aaff00" stroke-width="2"/>
</g>
<g>
	<polygon points="165,131 173,128 172,137" fill="#aaff00"/>
	<line x1="234" y1="141" x2="172" y2="132" stroke="#aaff00" stroke-width="2"/>
</g>
<g>
	<polygon points="164,134 172,136 166,142" fill="#aaff00"/>
	<line x1="226" y1="198" x2="169" y2="139" stroke="#aaff00" stroke-width="2"/>
</g>
<g>
	<polygon points="161,126 156,118 165,118" fill="#aaff00"/>
	<line x1="161" y1="68" x2="161" y2="119" stroke="#aaff00" stroke-width="2"/>
</g>
<g>
	<polygon points="69,132 78,132 74,139" fill="#aaff00"/>
	<line x1="112" y1="156" x2="76" y2="135" stroke="#aaff00" stroke-width="2"/>
</g>
<g>
	<polygon points="156,133 152,140 148,132" fill="#aaff00"/>
	<line x1="112" y1="156" x2="150" y2="136" stroke="#aaff00" stroke-width="2"/>
</g>
<g>
	<polygon points="69,127 74,120 78,127" fill="#aaff00"/>
	<line x1="109" y1="106" x2="76" y2="124" stroke="#aaff00" stroke-width="2"/>
</g>
<g>
	<polygon points="156,129 147,129 151,121" fill="#aaff00"/>
	<line x1="109" y1="106" x2="150" y2="125" stroke="#aaff00" stroke-width="2"/>
</g>
<g>
	<polygon points="81,202 80,211 73,206" fill="#aaff00"/>
	<line x1="46" y1="251" x2="77" y2="208" stroke="#aaff00" stroke-width="2"/>
</g>
<g>
	<polygon points="43,254 42,263 35,258" fill="#aaff00"/>
	<line x1="15" y1="295" x2="39" y2="260" stroke="#aaff00" stroke-width="2"/>
</g>

<g fill="#000000">
	<circle cx="85" cy="294" r="4"/>
</g>
<g fill="#000000">
	<circle cx="140" cy="294" r="4"/>
</g>
<g fill="#000000">
	<circle cx="125" cy="243" r="4"/>
</g>
<g fill="#000000">
	<circle cx="14" cy="294" r="4"/>
</g>
<g fill="#000000">
	<circle cx="45" cy="250" r="4"/>
</g>
<g fill="#000000">
	<circle cx="233" cy="140" r="4"/>
</g>
<g fill="#000000">
	<circle cx="225" cy="197" r="4"/>
</g>
<g fill="#000000">
	<circle cx="160" cy="67" r="4"/>
</g>
<g fill="#000000">
	<circle cx="83" cy="198" r="4"/>
</g>
<g fill="#000000">
	<circle cx="111" cy="155" r="4"/>
</g>
<g fill="#000000">
	<circle cx="108" cy="105" r="4"/>
</g>
<g fill="#000000">
	<circle cx="76" cy="4" r="4"/>
</g>
<g fill="#000000">
	<circle cx="26" cy="50" r="4"/>
</g>
<g fill="#000000">
	<circle cx="65" cy="129" r="4"/>
</g>
<g fill="#000000">
	<circle cx="160" cy="130" r="4"/>
</g>
<g fill="#000000">
	<circle cx="98" cy="54" r="4"/>
</g>
<g fill="#000000">
	<circle cx="170" cy="185" r="4"/>
</g>
<g fill="#000000">
	<circle cx="214" cy="89" r="4"/>
</g>
<g fill="#000000">
	<circle cx="186" cy="8" r="4"/>
</g>
<g fill="#000000">
	<circle cx="384" cy="80" r="4"/>
</g>
<g fill="#000000">
	<circle cx="268" cy="19" r="4"/>
</g>
<g fill="#000000">
	<circle cx="318" cy="4" r="4"/>
</g>
<g fill="#000000">
	<circle cx="325" cy="66" r="4"/>
</g>

</g>

</svg>
