<?xml version="1.0" encoding="utf-8"?>
<!-- Created with Hypercube (http://tumic.wz.cz/hypercube) -->

<svg width="400" height="300" viewBox="0 0 400 300" xmlns="http://www.w3.org/2000/svg" baseProfile="tiny">

<g font-family="Helvetica" font-weight="normal">

<g>
	<polygon points="292,227 283,227 287,219" fill="#aaff00"/>
	<line x1="247" y1="200" x2="286" y2="223" stroke="#aaff00" stroke-width="2"/>
</g>
<g>
	<polygon points="299,175 294,183 290,175" fill="#aaff00"/>
	<line x1="247" y1="200" x2="293" y2="178" stroke="#aaff00" stroke-width="2"/>
</g>
<g>
	<polygon points="224,281 221,272 230,275" fill="#aaff00"/>
	<line x1="247" y1="200" x2="226" y2="274" stroke="#aaff00" stroke-width="2"/>
</g>
<g>
	<polygon points="184,256 187,247 193,254" fill="#aaff00"/>
	<line x1="247" y1="200" x2="189" y2="251" stroke="#aaff00" stroke-width="2"/>
</g>
<g>
	<polygon points="217,161 226,165 218,170" fill="#aaff00"/>
	<line x1="247" y1="200" x2="222" y2="167" stroke="#aaff00" stroke-width="2"/>
</g>
<g>
	<polygon points="267,110 269,118 260,117" fill="#aaff00"/>
	<line x1="247" y1="200" x2="265" y2="117" stroke="#aaff00" stroke-width="2"/>
</g>
<g>
	<polygon points="260,251 265,243 269,251" fill="#aaff00"/>
	<line x1="296" y1="230" x2="266" y2="247" stroke="#aaff00" stroke-width="2"/>
</g>
<g>
	<polygon points="298,279 289,279 293,271" fill="#aaff00"/>
	<line x1="257" y1="254" x2="292" y2="275" stroke="#aaff00" stroke-width="2"/>
</g>
<g>
	<polygon points="185,209 194,209 190,217" fill="#aaff00"/>
	<line x1="257" y1="254" x2="191" y2="213" stroke="#aaff00" stroke-width="2"/>
</g>
<g>
	<polygon points="227,285 235,280 235,289" fill="#aaff00"/>
	<line x1="302" y1="282" x2="234" y2="285" stroke="#aaff00" stroke-width="2"/>
</g>
<g>
	<polygon points="142,239 151,239 147,247" fill="#aaff00"/>
	<line x1="223" y1="286" x2="149" y2="242" stroke="#aaff00" stroke-width="2"/>
</g>
<g>
	<polygon points="178,209 174,217 169,210" fill="#aaff00"/>
	<line x1="139" y1="237" x2="172" y2="213" stroke="#aaff00" stroke-width="2"/>
</g>
<g>
	<polygon points="121,158 128,165 119,166" fill="#aaff00"/>
	<line x1="139" y1="237" x2="123" y2="165" stroke="#aaff00" stroke-width="2"/>
</g>
<g>
	<polygon points="166,144 172,150 163,153" fill="#aaff00"/>
	<line x1="182" y1="207" x2="167" y2="151" stroke="#aaff00" stroke-width="2"/>
</g>
<g>
	<polygon points="125,152 131,145 134,154" fill="#aaff00"/>
	<line x1="165" y1="140" x2="132" y2="150" stroke="#aaff00" stroke-width="2"/>
</g>
<g>
	<polygon points="157,76 162,83 153,84" fill="#aaff00"/>
	<line x1="165" y1="140" x2="158" y2="83" stroke="#aaff00" stroke-width="2"/>
</g>
<g>
	<polygon points="216,98 211,106 207,98" fill="#aaff00"/>
	<line x1="121" y1="154" x2="209" y2="101" stroke="#aaff00" stroke-width="2"/>
</g>
<g>
	<polygon points="57,139 65,137 64,146" fill="#aaff00"/>
	<line x1="121" y1="154" x2="64" y2="141" stroke="#aaff00" stroke-width="2"/>
</g>
<g>
	<polygon points="95,105 102,110 94,114" fill="#aaff00"/>
	<line x1="121" y1="154" x2="98" y2="112" stroke="#aaff00" stroke-width="2"/>
</g>
<g>
	<polygon points="231,45 233,53 224,52" fill="#aaff00"/>
	<line x1="220" y1="96" x2="229" y2="52" stroke="#aaff00" stroke-width="2"/>
</g>
<g>
	<polygon points="170,16 179,15 175,23" fill="#aaff00"/>
	<line x1="232" y1="41" x2="176" y2="19" stroke="#aaff00" stroke-width="2"/>
</g>
<g>
	<polygon points="99,15 107,10 107,19" fill="#aaff00"/>
	<line x1="166" y1="15" x2="106" y2="15" stroke="#aaff00" stroke-width="2"/>
</g>
<g>
	<polygon points="92,18 90,27 83,21" fill="#aaff00"/>
	<line x1="53" y1="68" x2="87" y2="24" stroke="#aaff00" stroke-width="2"/>
</g>
<g>
	<polygon points="53,72 57,80 48,80" fill="#aaff00"/>
	<line x1="53" y1="139" x2="53" y2="79" stroke="#aaff00" stroke-width="2"/>
</g>
<g>
	<polygon points="56,70 65,72 59,79" fill="#aaff00"/>
	<line x1="93" y1="102" x2="61" y2="75" stroke="#aaff00" stroke-width="2"/>
</g>
<g>
	<polygon points="165,19 168,27 159,26" fill="#aaff00"/>
	<line x1="157" y1="72" x2="164" y2="26" stroke="#aaff00" stroke-width="2"/>
</g>
<g>
	<polygon points="234,44 241,49 234,53" fill="#aaff00"/>
	<line x1="268" y1="106" x2="237" y2="51" stroke="#aaff00" stroke-width="2"/>
</g>
<g>
	<polygon points="224,96 232,93 231,102" fill="#aaff00"/>
	<line x1="322" y1="116" x2="231" y2="98" stroke="#aaff00" stroke-width="2"/>
</g>
<g>
	<polygon points="304,278 303,269 311,273" fill="#aaff00"/>
	<line x1="348" y1="196" x2="307" y2="271" stroke="#aaff00" stroke-width="2"/>
</g>
<g>
	<polygon points="323,120 330,126 321,129" fill="#aaff00"/>
	<line x1="348" y1="196" x2="325" y2="127" stroke="#aaff00" stroke-width="2"/>
</g>
<g>
	<polygon points="343,193 334,194 339,186" fill="#aaff00"/>
	<line x1="304" y1="174" x2="337" y2="190" stroke="#aaff00" stroke-width="2"/>
</g>
<g>
	<polygon points="169,141 178,139 175,148" fill="#aaff00"/>
	<line x1="215" y1="158" x2="176" y2="143" stroke="#aaff00" stroke-width="2"/>
</g>
<g>
	<polygon points="142,239 151,238 147,246" fill="#aaff00"/>
	<line x1="181" y1="259" x2="149" y2="242" stroke="#aaff00" stroke-width="2"/>
</g>

<g fill="#000000">
	<circle cx="246" cy="199" r="4"/>
</g>
<g fill="#000000">
	<circle cx="295" cy="229" r="4"/>
</g>
<g fill="#000000">
	<circle cx="303" cy="173" r="4"/>
</g>
<g fill="#000000">
	<circle cx="222" cy="285" r="4"/>
</g>
<g fill="#000000">
	<circle cx="180" cy="258" r="4"/>
</g>
<g fill="#000000">
	<circle cx="214" cy="157" r="4"/>
</g>
<g fill="#000000">
	<circle cx="267" cy="105" r="4"/>
</g>
<g fill="#000000">
	<circle cx="256" cy="253" r="4"/>
</g>
<g fill="#000000">
	<circle cx="347" cy="195" r="4"/>
</g>
<g fill="#000000">
	<circle cx="301" cy="281" r="4"/>
</g>
<g fill="#000000">
	<circle cx="181" cy="206" r="4"/>
</g>
<g fill="#000000">
	<circle cx="321" cy="115" r="4"/>
</g>
<g fill="#000000">
	<circle cx="138" cy="236" r="4"/>
</g>
<g fill="#000000">
	<circle cx="120" cy="153" r="4"/>
</g>
<g fill="#000000">
	<circle cx="164" cy="139" r="4"/>
</g>
<g fill="#000000">
	<circle cx="156" cy="71" r="4"/>
</g>
<g fill="#000000">
	<circle cx="219" cy="95" r="4"/>
</g>
<g fill="#000000">
	<circle cx="52" cy="138" r="4"/>
</g>
<g fill="#000000">
	<circle cx="92" cy="101" r="4"/>
</g>
<g fill="#000000">
	<circle cx="231" cy="40" r="4"/>
</g>
<g fill="#000000">
	<circle cx="165" cy="14" r="4"/>
</g>
<g fill="#000000">
	<circle cx="52" cy="67" r="4"/>
</g>
<g fill="#000000">
	<circle cx="94" cy="14" r="4"/>
</g>

</g>

</svg>
