<?xml version="1.0" encoding="utf-8"?>
<!-- Created with Hypercube (http://tumic.wz.cz/hypercube) -->

<svg width="400" height="300" viewBox="0 0 400 300" xmlns="http://www.w3.org/2000/svg" baseProfile="tiny">

<g font-family="Helvetica" font-weight="normal">

<g>
	<polygon points="189,5 197,0 197,9" fill="#aaff00"/>
	<line x1="240" y1="6" x2="196" y2="5" stroke="#aaff00" stroke-width="2"/>
</g>
<g>
	<polygon points="263,129 260,121 269,122" fill="#aaff00"/>
	<line x1="272" y1="69" x2="264" y2="122" stroke="#aaff00" stroke-width="2"/>
</g>
<g>
	<polygon points="242,10 249,14 241,18" fill="#aaff00"/>
	<line x1="272" y1="69" x2="245" y2="16" stroke="#aaff00" stroke-width="2"/>
</g>
<g>
	<polygon points="222,188 223,179 230,184" fill="#aaff00"/>
	<line x1="263" y1="134" x2="226" y2="182" stroke="#aaff00" stroke-width="2"/>
</g>
<g>
	<polygon points="216,195 214,203 208,197" fill="#aaff00"/>
	<line x1="160" y1="251" x2="211" y2="200" stroke="#aaff00" stroke-width="2"/>
</g>
<g>
	<polygon points="156,253 152,261 147,254" fill="#aaff00"/>
	<line x1="110" y1="287" x2="150" y2="257" stroke="#aaff00" stroke-width="2"/>
</g>
<g>
	<polygon points="224,193 233,192 229,200" fill="#aaff00"/>
	<line x1="295" y1="220" x2="230" y2="196" stroke="#aaff00" stroke-width="2"/>
</g>
<g>
	<polygon points="298,222 307,221 303,229" fill="#aaff00"/>
	<line x1="348" y1="248" x2="305" y2="225" stroke="#aaff00" stroke-width="2"/>
</g>
<g>
	<polygon points="218,187 212,181 221,178" fill="#aaff00"/>
	<line x1="208" y1="148" x2="216" y2="180" stroke="#aaff00" stroke-width="2"/>
</g>
<g>
	<polygon points="207,143 201,136 210,135" fill="#aaff00"/>
	<line x1="200" y1="100" x2="206" y2="136" stroke="#aaff00" stroke-width="2"/>
</g>
<g>
	<polygon points="201,54 206,62 197,62" fill="#aaff00"/>
	<line x1="200" y1="100" x2="201" y2="61" stroke="#aaff00" stroke-width="2"/>
</g>
<g>
	<polygon points="186,9 193,14 185,18" fill="#aaff00"/>
	<line x1="202" y1="50" x2="189" y2="15" stroke="#aaff00" stroke-width="2"/>
</g>
<g>
	<polygon points="215,190 206,192 209,184" fill="#aaff00"/>
	<line x1="102" y1="158" x2="208" y2="188" stroke="#aaff00" stroke-width="2"/>
</g>
<g>
	<polygon points="99,154 92,149 100,145" fill="#aaff00"/>
	<line x1="64" y1="85" x2="96" y2="147" stroke="#aaff00" stroke-width="2"/>
</g>
<g>
	<polygon points="90,19 91,28 83,24" fill="#aaff00"/>
	<line x1="64" y1="85" x2="87" y2="25" stroke="#aaff00" stroke-width="2"/>
</g>
<g>
	<polygon points="180,5 173,10 172,1" fill="#aaff00"/>
	<line x1="92" y1="15" x2="173" y2="6" stroke="#aaff00" stroke-width="2"/>
</g>
<g>
	<polygon points="215,190 206,192 209,183" fill="#aaff00"/>
	<line x1="156" y1="169" x2="208" y2="188" stroke="#aaff00" stroke-width="2"/>
</g>
<g>
	<polygon points="154,164 147,159 155,155" fill="#aaff00"/>
	<line x1="129" y1="102" x2="151" y2="158" stroke="#aaff00" stroke-width="2"/>
</g>
<g>
	<polygon points="138,45 141,53 132,52" fill="#aaff00"/>
	<line x1="129" y1="102" x2="137" y2="52" stroke="#aaff00" stroke-width="2"/>
</g>
<g>
	<polygon points="181,7 178,16 172,9" fill="#aaff00"/>
	<line x1="139" y1="41" x2="175" y2="12" stroke="#aaff00" stroke-width="2"/>
</g>
<g>
	<polygon points="220,196 226,203 217,204" fill="#aaff00"/>
	<line x1="230" y1="257" x2="221" y2="203" stroke="#aaff00" stroke-width="2"/>
</g>
<g>
	<polygon points="232,260 241,263 234,269" fill="#aaff00"/>
	<line x1="261" y1="295" x2="237" y2="266" stroke="#aaff00" stroke-width="2"/>
</g>
<g>
	<polygon points="224,189 228,182 232,190" fill="#aaff00"/>
	<line x1="320" y1="141" x2="230" y2="186" stroke="#aaff00" stroke-width="2"/>
</g>
<g>
	<polygon points="321,136 319,127 328,130" fill="#aaff00"/>
	<line x1="345" y1="67" x2="323" y2="129" stroke="#aaff00" stroke-width="2"/>
</g>
<g>
	<polygon points="300,10 309,13 302,19" fill="#aaff00"/>
	<line x1="345" y1="67" x2="305" y2="16" stroke="#aaff00" stroke-width="2"/>
</g>
<g>
	<polygon points="189,5 197,0 197,9" fill="#aaff00"/>
	<line x1="298" y1="7" x2="196" y2="5" stroke="#aaff00" stroke-width="2"/>
</g>
<g>
	<polygon points="57,293 64,288 65,296" fill="#aaff00"/>
	<line x1="110" y1="287" x2="64" y2="292" stroke="#aaff00" stroke-width="2"/>
</g>

<g fill="#000000">
	<circle cx="184" cy="4" r="4"/>
</g>
<g fill="#000000">
	<circle cx="52" cy="293" r="4"/>
</g>
<g fill="#000000">
	<circle cx="219" cy="191" r="4"/>
</g>
<g fill="#000000">
	<circle cx="109" cy="286" r="4"/>
</g>
<g fill="#000000">
	<circle cx="159" cy="250" r="4"/>
</g>
<g fill="#000000">
	<circle cx="347" cy="247" r="4"/>
</g>
<g fill="#000000">
	<circle cx="294" cy="219" r="4"/>
</g>
<g fill="#000000">
	<circle cx="271" cy="68" r="4"/>
</g>
<g fill="#000000">
	<circle cx="262" cy="133" r="4"/>
</g>
<g fill="#000000">
	<circle cx="239" cy="5" r="4"/>
</g>
<g fill="#000000">
	<circle cx="199" cy="99" r="4"/>
</g>
<g fill="#000000">
	<circle cx="207" cy="147" r="4"/>
</g>
<g fill="#000000">
	<circle cx="201" cy="49" r="4"/>
</g>
<g fill="#000000">
	<circle cx="63" cy="84" r="4"/>
</g>
<g fill="#000000">
	<circle cx="101" cy="157" r="4"/>
</g>
<g fill="#000000">
	<circle cx="91" cy="14" r="4"/>
</g>
<g fill="#000000">
	<circle cx="128" cy="101" r="4"/>
</g>
<g fill="#000000">
	<circle cx="155" cy="168" r="4"/>
</g>
<g fill="#000000">
	<circle cx="138" cy="40" r="4"/>
</g>
<g fill="#000000">
	<circle cx="260" cy="294" r="4"/>
</g>
<g fill="#000000">
	<circle cx="229" cy="256" r="4"/>
</g>
<g fill="#000000">
	<circle cx="344" cy="66" r="4"/>
</g>
<g fill="#000000">
	<circle cx="319" cy="140" r="4"/>
</g>
<g fill="#000000">
	<circle cx="297" cy="6" r="4"/>
</g>

</g>

</svg>
