<?xml version="1.0" encoding="utf-8"?>
<!-- Created with Hypercube (http://tumic.wz.cz/hypercube) -->

<svg width="400" height="300" viewBox="0 0 400 300" xmlns="http://www.w3.org/2000/svg" baseProfile="tiny">

<g font-family="Helvetica" font-weight="normal">

<g>
	<polygon points="223,192 215,195 216,186" fill="#aaff00"/>
	<line x1="161" y1="182" x2="216" y2="191" stroke="#aaff00" stroke-width="2"/>
</g>
<g>
	<polygon points="229,197 237,202 228,206" fill="#aaff00"/>
	<line x1="254" y1="251" x2="232" y2="203" stroke="#aaff00" stroke-width="2"/>
</g>
<g>
	<polygon points="226,188 220,182 229,179" fill="#aaff00"/>
	<line x1="215" y1="140" x2="225" y2="181" stroke="#aaff00" stroke-width="2"/>
</g>
<g>
	<polygon points="302,151 294,154 295,145" fill="#aaff00"/>
	<line x1="215" y1="140" x2="295" y2="150" stroke="#aaff00" stroke-width="2"/>
</g>
<g>
	<polygon points="265,132 274,132 270,140" fill="#aaff00"/>
	<line x1="307" y1="152" x2="271" y2="135" stroke="#aaff00" stroke-width="2"/>
</g>
<g>
	<polygon points="230,189 229,180 237,184" fill="#aaff00"/>
	<line x1="261" y1="131" x2="233" y2="182" stroke="#aaff00" stroke-width="2"/>
</g>
<g>
	<polygon points="161,177 157,169 166,170" fill="#aaff00"/>
	<line x1="169" y1="65" x2="161" y2="170" stroke="#aaff00" stroke-width="2"/>
</g>
<g>
	<polygon points="166,100 162,92 171,93" fill="#aaff00"/>
	<line x1="169" y1="65" x2="166" y2="93" stroke="#aaff00" stroke-width="2"/>
</g>
<g>
	<polygon points="212,136 204,131 212,127" fill="#aaff00"/>
	<line x1="169" y1="65" x2="208" y2="130" stroke="#aaff00" stroke-width="2"/>
</g>
<g>
	<polygon points="80,24 89,23 85,32" fill="#aaff00"/>
	<line x1="169" y1="65" x2="86" y2="27" stroke="#aaff00" stroke-width="2"/>
</g>
<g>
	<polygon points="116,103 120,95 125,102" fill="#aaff00"/>
	<line x1="169" y1="65" x2="122" y2="99" stroke="#aaff00" stroke-width="2"/>
</g>
<g>
	<polygon points="45,81 52,75 53,84" fill="#aaff00"/>
	<line x1="169" y1="65" x2="52" y2="80" stroke="#aaff00" stroke-width="2"/>
</g>
<g>
	<polygon points="99,137 101,129 107,135" fill="#aaff00"/>
	<line x1="169" y1="65" x2="104" y2="132" stroke="#aaff00" stroke-width="2"/>
</g>
<g>
	<polygon points="128,70 135,64 136,73" fill="#aaff00"/>
	<line x1="169" y1="65" x2="135" y2="69" stroke="#aaff00" stroke-width="2"/>
</g>
<g>
	<polygon points="251,48 244,54 243,45" fill="#aaff00"/>
	<line x1="169" y1="65" x2="244" y2="50" stroke="#aaff00" stroke-width="2"/>
</g>
<g>
	<polygon points="257,128 248,127 253,120" fill="#aaff00"/>
	<line x1="169" y1="65" x2="251" y2="124" stroke="#aaff00" stroke-width="2"/>
</g>
<g>
	<polygon points="168,9 172,17 163,17" fill="#aaff00"/>
	<line x1="169" y1="65" x2="168" y2="16" stroke="#aaff00" stroke-width="2"/>
</g>
<g>
	<polygon points="211,137 202,136 207,129" fill="#aaff00"/>
	<line x1="166" y1="105" x2="205" y2="133" stroke="#aaff00" stroke-width="2"/>
</g>
<g>
	<polygon points="161,103 152,105 155,96" fill="#aaff00"/>
	<line x1="80" y1="77" x2="154" y2="101" stroke="#aaff00" stroke-width="2"/>
</g>
<g>
	<polygon points="79,72 74,65 83,64" fill="#aaff00"/>
	<line x1="76" y1="23" x2="79" y2="65" stroke="#aaff00" stroke-width="2"/>
</g>
<g>
	<polygon points="83,79 92,81 86,88" fill="#aaff00"/>
	<line x1="113" y1="106" x2="88" y2="84" stroke="#aaff00" stroke-width="2"/>
</g>
<g>
	<polygon points="159,177 153,171 161,168" fill="#aaff00"/>
	<line x1="148" y1="139" x2="157" y2="170" stroke="#aaff00" stroke-width="2"/>
</g>
<g>
	<polygon points="163,108 164,117 156,113" fill="#aaff00"/>
	<line x1="148" y1="139" x2="160" y2="115" stroke="#aaff00" stroke-width="2"/>
</g>
<g>
	<polygon points="116,109 125,111 118,117" fill="#aaff00"/>
	<line x1="148" y1="139" x2="121" y2="114" stroke="#aaff00" stroke-width="2"/>
</g>
<g>
	<polygon points="100,140 108,136 108,145" fill="#aaff00"/>
	<line x1="148" y1="139" x2="107" y2="140" stroke="#aaff00" stroke-width="2"/>
</g>
<g>
	<polygon points="125,75 132,81 123,84" fill="#aaff00"/>
	<line x1="148" y1="139" x2="127" y2="82" stroke="#aaff00" stroke-width="2"/>
</g>
<g>
	<polygon points="44,85 52,87 46,94" fill="#aaff00"/>
	<line x1="96" y1="141" x2="48" y2="90" stroke="#aaff00" stroke-width="2"/>
</g>
<g>
	<polygon points="75,77 68,83 67,74" fill="#aaff00"/>
	<line x1="41" y1="82" x2="68" y2="78" stroke="#aaff00" stroke-width="2"/>
</g>
<g>
	<polygon points="156,182 148,186 148,177" fill="#aaff00"/>
	<line x1="79" y1="182" x2="149" y2="182" stroke="#aaff00" stroke-width="2"/>
</g>
<g>
	<polygon points="94,145 95,154 87,150" fill="#aaff00"/>
	<line x1="79" y1="182" x2="91" y2="151" stroke="#aaff00" stroke-width="2"/>
</g>
<g>
	<polygon points="122,75 123,84 115,80" fill="#aaff00"/>
	<line x1="79" y1="182" x2="119" y2="81" stroke="#aaff00" stroke-width="2"/>
</g>
<g>
	<polygon points="123,66 119,58 128,58" fill="#aaff00"/>
	<line x1="123" y1="5" x2="123" y2="59" stroke="#aaff00" stroke-width="2"/>
</g>
<g>
	<polygon points="127,5 135,0 135,9" fill="#aaff00"/>
	<line x1="168" y1="5" x2="134" y2="5" stroke="#aaff00" stroke-width="2"/>
</g>
<g>
	<polygon points="76,185 76,194 68,190" fill="#aaff00"/>
	<line x1="44" y1="239" x2="72" y2="191" stroke="#aaff00" stroke-width="2"/>
</g>
<g>
	<polygon points="43,243 46,251 37,250" fill="#aaff00"/>
	<line x1="35" y1="295" x2="42" y2="250" stroke="#aaff00" stroke-width="2"/>
</g>
<g>
	<polygon points="151,136 155,128 160,135" fill="#aaff00"/>
	<line x1="222" y1="85" x2="157" y2="132" stroke="#aaff00" stroke-width="2"/>
</g>
<g>
	<polygon points="225,81 227,72 233,78" fill="#aaff00"/>
	<line x1="256" y1="48" x2="229" y2="76" stroke="#aaff00" stroke-width="2"/>
</g>
<g>
	<polygon points="171,61 173,52 180,58" fill="#aaff00"/>
	<line x1="222" y1="5" x2="176" y2="56" stroke="#aaff00" stroke-width="2"/>
</g>
<g>
	<polygon points="311,153 320,150 317,159" fill="#aaff00"/>
	<line x1="365" y1="166" x2="318" y2="154" stroke="#aaff00" stroke-width="2"/>
</g>

<g fill="#000000">
	<circle cx="160" cy="181" r="4"/>
</g>
<g fill="#000000">
	<circle cx="227" cy="192" r="4"/>
</g>
<g fill="#000000">
	<circle cx="253" cy="250" r="4"/>
</g>
<g fill="#000000">
	<circle cx="79" cy="76" r="4"/>
</g>
<g fill="#000000">
	<circle cx="165" cy="104" r="4"/>
</g>
<g fill="#000000">
	<circle cx="214" cy="139" r="4"/>
</g>
<g fill="#000000">
	<circle cx="306" cy="151" r="4"/>
</g>
<g fill="#000000">
	<circle cx="75" cy="22" r="4"/>
</g>
<g fill="#000000">
	<circle cx="112" cy="105" r="4"/>
</g>
<g fill="#000000">
	<circle cx="40" cy="81" r="4"/>
</g>
<g fill="#000000">
	<circle cx="34" cy="294" r="4"/>
</g>
<g fill="#000000">
	<circle cx="43" cy="238" r="4"/>
</g>
<g fill="#000000">
	<circle cx="78" cy="181" r="4"/>
</g>
<g fill="#000000">
	<circle cx="95" cy="140" r="4"/>
</g>
<g fill="#000000">
	<circle cx="123" cy="70" r="4"/>
</g>
<g fill="#000000">
	<circle cx="255" cy="47" r="4"/>
</g>
<g fill="#000000">
	<circle cx="221" cy="84" r="4"/>
</g>
<g fill="#000000">
	<circle cx="147" cy="138" r="4"/>
</g>
<g fill="#000000">
	<circle cx="364" cy="165" r="4"/>
</g>
<g fill="#000000">
	<circle cx="260" cy="130" r="4"/>
</g>
<g fill="#000000">
	<circle cx="122" cy="4" r="4"/>
</g>
<g fill="#000000">
	<circle cx="168" cy="64" r="4"/>
</g>
<g fill="#000000">
	<circle cx="167" cy="4" r="4"/>
</g>
<g fill="#000000">
	<circle cx="221" cy="4" r="4"/>
</g>

</g>

</svg>
