<?xml version="1.0" encoding="utf-8"?>
<!-- Created with Hypercube (http://tumic.wz.cz/hypercube) -->

<svg width="400" height="300" viewBox="0 0 400 300" xmlns="http://www.w3.org/2000/svg" baseProfile="tiny">

<g font-family="Helvetica" font-weight="normal">

<g>
	<polygon points="323,295 331,290 331,299" fill="#aaff00"/>
	<line x1="378" y1="295" x2="330" y2="295" stroke="#aaff00" stroke-width="2"/>
</g>
<g>
	<polygon points="256,295 264,290 264,299" fill="#aaff00"/>
	<line x1="319" y1="295" x2="263" y2="295" stroke="#aaff00" stroke-width="2"/>
</g>
<g>
	<polygon points="190,258 199,258 195,266" fill="#aaff00"/>
	<line x1="252" y1="295" x2="197" y2="262" stroke="#aaff00" stroke-width="2"/>
</g>
<g>
	<polygon points="150,291 152,283 158,289" fill="#aaff00"/>
	<line x1="187" y1="256" x2="155" y2="286" stroke="#aaff00" stroke-width="2"/>
</g>
<g>
	<polygon points="222,234 217,242 213,234" fill="#aaff00"/>
	<line x1="187" y1="256" x2="216" y2="238" stroke="#aaff00" stroke-width="2"/>
</g>
<g>
	<polygon points="118,224 127,223 123,232" fill="#aaff00"/>
	<line x1="187" y1="256" x2="124" y2="227" stroke="#aaff00" stroke-width="2"/>
</g>
<g>
	<polygon points="231,181 231,190 223,186" fill="#aaff00"/>
	<line x1="187" y1="256" x2="227" y2="188" stroke="#aaff00" stroke-width="2"/>
</g>
<g>
	<polygon points="166,203 175,203 171,211" fill="#aaff00"/>
	<line x1="226" y1="232" x2="172" y2="206" stroke="#aaff00" stroke-width="2"/>
</g>
<g>
	<polygon points="285,223 278,229 277,220" fill="#aaff00"/>
	<line x1="226" y1="232" x2="278" y2="224" stroke="#aaff00" stroke-width="2"/>
</g>
<g>
	<polygon points="118,221 123,213 127,222" fill="#aaff00"/>
	<line x1="162" y1="202" x2="124" y2="218" stroke="#aaff00" stroke-width="2"/>
</g>
<g>
	<polygon points="55,188 64,188 60,196" fill="#aaff00"/>
	<line x1="114" y1="223" x2="62" y2="191" stroke="#aaff00" stroke-width="2"/>
</g>
<g>
	<polygon points="24,130 32,135 24,139" fill="#aaff00"/>
	<line x1="52" y1="186" x2="28" y2="136" stroke="#aaff00" stroke-width="2"/>
</g>
<g>
	<polygon points="24,59 29,67 20,67" fill="#aaff00"/>
	<line x1="23" y1="126" x2="24" y2="66" stroke="#aaff00" stroke-width="2"/>
</g>
<g>
	<polygon points="58,94 55,103 49,96" fill="#aaff00"/>
	<line x1="23" y1="126" x2="53" y2="99" stroke="#aaff00" stroke-width="2"/>
</g>
<g>
	<polygon points="77,15 73,23 68,16" fill="#aaff00"/>
	<line x1="25" y1="55" x2="71" y2="20" stroke="#aaff00" stroke-width="2"/>
</g>
<g>
	<polygon points="106,57 98,52 106,48" fill="#aaff00"/>
	<line x1="81" y1="13" x2="103" y2="50" stroke="#aaff00" stroke-width="2"/>
</g>
<g>
	<polygon points="146,5 139,10 138,1" fill="#aaff00"/>
	<line x1="81" y1="13" x2="139" y2="6" stroke="#aaff00" stroke-width="2"/>
</g>
<g>
	<polygon points="28,58 36,60 30,66" fill="#aaff00"/>
	<line x1="62" y1="92" x2="33" y2="63" stroke="#aaff00" stroke-width="2"/>
</g>
<g>
	<polygon points="105,63 101,71 96,64" fill="#aaff00"/>
	<line x1="62" y1="92" x2="99" y2="67" stroke="#aaff00" stroke-width="2"/>
</g>
<g>
	<polygon points="113,60 120,54 121,63" fill="#aaff00"/>
	<line x1="167" y1="52" x2="120" y2="59" stroke="#aaff00" stroke-width="2"/>
</g>
<g>
	<polygon points="215,27 210,34 206,26" fill="#aaff00"/>
	<line x1="167" y1="52" x2="208" y2="30" stroke="#aaff00" stroke-width="2"/>
</g>
<g>
	<polygon points="262,6 257,13 253,5" fill="#aaff00"/>
	<line x1="219" y1="25" x2="256" y2="9" stroke="#aaff00" stroke-width="2"/>
</g>
<g>
	<polygon points="296,47 287,49 290,41" fill="#aaff00"/>
	<line x1="219" y1="25" x2="289" y2="45" stroke="#aaff00" stroke-width="2"/>
</g>
<g>
	<polygon points="354,41 347,47 346,38" fill="#aaff00"/>
	<line x1="301" y1="49" x2="347" y2="42" stroke="#aaff00" stroke-width="2"/>
</g>
<g>
	<polygon points="214,23 205,25 208,17" fill="#aaff00"/>
	<line x1="151" y1="5" x2="207" y2="21" stroke="#aaff00" stroke-width="2"/>
</g>
<g>
	<polygon points="165,47 158,41 167,38" fill="#aaff00"/>
	<line x1="151" y1="5" x2="163" y2="40" stroke="#aaff00" stroke-width="2"/>
</g>
<g>
	<polygon points="296,176 299,184 290,183" fill="#aaff00"/>
	<line x1="290" y1="223" x2="295" y2="183" stroke="#aaff00" stroke-width="2"/>
</g>
<g>
	<polygon points="292,172 285,177 284,168" fill="#aaff00"/>
	<line x1="234" y1="178" x2="285" y2="173" stroke="#aaff00" stroke-width="2"/>
</g>
<g>
	<polygon points="224,128 230,135 221,136" fill="#aaff00"/>
	<line x1="234" y1="178" x2="226" y2="135" stroke="#aaff00" stroke-width="2"/>
</g>

<g fill="#000000">
	<circle cx="377" cy="294" r="4"/>
</g>
<g fill="#000000">
	<circle cx="318" cy="294" r="4"/>
</g>
<g fill="#000000">
	<circle cx="251" cy="294" r="4"/>
</g>
<g fill="#000000">
	<circle cx="186" cy="255" r="4"/>
</g>
<g fill="#000000">
	<circle cx="146" cy="294" r="4"/>
</g>
<g fill="#000000">
	<circle cx="225" cy="231" r="4"/>
</g>
<g fill="#000000">
	<circle cx="113" cy="222" r="4"/>
</g>
<g fill="#000000">
	<circle cx="233" cy="177" r="4"/>
</g>
<g fill="#000000">
	<circle cx="161" cy="201" r="4"/>
</g>
<g fill="#000000">
	<circle cx="289" cy="222" r="4"/>
</g>
<g fill="#000000">
	<circle cx="51" cy="185" r="4"/>
</g>
<g fill="#000000">
	<circle cx="296" cy="171" r="4"/>
</g>
<g fill="#000000">
	<circle cx="223" cy="123" r="4"/>
</g>
<g fill="#000000">
	<circle cx="22" cy="125" r="4"/>
</g>
<g fill="#000000">
	<circle cx="24" cy="54" r="4"/>
</g>
<g fill="#000000">
	<circle cx="61" cy="91" r="4"/>
</g>
<g fill="#000000">
	<circle cx="80" cy="12" r="4"/>
</g>
<g fill="#000000">
	<circle cx="108" cy="60" r="4"/>
</g>
<g fill="#000000">
	<circle cx="150" cy="4" r="4"/>
</g>
<g fill="#000000">
	<circle cx="218" cy="24" r="4"/>
</g>
<g fill="#000000">
	<circle cx="166" cy="51" r="4"/>
</g>
<g fill="#000000">
	<circle cx="266" cy="4" r="4"/>
</g>
<g fill="#000000">
	<circle cx="300" cy="48" r="4"/>
</g>
<g fill="#000000">
	<circle cx="358" cy="40" r="4"/>
</g>

</g>

</svg>
