<?xml version="1.0" encoding="utf-8"?>
<!-- Created with Hypercube (http://tumic.wz.cz/hypercube) -->

<svg width="400" height="300" viewBox="0 0 400 300" xmlns="http://www.w3.org/2000/svg" baseProfile="tiny">

<g font-family="Helvetica" font-weight="normal">

<g>
	<polygon points="301,203 293,208 293,199" fill="#aaff00"/>
	<line x1="249" y1="206" x2="294" y2="203" stroke="#aaff00" stroke-width="2"/>
</g>
<g>
	<polygon points="176,153 185,154 180,161" fill="#aaff00"/>
	<line x1="249" y1="206" x2="182" y2="157" stroke="#aaff00" stroke-width="2"/>
</g>
<g>
	<polygon points="303,259 295,257 301,251" fill="#aaff00"/>
	<line x1="249" y1="206" x2="298" y2="254" stroke="#aaff00" stroke-width="2"/>
</g>
<g>
	<polygon points="283,139 284,148 276,144" fill="#aaff00"/>
	<line x1="249" y1="206" x2="280" y2="146" stroke="#aaff00" stroke-width="2"/>
</g>
<g>
	<polygon points="188,227 194,220 197,229" fill="#aaff00"/>
	<line x1="249" y1="206" x2="195" y2="225" stroke="#aaff00" stroke-width="2"/>
</g>
<g>
	<polygon points="243,266 239,258 248,259" fill="#aaff00"/>
	<line x1="249" y1="206" x2="244" y2="259" stroke="#aaff00" stroke-width="2"/>
</g>
<g>
	<polygon points="84,97 93,97 89,105" fill="#aaff00"/>
	<line x1="173" y1="151" x2="90" y2="101" stroke="#aaff00" stroke-width="2"/>
</g>
<g>
	<polygon points="41,38 49,42 42,47" fill="#aaff00"/>
	<line x1="81" y1="95" x2="45" y2="44" stroke="#aaff00" stroke-width="2"/>
</g>
<g>
	<polygon points="90,147 84,140 93,139" fill="#aaff00"/>
	<line x1="81" y1="95" x2="88" y2="140" stroke="#aaff00" stroke-width="2"/>
</g>
<g>
	<polygon points="101,32 103,41 94,38" fill="#aaff00"/>
	<line x1="81" y1="95" x2="99" y2="39" stroke="#aaff00" stroke-width="2"/>
</g>
<g>
	<polygon points="29,140 32,131 38,138" fill="#aaff00"/>
	<line x1="81" y1="95" x2="34" y2="135" stroke="#aaff00" stroke-width="2"/>
</g>
<g>
	<polygon points="15,86 23,83 22,92" fill="#aaff00"/>
	<line x1="81" y1="95" x2="22" y2="87" stroke="#aaff00" stroke-width="2"/>
</g>
<g>
	<polygon points="131,80 125,86 122,78" fill="#aaff00"/>
	<line x1="81" y1="95" x2="124" y2="82" stroke="#aaff00" stroke-width="2"/>
</g>
<g>
	<polygon points="326,63 326,72 319,68" fill="#aaff00"/>
	<line x1="286" y1="136" x2="323" y2="70" stroke="#aaff00" stroke-width="2"/>
</g>
<g>
	<polygon points="357,116 350,111 358,107" fill="#aaff00"/>
	<line x1="329" y1="60" x2="354" y2="109" stroke="#aaff00" stroke-width="2"/>
</g>
<g>
	<polygon points="273,9 282,10 276,17" fill="#aaff00"/>
	<line x1="329" y1="60" x2="278" y2="13" stroke="#aaff00" stroke-width="2"/>
</g>
<g>
	<polygon points="386,14 383,23 377,16" fill="#aaff00"/>
	<line x1="329" y1="60" x2="380" y2="19" stroke="#aaff00" stroke-width="2"/>
</g>
<g>
	<polygon points="278,69 285,63 286,72" fill="#aaff00"/>
	<line x1="329" y1="60" x2="285" y2="67" stroke="#aaff00" stroke-width="2"/>
</g>
<g>
	<polygon points="386,71 378,74 379,65" fill="#aaff00"/>
	<line x1="329" y1="60" x2="379" y2="69" stroke="#aaff00" stroke-width="2"/>
</g>
<g>
	<polygon points="331,9 335,17 326,17" fill="#aaff00"/>
	<line x1="329" y1="60" x2="331" y2="16" stroke="#aaff00" stroke-width="2"/>
</g>
<g>
	<polygon points="127,245 133,239 136,247" fill="#aaff00"/>
	<line x1="184" y1="229" x2="134" y2="243" stroke="#aaff00" stroke-width="2"/>
</g>
<g>
	<polygon points="130,290 124,283 133,282" fill="#aaff00"/>
	<line x1="123" y1="247" x2="129" y2="283" stroke="#aaff00" stroke-width="2"/>
</g>
<g>
	<polygon points="67,264 73,257 76,266" fill="#aaff00"/>
	<line x1="123" y1="247" x2="74" y2="262" stroke="#aaff00" stroke-width="2"/>
</g>

<g fill="#000000">
	<circle cx="248" cy="205" r="4"/>
</g>
<g fill="#000000">
	<circle cx="305" cy="202" r="4"/>
</g>
<g fill="#000000">
	<circle cx="172" cy="150" r="4"/>
</g>
<g fill="#000000">
	<circle cx="306" cy="262" r="4"/>
</g>
<g fill="#000000">
	<circle cx="285" cy="135" r="4"/>
</g>
<g fill="#000000">
	<circle cx="183" cy="228" r="4"/>
</g>
<g fill="#000000">
	<circle cx="242" cy="270" r="4"/>
</g>
<g fill="#000000">
	<circle cx="80" cy="94" r="4"/>
</g>
<g fill="#000000">
	<circle cx="328" cy="59" r="4"/>
</g>
<g fill="#000000">
	<circle cx="122" cy="246" r="4"/>
</g>
<g fill="#000000">
	<circle cx="38" cy="34" r="4"/>
</g>
<g fill="#000000">
	<circle cx="90" cy="151" r="4"/>
</g>
<g fill="#000000">
	<circle cx="102" cy="27" r="4"/>
</g>
<g fill="#000000">
	<circle cx="25" cy="142" r="4"/>
</g>
<g fill="#000000">
	<circle cx="10" cy="85" r="4"/>
</g>
<g fill="#000000">
	<circle cx="135" cy="78" r="4"/>
</g>
<g fill="#000000">
	<circle cx="130" cy="294" r="4"/>
</g>
<g fill="#000000">
	<circle cx="62" cy="265" r="4"/>
</g>
<g fill="#000000">
	<circle cx="359" cy="119" r="4"/>
</g>
<g fill="#000000">
	<circle cx="269" cy="5" r="4"/>
</g>
<g fill="#000000">
	<circle cx="389" cy="11" r="4"/>
</g>
<g fill="#000000">
	<circle cx="273" cy="69" r="4"/>
</g>
<g fill="#000000">
	<circle cx="390" cy="71" r="4"/>
</g>
<g fill="#000000">
	<circle cx="331" cy="4" r="4"/>
</g>

</g>

</svg>
