<?xml version="1.0" encoding="utf-8"?>
<!-- Created with Hypercube (http://tumic.wz.cz/hypercube) -->

<svg width="400" height="300" viewBox="0 0 400 300" xmlns="http://www.w3.org/2000/svg" baseProfile="tiny">

<g font-family="Helvetica" font-weight="normal">

<g>
	<polygon points="191,236 193,227 200,233" fill="#aaff00"/>
	<line x1="230" y1="193" x2="196" y2="231" stroke="#aaff00" stroke-width="2"/>
</g>
<g>
	<polygon points="149,290 150,281 158,287" fill="#aaff00"/>
	<line x1="189" y1="240" x2="154" y2="284" stroke="#aaff00" stroke-width="2"/>
</g>
<g>
	<polygon points="142,293 134,296 135,287" fill="#aaff00"/>
	<line x1="93" y1="284" x2="135" y2="291" stroke="#aaff00" stroke-width="2"/>
</g>
<g>
	<polygon points="41,294 48,288 49,297" fill="#aaff00"/>
	<line x1="93" y1="284" x2="48" y2="292" stroke="#aaff00" stroke-width="2"/>
</g>
<g>
	<polygon points="95,280 95,271 103,275" fill="#aaff00"/>
	<line x1="126" y1="229" x2="99" y2="273" stroke="#aaff00" stroke-width="2"/>
</g>
<g>
	<polygon points="208,289 199,288 204,281" fill="#aaff00"/>
	<line x1="126" y1="229" x2="202" y2="285" stroke="#aaff00" stroke-width="2"/>
</g>
<g>
	<polygon points="71,216 80,213 77,222" fill="#aaff00"/>
	<line x1="126" y1="229" x2="78" y2="217" stroke="#aaff00" stroke-width="2"/>
</g>
<g>
	<polygon points="266,294 258,298 258,289" fill="#aaff00"/>
	<line x1="212" y1="292" x2="259" y2="294" stroke="#aaff00" stroke-width="2"/>
</g>
<g>
	<polygon points="185,159 176,161 179,153" fill="#aaff00"/>
	<line x1="144" y1="148" x2="178" y2="157" stroke="#aaff00" stroke-width="2"/>
</g>
<g>
	<polygon points="126,224 124,216 133,217" fill="#aaff00"/>
	<line x1="144" y1="148" x2="128" y2="217" stroke="#aaff00" stroke-width="2"/>
</g>
<g>
	<polygon points="137,102 143,109 134,110" fill="#aaff00"/>
	<line x1="144" y1="148" x2="138" y2="109" stroke="#aaff00" stroke-width="2"/>
</g>
<g>
	<polygon points="226,190 217,188 223,181" fill="#aaff00"/>
	<line x1="190" y1="161" x2="220" y2="185" stroke="#aaff00" stroke-width="2"/>
</g>
<g>
	<polygon points="77,101 84,96 85,105" fill="#aaff00"/>
	<line x1="137" y1="98" x2="84" y2="101" stroke="#aaff00" stroke-width="2"/>
</g>
<g>
	<polygon points="252,130 243,132 246,124" fill="#aaff00"/>
	<line x1="137" y1="98" x2="245" y2="128" stroke="#aaff00" stroke-width="2"/>
</g>
<g>
	<polygon points="104,46 112,50 104,55" fill="#aaff00"/>
	<line x1="137" y1="98" x2="108" y2="52" stroke="#aaff00" stroke-width="2"/>
</g>
<g>
	<polygon points="231,188 230,179 239,183" fill="#aaff00"/>
	<line x1="257" y1="132" x2="234" y2="182" stroke="#aaff00" stroke-width="2"/>
</g>
<g>
	<polygon points="246,69 252,76 243,77" fill="#aaff00"/>
	<line x1="257" y1="132" x2="247" y2="76" stroke="#aaff00" stroke-width="2"/>
</g>
<g>
	<polygon points="290,184 282,180 290,175" fill="#aaff00"/>
	<line x1="257" y1="132" x2="286" y2="178" stroke="#aaff00" stroke-width="2"/>
</g>
<g>
	<polygon points="300,107 295,115 291,107" fill="#aaff00"/>
	<line x1="257" y1="132" x2="293" y2="110" stroke="#aaff00" stroke-width="2"/>
</g>
<g>
	<polygon points="340,148 332,151 333,142" fill="#aaff00"/>
	<line x1="257" y1="132" x2="333" y2="146" stroke="#aaff00" stroke-width="2"/>
</g>
<g>
	<polygon points="276,20 275,29 268,24" fill="#aaff00"/>
	<line x1="246" y1="65" x2="272" y2="26" stroke="#aaff00" stroke-width="2"/>
</g>
<g>
	<polygon points="328,36 319,37 323,29" fill="#aaff00"/>
	<line x1="279" y1="17" x2="322" y2="33" stroke="#aaff00" stroke-width="2"/>
</g>
<g>
	<polygon points="361,8 359,16 353,10" fill="#aaff00"/>
	<line x1="333" y1="38" x2="356" y2="13" stroke="#aaff00" stroke-width="2"/>
</g>
<g>
	<polygon points="146,144 146,135 154,139" fill="#aaff00"/>
	<line x1="188" y1="72" x2="149" y2="137" stroke="#aaff00" stroke-width="2"/>
</g>
<g>
	<polygon points="241,65 234,70 233,62" fill="#aaff00"/>
	<line x1="188" y1="72" x2="234" y2="66" stroke="#aaff00" stroke-width="2"/>
</g>
<g>
	<polygon points="179,15 185,22 176,23" fill="#aaff00"/>
	<line x1="188" y1="72" x2="180" y2="22" stroke="#aaff00" stroke-width="2"/>
</g>

<g fill="#000000">
	<circle cx="229" cy="192" r="4"/>
</g>
<g fill="#000000">
	<circle cx="188" cy="239" r="4"/>
</g>
<g fill="#000000">
	<circle cx="146" cy="293" r="4"/>
</g>
<g fill="#000000">
	<circle cx="92" cy="283" r="4"/>
</g>
<g fill="#000000">
	<circle cx="36" cy="294" r="4"/>
</g>
<g fill="#000000">
	<circle cx="189" cy="160" r="4"/>
</g>
<g fill="#000000">
	<circle cx="211" cy="291" r="4"/>
</g>
<g fill="#000000">
	<circle cx="270" cy="294" r="4"/>
</g>
<g fill="#000000">
	<circle cx="143" cy="147" r="4"/>
</g>
<g fill="#000000">
	<circle cx="125" cy="228" r="4"/>
</g>
<g fill="#000000">
	<circle cx="136" cy="97" r="4"/>
</g>
<g fill="#000000">
	<circle cx="66" cy="214" r="4"/>
</g>
<g fill="#000000">
	<circle cx="72" cy="101" r="4"/>
</g>
<g fill="#000000">
	<circle cx="256" cy="131" r="4"/>
</g>
<g fill="#000000">
	<circle cx="101" cy="42" r="4"/>
</g>
<g fill="#000000">
	<circle cx="245" cy="64" r="4"/>
</g>
<g fill="#000000">
	<circle cx="278" cy="16" r="4"/>
</g>
<g fill="#000000">
	<circle cx="332" cy="37" r="4"/>
</g>
<g fill="#000000">
	<circle cx="364" cy="4" r="4"/>
</g>
<g fill="#000000">
	<circle cx="292" cy="187" r="4"/>
</g>
<g fill="#000000">
	<circle cx="303" cy="104" r="4"/>
</g>
<g fill="#000000">
	<circle cx="344" cy="148" r="4"/>
</g>
<g fill="#000000">
	<circle cx="187" cy="71" r="4"/>
</g>
<g fill="#000000">
	<circle cx="178" cy="10" r="4"/>
</g>

</g>

</svg>
