<?xml version="1.0" encoding="utf-8"?>
<!-- Created with Hypercube (http://tumic.wz.cz/hypercube) -->

<svg width="400" height="300" viewBox="0 0 400 300" xmlns="http://www.w3.org/2000/svg" baseProfile="tiny">

<g font-family="Helvetica" font-weight="normal">

<g>
	<polygon points="134,206 125,205 130,198" fill="#aaff00"/>
	<line x1="99" y1="181" x2="128" y2="202" stroke="#aaff00" stroke-width="2"/>
</g>
<g>
	<polygon points="129,130 129,139 121,135" fill="#aaff00"/>
	<line x1="99" y1="181" x2="125" y2="136" stroke="#aaff00" stroke-width="2"/>
</g>
<g>
	<polygon points="141,205 143,196 149,203" fill="#aaff00"/>
	<line x1="175" y1="169" x2="145" y2="200" stroke="#aaff00" stroke-width="2"/>
</g>
<g>
	<polygon points="171,165 163,163 169,157" fill="#aaff00"/>
	<line x1="132" y1="127" x2="166" y2="160" stroke="#aaff00" stroke-width="2"/>
</g>
<g>
	<polygon points="128,123 120,121 126,114" fill="#aaff00"/>
	<line x1="89" y1="81" x2="124" y2="118" stroke="#aaff00" stroke-width="2"/>
</g>
<g>
	<polygon points="134,123 134,114 142,119" fill="#aaff00"/>
	<line x1="163" y1="79" x2="138" y2="117" stroke="#aaff00" stroke-width="2"/>
</g>
<g>
	<polygon points="204,60 199,68 195,59" fill="#aaff00"/>
	<line x1="163" y1="79" x2="198" y2="63" stroke="#aaff00" stroke-width="2"/>
</g>
<g>
	<polygon points="186,118 178,113 186,109" fill="#aaff00"/>
	<line x1="163" y1="79" x2="182" y2="111" stroke="#aaff00" stroke-width="2"/>
</g>
<g>
	<polygon points="176,164 174,155 182,158" fill="#aaff00"/>
	<line x1="209" y1="59" x2="178" y2="157" stroke="#aaff00" stroke-width="2"/>
</g>
<g>
	<polygon points="212,55 214,47 220,53" fill="#aaff00"/>
	<line x1="254" y1="12" x2="217" y2="50" stroke="#aaff00" stroke-width="2"/>
</g>
<g>
	<polygon points="206,55 198,51 205,46" fill="#aaff00"/>
	<line x1="173" y1="6" x2="202" y2="49" stroke="#aaff00" stroke-width="2"/>
</g>
<g>
	<polygon points="168,5 160,10 160,1" fill="#aaff00"/>
	<line x1="118" y1="5" x2="161" y2="5" stroke="#aaff00" stroke-width="2"/>
</g>
<g>
	<polygon points="136,126 143,121 144,130" fill="#aaff00"/>
	<line x1="189" y1="122" x2="143" y2="125" stroke="#aaff00" stroke-width="2"/>
</g>
<g>
	<polygon points="246,171 237,169 243,162" fill="#aaff00"/>
	<line x1="189" y1="122" x2="241" y2="166" stroke="#aaff00" stroke-width="2"/>
</g>
<g>
	<polygon points="277,137 276,146 269,141" fill="#aaff00"/>
	<line x1="250" y1="174" x2="272" y2="143" stroke="#aaff00" stroke-width="2"/>
</g>
<g>
	<polygon points="179,167 185,160 188,169" fill="#aaff00"/>
	<line x1="280" y1="134" x2="186" y2="165" stroke="#aaff00" stroke-width="2"/>
</g>
<g>
	<polygon points="284,135 293,132 290,141" fill="#aaff00"/>
	<line x1="341" y1="150" x2="291" y2="136" stroke="#aaff00" stroke-width="2"/>
</g>
<g>
	<polygon points="345,150 353,148 352,156" fill="#aaff00"/>
	<line x1="395" y1="161" x2="352" y2="152" stroke="#aaff00" stroke-width="2"/>
</g>
<g>
	<polygon points="282,130 283,121 291,126" fill="#aaff00"/>
	<line x1="318" y1="84" x2="287" y2="124" stroke="#aaff00" stroke-width="2"/>
</g>
<g>
	<polygon points="252,177 261,180 254,186" fill="#aaff00"/>
	<line x1="289" y1="224" x2="257" y2="183" stroke="#aaff00" stroke-width="2"/>
</g>
<g>
	<polygon points="175,173 180,180 171,181" fill="#aaff00"/>
	<line x1="185" y1="255" x2="176" y2="180" stroke="#aaff00" stroke-width="2"/>
</g>
<g>
	<polygon points="188,258 197,260 190,266" fill="#aaff00"/>
	<line x1="228" y1="295" x2="193" y2="262" stroke="#aaff00" stroke-width="2"/>
</g>
<g>
	<polygon points="181,257 178,266 172,259" fill="#aaff00"/>
	<line x1="137" y1="295" x2="176" y2="262" stroke="#aaff00" stroke-width="2"/>
</g>
<g>
	<polygon points="132,295 124,299 124,290" fill="#aaff00"/>
	<line x1="77" y1="295" x2="125" y2="295" stroke="#aaff00" stroke-width="2"/>
</g>
<g>
	<polygon points="170,168 162,171 163,162" fill="#aaff00"/>
	<line x1="52" y1="145" x2="163" y2="166" stroke="#aaff00" stroke-width="2"/>
</g>
<g>
	<polygon points="48,147 44,156 39,148" fill="#aaff00"/>
	<line x1="5" y1="181" x2="42" y2="152" stroke="#aaff00" stroke-width="2"/>
</g>
<g>
	<polygon points="49,141 40,138 47,132" fill="#aaff00"/>
	<line x1="7" y1="92" x2="44" y2="136" stroke="#aaff00" stroke-width="2"/>
</g>
<g>
	<polygon points="6,87 2,79 11,79" fill="#aaff00"/>
	<line x1="5" y1="34" x2="6" y2="80" stroke="#aaff00" stroke-width="2"/>
</g>

<g fill="#000000">
	<circle cx="98" cy="180" r="4"/>
</g>
<g fill="#000000">
	<circle cx="137" cy="208" r="4"/>
</g>
<g fill="#000000">
	<circle cx="131" cy="126" r="4"/>
</g>
<g fill="#000000">
	<circle cx="174" cy="168" r="4"/>
</g>
<g fill="#000000">
	<circle cx="88" cy="80" r="4"/>
</g>
<g fill="#000000">
	<circle cx="253" cy="11" r="4"/>
</g>
<g fill="#000000">
	<circle cx="208" cy="58" r="4"/>
</g>
<g fill="#000000">
	<circle cx="117" cy="4" r="4"/>
</g>
<g fill="#000000">
	<circle cx="172" cy="5" r="4"/>
</g>
<g fill="#000000">
	<circle cx="227" cy="294" r="4"/>
</g>
<g fill="#000000">
	<circle cx="184" cy="254" r="4"/>
</g>
<g fill="#000000">
	<circle cx="76" cy="294" r="4"/>
</g>
<g fill="#000000">
	<circle cx="136" cy="294" r="4"/>
</g>
<g fill="#000000">
	<circle cx="162" cy="78" r="4"/>
</g>
<g fill="#000000">
	<circle cx="188" cy="121" r="4"/>
</g>
<g fill="#000000">
	<circle cx="249" cy="173" r="4"/>
</g>
<g fill="#000000">
	<circle cx="4" cy="180" r="4"/>
</g>
<g fill="#000000">
	<circle cx="51" cy="144" r="4"/>
</g>
<g fill="#000000">
	<circle cx="4" cy="33" r="4"/>
</g>
<g fill="#000000">
	<circle cx="6" cy="91" r="4"/>
</g>
<g fill="#000000">
	<circle cx="279" cy="133" r="4"/>
</g>
<g fill="#000000">
	<circle cx="394" cy="160" r="4"/>
</g>
<g fill="#000000">
	<circle cx="340" cy="149" r="4"/>
</g>
<g fill="#000000">
	<circle cx="317" cy="83" r="4"/>
</g>
<g fill="#000000">
	<circle cx="288" cy="223" r="4"/>
</g>

</g>

</svg>
