<?xml version="1.0" encoding="utf-8"?>
<!-- Created with Hypercube (http://tumic.wz.cz/hypercube) -->

<svg width="400" height="300" viewBox="0 0 400 300" xmlns="http://www.w3.org/2000/svg" baseProfile="tiny">

<g font-family="Helvetica" font-weight="normal">

<g>
	<polygon points="60,136 66,143 57,144" fill="#aaff00"/>
	<line x1="73" y1="205" x2="62" y2="143" stroke="#aaff00" stroke-width="2"/>
</g>
<g>
	<polygon points="102,241 93,238 100,232" fill="#aaff00"/>
	<line x1="73" y1="205" x2="97" y2="235" stroke="#aaff00" stroke-width="2"/>
</g>
<g>
	<polygon points="18,177 26,176 22,184" fill="#aaff00"/>
	<line x1="73" y1="205" x2="24" y2="180" stroke="#aaff00" stroke-width="2"/>
</g>
<g>
	<polygon points="18,233 23,226 27,234" fill="#aaff00"/>
	<line x1="73" y1="205" x2="25" y2="230" stroke="#aaff00" stroke-width="2"/>
</g>
<g>
	<polygon points="112,165 110,173 104,167" fill="#aaff00"/>
	<line x1="73" y1="205" x2="107" y2="170" stroke="#aaff00" stroke-width="2"/>
</g>
<g>
	<polygon points="64,281 60,273 69,274" fill="#aaff00"/>
	<line x1="73" y1="205" x2="65" y2="274" stroke="#aaff00" stroke-width="2"/>
</g>
<g>
	<polygon points="118,290 112,284 120,281" fill="#aaff00"/>
	<line x1="105" y1="245" x2="116" y2="283" stroke="#aaff00" stroke-width="2"/>
</g>
<g>
	<polygon points="115,294 107,297 108,288" fill="#aaff00"/>
	<line x1="64" y1="286" x2="108" y2="293" stroke="#aaff00" stroke-width="2"/>
</g>
<g>
	<polygon points="124,295 132,290 132,299" fill="#aaff00"/>
	<line x1="181" y1="295" x2="131" y2="295" stroke="#aaff00" stroke-width="2"/>
</g>
<g>
	<polygon points="287,261 279,265 280,256" fill="#aaff00"/>
	<line x1="224" y1="256" x2="280" y2="260" stroke="#aaff00" stroke-width="2"/>
</g>
<g>
	<polygon points="184,291 187,283 193,290" fill="#aaff00"/>
	<line x1="224" y1="256" x2="189" y2="287" stroke="#aaff00" stroke-width="2"/>
</g>
<g>
	<polygon points="172,217 181,218 176,225" fill="#aaff00"/>
	<line x1="224" y1="256" x2="178" y2="221" stroke="#aaff00" stroke-width="2"/>
</g>
<g>
	<polygon points="347,239 342,246 338,238" fill="#aaff00"/>
	<line x1="292" y1="262" x2="341" y2="242" stroke="#aaff00" stroke-width="2"/>
</g>
<g>
	<polygon points="354,234 354,225 362,230" fill="#aaff00"/>
	<line x1="386" y1="185" x2="358" y2="228" stroke="#aaff00" stroke-width="2"/>
</g>
<g>
	<polygon points="385,180 379,173 388,172" fill="#aaff00"/>
	<line x1="375" y1="117" x2="384" y2="173" stroke="#aaff00" stroke-width="2"/>
</g>
<g>
	<polygon points="364,46 370,53 361,54" fill="#aaff00"/>
	<line x1="375" y1="117" x2="365" y2="53" stroke="#aaff00" stroke-width="2"/>
</g>
<g>
	<polygon points="320,129 326,123 329,132" fill="#aaff00"/>
	<line x1="375" y1="117" x2="327" y2="128" stroke="#aaff00" stroke-width="2"/>
</g>
<g>
	<polygon points="270,8 279,6 276,15" fill="#aaff00"/>
	<line x1="364" y1="42" x2="277" y2="10" stroke="#aaff00" stroke-width="2"/>
</g>
<g>
	<polygon points="273,43 267,36 276,35" fill="#aaff00"/>
	<line x1="266" y1="7" x2="271" y2="36" stroke="#aaff00" stroke-width="2"/>
</g>
<g>
	<polygon points="214,9 222,4 222,13" fill="#aaff00"/>
	<line x1="266" y1="7" x2="221" y2="9" stroke="#aaff00" stroke-width="2"/>
</g>
<g>
	<polygon points="228,41 230,33 237,39" fill="#aaff00"/>
	<line x1="266" y1="7" x2="233" y2="37" stroke="#aaff00" stroke-width="2"/>
</g>
<g>
	<polygon points="283,87 277,80 285,79" fill="#aaff00"/>
	<line x1="266" y1="7" x2="281" y2="80" stroke="#aaff00" stroke-width="2"/>
</g>
<g>
	<polygon points="307,22 298,23 302,15" fill="#aaff00"/>
	<line x1="266" y1="7" x2="301" y2="19" stroke="#aaff00" stroke-width="2"/>
</g>
<g>
	<polygon points="173,11 181,6 181,15" fill="#aaff00"/>
	<line x1="266" y1="7" x2="180" y2="11" stroke="#aaff00" stroke-width="2"/>
</g>
<g>
	<polygon points="242,76 245,68 251,75" fill="#aaff00"/>
	<line x1="274" y1="48" x2="247" y2="72" stroke="#aaff00" stroke-width="2"/>
</g>
<g>
	<polygon points="242,82 251,83 246,90" fill="#aaff00"/>
	<line x1="316" y1="131" x2="248" y2="86" stroke="#aaff00" stroke-width="2"/>
</g>
<g>
	<polygon points="237,75 230,70 238,66" fill="#aaff00"/>
	<line x1="210" y1="10" x2="234" y2="69" stroke="#aaff00" stroke-width="2"/>
</g>
<g>
	<polygon points="237,75 230,70 238,66" fill="#aaff00"/>
	<line x1="225" y1="45" x2="234" y2="69" stroke="#aaff00" stroke-width="2"/>
</g>
<g>
	<polygon points="243,81 252,78 249,87" fill="#aaff00"/>
	<line x1="284" y1="92" x2="250" y2="83" stroke="#aaff00" stroke-width="2"/>
</g>
<g>
	<polygon points="242,77 246,68 251,76" fill="#aaff00"/>
	<line x1="312" y1="24" x2="248" y2="72" stroke="#aaff00" stroke-width="2"/>
</g>
<g>
	<polygon points="235,76 227,74 233,68" fill="#aaff00"/>
	<line x1="169" y1="12" x2="230" y2="71" stroke="#aaff00" stroke-width="2"/>
</g>
<g>
	<polygon points="77,205 85,201 84,210" fill="#aaff00"/>
	<line x1="169" y1="215" x2="84" y2="206" stroke="#aaff00" stroke-width="2"/>
</g>

<g fill="#000000">
	<circle cx="72" cy="204" r="4"/>
</g>
<g fill="#000000">
	<circle cx="59" cy="131" r="4"/>
</g>
<g fill="#000000">
	<circle cx="104" cy="244" r="4"/>
</g>
<g fill="#000000">
	<circle cx="13" cy="174" r="4"/>
</g>
<g fill="#000000">
	<circle cx="14" cy="235" r="4"/>
</g>
<g fill="#000000">
	<circle cx="115" cy="161" r="4"/>
</g>
<g fill="#000000">
	<circle cx="63" cy="285" r="4"/>
</g>
<g fill="#000000">
	<circle cx="238" cy="79" r="4"/>
</g>
<g fill="#000000">
	<circle cx="119" cy="294" r="4"/>
</g>
<g fill="#000000">
	<circle cx="351" cy="237" r="4"/>
</g>
<g fill="#000000">
	<circle cx="223" cy="255" r="4"/>
</g>
<g fill="#000000">
	<circle cx="291" cy="261" r="4"/>
</g>
<g fill="#000000">
	<circle cx="180" cy="294" r="4"/>
</g>
<g fill="#000000">
	<circle cx="168" cy="214" r="4"/>
</g>
<g fill="#000000">
	<circle cx="374" cy="116" r="4"/>
</g>
<g fill="#000000">
	<circle cx="385" cy="184" r="4"/>
</g>
<g fill="#000000">
	<circle cx="363" cy="41" r="4"/>
</g>
<g fill="#000000">
	<circle cx="315" cy="130" r="4"/>
</g>
<g fill="#000000">
	<circle cx="265" cy="6" r="4"/>
</g>
<g fill="#000000">
	<circle cx="273" cy="47" r="4"/>
</g>
<g fill="#000000">
	<circle cx="209" cy="9" r="4"/>
</g>
<g fill="#000000">
	<circle cx="224" cy="44" r="4"/>
</g>
<g fill="#000000">
	<circle cx="283" cy="91" r="4"/>
</g>
<g fill="#000000">
	<circle cx="311" cy="23" r="4"/>
</g>
<g fill="#000000">
	<circle cx="168" cy="11" r="4"/>
</g>

</g>

</svg>
