<?xml version="1.0" encoding="utf-8"?>
<!-- Created with Hypercube (http://tumic.wz.cz/hypercube) -->

<svg width="400" height="300" viewBox="0 0 400 300" xmlns="http://www.w3.org/2000/svg" baseProfile="tiny">

<g font-family="Helvetica" font-weight="normal">

<g>
	<polygon points="305,49 300,56 296,48" fill="#aaff00"/>
	<line x1="233" y1="81" x2="299" y2="52" stroke="#aaff00" stroke-width="2"/>
</g>
<g>
	<polygon points="238,135 233,128 242,127" fill="#aaff00"/>
	<line x1="233" y1="81" x2="237" y2="128" stroke="#aaff00" stroke-width="2"/>
</g>
<g>
	<polygon points="251,15 253,24 245,21" fill="#aaff00"/>
	<line x1="233" y1="81" x2="249" y2="22" stroke="#aaff00" stroke-width="2"/>
</g>
<g>
	<polygon points="228,82 222,88 219,80" fill="#aaff00"/>
	<line x1="178" y1="97" x2="221" y2="84" stroke="#aaff00" stroke-width="2"/>
</g>
<g>
	<polygon points="174,94 165,92 171,85" fill="#aaff00"/>
	<line x1="132" y1="59" x2="168" y2="89" stroke="#aaff00" stroke-width="2"/>
</g>
<g>
	<polygon points="159,13 159,22 151,18" fill="#aaff00"/>
	<line x1="132" y1="59" x2="155" y2="19" stroke="#aaff00" stroke-width="2"/>
</g>
<g>
	<polygon points="82,68 89,62 90,71" fill="#aaff00"/>
	<line x1="132" y1="59" x2="89" y2="66" stroke="#aaff00" stroke-width="2"/>
</g>
<g>
	<polygon points="190,46 183,52 182,44" fill="#aaff00"/>
	<line x1="132" y1="59" x2="183" y2="48" stroke="#aaff00" stroke-width="2"/>
</g>
<g>
	<polygon points="229,77 221,75 227,69" fill="#aaff00"/>
	<line x1="162" y1="10" x2="224" y2="72" stroke="#aaff00" stroke-width="2"/>
</g>
<g>
	<polygon points="67,150 64,142 73,143" fill="#aaff00"/>
	<line x1="78" y1="69" x2="68" y2="143" stroke="#aaff00" stroke-width="2"/>
</g>
<g>
	<polygon points="149,151 141,156 141,147" fill="#aaff00"/>
	<line x1="67" y1="155" x2="142" y2="151" stroke="#aaff00" stroke-width="2"/>
</g>
<g>
	<polygon points="229,83 226,92 220,85" fill="#aaff00"/>
	<line x1="154" y1="151" x2="224" y2="88" stroke="#aaff00" stroke-width="2"/>
</g>
<g>
	<polygon points="64,151 56,147 63,142" fill="#aaff00"/>
	<line x1="13" y1="75" x2="60" y2="145" stroke="#aaff00" stroke-width="2"/>
</g>
<g>
	<polygon points="12,70 6,63 15,62" fill="#aaff00"/>
	<line x1="5" y1="16" x2="11" y2="63" stroke="#aaff00" stroke-width="2"/>
</g>
<g>
	<polygon points="62,153 53,155 56,146" fill="#aaff00"/>
	<line x1="5" y1="135" x2="55" y2="151" stroke="#aaff00" stroke-width="2"/>
</g>
<g>
	<polygon points="90,119 87,128 81,121" fill="#aaff00"/>
	<line x1="21" y1="175" x2="84" y2="124" stroke="#aaff00" stroke-width="2"/>
</g>
<g>
	<polygon points="6,139 13,144 5,148" fill="#aaff00"/>
	<line x1="21" y1="175" x2="9" y2="145" stroke="#aaff00" stroke-width="2"/>
</g>
<g>
	<polygon points="129,62 129,71 121,66" fill="#aaff00"/>
	<line x1="94" y1="117" x2="125" y2="68" stroke="#aaff00" stroke-width="2"/>
</g>
<g>
	<polygon points="69,158 77,162 69,167" fill="#aaff00"/>
	<line x1="109" y1="221" x2="73" y2="164" stroke="#aaff00" stroke-width="2"/>
</g>
<g>
	<polygon points="111,224 118,229 110,233" fill="#aaff00"/>
	<line x1="137" y1="273" x2="114" y2="231" stroke="#aaff00" stroke-width="2"/>
</g>
<g>
	<polygon points="65,159 66,168 58,164" fill="#aaff00"/>
	<line x1="32" y1="239" x2="62" y2="165" stroke="#aaff00" stroke-width="2"/>
</g>
<g>
	<polygon points="29,243 30,251 22,247" fill="#aaff00"/>
	<line x1="5" y1="292" x2="26" y2="249" stroke="#aaff00" stroke-width="2"/>
</g>
<g>
	<polygon points="229,77 220,75 227,69" fill="#aaff00"/>
	<line x1="195" y1="46" x2="224" y2="73" stroke="#aaff00" stroke-width="2"/>
</g>
<g>
	<polygon points="236,83 245,84 240,91" fill="#aaff00"/>
	<line x1="302" y1="129" x2="242" y2="87" stroke="#aaff00" stroke-width="2"/>
</g>
<g>
	<polygon points="374,216 366,211 374,207" fill="#aaff00"/>
	<line x1="348" y1="170" x2="371" y2="209" stroke="#aaff00" stroke-width="2"/>
</g>
<g>
	<polygon points="305,131 314,133 308,140" fill="#aaff00"/>
	<line x1="348" y1="170" x2="310" y2="136" stroke="#aaff00" stroke-width="2"/>
</g>
<g>
	<polygon points="393,267 386,261 395,258" fill="#aaff00"/>
	<line x1="377" y1="220" x2="391" y2="260" stroke="#aaff00" stroke-width="2"/>
</g>
<g>
	<polygon points="352,17 348,25 343,18" fill="#aaff00"/>
	<line x1="310" y1="48" x2="346" y2="21" stroke="#aaff00" stroke-width="2"/>
</g>

<g fill="#000000">
	<circle cx="232" cy="80" r="4"/>
</g>
<g fill="#000000">
	<circle cx="309" cy="47" r="4"/>
</g>
<g fill="#000000">
	<circle cx="238" cy="139" r="4"/>
</g>
<g fill="#000000">
	<circle cx="252" cy="10" r="4"/>
</g>
<g fill="#000000">
	<circle cx="131" cy="58" r="4"/>
</g>
<g fill="#000000">
	<circle cx="177" cy="96" r="4"/>
</g>
<g fill="#000000">
	<circle cx="161" cy="9" r="4"/>
</g>
<g fill="#000000">
	<circle cx="77" cy="68" r="4"/>
</g>
<g fill="#000000">
	<circle cx="194" cy="45" r="4"/>
</g>
<g fill="#000000">
	<circle cx="347" cy="169" r="4"/>
</g>
<g fill="#000000">
	<circle cx="376" cy="219" r="4"/>
</g>
<g fill="#000000">
	<circle cx="301" cy="128" r="4"/>
</g>
<g fill="#000000">
	<circle cx="394" cy="271" r="4"/>
</g>
<g fill="#000000">
	<circle cx="66" cy="154" r="4"/>
</g>
<g fill="#000000">
	<circle cx="153" cy="150" r="4"/>
</g>
<g fill="#000000">
	<circle cx="4" cy="15" r="4"/>
</g>
<g fill="#000000">
	<circle cx="12" cy="74" r="4"/>
</g>
<g fill="#000000">
	<circle cx="20" cy="174" r="4"/>
</g>
<g fill="#000000">
	<circle cx="93" cy="116" r="4"/>
</g>
<g fill="#000000">
	<circle cx="4" cy="134" r="4"/>
</g>
<g fill="#000000">
	<circle cx="136" cy="272" r="4"/>
</g>
<g fill="#000000">
	<circle cx="108" cy="220" r="4"/>
</g>
<g fill="#000000">
	<circle cx="4" cy="291" r="4"/>
</g>
<g fill="#000000">
	<circle cx="31" cy="238" r="4"/>
</g>
<g fill="#000000">
	<circle cx="355" cy="14" r="4"/>
</g>

</g>

</svg>
