<?xml version="1.0" encoding="utf-8"?>
<!-- Created with Hypercube (http://tumic.wz.cz/hypercube) -->

<svg width="400" height="300" viewBox="0 0 400 300" xmlns="http://www.w3.org/2000/svg" baseProfile="tiny">

<g font-family="Helvetica" font-weight="normal">

<g>
	<polygon points="106,259 114,255 113,264" fill="#aaff00"/>
	<line x1="197" y1="268" x2="113" y2="260" stroke="#aaff00" stroke-width="2"/>
</g>
<g>
	<polygon points="348,251 339,252 343,243" fill="#aaff00"/>
	<line x1="284" y1="223" x2="342" y2="248" stroke="#aaff00" stroke-width="2"/>
</g>
<g>
	<polygon points="315,146 316,155 308,151" fill="#aaff00"/>
	<line x1="284" y1="223" x2="312" y2="152" stroke="#aaff00" stroke-width="2"/>
</g>
<g>
	<polygon points="200,265 205,258 209,266" fill="#aaff00"/>
	<line x1="284" y1="223" x2="207" y2="262" stroke="#aaff00" stroke-width="2"/>
</g>
<g>
	<polygon points="263,272 262,263 270,267" fill="#aaff00"/>
	<line x1="284" y1="223" x2="266" y2="266" stroke="#aaff00" stroke-width="2"/>
</g>
<g>
	<polygon points="342,199 337,206 333,198" fill="#aaff00"/>
	<line x1="284" y1="223" x2="336" y2="202" stroke="#aaff00" stroke-width="2"/>
</g>
<g>
	<polygon points="313,290 306,285 314,281" fill="#aaff00"/>
	<line x1="284" y1="223" x2="310" y2="284" stroke="#aaff00" stroke-width="2"/>
</g>
<g>
	<polygon points="269,173 275,179 267,182" fill="#aaff00"/>
	<line x1="284" y1="223" x2="271" y2="180" stroke="#aaff00" stroke-width="2"/>
</g>
<g>
	<polygon points="270,109 279,110 274,117" fill="#aaff00"/>
	<line x1="317" y1="142" x2="276" y2="113" stroke="#aaff00" stroke-width="2"/>
</g>
<g>
	<polygon points="267,164 263,156 272,156" fill="#aaff00"/>
	<line x1="267" y1="107" x2="267" y2="157" stroke="#aaff00" stroke-width="2"/>
</g>
<g>
	<polygon points="263,104 254,104 258,96" fill="#aaff00"/>
	<line x1="202" y1="69" x2="256" y2="101" stroke="#aaff00" stroke-width="2"/>
</g>
<g>
	<polygon points="100,26 104,34 95,34" fill="#aaff00"/>
	<line x1="100" y1="94" x2="100" y2="33" stroke="#aaff00" stroke-width="2"/>
</g>
<g>
	<polygon points="141,84 135,90 132,81" fill="#aaff00"/>
	<line x1="100" y1="94" x2="134" y2="85" stroke="#aaff00" stroke-width="2"/>
</g>
<g>
	<polygon points="197,70 191,76 188,67" fill="#aaff00"/>
	<line x1="100" y1="94" x2="190" y2="71" stroke="#aaff00" stroke-width="2"/>
</g>
<g>
	<polygon points="196,171 187,169 193,162" fill="#aaff00"/>
	<line x1="100" y1="94" x2="190" y2="166" stroke="#aaff00" stroke-width="2"/>
</g>
<g>
	<polygon points="74,140 74,131 81,135" fill="#aaff00"/>
	<line x1="100" y1="94" x2="77" y2="133" stroke="#aaff00" stroke-width="2"/>
</g>
<g>
	<polygon points="123,145 115,140 124,136" fill="#aaff00"/>
	<line x1="100" y1="94" x2="120" y2="139" stroke="#aaff00" stroke-width="2"/>
</g>
<g>
	<polygon points="153,6 147,12 144,4" fill="#aaff00"/>
	<line x1="100" y1="22" x2="146" y2="8" stroke="#aaff00" stroke-width="2"/>
</g>
<g>
	<polygon points="162,5 170,0 170,9" fill="#aaff00"/>
	<line x1="225" y1="5" x2="169" y2="5" stroke="#aaff00" stroke-width="2"/>
</g>
<g>
	<polygon points="229,5 237,0 237,9" fill="#aaff00"/>
	<line x1="284" y1="5" x2="236" y2="5" stroke="#aaff00" stroke-width="2"/>
</g>
<g>
	<polygon points="175,116 166,113 173,107" fill="#aaff00"/>
	<line x1="146" y1="83" x2="170" y2="111" stroke="#aaff00" stroke-width="2"/>
</g>
<g>
	<polygon points="280,220 271,220 275,212" fill="#aaff00"/>
	<line x1="200" y1="174" x2="273" y2="217" stroke="#aaff00" stroke-width="2"/>
</g>
<g>
	<polygon points="100,254 94,248 103,245" fill="#aaff00"/>
	<line x1="72" y1="144" x2="99" y2="247" stroke="#aaff00" stroke-width="2"/>
</g>
<g>
	<polygon points="133,201 127,194 136,193" fill="#aaff00"/>
	<line x1="125" y1="150" x2="132" y2="194" stroke="#aaff00" stroke-width="2"/>
</g>
<g>
	<polygon points="144,258 138,251 147,250" fill="#aaff00"/>
	<line x1="134" y1="206" x2="142" y2="251" stroke="#aaff00" stroke-width="2"/>
</g>
<g>
	<polygon points="106,259 114,255 113,264" fill="#aaff00"/>
	<line x1="145" y1="263" x2="113" y2="260" stroke="#aaff00" stroke-width="2"/>
</g>
<g>
	<polygon points="97,97 97,106 89,102" fill="#aaff00"/>
	<line x1="48" y1="183" x2="94" y2="104" stroke="#aaff00" stroke-width="2"/>
</g>
<g>
	<polygon points="48,187 52,195 43,195" fill="#aaff00"/>
	<line x1="48" y1="238" x2="48" y2="194" stroke="#aaff00" stroke-width="2"/>
</g>

<g fill="#000000">
	<circle cx="101" cy="258" r="4"/>
</g>
<g fill="#000000">
	<circle cx="283" cy="222" r="4"/>
</g>
<g fill="#000000">
	<circle cx="352" cy="252" r="4"/>
</g>
<g fill="#000000">
	<circle cx="316" cy="141" r="4"/>
</g>
<g fill="#000000">
	<circle cx="196" cy="267" r="4"/>
</g>
<g fill="#000000">
	<circle cx="261" cy="276" r="4"/>
</g>
<g fill="#000000">
	<circle cx="346" cy="197" r="4"/>
</g>
<g fill="#000000">
	<circle cx="314" cy="294" r="4"/>
</g>
<g fill="#000000">
	<circle cx="266" cy="106" r="4"/>
</g>
<g fill="#000000">
	<circle cx="267" cy="168" r="4"/>
</g>
<g fill="#000000">
	<circle cx="133" cy="205" r="4"/>
</g>
<g fill="#000000">
	<circle cx="144" cy="262" r="4"/>
</g>
<g fill="#000000">
	<circle cx="99" cy="93" r="4"/>
</g>
<g fill="#000000">
	<circle cx="99" cy="21" r="4"/>
</g>
<g fill="#000000">
	<circle cx="145" cy="82" r="4"/>
</g>
<g fill="#000000">
	<circle cx="201" cy="68" r="4"/>
</g>
<g fill="#000000">
	<circle cx="199" cy="173" r="4"/>
</g>
<g fill="#000000">
	<circle cx="71" cy="143" r="4"/>
</g>
<g fill="#000000">
	<circle cx="124" cy="149" r="4"/>
</g>
<g fill="#000000">
	<circle cx="157" cy="4" r="4"/>
</g>
<g fill="#000000">
	<circle cx="283" cy="4" r="4"/>
</g>
<g fill="#000000">
	<circle cx="224" cy="4" r="4"/>
</g>
<g fill="#000000">
	<circle cx="177" cy="119" r="4"/>
</g>
<g fill="#000000">
	<circle cx="47" cy="237" r="4"/>
</g>
<g fill="#000000">
	<circle cx="47" cy="182" r="4"/>
</g>

</g>

</svg>
