<?xml version="1.0" encoding="utf-8"?>
<!-- Created with Hypercube (http://tumic.wz.cz/hypercube) -->

<svg width="400" height="300" viewBox="0 0 400 300" xmlns="http://www.w3.org/2000/svg" baseProfile="tiny">

<g font-family="Helvetica" font-weight="normal">

<g>
	<polygon points="296,84 291,92 287,84" fill="#aaff00"/>
	<line x1="204" y1="138" x2="289" y2="87" stroke="#aaff00" stroke-width="2"/>
</g>
<g>
	<polygon points="176,173 177,164 185,169" fill="#aaff00"/>
	<line x1="204" y1="138" x2="181" y2="167" stroke="#aaff00" stroke-width="2"/>
</g>
<g>
	<polygon points="106,187 110,180 114,188" fill="#aaff00"/>
	<line x1="204" y1="138" x2="112" y2="184" stroke="#aaff00" stroke-width="2"/>
</g>
<g>
	<polygon points="365,70 358,76 357,67" fill="#aaff00"/>
	<line x1="300" y1="82" x2="358" y2="71" stroke="#aaff00" stroke-width="2"/>
</g>
<g>
	<polygon points="334,124 325,121 332,115" fill="#aaff00"/>
	<line x1="300" y1="82" x2="329" y2="118" stroke="#aaff00" stroke-width="2"/>
</g>
<g>
	<polygon points="324,26 325,35 316,31" fill="#aaff00"/>
	<line x1="300" y1="82" x2="321" y2="32" stroke="#aaff00" stroke-width="2"/>
</g>
<g>
	<polygon points="264,42 273,45 266,51" fill="#aaff00"/>
	<line x1="300" y1="82" x2="269" y2="47" stroke="#aaff00" stroke-width="2"/>
</g>
<g>
	<polygon points="104,67 112,71 104,76" fill="#aaff00"/>
	<line x1="174" y1="177" x2="108" y2="73" stroke="#aaff00" stroke-width="2"/>
</g>
<g>
	<polygon points="158,236 155,227 164,230" fill="#aaff00"/>
	<line x1="174" y1="177" x2="160" y2="229" stroke="#aaff00" stroke-width="2"/>
</g>
<g>
	<polygon points="245,238 236,236 242,229" fill="#aaff00"/>
	<line x1="174" y1="177" x2="240" y2="233" stroke="#aaff00" stroke-width="2"/>
</g>
<g>
	<polygon points="150,8 148,17 141,11" fill="#aaff00"/>
	<line x1="102" y1="64" x2="145" y2="13" stroke="#aaff00" stroke-width="2"/>
</g>
<g>
	<polygon points="99,9 104,17 95,17" fill="#aaff00"/>
	<line x1="102" y1="64" x2="99" y2="16" stroke="#aaff00" stroke-width="2"/>
</g>
<g>
	<polygon points="160,63 152,67 152,58" fill="#aaff00"/>
	<line x1="102" y1="64" x2="153" y2="63" stroke="#aaff00" stroke-width="2"/>
</g>
<g>
	<polygon points="48,8 56,10 50,16" fill="#aaff00"/>
	<line x1="102" y1="64" x2="53" y2="13" stroke="#aaff00" stroke-width="2"/>
</g>
<g>
	<polygon points="114,110 108,104 117,101" fill="#aaff00"/>
	<line x1="102" y1="64" x2="112" y2="103" stroke="#aaff00" stroke-width="2"/>
</g>
<g>
	<polygon points="34,57 42,53 41,62" fill="#aaff00"/>
	<line x1="102" y1="64" x2="41" y2="58" stroke="#aaff00" stroke-width="2"/>
</g>
<g>
	<polygon points="54,103 57,94 63,101" fill="#aaff00"/>
	<line x1="102" y1="64" x2="60" y2="98" stroke="#aaff00" stroke-width="2"/>
</g>
<g>
	<polygon points="135,290 134,281 142,285" fill="#aaff00"/>
	<line x1="157" y1="241" x2="138" y2="284" stroke="#aaff00" stroke-width="2"/>
</g>
<g>
	<polygon points="275,198 275,207 267,203" fill="#aaff00"/>
	<line x1="249" y1="241" x2="271" y2="204" stroke="#aaff00" stroke-width="2"/>
</g>
<g>
	<polygon points="319,248 311,252 312,243" fill="#aaff00"/>
	<line x1="249" y1="241" x2="312" y2="247" stroke="#aaff00" stroke-width="2"/>
</g>
<g>
	<polygon points="283,291 275,287 282,282" fill="#aaff00"/>
	<line x1="249" y1="241" x2="279" y2="285" stroke="#aaff00" stroke-width="2"/>
</g>
<g>
	<polygon points="222,291 221,282 229,286" fill="#aaff00"/>
	<line x1="249" y1="241" x2="225" y2="284" stroke="#aaff00" stroke-width="2"/>
</g>
<g>
	<polygon points="42,190 50,185 50,194" fill="#aaff00"/>
	<line x1="102" y1="190" x2="49" y2="190" stroke="#aaff00" stroke-width="2"/>
</g>
<g>
	<polygon points="68,243 68,234 76,239" fill="#aaff00"/>
	<line x1="102" y1="190" x2="72" y2="237" stroke="#aaff00" stroke-width="2"/>
</g>

<g fill="#000000">
	<circle cx="203" cy="137" r="4"/>
</g>
<g fill="#000000">
	<circle cx="299" cy="81" r="4"/>
</g>
<g fill="#000000">
	<circle cx="173" cy="176" r="4"/>
</g>
<g fill="#000000">
	<circle cx="101" cy="189" r="4"/>
</g>
<g fill="#000000">
	<circle cx="369" cy="69" r="4"/>
</g>
<g fill="#000000">
	<circle cx="336" cy="127" r="4"/>
</g>
<g fill="#000000">
	<circle cx="325" cy="21" r="4"/>
</g>
<g fill="#000000">
	<circle cx="261" cy="38" r="4"/>
</g>
<g fill="#000000">
	<circle cx="101" cy="63" r="4"/>
</g>
<g fill="#000000">
	<circle cx="156" cy="240" r="4"/>
</g>
<g fill="#000000">
	<circle cx="248" cy="240" r="4"/>
</g>
<g fill="#000000">
	<circle cx="152" cy="4" r="4"/>
</g>
<g fill="#000000">
	<circle cx="98" cy="4" r="4"/>
</g>
<g fill="#000000">
	<circle cx="164" cy="62" r="4"/>
</g>
<g fill="#000000">
	<circle cx="44" cy="4" r="4"/>
</g>
<g fill="#000000">
	<circle cx="115" cy="114" r="4"/>
</g>
<g fill="#000000">
	<circle cx="29" cy="56" r="4"/>
</g>
<g fill="#000000">
	<circle cx="50" cy="105" r="4"/>
</g>
<g fill="#000000">
	<circle cx="133" cy="294" r="4"/>
</g>
<g fill="#000000">
	<circle cx="277" cy="194" r="4"/>
</g>
<g fill="#000000">
	<circle cx="323" cy="248" r="4"/>
</g>
<g fill="#000000">
	<circle cx="285" cy="294" r="4"/>
</g>
<g fill="#000000">
	<circle cx="219" cy="294" r="4"/>
</g>
<g fill="#000000">
	<circle cx="37" cy="189" r="4"/>
</g>
<g fill="#000000">
	<circle cx="65" cy="246" r="4"/>
</g>

</g>

</svg>
