<?xml version="1.0" encoding="utf-8"?>
<!-- Created with Hypercube (http://tumic.wz.cz/hypercube) -->

<svg width="400" height="300" viewBox="0 0 400 300" xmlns="http://www.w3.org/2000/svg" baseProfile="tiny">

<g font-family="Helvetica" font-weight="normal">

<g>
	<polygon points="101,140 106,133 110,141" fill="#aaff00"/>
	<line x1="149" y1="122" x2="107" y2="137" stroke="#aaff00" stroke-width="2"/>
</g>
<g>
	<polygon points="262,141 254,145 254,136" fill="#aaff00"/>
	<line x1="216" y1="141" x2="255" y2="141" stroke="#aaff00" stroke-width="2"/>
</g>
<g>
	<polygon points="270,79 268,88 261,82" fill="#aaff00"/>
	<line x1="216" y1="141" x2="265" y2="84" stroke="#aaff00" stroke-width="2"/>
</g>
<g>
	<polygon points="153,123 162,121 159,129" fill="#aaff00"/>
	<line x1="216" y1="141" x2="160" y2="125" stroke="#aaff00" stroke-width="2"/>
</g>
<g>
	<polygon points="175,180 177,172 183,178" fill="#aaff00"/>
	<line x1="216" y1="141" x2="180" y2="175" stroke="#aaff00" stroke-width="2"/>
</g>
<g>
	<polygon points="230,186 223,180 232,177" fill="#aaff00"/>
	<line x1="216" y1="141" x2="228" y2="179" stroke="#aaff00" stroke-width="2"/>
</g>
<g>
	<polygon points="200,83 206,89 197,92" fill="#aaff00"/>
	<line x1="216" y1="141" x2="202" y2="90" stroke="#aaff00" stroke-width="2"/>
</g>
<g>
	<polygon points="330,82 322,86 323,77" fill="#aaff00"/>
	<line x1="273" y1="76" x2="323" y2="81" stroke="#aaff00" stroke-width="2"/>
</g>
<g>
	<polygon points="339,81 344,74 348,82" fill="#aaff00"/>
	<line x1="389" y1="62" x2="345" y2="78" stroke="#aaff00" stroke-width="2"/>
</g>
<g>
	<polygon points="389,66 394,73 385,74" fill="#aaff00"/>
	<line x1="395" y1="121" x2="390" y2="73" stroke="#aaff00" stroke-width="2"/>
</g>
<g>
	<polygon points="390,178 386,170 395,171" fill="#aaff00"/>
	<line x1="395" y1="121" x2="390" y2="171" stroke="#aaff00" stroke-width="2"/>
</g>
<g>
	<polygon points="328,219 333,211 337,219" fill="#aaff00"/>
	<line x1="390" y1="183" x2="335" y2="215" stroke="#aaff00" stroke-width="2"/>
</g>
<g>
	<polygon points="333,158 336,166 327,165" fill="#aaff00"/>
	<line x1="325" y1="222" x2="332" y2="165" stroke="#aaff00" stroke-width="2"/>
</g>
<g>
	<polygon points="206,263 212,256 215,265" fill="#aaff00"/>
	<line x1="325" y1="222" x2="213" y2="261" stroke="#aaff00" stroke-width="2"/>
</g>
<g>
	<polygon points="334,87 339,95 330,95" fill="#aaff00"/>
	<line x1="334" y1="154" x2="334" y2="94" stroke="#aaff00" stroke-width="2"/>
</g>
<g>
	<polygon points="110,249 118,246 117,255" fill="#aaff00"/>
	<line x1="202" y1="265" x2="117" y2="250" stroke="#aaff00" stroke-width="2"/>
</g>
<g>
	<polygon points="92,200 98,206 90,209" fill="#aaff00"/>
	<line x1="106" y1="249" x2="94" y2="207" stroke="#aaff00" stroke-width="2"/>
</g>
<g>
	<polygon points="96,146 100,154 91,153" fill="#aaff00"/>
	<line x1="91" y1="196" x2="95" y2="153" stroke="#aaff00" stroke-width="2"/>
</g>
<g>
	<polygon points="102,246 93,247 97,239" fill="#aaff00"/>
	<line x1="31" y1="208" x2="95" y2="243" stroke="#aaff00" stroke-width="2"/>
</g>
<g>
	<polygon points="48,113 43,121 39,113" fill="#aaff00"/>
	<line x1="5" y1="134" x2="42" y2="116" stroke="#aaff00" stroke-width="2"/>
</g>
<g>
	<polygon points="5,71 9,79 0,79" fill="#aaff00"/>
	<line x1="5" y1="134" x2="5" y2="78" stroke="#aaff00" stroke-width="2"/>
</g>
<g>
	<polygon points="29,203 22,197 31,194" fill="#aaff00"/>
	<line x1="5" y1="134" x2="27" y2="196" stroke="#aaff00" stroke-width="2"/>
</g>
<g>
	<polygon points="93,139 84,138 89,131" fill="#aaff00"/>
	<line x1="53" y1="112" x2="87" y2="135" stroke="#aaff00" stroke-width="2"/>
</g>
<g>
	<polygon points="5,14 9,22 0,22" fill="#aaff00"/>
	<line x1="5" y1="67" x2="5" y2="21" stroke="#aaff00" stroke-width="2"/>
</g>
<g>
	<polygon points="326,226 333,231 325,235" fill="#aaff00"/>
	<line x1="349" y1="280" x2="329" y2="232" stroke="#aaff00" stroke-width="2"/>
</g>
<g>
	<polygon points="267,238 274,243 266,247" fill="#aaff00"/>
	<line x1="295" y1="291" x2="270" y2="245" stroke="#aaff00" stroke-width="2"/>
</g>
<g>
	<polygon points="344,280 337,286 336,278" fill="#aaff00"/>
	<line x1="295" y1="291" x2="337" y2="282" stroke="#aaff00" stroke-width="2"/>
</g>
<g>
	<polygon points="218,144 225,149 217,153" fill="#aaff00"/>
	<line x1="265" y1="235" x2="221" y2="151" stroke="#aaff00" stroke-width="2"/>
</g>

<g fill="#000000">
	<circle cx="96" cy="141" r="4"/>
</g>
<g fill="#000000">
	<circle cx="334" cy="82" r="4"/>
</g>
<g fill="#000000">
	<circle cx="215" cy="140" r="4"/>
</g>
<g fill="#000000">
	<circle cx="266" cy="140" r="4"/>
</g>
<g fill="#000000">
	<circle cx="272" cy="75" r="4"/>
</g>
<g fill="#000000">
	<circle cx="148" cy="121" r="4"/>
</g>
<g fill="#000000">
	<circle cx="171" cy="183" r="4"/>
</g>
<g fill="#000000">
	<circle cx="231" cy="190" r="4"/>
</g>
<g fill="#000000">
	<circle cx="198" cy="78" r="4"/>
</g>
<g fill="#000000">
	<circle cx="105" cy="248" r="4"/>
</g>
<g fill="#000000">
	<circle cx="90" cy="195" r="4"/>
</g>
<g fill="#000000">
	<circle cx="4" cy="9" r="4"/>
</g>
<g fill="#000000">
	<circle cx="294" cy="290" r="4"/>
</g>
<g fill="#000000">
	<circle cx="264" cy="234" r="4"/>
</g>
<g fill="#000000">
	<circle cx="348" cy="279" r="4"/>
</g>
<g fill="#000000">
	<circle cx="394" cy="120" r="4"/>
</g>
<g fill="#000000">
	<circle cx="388" cy="61" r="4"/>
</g>
<g fill="#000000">
	<circle cx="389" cy="182" r="4"/>
</g>
<g fill="#000000">
	<circle cx="4" cy="133" r="4"/>
</g>
<g fill="#000000">
	<circle cx="52" cy="111" r="4"/>
</g>
<g fill="#000000">
	<circle cx="4" cy="66" r="4"/>
</g>
<g fill="#000000">
	<circle cx="30" cy="207" r="4"/>
</g>
<g fill="#000000">
	<circle cx="324" cy="221" r="4"/>
</g>
<g fill="#000000">
	<circle cx="333" cy="153" r="4"/>
</g>
<g fill="#000000">
	<circle cx="201" cy="264" r="4"/>
</g>

</g>

</svg>
