<?xml version="1.0" encoding="utf-8"?>
<!-- Created with Hypercube (http://tumic.wz.cz/hypercube) -->

<svg width="400" height="300" viewBox="0 0 400 300" xmlns="http://www.w3.org/2000/svg" baseProfile="tiny">

<g font-family="Helvetica" font-weight="normal">

<g>
	<polygon points="183,238 178,245 174,238" fill="#aaff00"/>
	<line x1="134" y1="266" x2="176" y2="241" stroke="#aaff00" stroke-width="2"/>
</g>
<g>
	<polygon points="219,205 215,213 210,206" fill="#aaff00"/>
	<line x1="134" y1="266" x2="213" y2="209" stroke="#aaff00" stroke-width="2"/>
</g>
<g>
	<polygon points="93,212 101,216 94,221" fill="#aaff00"/>
	<line x1="134" y1="266" x2="98" y2="218" stroke="#aaff00" stroke-width="2"/>
</g>
<g>
	<polygon points="78,248 87,246 84,255" fill="#aaff00"/>
	<line x1="134" y1="266" x2="85" y2="250" stroke="#aaff00" stroke-width="2"/>
</g>
<g>
	<polygon points="219,206 216,214 210,207" fill="#aaff00"/>
	<line x1="187" y1="236" x2="214" y2="210" stroke="#aaff00" stroke-width="2"/>
</g>
<g>
	<polygon points="225,138 226,147 218,143" fill="#aaff00"/>
	<line x1="187" y1="236" x2="222" y2="144" stroke="#aaff00" stroke-width="2"/>
</g>
<g>
	<polygon points="158,161 165,166 157,170" fill="#aaff00"/>
	<line x1="187" y1="236" x2="161" y2="167" stroke="#aaff00" stroke-width="2"/>
</g>
<g>
	<polygon points="226,138 230,146 221,146" fill="#aaff00"/>
	<line x1="223" y1="203" x2="226" y2="145" stroke="#aaff00" stroke-width="2"/>
</g>
<g>
	<polygon points="288,169 283,176 279,168" fill="#aaff00"/>
	<line x1="223" y1="203" x2="281" y2="172" stroke="#aaff00" stroke-width="2"/>
</g>
<g>
	<polygon points="283,206 275,210 276,201" fill="#aaff00"/>
	<line x1="223" y1="203" x2="276" y2="206" stroke="#aaff00" stroke-width="2"/>
</g>
<g>
	<polygon points="114,167 123,165 120,174" fill="#aaff00"/>
	<line x1="223" y1="203" x2="121" y2="169" stroke="#aaff00" stroke-width="2"/>
</g>
<g>
	<polygon points="139,218 146,212 147,221" fill="#aaff00"/>
	<line x1="223" y1="203" x2="146" y2="216" stroke="#aaff00" stroke-width="2"/>
</g>
<g>
	<polygon points="245,97 247,105 239,104" fill="#aaff00"/>
	<line x1="223" y1="203" x2="243" y2="104" stroke="#aaff00" stroke-width="2"/>
</g>
<g>
	<polygon points="200,77 208,82 200,86" fill="#aaff00"/>
	<line x1="227" y1="134" x2="203" y2="83" stroke="#aaff00" stroke-width="2"/>
</g>
<g>
	<polygon points="114,165 121,159 122,168" fill="#aaff00"/>
	<line x1="157" y1="157" x2="121" y2="163" stroke="#aaff00" stroke-width="2"/>
</g>
<g>
	<polygon points="196,77 197,86 189,81" fill="#aaff00"/>
	<line x1="157" y1="157" x2="193" y2="83" stroke="#aaff00" stroke-width="2"/>
</g>
<g>
	<polygon points="110,106 115,114 106,114" fill="#aaff00"/>
	<line x1="110" y1="166" x2="110" y2="113" stroke="#aaff00" stroke-width="2"/>
</g>
<g>
	<polygon points="194,74 188,81 185,72" fill="#aaff00"/>
	<line x1="111" y1="102" x2="187" y2="76" stroke="#aaff00" stroke-width="2"/>
</g>
<g>
	<polygon points="108,170 109,179 100,175" fill="#aaff00"/>
	<line x1="91" y1="209" x2="105" y2="176" stroke="#aaff00" stroke-width="2"/>
</g>
<g>
	<polygon points="130,218 122,220 124,211" fill="#aaff00"/>
	<line x1="91" y1="209" x2="123" y2="216" stroke="#aaff00" stroke-width="2"/>
</g>
<g>
	<polygon points="108,170 109,179 100,175" fill="#aaff00"/>
	<line x1="74" y1="247" x2="105" y2="176" stroke="#aaff00" stroke-width="2"/>
</g>
<g>
	<polygon points="130,220 125,228 121,220" fill="#aaff00"/>
	<line x1="74" y1="247" x2="124" y2="223" stroke="#aaff00" stroke-width="2"/>
</g>
<g>
	<polygon points="203,74 212,73 208,81" fill="#aaff00"/>
	<line x1="246" y1="93" x2="209" y2="77" stroke="#aaff00" stroke-width="2"/>
</g>
<g>
	<polygon points="203,71 209,65 212,74" fill="#aaff00"/>
	<line x1="285" y1="50" x2="210" y2="69" stroke="#aaff00" stroke-width="2"/>
</g>
<g>
	<polygon points="322,9 320,18 314,11" fill="#aaff00"/>
	<line x1="285" y1="50" x2="318" y2="14" stroke="#aaff00" stroke-width="2"/>
</g>
<g>
	<polygon points="231,133 238,128 239,137" fill="#aaff00"/>
	<line x1="296" y1="126" x2="238" y2="132" stroke="#aaff00" stroke-width="2"/>
</g>
<g>
	<polygon points="285,54 291,61 282,62" fill="#aaff00"/>
	<line x1="296" y1="126" x2="286" y2="61" stroke="#aaff00" stroke-width="2"/>
</g>
<g>
	<polygon points="191,236 199,232 198,241" fill="#aaff00"/>
	<line x1="285" y1="245" x2="198" y2="237" stroke="#aaff00" stroke-width="2"/>
</g>
<g>
	<polygon points="226,205 235,206 230,213" fill="#aaff00"/>
	<line x1="285" y1="245" x2="232" y2="209" stroke="#aaff00" stroke-width="2"/>
</g>
<g>
	<polygon points="295,130 299,138 290,137" fill="#aaff00"/>
	<line x1="285" y1="245" x2="294" y2="137" stroke="#aaff00" stroke-width="2"/>
</g>
<g>
	<polygon points="188,231 187,222 195,226" fill="#aaff00"/>
	<line x1="215" y1="168" x2="191" y2="225" stroke="#aaff00" stroke-width="2"/>
</g>
<g>
	<polygon points="221,198 215,192 224,190" fill="#aaff00"/>
	<line x1="215" y1="168" x2="220" y2="191" stroke="#aaff00" stroke-width="2"/>
</g>
<g>
	<polygon points="292,128 287,135 283,127" fill="#aaff00"/>
	<line x1="215" y1="168" x2="285" y2="131" stroke="#aaff00" stroke-width="2"/>
</g>
<g>
	<polygon points="183,113 191,118 183,122" fill="#aaff00"/>
	<line x1="215" y1="168" x2="186" y2="120" stroke="#aaff00" stroke-width="2"/>
</g>
<g>
	<polygon points="223,131 214,132 218,124" fill="#aaff00"/>
	<line x1="181" y1="110" x2="216" y2="128" stroke="#aaff00" stroke-width="2"/>
</g>
<g>
	<polygon points="160,43 166,49 158,52" fill="#aaff00"/>
	<line x1="181" y1="110" x2="162" y2="50" stroke="#aaff00" stroke-width="2"/>
</g>
<g>
	<polygon points="195,70 186,68 192,61" fill="#aaff00"/>
	<line x1="159" y1="39" x2="190" y2="65" stroke="#aaff00" stroke-width="2"/>
</g>
<g>
	<polygon points="116,7 125,8 120,15" fill="#aaff00"/>
	<line x1="159" y1="39" x2="122" y2="11" stroke="#aaff00" stroke-width="2"/>
</g>
<g>
	<polygon points="190,238 199,240 193,247" fill="#aaff00"/>
	<line x1="254" y1="295" x2="195" y2="243" stroke="#aaff00" stroke-width="2"/>
</g>
<g>
	<polygon points="224,207 231,213 222,216" fill="#aaff00"/>
	<line x1="254" y1="295" x2="226" y2="214" stroke="#aaff00" stroke-width="2"/>
</g>
<g>
	<polygon points="190,238 199,240 193,247" fill="#aaff00"/>
	<line x1="227" y1="271" x2="195" y2="243" stroke="#aaff00" stroke-width="2"/>
</g>
<g>
	<polygon points="223,207 228,215 219,215" fill="#aaff00"/>
	<line x1="227" y1="271" x2="223" y2="214" stroke="#aaff00" stroke-width="2"/>
</g>
<g>
	<polygon points="191,236 199,232 198,241" fill="#aaff00"/>
	<line x1="225" y1="239" x2="198" y2="236" stroke="#aaff00" stroke-width="2"/>
</g>
<g>
	<polygon points="223,207 228,215 219,215" fill="#aaff00"/>
	<line x1="225" y1="239" x2="223" y2="214" stroke="#aaff00" stroke-width="2"/>
</g>

<g fill="#000000">
	<circle cx="133" cy="265" r="4"/>
</g>
<g fill="#000000">
	<circle cx="186" cy="235" r="4"/>
</g>
<g fill="#000000">
	<circle cx="222" cy="202" r="4"/>
</g>
<g fill="#000000">
	<circle cx="90" cy="208" r="4"/>
</g>
<g fill="#000000">
	<circle cx="73" cy="246" r="4"/>
</g>
<g fill="#000000">
	<circle cx="253" cy="294" r="4"/>
</g>
<g fill="#000000">
	<circle cx="226" cy="270" r="4"/>
</g>
<g fill="#000000">
	<circle cx="224" cy="238" r="4"/>
</g>
<g fill="#000000">
	<circle cx="284" cy="244" r="4"/>
</g>
<g fill="#000000">
	<circle cx="295" cy="125" r="4"/>
</g>
<g fill="#000000">
	<circle cx="226" cy="133" r="4"/>
</g>
<g fill="#000000">
	<circle cx="156" cy="156" r="4"/>
</g>
<g fill="#000000">
	<circle cx="291" cy="166" r="4"/>
</g>
<g fill="#000000">
	<circle cx="287" cy="206" r="4"/>
</g>
<g fill="#000000">
	<circle cx="109" cy="165" r="4"/>
</g>
<g fill="#000000">
	<circle cx="134" cy="218" r="4"/>
</g>
<g fill="#000000">
	<circle cx="245" cy="92" r="4"/>
</g>
<g fill="#000000">
	<circle cx="214" cy="167" r="4"/>
</g>
<g fill="#000000">
	<circle cx="180" cy="109" r="4"/>
</g>
<g fill="#000000">
	<circle cx="284" cy="49" r="4"/>
</g>
<g fill="#000000">
	<circle cx="158" cy="38" r="4"/>
</g>
<g fill="#000000">
	<circle cx="198" cy="72" r="4"/>
</g>
<g fill="#000000">
	<circle cx="110" cy="101" r="4"/>
</g>
<g fill="#000000">
	<circle cx="325" cy="5" r="4"/>
</g>
<g fill="#000000">
	<circle cx="112" cy="4" r="4"/>
</g>

</g>

</svg>
