<?xml version="1.0" encoding="utf-8"?>
<!-- Created with Hypercube (http://tumic.wz.cz/hypercube) -->

<svg width="400" height="300" viewBox="0 0 400 300" xmlns="http://www.w3.org/2000/svg" baseProfile="tiny">

<g font-family="Helvetica" font-weight="normal">

<g>
	<polygon points="359,295 351,299 351,290" fill="#aaff00"/>
	<line x1="306" y1="295" x2="352" y2="295" stroke="#aaff00" stroke-width="2"/>
</g>
<g>
	<polygon points="346,250 353,255 345,259" fill="#aaff00"/>
	<line x1="364" y1="295" x2="349" y2="256" stroke="#aaff00" stroke-width="2"/>
</g>
<g>
	<polygon points="249,229 257,226 256,235" fill="#aaff00"/>
	<line x1="345" y1="246" x2="256" y2="230" stroke="#aaff00" stroke-width="2"/>
</g>
<g>
	<polygon points="354,208 357,217 348,214" fill="#aaff00"/>
	<line x1="345" y1="246" x2="353" y2="215" stroke="#aaff00" stroke-width="2"/>
</g>
<g>
	<polygon points="367,159 370,168 361,165" fill="#aaff00"/>
	<line x1="345" y1="246" x2="366" y2="166" stroke="#aaff00" stroke-width="2"/>
</g>
<g>
	<polygon points="217,136 223,142 215,145" fill="#aaff00"/>
	<line x1="245" y1="229" x2="219" y2="143" stroke="#aaff00" stroke-width="2"/>
</g>
<g>
	<polygon points="276,87 272,95 267,88" fill="#aaff00"/>
	<line x1="216" y1="132" x2="270" y2="91" stroke="#aaff00" stroke-width="2"/>
</g>
<g>
	<polygon points="365,152 356,150 362,143" fill="#aaff00"/>
	<line x1="280" y1="85" x2="359" y2="147" stroke="#aaff00" stroke-width="2"/>
</g>
<g>
	<polygon points="229,55 238,55 234,63" fill="#aaff00"/>
	<line x1="280" y1="85" x2="236" y2="58" stroke="#aaff00" stroke-width="2"/>
</g>
<g>
	<polygon points="261,148 259,139 267,142" fill="#aaff00"/>
	<line x1="280" y1="85" x2="263" y2="141" stroke="#aaff00" stroke-width="2"/>
</g>
<g>
	<polygon points="264,15 270,21 261,23" fill="#aaff00"/>
	<line x1="280" y1="85" x2="265" y2="22" stroke="#aaff00" stroke-width="2"/>
</g>
<g>
	<polygon points="321,168 327,162 330,170" fill="#aaff00"/>
	<line x1="369" y1="155" x2="328" y2="166" stroke="#aaff00" stroke-width="2"/>
</g>
<g>
	<polygon points="264,154 273,152 270,160" fill="#aaff00"/>
	<line x1="317" y1="170" x2="271" y2="156" stroke="#aaff00" stroke-width="2"/>
</g>
<g>
	<polygon points="324,125 327,133 318,132" fill="#aaff00"/>
	<line x1="317" y1="170" x2="323" y2="132" stroke="#aaff00" stroke-width="2"/>
</g>
<g>
	<polygon points="178,178 184,172 187,180" fill="#aaff00"/>
	<line x1="260" y1="153" x2="185" y2="176" stroke="#aaff00" stroke-width="2"/>
</g>
<g>
	<polygon points="105,175 113,171 112,180" fill="#aaff00"/>
	<line x1="174" y1="180" x2="112" y2="175" stroke="#aaff00" stroke-width="2"/>
</g>
<g>
	<polygon points="50,147 59,147 55,154" fill="#aaff00"/>
	<line x1="101" y1="175" x2="57" y2="150" stroke="#aaff00" stroke-width="2"/>
</g>
<g>
	<polygon points="101,179 106,187 97,187" fill="#aaff00"/>
	<line x1="104" y1="232" x2="101" y2="186" stroke="#aaff00" stroke-width="2"/>
</g>
<g>
	<polygon points="240,230 235,238 231,229" fill="#aaff00"/>
	<line x1="152" y1="271" x2="234" y2="233" stroke="#aaff00" stroke-width="2"/>
</g>
<g>
	<polygon points="180,238 178,247 171,241" fill="#aaff00"/>
	<line x1="152" y1="271" x2="175" y2="243" stroke="#aaff00" stroke-width="2"/>
</g>
<g>
	<polygon points="107,234 116,236 110,243" fill="#aaff00"/>
	<line x1="152" y1="271" x2="113" y2="239" stroke="#aaff00" stroke-width="2"/>
</g>
<g>
	<polygon points="174,184 180,191 171,192" fill="#aaff00"/>
	<line x1="183" y1="235" x2="175" y2="191" stroke="#aaff00" stroke-width="2"/>
</g>
<g>
	<polygon points="147,272 142,279 138,271" fill="#aaff00"/>
	<line x1="89" y1="295" x2="141" y2="275" stroke="#aaff00" stroke-width="2"/>
</g>
<g>
	<polygon points="84,295 76,299 76,290" fill="#aaff00"/>
	<line x1="33" y1="295" x2="77" y2="295" stroke="#aaff00" stroke-width="2"/>
</g>
<g>
	<polygon points="320,172 329,174 323,181" fill="#aaff00"/>
	<line x1="356" y1="204" x2="325" y2="177" stroke="#aaff00" stroke-width="2"/>
</g>
<g>
	<polygon points="204,9 211,13 203,18" fill="#aaff00"/>
	<line x1="226" y1="53" x2="207" y2="15" stroke="#aaff00" stroke-width="2"/>
</g>
<g>
	<polygon points="148,5 156,0 156,9" fill="#aaff00"/>
	<line x1="202" y1="5" x2="155" y2="5" stroke="#aaff00" stroke-width="2"/>
</g>
<g>
	<polygon points="206,5 214,1 213,10" fill="#aaff00"/>
	<line x1="263" y1="11" x2="213" y2="6" stroke="#aaff00" stroke-width="2"/>
</g>
<g>
	<polygon points="283,82 287,74 292,81" fill="#aaff00"/>
	<line x1="335" y1="44" x2="289" y2="78" stroke="#aaff00" stroke-width="2"/>
</g>
<g>
	<polygon points="337,40 339,31 346,37" fill="#aaff00"/>
	<line x1="369" y1="5" x2="342" y2="35" stroke="#aaff00" stroke-width="2"/>
</g>
<g>
	<polygon points="212,129 203,130 207,122" fill="#aaff00"/>
	<line x1="164" y1="104" x2="205" y2="126" stroke="#aaff00" stroke-width="2"/>
</g>

<g fill="#000000">
	<circle cx="305" cy="294" r="4"/>
</g>
<g fill="#000000">
	<circle cx="363" cy="294" r="4"/>
</g>
<g fill="#000000">
	<circle cx="32" cy="294" r="4"/>
</g>
<g fill="#000000">
	<circle cx="88" cy="294" r="4"/>
</g>
<g fill="#000000">
	<circle cx="163" cy="103" r="4"/>
</g>
<g fill="#000000">
	<circle cx="215" cy="131" r="4"/>
</g>
<g fill="#000000">
	<circle cx="368" cy="4" r="4"/>
</g>
<g fill="#000000">
	<circle cx="334" cy="43" r="4"/>
</g>
<g fill="#000000">
	<circle cx="344" cy="245" r="4"/>
</g>
<g fill="#000000">
	<circle cx="151" cy="270" r="4"/>
</g>
<g fill="#000000">
	<circle cx="279" cy="84" r="4"/>
</g>
<g fill="#000000">
	<circle cx="244" cy="228" r="4"/>
</g>
<g fill="#000000">
	<circle cx="355" cy="203" r="4"/>
</g>
<g fill="#000000">
	<circle cx="368" cy="154" r="4"/>
</g>
<g fill="#000000">
	<circle cx="182" cy="234" r="4"/>
</g>
<g fill="#000000">
	<circle cx="103" cy="231" r="4"/>
</g>
<g fill="#000000">
	<circle cx="173" cy="179" r="4"/>
</g>
<g fill="#000000">
	<circle cx="316" cy="169" r="4"/>
</g>
<g fill="#000000">
	<circle cx="225" cy="52" r="4"/>
</g>
<g fill="#000000">
	<circle cx="201" cy="4" r="4"/>
</g>
<g fill="#000000">
	<circle cx="100" cy="174" r="4"/>
</g>
<g fill="#000000">
	<circle cx="46" cy="144" r="4"/>
</g>
<g fill="#000000">
	<circle cx="143" cy="4" r="4"/>
</g>
<g fill="#000000">
	<circle cx="259" cy="152" r="4"/>
</g>
<g fill="#000000">
	<circle cx="262" cy="10" r="4"/>
</g>
<g fill="#000000">
	<circle cx="324" cy="120" r="4"/>
</g>

</g>

</svg>
