<?xml version="1.0" encoding="utf-8"?>
<!-- Created with Hypercube (http://tumic.wz.cz/hypercube) -->

<svg width="400" height="300" viewBox="0 0 400 300" xmlns="http://www.w3.org/2000/svg" baseProfile="tiny">

<g font-family="Helvetica" font-weight="normal">

<g>
	<polygon points="353,273 346,267 355,264" fill="#aaff00"/>
	<line x1="331" y1="209" x2="351" y2="266" stroke="#aaff00" stroke-width="2"/>
</g>
<g>
	<polygon points="385,226 376,228 379,219" fill="#aaff00"/>
	<line x1="331" y1="209" x2="378" y2="224" stroke="#aaff00" stroke-width="2"/>
</g>
<g>
	<polygon points="370,166 368,175 362,168" fill="#aaff00"/>
	<line x1="331" y1="209" x2="366" y2="171" stroke="#aaff00" stroke-width="2"/>
</g>
<g>
	<polygon points="328,212 327,221 320,216" fill="#aaff00"/>
	<line x1="279" y1="278" x2="323" y2="218" stroke="#aaff00" stroke-width="2"/>
</g>
<g>
	<polygon points="218,285 211,291 210,282" fill="#aaff00"/>
	<line x1="176" y1="291" x2="211" y2="286" stroke="#aaff00" stroke-width="2"/>
</g>
<g>
	<polygon points="274,278 267,284 266,275" fill="#aaff00"/>
	<line x1="176" y1="291" x2="267" y2="279" stroke="#aaff00" stroke-width="2"/>
</g>
<g>
	<polygon points="216,230 221,237 212,238" fill="#aaff00"/>
	<line x1="223" y1="285" x2="217" y2="237" stroke="#aaff00" stroke-width="2"/>
</g>
<g>
	<polygon points="211,224 202,224 206,216" fill="#aaff00"/>
	<line x1="162" y1="200" x2="205" y2="220" stroke="#aaff00" stroke-width="2"/>
</g>
<g>
	<polygon points="158,196 150,194 156,188" fill="#aaff00"/>
	<line x1="125" y1="164" x2="153" y2="191" stroke="#aaff00" stroke-width="2"/>
</g>
<g>
	<polygon points="95,102 103,107 95,111" fill="#aaff00"/>
	<line x1="125" y1="164" x2="98" y2="108" stroke="#aaff00" stroke-width="2"/>
</g>
<g>
	<polygon points="105,242 102,233 111,236" fill="#aaff00"/>
	<line x1="125" y1="164" x2="106" y2="235" stroke="#aaff00" stroke-width="2"/>
</g>
<g>
	<polygon points="258,203 249,205 252,197" fill="#aaff00"/>
	<line x1="125" y1="164" x2="251" y2="201" stroke="#aaff00" stroke-width="2"/>
</g>
<g>
	<polygon points="111,38 113,47 105,44" fill="#aaff00"/>
	<line x1="94" y1="98" x2="109" y2="45" stroke="#aaff00" stroke-width="2"/>
</g>
<g>
	<polygon points="108,34 100,38 100,29" fill="#aaff00"/>
	<line x1="47" y1="34" x2="101" y2="34" stroke="#aaff00" stroke-width="2"/>
</g>
<g>
	<polygon points="40,143 33,138 40,134" fill="#aaff00"/>
	<line x1="12" y1="91" x2="37" y2="136" stroke="#aaff00" stroke-width="2"/>
</g>
<g>
	<polygon points="44,37 44,46 36,42" fill="#aaff00"/>
	<line x1="12" y1="91" x2="40" y2="43" stroke="#aaff00" stroke-width="2"/>
</g>
<g>
	<polygon points="120,163 112,165 113,157" fill="#aaff00"/>
	<line x1="43" y1="147" x2="113" y2="161" stroke="#aaff00" stroke-width="2"/>
</g>
<g>
	<polygon points="117,32 123,26 126,34" fill="#aaff00"/>
	<line x1="191" y1="11" x2="124" y2="30" stroke="#aaff00" stroke-width="2"/>
</g>
<g>
	<polygon points="210,86 214,78 219,85" fill="#aaff00"/>
	<line x1="258" y1="54" x2="216" y2="82" stroke="#aaff00" stroke-width="2"/>
</g>
<g>
	<polygon points="194,13 203,13 198,21" fill="#aaff00"/>
	<line x1="258" y1="54" x2="200" y2="17" stroke="#aaff00" stroke-width="2"/>
</g>
<g>
	<polygon points="309,113 300,110 307,104" fill="#aaff00"/>
	<line x1="258" y1="54" x2="304" y2="108" stroke="#aaff00" stroke-width="2"/>
</g>
<g>
	<polygon points="128,160 131,152 137,159" fill="#aaff00"/>
	<line x1="207" y1="89" x2="133" y2="156" stroke="#aaff00" stroke-width="2"/>
</g>
<g>
	<polygon points="330,204 324,197 332,196" fill="#aaff00"/>
	<line x1="312" y1="117" x2="328" y2="197" stroke="#aaff00" stroke-width="2"/>
</g>
<g>
	<polygon points="115,37 124,40 117,46" fill="#aaff00"/>
	<line x1="151" y1="78" x2="120" y2="42" stroke="#aaff00" stroke-width="2"/>
</g>
<g>
	<polygon points="160,137 169,136 165,144" fill="#aaff00"/>
	<line x1="196" y1="151" x2="166" y2="140" stroke="#aaff00" stroke-width="2"/>
</g>
<g>
	<polygon points="237,158 229,161 230,152" fill="#aaff00"/>
	<line x1="196" y1="151" x2="230" y2="156" stroke="#aaff00" stroke-width="2"/>
</g>
<g>
	<polygon points="153,81 161,86 153,90" fill="#aaff00"/>
	<line x1="196" y1="151" x2="157" y2="87" stroke="#aaff00" stroke-width="2"/>
</g>
<g>
	<polygon points="161,241 160,232 168,236" fill="#aaff00"/>
	<line x1="196" y1="151" x2="164" y2="235" stroke="#aaff00" stroke-width="2"/>
</g>
<g>
	<polygon points="128,160 131,152 137,159" fill="#aaff00"/>
	<line x1="156" y1="136" x2="133" y2="156" stroke="#aaff00" stroke-width="2"/>
</g>
<g>
	<polygon points="217,221 216,212 224,216" fill="#aaff00"/>
	<line x1="242" y1="159" x2="220" y2="215" stroke="#aaff00" stroke-width="2"/>
</g>
<g>
	<polygon points="174,286 167,280 176,277" fill="#aaff00"/>
	<line x1="160" y1="246" x2="172" y2="279" stroke="#aaff00" stroke-width="2"/>
</g>
<g>
	<polygon points="172,288 163,288 167,280" fill="#aaff00"/>
	<line x1="104" y1="247" x2="166" y2="284" stroke="#aaff00" stroke-width="2"/>
</g>
<g>
	<polygon points="326,208 318,212 318,203" fill="#aaff00"/>
	<line x1="263" y1="205" x2="319" y2="208" stroke="#aaff00" stroke-width="2"/>
</g>

<g fill="#000000">
	<circle cx="330" cy="208" r="4"/>
</g>
<g fill="#000000">
	<circle cx="354" cy="277" r="4"/>
</g>
<g fill="#000000">
	<circle cx="389" cy="227" r="4"/>
</g>
<g fill="#000000">
	<circle cx="373" cy="162" r="4"/>
</g>
<g fill="#000000">
	<circle cx="215" cy="225" r="4"/>
</g>
<g fill="#000000">
	<circle cx="175" cy="290" r="4"/>
</g>
<g fill="#000000">
	<circle cx="222" cy="284" r="4"/>
</g>
<g fill="#000000">
	<circle cx="278" cy="277" r="4"/>
</g>
<g fill="#000000">
	<circle cx="112" cy="33" r="4"/>
</g>
<g fill="#000000">
	<circle cx="124" cy="163" r="4"/>
</g>
<g fill="#000000">
	<circle cx="161" cy="199" r="4"/>
</g>
<g fill="#000000">
	<circle cx="93" cy="97" r="4"/>
</g>
<g fill="#000000">
	<circle cx="103" cy="246" r="4"/>
</g>
<g fill="#000000">
	<circle cx="262" cy="204" r="4"/>
</g>
<g fill="#000000">
	<circle cx="11" cy="90" r="4"/>
</g>
<g fill="#000000">
	<circle cx="42" cy="146" r="4"/>
</g>
<g fill="#000000">
	<circle cx="46" cy="33" r="4"/>
</g>
<g fill="#000000">
	<circle cx="257" cy="53" r="4"/>
</g>
<g fill="#000000">
	<circle cx="206" cy="88" r="4"/>
</g>
<g fill="#000000">
	<circle cx="190" cy="10" r="4"/>
</g>
<g fill="#000000">
	<circle cx="311" cy="116" r="4"/>
</g>
<g fill="#000000">
	<circle cx="195" cy="150" r="4"/>
</g>
<g fill="#000000">
	<circle cx="155" cy="135" r="4"/>
</g>
<g fill="#000000">
	<circle cx="241" cy="158" r="4"/>
</g>
<g fill="#000000">
	<circle cx="150" cy="77" r="4"/>
</g>
<g fill="#000000">
	<circle cx="159" cy="245" r="4"/>
</g>

</g>

</svg>
