<?xml version="1.0" encoding="utf-8"?>
<!-- Created with Hypercube (http://tumic.wz.cz/hypercube) -->

<svg width="400" height="300" viewBox="0 0 400 300" xmlns="http://www.w3.org/2000/svg" baseProfile="tiny">

<g font-family="Helvetica" font-weight="normal">

<g>
	<polygon points="332,91 328,99 323,92" fill="#aaff00"/>
	<line x1="231" y1="160" x2="326" y2="95" stroke="#aaff00" stroke-width="2"/>
</g>
<g>
	<polygon points="261,124 259,133 252,127" fill="#aaff00"/>
	<line x1="231" y1="160" x2="256" y2="129" stroke="#aaff00" stroke-width="2"/>
</g>
<g>
	<polygon points="219,111 225,117 216,120" fill="#aaff00"/>
	<line x1="231" y1="160" x2="220" y2="118" stroke="#aaff00" stroke-width="2"/>
</g>
<g>
	<polygon points="177,163 184,158 185,167" fill="#aaff00"/>
	<line x1="231" y1="160" x2="184" y2="163" stroke="#aaff00" stroke-width="2"/>
</g>
<g>
	<polygon points="224,231 220,223 229,224" fill="#aaff00"/>
	<line x1="231" y1="160" x2="225" y2="224" stroke="#aaff00" stroke-width="2"/>
</g>
<g>
	<polygon points="291,234 282,231 289,225" fill="#aaff00"/>
	<line x1="231" y1="160" x2="286" y2="228" stroke="#aaff00" stroke-width="2"/>
</g>
<g>
	<polygon points="228,64 232,72 223,72" fill="#aaff00"/>
	<line x1="231" y1="160" x2="228" y2="71" stroke="#aaff00" stroke-width="2"/>
</g>
<g>
	<polygon points="162,209 166,201 171,208" fill="#aaff00"/>
	<line x1="231" y1="160" x2="168" y2="205" stroke="#aaff00" stroke-width="2"/>
</g>
<g>
	<polygon points="286,177 277,179 280,170" fill="#aaff00"/>
	<line x1="231" y1="160" x2="279" y2="175" stroke="#aaff00" stroke-width="2"/>
</g>
<g>
	<polygon points="128,127 137,125 134,134" fill="#aaff00"/>
	<line x1="231" y1="160" x2="135" y2="129" stroke="#aaff00" stroke-width="2"/>
</g>
<g>
	<polygon points="259,119 250,121 253,113" fill="#aaff00"/>
	<line x1="218" y1="107" x2="252" y2="117" stroke="#aaff00" stroke-width="2"/>
</g>
<g>
	<polygon points="218,102 216,94 224,95" fill="#aaff00"/>
	<line x1="228" y1="60" x2="220" y2="95" stroke="#aaff00" stroke-width="2"/>
</g>
<g>
	<polygon points="184,11 192,14 185,20" fill="#aaff00"/>
	<line x1="228" y1="60" x2="188" y2="16" stroke="#aaff00" stroke-width="2"/>
</g>
<g>
	<polygon points="177,10 174,19 168,11" fill="#aaff00"/>
	<line x1="127" y1="50" x2="171" y2="15" stroke="#aaff00" stroke-width="2"/>
</g>
<g>
	<polygon points="68,99 71,90 77,97" fill="#aaff00"/>
	<line x1="127" y1="50" x2="73" y2="94" stroke="#aaff00" stroke-width="2"/>
</g>
<g>
	<polygon points="168,68 159,69 163,60" fill="#aaff00"/>
	<line x1="127" y1="50" x2="162" y2="65" stroke="#aaff00" stroke-width="2"/>
</g>
<g>
	<polygon points="98,75 101,66 107,73" fill="#aaff00"/>
	<line x1="127" y1="50" x2="103" y2="70" stroke="#aaff00" stroke-width="2"/>
</g>
<g>
	<polygon points="59,159 55,151 64,152" fill="#aaff00"/>
	<line x1="65" y1="102" x2="60" y2="152" stroke="#aaff00" stroke-width="2"/>
</g>
<g>
	<polygon points="83,228 76,223 84,219" fill="#aaff00"/>
	<line x1="59" y1="164" x2="80" y2="222" stroke="#aaff00" stroke-width="2"/>
</g>
<g>
	<polygon points="9,162 17,157 17,166" fill="#aaff00"/>
	<line x1="59" y1="164" x2="16" y2="162" stroke="#aaff00" stroke-width="2"/>
</g>
<g>
	<polygon points="99,171 91,174 92,165" fill="#aaff00"/>
	<line x1="59" y1="164" x2="92" y2="169" stroke="#aaff00" stroke-width="2"/>
</g>
<g>
	<polygon points="171,168 173,177 165,174" fill="#aaff00"/>
	<line x1="159" y1="212" x2="169" y2="175" stroke="#aaff00" stroke-width="2"/>
</g>
<g>
	<polygon points="89,231 95,225 98,233" fill="#aaff00"/>
	<line x1="159" y1="212" x2="96" y2="229" stroke="#aaff00" stroke-width="2"/>
</g>
<g>
	<polygon points="127,128 136,129 130,137" fill="#aaff00"/>
	<line x1="173" y1="164" x2="133" y2="133" stroke="#aaff00" stroke-width="2"/>
</g>
<g>
	<polygon points="62,161 67,153 71,161" fill="#aaff00"/>
	<line x1="124" y1="126" x2="69" y2="158" stroke="#aaff00" stroke-width="2"/>
</g>
<g>
	<polygon points="126,54 131,62 122,62" fill="#aaff00"/>
	<line x1="124" y1="126" x2="126" y2="61" stroke="#aaff00" stroke-width="2"/>
</g>
<g>
	<polygon points="69,103 78,102 74,110" fill="#aaff00"/>
	<line x1="124" y1="126" x2="75" y2="106" stroke="#aaff00" stroke-width="2"/>
</g>
<g>
	<polygon points="105,167 104,158 113,162" fill="#aaff00"/>
	<line x1="124" y1="126" x2="108" y2="161" stroke="#aaff00" stroke-width="2"/>
</g>
<g>
	<polygon points="97,81 105,86 97,90" fill="#aaff00"/>
	<line x1="124" y1="126" x2="101" y2="88" stroke="#aaff00" stroke-width="2"/>
</g>
<g>
	<polygon points="68,99 71,90 77,97" fill="#aaff00"/>
	<line x1="95" y1="78" x2="74" y2="94" stroke="#aaff00" stroke-width="2"/>
</g>
<g>
	<polygon points="214,104 205,102 211,95" fill="#aaff00"/>
	<line x1="173" y1="70" x2="208" y2="99" stroke="#aaff00" stroke-width="2"/>
</g>
<g>
	<polygon points="222,240 225,249 216,246" fill="#aaff00"/>
	<line x1="209" y1="293" x2="221" y2="247" stroke="#aaff00" stroke-width="2"/>
</g>
<g>
	<polygon points="296,241 305,244 298,250" fill="#aaff00"/>
	<line x1="334" y1="285" x2="301" y2="246" stroke="#aaff00" stroke-width="2"/>
</g>
<g>
	<polygon points="316,37 323,42 315,46" fill="#aaff00"/>
	<line x1="336" y1="89" x2="319" y2="43" stroke="#aaff00" stroke-width="2"/>
</g>
<g>
	<polygon points="379,27 378,36 371,31" fill="#aaff00"/>
	<line x1="336" y1="89" x2="375" y2="33" stroke="#aaff00" stroke-width="2"/>
</g>
<g>
	<polygon points="371,139 363,135 370,130" fill="#aaff00"/>
	<line x1="336" y1="89" x2="367" y2="133" stroke="#aaff00" stroke-width="2"/>
</g>
<g>
	<polygon points="390,86 382,91 382,82" fill="#aaff00"/>
	<line x1="336" y1="89" x2="383" y2="86" stroke="#aaff00" stroke-width="2"/>
</g>

<g fill="#000000">
	<circle cx="335" cy="88" r="4"/>
</g>
<g fill="#000000">
	<circle cx="314" cy="32" r="4"/>
</g>
<g fill="#000000">
	<circle cx="230" cy="159" r="4"/>
</g>
<g fill="#000000">
	<circle cx="263" cy="120" r="4"/>
</g>
<g fill="#000000">
	<circle cx="217" cy="106" r="4"/>
</g>
<g fill="#000000">
	<circle cx="172" cy="163" r="4"/>
</g>
<g fill="#000000">
	<circle cx="223" cy="235" r="4"/>
</g>
<g fill="#000000">
	<circle cx="293" cy="237" r="4"/>
</g>
<g fill="#000000">
	<circle cx="227" cy="59" r="4"/>
</g>
<g fill="#000000">
	<circle cx="158" cy="211" r="4"/>
</g>
<g fill="#000000">
	<circle cx="290" cy="178" r="4"/>
</g>
<g fill="#000000">
	<circle cx="123" cy="125" r="4"/>
</g>
<g fill="#000000">
	<circle cx="180" cy="7" r="4"/>
</g>
<g fill="#000000">
	<circle cx="84" cy="232" r="4"/>
</g>
<g fill="#000000">
	<circle cx="58" cy="163" r="4"/>
</g>
<g fill="#000000">
	<circle cx="126" cy="49" r="4"/>
</g>
<g fill="#000000">
	<circle cx="64" cy="101" r="4"/>
</g>
<g fill="#000000">
	<circle cx="381" cy="23" r="4"/>
</g>
<g fill="#000000">
	<circle cx="373" cy="142" r="4"/>
</g>
<g fill="#000000">
	<circle cx="208" cy="292" r="4"/>
</g>
<g fill="#000000">
	<circle cx="333" cy="284" r="4"/>
</g>
<g fill="#000000">
	<circle cx="4" cy="161" r="4"/>
</g>
<g fill="#000000">
	<circle cx="103" cy="171" r="4"/>
</g>
<g fill="#000000">
	<circle cx="172" cy="69" r="4"/>
</g>
<g fill="#000000">
	<circle cx="94" cy="77" r="4"/>
</g>
<g fill="#000000">
	<circle cx="394" cy="85" r="4"/>
</g>

</g>

</svg>
