<?xml version="1.0" encoding="utf-8"?>
<!-- Created with Hypercube (http://tumic.wz.cz/hypercube) -->

<svg width="400" height="300" viewBox="0 0 400 300" xmlns="http://www.w3.org/2000/svg" baseProfile="tiny">

<g font-family="Helvetica" font-weight="normal">

<g>
	<polygon points="219,61 227,58 226,67" fill="#aaff00"/>
	<line x1="307" y1="73" x2="226" y2="62" stroke="#aaff00" stroke-width="2"/>
</g>
<g>
	<polygon points="290,145 287,137 296,139" fill="#aaff00"/>
	<line x1="307" y1="73" x2="291" y2="138" stroke="#aaff00" stroke-width="2"/>
</g>
<g>
	<polygon points="288,9 294,15 286,18" fill="#aaff00"/>
	<line x1="307" y1="73" x2="290" y2="16" stroke="#aaff00" stroke-width="2"/>
</g>
<g>
	<polygon points="362,53 356,60 353,51" fill="#aaff00"/>
	<line x1="307" y1="73" x2="355" y2="55" stroke="#aaff00" stroke-width="2"/>
</g>
<g>
	<polygon points="249,92 240,90 247,84" fill="#aaff00"/>
	<line x1="215" y1="61" x2="244" y2="88" stroke="#aaff00" stroke-width="2"/>
</g>
<g>
	<polygon points="225,9 228,17 219,16" fill="#aaff00"/>
	<line x1="215" y1="61" x2="223" y2="16" stroke="#aaff00" stroke-width="2"/>
</g>
<g>
	<polygon points="262,46 265,54 256,53" fill="#aaff00"/>
	<line x1="253" y1="96" x2="260" y2="53" stroke="#aaff00" stroke-width="2"/>
</g>
<g>
	<polygon points="259,38 251,36 257,30" fill="#aaff00"/>
	<line x1="226" y1="5" x2="254" y2="33" stroke="#aaff00" stroke-width="2"/>
</g>
<g>
	<polygon points="230,5 238,0 238,9" fill="#aaff00"/>
	<line x1="287" y1="5" x2="237" y2="5" stroke="#aaff00" stroke-width="2"/>
</g>
<g>
	<polygon points="330,6 322,10 322,1" fill="#aaff00"/>
	<line x1="287" y1="5" x2="323" y2="6" stroke="#aaff00" stroke-width="2"/>
</g>
<g>
	<polygon points="267,40 272,32 276,40" fill="#aaff00"/>
	<line x1="335" y1="7" x2="273" y2="36" stroke="#aaff00" stroke-width="2"/>
</g>
<g>
	<polygon points="337,10 345,14 338,19" fill="#aaff00"/>
	<line x1="367" y1="52" x2="341" y2="16" stroke="#aaff00" stroke-width="2"/>
</g>
<g>
	<polygon points="255,99 263,103 256,108" fill="#aaff00"/>
	<line x1="289" y1="150" x2="259" y2="105" stroke="#aaff00" stroke-width="2"/>
</g>
<g>
	<polygon points="143,239 144,230 152,235" fill="#aaff00"/>
	<line x1="167" y1="209" x2="148" y2="233" stroke="#aaff00" stroke-width="2"/>
</g>
<g>
	<polygon points="124,165 132,167 126,173" fill="#aaff00"/>
	<line x1="167" y1="209" x2="129" y2="170" stroke="#aaff00" stroke-width="2"/>
</g>
<g>
	<polygon points="185,281 179,275 188,272" fill="#aaff00"/>
	<line x1="167" y1="209" x2="184" y2="274" stroke="#aaff00" stroke-width="2"/>
</g>
<g>
	<polygon points="88,205 97,206 92,213" fill="#aaff00"/>
	<line x1="141" y1="243" x2="94" y2="209" stroke="#aaff00" stroke-width="2"/>
</g>
<g>
	<polygon points="128,290 125,281 134,284" fill="#aaff00"/>
	<line x1="141" y1="243" x2="130" y2="283" stroke="#aaff00" stroke-width="2"/>
</g>
<g>
	<polygon points="87,199 89,190 96,196" fill="#aaff00"/>
	<line x1="121" y1="162" x2="92" y2="194" stroke="#aaff00" stroke-width="2"/>
</g>
<g>
	<polygon points="117,158 108,157 114,150" fill="#aaff00"/>
	<line x1="78" y1="123" x2="112" y2="154" stroke="#aaff00" stroke-width="2"/>
</g>
<g>
	<polygon points="42,160 44,151 50,158" fill="#aaff00"/>
	<line x1="78" y1="123" x2="47" y2="155" stroke="#aaff00" stroke-width="2"/>
</g>
<g>
	<polygon points="81,200 72,198 78,191" fill="#aaff00"/>
	<line x1="39" y1="164" x2="76" y2="195" stroke="#aaff00" stroke-width="2"/>
</g>
<g>
	<polygon points="36,160 27,156 35,151" fill="#aaff00"/>
	<line x1="5" y1="119" x2="31" y2="154" stroke="#aaff00" stroke-width="2"/>
</g>
<g>
	<polygon points="131,294 138,288 139,297" fill="#aaff00"/>
	<line x1="187" y1="286" x2="138" y2="293" stroke="#aaff00" stroke-width="2"/>
</g>
<g>
	<polygon points="191,286 199,283 198,292" fill="#aaff00"/>
	<line x1="245" y1="295" x2="198" y2="287" stroke="#aaff00" stroke-width="2"/>
</g>
<g>
	<polygon points="122,295 114,299 114,290" fill="#aaff00"/>
	<line x1="63" y1="295" x2="115" y2="295" stroke="#aaff00" stroke-width="2"/>
</g>
<g>
	<polygon points="58,295 50,299 50,290" fill="#aaff00"/>
	<line x1="5" y1="295" x2="51" y2="295" stroke="#aaff00" stroke-width="2"/>
</g>
<g>
	<polygon points="145,241 151,235 154,243" fill="#aaff00"/>
	<line x1="235" y1="215" x2="152" y2="239" stroke="#aaff00" stroke-width="2"/>
</g>
<g>
	<polygon points="390,209 381,207 387,200" fill="#aaff00"/>
	<line x1="350" y1="174" x2="385" y2="204" stroke="#aaff00" stroke-width="2"/>
</g>
<g>
	<polygon points="394,216 398,224 389,224" fill="#aaff00"/>
	<line x1="395" y1="268" x2="394" y2="223" stroke="#aaff00" stroke-width="2"/>
</g>
<g>
	<polygon points="242,153 249,148 250,157" fill="#aaff00"/>
	<line x1="289" y1="150" x2="249" y2="153" stroke="#aaff00" stroke-width="2"/>
</g>
<g>
	<polygon points="237,211 239,202 246,208" fill="#aaff00"/>
	<line x1="289" y1="150" x2="242" y2="206" stroke="#aaff00" stroke-width="2"/>
</g>
<g>
	<polygon points="345,172 336,173 340,165" fill="#aaff00"/>
	<line x1="289" y1="150" x2="339" y2="169" stroke="#aaff00" stroke-width="2"/>
</g>

<g fill="#000000">
	<circle cx="306" cy="72" r="4"/>
</g>
<g fill="#000000">
	<circle cx="214" cy="60" r="4"/>
</g>
<g fill="#000000">
	<circle cx="288" cy="149" r="4"/>
</g>
<g fill="#000000">
	<circle cx="286" cy="4" r="4"/>
</g>
<g fill="#000000">
	<circle cx="366" cy="51" r="4"/>
</g>
<g fill="#000000">
	<circle cx="252" cy="95" r="4"/>
</g>
<g fill="#000000">
	<circle cx="225" cy="4" r="4"/>
</g>
<g fill="#000000">
	<circle cx="334" cy="6" r="4"/>
</g>
<g fill="#000000">
	<circle cx="262" cy="41" r="4"/>
</g>
<g fill="#000000">
	<circle cx="237" cy="153" r="4"/>
</g>
<g fill="#000000">
	<circle cx="166" cy="208" r="4"/>
</g>
<g fill="#000000">
	<circle cx="140" cy="242" r="4"/>
</g>
<g fill="#000000">
	<circle cx="120" cy="161" r="4"/>
</g>
<g fill="#000000">
	<circle cx="186" cy="285" r="4"/>
</g>
<g fill="#000000">
	<circle cx="349" cy="173" r="4"/>
</g>
<g fill="#000000">
	<circle cx="393" cy="211" r="4"/>
</g>
<g fill="#000000">
	<circle cx="234" cy="214" r="4"/>
</g>
<g fill="#000000">
	<circle cx="394" cy="267" r="4"/>
</g>
<g fill="#000000">
	<circle cx="77" cy="122" r="4"/>
</g>
<g fill="#000000">
	<circle cx="38" cy="163" r="4"/>
</g>
<g fill="#000000">
	<circle cx="244" cy="294" r="4"/>
</g>
<g fill="#000000">
	<circle cx="4" cy="118" r="4"/>
</g>
<g fill="#000000">
	<circle cx="84" cy="202" r="4"/>
</g>
<g fill="#000000">
	<circle cx="126" cy="294" r="4"/>
</g>
<g fill="#000000">
	<circle cx="62" cy="294" r="4"/>
</g>
<g fill="#000000">
	<circle cx="4" cy="294" r="4"/>
</g>

</g>

</svg>
