<?xml version="1.0" encoding="utf-8"?>
<!-- Created with Hypercube (http://tumic.wz.cz/hypercube) -->

<svg width="400" height="300" viewBox="0 0 400 300" xmlns="http://www.w3.org/2000/svg" baseProfile="tiny">

<g font-family="Helvetica" font-weight="normal">

<g>
	<polygon points="243,253 235,251 241,245" fill="#aaff00"/>
	<line x1="200" y1="210" x2="238" y2="248" stroke="#aaff00" stroke-width="2"/>
</g>
<g>
	<polygon points="265,187 259,194 256,185" fill="#aaff00"/>
	<line x1="200" y1="210" x2="258" y2="189" stroke="#aaff00" stroke-width="2"/>
</g>
<g>
	<polygon points="194,283 190,275 199,276" fill="#aaff00"/>
	<line x1="200" y1="210" x2="194" y2="276" stroke="#aaff00" stroke-width="2"/>
</g>
<g>
	<polygon points="136,180 145,180 141,188" fill="#aaff00"/>
	<line x1="200" y1="210" x2="142" y2="183" stroke="#aaff00" stroke-width="2"/>
</g>
<g>
	<polygon points="202,134 207,142 198,142" fill="#aaff00"/>
	<line x1="200" y1="210" x2="202" y2="141" stroke="#aaff00" stroke-width="2"/>
</g>
<g>
	<polygon points="151,247 155,238 160,246" fill="#aaff00"/>
	<line x1="200" y1="210" x2="157" y2="242" stroke="#aaff00" stroke-width="2"/>
</g>
<g>
	<polygon points="345,148 341,155 336,147" fill="#aaff00"/>
	<line x1="270" y1="186" x2="339" y2="151" stroke="#aaff00" stroke-width="2"/>
</g>
<g>
	<polygon points="390,224 383,219 391,215" fill="#aaff00"/>
	<line x1="350" y1="146" x2="387" y2="217" stroke="#aaff00" stroke-width="2"/>
</g>
<g>
	<polygon points="300,124 309,123 305,131" fill="#aaff00"/>
	<line x1="350" y1="146" x2="306" y2="127" stroke="#aaff00" stroke-width="2"/>
</g>
<g>
	<polygon points="333,200 331,191 339,194" fill="#aaff00"/>
	<line x1="350" y1="146" x2="335" y2="193" stroke="#aaff00" stroke-width="2"/>
</g>
<g>
	<polygon points="332,83 338,89 330,92" fill="#aaff00"/>
	<line x1="350" y1="146" x2="334" y2="90" stroke="#aaff00" stroke-width="2"/>
</g>
<g>
	<polygon points="392,67 393,76 385,72" fill="#aaff00"/>
	<line x1="350" y1="146" x2="389" y2="74" stroke="#aaff00" stroke-width="2"/>
</g>
<g>
	<polygon points="391,120 386,128 382,120" fill="#aaff00"/>
	<line x1="350" y1="146" x2="385" y2="124" stroke="#aaff00" stroke-width="2"/>
</g>
<g>
	<polygon points="391,170 382,170 386,162" fill="#aaff00"/>
	<line x1="350" y1="146" x2="384" y2="166" stroke="#aaff00" stroke-width="2"/>
</g>
<g>
	<polygon points="54,139 63,138 59,146" fill="#aaff00"/>
	<line x1="132" y1="179" x2="61" y2="142" stroke="#aaff00" stroke-width="2"/>
</g>
<g>
	<polygon points="8,109 17,109 12,117" fill="#aaff00"/>
	<line x1="51" y1="137" x2="14" y2="113" stroke="#aaff00" stroke-width="2"/>
</g>
<g>
	<polygon points="7,212 7,203 15,207" fill="#aaff00"/>
	<line x1="51" y1="137" x2="10" y2="205" stroke="#aaff00" stroke-width="2"/>
</g>
<g>
	<polygon points="100,112 96,119 91,111" fill="#aaff00"/>
	<line x1="51" y1="137" x2="94" y2="115" stroke="#aaff00" stroke-width="2"/>
</g>
<g>
	<polygon points="8,159 13,152 17,160" fill="#aaff00"/>
	<line x1="51" y1="137" x2="15" y2="156" stroke="#aaff00" stroke-width="2"/>
</g>
<g>
	<polygon points="66,69 68,77 59,76" fill="#aaff00"/>
	<line x1="51" y1="137" x2="64" y2="76" stroke="#aaff00" stroke-width="2"/>
</g>
<g>
	<polygon points="64,194 58,188 67,185" fill="#aaff00"/>
	<line x1="51" y1="137" x2="63" y2="187" stroke="#aaff00" stroke-width="2"/>
</g>
<g>
	<polygon points="7,57 14,62 7,66" fill="#aaff00"/>
	<line x1="51" y1="137" x2="10" y2="64" stroke="#aaff00" stroke-width="2"/>
</g>
<g>
	<polygon points="204,59 209,67 200,67" fill="#aaff00"/>
	<line x1="203" y1="130" x2="204" y2="66" stroke="#aaff00" stroke-width="2"/>
</g>
<g>
	<polygon points="170,15 179,18 172,24" fill="#aaff00"/>
	<line x1="205" y1="55" x2="175" y2="20" stroke="#aaff00" stroke-width="2"/>
</g>
<g>
	<polygon points="240,15 238,24 231,18" fill="#aaff00"/>
	<line x1="205" y1="55" x2="235" y2="20" stroke="#aaff00" stroke-width="2"/>
</g>

<g fill="#000000">
	<circle cx="199" cy="209" r="4"/>
</g>
<g fill="#000000">
	<circle cx="246" cy="256" r="4"/>
</g>
<g fill="#000000">
	<circle cx="269" cy="185" r="4"/>
</g>
<g fill="#000000">
	<circle cx="193" cy="287" r="4"/>
</g>
<g fill="#000000">
	<circle cx="131" cy="178" r="4"/>
</g>
<g fill="#000000">
	<circle cx="202" cy="129" r="4"/>
</g>
<g fill="#000000">
	<circle cx="147" cy="249" r="4"/>
</g>
<g fill="#000000">
	<circle cx="349" cy="145" r="4"/>
</g>
<g fill="#000000">
	<circle cx="50" cy="136" r="4"/>
</g>
<g fill="#000000">
	<circle cx="204" cy="54" r="4"/>
</g>
<g fill="#000000">
	<circle cx="392" cy="227" r="4"/>
</g>
<g fill="#000000">
	<circle cx="295" cy="122" r="4"/>
</g>
<g fill="#000000">
	<circle cx="331" cy="204" r="4"/>
</g>
<g fill="#000000">
	<circle cx="330" cy="78" r="4"/>
</g>
<g fill="#000000">
	<circle cx="394" cy="63" r="4"/>
</g>
<g fill="#000000">
	<circle cx="394" cy="117" r="4"/>
</g>
<g fill="#000000">
	<circle cx="394" cy="172" r="4"/>
</g>
<g fill="#000000">
	<circle cx="167" cy="11" r="4"/>
</g>
<g fill="#000000">
	<circle cx="242" cy="11" r="4"/>
</g>
<g fill="#000000">
	<circle cx="4" cy="106" r="4"/>
</g>
<g fill="#000000">
	<circle cx="4" cy="215" r="4"/>
</g>
<g fill="#000000">
	<circle cx="104" cy="109" r="4"/>
</g>
<g fill="#000000">
	<circle cx="4" cy="161" r="4"/>
</g>
<g fill="#000000">
	<circle cx="66" cy="64" r="4"/>
</g>
<g fill="#000000">
	<circle cx="65" cy="198" r="4"/>
</g>
<g fill="#000000">
	<circle cx="4" cy="53" r="4"/>
</g>

</g>

</svg>
