<?xml version="1.0" encoding="utf-8"?>
<!-- Created with Hypercube (http://tumic.wz.cz/hypercube) -->

<svg width="400" height="300" viewBox="0 0 400 300" xmlns="http://www.w3.org/2000/svg" baseProfile="tiny">

<g font-family="Helvetica" font-weight="normal">

<g>
	<polygon points="250,102 241,102 245,94" fill="#aaff00"/>
	<line x1="177" y1="57" x2="244" y2="98" stroke="#aaff00" stroke-width="2"/>
</g>
<g>
	<polygon points="188,165 183,158 192,157" fill="#aaff00"/>
	<line x1="177" y1="57" x2="187" y2="158" stroke="#aaff00" stroke-width="2"/>
</g>
<g>
	<polygon points="93,43 101,40 100,49" fill="#aaff00"/>
	<line x1="177" y1="57" x2="100" y2="44" stroke="#aaff00" stroke-width="2"/>
</g>
<g>
	<polygon points="133,64 140,58 141,67" fill="#aaff00"/>
	<line x1="177" y1="57" x2="140" y2="63" stroke="#aaff00" stroke-width="2"/>
</g>
<g>
	<polygon points="192,166 194,158 200,164" fill="#aaff00"/>
	<line x1="254" y1="105" x2="197" y2="161" stroke="#aaff00" stroke-width="2"/>
</g>
<g>
	<polygon points="272,197 266,190 275,189" fill="#aaff00"/>
	<line x1="254" y1="105" x2="270" y2="190" stroke="#aaff00" stroke-width="2"/>
</g>
<g>
	<polygon points="170,106 178,102 178,111" fill="#aaff00"/>
	<line x1="254" y1="105" x2="177" y2="106" stroke="#aaff00" stroke-width="2"/>
</g>
<g>
	<polygon points="268,200 259,201 263,193" fill="#aaff00"/>
	<line x1="189" y1="170" x2="262" y2="197" stroke="#aaff00" stroke-width="2"/>
</g>
<g>
	<polygon points="136,266 135,257 143,261" fill="#aaff00"/>
	<line x1="189" y1="170" x2="139" y2="259" stroke="#aaff00" stroke-width="2"/>
</g>
<g>
	<polygon points="190,227 186,219 195,219" fill="#aaff00"/>
	<line x1="189" y1="170" x2="190" y2="220" stroke="#aaff00" stroke-width="2"/>
</g>
<g>
	<polygon points="123,121 132,122 127,129" fill="#aaff00"/>
	<line x1="189" y1="170" x2="129" y2="125" stroke="#aaff00" stroke-width="2"/>
</g>
<g>
	<polygon points="114,211 119,204 123,211" fill="#aaff00"/>
	<line x1="189" y1="170" x2="121" y2="208" stroke="#aaff00" stroke-width="2"/>
</g>
<g>
	<polygon points="85,95 94,96 89,103" fill="#aaff00"/>
	<line x1="189" y1="170" x2="91" y2="99" stroke="#aaff00" stroke-width="2"/>
</g>
<g>
	<polygon points="153,189 161,185 160,194" fill="#aaff00"/>
	<line x1="273" y1="202" x2="160" y2="190" stroke="#aaff00" stroke-width="2"/>
</g>
<g>
	<polygon points="124,117 130,111 133,120" fill="#aaff00"/>
	<line x1="166" y1="107" x2="131" y2="116" stroke="#aaff00" stroke-width="2"/>
</g>
<g>
	<polygon points="149,184 147,176 155,177" fill="#aaff00"/>
	<line x1="166" y1="107" x2="151" y2="177" stroke="#aaff00" stroke-width="2"/>
</g>
<g>
	<polygon points="85,159 87,150 94,156" fill="#aaff00"/>
	<line x1="120" y1="119" x2="90" y2="154" stroke="#aaff00" stroke-width="2"/>
</g>
<g>
	<polygon points="144,187 135,188 139,180" fill="#aaff00"/>
	<line x1="83" y1="163" x2="138" y2="184" stroke="#aaff00" stroke-width="2"/>
</g>
<g>
	<polygon points="118,114 111,109 119,105" fill="#aaff00"/>
	<line x1="89" y1="43" x2="115" y2="108" stroke="#aaff00" stroke-width="2"/>
</g>
<g>
	<polygon points="82,88 79,80 88,81" fill="#aaff00"/>
	<line x1="89" y1="43" x2="83" y2="81" stroke="#aaff00" stroke-width="2"/>
</g>
<g>
	<polygon points="120,114 117,106 126,107" fill="#aaff00"/>
	<line x1="129" y1="65" x2="121" y2="107" stroke="#aaff00" stroke-width="2"/>
</g>
<g>
	<polygon points="85,90 90,82 94,90" fill="#aaff00"/>
	<line x1="129" y1="65" x2="92" y2="87" stroke="#aaff00" stroke-width="2"/>
</g>
<g>
	<polygon points="145,191 141,199 136,191" fill="#aaff00"/>
	<line x1="111" y1="214" x2="139" y2="195" stroke="#aaff00" stroke-width="2"/>
</g>
<g>
	<polygon points="152,192 160,194 154,200" fill="#aaff00"/>
	<line x1="230" y1="272" x2="157" y2="197" stroke="#aaff00" stroke-width="2"/>
</g>
<g>
	<polygon points="276,293 267,294 271,285" fill="#aaff00"/>
	<line x1="230" y1="272" x2="270" y2="290" stroke="#aaff00" stroke-width="2"/>
</g>
<g>
	<polygon points="275,205 283,210 275,214" fill="#aaff00"/>
	<line x1="294" y1="237" x2="279" y2="212" stroke="#aaff00" stroke-width="2"/>
</g>
<g>
	<polygon points="233,269 238,262 242,270" fill="#aaff00"/>
	<line x1="294" y1="237" x2="240" y2="266" stroke="#aaff00" stroke-width="2"/>
</g>
<g>
	<polygon points="253,109 256,117 247,116" fill="#aaff00"/>
	<line x1="236" y1="198" x2="251" y2="116" stroke="#aaff00" stroke-width="2"/>
</g>
<g>
	<polygon points="192,172 201,172 197,180" fill="#aaff00"/>
	<line x1="236" y1="198" x2="199" y2="175" stroke="#aaff00" stroke-width="2"/>
</g>
<g>
	<polygon points="290,234 281,233 286,226" fill="#aaff00"/>
	<line x1="236" y1="198" x2="284" y2="230" stroke="#aaff00" stroke-width="2"/>
</g>
<g>
	<polygon points="256,108 265,112 257,117" fill="#aaff00"/>
	<line x1="295" y1="159" x2="261" y2="114" stroke="#aaff00" stroke-width="2"/>
</g>
<g>
	<polygon points="193,169 200,164 201,173" fill="#aaff00"/>
	<line x1="295" y1="159" x2="200" y2="168" stroke="#aaff00" stroke-width="2"/>
</g>
<g>
	<polygon points="294,232 289,224 298,224" fill="#aaff00"/>
	<line x1="295" y1="159" x2="294" y2="225" stroke="#aaff00" stroke-width="2"/>
</g>
<g>
	<polygon points="316,119 316,128 309,124" fill="#aaff00"/>
	<line x1="295" y1="159" x2="313" y2="126" stroke="#aaff00" stroke-width="2"/>
</g>
<g>
	<polygon points="275,198 274,189 282,193" fill="#aaff00"/>
	<line x1="319" y1="116" x2="278" y2="191" stroke="#aaff00" stroke-width="2"/>
</g>
<g>
	<polygon points="260,60 269,62 262,68" fill="#aaff00"/>
	<line x1="319" y1="116" x2="265" y2="65" stroke="#aaff00" stroke-width="2"/>
</g>
<g>
	<polygon points="151,185 153,176 160,182" fill="#aaff00"/>
	<line x1="257" y1="57" x2="156" y2="179" stroke="#aaff00" stroke-width="2"/>
</g>
<g>
	<polygon points="285,8 285,17 277,13" fill="#aaff00"/>
	<line x1="257" y1="57" x2="282" y2="15" stroke="#aaff00" stroke-width="2"/>
</g>
<g>
	<polygon points="249,105 241,109 241,100" fill="#aaff00"/>
	<line x1="217" y1="106" x2="242" y2="105" stroke="#aaff00" stroke-width="2"/>
</g>
<g>
	<polygon points="190,165 189,156 198,160" fill="#aaff00"/>
	<line x1="217" y1="106" x2="193" y2="159" stroke="#aaff00" stroke-width="2"/>
</g>
<g>
	<polygon points="253,109 256,117 247,116" fill="#aaff00"/>
	<line x1="245" y1="151" x2="251" y2="116" stroke="#aaff00" stroke-width="2"/>
</g>
<g>
	<polygon points="193,168 199,161 202,170" fill="#aaff00"/>
	<line x1="245" y1="151" x2="200" y2="166" stroke="#aaff00" stroke-width="2"/>
</g>
<g>
	<polygon points="250,107 246,115 241,108" fill="#aaff00"/>
	<line x1="204" y1="138" x2="244" y2="111" stroke="#aaff00" stroke-width="2"/>
</g>
<g>
	<polygon points="190,165 190,156 198,160" fill="#aaff00"/>
	<line x1="204" y1="138" x2="193" y2="159" stroke="#aaff00" stroke-width="2"/>
</g>
<g>
	<polygon points="85,293 90,285 94,293" fill="#aaff00"/>
	<line x1="134" y1="270" x2="91" y2="290" stroke="#aaff00" stroke-width="2"/>
</g>

<g fill="#000000">
	<circle cx="176" cy="56" r="4"/>
</g>
<g fill="#000000">
	<circle cx="253" cy="104" r="4"/>
</g>
<g fill="#000000">
	<circle cx="188" cy="169" r="4"/>
</g>
<g fill="#000000">
	<circle cx="88" cy="42" r="4"/>
</g>
<g fill="#000000">
	<circle cx="128" cy="64" r="4"/>
</g>
<g fill="#000000">
	<circle cx="216" cy="105" r="4"/>
</g>
<g fill="#000000">
	<circle cx="244" cy="150" r="4"/>
</g>
<g fill="#000000">
	<circle cx="203" cy="137" r="4"/>
</g>
<g fill="#000000">
	<circle cx="235" cy="197" r="4"/>
</g>
<g fill="#000000">
	<circle cx="293" cy="236" r="4"/>
</g>
<g fill="#000000">
	<circle cx="272" cy="201" r="4"/>
</g>
<g fill="#000000">
	<circle cx="165" cy="106" r="4"/>
</g>
<g fill="#000000">
	<circle cx="133" cy="269" r="4"/>
</g>
<g fill="#000000">
	<circle cx="190" cy="231" r="4"/>
</g>
<g fill="#000000">
	<circle cx="119" cy="118" r="4"/>
</g>
<g fill="#000000">
	<circle cx="110" cy="213" r="4"/>
</g>
<g fill="#000000">
	<circle cx="81" cy="92" r="4"/>
</g>
<g fill="#000000">
	<circle cx="294" cy="158" r="4"/>
</g>
<g fill="#000000">
	<circle cx="318" cy="115" r="4"/>
</g>
<g fill="#000000">
	<circle cx="229" cy="271" r="4"/>
</g>
<g fill="#000000">
	<circle cx="256" cy="56" r="4"/>
</g>
<g fill="#000000">
	<circle cx="148" cy="188" r="4"/>
</g>
<g fill="#000000">
	<circle cx="82" cy="162" r="4"/>
</g>
<g fill="#000000">
	<circle cx="80" cy="294" r="4"/>
</g>
<g fill="#000000">
	<circle cx="280" cy="294" r="4"/>
</g>
<g fill="#000000">
	<circle cx="287" cy="4" r="4"/>
</g>

</g>

</svg>
