<?xml version="1.0" encoding="utf-8"?>
<!-- Created with Hypercube (http://tumic.wz.cz/hypercube) -->

<svg width="400" height="300" viewBox="0 0 400 300" xmlns="http://www.w3.org/2000/svg" baseProfile="tiny">

<g font-family="Helvetica" font-weight="normal">

<g>
	<polygon points="355,82 347,87 347,78" fill="#aaff00"/>
	<line x1="272" y1="87" x2="348" y2="82" stroke="#aaff00" stroke-width="2"/>
</g>
<g>
	<polygon points="249,121 249,112 257,117" fill="#aaff00"/>
	<line x1="272" y1="87" x2="253" y2="115" stroke="#aaff00" stroke-width="2"/>
</g>
<g>
	<polygon points="241,53 249,56 243,62" fill="#aaff00"/>
	<line x1="272" y1="87" x2="245" y2="58" stroke="#aaff00" stroke-width="2"/>
</g>
<g>
	<polygon points="308,56 305,65 299,58" fill="#aaff00"/>
	<line x1="272" y1="87" x2="302" y2="61" stroke="#aaff00" stroke-width="2"/>
</g>
<g>
	<polygon points="374,125 367,119 376,116" fill="#aaff00"/>
	<line x1="360" y1="82" x2="372" y2="118" stroke="#aaff00" stroke-width="2"/>
</g>
<g>
	<polygon points="374,125 367,119 376,116" fill="#aaff00"/>
	<line x1="337" y1="8" x2="372" y2="118" stroke="#aaff00" stroke-width="2"/>
</g>
<g>
	<polygon points="332,7 324,12 324,3" fill="#aaff00"/>
	<line x1="213" y1="5" x2="325" y2="7" stroke="#aaff00" stroke-width="2"/>
</g>
<g>
	<polygon points="261,6 253,11 253,2" fill="#aaff00"/>
	<line x1="213" y1="5" x2="254" y2="6" stroke="#aaff00" stroke-width="2"/>
</g>
<g>
	<polygon points="271,82 266,75 275,74" fill="#aaff00"/>
	<line x1="266" y1="7" x2="271" y2="75" stroke="#aaff00" stroke-width="2"/>
</g>
<g>
	<polygon points="212,9 216,17 207,16" fill="#aaff00"/>
	<line x1="207" y1="87" x2="212" y2="16" stroke="#aaff00" stroke-width="2"/>
</g>
<g>
	<polygon points="210,90 218,92 212,98" fill="#aaff00"/>
	<line x1="286" y1="163" x2="215" y2="95" stroke="#aaff00" stroke-width="2"/>
</g>
<g>
	<polygon points="340,174 332,176 333,168" fill="#aaff00"/>
	<line x1="286" y1="163" x2="333" y2="172" stroke="#aaff00" stroke-width="2"/>
</g>
<g>
	<polygon points="309,124 309,133 301,129" fill="#aaff00"/>
	<line x1="286" y1="163" x2="305" y2="130" stroke="#aaff00" stroke-width="2"/>
</g>
<g>
	<polygon points="373,133 372,142 365,137" fill="#aaff00"/>
	<line x1="345" y1="175" x2="369" y2="139" stroke="#aaff00" stroke-width="2"/>
</g>
<g>
	<polygon points="275,89 284,91 278,98" fill="#aaff00"/>
	<line x1="312" y1="121" x2="280" y2="94" stroke="#aaff00" stroke-width="2"/>
</g>
<g>
	<polygon points="208,7 204,14 200,6" fill="#aaff00"/>
	<line x1="141" y1="42" x2="202" y2="10" stroke="#aaff00" stroke-width="2"/>
</g>
<g>
	<polygon points="53,92 62,92 58,100" fill="#aaff00"/>
	<line x1="105" y1="124" x2="59" y2="96" stroke="#aaff00" stroke-width="2"/>
</g>
<g>
	<polygon points="139,46 140,55 131,51" fill="#aaff00"/>
	<line x1="105" y1="124" x2="136" y2="52" stroke="#aaff00" stroke-width="2"/>
</g>
<g>
	<polygon points="75,192 74,183 82,187" fill="#aaff00"/>
	<line x1="105" y1="124" x2="78" y2="186" stroke="#aaff00" stroke-width="2"/>
</g>
<g>
	<polygon points="146,177 137,174 145,168" fill="#aaff00"/>
	<line x1="105" y1="124" x2="141" y2="171" stroke="#aaff00" stroke-width="2"/>
</g>
<g>
	<polygon points="159,115 152,121 151,112" fill="#aaff00"/>
	<line x1="105" y1="124" x2="152" y2="116" stroke="#aaff00" stroke-width="2"/>
</g>
<g>
	<polygon points="26,41 34,46 26,50" fill="#aaff00"/>
	<line x1="50" y1="90" x2="29" y2="47" stroke="#aaff00" stroke-width="2"/>
</g>
<g>
	<polygon points="103,258 95,253 103,249" fill="#aaff00"/>
	<line x1="74" y1="197" x2="100" y2="252" stroke="#aaff00" stroke-width="2"/>
</g>
<g>
	<polygon points="108,265 117,264 113,272" fill="#aaff00"/>
	<line x1="166" y1="295" x2="115" y2="268" stroke="#aaff00" stroke-width="2"/>
</g>
<g>
	<polygon points="168,291 170,282 177,288" fill="#aaff00"/>
	<line x1="212" y1="236" x2="173" y2="285" stroke="#aaff00" stroke-width="2"/>
</g>
<g>
	<polygon points="160,243 167,237 168,246" fill="#aaff00"/>
	<line x1="212" y1="236" x2="167" y2="242" stroke="#aaff00" stroke-width="2"/>
</g>
<g>
	<polygon points="302,231 294,236 294,227" fill="#aaff00"/>
	<line x1="212" y1="236" x2="295" y2="231" stroke="#aaff00" stroke-width="2"/>
</g>
<g>
	<polygon points="227,186 229,195 221,192" fill="#aaff00"/>
	<line x1="212" y1="236" x2="225" y2="193" stroke="#aaff00" stroke-width="2"/>
</g>
<g>
	<polygon points="109,261 114,254 118,262" fill="#aaff00"/>
	<line x1="156" y1="244" x2="115" y2="258" stroke="#aaff00" stroke-width="2"/>
</g>
<g>
	<polygon points="373,133 372,142 365,137" fill="#aaff00"/>
	<line x1="307" y1="231" x2="369" y2="139" stroke="#aaff00" stroke-width="2"/>
</g>
<g>
	<polygon points="270,91 271,100 262,96" fill="#aaff00"/>
	<line x1="229" y1="182" x2="267" y2="97" stroke="#aaff00" stroke-width="2"/>
</g>
<g>
	<polygon points="208,233 199,231 205,224" fill="#aaff00"/>
	<line x1="149" y1="181" x2="203" y2="228" stroke="#aaff00" stroke-width="2"/>
</g>
<g>
	<polygon points="267,88 261,94 258,85" fill="#aaff00"/>
	<line x1="164" y1="115" x2="260" y2="89" stroke="#aaff00" stroke-width="2"/>
</g>

<g fill="#000000">
	<circle cx="271" cy="86" r="4"/>
</g>
<g fill="#000000">
	<circle cx="359" cy="81" r="4"/>
</g>
<g fill="#000000">
	<circle cx="246" cy="124" r="4"/>
</g>
<g fill="#000000">
	<circle cx="237" cy="49" r="4"/>
</g>
<g fill="#000000">
	<circle cx="311" cy="53" r="4"/>
</g>
<g fill="#000000">
	<circle cx="375" cy="129" r="4"/>
</g>
<g fill="#000000">
	<circle cx="104" cy="262" r="4"/>
</g>
<g fill="#000000">
	<circle cx="24" cy="36" r="4"/>
</g>
<g fill="#000000">
	<circle cx="212" cy="4" r="4"/>
</g>
<g fill="#000000">
	<circle cx="336" cy="7" r="4"/>
</g>
<g fill="#000000">
	<circle cx="265" cy="6" r="4"/>
</g>
<g fill="#000000">
	<circle cx="285" cy="162" r="4"/>
</g>
<g fill="#000000">
	<circle cx="206" cy="86" r="4"/>
</g>
<g fill="#000000">
	<circle cx="344" cy="174" r="4"/>
</g>
<g fill="#000000">
	<circle cx="311" cy="120" r="4"/>
</g>
<g fill="#000000">
	<circle cx="104" cy="123" r="4"/>
</g>
<g fill="#000000">
	<circle cx="49" cy="89" r="4"/>
</g>
<g fill="#000000">
	<circle cx="140" cy="41" r="4"/>
</g>
<g fill="#000000">
	<circle cx="73" cy="196" r="4"/>
</g>
<g fill="#000000">
	<circle cx="148" cy="180" r="4"/>
</g>
<g fill="#000000">
	<circle cx="163" cy="114" r="4"/>
</g>
<g fill="#000000">
	<circle cx="211" cy="235" r="4"/>
</g>
<g fill="#000000">
	<circle cx="165" cy="294" r="4"/>
</g>
<g fill="#000000">
	<circle cx="155" cy="243" r="4"/>
</g>
<g fill="#000000">
	<circle cx="306" cy="230" r="4"/>
</g>
<g fill="#000000">
	<circle cx="228" cy="181" r="4"/>
</g>

</g>

</svg>
