<?xml version="1.0" encoding="utf-8"?>
<!-- Created with Hypercube (http://tumic.wz.cz/hypercube) -->

<svg width="400" height="300" viewBox="0 0 400 300" xmlns="http://www.w3.org/2000/svg" baseProfile="tiny">

<g font-family="Helvetica" font-weight="normal">

<g>
	<polygon points="10,161 9,152 17,156" fill="#aaff00"/>
	<line x1="37" y1="97" x2="13" y2="155" stroke="#aaff00" stroke-width="2"/>
</g>
<g>
	<polygon points="10,52 18,57 10,61" fill="#aaff00"/>
	<line x1="37" y1="97" x2="14" y2="59" stroke="#aaff00" stroke-width="2"/>
</g>
<g>
	<polygon points="54,186 45,187 49,178" fill="#aaff00"/>
	<line x1="9" y1="166" x2="48" y2="183" stroke="#aaff00" stroke-width="2"/>
</g>
<g>
	<polygon points="8,170 13,178 4,178" fill="#aaff00"/>
	<line x1="8" y1="234" x2="8" y2="177" stroke="#aaff00" stroke-width="2"/>
</g>
<g>
	<polygon points="8,286 3,278 12,278" fill="#aaff00"/>
	<line x1="8" y1="234" x2="8" y2="279" stroke="#aaff00" stroke-width="2"/>
</g>
<g>
	<polygon points="41,95 46,88 50,96" fill="#aaff00"/>
	<line x1="103" y1="71" x2="47" y2="92" stroke="#aaff00" stroke-width="2"/>
</g>
<g>
	<polygon points="108,15 112,23 103,22" fill="#aaff00"/>
	<line x1="103" y1="71" x2="107" y2="22" stroke="#aaff00" stroke-width="2"/>
</g>
<g>
	<polygon points="184,112 176,113 180,105" fill="#aaff00"/>
	<line x1="103" y1="71" x2="178" y2="109" stroke="#aaff00" stroke-width="2"/>
</g>
<g>
	<polygon points="158,5 151,10 150,1" fill="#aaff00"/>
	<line x1="109" y1="11" x2="151" y2="6" stroke="#aaff00" stroke-width="2"/>
</g>
<g>
	<polygon points="172,217 169,209 178,210" fill="#aaff00"/>
	<line x1="189" y1="115" x2="173" y2="210" stroke="#aaff00" stroke-width="2"/>
</g>
<g>
	<polygon points="257,70 253,78 248,70" fill="#aaff00"/>
	<line x1="189" y1="115" x2="251" y2="74" stroke="#aaff00" stroke-width="2"/>
</g>
<g>
	<polygon points="218,154 210,150 217,145" fill="#aaff00"/>
	<line x1="189" y1="115" x2="214" y2="148" stroke="#aaff00" stroke-width="2"/>
</g>
<g>
	<polygon points="264,124 256,127 257,119" fill="#aaff00"/>
	<line x1="189" y1="115" x2="257" y2="123" stroke="#aaff00" stroke-width="2"/>
</g>
<g>
	<polygon points="143,123 150,117 151,126" fill="#aaff00"/>
	<line x1="189" y1="115" x2="150" y2="121" stroke="#aaff00" stroke-width="2"/>
</g>
<g>
	<polygon points="178,185 181,193 172,192" fill="#aaff00"/>
	<line x1="172" y1="222" x2="177" y2="192" stroke="#aaff00" stroke-width="2"/>
</g>
<g>
	<polygon points="182,178 187,171 191,179" fill="#aaff00"/>
	<line x1="221" y1="158" x2="189" y2="175" stroke="#aaff00" stroke-width="2"/>
</g>
<g>
	<polygon points="271,231 266,223 275,223" fill="#aaff00"/>
	<line x1="272" y1="182" x2="271" y2="224" stroke="#aaff00" stroke-width="2"/>
</g>
<g>
	<polygon points="225,159 234,159 230,167" fill="#aaff00"/>
	<line x1="272" y1="182" x2="231" y2="162" stroke="#aaff00" stroke-width="2"/>
</g>
<g>
	<polygon points="269,129 274,137 265,137" fill="#aaff00"/>
	<line x1="272" y1="182" x2="269" y2="136" stroke="#aaff00" stroke-width="2"/>
</g>
<g>
	<polygon points="175,224 184,224 180,232" fill="#aaff00"/>
	<line x1="233" y1="260" x2="181" y2="228" stroke="#aaff00" stroke-width="2"/>
</g>
<g>
	<polygon points="189,292 193,284 198,291" fill="#aaff00"/>
	<line x1="233" y1="260" x2="195" y2="288" stroke="#aaff00" stroke-width="2"/>
</g>
<g>
	<polygon points="267,238 263,246 258,238" fill="#aaff00"/>
	<line x1="233" y1="260" x2="261" y2="242" stroke="#aaff00" stroke-width="2"/>
</g>
<g>
	<polygon points="236,257 241,249 245,257" fill="#aaff00"/>
	<line x1="318" y1="207" x2="242" y2="253" stroke="#aaff00" stroke-width="2"/>
</g>
<g>
	<polygon points="275,184 284,183 280,191" fill="#aaff00"/>
	<line x1="318" y1="207" x2="282" y2="187" stroke="#aaff00" stroke-width="2"/>
</g>
<g>
	<polygon points="326,124 330,132 321,131" fill="#aaff00"/>
	<line x1="318" y1="207" x2="325" y2="131" stroke="#aaff00" stroke-width="2"/>
</g>
<g>
	<polygon points="366,240 357,239 362,232" fill="#aaff00"/>
	<line x1="318" y1="207" x2="360" y2="236" stroke="#aaff00" stroke-width="2"/>
</g>
<g>
	<polygon points="264,70 273,72 267,79" fill="#aaff00"/>
	<line x1="327" y1="120" x2="270" y2="75" stroke="#aaff00" stroke-width="2"/>
</g>
<g>
	<polygon points="273,124 280,119 281,128" fill="#aaff00"/>
	<line x1="327" y1="120" x2="280" y2="123" stroke="#aaff00" stroke-width="2"/>
</g>
<g>
	<polygon points="387,135 378,138 381,129" fill="#aaff00"/>
	<line x1="327" y1="120" x2="380" y2="134" stroke="#aaff00" stroke-width="2"/>
</g>
<g>
	<polygon points="363,69 362,78 355,73" fill="#aaff00"/>
	<line x1="327" y1="120" x2="359" y2="75" stroke="#aaff00" stroke-width="2"/>
</g>
<g>
	<polygon points="281,11 283,20 274,17" fill="#aaff00"/>
	<line x1="261" y1="68" x2="279" y2="17" stroke="#aaff00" stroke-width="2"/>
</g>

<g fill="#000000">
	<circle cx="36" cy="96" r="4"/>
</g>
<g fill="#000000">
	<circle cx="108" cy="10" r="4"/>
</g>
<g fill="#000000">
	<circle cx="188" cy="114" r="4"/>
</g>
<g fill="#000000">
	<circle cx="171" cy="221" r="4"/>
</g>
<g fill="#000000">
	<circle cx="178" cy="180" r="4"/>
</g>
<g fill="#000000">
	<circle cx="232" cy="259" r="4"/>
</g>
<g fill="#000000">
	<circle cx="185" cy="294" r="4"/>
</g>
<g fill="#000000">
	<circle cx="270" cy="235" r="4"/>
</g>
<g fill="#000000">
	<circle cx="260" cy="67" r="4"/>
</g>
<g fill="#000000">
	<circle cx="282" cy="6" r="4"/>
</g>
<g fill="#000000">
	<circle cx="220" cy="157" r="4"/>
</g>
<g fill="#000000">
	<circle cx="271" cy="181" r="4"/>
</g>
<g fill="#000000">
	<circle cx="268" cy="124" r="4"/>
</g>
<g fill="#000000">
	<circle cx="8" cy="165" r="4"/>
</g>
<g fill="#000000">
	<circle cx="7" cy="48" r="4"/>
</g>
<g fill="#000000">
	<circle cx="162" cy="4" r="4"/>
</g>
<g fill="#000000">
	<circle cx="138" cy="123" r="4"/>
</g>
<g fill="#000000">
	<circle cx="58" cy="187" r="4"/>
</g>
<g fill="#000000">
	<circle cx="102" cy="70" r="4"/>
</g>
<g fill="#000000">
	<circle cx="317" cy="206" r="4"/>
</g>
<g fill="#000000">
	<circle cx="326" cy="119" r="4"/>
</g>
<g fill="#000000">
	<circle cx="369" cy="242" r="4"/>
</g>
<g fill="#000000">
	<circle cx="391" cy="136" r="4"/>
</g>
<g fill="#000000">
	<circle cx="365" cy="65" r="4"/>
</g>
<g fill="#000000">
	<circle cx="7" cy="233" r="4"/>
</g>
<g fill="#000000">
	<circle cx="7" cy="290" r="4"/>
</g>

</g>

</svg>
