<?xml version="1.0" encoding="utf-8"?>
<!-- Created with Hypercube (http://tumic.wz.cz/hypercube) -->

<svg width="400" height="300" viewBox="0 0 400 300" xmlns="http://www.w3.org/2000/svg" baseProfile="tiny">

<g font-family="Helvetica" font-weight="normal">

<g>
	<polygon points="256,237 249,232 256,228" fill="#aaff00"/>
	<line x1="201" y1="136" x2="253" y2="230" stroke="#aaff00" stroke-width="2"/>
</g>
<g>
	<polygon points="96,59 105,60 100,67" fill="#aaff00"/>
	<line x1="201" y1="136" x2="102" y2="63" stroke="#aaff00" stroke-width="2"/>
</g>
<g>
	<polygon points="136,245 136,236 144,240" fill="#aaff00"/>
	<line x1="201" y1="136" x2="139" y2="238" stroke="#aaff00" stroke-width="2"/>
</g>
<g>
	<polygon points="229,191 222,186 230,182" fill="#aaff00"/>
	<line x1="201" y1="136" x2="226" y2="184" stroke="#aaff00" stroke-width="2"/>
</g>
<g>
	<polygon points="240,136 232,141 232,132" fill="#aaff00"/>
	<line x1="201" y1="136" x2="233" y2="136" stroke="#aaff00" stroke-width="2"/>
</g>
<g>
	<polygon points="142,31 149,36 142,40" fill="#aaff00"/>
	<line x1="201" y1="136" x2="145" y2="38" stroke="#aaff00" stroke-width="2"/>
</g>
<g>
	<polygon points="186,224 183,216 192,217" fill="#aaff00"/>
	<line x1="201" y1="136" x2="187" y2="217" stroke="#aaff00" stroke-width="2"/>
</g>
<g>
	<polygon points="87,201 92,193 96,201" fill="#aaff00"/>
	<line x1="201" y1="136" x2="94" y2="198" stroke="#aaff00" stroke-width="2"/>
</g>
<g>
	<polygon points="214,92 216,101 208,98" fill="#aaff00"/>
	<line x1="201" y1="136" x2="212" y2="99" stroke="#aaff00" stroke-width="2"/>
</g>
<g>
	<polygon points="107,153 114,147 115,156" fill="#aaff00"/>
	<line x1="201" y1="136" x2="114" y2="151" stroke="#aaff00" stroke-width="2"/>
</g>
<g>
	<polygon points="287,31 285,40 278,34" fill="#aaff00"/>
	<line x1="201" y1="136" x2="282" y2="37" stroke="#aaff00" stroke-width="2"/>
</g>
<g>
	<polygon points="70,119 78,116 77,125" fill="#aaff00"/>
	<line x1="201" y1="136" x2="77" y2="120" stroke="#aaff00" stroke-width="2"/>
</g>
<g>
	<polygon points="212,267 207,260 216,259" fill="#aaff00"/>
	<line x1="201" y1="136" x2="211" y2="260" stroke="#aaff00" stroke-width="2"/>
</g>
<g>
	<polygon points="262,80 259,88 253,81" fill="#aaff00"/>
	<line x1="201" y1="136" x2="257" y2="84" stroke="#aaff00" stroke-width="2"/>
</g>
<g>
	<polygon points="235,32 237,41 228,38" fill="#aaff00"/>
	<line x1="201" y1="136" x2="233" y2="39" stroke="#aaff00" stroke-width="2"/>
</g>
<g>
	<polygon points="282,122 275,128 274,119" fill="#aaff00"/>
	<line x1="201" y1="136" x2="275" y2="123" stroke="#aaff00" stroke-width="2"/>
</g>
<g>
	<polygon points="159,134 167,130 167,139" fill="#aaff00"/>
	<line x1="201" y1="136" x2="166" y2="134" stroke="#aaff00" stroke-width="2"/>
</g>
<g>
	<polygon points="321,85 316,92 312,84" fill="#aaff00"/>
	<line x1="201" y1="136" x2="315" y2="88" stroke="#aaff00" stroke-width="2"/>
</g>
<g>
	<polygon points="275,173 266,174 271,166" fill="#aaff00"/>
	<line x1="201" y1="136" x2="269" y2="170" stroke="#aaff00" stroke-width="2"/>
</g>
<g>
	<polygon points="331,151 323,155 324,146" fill="#aaff00"/>
	<line x1="201" y1="136" x2="324" y2="150" stroke="#aaff00" stroke-width="2"/>
</g>
<g>
	<polygon points="171,81 178,86 170,90" fill="#aaff00"/>
	<line x1="201" y1="136" x2="174" y2="88" stroke="#aaff00" stroke-width="2"/>
</g>
<g>
	<polygon points="145,189 147,181 153,187" fill="#aaff00"/>
	<line x1="201" y1="136" x2="150" y2="184" stroke="#aaff00" stroke-width="2"/>
</g>
<g>
	<polygon points="188,173 186,164 195,167" fill="#aaff00"/>
	<line x1="201" y1="136" x2="190" y2="166" stroke="#aaff00" stroke-width="2"/>
</g>
<g>
	<polygon points="126,99 135,99 131,107" fill="#aaff00"/>
	<line x1="201" y1="136" x2="132" y2="103" stroke="#aaff00" stroke-width="2"/>
</g>
<g>
	<polygon points="308,213 299,212 304,205" fill="#aaff00"/>
	<line x1="201" y1="136" x2="302" y2="209" stroke="#aaff00" stroke-width="2"/>
</g>
<g>
	<polygon points="189,32 194,39 185,40" fill="#aaff00"/>
	<line x1="201" y1="136" x2="190" y2="39" stroke="#aaff00" stroke-width="2"/>
</g>

<g fill="#000000">
	<circle cx="200" cy="135" r="4"/>
</g>
<g fill="#000000">
	<circle cx="258" cy="240" r="4"/>
</g>
<g fill="#000000">
	<circle cx="92" cy="56" r="4"/>
</g>
<g fill="#000000">
	<circle cx="133" cy="248" r="4"/>
</g>
<g fill="#000000">
	<circle cx="231" cy="194" r="4"/>
</g>
<g fill="#000000">
	<circle cx="244" cy="136" r="4"/>
</g>
<g fill="#000000">
	<circle cx="139" cy="27" r="4"/>
</g>
<g fill="#000000">
	<circle cx="185" cy="228" r="4"/>
</g>
<g fill="#000000">
	<circle cx="83" cy="203" r="4"/>
</g>
<g fill="#000000">
	<circle cx="215" cy="87" r="4"/>
</g>
<g fill="#000000">
	<circle cx="102" cy="153" r="4"/>
</g>
<g fill="#000000">
	<circle cx="289" cy="27" r="4"/>
</g>
<g fill="#000000">
	<circle cx="65" cy="118" r="4"/>
</g>
<g fill="#000000">
	<circle cx="212" cy="271" r="4"/>
</g>
<g fill="#000000">
	<circle cx="265" cy="76" r="4"/>
</g>
<g fill="#000000">
	<circle cx="236" cy="27" r="4"/>
</g>
<g fill="#000000">
	<circle cx="286" cy="121" r="4"/>
</g>
<g fill="#000000">
	<circle cx="154" cy="133" r="4"/>
</g>
<g fill="#000000">
	<circle cx="325" cy="83" r="4"/>
</g>
<g fill="#000000">
	<circle cx="279" cy="175" r="4"/>
</g>
<g fill="#000000">
	<circle cx="335" cy="151" r="4"/>
</g>
<g fill="#000000">
	<circle cx="168" cy="77" r="4"/>
</g>
<g fill="#000000">
	<circle cx="141" cy="192" r="4"/>
</g>
<g fill="#000000">
	<circle cx="186" cy="177" r="4"/>
</g>
<g fill="#000000">
	<circle cx="121" cy="97" r="4"/>
</g>
<g fill="#000000">
	<circle cx="311" cy="215" r="4"/>
</g>
<g fill="#000000">
	<circle cx="188" cy="27" r="4"/>
</g>

</g>

</svg>
