<?xml version="1.0" encoding="utf-8"?>
<!-- Created with Hypercube (http://tumic.wz.cz/hypercube) -->

<svg width="400" height="300" viewBox="0 0 400 300" xmlns="http://www.w3.org/2000/svg" baseProfile="tiny">

<g font-family="Helvetica" font-weight="normal">

<g>
	<polygon points="194,112 187,118 186,109" fill="#aaff00"/>
	<line x1="156" y1="118" x2="187" y2="113" stroke="#aaff00" stroke-width="2"/>
</g>
<g>
	<polygon points="279,220 270,218 276,211" fill="#aaff00"/>
	<line x1="156" y1="118" x2="273" y2="215" stroke="#aaff00" stroke-width="2"/>
</g>
<g>
	<polygon points="97,104 106,101 103,110" fill="#aaff00"/>
	<line x1="156" y1="118" x2="104" y2="105" stroke="#aaff00" stroke-width="2"/>
</g>
<g>
	<polygon points="101,50 110,53 103,59" fill="#aaff00"/>
	<line x1="156" y1="118" x2="106" y2="56" stroke="#aaff00" stroke-width="2"/>
</g>
<g>
	<polygon points="157,47 162,55 153,55" fill="#aaff00"/>
	<line x1="156" y1="118" x2="157" y2="54" stroke="#aaff00" stroke-width="2"/>
</g>
<g>
	<polygon points="231,145 223,143 229,137" fill="#aaff00"/>
	<line x1="199" y1="112" x2="226" y2="140" stroke="#aaff00" stroke-width="2"/>
</g>
<g>
	<polygon points="237,145 237,136 245,141" fill="#aaff00"/>
	<line x1="297" y1="53" x2="241" y2="139" stroke="#aaff00" stroke-width="2"/>
</g>
<g>
	<polygon points="300,50 305,42 309,50" fill="#aaff00"/>
	<line x1="349" y1="22" x2="307" y2="47" stroke="#aaff00" stroke-width="2"/>
</g>
<g>
	<polygon points="349,26 356,32 347,34" fill="#aaff00"/>
	<line x1="361" y1="75" x2="351" y2="33" stroke="#aaff00" stroke-width="2"/>
</g>
<g>
	<polygon points="293,161 293,152 301,156" fill="#aaff00"/>
	<line x1="311" y1="126" x2="297" y2="155" stroke="#aaff00" stroke-width="2"/>
</g>
<g>
	<polygon points="357,78 355,86 349,80" fill="#aaff00"/>
	<line x1="311" y1="126" x2="352" y2="83" stroke="#aaff00" stroke-width="2"/>
</g>
<g>
	<polygon points="261,103 270,102 266,111" fill="#aaff00"/>
	<line x1="311" y1="126" x2="267" y2="106" stroke="#aaff00" stroke-width="2"/>
</g>
<g>
	<polygon points="248,262 247,253 256,257" fill="#aaff00"/>
	<line x1="311" y1="126" x2="251" y2="256" stroke="#aaff00" stroke-width="2"/>
</g>
<g>
	<polygon points="367,151 358,152 362,143" fill="#aaff00"/>
	<line x1="311" y1="126" x2="361" y2="148" stroke="#aaff00" stroke-width="2"/>
</g>
<g>
	<polygon points="229,63 238,64 233,72" fill="#aaff00"/>
	<line x1="311" y1="126" x2="235" y2="68" stroke="#aaff00" stroke-width="2"/>
</g>
<g>
	<polygon points="239,150 248,148 245,156" fill="#aaff00"/>
	<line x1="292" y1="166" x2="246" y2="152" stroke="#aaff00" stroke-width="2"/>
</g>
<g>
	<polygon points="160,117 167,111 168,120" fill="#aaff00"/>
	<line x1="257" y1="102" x2="167" y2="116" stroke="#aaff00" stroke-width="2"/>
</g>
<g>
	<polygon points="143,279 150,274 151,282" fill="#aaff00"/>
	<line x1="247" y1="267" x2="150" y2="278" stroke="#aaff00" stroke-width="2"/>
</g>
<g>
	<polygon points="153,231 155,240 147,237" fill="#aaff00"/>
	<line x1="139" y1="280" x2="151" y2="238" stroke="#aaff00" stroke-width="2"/>
</g>
<g>
	<polygon points="112,204 119,210 110,213" fill="#aaff00"/>
	<line x1="139" y1="280" x2="114" y2="211" stroke="#aaff00" stroke-width="2"/>
</g>
<g>
	<polygon points="231,152 229,160 223,154" fill="#aaff00"/>
	<line x1="155" y1="227" x2="226" y2="157" stroke="#aaff00" stroke-width="2"/>
</g>
<g>
	<polygon points="153,121 154,130 146,126" fill="#aaff00"/>
	<line x1="111" y1="200" x2="150" y2="128" stroke="#aaff00" stroke-width="2"/>
</g>
<g>
	<polygon points="134,279 126,283 127,274" fill="#aaff00"/>
	<line x1="69" y1="273" x2="127" y2="278" stroke="#aaff00" stroke-width="2"/>
</g>
<g>
	<polygon points="66,269 57,265 65,260" fill="#aaff00"/>
	<line x1="29" y1="221" x2="61" y2="263" stroke="#aaff00" stroke-width="2"/>
</g>
<g>
	<polygon points="59,160 60,169 52,165" fill="#aaff00"/>
	<line x1="29" y1="221" x2="56" y2="167" stroke="#aaff00" stroke-width="2"/>
</g>
<g>
	<polygon points="151,119 146,126 142,118" fill="#aaff00"/>
	<line x1="62" y1="157" x2="145" y2="122" stroke="#aaff00" stroke-width="2"/>
</g>
<g>
	<polygon points="143,279 150,274 151,282" fill="#aaff00"/>
	<line x1="187" y1="274" x2="150" y2="278" stroke="#aaff00" stroke-width="2"/>
</g>
<g>
	<polygon points="232,198 229,207 223,200" fill="#aaff00"/>
	<line x1="202" y1="225" x2="227" y2="203" stroke="#aaff00" stroke-width="2"/>
</g>
<g>
	<polygon points="188,269 186,260 194,263" fill="#aaff00"/>
	<line x1="202" y1="225" x2="190" y2="262" stroke="#aaff00" stroke-width="2"/>
</g>
<g>
	<polygon points="171,174 179,179 171,183" fill="#aaff00"/>
	<line x1="202" y1="225" x2="175" y2="180" stroke="#aaff00" stroke-width="2"/>
</g>
<g>
	<polygon points="235,153 239,161 230,161" fill="#aaff00"/>
	<line x1="236" y1="196" x2="235" y2="160" stroke="#aaff00" stroke-width="2"/>
</g>
<g>
	<polygon points="157,122 163,128 154,131" fill="#aaff00"/>
	<line x1="169" y1="171" x2="158" y2="129" stroke="#aaff00" stroke-width="2"/>
</g>
<g>
	<polygon points="372,204 367,196 376,196" fill="#aaff00"/>
	<line x1="372" y1="153" x2="372" y2="197" stroke="#aaff00" stroke-width="2"/>
</g>
<g>
	<polygon points="159,115 162,106 168,113" fill="#aaff00"/>
	<line x1="226" y1="61" x2="165" y2="110" stroke="#aaff00" stroke-width="2"/>
</g>
<g>
	<polygon points="322,276 314,272 321,267" fill="#aaff00"/>
	<line x1="283" y1="223" x2="318" y2="270" stroke="#aaff00" stroke-width="2"/>
</g>

<g fill="#000000">
	<circle cx="155" cy="117" r="4"/>
</g>
<g fill="#000000">
	<circle cx="198" cy="111" r="4"/>
</g>
<g fill="#000000">
	<circle cx="282" cy="222" r="4"/>
</g>
<g fill="#000000">
	<circle cx="92" cy="102" r="4"/>
</g>
<g fill="#000000">
	<circle cx="98" cy="46" r="4"/>
</g>
<g fill="#000000">
	<circle cx="157" cy="42" r="4"/>
</g>
<g fill="#000000">
	<circle cx="234" cy="148" r="4"/>
</g>
<g fill="#000000">
	<circle cx="348" cy="21" r="4"/>
</g>
<g fill="#000000">
	<circle cx="296" cy="52" r="4"/>
</g>
<g fill="#000000">
	<circle cx="138" cy="279" r="4"/>
</g>
<g fill="#000000">
	<circle cx="154" cy="226" r="4"/>
</g>
<g fill="#000000">
	<circle cx="110" cy="199" r="4"/>
</g>
<g fill="#000000">
	<circle cx="28" cy="220" r="4"/>
</g>
<g fill="#000000">
	<circle cx="68" cy="272" r="4"/>
</g>
<g fill="#000000">
	<circle cx="61" cy="156" r="4"/>
</g>
<g fill="#000000">
	<circle cx="310" cy="125" r="4"/>
</g>
<g fill="#000000">
	<circle cx="291" cy="165" r="4"/>
</g>
<g fill="#000000">
	<circle cx="360" cy="74" r="4"/>
</g>
<g fill="#000000">
	<circle cx="256" cy="101" r="4"/>
</g>
<g fill="#000000">
	<circle cx="246" cy="266" r="4"/>
</g>
<g fill="#000000">
	<circle cx="371" cy="152" r="4"/>
</g>
<g fill="#000000">
	<circle cx="225" cy="60" r="4"/>
</g>
<g fill="#000000">
	<circle cx="324" cy="279" r="4"/>
</g>
<g fill="#000000">
	<circle cx="201" cy="224" r="4"/>
</g>
<g fill="#000000">
	<circle cx="235" cy="195" r="4"/>
</g>
<g fill="#000000">
	<circle cx="186" cy="273" r="4"/>
</g>
<g fill="#000000">
	<circle cx="168" cy="170" r="4"/>
</g>
<g fill="#000000">
	<circle cx="371" cy="208" r="4"/>
</g>

</g>

</svg>
