<?xml version="1.0" encoding="utf-8"?>
<!-- Created with Hypercube (http://tumic.wz.cz/hypercube) -->

<svg width="400" height="300" viewBox="0 0 400 300" xmlns="http://www.w3.org/2000/svg" baseProfile="tiny">

<g font-family="Helvetica" font-weight="normal">

<g>
	<polygon points="112,163 118,170 109,171" fill="#aaff00"/>
	<line x1="127" y1="258" x2="113" y2="170" stroke="#aaff00" stroke-width="2"/>
</g>
<g>
	<polygon points="91,291 93,283 100,289" fill="#aaff00"/>
	<line x1="127" y1="258" x2="96" y2="286" stroke="#aaff00" stroke-width="2"/>
</g>
<g>
	<polygon points="163,291 154,289 161,283" fill="#aaff00"/>
	<line x1="127" y1="258" x2="158" y2="287" stroke="#aaff00" stroke-width="2"/>
</g>
<g>
	<polygon points="166,71 166,62 174,66" fill="#aaff00"/>
	<line x1="193" y1="16" x2="169" y2="65" stroke="#aaff00" stroke-width="2"/>
</g>
<g>
	<polygon points="243,5 236,11 235,2" fill="#aaff00"/>
	<line x1="193" y1="16" x2="236" y2="7" stroke="#aaff00" stroke-width="2"/>
</g>
<g>
	<polygon points="146,5 154,3 153,11" fill="#aaff00"/>
	<line x1="193" y1="16" x2="153" y2="7" stroke="#aaff00" stroke-width="2"/>
</g>
<g>
	<polygon points="7,263 6,254 14,258" fill="#aaff00"/>
	<line x1="31" y1="219" x2="10" y2="256" stroke="#aaff00" stroke-width="2"/>
</g>
<g>
	<polygon points="306,197 297,200 300,191" fill="#aaff00"/>
	<line x1="225" y1="175" x2="299" y2="195" stroke="#aaff00" stroke-width="2"/>
</g>
<g>
	<polygon points="298,142 304,149 296,150" fill="#aaff00"/>
	<line x1="311" y1="199" x2="300" y2="149" stroke="#aaff00" stroke-width="2"/>
</g>
<g>
	<polygon points="315,263 310,256 319,255" fill="#aaff00"/>
	<line x1="311" y1="199" x2="315" y2="256" stroke="#aaff00" stroke-width="2"/>
</g>
<g>
	<polygon points="366,134 364,143 357,137" fill="#aaff00"/>
	<line x1="311" y1="199" x2="361" y2="139" stroke="#aaff00" stroke-width="2"/>
</g>
<g>
	<polygon points="370,237 361,237 366,229" fill="#aaff00"/>
	<line x1="311" y1="199" x2="364" y2="233" stroke="#aaff00" stroke-width="2"/>
</g>
<g>
	<polygon points="269,238 271,230 277,236" fill="#aaff00"/>
	<line x1="311" y1="199" x2="274" y2="233" stroke="#aaff00" stroke-width="2"/>
</g>
<g>
	<polygon points="300,84 304,92 295,92" fill="#aaff00"/>
	<line x1="298" y1="138" x2="300" y2="91" stroke="#aaff00" stroke-width="2"/>
</g>
<g>
	<polygon points="392,168 384,164 392,159" fill="#aaff00"/>
	<line x1="369" y1="131" x2="388" y2="162" stroke="#aaff00" stroke-width="2"/>
</g>
<g>
	<polygon points="393,80 393,89 385,85" fill="#aaff00"/>
	<line x1="369" y1="131" x2="390" y2="86" stroke="#aaff00" stroke-width="2"/>
</g>
<g>
	<polygon points="393,290 386,285 394,281" fill="#aaff00"/>
	<line x1="374" y1="240" x2="390" y2="284" stroke="#aaff00" stroke-width="2"/>
</g>
<g>
	<polygon points="55,90 64,93 57,99" fill="#aaff00"/>
	<line x1="112" y1="159" x2="60" y2="96" stroke="#aaff00" stroke-width="2"/>
</g>
<g>
	<polygon points="162,79 162,88 154,83" fill="#aaff00"/>
	<line x1="112" y1="159" x2="158" y2="85" stroke="#aaff00" stroke-width="2"/>
</g>
<g>
	<polygon points="69,149 77,147 76,155" fill="#aaff00"/>
	<line x1="112" y1="159" x2="76" y2="151" stroke="#aaff00" stroke-width="2"/>
</g>
<g>
	<polygon points="13,144 21,141 20,150" fill="#aaff00"/>
	<line x1="112" y1="159" x2="20" y2="145" stroke="#aaff00" stroke-width="2"/>
</g>
<g>
	<polygon points="110,105 114,113 105,113" fill="#aaff00"/>
	<line x1="112" y1="159" x2="110" y2="112" stroke="#aaff00" stroke-width="2"/>
</g>
<g>
	<polygon points="34,216 38,208 43,215" fill="#aaff00"/>
	<line x1="112" y1="159" x2="40" y2="212" stroke="#aaff00" stroke-width="2"/>
</g>
<g>
	<polygon points="220,174 212,177 213,168" fill="#aaff00"/>
	<line x1="112" y1="159" x2="213" y2="173" stroke="#aaff00" stroke-width="2"/>
</g>
<g>
	<polygon points="160,143 154,150 151,141" fill="#aaff00"/>
	<line x1="112" y1="159" x2="153" y2="145" stroke="#aaff00" stroke-width="2"/>
</g>
<g>
	<polygon points="156,200 147,198 154,192" fill="#aaff00"/>
	<line x1="112" y1="159" x2="151" y2="196" stroke="#aaff00" stroke-width="2"/>
</g>
<g>
	<polygon points="93,203 92,194 100,198" fill="#aaff00"/>
	<line x1="112" y1="159" x2="96" y2="197" stroke="#aaff00" stroke-width="2"/>
</g>

<g fill="#000000">
	<circle cx="126" cy="257" r="4"/>
</g>
<g fill="#000000">
	<circle cx="111" cy="158" r="4"/>
</g>
<g fill="#000000">
	<circle cx="87" cy="294" r="4"/>
</g>
<g fill="#000000">
	<circle cx="166" cy="294" r="4"/>
</g>
<g fill="#000000">
	<circle cx="52" cy="86" r="4"/>
</g>
<g fill="#000000">
	<circle cx="192" cy="15" r="4"/>
</g>
<g fill="#000000">
	<circle cx="164" cy="75" r="4"/>
</g>
<g fill="#000000">
	<circle cx="247" cy="4" r="4"/>
</g>
<g fill="#000000">
	<circle cx="141" cy="4" r="4"/>
</g>
<g fill="#000000">
	<circle cx="64" cy="148" r="4"/>
</g>
<g fill="#000000">
	<circle cx="8" cy="143" r="4"/>
</g>
<g fill="#000000">
	<circle cx="109" cy="100" r="4"/>
</g>
<g fill="#000000">
	<circle cx="30" cy="218" r="4"/>
</g>
<g fill="#000000">
	<circle cx="4" cy="266" r="4"/>
</g>
<g fill="#000000">
	<circle cx="224" cy="174" r="4"/>
</g>
<g fill="#000000">
	<circle cx="310" cy="198" r="4"/>
</g>
<g fill="#000000">
	<circle cx="297" cy="137" r="4"/>
</g>
<g fill="#000000">
	<circle cx="315" cy="267" r="4"/>
</g>
<g fill="#000000">
	<circle cx="368" cy="130" r="4"/>
</g>
<g fill="#000000">
	<circle cx="373" cy="239" r="4"/>
</g>
<g fill="#000000">
	<circle cx="265" cy="241" r="4"/>
</g>
<g fill="#000000">
	<circle cx="300" cy="79" r="4"/>
</g>
<g fill="#000000">
	<circle cx="394" cy="171" r="4"/>
</g>
<g fill="#000000">
	<circle cx="394" cy="75" r="4"/>
</g>
<g fill="#000000">
	<circle cx="394" cy="294" r="4"/>
</g>
<g fill="#000000">
	<circle cx="164" cy="141" r="4"/>
</g>
<g fill="#000000">
	<circle cx="159" cy="203" r="4"/>
</g>
<g fill="#000000">
	<circle cx="91" cy="207" r="4"/>
</g>

</g>

</svg>
