<?xml version="1.0" encoding="utf-8"?>
<!-- Created with Hypercube (http://tumic.wz.cz/hypercube) -->

<svg width="400" height="300" viewBox="0 0 400 300" xmlns="http://www.w3.org/2000/svg" baseProfile="tiny">

<g font-family="Helvetica" font-weight="normal">

<g>
	<polygon points="356,254 365,257 358,263" fill="#aaff00"/>
	<line x1="389" y1="295" x2="361" y2="260" stroke="#aaff00" stroke-width="2"/>
</g>
<g>
	<polygon points="291,239 299,236 298,245" fill="#aaff00"/>
	<line x1="354" y1="251" x2="298" y2="241" stroke="#aaff00" stroke-width="2"/>
</g>
<g>
	<polygon points="192,249 199,244 200,253" fill="#aaff00"/>
	<line x1="287" y1="239" x2="199" y2="248" stroke="#aaff00" stroke-width="2"/>
</g>
<g>
	<polygon points="331,153 332,162 324,158" fill="#aaff00"/>
	<line x1="287" y1="239" x2="328" y2="160" stroke="#aaff00" stroke-width="2"/>
</g>
<g>
	<polygon points="252,286 253,277 260,282" fill="#aaff00"/>
	<line x1="287" y1="239" x2="256" y2="280" stroke="#aaff00" stroke-width="2"/>
</g>
<g>
	<polygon points="308,290 301,285 309,281" fill="#aaff00"/>
	<line x1="287" y1="239" x2="305" y2="284" stroke="#aaff00" stroke-width="2"/>
</g>
<g>
	<polygon points="265,196 273,201 265,205" fill="#aaff00"/>
	<line x1="287" y1="239" x2="269" y2="202" stroke="#aaff00" stroke-width="2"/>
</g>
<g>
	<polygon points="122,222 131,221 127,229" fill="#aaff00"/>
	<line x1="188" y1="250" x2="128" y2="225" stroke="#aaff00" stroke-width="2"/>
</g>
<g>
	<polygon points="161,291 161,282 169,287" fill="#aaff00"/>
	<line x1="188" y1="250" x2="165" y2="285" stroke="#aaff00" stroke-width="2"/>
</g>
<g>
	<polygon points="95,171 103,176 94,180" fill="#aaff00"/>
	<line x1="118" y1="221" x2="98" y2="177" stroke="#aaff00" stroke-width="2"/>
</g>
<g>
	<polygon points="157,183 155,191 148,185" fill="#aaff00"/>
	<line x1="118" y1="221" x2="152" y2="188" stroke="#aaff00" stroke-width="2"/>
</g>
<g>
	<polygon points="52,204 61,201 58,210" fill="#aaff00"/>
	<line x1="118" y1="221" x2="59" y2="205" stroke="#aaff00" stroke-width="2"/>
</g>
<g>
	<polygon points="65,131 74,134 67,140" fill="#aaff00"/>
	<line x1="94" y1="167" x2="70" y2="137" stroke="#aaff00" stroke-width="2"/>
</g>
<g>
	<polygon points="112,102 114,111 106,108" fill="#aaff00"/>
	<line x1="94" y1="167" x2="110" y2="109" stroke="#aaff00" stroke-width="2"/>
</g>
<g>
	<polygon points="134,142 129,150 125,142" fill="#aaff00"/>
	<line x1="94" y1="167" x2="128" y2="146" stroke="#aaff00" stroke-width="2"/>
</g>
<g>
	<polygon points="110,100 105,108 101,100" fill="#aaff00"/>
	<line x1="63" y1="128" x2="103" y2="103" stroke="#aaff00" stroke-width="2"/>
</g>
<g>
	<polygon points="16,139 22,133 25,142" fill="#aaff00"/>
	<line x1="63" y1="128" x2="23" y2="138" stroke="#aaff00" stroke-width="2"/>
</g>
<g>
	<polygon points="158,176 150,171 158,167" fill="#aaff00"/>
	<line x1="114" y1="98" x2="155" y2="169" stroke="#aaff00" stroke-width="2"/>
</g>
<g>
	<polygon points="49,80 58,77 55,86" fill="#aaff00"/>
	<line x1="114" y1="98" x2="56" y2="82" stroke="#aaff00" stroke-width="2"/>
</g>
<g>
	<polygon points="91,42 98,47 90,51" fill="#aaff00"/>
	<line x1="114" y1="98" x2="94" y2="48" stroke="#aaff00" stroke-width="2"/>
</g>
<g>
	<polygon points="14,137 13,128 21,132" fill="#aaff00"/>
	<line x1="45" y1="79" x2="17" y2="130" stroke="#aaff00" stroke-width="2"/>
</g>
<g>
	<polygon points="86,41 83,49 77,42" fill="#aaff00"/>
	<line x1="45" y1="79" x2="81" y2="45" stroke="#aaff00" stroke-width="2"/>
</g>
<g>
	<polygon points="90,169 87,178 81,171" fill="#aaff00"/>
	<line x1="48" y1="203" x2="84" y2="174" stroke="#aaff00" stroke-width="2"/>
</g>
<g>
	<polygon points="14,144 22,149 14,153" fill="#aaff00"/>
	<line x1="48" y1="203" x2="17" y2="151" stroke="#aaff00" stroke-width="2"/>
</g>
<g>
	<polygon points="136,7 132,15 127,8" fill="#aaff00"/>
	<line x1="90" y1="38" x2="130" y2="11" stroke="#aaff00" stroke-width="2"/>
</g>
<g>
	<polygon points="44,7 53,8 48,15" fill="#aaff00"/>
	<line x1="90" y1="38" x2="50" y2="11" stroke="#aaff00" stroke-width="2"/>
</g>
<g>
	<polygon points="191,5 183,9 183,0" fill="#aaff00"/>
	<line x1="140" y1="5" x2="184" y2="5" stroke="#aaff00" stroke-width="2"/>
</g>
<g>
	<polygon points="304,106 312,110 305,115" fill="#aaff00"/>
	<line x1="334" y1="150" x2="308" y2="112" stroke="#aaff00" stroke-width="2"/>
</g>
<g>
	<polygon points="353,68 356,77 347,74" fill="#aaff00"/>
	<line x1="334" y1="150" x2="352" y2="75" stroke="#aaff00" stroke-width="2"/>
</g>
<g>
	<polygon points="384,169 375,170 379,162" fill="#aaff00"/>
	<line x1="334" y1="150" x2="378" y2="166" stroke="#aaff00" stroke-width="2"/>
</g>
<g>
	<polygon points="385,91 376,89 382,82" fill="#aaff00"/>
	<line x1="355" y1="64" x2="380" y2="86" stroke="#aaff00" stroke-width="2"/>
</g>
<g>
	<polygon points="375,11 376,20 368,16" fill="#aaff00"/>
	<line x1="355" y1="64" x2="372" y2="17" stroke="#aaff00" stroke-width="2"/>
</g>
<g>
	<polygon points="239,146 246,151 238,155" fill="#aaff00"/>
	<line x1="264" y1="192" x2="242" y2="153" stroke="#aaff00" stroke-width="2"/>
</g>

<g fill="#000000">
	<circle cx="388" cy="294" r="4"/>
</g>
<g fill="#000000">
	<circle cx="353" cy="250" r="4"/>
</g>
<g fill="#000000">
	<circle cx="286" cy="238" r="4"/>
</g>
<g fill="#000000">
	<circle cx="187" cy="249" r="4"/>
</g>
<g fill="#000000">
	<circle cx="333" cy="149" r="4"/>
</g>
<g fill="#000000">
	<circle cx="249" cy="289" r="4"/>
</g>
<g fill="#000000">
	<circle cx="309" cy="294" r="4"/>
</g>
<g fill="#000000">
	<circle cx="263" cy="191" r="4"/>
</g>
<g fill="#000000">
	<circle cx="117" cy="220" r="4"/>
</g>
<g fill="#000000">
	<circle cx="158" cy="294" r="4"/>
</g>
<g fill="#000000">
	<circle cx="93" cy="166" r="4"/>
</g>
<g fill="#000000">
	<circle cx="160" cy="179" r="4"/>
</g>
<g fill="#000000">
	<circle cx="47" cy="202" r="4"/>
</g>
<g fill="#000000">
	<circle cx="62" cy="127" r="4"/>
</g>
<g fill="#000000">
	<circle cx="113" cy="97" r="4"/>
</g>
<g fill="#000000">
	<circle cx="137" cy="139" r="4"/>
</g>
<g fill="#000000">
	<circle cx="11" cy="140" r="4"/>
</g>
<g fill="#000000">
	<circle cx="44" cy="78" r="4"/>
</g>
<g fill="#000000">
	<circle cx="89" cy="37" r="4"/>
</g>
<g fill="#000000">
	<circle cx="139" cy="4" r="4"/>
</g>
<g fill="#000000">
	<circle cx="40" cy="4" r="4"/>
</g>
<g fill="#000000">
	<circle cx="195" cy="4" r="4"/>
</g>
<g fill="#000000">
	<circle cx="301" cy="102" r="4"/>
</g>
<g fill="#000000">
	<circle cx="354" cy="63" r="4"/>
</g>
<g fill="#000000">
	<circle cx="388" cy="170" r="4"/>
</g>
<g fill="#000000">
	<circle cx="236" cy="142" r="4"/>
</g>
<g fill="#000000">
	<circle cx="388" cy="93" r="4"/>
</g>
<g fill="#000000">
	<circle cx="376" cy="6" r="4"/>
</g>

</g>

</svg>
