<?xml version="1.0" encoding="utf-8"?>
<!-- Created with Hypercube (http://tumic.wz.cz/hypercube) -->

<svg width="400" height="300" viewBox="0 0 400 300" xmlns="http://www.w3.org/2000/svg" baseProfile="tiny">

<g font-family="Helvetica" font-weight="normal">

<g>
	<polygon points="263,40 270,46 261,49" fill="#aaff00"/>
	<line x1="300" y1="152" x2="265" y2="47" stroke="#aaff00" stroke-width="2"/>
</g>
<g>
	<polygon points="296,155 294,163 287,157" fill="#aaff00"/>
	<line x1="197" y1="250" x2="291" y2="160" stroke="#aaff00" stroke-width="2"/>
</g>
<g>
	<polygon points="200,246 202,238 208,244" fill="#aaff00"/>
	<line x1="228" y1="220" x2="205" y2="241" stroke="#aaff00" stroke-width="2"/>
</g>
<g>
	<polygon points="253,139 248,147 244,139" fill="#aaff00"/>
	<line x1="182" y1="173" x2="247" y2="142" stroke="#aaff00" stroke-width="2"/>
</g>
<g>
	<polygon points="216,156 211,164 207,156" fill="#aaff00"/>
	<line x1="182" y1="173" x2="210" y2="159" stroke="#aaff00" stroke-width="2"/>
</g>
<g>
	<polygon points="174,138 180,145 172,146" fill="#aaff00"/>
	<line x1="182" y1="173" x2="176" y2="145" stroke="#aaff00" stroke-width="2"/>
</g>
<g>
	<polygon points="165,97 171,104 163,105" fill="#aaff00"/>
	<line x1="182" y1="173" x2="167" y2="104" stroke="#aaff00" stroke-width="2"/>
</g>
<g>
	<polygon points="206,119 207,128 198,124" fill="#aaff00"/>
	<line x1="182" y1="173" x2="203" y2="125" stroke="#aaff00" stroke-width="2"/>
</g>
<g>
	<polygon points="156,56 162,63 154,64" fill="#aaff00"/>
	<line x1="182" y1="173" x2="158" y2="63" stroke="#aaff00" stroke-width="2"/>
</g>
<g>
	<polygon points="224,216 216,214 222,208" fill="#aaff00"/>
	<line x1="182" y1="173" x2="219" y2="211" stroke="#aaff00" stroke-width="2"/>
</g>
<g>
	<polygon points="162,216 161,207 170,211" fill="#aaff00"/>
	<line x1="182" y1="173" x2="165" y2="210" stroke="#aaff00" stroke-width="2"/>
</g>
<g>
	<polygon points="109,240 111,232 118,238" fill="#aaff00"/>
	<line x1="182" y1="173" x2="114" y2="236" stroke="#aaff00" stroke-width="2"/>
</g>
<g>
	<polygon points="286,204 277,206 280,198" fill="#aaff00"/>
	<line x1="182" y1="173" x2="279" y2="202" stroke="#aaff00" stroke-width="2"/>
</g>
<g>
	<polygon points="228,88 236,93 228,97" fill="#aaff00"/>
	<line x1="258" y1="138" x2="232" y2="95" stroke="#aaff00" stroke-width="2"/>
</g>
<g>
	<polygon points="272,82 264,87 264,78" fill="#aaff00"/>
	<line x1="226" y1="85" x2="265" y2="82" stroke="#aaff00" stroke-width="2"/>
</g>
<g>
	<polygon points="225,89 229,97 220,96" fill="#aaff00"/>
	<line x1="221" y1="155" x2="225" y2="96" stroke="#aaff00" stroke-width="2"/>
</g>
<g>
	<polygon points="222,88 220,96 213,90" fill="#aaff00"/>
	<line x1="174" y1="134" x2="217" y2="93" stroke="#aaff00" stroke-width="2"/>
</g>
<g>
	<polygon points="221,85 214,91 213,82" fill="#aaff00"/>
	<line x1="165" y1="93" x2="214" y2="86" stroke="#aaff00" stroke-width="2"/>
</g>
<g>
	<polygon points="223,88 223,97 215,93" fill="#aaff00"/>
	<line x1="208" y1="115" x2="219" y2="95" stroke="#aaff00" stroke-width="2"/>
</g>
<g>
	<polygon points="257,36 250,42 249,33" fill="#aaff00"/>
	<line x1="156" y1="52" x2="250" y2="37" stroke="#aaff00" stroke-width="2"/>
</g>
<g>
	<polygon points="193,247 184,245 190,238" fill="#aaff00"/>
	<line x1="161" y1="221" x2="187" y2="242" stroke="#aaff00" stroke-width="2"/>
</g>
<g>
	<polygon points="71,276 73,268 80,274" fill="#aaff00"/>
	<line x1="106" y1="244" x2="76" y2="271" stroke="#aaff00" stroke-width="2"/>
</g>
<g>
	<polygon points="133,294 125,296 126,288" fill="#aaff00"/>
	<line x1="68" y1="280" x2="126" y2="292" stroke="#aaff00" stroke-width="2"/>
</g>
<g>
	<polygon points="193,252 189,261 184,253" fill="#aaff00"/>
	<line x1="138" y1="295" x2="187" y2="257" stroke="#aaff00" stroke-width="2"/>
</g>
<g>
	<polygon points="65,276 57,272 64,267" fill="#aaff00"/>
	<line x1="27" y1="225" x2="61" y2="270" stroke="#aaff00" stroke-width="2"/>
</g>
<g>
	<polygon points="49,83 53,91 44,90" fill="#aaff00"/>
	<line x1="42" y1="154" x2="48" y2="90" stroke="#aaff00" stroke-width="2"/>
</g>
<g>
	<polygon points="99,183 90,184 94,176" fill="#aaff00"/>
	<line x1="42" y1="154" x2="92" y2="180" stroke="#aaff00" stroke-width="2"/>
</g>
<g>
	<polygon points="27,220 25,212 33,213" fill="#aaff00"/>
	<line x1="42" y1="154" x2="29" y2="213" stroke="#aaff00" stroke-width="2"/>
</g>
<g>
	<polygon points="99,21 97,30 90,24" fill="#aaff00"/>
	<line x1="50" y1="79" x2="94" y2="26" stroke="#aaff00" stroke-width="2"/>
</g>
<g>
	<polygon points="187,5 180,11 179,2" fill="#aaff00"/>
	<line x1="102" y1="18" x2="180" y2="6" stroke="#aaff00" stroke-width="2"/>
</g>
<g>
	<polygon points="257,34 248,35 252,26" fill="#aaff00"/>
	<line x1="192" y1="5" x2="251" y2="31" stroke="#aaff00" stroke-width="2"/>
</g>
<g>
	<polygon points="193,247 184,246 189,239" fill="#aaff00"/>
	<line x1="103" y1="186" x2="187" y2="243" stroke="#aaff00" stroke-width="2"/>
</g>
<g>
	<polygon points="355,165 351,173 346,165" fill="#aaff00"/>
	<line x1="291" y1="206" x2="349" y2="169" stroke="#aaff00" stroke-width="2"/>
</g>
<g>
	<polygon points="343,85 349,92 340,93" fill="#aaff00"/>
	<line x1="359" y1="163" x2="345" y2="92" stroke="#aaff00" stroke-width="2"/>
</g>
<g>
	<polygon points="372,216 366,210 375,207" fill="#aaff00"/>
	<line x1="359" y1="163" x2="371" y2="209" stroke="#aaff00" stroke-width="2"/>
</g>
<g>
	<polygon points="265,38 274,38 270,45" fill="#aaff00"/>
	<line x1="343" y1="81" x2="272" y2="41" stroke="#aaff00" stroke-width="2"/>
</g>
<g>
	<polygon points="374,270 369,262 378,262" fill="#aaff00"/>
	<line x1="374" y1="221" x2="374" y2="263" stroke="#aaff00" stroke-width="2"/>
</g>

<g fill="#000000">
	<circle cx="261" cy="35" r="4"/>
</g>
<g fill="#000000">
	<circle cx="196" cy="249" r="4"/>
</g>
<g fill="#000000">
	<circle cx="299" cy="151" r="4"/>
</g>
<g fill="#000000">
	<circle cx="181" cy="172" r="4"/>
</g>
<g fill="#000000">
	<circle cx="257" cy="137" r="4"/>
</g>
<g fill="#000000">
	<circle cx="220" cy="154" r="4"/>
</g>
<g fill="#000000">
	<circle cx="173" cy="133" r="4"/>
</g>
<g fill="#000000">
	<circle cx="164" cy="92" r="4"/>
</g>
<g fill="#000000">
	<circle cx="207" cy="114" r="4"/>
</g>
<g fill="#000000">
	<circle cx="155" cy="51" r="4"/>
</g>
<g fill="#000000">
	<circle cx="227" cy="219" r="4"/>
</g>
<g fill="#000000">
	<circle cx="160" cy="220" r="4"/>
</g>
<g fill="#000000">
	<circle cx="105" cy="243" r="4"/>
</g>
<g fill="#000000">
	<circle cx="290" cy="205" r="4"/>
</g>
<g fill="#000000">
	<circle cx="373" cy="274" r="4"/>
</g>
<g fill="#000000">
	<circle cx="358" cy="162" r="4"/>
</g>
<g fill="#000000">
	<circle cx="342" cy="80" r="4"/>
</g>
<g fill="#000000">
	<circle cx="373" cy="220" r="4"/>
</g>
<g fill="#000000">
	<circle cx="225" cy="84" r="4"/>
</g>
<g fill="#000000">
	<circle cx="276" cy="81" r="4"/>
</g>
<g fill="#000000">
	<circle cx="67" cy="279" r="4"/>
</g>
<g fill="#000000">
	<circle cx="137" cy="294" r="4"/>
</g>
<g fill="#000000">
	<circle cx="101" cy="17" r="4"/>
</g>
<g fill="#000000">
	<circle cx="191" cy="4" r="4"/>
</g>
<g fill="#000000">
	<circle cx="41" cy="153" r="4"/>
</g>
<g fill="#000000">
	<circle cx="49" cy="78" r="4"/>
</g>
<g fill="#000000">
	<circle cx="102" cy="185" r="4"/>
</g>
<g fill="#000000">
	<circle cx="26" cy="224" r="4"/>
</g>

</g>

</svg>
