<?xml version="1.0" encoding="utf-8"?>
<!-- Created with Hypercube (http://tumic.wz.cz/hypercube) -->

<svg width="400" height="300" viewBox="0 0 400 300" xmlns="http://www.w3.org/2000/svg" baseProfile="tiny">

<g font-family="Helvetica" font-weight="normal">

<g>
	<polygon points="200,227 194,220 202,219" fill="#aaff00"/>
	<line x1="186" y1="158" x2="198" y2="220" stroke="#aaff00" stroke-width="2"/>
</g>
<g>
	<polygon points="165,199 165,190 173,194" fill="#aaff00"/>
	<line x1="186" y1="158" x2="169" y2="193" stroke="#aaff00" stroke-width="2"/>
</g>
<g>
	<polygon points="233,200 224,198 230,191" fill="#aaff00"/>
	<line x1="186" y1="158" x2="228" y2="195" stroke="#aaff00" stroke-width="2"/>
</g>
<g>
	<polygon points="232,265 224,263 230,256" fill="#aaff00"/>
	<line x1="201" y1="232" x2="227" y2="260" stroke="#aaff00" stroke-width="2"/>
</g>
<g>
	<polygon points="185,281 191,275 194,284" fill="#aaff00"/>
	<line x1="236" y1="269" x2="192" y2="280" stroke="#aaff00" stroke-width="2"/>
</g>
<g>
	<polygon points="236,207 241,215 232,215" fill="#aaff00"/>
	<line x1="236" y1="269" x2="236" y2="214" stroke="#aaff00" stroke-width="2"/>
</g>
<g>
	<polygon points="117,248 126,248 122,255" fill="#aaff00"/>
	<line x1="181" y1="283" x2="124" y2="251" stroke="#aaff00" stroke-width="2"/>
</g>
<g>
	<polygon points="232,265 223,264 229,257" fill="#aaff00"/>
	<line x1="164" y1="204" x2="227" y2="261" stroke="#aaff00" stroke-width="2"/>
</g>
<g>
	<polygon points="240,269 248,266 247,274" fill="#aaff00"/>
	<line x1="316" y1="279" x2="247" y2="270" stroke="#aaff00" stroke-width="2"/>
</g>
<g>
	<polygon points="319,276 324,268 328,276" fill="#aaff00"/>
	<line x1="377" y1="242" x2="325" y2="272" stroke="#aaff00" stroke-width="2"/>
</g>
<g>
	<polygon points="393,177 396,186 387,183" fill="#aaff00"/>
	<line x1="377" y1="242" x2="392" y2="184" stroke="#aaff00" stroke-width="2"/>
</g>
<g>
	<polygon points="376,106 382,112 374,115" fill="#aaff00"/>
	<line x1="395" y1="173" x2="378" y2="113" stroke="#aaff00" stroke-width="2"/>
</g>
<g>
	<polygon points="371,104 366,112 362,104" fill="#aaff00"/>
	<line x1="333" y1="128" x2="365" y2="108" stroke="#aaff00" stroke-width="2"/>
</g>
<g>
	<polygon points="290,194 285,187 294,186" fill="#aaff00"/>
	<line x1="281" y1="110" x2="289" y2="187" stroke="#aaff00" stroke-width="2"/>
</g>
<g>
	<polygon points="328,126 319,128 322,119" fill="#aaff00"/>
	<line x1="281" y1="110" x2="321" y2="124" stroke="#aaff00" stroke-width="2"/>
</g>
<g>
	<polygon points="239,136 243,128 248,136" fill="#aaff00"/>
	<line x1="281" y1="110" x2="245" y2="132" stroke="#aaff00" stroke-width="2"/>
</g>
<g>
	<polygon points="244,11 251,16 243,20" fill="#aaff00"/>
	<line x1="281" y1="110" x2="247" y2="17" stroke="#aaff00" stroke-width="2"/>
</g>
<g>
	<polygon points="238,265 240,256 247,262" fill="#aaff00"/>
	<line x1="291" y1="199" x2="243" y2="259" stroke="#aaff00" stroke-width="2"/>
</g>
<g>
	<polygon points="190,156 195,149 199,157" fill="#aaff00"/>
	<line x1="236" y1="139" x2="196" y2="153" stroke="#aaff00" stroke-width="2"/>
</g>
<g>
	<polygon points="154,18 161,12 162,21" fill="#aaff00"/>
	<line x1="243" y1="7" x2="161" y2="17" stroke="#aaff00" stroke-width="2"/>
</g>
<g>
	<polygon points="134,86 131,78 140,80" fill="#aaff00"/>
	<line x1="150" y1="19" x2="135" y2="79" stroke="#aaff00" stroke-width="2"/>
</g>
<g>
	<polygon points="183,154 174,151 181,145" fill="#aaff00"/>
	<line x1="133" y1="91" x2="178" y2="148" stroke="#aaff00" stroke-width="2"/>
</g>
<g>
	<polygon points="154,18 161,13 162,22" fill="#aaff00"/>
	<line x1="193" y1="14" x2="161" y2="17" stroke="#aaff00" stroke-width="2"/>
</g>
<g>
	<polygon points="310,49 303,54 302,45" fill="#aaff00"/>
	<line x1="238" y1="56" x2="303" y2="50" stroke="#aaff00" stroke-width="2"/>
</g>
<g>
	<polygon points="199,94 201,86 207,92" fill="#aaff00"/>
	<line x1="238" y1="56" x2="204" y2="89" stroke="#aaff00" stroke-width="2"/>
</g>
<g>
	<polygon points="196,17 205,19 198,25" fill="#aaff00"/>
	<line x1="238" y1="56" x2="201" y2="21" stroke="#aaff00" stroke-width="2"/>
</g>
<g>
	<polygon points="371,99 362,97 368,90" fill="#aaff00"/>
	<line x1="315" y1="49" x2="366" y2="94" stroke="#aaff00" stroke-width="2"/>
</g>
<g>
	<polygon points="186,153 183,145 192,146" fill="#aaff00"/>
	<line x1="196" y1="98" x2="187" y2="146" stroke="#aaff00" stroke-width="2"/>
</g>
<g>
	<polygon points="376,97 375,88 383,92" fill="#aaff00"/>
	<line x1="395" y1="53" x2="379" y2="91" stroke="#aaff00" stroke-width="2"/>
</g>
<g>
	<polygon points="395,48 390,40 399,40" fill="#aaff00"/>
	<line x1="395" y1="5" x2="395" y2="41" stroke="#aaff00" stroke-width="2"/>
</g>
<g>
	<polygon points="231,270 225,276 222,267" fill="#aaff00"/>
	<line x1="134" y1="295" x2="224" y2="271" stroke="#aaff00" stroke-width="2"/>
</g>
<g>
	<polygon points="11,295 19,290 19,299" fill="#aaff00"/>
	<line x1="66" y1="295" x2="18" y2="295" stroke="#aaff00" stroke-width="2"/>
</g>
<g>
	<polygon points="129,295 121,299 121,290" fill="#aaff00"/>
	<line x1="66" y1="295" x2="122" y2="295" stroke="#aaff00" stroke-width="2"/>
</g>
<g>
	<polygon points="5,241 9,249 0,249" fill="#aaff00"/>
	<line x1="7" y1="295" x2="5" y2="248" stroke="#aaff00" stroke-width="2"/>
</g>

<g fill="#000000">
	<circle cx="185" cy="157" r="4"/>
</g>
<g fill="#000000">
	<circle cx="200" cy="231" r="4"/>
</g>
<g fill="#000000">
	<circle cx="163" cy="203" r="4"/>
</g>
<g fill="#000000">
	<circle cx="235" cy="268" r="4"/>
</g>
<g fill="#000000">
	<circle cx="180" cy="282" r="4"/>
</g>
<g fill="#000000">
	<circle cx="236" cy="202" r="4"/>
</g>
<g fill="#000000">
	<circle cx="4" cy="236" r="4"/>
</g>
<g fill="#000000">
	<circle cx="376" cy="241" r="4"/>
</g>
<g fill="#000000">
	<circle cx="315" cy="278" r="4"/>
</g>
<g fill="#000000">
	<circle cx="394" cy="172" r="4"/>
</g>
<g fill="#000000">
	<circle cx="113" cy="245" r="4"/>
</g>
<g fill="#000000">
	<circle cx="65" cy="294" r="4"/>
</g>
<g fill="#000000">
	<circle cx="6" cy="294" r="4"/>
</g>
<g fill="#000000">
	<circle cx="133" cy="294" r="4"/>
</g>
<g fill="#000000">
	<circle cx="280" cy="109" r="4"/>
</g>
<g fill="#000000">
	<circle cx="290" cy="198" r="4"/>
</g>
<g fill="#000000">
	<circle cx="332" cy="127" r="4"/>
</g>
<g fill="#000000">
	<circle cx="235" cy="138" r="4"/>
</g>
<g fill="#000000">
	<circle cx="242" cy="6" r="4"/>
</g>
<g fill="#000000">
	<circle cx="394" cy="4" r="4"/>
</g>
<g fill="#000000">
	<circle cx="394" cy="52" r="4"/>
</g>
<g fill="#000000">
	<circle cx="149" cy="18" r="4"/>
</g>
<g fill="#000000">
	<circle cx="132" cy="90" r="4"/>
</g>
<g fill="#000000">
	<circle cx="374" cy="101" r="4"/>
</g>
<g fill="#000000">
	<circle cx="237" cy="55" r="4"/>
</g>
<g fill="#000000">
	<circle cx="314" cy="48" r="4"/>
</g>
<g fill="#000000">
	<circle cx="195" cy="97" r="4"/>
</g>
<g fill="#000000">
	<circle cx="192" cy="13" r="4"/>
</g>

</g>

</svg>
