<?xml version="1.0" encoding="utf-8"?>
<!-- Created with Hypercube (http://tumic.wz.cz/hypercube) -->

<svg width="400" height="300" viewBox="0 0 400 300" xmlns="http://www.w3.org/2000/svg" baseProfile="tiny">

<g font-family="Helvetica" font-weight="normal">

<g>
	<polygon points="292,8 290,16 284,10" fill="#aaff00"/>
	<line x1="259" y1="41" x2="287" y2="13" stroke="#aaff00" stroke-width="2"/>
</g>
<g>
	<polygon points="336,41 328,46 328,37" fill="#aaff00"/>
	<line x1="259" y1="41" x2="329" y2="41" stroke="#aaff00" stroke-width="2"/>
</g>
<g>
	<polygon points="229,8 237,11 230,17" fill="#aaff00"/>
	<line x1="259" y1="41" x2="233" y2="13" stroke="#aaff00" stroke-width="2"/>
</g>
<g>
	<polygon points="256,44 255,53 248,48" fill="#aaff00"/>
	<line x1="223" y1="92" x2="252" y2="50" stroke="#aaff00" stroke-width="2"/>
</g>
<g>
	<polygon points="221,96 222,105 214,101" fill="#aaff00"/>
	<line x1="190" y1="181" x2="218" y2="102" stroke="#aaff00" stroke-width="2"/>
</g>
<g>
	<polygon points="194,182 203,181 199,190" fill="#aaff00"/>
	<line x1="251" y1="208" x2="200" y2="185" stroke="#aaff00" stroke-width="2"/>
</g>
<g>
	<polygon points="253,211 261,215 254,220" fill="#aaff00"/>
	<line x1="279" y1="246" x2="257" y2="217" stroke="#aaff00" stroke-width="2"/>
</g>
<g>
	<polygon points="274,248 270,255 266,247" fill="#aaff00"/>
	<line x1="236" y1="268" x2="268" y2="251" stroke="#aaff00" stroke-width="2"/>
</g>
<g>
	<polygon points="169,243 174,236 178,243" fill="#aaff00"/>
	<line x1="203" y1="225" x2="176" y2="240" stroke="#aaff00" stroke-width="2"/>
</g>
<g>
	<polygon points="233,264 224,260 232,255" fill="#aaff00"/>
	<line x1="203" y1="225" x2="228" y2="258" stroke="#aaff00" stroke-width="2"/>
</g>
<g>
	<polygon points="188,185 189,194 181,190" fill="#aaff00"/>
	<line x1="166" y1="246" x2="185" y2="191" stroke="#aaff00" stroke-width="2"/>
</g>
<g>
	<polygon points="201,220 194,214 203,211" fill="#aaff00"/>
	<line x1="174" y1="139" x2="199" y2="213" stroke="#aaff00" stroke-width="2"/>
</g>
<g>
	<polygon points="103,66 112,67 107,74" fill="#aaff00"/>
	<line x1="146" y1="96" x2="109" y2="70" stroke="#aaff00" stroke-width="2"/>
</g>
<g>
	<polygon points="113,14 120,19 112,23" fill="#aaff00"/>
	<line x1="146" y1="96" x2="116" y2="20" stroke="#aaff00" stroke-width="2"/>
</g>
<g>
	<polygon points="123,140 122,132 130,136" fill="#aaff00"/>
	<line x1="146" y1="96" x2="126" y2="134" stroke="#aaff00" stroke-width="2"/>
</g>
<g>
	<polygon points="228,149 219,149 224,141" fill="#aaff00"/>
	<line x1="146" y1="96" x2="222" y2="145" stroke="#aaff00" stroke-width="2"/>
</g>
<g>
	<polygon points="60,89 68,85 67,94" fill="#aaff00"/>
	<line x1="146" y1="96" x2="67" y2="89" stroke="#aaff00" stroke-width="2"/>
</g>
<g>
	<polygon points="179,44 179,53 171,48" fill="#aaff00"/>
	<line x1="146" y1="96" x2="175" y2="50" stroke="#aaff00" stroke-width="2"/>
</g>
<g>
	<polygon points="171,135 163,131 171,126" fill="#aaff00"/>
	<line x1="146" y1="96" x2="167" y2="129" stroke="#aaff00" stroke-width="2"/>
</g>
<g>
	<polygon points="96,61 87,59 93,52" fill="#aaff00"/>
	<line x1="58" y1="31" x2="90" y2="56" stroke="#aaff00" stroke-width="2"/>
</g>
<g>
	<polygon points="107,11 102,18 98,10" fill="#aaff00"/>
	<line x1="58" y1="31" x2="101" y2="14" stroke="#aaff00" stroke-width="2"/>
</g>
<g>
	<polygon points="57,35 62,43 53,43" fill="#aaff00"/>
	<line x1="56" y1="89" x2="57" y2="42" stroke="#aaff00" stroke-width="2"/>
</g>
<g>
	<polygon points="186,178 177,179 181,171" fill="#aaff00"/>
	<line x1="121" y1="145" x2="179" y2="175" stroke="#aaff00" stroke-width="2"/>
</g>
<g>
	<polygon points="276,241 269,237 277,232" fill="#aaff00"/>
	<line x1="232" y1="152" x2="273" y2="235" stroke="#aaff00" stroke-width="2"/>
</g>
<g>
	<polygon points="254,41 246,45 246,36" fill="#aaff00"/>
	<line x1="182" y1="41" x2="247" y2="41" stroke="#aaff00" stroke-width="2"/>
</g>
<g>
	<polygon points="150,96 158,92 157,101" fill="#aaff00"/>
	<line x1="279" y1="105" x2="157" y2="96" stroke="#aaff00" stroke-width="2"/>
</g>
<g>
	<polygon points="282,107 291,109 285,116" fill="#aaff00"/>
	<line x1="339" y1="154" x2="288" y2="112" stroke="#aaff00" stroke-width="2"/>
</g>
<g>
	<polygon points="293,166 299,160 302,169" fill="#aaff00"/>
	<line x1="339" y1="154" x2="300" y2="164" stroke="#aaff00" stroke-width="2"/>
</g>
<g>
	<polygon points="344,216 339,209 348,208" fill="#aaff00"/>
	<line x1="339" y1="154" x2="343" y2="209" stroke="#aaff00" stroke-width="2"/>
</g>
<g>
	<polygon points="194,180 201,174 202,183" fill="#aaff00"/>
	<line x1="289" y1="168" x2="201" y2="179" stroke="#aaff00" stroke-width="2"/>
</g>
<g>
	<polygon points="283,244 288,237 292,245" fill="#aaff00"/>
	<line x1="345" y1="221" x2="289" y2="241" stroke="#aaff00" stroke-width="2"/>
</g>
<g>
	<polygon points="143,99 141,108 134,102" fill="#aaff00"/>
	<line x1="72" y1="184" x2="138" y2="104" stroke="#aaff00" stroke-width="2"/>
</g>
<g>
	<polygon points="73,188 80,193 72,197" fill="#aaff00"/>
	<line x1="100" y1="260" x2="76" y2="194" stroke="#aaff00" stroke-width="2"/>
</g>
<g>
	<polygon points="122,218 122,227 115,223" fill="#aaff00"/>
	<line x1="100" y1="260" x2="119" y2="225" stroke="#aaff00" stroke-width="2"/>
</g>
<g>
	<polygon points="179,293 170,294 174,286" fill="#aaff00"/>
	<line x1="100" y1="260" x2="173" y2="290" stroke="#aaff00" stroke-width="2"/>
</g>
<g>
	<polygon points="186,183 181,190 177,182" fill="#aaff00"/>
	<line x1="125" y1="215" x2="179" y2="186" stroke="#aaff00" stroke-width="2"/>
</g>
<g>
	<polygon points="275,248 270,255 266,247" fill="#aaff00"/>
	<line x1="184" y1="295" x2="268" y2="251" stroke="#aaff00" stroke-width="2"/>
</g>

<g fill="#000000">
	<circle cx="258" cy="40" r="4"/>
</g>
<g fill="#000000">
	<circle cx="295" cy="4" r="4"/>
</g>
<g fill="#000000">
	<circle cx="340" cy="41" r="4"/>
</g>
<g fill="#000000">
	<circle cx="225" cy="4" r="4"/>
</g>
<g fill="#000000">
	<circle cx="189" cy="180" r="4"/>
</g>
<g fill="#000000">
	<circle cx="222" cy="91" r="4"/>
</g>
<g fill="#000000">
	<circle cx="278" cy="245" r="4"/>
</g>
<g fill="#000000">
	<circle cx="250" cy="207" r="4"/>
</g>
<g fill="#000000">
	<circle cx="202" cy="224" r="4"/>
</g>
<g fill="#000000">
	<circle cx="165" cy="245" r="4"/>
</g>
<g fill="#000000">
	<circle cx="235" cy="267" r="4"/>
</g>
<g fill="#000000">
	<circle cx="57" cy="30" r="4"/>
</g>
<g fill="#000000">
	<circle cx="99" cy="63" r="4"/>
</g>
<g fill="#000000">
	<circle cx="111" cy="9" r="4"/>
</g>
<g fill="#000000">
	<circle cx="145" cy="95" r="4"/>
</g>
<g fill="#000000">
	<circle cx="120" cy="144" r="4"/>
</g>
<g fill="#000000">
	<circle cx="231" cy="151" r="4"/>
</g>
<g fill="#000000">
	<circle cx="55" cy="88" r="4"/>
</g>
<g fill="#000000">
	<circle cx="181" cy="40" r="4"/>
</g>
<g fill="#000000">
	<circle cx="173" cy="138" r="4"/>
</g>
<g fill="#000000">
	<circle cx="338" cy="153" r="4"/>
</g>
<g fill="#000000">
	<circle cx="278" cy="104" r="4"/>
</g>
<g fill="#000000">
	<circle cx="288" cy="167" r="4"/>
</g>
<g fill="#000000">
	<circle cx="344" cy="220" r="4"/>
</g>
<g fill="#000000">
	<circle cx="99" cy="259" r="4"/>
</g>
<g fill="#000000">
	<circle cx="71" cy="183" r="4"/>
</g>
<g fill="#000000">
	<circle cx="124" cy="214" r="4"/>
</g>
<g fill="#000000">
	<circle cx="183" cy="294" r="4"/>
</g>

</g>

</svg>
