<?xml version="1.0" encoding="utf-8"?>
<!-- Created with Hypercube (http://tumic.wz.cz/hypercube) -->

<svg width="400" height="300" viewBox="0 0 400 300" xmlns="http://www.w3.org/2000/svg" baseProfile="tiny">

<g font-family="Helvetica" font-weight="normal">

<g>
	<polygon points="295,266 287,269 288,260" fill="#aaff00"/>
	<line x1="202" y1="252" x2="288" y2="265" stroke="#aaff00" stroke-width="2"/>
</g>
<g>
	<polygon points="217,205 219,214 210,211" fill="#aaff00"/>
	<line x1="202" y1="252" x2="215" y2="212" stroke="#aaff00" stroke-width="2"/>
</g>
<g>
	<polygon points="84,214 93,212 90,221" fill="#aaff00"/>
	<line x1="202" y1="252" x2="91" y2="216" stroke="#aaff00" stroke-width="2"/>
</g>
<g>
	<polygon points="122,226 131,224 128,233" fill="#aaff00"/>
	<line x1="202" y1="252" x2="129" y2="228" stroke="#aaff00" stroke-width="2"/>
</g>
<g>
	<polygon points="166,240 175,238 172,247" fill="#aaff00"/>
	<line x1="202" y1="252" x2="173" y2="242" stroke="#aaff00" stroke-width="2"/>
</g>
<g>
	<polygon points="239,272 230,272 234,265" fill="#aaff00"/>
	<line x1="202" y1="252" x2="232" y2="269" stroke="#aaff00" stroke-width="2"/>
</g>
<g>
	<polygon points="274,197 270,205 265,198" fill="#aaff00"/>
	<line x1="202" y1="252" x2="268" y2="202" stroke="#aaff00" stroke-width="2"/>
</g>
<g>
	<polygon points="215,197 207,195 213,189" fill="#aaff00"/>
	<line x1="180" y1="163" x2="210" y2="192" stroke="#aaff00" stroke-width="2"/>
</g>
<g>
	<polygon points="163,234 160,225 169,228" fill="#aaff00"/>
	<line x1="180" y1="163" x2="164" y2="227" stroke="#aaff00" stroke-width="2"/>
</g>
<g>
	<polygon points="153,191 155,182 161,189" fill="#aaff00"/>
	<line x1="180" y1="163" x2="157" y2="186" stroke="#aaff00" stroke-width="2"/>
</g>
<g>
	<polygon points="115,170 122,165 123,174" fill="#aaff00"/>
	<line x1="180" y1="163" x2="122" y2="169" stroke="#aaff00" stroke-width="2"/>
</g>
<g>
	<polygon points="202,63 205,71 196,69" fill="#aaff00"/>
	<line x1="180" y1="163" x2="201" y2="70" stroke="#aaff00" stroke-width="2"/>
</g>
<g>
	<polygon points="194,101 196,109 187,107" fill="#aaff00"/>
	<line x1="180" y1="163" x2="192" y2="108" stroke="#aaff00" stroke-width="2"/>
</g>
<g>
	<polygon points="186,134 188,142 180,141" fill="#aaff00"/>
	<line x1="180" y1="163" x2="184" y2="141" stroke="#aaff00" stroke-width="2"/>
</g>
<g>
	<polygon points="113,223 104,225 107,217" fill="#aaff00"/>
	<line x1="80" y1="213" x2="106" y2="221" stroke="#aaff00" stroke-width="2"/>
</g>
<g>
	<polygon points="157,237 148,239 151,230" fill="#aaff00"/>
	<line x1="80" y1="213" x2="150" y2="235" stroke="#aaff00" stroke-width="2"/>
</g>
<g>
	<polygon points="17,199 25,197 24,205" fill="#aaff00"/>
	<line x1="80" y1="213" x2="24" y2="201" stroke="#aaff00" stroke-width="2"/>
</g>
<g>
	<polygon points="14,260 18,252 23,259" fill="#aaff00"/>
	<line x1="80" y1="213" x2="20" y2="256" stroke="#aaff00" stroke-width="2"/>
</g>
<g>
	<polygon points="145,196 139,202 136,193" fill="#aaff00"/>
	<line x1="80" y1="213" x2="138" y2="197" stroke="#aaff00" stroke-width="2"/>
</g>
<g>
	<polygon points="70,270 67,262 76,263" fill="#aaff00"/>
	<line x1="80" y1="213" x2="71" y2="263" stroke="#aaff00" stroke-width="2"/>
</g>
<g>
	<polygon points="140,122 139,131 132,126" fill="#aaff00"/>
	<line x1="80" y1="213" x2="136" y2="128" stroke="#aaff00" stroke-width="2"/>
</g>
<g>
	<polygon points="56,138 62,144 54,147" fill="#aaff00"/>
	<line x1="80" y1="213" x2="58" y2="145" stroke="#aaff00" stroke-width="2"/>
</g>
<g>
	<polygon points="108,174 107,183 100,178" fill="#aaff00"/>
	<line x1="80" y1="213" x2="104" y2="180" stroke="#aaff00" stroke-width="2"/>
</g>
<g>
	<polygon points="117,220 111,213 120,212" fill="#aaff00"/>
	<line x1="97" y1="87" x2="116" y2="213" stroke="#aaff00" stroke-width="2"/>
</g>
<g>
	<polygon points="57,130 59,121 66,127" fill="#aaff00"/>
	<line x1="97" y1="87" x2="62" y2="125" stroke="#aaff00" stroke-width="2"/>
</g>
<g>
	<polygon points="199,60 193,66 190,57" fill="#aaff00"/>
	<line x1="97" y1="87" x2="192" y2="61" stroke="#aaff00" stroke-width="2"/>
</g>
<g>
	<polygon points="131,30 131,39 123,35" fill="#aaff00"/>
	<line x1="97" y1="87" x2="127" y2="36" stroke="#aaff00" stroke-width="2"/>
</g>
<g>
	<polygon points="134,79 127,85 126,76" fill="#aaff00"/>
	<line x1="97" y1="87" x2="127" y2="81" stroke="#aaff00" stroke-width="2"/>
</g>
<g>
	<polygon points="103,123 97,116 106,115" fill="#aaff00"/>
	<line x1="97" y1="87" x2="102" y2="116" stroke="#aaff00" stroke-width="2"/>
</g>
<g>
	<polygon points="59,133 66,127 67,136" fill="#aaff00"/>
	<line x1="143" y1="119" x2="66" y2="132" stroke="#aaff00" stroke-width="2"/>
</g>
<g>
	<polygon points="113,167 113,158 121,162" fill="#aaff00"/>
	<line x1="143" y1="119" x2="117" y2="161" stroke="#aaff00" stroke-width="2"/>
</g>
<g>
	<polygon points="100,89 109,90 104,97" fill="#aaff00"/>
	<line x1="143" y1="119" x2="106" y2="93" stroke="#aaff00" stroke-width="2"/>
</g>
<g>
	<polygon points="200,62 198,70 192,64" fill="#aaff00"/>
	<line x1="143" y1="119" x2="195" y2="67" stroke="#aaff00" stroke-width="2"/>
</g>
<g>
	<polygon points="134,31 139,38 130,39" fill="#aaff00"/>
	<line x1="143" y1="119" x2="135" y2="38" stroke="#aaff00" stroke-width="2"/>
</g>
<g>
	<polygon points="139,83 144,90 135,91" fill="#aaff00"/>
	<line x1="143" y1="119" x2="140" y2="90" stroke="#aaff00" stroke-width="2"/>
</g>
<g>
	<polygon points="177,159 168,156 175,150" fill="#aaff00"/>
	<line x1="143" y1="119" x2="172" y2="154" stroke="#aaff00" stroke-width="2"/>
</g>
<g>
	<polygon points="108,126 114,120 116,129" fill="#aaff00"/>
	<line x1="143" y1="119" x2="115" y2="125" stroke="#aaff00" stroke-width="2"/>
</g>
<g>
	<polygon points="190,98 185,105 181,97" fill="#aaff00"/>
	<line x1="143" y1="119" x2="184" y2="101" stroke="#aaff00" stroke-width="2"/>
</g>
<g>
	<polygon points="182,128 173,131 176,122" fill="#aaff00"/>
	<line x1="143" y1="119" x2="175" y2="127" stroke="#aaff00" stroke-width="2"/>
</g>
<g>
	<polygon points="175,161 166,161 170,153" fill="#aaff00"/>
	<line x1="104" y1="128" x2="169" y2="158" stroke="#aaff00" stroke-width="2"/>
</g>
<g>
	<polygon points="280,191 279,182 287,186" fill="#aaff00"/>
	<line x1="307" y1="142" x2="283" y2="184" stroke="#aaff00" stroke-width="2"/>
</g>
<g>
	<polygon points="303,264 308,256 312,264" fill="#aaff00"/>
	<line x1="354" y1="233" x2="309" y2="260" stroke="#aaff00" stroke-width="2"/>
</g>
<g>
	<polygon points="388,271 379,268 386,262" fill="#aaff00"/>
	<line x1="354" y1="233" x2="383" y2="266" stroke="#aaff00" stroke-width="2"/>
</g>
<g>
	<polygon points="387,210 383,218 378,211" fill="#aaff00"/>
	<line x1="354" y1="233" x2="381" y2="214" stroke="#aaff00" stroke-width="2"/>
</g>
<g>
	<polygon points="384,158 385,167 377,163" fill="#aaff00"/>
	<line x1="354" y1="233" x2="381" y2="164" stroke="#aaff00" stroke-width="2"/>
</g>

<g fill="#000000">
	<circle cx="353" cy="232" r="4"/>
</g>
<g fill="#000000">
	<circle cx="201" cy="251" r="4"/>
</g>
<g fill="#000000">
	<circle cx="299" cy="266" r="4"/>
</g>
<g fill="#000000">
	<circle cx="218" cy="200" r="4"/>
</g>
<g fill="#000000">
	<circle cx="79" cy="212" r="4"/>
</g>
<g fill="#000000">
	<circle cx="117" cy="224" r="4"/>
</g>
<g fill="#000000">
	<circle cx="161" cy="238" r="4"/>
</g>
<g fill="#000000">
	<circle cx="242" cy="274" r="4"/>
</g>
<g fill="#000000">
	<circle cx="277" cy="194" r="4"/>
</g>
<g fill="#000000">
	<circle cx="12" cy="198" r="4"/>
</g>
<g fill="#000000">
	<circle cx="10" cy="262" r="4"/>
</g>
<g fill="#000000">
	<circle cx="149" cy="194" r="4"/>
</g>
<g fill="#000000">
	<circle cx="69" cy="274" r="4"/>
</g>
<g fill="#000000">
	<circle cx="142" cy="118" r="4"/>
</g>
<g fill="#000000">
	<circle cx="54" cy="133" r="4"/>
</g>
<g fill="#000000">
	<circle cx="110" cy="170" r="4"/>
</g>
<g fill="#000000">
	<circle cx="390" cy="274" r="4"/>
</g>
<g fill="#000000">
	<circle cx="390" cy="207" r="4"/>
</g>
<g fill="#000000">
	<circle cx="385" cy="153" r="4"/>
</g>
<g fill="#000000">
	<circle cx="306" cy="141" r="4"/>
</g>
<g fill="#000000">
	<circle cx="96" cy="86" r="4"/>
</g>
<g fill="#000000">
	<circle cx="203" cy="58" r="4"/>
</g>
<g fill="#000000">
	<circle cx="133" cy="26" r="4"/>
</g>
<g fill="#000000">
	<circle cx="138" cy="78" r="4"/>
</g>
<g fill="#000000">
	<circle cx="179" cy="162" r="4"/>
</g>
<g fill="#000000">
	<circle cx="103" cy="127" r="4"/>
</g>
<g fill="#000000">
	<circle cx="194" cy="96" r="4"/>
</g>
<g fill="#000000">
	<circle cx="186" cy="129" r="4"/>
</g>

</g>

</svg>
