<?xml version="1.0" encoding="utf-8"?>
<!-- Created with Hypercube (http://tumic.wz.cz/hypercube) -->

<svg width="400" height="300" viewBox="0 0 400 300" xmlns="http://www.w3.org/2000/svg" baseProfile="tiny">

<g font-family="Helvetica" font-weight="normal">

<g>
	<polygon points="241,126 233,121 241,117" fill="#aaff00"/>
	<line x1="218" y1="85" x2="238" y2="119" stroke="#aaff00" stroke-width="2"/>
</g>
<g>
	<polygon points="172,112 177,104 181,112" fill="#aaff00"/>
	<line x1="218" y1="85" x2="178" y2="108" stroke="#aaff00" stroke-width="2"/>
</g>
<g>
	<polygon points="241,133 240,142 232,137" fill="#aaff00"/>
	<line x1="212" y1="172" x2="236" y2="139" stroke="#aaff00" stroke-width="2"/>
</g>
<g>
	<polygon points="209,168 201,164 208,159" fill="#aaff00"/>
	<line x1="169" y1="115" x2="204" y2="162" stroke="#aaff00" stroke-width="2"/>
</g>
<g>
	<polygon points="168,110 163,103 172,102" fill="#aaff00"/>
	<line x1="163" y1="58" x2="167" y2="103" stroke="#aaff00" stroke-width="2"/>
</g>
<g>
	<polygon points="164,116 158,123 155,114" fill="#aaff00"/>
	<line x1="114" y1="134" x2="157" y2="118" stroke="#aaff00" stroke-width="2"/>
</g>
<g>
	<polygon points="88,174 88,165 96,170" fill="#aaff00"/>
	<line x1="114" y1="134" x2="92" y2="168" stroke="#aaff00" stroke-width="2"/>
</g>
<g>
	<polygon points="154,169 145,167 151,160" fill="#aaff00"/>
	<line x1="114" y1="134" x2="149" y2="164" stroke="#aaff00" stroke-width="2"/>
</g>
<g>
	<polygon points="207,172 199,177 199,168" fill="#aaff00"/>
	<line x1="86" y1="178" x2="200" y2="172" stroke="#aaff00" stroke-width="2"/>
</g>
<g>
	<polygon points="82,175 73,175 77,167" fill="#aaff00"/>
	<line x1="29" y1="143" x2="76" y2="171" stroke="#aaff00" stroke-width="2"/>
</g>
<g>
	<polygon points="82,180 79,189 73,182" fill="#aaff00"/>
	<line x1="30" y1="222" x2="76" y2="185" stroke="#aaff00" stroke-width="2"/>
</g>
<g>
	<polygon points="28,226 28,235 20,231" fill="#aaff00"/>
	<line x1="5" y1="275" x2="25" y2="232" stroke="#aaff00" stroke-width="2"/>
</g>
<g>
	<polygon points="168,119 171,127 162,126" fill="#aaff00"/>
	<line x1="158" y1="172" x2="166" y2="126" stroke="#aaff00" stroke-width="2"/>
</g>
<g>
	<polygon points="228,226 219,225 225,217" fill="#aaff00"/>
	<line x1="158" y1="172" x2="222" y2="221" stroke="#aaff00" stroke-width="2"/>
</g>
<g>
	<polygon points="287,219 280,225 279,216" fill="#aaff00"/>
	<line x1="232" y1="229" x2="280" y2="220" stroke="#aaff00" stroke-width="2"/>
</g>
<g>
	<polygon points="215,174 224,174 220,182" fill="#aaff00"/>
	<line x1="292" y1="219" x2="222" y2="177" stroke="#aaff00" stroke-width="2"/>
</g>
<g>
	<polygon points="295,222 303,224 297,230" fill="#aaff00"/>
	<line x1="344" y1="270" x2="300" y2="227" stroke="#aaff00" stroke-width="2"/>
</g>
<g>
	<polygon points="348,272 357,271 352,279" fill="#aaff00"/>
	<line x1="394" y1="295" x2="354" y2="275" stroke="#aaff00" stroke-width="2"/>
</g>
<g>
	<polygon points="296,217 302,211 305,220" fill="#aaff00"/>
	<line x1="353" y1="203" x2="303" y2="216" stroke="#aaff00" stroke-width="2"/>
</g>
<g>
	<polygon points="234,232 242,237 234,241" fill="#aaff00"/>
	<line x1="266" y1="288" x2="237" y2="239" stroke="#aaff00" stroke-width="2"/>
</g>
<g>
	<polygon points="216,170 221,162 225,170" fill="#aaff00"/>
	<line x1="310" y1="127" x2="222" y2="167" stroke="#aaff00" stroke-width="2"/>
</g>
<g>
	<polygon points="310,122 306,114 315,115" fill="#aaff00"/>
	<line x1="316" y1="74" x2="311" y2="115" stroke="#aaff00" stroke-width="2"/>
</g>
<g>
	<polygon points="314,125 320,118 323,127" fill="#aaff00"/>
	<line x1="377" y1="103" x2="321" y2="123" stroke="#aaff00" stroke-width="2"/>
</g>
<g>
	<polygon points="378,98 376,89 384,92" fill="#aaff00"/>
	<line x1="395" y1="45" x2="380" y2="91" stroke="#aaff00" stroke-width="2"/>
</g>
<g>
	<polygon points="209,175 207,184 200,178" fill="#aaff00"/>
	<line x1="152" y1="241" x2="204" y2="180" stroke="#aaff00" stroke-width="2"/>
</g>
<g>
	<polygon points="148,243 143,251 139,243" fill="#aaff00"/>
	<line x1="96" y1="276" x2="142" y2="247" stroke="#aaff00" stroke-width="2"/>
</g>
<g>
	<polygon points="152,245 156,253 147,253" fill="#aaff00"/>
	<line x1="153" y1="295" x2="152" y2="252" stroke="#aaff00" stroke-width="2"/>
</g>
<g>
	<polygon points="157,295 165,290 165,299" fill="#aaff00"/>
	<line x1="201" y1="295" x2="164" y2="295" stroke="#aaff00" stroke-width="2"/>
</g>
<g>
	<polygon points="163,5 171,1 171,10" fill="#aaff00"/>
	<line x1="210" y1="8" x2="170" y2="5" stroke="#aaff00" stroke-width="2"/>
</g>
<g>
	<polygon points="262,5 254,10 254,1" fill="#aaff00"/>
	<line x1="210" y1="8" x2="255" y2="5" stroke="#aaff00" stroke-width="2"/>
</g>
<g>
	<polygon points="166,54 168,45 174,52" fill="#aaff00"/>
	<line x1="210" y1="8" x2="171" y2="49" stroke="#aaff00" stroke-width="2"/>
</g>

<g fill="#000000">
	<circle cx="209" cy="7" r="4"/>
</g>
<g fill="#000000">
	<circle cx="158" cy="4" r="4"/>
</g>
<g fill="#000000">
	<circle cx="266" cy="4" r="4"/>
</g>
<g fill="#000000">
	<circle cx="217" cy="84" r="4"/>
</g>
<g fill="#000000">
	<circle cx="243" cy="129" r="4"/>
</g>
<g fill="#000000">
	<circle cx="168" cy="114" r="4"/>
</g>
<g fill="#000000">
	<circle cx="211" cy="171" r="4"/>
</g>
<g fill="#000000">
	<circle cx="162" cy="57" r="4"/>
</g>
<g fill="#000000">
	<circle cx="28" cy="142" r="4"/>
</g>
<g fill="#000000">
	<circle cx="85" cy="177" r="4"/>
</g>
<g fill="#000000">
	<circle cx="4" cy="274" r="4"/>
</g>
<g fill="#000000">
	<circle cx="29" cy="221" r="4"/>
</g>
<g fill="#000000">
	<circle cx="315" cy="73" r="4"/>
</g>
<g fill="#000000">
	<circle cx="309" cy="126" r="4"/>
</g>
<g fill="#000000">
	<circle cx="394" cy="44" r="4"/>
</g>
<g fill="#000000">
	<circle cx="376" cy="102" r="4"/>
</g>
<g fill="#000000">
	<circle cx="113" cy="133" r="4"/>
</g>
<g fill="#000000">
	<circle cx="157" cy="171" r="4"/>
</g>
<g fill="#000000">
	<circle cx="231" cy="228" r="4"/>
</g>
<g fill="#000000">
	<circle cx="95" cy="275" r="4"/>
</g>
<g fill="#000000">
	<circle cx="151" cy="240" r="4"/>
</g>
<g fill="#000000">
	<circle cx="200" cy="294" r="4"/>
</g>
<g fill="#000000">
	<circle cx="152" cy="294" r="4"/>
</g>
<g fill="#000000">
	<circle cx="291" cy="218" r="4"/>
</g>
<g fill="#000000">
	<circle cx="393" cy="294" r="4"/>
</g>
<g fill="#000000">
	<circle cx="343" cy="269" r="4"/>
</g>
<g fill="#000000">
	<circle cx="352" cy="202" r="4"/>
</g>
<g fill="#000000">
	<circle cx="265" cy="287" r="4"/>
</g>

</g>

</svg>
