<?xml version="1.0" encoding="utf-8"?>
<!-- Created with Hypercube (http://tumic.wz.cz/hypercube) -->

<svg width="400" height="300" viewBox="0 0 400 300" xmlns="http://www.w3.org/2000/svg" baseProfile="tiny">

<g font-family="Helvetica" font-weight="normal">

<g>
	<polygon points="161,179 166,172 170,180" fill="#aaff00"/>
	<line x1="217" y1="151" x2="168" y2="176" stroke="#aaff00" stroke-width="2"/>
</g>
<g>
	<polygon points="253,84 253,93 246,89" fill="#aaff00"/>
	<line x1="217" y1="151" x2="250" y2="91" stroke="#aaff00" stroke-width="2"/>
</g>
<g>
	<polygon points="65,200 72,194 73,203" fill="#aaff00"/>
	<line x1="158" y1="182" x2="72" y2="198" stroke="#aaff00" stroke-width="2"/>
</g>
<g>
	<polygon points="56,254 52,246 61,247" fill="#aaff00"/>
	<line x1="61" y1="201" x2="57" y2="247" stroke="#aaff00" stroke-width="2"/>
</g>
<g>
	<polygon points="99,161 97,169 91,163" fill="#aaff00"/>
	<line x1="61" y1="201" x2="94" y2="166" stroke="#aaff00" stroke-width="2"/>
</g>
<g>
	<polygon points="57,203 52,210 48,202" fill="#aaff00"/>
	<line x1="5" y1="231" x2="50" y2="206" stroke="#aaff00" stroke-width="2"/>
</g>
<g>
	<polygon points="64,203 73,205 67,212" fill="#aaff00"/>
	<line x1="145" y1="269" x2="70" y2="208" stroke="#aaff00" stroke-width="2"/>
</g>
<g>
	<polygon points="141,271 136,279 132,271" fill="#aaff00"/>
	<line x1="102" y1="295" x2="134" y2="275" stroke="#aaff00" stroke-width="2"/>
</g>
<g>
	<polygon points="148,271 157,270 153,278" fill="#aaff00"/>
	<line x1="194" y1="295" x2="155" y2="274" stroke="#aaff00" stroke-width="2"/>
</g>
<g>
	<polygon points="58,197 50,193 57,188" fill="#aaff00"/>
	<line x1="5" y1="120" x2="54" y2="191" stroke="#aaff00" stroke-width="2"/>
</g>
<g>
	<polygon points="56,199 47,200 51,192" fill="#aaff00"/>
	<line x1="6" y1="179" x2="50" y2="196" stroke="#aaff00" stroke-width="2"/>
</g>
<g>
	<polygon points="60,196 55,189 64,188" fill="#aaff00"/>
	<line x1="55" y1="133" x2="59" y2="189" stroke="#aaff00" stroke-width="2"/>
</g>
<g>
	<polygon points="58,204 58,213 50,208" fill="#aaff00"/>
	<line x1="5" y1="287" x2="54" y2="210" stroke="#aaff00" stroke-width="2"/>
</g>
<g>
	<polygon points="65,202 74,201 70,209" fill="#aaff00"/>
	<line x1="110" y1="222" x2="71" y2="205" stroke="#aaff00" stroke-width="2"/>
</g>
<g>
	<polygon points="155,6 164,3 161,12" fill="#aaff00"/>
	<line x1="209" y1="20" x2="162" y2="7" stroke="#aaff00" stroke-width="2"/>
</g>
<g>
	<polygon points="140,76 148,73 147,82" fill="#aaff00"/>
	<line x1="194" y1="84" x2="147" y2="77" stroke="#aaff00" stroke-width="2"/>
</g>
<g>
	<polygon points="375,212 366,213 370,205" fill="#aaff00"/>
	<line x1="328" y1="187" x2="368" y2="209" stroke="#aaff00" stroke-width="2"/>
</g>
<g>
	<polygon points="379,219 385,226 377,227" fill="#aaff00"/>
	<line x1="391" y1="271" x2="381" y2="226" stroke="#aaff00" stroke-width="2"/>
</g>
<g>
	<polygon points="380,210 378,201 386,204" fill="#aaff00"/>
	<line x1="395" y1="159" x2="382" y2="203" stroke="#aaff00" stroke-width="2"/>
</g>
<g>
	<polygon points="325,183 316,180 323,174" fill="#aaff00"/>
	<line x1="290" y1="139" x2="320" y2="177" stroke="#aaff00" stroke-width="2"/>
</g>
<g>
	<polygon points="387,50 382,57 378,49" fill="#aaff00"/>
	<line x1="334" y1="71" x2="381" y2="53" stroke="#aaff00" stroke-width="2"/>
</g>
<g>
	<polygon points="323,6 317,13 314,4" fill="#aaff00"/>
	<line x1="276" y1="22" x2="316" y2="8" stroke="#aaff00" stroke-width="2"/>
</g>
<g>
	<polygon points="211,23 220,26 212,32" fill="#aaff00"/>
	<line x1="256" y1="81" x2="216" y2="29" stroke="#aaff00" stroke-width="2"/>
</g>
<g>
	<polygon points="198,83 206,78 206,87" fill="#aaff00"/>
	<line x1="256" y1="81" x2="205" y2="83" stroke="#aaff00" stroke-width="2"/>
</g>
<g>
	<polygon points="287,135 279,130 287,126" fill="#aaff00"/>
	<line x1="256" y1="81" x2="284" y2="128" stroke="#aaff00" stroke-width="2"/>
</g>
<g>
	<polygon points="329,71 322,77 321,68" fill="#aaff00"/>
	<line x1="256" y1="81" x2="322" y2="72" stroke="#aaff00" stroke-width="2"/>
</g>
<g>
	<polygon points="274,26 276,35 267,32" fill="#aaff00"/>
	<line x1="256" y1="81" x2="272" y2="33" stroke="#aaff00" stroke-width="2"/>
</g>

<g fill="#000000">
	<circle cx="216" cy="150" r="4"/>
</g>
<g fill="#000000">
	<circle cx="157" cy="181" r="4"/>
</g>
<g fill="#000000">
	<circle cx="255" cy="80" r="4"/>
</g>
<g fill="#000000">
	<circle cx="60" cy="200" r="4"/>
</g>
<g fill="#000000">
	<circle cx="208" cy="19" r="4"/>
</g>
<g fill="#000000">
	<circle cx="150" cy="4" r="4"/>
</g>
<g fill="#000000">
	<circle cx="55" cy="258" r="4"/>
</g>
<g fill="#000000">
	<circle cx="102" cy="157" r="4"/>
</g>
<g fill="#000000">
	<circle cx="4" cy="230" r="4"/>
</g>
<g fill="#000000">
	<circle cx="144" cy="268" r="4"/>
</g>
<g fill="#000000">
	<circle cx="101" cy="294" r="4"/>
</g>
<g fill="#000000">
	<circle cx="193" cy="83" r="4"/>
</g>
<g fill="#000000">
	<circle cx="135" cy="75" r="4"/>
</g>
<g fill="#000000">
	<circle cx="4" cy="119" r="4"/>
</g>
<g fill="#000000">
	<circle cx="327" cy="186" r="4"/>
</g>
<g fill="#000000">
	<circle cx="378" cy="214" r="4"/>
</g>
<g fill="#000000">
	<circle cx="289" cy="138" r="4"/>
</g>
<g fill="#000000">
	<circle cx="390" cy="270" r="4"/>
</g>
<g fill="#000000">
	<circle cx="333" cy="70" r="4"/>
</g>
<g fill="#000000">
	<circle cx="391" cy="48" r="4"/>
</g>
<g fill="#000000">
	<circle cx="193" cy="294" r="4"/>
</g>
<g fill="#000000">
	<circle cx="275" cy="21" r="4"/>
</g>
<g fill="#000000">
	<circle cx="327" cy="4" r="4"/>
</g>
<g fill="#000000">
	<circle cx="5" cy="178" r="4"/>
</g>
<g fill="#000000">
	<circle cx="54" cy="132" r="4"/>
</g>
<g fill="#000000">
	<circle cx="4" cy="286" r="4"/>
</g>
<g fill="#000000">
	<circle cx="109" cy="221" r="4"/>
</g>
<g fill="#000000">
	<circle cx="394" cy="158" r="4"/>
</g>

</g>

</svg>
