<?xml version="1.0" encoding="utf-8"?>
<!-- Created with Hypercube (http://tumic.wz.cz/hypercube) -->

<svg width="400" height="300" viewBox="0 0 400 300" xmlns="http://www.w3.org/2000/svg" baseProfile="tiny">

<g font-family="Helvetica" font-weight="normal">

<g>
	<polygon points="188,144 188,135 195,139" fill="#aaff00"/>
	<line x1="212" y1="101" x2="191" y2="137" stroke="#aaff00" stroke-width="2"/>
</g>
<g>
	<polygon points="91,47 98,42 99,51" fill="#aaff00"/>
	<line x1="155" y1="41" x2="98" y2="46" stroke="#aaff00" stroke-width="2"/>
</g>
<g>
	<polygon points="64,93 64,84 72,88" fill="#aaff00"/>
	<line x1="87" y1="48" x2="68" y2="87" stroke="#aaff00" stroke-width="2"/>
</g>
<g>
	<polygon points="58,99 52,106 49,97" fill="#aaff00"/>
	<line x1="11" y1="115" x2="51" y2="101" stroke="#aaff00" stroke-width="2"/>
</g>
<g>
	<polygon points="5,172 1,164 10,165" fill="#aaff00"/>
	<line x1="11" y1="115" x2="6" y2="165" stroke="#aaff00" stroke-width="2"/>
</g>
<g>
	<polygon points="7,232 2,224 11,224" fill="#aaff00"/>
	<line x1="5" y1="177" x2="7" y2="225" stroke="#aaff00" stroke-width="2"/>
</g>
<g>
	<polygon points="7,241 11,249 2,249" fill="#aaff00"/>
	<line x1="5" y1="295" x2="7" y2="248" stroke="#aaff00" stroke-width="2"/>
</g>
<g>
	<polygon points="82,48 75,53 74,44" fill="#aaff00"/>
	<line x1="24" y1="53" x2="75" y2="48" stroke="#aaff00" stroke-width="2"/>
</g>
<g>
	<polygon points="11,110 9,102 17,103" fill="#aaff00"/>
	<line x1="24" y1="53" x2="13" y2="103" stroke="#aaff00" stroke-width="2"/>
</g>
<g>
	<polygon points="22,48 15,43 23,39" fill="#aaff00"/>
	<line x1="5" y1="5" x2="19" y2="42" stroke="#aaff00" stroke-width="2"/>
</g>
<g>
	<polygon points="200,295 208,290 208,299" fill="#aaff00"/>
	<line x1="249" y1="295" x2="207" y2="295" stroke="#aaff00" stroke-width="2"/>
</g>
<g>
	<polygon points="300,295 292,299 292,290" fill="#aaff00"/>
	<line x1="249" y1="295" x2="293" y2="295" stroke="#aaff00" stroke-width="2"/>
</g>
<g>
	<polygon points="276,255 275,264 268,259" fill="#aaff00"/>
	<line x1="249" y1="295" x2="272" y2="261" stroke="#aaff00" stroke-width="2"/>
</g>
<g>
	<polygon points="145,294 153,289 153,298" fill="#aaff00"/>
	<line x1="196" y1="295" x2="152" y2="294" stroke="#aaff00" stroke-width="2"/>
</g>
<g>
	<polygon points="137,291 128,291 132,284" fill="#aaff00"/>
	<line x1="95" y1="268" x2="130" y2="288" stroke="#aaff00" stroke-width="2"/>
</g>
<g>
	<polygon points="95,263 92,255 101,256" fill="#aaff00"/>
	<line x1="104" y1="214" x2="96" y2="256" stroke="#aaff00" stroke-width="2"/>
</g>
<g>
	<polygon points="302,291 294,286 302,282" fill="#aaff00"/>
	<line x1="279" y1="252" x2="298" y2="284" stroke="#aaff00" stroke-width="2"/>
</g>
<g>
	<polygon points="325,244 318,250 317,241" fill="#aaff00"/>
	<line x1="279" y1="252" x2="318" y2="245" stroke="#aaff00" stroke-width="2"/>
</g>
<g>
	<polygon points="306,290 306,281 314,285" fill="#aaff00"/>
	<line x1="330" y1="244" x2="310" y2="284" stroke="#aaff00" stroke-width="2"/>
</g>
<g>
	<polygon points="333,240 334,231 341,237" fill="#aaff00"/>
	<line x1="372" y1="198" x2="337" y2="235" stroke="#aaff00" stroke-width="2"/>
</g>
<g>
	<polygon points="344,146 351,151 343,155" fill="#aaff00"/>
	<line x1="372" y1="198" x2="347" y2="153" stroke="#aaff00" stroke-width="2"/>
</g>
<g>
	<polygon points="393,152 393,161 385,157" fill="#aaff00"/>
	<line x1="372" y1="198" x2="390" y2="158" stroke="#aaff00" stroke-width="2"/>
</g>
<g>
	<polygon points="393,250 386,245 394,241" fill="#aaff00"/>
	<line x1="372" y1="198" x2="390" y2="244" stroke="#aaff00" stroke-width="2"/>
</g>
<g>
	<polygon points="390,147 382,151 383,142" fill="#aaff00"/>
	<line x1="342" y1="143" x2="383" y2="146" stroke="#aaff00" stroke-width="2"/>
</g>
<g>
	<polygon points="300,99 308,101 302,107" fill="#aaff00"/>
	<line x1="342" y1="143" x2="305" y2="104" stroke="#aaff00" stroke-width="2"/>
</g>
<g>
	<polygon points="214,97 215,88 222,93" fill="#aaff00"/>
	<line x1="244" y1="53" x2="218" y2="91" stroke="#aaff00" stroke-width="2"/>
</g>
<g>
	<polygon points="159,41 167,38 166,47" fill="#aaff00"/>
	<line x1="244" y1="53" x2="166" y2="42" stroke="#aaff00" stroke-width="2"/>
</g>
<g>
	<polygon points="211,8 219,12 212,17" fill="#aaff00"/>
	<line x1="244" y1="53" x2="215" y2="14" stroke="#aaff00" stroke-width="2"/>
</g>
<g>
	<polygon points="314,31 308,37 305,29" fill="#aaff00"/>
	<line x1="244" y1="53" x2="307" y2="33" stroke="#aaff00" stroke-width="2"/>
</g>
<g>
	<polygon points="293,93 284,91 290,84" fill="#aaff00"/>
	<line x1="244" y1="53" x2="287" y2="88" stroke="#aaff00" stroke-width="2"/>
</g>
<g>
	<polygon points="265,9 265,18 257,14" fill="#aaff00"/>
	<line x1="244" y1="53" x2="261" y2="15" stroke="#aaff00" stroke-width="2"/>
</g>

<g fill="#000000">
	<circle cx="243" cy="52" r="4"/>
</g>
<g fill="#000000">
	<circle cx="211" cy="100" r="4"/>
</g>
<g fill="#000000">
	<circle cx="185" cy="147" r="4"/>
</g>
<g fill="#000000">
	<circle cx="154" cy="40" r="4"/>
</g>
<g fill="#000000">
	<circle cx="86" cy="47" r="4"/>
</g>
<g fill="#000000">
	<circle cx="62" cy="97" r="4"/>
</g>
<g fill="#000000">
	<circle cx="208" cy="4" r="4"/>
</g>
<g fill="#000000">
	<circle cx="318" cy="29" r="4"/>
</g>
<g fill="#000000">
	<circle cx="4" cy="294" r="4"/>
</g>
<g fill="#000000">
	<circle cx="7" cy="236" r="4"/>
</g>
<g fill="#000000">
	<circle cx="248" cy="294" r="4"/>
</g>
<g fill="#000000">
	<circle cx="195" cy="294" r="4"/>
</g>
<g fill="#000000">
	<circle cx="304" cy="294" r="4"/>
</g>
<g fill="#000000">
	<circle cx="278" cy="251" r="4"/>
</g>
<g fill="#000000">
	<circle cx="140" cy="293" r="4"/>
</g>
<g fill="#000000">
	<circle cx="329" cy="243" r="4"/>
</g>
<g fill="#000000">
	<circle cx="266" cy="4" r="4"/>
</g>
<g fill="#000000">
	<circle cx="341" cy="142" r="4"/>
</g>
<g fill="#000000">
	<circle cx="394" cy="147" r="4"/>
</g>
<g fill="#000000">
	<circle cx="296" cy="95" r="4"/>
</g>
<g fill="#000000">
	<circle cx="94" cy="267" r="4"/>
</g>
<g fill="#000000">
	<circle cx="4" cy="4" r="4"/>
</g>
<g fill="#000000">
	<circle cx="23" cy="52" r="4"/>
</g>
<g fill="#000000">
	<circle cx="10" cy="114" r="4"/>
</g>
<g fill="#000000">
	<circle cx="371" cy="197" r="4"/>
</g>
<g fill="#000000">
	<circle cx="394" cy="254" r="4"/>
</g>
<g fill="#000000">
	<circle cx="103" cy="213" r="4"/>
</g>
<g fill="#000000">
	<circle cx="4" cy="176" r="4"/>
</g>

</g>

</svg>
