<?xml version="1.0" encoding="utf-8"?>
<!-- Created with Hypercube (http://tumic.wz.cz/hypercube) -->

<svg width="400" height="300" viewBox="0 0 400 300" xmlns="http://www.w3.org/2000/svg" baseProfile="tiny">

<g font-family="Helvetica" font-weight="normal">

<g>
	<polygon points="360,257 368,259 362,266" fill="#aaff00"/>
	<line x1="395" y1="295" x2="364" y2="262" stroke="#aaff00" stroke-width="2"/>
</g>
<g>
	<polygon points="303,209 312,211 306,218" fill="#aaff00"/>
	<line x1="357" y1="254" x2="309" y2="214" stroke="#aaff00" stroke-width="2"/>
</g>
<g>
	<polygon points="214,242 219,235 223,243" fill="#aaff00"/>
	<line x1="300" y1="207" x2="220" y2="239" stroke="#aaff00" stroke-width="2"/>
</g>
<g>
	<polygon points="347,188 342,195 338,187" fill="#aaff00"/>
	<line x1="300" y1="207" x2="341" y2="191" stroke="#aaff00" stroke-width="2"/>
</g>
<g>
	<polygon points="314,105 317,113 308,112" fill="#aaff00"/>
	<line x1="300" y1="207" x2="313" y2="112" stroke="#aaff00" stroke-width="2"/>
</g>
<g>
	<polygon points="296,264 292,256 301,257" fill="#aaff00"/>
	<line x1="300" y1="207" x2="296" y2="257" stroke="#aaff00" stroke-width="2"/>
</g>
<g>
	<polygon points="261,174 270,176 264,183" fill="#aaff00"/>
	<line x1="300" y1="207" x2="266" y2="179" stroke="#aaff00" stroke-width="2"/>
</g>
<g>
	<polygon points="137,262 143,256 146,265" fill="#aaff00"/>
	<line x1="210" y1="244" x2="144" y2="261" stroke="#aaff00" stroke-width="2"/>
</g>
<g>
	<polygon points="218,290 212,283 221,282" fill="#aaff00"/>
	<line x1="210" y1="244" x2="216" y2="283" stroke="#aaff00" stroke-width="2"/>
</g>
<g>
	<polygon points="105,213 112,218 105,222" fill="#aaff00"/>
	<line x1="133" y1="264" x2="108" y2="220" stroke="#aaff00" stroke-width="2"/>
</g>
<g>
	<polygon points="42,277 49,271 50,280" fill="#aaff00"/>
	<line x1="133" y1="264" x2="49" y2="276" stroke="#aaff00" stroke-width="2"/>
</g>
<g>
	<polygon points="89,260 97,256 96,265" fill="#aaff00"/>
	<line x1="133" y1="264" x2="96" y2="260" stroke="#aaff00" stroke-width="2"/>
</g>
<g>
	<polygon points="73,169 81,173 74,178" fill="#aaff00"/>
	<line x1="103" y1="210" x2="77" y2="175" stroke="#aaff00" stroke-width="2"/>
</g>
<g>
	<polygon points="16,205 24,201 24,210" fill="#aaff00"/>
	<line x1="103" y1="210" x2="23" y2="205" stroke="#aaff00" stroke-width="2"/>
</g>
<g>
	<polygon points="137,169 135,178 128,172" fill="#aaff00"/>
	<line x1="103" y1="210" x2="132" y2="174" stroke="#aaff00" stroke-width="2"/>
</g>
<g>
	<polygon points="15,202 19,194 24,201" fill="#aaff00"/>
	<line x1="71" y1="166" x2="21" y2="198" stroke="#aaff00" stroke-width="2"/>
</g>
<g>
	<polygon points="54,202 53,193 62,197" fill="#aaff00"/>
	<line x1="71" y1="166" x2="57" y2="196" stroke="#aaff00" stroke-width="2"/>
</g>
<g>
	<polygon points="36,273 29,267 38,264" fill="#aaff00"/>
	<line x1="12" y1="205" x2="34" y2="266" stroke="#aaff00" stroke-width="2"/>
</g>
<g>
	<polygon points="9,166 14,173 5,174" fill="#aaff00"/>
	<line x1="12" y1="205" x2="9" y2="173" stroke="#aaff00" stroke-width="2"/>
</g>
<g>
	<polygon points="5,118 10,125 1,126" fill="#aaff00"/>
	<line x1="12" y1="205" x2="5" y2="125" stroke="#aaff00" stroke-width="2"/>
</g>
<g>
	<polygon points="49,203 41,201 47,195" fill="#aaff00"/>
	<line x1="9" y1="162" x2="44" y2="198" stroke="#aaff00" stroke-width="2"/>
</g>
<g>
	<polygon points="5,118 10,125 1,126" fill="#aaff00"/>
	<line x1="9" y1="162" x2="5" y2="125" stroke="#aaff00" stroke-width="2"/>
</g>
<g>
	<polygon points="101,214 103,223 94,220" fill="#aaff00"/>
	<line x1="85" y1="260" x2="99" y2="221" stroke="#aaff00" stroke-width="2"/>
</g>
<g>
	<polygon points="55,210 63,215 55,219" fill="#aaff00"/>
	<line x1="85" y1="260" x2="59" y2="217" stroke="#aaff00" stroke-width="2"/>
</g>
<g>
	<polygon points="5,58 9,66 0,66" fill="#aaff00"/>
	<line x1="5" y1="114" x2="5" y2="65" stroke="#aaff00" stroke-width="2"/>
</g>
<g>
	<polygon points="58,86 53,93 49,85" fill="#aaff00"/>
	<line x1="5" y1="114" x2="51" y2="89" stroke="#aaff00" stroke-width="2"/>
</g>
<g>
	<polygon points="5,9 9,17 0,17" fill="#aaff00"/>
	<line x1="5" y1="54" x2="5" y2="16" stroke="#aaff00" stroke-width="2"/>
</g>
<g>
	<polygon points="315,41 319,49 310,49" fill="#aaff00"/>
	<line x1="315" y1="101" x2="315" y2="48" stroke="#aaff00" stroke-width="2"/>
</g>
<g>
	<polygon points="372,67 367,75 363,67" fill="#aaff00"/>
	<line x1="315" y1="101" x2="365" y2="70" stroke="#aaff00" stroke-width="2"/>
</g>
<g>
	<polygon points="265,71 274,71 270,79" fill="#aaff00"/>
	<line x1="315" y1="101" x2="272" y2="75" stroke="#aaff00" stroke-width="2"/>
</g>
<g>
	<polygon points="393,107 386,102 394,98" fill="#aaff00"/>
	<line x1="376" y1="65" x2="390" y2="101" stroke="#aaff00" stroke-width="2"/>
</g>
<g>
	<polygon points="393,13 395,22 386,19" fill="#aaff00"/>
	<line x1="376" y1="65" x2="391" y2="20" stroke="#aaff00" stroke-width="2"/>
</g>
<g>
	<polygon points="219,137 228,138 222,145" fill="#aaff00"/>
	<line x1="258" y1="172" x2="224" y2="141" stroke="#aaff00" stroke-width="2"/>
</g>

<g fill="#000000">
	<circle cx="394" cy="294" r="4"/>
</g>
<g fill="#000000">
	<circle cx="356" cy="253" r="4"/>
</g>
<g fill="#000000">
	<circle cx="299" cy="206" r="4"/>
</g>
<g fill="#000000">
	<circle cx="209" cy="243" r="4"/>
</g>
<g fill="#000000">
	<circle cx="351" cy="186" r="4"/>
</g>
<g fill="#000000">
	<circle cx="314" cy="100" r="4"/>
</g>
<g fill="#000000">
	<circle cx="295" cy="268" r="4"/>
</g>
<g fill="#000000">
	<circle cx="257" cy="171" r="4"/>
</g>
<g fill="#000000">
	<circle cx="132" cy="263" r="4"/>
</g>
<g fill="#000000">
	<circle cx="218" cy="294" r="4"/>
</g>
<g fill="#000000">
	<circle cx="102" cy="209" r="4"/>
</g>
<g fill="#000000">
	<circle cx="37" cy="277" r="4"/>
</g>
<g fill="#000000">
	<circle cx="84" cy="259" r="4"/>
</g>
<g fill="#000000">
	<circle cx="70" cy="165" r="4"/>
</g>
<g fill="#000000">
	<circle cx="11" cy="204" r="4"/>
</g>
<g fill="#000000">
	<circle cx="139" cy="165" r="4"/>
</g>
<g fill="#000000">
	<circle cx="52" cy="206" r="4"/>
</g>
<g fill="#000000">
	<circle cx="8" cy="161" r="4"/>
</g>
<g fill="#000000">
	<circle cx="4" cy="113" r="4"/>
</g>
<g fill="#000000">
	<circle cx="4" cy="53" r="4"/>
</g>
<g fill="#000000">
	<circle cx="61" cy="83" r="4"/>
</g>
<g fill="#000000">
	<circle cx="4" cy="4" r="4"/>
</g>
<g fill="#000000">
	<circle cx="314" cy="36" r="4"/>
</g>
<g fill="#000000">
	<circle cx="375" cy="64" r="4"/>
</g>
<g fill="#000000">
	<circle cx="261" cy="68" r="4"/>
</g>
<g fill="#000000">
	<circle cx="215" cy="133" r="4"/>
</g>
<g fill="#000000">
	<circle cx="394" cy="111" r="4"/>
</g>
<g fill="#000000">
	<circle cx="394" cy="8" r="4"/>
</g>

</g>

</svg>
