<?xml version="1.0" encoding="utf-8"?>
<!-- Created with Hypercube (http://tumic.wz.cz/hypercube) -->

<svg width="400" height="300" viewBox="0 0 400 300" xmlns="http://www.w3.org/2000/svg" baseProfile="tiny">

<g font-family="Helvetica" font-weight="normal">

<g>
	<polygon points="235,190 226,192 229,184" fill="#aaff00"/>
	<line x1="124" y1="157" x2="228" y2="188" stroke="#aaff00" stroke-width="2"/>
</g>
<g>
	<polygon points="61,163 68,158 69,167" fill="#aaff00"/>
	<line x1="124" y1="157" x2="68" y2="162" stroke="#aaff00" stroke-width="2"/>
</g>
<g>
	<polygon points="189,224 193,216 198,224" fill="#aaff00"/>
	<line x1="240" y1="192" x2="195" y2="220" stroke="#aaff00" stroke-width="2"/>
</g>
<g>
	<polygon points="183,230 181,239 174,233" fill="#aaff00"/>
	<line x1="142" y1="283" x2="178" y2="236" stroke="#aaff00" stroke-width="2"/>
</g>
<g>
	<polygon points="89,294 96,288 97,296" fill="#aaff00"/>
	<line x1="142" y1="283" x2="96" y2="292" stroke="#aaff00" stroke-width="2"/>
</g>
<g>
	<polygon points="146,282 153,276 154,285" fill="#aaff00"/>
	<line x1="197" y1="276" x2="153" y2="281" stroke="#aaff00" stroke-width="2"/>
</g>
<g>
	<polygon points="183,179 189,186 180,187" fill="#aaff00"/>
	<line x1="197" y1="276" x2="184" y2="186" stroke="#aaff00" stroke-width="2"/>
</g>
<g>
	<polygon points="185,222 180,214 189,214" fill="#aaff00"/>
	<line x1="183" y1="175" x2="185" y2="215" stroke="#aaff00" stroke-width="2"/>
</g>
<g>
	<polygon points="125,213 129,205 134,212" fill="#aaff00"/>
	<line x1="183" y1="175" x2="131" y2="209" stroke="#aaff00" stroke-width="2"/>
</g>
<g>
	<polygon points="241,131 237,139 232,132" fill="#aaff00"/>
	<line x1="183" y1="175" x2="235" y2="135" stroke="#aaff00" stroke-width="2"/>
</g>
<g>
	<polygon points="170,59 175,66 166,67" fill="#aaff00"/>
	<line x1="183" y1="175" x2="171" y2="66" stroke="#aaff00" stroke-width="2"/>
</g>
<g>
	<polygon points="298,103 293,111 289,103" fill="#aaff00"/>
	<line x1="245" y1="129" x2="292" y2="106" stroke="#aaff00" stroke-width="2"/>
</g>
<g>
	<polygon points="231,77 237,83 228,86" fill="#aaff00"/>
	<line x1="245" y1="129" x2="233" y2="84" stroke="#aaff00" stroke-width="2"/>
</g>
<g>
	<polygon points="390,84 381,86 384,78" fill="#aaff00"/>
	<line x1="342" y1="71" x2="383" y2="82" stroke="#aaff00" stroke-width="2"/>
</g>
<g>
	<polygon points="306,99 309,90 315,97" fill="#aaff00"/>
	<line x1="342" y1="71" x2="312" y2="94" stroke="#aaff00" stroke-width="2"/>
</g>
<g>
	<polygon points="337,69 328,71 331,62" fill="#aaff00"/>
	<line x1="278" y1="50" x2="330" y2="67" stroke="#aaff00" stroke-width="2"/>
</g>
<g>
	<polygon points="301,97 293,92 301,88" fill="#aaff00"/>
	<line x1="278" y1="50" x2="297" y2="91" stroke="#aaff00" stroke-width="2"/>
</g>
<g>
	<polygon points="234,71 239,63 243,71" fill="#aaff00"/>
	<line x1="278" y1="50" x2="240" y2="67" stroke="#aaff00" stroke-width="2"/>
</g>
<g>
	<polygon points="317,8 315,16 309,10" fill="#aaff00"/>
	<line x1="278" y1="50" x2="312" y2="13" stroke="#aaff00" stroke-width="2"/>
</g>
<g>
	<polygon points="225,71 216,73 219,65" fill="#aaff00"/>
	<line x1="170" y1="55" x2="218" y2="69" stroke="#aaff00" stroke-width="2"/>
</g>
<g>
	<polygon points="73,66 80,61 81,70" fill="#aaff00"/>
	<line x1="170" y1="55" x2="80" y2="65" stroke="#aaff00" stroke-width="2"/>
</g>
<g>
	<polygon points="170,100 165,92 174,92" fill="#aaff00"/>
	<line x1="170" y1="55" x2="170" y2="93" stroke="#aaff00" stroke-width="2"/>
</g>
<g>
	<polygon points="125,73 130,66 134,74" fill="#aaff00"/>
	<line x1="170" y1="55" x2="131" y2="70" stroke="#aaff00" stroke-width="2"/>
</g>
<g>
	<polygon points="231,7 227,16 222,8" fill="#aaff00"/>
	<line x1="170" y1="55" x2="225" y2="12" stroke="#aaff00" stroke-width="2"/>
</g>
<g>
	<polygon points="183,9 185,18 177,15" fill="#aaff00"/>
	<line x1="170" y1="55" x2="181" y2="16" stroke="#aaff00" stroke-width="2"/>
</g>
<g>
	<polygon points="86,7 95,7 91,15" fill="#aaff00"/>
	<line x1="170" y1="55" x2="93" y2="10" stroke="#aaff00" stroke-width="2"/>
</g>
<g>
	<polygon points="273,50 265,55 265,46" fill="#aaff00"/>
	<line x1="170" y1="55" x2="266" y2="50" stroke="#aaff00" stroke-width="2"/>
</g>
<g>
	<polygon points="167,51 159,47 166,42" fill="#aaff00"/>
	<line x1="134" y1="5" x2="163" y2="45" stroke="#aaff00" stroke-width="2"/>
</g>
<g>
	<polygon points="201,277 210,276 206,284" fill="#aaff00"/>
	<line x1="247" y1="295" x2="207" y2="280" stroke="#aaff00" stroke-width="2"/>
</g>
<g>
	<polygon points="242,195 251,198 244,204" fill="#aaff00"/>
	<line x1="277" y1="235" x2="247" y2="200" stroke="#aaff00" stroke-width="2"/>
</g>
<g>
	<polygon points="244,192 252,189 251,198" fill="#aaff00"/>
	<line x1="329" y1="206" x2="251" y2="193" stroke="#aaff00" stroke-width="2"/>
</g>
<g>
	<polygon points="378,228 369,229 373,220" fill="#aaff00"/>
	<line x1="329" y1="206" x2="372" y2="225" stroke="#aaff00" stroke-width="2"/>
</g>
<g>
	<polygon points="52,165 46,171 43,163" fill="#aaff00"/>
	<line x1="5" y1="180" x2="45" y2="167" stroke="#aaff00" stroke-width="2"/>
</g>

<g fill="#000000">
	<circle cx="4" cy="179" r="4"/>
</g>
<g fill="#000000">
	<circle cx="123" cy="156" r="4"/>
</g>
<g fill="#000000">
	<circle cx="239" cy="191" r="4"/>
</g>
<g fill="#000000">
	<circle cx="56" cy="163" r="4"/>
</g>
<g fill="#000000">
	<circle cx="185" cy="226" r="4"/>
</g>
<g fill="#000000">
	<circle cx="341" cy="70" r="4"/>
</g>
<g fill="#000000">
	<circle cx="394" cy="85" r="4"/>
</g>
<g fill="#000000">
	<circle cx="302" cy="101" r="4"/>
</g>
<g fill="#000000">
	<circle cx="276" cy="234" r="4"/>
</g>
<g fill="#000000">
	<circle cx="141" cy="282" r="4"/>
</g>
<g fill="#000000">
	<circle cx="84" cy="294" r="4"/>
</g>
<g fill="#000000">
	<circle cx="182" cy="174" r="4"/>
</g>
<g fill="#000000">
	<circle cx="121" cy="215" r="4"/>
</g>
<g fill="#000000">
	<circle cx="244" cy="128" r="4"/>
</g>
<g fill="#000000">
	<circle cx="169" cy="54" r="4"/>
</g>
<g fill="#000000">
	<circle cx="229" cy="72" r="4"/>
</g>
<g fill="#000000">
	<circle cx="68" cy="66" r="4"/>
</g>
<g fill="#000000">
	<circle cx="169" cy="104" r="4"/>
</g>
<g fill="#000000">
	<circle cx="120" cy="74" r="4"/>
</g>
<g fill="#000000">
	<circle cx="234" cy="4" r="4"/>
</g>
<g fill="#000000">
	<circle cx="184" cy="4" r="4"/>
</g>
<g fill="#000000">
	<circle cx="82" cy="4" r="4"/>
</g>
<g fill="#000000">
	<circle cx="277" cy="49" r="4"/>
</g>
<g fill="#000000">
	<circle cx="196" cy="275" r="4"/>
</g>
<g fill="#000000">
	<circle cx="246" cy="294" r="4"/>
</g>
<g fill="#000000">
	<circle cx="328" cy="205" r="4"/>
</g>
<g fill="#000000">
	<circle cx="382" cy="229" r="4"/>
</g>
<g fill="#000000">
	<circle cx="320" cy="4" r="4"/>
</g>
<g fill="#000000">
	<circle cx="133" cy="4" r="4"/>
</g>

</g>

</svg>
