<?xml version="1.0" encoding="utf-8"?>
<!-- Created with Hypercube (http://tumic.wz.cz/hypercube) -->

<svg width="400" height="300" viewBox="0 0 400 300" xmlns="http://www.w3.org/2000/svg" baseProfile="tiny">

<g font-family="Helvetica" font-weight="normal">

<g>
	<polygon points="24,188 19,180 28,180" fill="#aaff00"/>
	<line x1="24" y1="123" x2="24" y2="181" stroke="#aaff00" stroke-width="2"/>
</g>
<g>
	<polygon points="62,153 53,151 59,144" fill="#aaff00"/>
	<line x1="24" y1="123" x2="56" y2="148" stroke="#aaff00" stroke-width="2"/>
</g>
<g>
	<polygon points="6,240 4,231 13,234" fill="#aaff00"/>
	<line x1="24" y1="193" x2="9" y2="234" stroke="#aaff00" stroke-width="2"/>
</g>
<g>
	<polygon points="108,194 100,199 100,190" fill="#aaff00"/>
	<line x1="24" y1="193" x2="101" y2="194" stroke="#aaff00" stroke-width="2"/>
</g>
<g>
	<polygon points="109,192 100,190 106,183" fill="#aaff00"/>
	<line x1="66" y1="156" x2="104" y2="187" stroke="#aaff00" stroke-width="2"/>
</g>
<g>
	<polygon points="63,111 68,118 59,119" fill="#aaff00"/>
	<line x1="66" y1="156" x2="63" y2="118" stroke="#aaff00" stroke-width="2"/>
</g>
<g>
	<polygon points="113,190 110,182 119,183" fill="#aaff00"/>
	<line x1="122" y1="130" x2="114" y2="183" stroke="#aaff00" stroke-width="2"/>
</g>
<g>
	<polygon points="112,92 118,98 109,101" fill="#aaff00"/>
	<line x1="122" y1="130" x2="113" y2="99" stroke="#aaff00" stroke-width="2"/>
</g>
<g>
	<polygon points="120,125 114,119 123,116" fill="#aaff00"/>
	<line x1="96" y1="33" x2="118" y2="118" stroke="#aaff00" stroke-width="2"/>
</g>
<g>
	<polygon points="99,30 104,23 108,30" fill="#aaff00"/>
	<line x1="146" y1="5" x2="106" y2="27" stroke="#aaff00" stroke-width="2"/>
</g>
<g>
	<polygon points="149,7 158,8 153,15" fill="#aaff00"/>
	<line x1="196" y1="42" x2="155" y2="11" stroke="#aaff00" stroke-width="2"/>
</g>
<g>
	<polygon points="195,123 190,115 199,115" fill="#aaff00"/>
	<line x1="196" y1="42" x2="195" y2="116" stroke="#aaff00" stroke-width="2"/>
</g>
<g>
	<polygon points="167,200 166,191 174,195" fill="#aaff00"/>
	<line x1="195" y1="128" x2="170" y2="194" stroke="#aaff00" stroke-width="2"/>
</g>
<g>
	<polygon points="155,249 153,241 162,242" fill="#aaff00"/>
	<line x1="166" y1="205" x2="157" y2="242" stroke="#aaff00" stroke-width="2"/>
</g>
<g>
	<polygon points="102,244 107,236 111,244" fill="#aaff00"/>
	<line x1="166" y1="205" x2="108" y2="240" stroke="#aaff00" stroke-width="2"/>
</g>
<g>
	<polygon points="115,198 123,202 116,207" fill="#aaff00"/>
	<line x1="155" y1="254" x2="119" y2="204" stroke="#aaff00" stroke-width="2"/>
</g>
<g>
	<polygon points="183,291 174,287 182,282" fill="#aaff00"/>
	<line x1="155" y1="254" x2="178" y2="285" stroke="#aaff00" stroke-width="2"/>
</g>
<g>
	<polygon points="111,199 114,208 105,205" fill="#aaff00"/>
	<line x1="99" y1="247" x2="109" y2="206" stroke="#aaff00" stroke-width="2"/>
</g>
<g>
	<polygon points="69,291 70,282 77,287" fill="#aaff00"/>
	<line x1="99" y1="247" x2="73" y2="285" stroke="#aaff00" stroke-width="2"/>
</g>
<g>
	<polygon points="28,121 33,114 37,122" fill="#aaff00"/>
	<line x1="158" y1="68" x2="34" y2="118" stroke="#aaff00" stroke-width="2"/>
</g>
<g>
	<polygon points="192,44 188,52 183,45" fill="#aaff00"/>
	<line x1="158" y1="68" x2="186" y2="48" stroke="#aaff00" stroke-width="2"/>
</g>
<g>
	<polygon points="162,68 170,64 170,73" fill="#aaff00"/>
	<line x1="260" y1="74" x2="169" y2="68" stroke="#aaff00" stroke-width="2"/>
</g>
<g>
	<polygon points="247,19 254,26 245,27" fill="#aaff00"/>
	<line x1="260" y1="74" x2="249" y2="26" stroke="#aaff00" stroke-width="2"/>
</g>
<g>
	<polygon points="199,39 204,32 208,40" fill="#aaff00"/>
	<line x1="247" y1="15" x2="206" y2="36" stroke="#aaff00" stroke-width="2"/>
</g>
<g>
	<polygon points="261,78 269,83 260,87" fill="#aaff00"/>
	<line x1="287" y1="134" x2="264" y2="84" stroke="#aaff00" stroke-width="2"/>
</g>
<g>
	<polygon points="287,191 283,183 292,183" fill="#aaff00"/>
	<line x1="287" y1="134" x2="287" y2="184" stroke="#aaff00" stroke-width="2"/>
</g>
<g>
	<polygon points="233,214 239,207 242,216" fill="#aaff00"/>
	<line x1="288" y1="196" x2="240" y2="212" stroke="#aaff00" stroke-width="2"/>
</g>
<g>
	<polygon points="117,195 125,192 124,201" fill="#aaff00"/>
	<line x1="229" y1="216" x2="124" y2="197" stroke="#aaff00" stroke-width="2"/>
</g>
<g>
	<polygon points="263,270 255,266 263,261" fill="#aaff00"/>
	<line x1="229" y1="216" x2="259" y2="264" stroke="#aaff00" stroke-width="2"/>
</g>
<g>
	<polygon points="292,196 300,192 299,201" fill="#aaff00"/>
	<line x1="347" y1="202" x2="299" y2="197" stroke="#aaff00" stroke-width="2"/>
</g>
<g>
	<polygon points="346,197 341,190 350,189" fill="#aaff00"/>
	<line x1="342" y1="146" x2="345" y2="190" stroke="#aaff00" stroke-width="2"/>
</g>
<g>
	<polygon points="291,134 299,132 298,141" fill="#aaff00"/>
	<line x1="342" y1="146" x2="298" y2="136" stroke="#aaff00" stroke-width="2"/>
</g>
<g>
	<polygon points="264,74 272,71 271,80" fill="#aaff00"/>
	<line x1="334" y1="86" x2="271" y2="75" stroke="#aaff00" stroke-width="2"/>
</g>
<g>
	<polygon points="341,141 335,134 344,133" fill="#aaff00"/>
	<line x1="334" y1="86" x2="340" y2="134" stroke="#aaff00" stroke-width="2"/>
</g>
<g>
	<polygon points="338,87 346,84 344,93" fill="#aaff00"/>
	<line x1="395" y1="100" x2="345" y2="88" stroke="#aaff00" stroke-width="2"/>
</g>
<g>
	<polygon points="395,95 390,87 399,87" fill="#aaff00"/>
	<line x1="395" y1="52" x2="395" y2="88" stroke="#aaff00" stroke-width="2"/>
</g>
<g>
	<polygon points="395,47 390,39 399,39" fill="#aaff00"/>
	<line x1="395" y1="5" x2="395" y2="40" stroke="#aaff00" stroke-width="2"/>
</g>

<g fill="#000000">
	<circle cx="23" cy="122" r="4"/>
</g>
<g fill="#000000">
	<circle cx="23" cy="192" r="4"/>
</g>
<g fill="#000000">
	<circle cx="65" cy="155" r="4"/>
</g>
<g fill="#000000">
	<circle cx="4" cy="244" r="4"/>
</g>
<g fill="#000000">
	<circle cx="112" cy="194" r="4"/>
</g>
<g fill="#000000">
	<circle cx="62" cy="106" r="4"/>
</g>
<g fill="#000000">
	<circle cx="95" cy="32" r="4"/>
</g>
<g fill="#000000">
	<circle cx="121" cy="129" r="4"/>
</g>
<g fill="#000000">
	<circle cx="110" cy="87" r="4"/>
</g>
<g fill="#000000">
	<circle cx="165" cy="204" r="4"/>
</g>
<g fill="#000000">
	<circle cx="154" cy="253" r="4"/>
</g>
<g fill="#000000">
	<circle cx="98" cy="246" r="4"/>
</g>
<g fill="#000000">
	<circle cx="185" cy="294" r="4"/>
</g>
<g fill="#000000">
	<circle cx="66" cy="294" r="4"/>
</g>
<g fill="#000000">
	<circle cx="195" cy="41" r="4"/>
</g>
<g fill="#000000">
	<circle cx="145" cy="4" r="4"/>
</g>
<g fill="#000000">
	<circle cx="194" cy="127" r="4"/>
</g>
<g fill="#000000">
	<circle cx="259" cy="73" r="4"/>
</g>
<g fill="#000000">
	<circle cx="157" cy="67" r="4"/>
</g>
<g fill="#000000">
	<circle cx="246" cy="14" r="4"/>
</g>
<g fill="#000000">
	<circle cx="287" cy="195" r="4"/>
</g>
<g fill="#000000">
	<circle cx="228" cy="215" r="4"/>
</g>
<g fill="#000000">
	<circle cx="265" cy="273" r="4"/>
</g>
<g fill="#000000">
	<circle cx="341" cy="145" r="4"/>
</g>
<g fill="#000000">
	<circle cx="346" cy="201" r="4"/>
</g>
<g fill="#000000">
	<circle cx="286" cy="133" r="4"/>
</g>
<g fill="#000000">
	<circle cx="394" cy="99" r="4"/>
</g>
<g fill="#000000">
	<circle cx="333" cy="85" r="4"/>
</g>
<g fill="#000000">
	<circle cx="394" cy="4" r="4"/>
</g>
<g fill="#000000">
	<circle cx="394" cy="51" r="4"/>
</g>

</g>

</svg>
