<?xml version="1.0" encoding="utf-8"?>
<!-- Created with Hypercube (http://tumic.wz.cz/hypercube) -->

<svg width="400" height="300" viewBox="0 0 400 300" xmlns="http://www.w3.org/2000/svg" baseProfile="tiny">

<g font-family="Helvetica" font-weight="normal">

<g>
	<polygon points="51,129 49,120 58,123" fill="#aaff00"/>
	<line x1="70" y1="79" x2="53" y2="123" stroke="#aaff00" stroke-width="2"/>
</g>
<g>
	<polygon points="149,118 140,118 144,110" fill="#aaff00"/>
	<line x1="70" y1="79" x2="143" y2="114" stroke="#aaff00" stroke-width="2"/>
</g>
<g>
	<polygon points="70,190 63,184 72,181" fill="#aaff00"/>
	<line x1="50" y1="134" x2="68" y2="184" stroke="#aaff00" stroke-width="2"/>
</g>
<g>
	<polygon points="100,125 93,131 92,122" fill="#aaff00"/>
	<line x1="50" y1="134" x2="93" y2="126" stroke="#aaff00" stroke-width="2"/>
</g>
<g>
	<polygon points="127,224 118,225 122,217" fill="#aaff00"/>
	<line x1="72" y1="195" x2="120" y2="221" stroke="#aaff00" stroke-width="2"/>
</g>
<g>
	<polygon points="127,173 122,180 118,172" fill="#aaff00"/>
	<line x1="72" y1="195" x2="121" y2="176" stroke="#aaff00" stroke-width="2"/>
</g>
<g>
	<polygon points="177,263 168,261 174,254" fill="#aaff00"/>
	<line x1="131" y1="227" x2="171" y2="258" stroke="#aaff00" stroke-width="2"/>
</g>
<g>
	<polygon points="198,124 197,133 190,128" fill="#aaff00"/>
	<line x1="131" y1="227" x2="194" y2="130" stroke="#aaff00" stroke-width="2"/>
</g>
<g>
	<polygon points="134,175 141,180 133,184" fill="#aaff00"/>
	<line x1="181" y1="266" x2="137" y2="182" stroke="#aaff00" stroke-width="2"/>
</g>
<g>
	<polygon points="297,274 289,278 290,269" fill="#aaff00"/>
	<line x1="181" y1="266" x2="290" y2="274" stroke="#aaff00" stroke-width="2"/>
</g>
<g>
	<polygon points="152,124 153,133 145,129" fill="#aaff00"/>
	<line x1="132" y1="172" x2="149" y2="130" stroke="#aaff00" stroke-width="2"/>
</g>
<g>
	<polygon points="183,61 183,70 175,66" fill="#aaff00"/>
	<line x1="132" y1="172" x2="180" y2="67" stroke="#aaff00" stroke-width="2"/>
</g>
<g>
	<polygon points="109,124 116,119 117,128" fill="#aaff00"/>
	<line x1="154" y1="120" x2="116" y2="123" stroke="#aaff00" stroke-width="2"/>
</g>
<g>
	<polygon points="340,123 332,128 332,119" fill="#aaff00"/>
	<line x1="154" y1="120" x2="333" y2="123" stroke="#aaff00" stroke-width="2"/>
</g>
<g>
	<polygon points="134,83 133,92 126,87" fill="#aaff00"/>
	<line x1="105" y1="125" x2="130" y2="89" stroke="#aaff00" stroke-width="2"/>
</g>
<g>
	<polygon points="180,163 171,164 175,156" fill="#aaff00"/>
	<line x1="105" y1="125" x2="173" y2="160" stroke="#aaff00" stroke-width="2"/>
</g>
<g>
	<polygon points="180,58 175,66 171,58" fill="#aaff00"/>
	<line x1="137" y1="80" x2="174" y2="62" stroke="#aaff00" stroke-width="2"/>
</g>
<g>
	<polygon points="192,207 184,202 193,198" fill="#aaff00"/>
	<line x1="137" y1="80" x2="189" y2="201" stroke="#aaff00" stroke-width="2"/>
</g>
<g>
	<polygon points="234,69 225,72 228,63" fill="#aaff00"/>
	<line x1="185" y1="57" x2="227" y2="68" stroke="#aaff00" stroke-width="2"/>
</g>
<g>
	<polygon points="252,38 246,44 243,35" fill="#aaff00"/>
	<line x1="185" y1="57" x2="245" y2="40" stroke="#aaff00" stroke-width="2"/>
</g>
<g>
	<polygon points="254,40 255,49 247,45" fill="#aaff00"/>
	<line x1="239" y1="71" x2="251" y2="47" stroke="#aaff00" stroke-width="2"/>
</g>
<g>
	<polygon points="270,163 263,157 272,154" fill="#aaff00"/>
	<line x1="239" y1="71" x2="268" y2="156" stroke="#aaff00" stroke-width="2"/>
</g>
<g>
	<polygon points="273,88 265,89 269,81" fill="#aaff00"/>
	<line x1="239" y1="71" x2="267" y2="85" stroke="#aaff00" stroke-width="2"/>
</g>
<g>
	<polygon points="203,117 204,108 211,113" fill="#aaff00"/>
	<line x1="257" y1="37" x2="207" y2="111" stroke="#aaff00" stroke-width="2"/>
</g>
<g>
	<polygon points="325,74 316,74 320,67" fill="#aaff00"/>
	<line x1="257" y1="37" x2="318" y2="71" stroke="#aaff00" stroke-width="2"/>
</g>
<g>
	<polygon points="187,163 191,155 196,162" fill="#aaff00"/>
	<line x1="242" y1="124" x2="193" y2="159" stroke="#aaff00" stroke-width="2"/>
</g>
<g>
	<polygon points="205,121 213,117 212,126" fill="#aaff00"/>
	<line x1="242" y1="124" x2="212" y2="121" stroke="#aaff00" stroke-width="2"/>
</g>
<g>
	<polygon points="187,169 195,171 189,178" fill="#aaff00"/>
	<line x1="240" y1="225" x2="192" y2="174" stroke="#aaff00" stroke-width="2"/>
</g>
<g>
	<polygon points="315,211 308,217 307,208" fill="#aaff00"/>
	<line x1="240" y1="225" x2="308" y2="213" stroke="#aaff00" stroke-width="2"/>
</g>
<g>
	<polygon points="331,169 333,178 325,175" fill="#aaff00"/>
	<line x1="320" y1="211" x2="329" y2="176" stroke="#aaff00" stroke-width="2"/>
</g>
<g>
	<polygon points="303,139 309,145 300,148" fill="#aaff00"/>
	<line x1="320" y1="211" x2="304" y2="146" stroke="#aaff00" stroke-width="2"/>
</g>
<g>
	<polygon points="305,138 313,140 307,146" fill="#aaff00"/>
	<line x1="333" y1="165" x2="310" y2="143" stroke="#aaff00" stroke-width="2"/>
</g>
<g>
	<polygon points="233,169 241,164 241,173" fill="#aaff00"/>
	<line x1="333" y1="165" x2="240" y2="169" stroke="#aaff00" stroke-width="2"/>
</g>
<g>
	<polygon points="246,124 254,121 253,130" fill="#aaff00"/>
	<line x1="302" y1="135" x2="253" y2="126" stroke="#aaff00" stroke-width="2"/>
</g>
<g>
	<polygon points="332,160 327,152 336,152" fill="#aaff00"/>
	<line x1="329" y1="77" x2="332" y2="153" stroke="#aaff00" stroke-width="2"/>
</g>
<g>
	<polygon points="303,130 303,121 311,125" fill="#aaff00"/>
	<line x1="329" y1="77" x2="306" y2="124" stroke="#aaff00" stroke-width="2"/>
</g>
<g>
	<polygon points="242,68 247,60 251,68" fill="#aaff00"/>
	<line x1="306" y1="32" x2="249" y2="65" stroke="#aaff00" stroke-width="2"/>
</g>
<g>
	<polygon points="326,72 319,68 327,64" fill="#aaff00"/>
	<line x1="306" y1="32" x2="323" y2="66" stroke="#aaff00" stroke-width="2"/>
</g>
<g>
	<polygon points="261,36 268,31 269,40" fill="#aaff00"/>
	<line x1="351" y1="27" x2="268" y2="35" stroke="#aaff00" stroke-width="2"/>
</g>
<g>
	<polygon points="310,31 317,26 318,35" fill="#aaff00"/>
	<line x1="351" y1="27" x2="317" y2="30" stroke="#aaff00" stroke-width="2"/>
</g>
<g>
	<polygon points="303,270 301,261 309,264" fill="#aaff00"/>
	<line x1="345" y1="124" x2="305" y2="263" stroke="#aaff00" stroke-width="2"/>
</g>
<g>
	<polygon points="350,31 354,39 345,38" fill="#aaff00"/>
	<line x1="345" y1="124" x2="350" y2="38" stroke="#aaff00" stroke-width="2"/>
</g>
<g>
	<polygon points="243,227 252,229 246,236" fill="#aaff00"/>
	<line x1="302" y1="275" x2="249" y2="232" stroke="#aaff00" stroke-width="2"/>
</g>
<g>
	<polygon points="281,213 288,219 279,222" fill="#aaff00"/>
	<line x1="302" y1="275" x2="283" y2="220" stroke="#aaff00" stroke-width="2"/>
</g>
<g>
	<polygon points="244,223 249,216 253,224" fill="#aaff00"/>
	<line x1="280" y1="209" x2="250" y2="220" stroke="#aaff00" stroke-width="2"/>
</g>
<g>
	<polygon points="278,95 282,103 273,103" fill="#aaff00"/>
	<line x1="280" y1="209" x2="278" y2="102" stroke="#aaff00" stroke-width="2"/>
</g>
<g>
	<polygon points="258,41 265,46 257,50" fill="#aaff00"/>
	<line x1="278" y1="91" x2="261" y2="47" stroke="#aaff00" stroke-width="2"/>
</g>
<g>
	<polygon points="242,221 242,212 249,216" fill="#aaff00"/>
	<line x1="272" y1="168" x2="245" y2="214" stroke="#aaff00" stroke-width="2"/>
</g>
<g>
	<polygon points="279,204 273,197 282,196" fill="#aaff00"/>
	<line x1="272" y1="168" x2="277" y2="197" stroke="#aaff00" stroke-width="2"/>
</g>
<g>
	<polygon points="279,213 282,221 273,220" fill="#aaff00"/>
	<line x1="274" y1="252" x2="278" y2="220" stroke="#aaff00" stroke-width="2"/>
</g>
<g>
	<polygon points="316,213 313,222 307,215" fill="#aaff00"/>
	<line x1="274" y1="252" x2="311" y2="218" stroke="#aaff00" stroke-width="2"/>
</g>
<g>
	<polygon points="235,223 226,225 229,217" fill="#aaff00"/>
	<line x1="194" y1="212" x2="228" y2="221" stroke="#aaff00" stroke-width="2"/>
</g>
<g>
	<polygon points="269,249 260,250 265,242" fill="#aaff00"/>
	<line x1="194" y1="212" x2="263" y2="246" stroke="#aaff00" stroke-width="2"/>
</g>
<g>
	<polygon points="188,166 196,162 195,171" fill="#aaff00"/>
	<line x1="229" y1="170" x2="195" y2="167" stroke="#aaff00" stroke-width="2"/>
</g>
<g>
	<polygon points="203,124 211,129 203,133" fill="#aaff00"/>
	<line x1="229" y1="170" x2="206" y2="131" stroke="#aaff00" stroke-width="2"/>
</g>

<g fill="#000000">
	<circle cx="69" cy="78" r="4"/>
</g>
<g fill="#000000">
	<circle cx="49" cy="133" r="4"/>
</g>
<g fill="#000000">
	<circle cx="153" cy="119" r="4"/>
</g>
<g fill="#000000">
	<circle cx="71" cy="194" r="4"/>
</g>
<g fill="#000000">
	<circle cx="104" cy="124" r="4"/>
</g>
<g fill="#000000">
	<circle cx="344" cy="123" r="4"/>
</g>
<g fill="#000000">
	<circle cx="130" cy="226" r="4"/>
</g>
<g fill="#000000">
	<circle cx="131" cy="171" r="4"/>
</g>
<g fill="#000000">
	<circle cx="136" cy="79" r="4"/>
</g>
<g fill="#000000">
	<circle cx="183" cy="165" r="4"/>
</g>
<g fill="#000000">
	<circle cx="180" cy="265" r="4"/>
</g>
<g fill="#000000">
	<circle cx="200" cy="120" r="4"/>
</g>
<g fill="#000000">
	<circle cx="184" cy="56" r="4"/>
</g>
<g fill="#000000">
	<circle cx="301" cy="274" r="4"/>
</g>
<g fill="#000000">
	<circle cx="239" cy="224" r="4"/>
</g>
<g fill="#000000">
	<circle cx="279" cy="208" r="4"/>
</g>
<g fill="#000000">
	<circle cx="350" cy="26" r="4"/>
</g>
<g fill="#000000">
	<circle cx="238" cy="70" r="4"/>
</g>
<g fill="#000000">
	<circle cx="256" cy="36" r="4"/>
</g>
<g fill="#000000">
	<circle cx="193" cy="211" r="4"/>
</g>
<g fill="#000000">
	<circle cx="271" cy="167" r="4"/>
</g>
<g fill="#000000">
	<circle cx="328" cy="76" r="4"/>
</g>
<g fill="#000000">
	<circle cx="305" cy="31" r="4"/>
</g>
<g fill="#000000">
	<circle cx="273" cy="251" r="4"/>
</g>
<g fill="#000000">
	<circle cx="319" cy="210" r="4"/>
</g>
<g fill="#000000">
	<circle cx="277" cy="90" r="4"/>
</g>
<g fill="#000000">
	<circle cx="332" cy="164" r="4"/>
</g>
<g fill="#000000">
	<circle cx="301" cy="134" r="4"/>
</g>
<g fill="#000000">
	<circle cx="241" cy="123" r="4"/>
</g>
<g fill="#000000">
	<circle cx="228" cy="169" r="4"/>
</g>

</g>

</svg>
