<?xml version="1.0" encoding="utf-8"?>
<!-- Created with Hypercube (http://tumic.wz.cz/hypercube) -->

<svg width="400" height="300" viewBox="0 0 400 300" xmlns="http://www.w3.org/2000/svg" baseProfile="tiny">

<g font-family="Helvetica" font-weight="normal">

<g>
	<polygon points="318,199 310,203 310,194" fill="#aaff00"/>
	<line x1="189" y1="199" x2="311" y2="199" stroke="#aaff00" stroke-width="2"/>
</g>
<g>
	<polygon points="112,266 115,257 121,264" fill="#aaff00"/>
	<line x1="189" y1="199" x2="117" y2="261" stroke="#aaff00" stroke-width="2"/>
</g>
<g>
	<polygon points="94,181 102,178 101,187" fill="#aaff00"/>
	<line x1="189" y1="199" x2="101" y2="183" stroke="#aaff00" stroke-width="2"/>
</g>
<g>
	<polygon points="200,153 203,162 194,159" fill="#aaff00"/>
	<line x1="189" y1="199" x2="199" y2="160" stroke="#aaff00" stroke-width="2"/>
</g>
<g>
	<polygon points="155,227 158,218 164,225" fill="#aaff00"/>
	<line x1="189" y1="199" x2="160" y2="222" stroke="#aaff00" stroke-width="2"/>
</g>
<g>
	<polygon points="234,245 226,243 232,237" fill="#aaff00"/>
	<line x1="189" y1="199" x2="229" y2="240" stroke="#aaff00" stroke-width="2"/>
</g>
<g>
	<polygon points="142,146 151,149 144,155" fill="#aaff00"/>
	<line x1="189" y1="199" x2="147" y2="151" stroke="#aaff00" stroke-width="2"/>
</g>
<g>
	<polygon points="245,166 240,174 236,166" fill="#aaff00"/>
	<line x1="189" y1="199" x2="238" y2="169" stroke="#aaff00" stroke-width="2"/>
</g>
<g>
	<polygon points="184,281 180,273 189,273" fill="#aaff00"/>
	<line x1="189" y1="199" x2="184" y2="274" stroke="#aaff00" stroke-width="2"/>
</g>
<g>
	<polygon points="172,103 178,110 169,111" fill="#aaff00"/>
	<line x1="189" y1="199" x2="173" y2="110" stroke="#aaff00" stroke-width="2"/>
</g>
<g>
	<polygon points="108,264 102,257 110,256" fill="#aaff00"/>
	<line x1="90" y1="181" x2="106" y2="257" stroke="#aaff00" stroke-width="2"/>
</g>
<g>
	<polygon points="93,178 97,169 102,177" fill="#aaff00"/>
	<line x1="140" y1="143" x2="99" y2="173" stroke="#aaff00" stroke-width="2"/>
</g>
<g>
	<polygon points="109,109 117,112 111,118" fill="#aaff00"/>
	<line x1="140" y1="143" x2="113" y2="114" stroke="#aaff00" stroke-width="2"/>
</g>
<g>
	<polygon points="65,73 74,75 67,81" fill="#aaff00"/>
	<line x1="140" y1="143" x2="70" y2="77" stroke="#aaff00" stroke-width="2"/>
</g>
<g>
	<polygon points="234,82 230,90 225,82" fill="#aaff00"/>
	<line x1="140" y1="143" x2="228" y2="86" stroke="#aaff00" stroke-width="2"/>
</g>
<g>
	<polygon points="108,102 109,93 117,98" fill="#aaff00"/>
	<line x1="134" y1="69" x2="113" y2="96" stroke="#aaff00" stroke-width="2"/>
</g>
<g>
	<polygon points="69,136 71,128 77,134" fill="#aaff00"/>
	<line x1="134" y1="69" x2="74" y2="131" stroke="#aaff00" stroke-width="2"/>
</g>
<g>
	<polygon points="137,26 141,34 132,33" fill="#aaff00"/>
	<line x1="134" y1="69" x2="137" y2="33" stroke="#aaff00" stroke-width="2"/>
</g>
<g>
	<polygon points="87,177 79,172 87,168" fill="#aaff00"/>
	<line x1="66" y1="140" x2="84" y2="170" stroke="#aaff00" stroke-width="2"/>
</g>
<g>
	<polygon points="93,38 102,39 97,47" fill="#aaff00"/>
	<line x1="172" y1="99" x2="99" y2="43" stroke="#aaff00" stroke-width="2"/>
</g>
<g>
	<polygon points="215,49 213,58 206,52" fill="#aaff00"/>
	<line x1="172" y1="99" x2="210" y2="54" stroke="#aaff00" stroke-width="2"/>
</g>
<g>
	<polygon points="137,71 146,73 140,80" fill="#aaff00"/>
	<line x1="172" y1="99" x2="143" y2="76" stroke="#aaff00" stroke-width="2"/>
</g>
<g>
	<polygon points="178,61 181,69 172,68" fill="#aaff00"/>
	<line x1="172" y1="99" x2="177" y2="68" stroke="#aaff00" stroke-width="2"/>
</g>
<g>
	<polygon points="139,26 147,31 138,35" fill="#aaff00"/>
	<line x1="172" y1="99" x2="142" y2="32" stroke="#aaff00" stroke-width="2"/>
</g>
<g>
	<polygon points="64,66 66,57 73,63" fill="#aaff00"/>
	<line x1="90" y1="36" x2="69" y2="60" stroke="#aaff00" stroke-width="2"/>
</g>
<g>
	<polygon points="26,105 27,96 34,102" fill="#aaff00"/>
	<line x1="90" y1="36" x2="30" y2="100" stroke="#aaff00" stroke-width="2"/>
</g>
<g>
	<polygon points="86,177 78,175 84,168" fill="#aaff00"/>
	<line x1="23" y1="109" x2="82" y2="172" stroke="#aaff00" stroke-width="2"/>
</g>
<g>
	<polygon points="94,34 100,28 103,36" fill="#aaff00"/>
	<line x1="194" y1="5" x2="101" y2="32" stroke="#aaff00" stroke-width="2"/>
</g>
<g>
	<polygon points="196,8 204,13 196,17" fill="#aaff00"/>
	<line x1="238" y1="80" x2="199" y2="15" stroke="#aaff00" stroke-width="2"/>
</g>
<g>
	<polygon points="235,76 227,71 235,67" fill="#aaff00"/>
	<line x1="218" y1="46" x2="232" y2="69" stroke="#aaff00" stroke-width="2"/>
</g>
<g>
	<polygon points="278,104 270,102 276,96" fill="#aaff00"/>
	<line x1="218" y1="46" x2="273" y2="99" stroke="#aaff00" stroke-width="2"/>
</g>
<g>
	<polygon points="138,67 144,61 147,70" fill="#aaff00"/>
	<line x1="218" y1="46" x2="145" y2="65" stroke="#aaff00" stroke-width="2"/>
</g>
<g>
	<polygon points="196,8 204,13 196,17" fill="#aaff00"/>
	<line x1="218" y1="46" x2="199" y2="15" stroke="#aaff00" stroke-width="2"/>
</g>
<g>
	<polygon points="271,7 267,15 262,8" fill="#aaff00"/>
	<line x1="218" y1="46" x2="265" y2="11" stroke="#aaff00" stroke-width="2"/>
</g>
<g>
	<polygon points="183,55 189,49 192,57" fill="#aaff00"/>
	<line x1="218" y1="46" x2="190" y2="53" stroke="#aaff00" stroke-width="2"/>
</g>
<g>
	<polygon points="206,150 215,148 212,157" fill="#aaff00"/>
	<line x1="249" y1="164" x2="213" y2="152" stroke="#aaff00" stroke-width="2"/>
</g>
<g>
	<polygon points="279,111 279,120 271,116" fill="#aaff00"/>
	<line x1="249" y1="164" x2="276" y2="118" stroke="#aaff00" stroke-width="2"/>
</g>
<g>
	<polygon points="174,102 182,107 174,111" fill="#aaff00"/>
	<line x1="202" y1="149" x2="178" y2="109" stroke="#aaff00" stroke-width="2"/>
</g>
<g>
	<polygon points="138,67 144,61 147,70" fill="#aaff00"/>
	<line x1="179" y1="57" x2="145" y2="65" stroke="#aaff00" stroke-width="2"/>
</g>
<g>
	<polygon points="147,229 139,233 140,224" fill="#aaff00"/>
	<line x1="101" y1="226" x2="140" y2="229" stroke="#aaff00" stroke-width="2"/>
</g>
<g>
	<polygon points="240,252 248,257 240,261" fill="#aaff00"/>
	<line x1="265" y1="295" x2="243" y2="259" stroke="#aaff00" stroke-width="2"/>
</g>
<g>
	<polygon points="351,132 352,141 344,137" fill="#aaff00"/>
	<line x1="323" y1="199" x2="348" y2="138" stroke="#aaff00" stroke-width="2"/>
</g>
<g>
	<polygon points="326,256 321,249 330,248" fill="#aaff00"/>
	<line x1="323" y1="199" x2="326" y2="249" stroke="#aaff00" stroke-width="2"/>
</g>
<g>
	<polygon points="373,180 367,187 364,178" fill="#aaff00"/>
	<line x1="323" y1="199" x2="367" y2="182" stroke="#aaff00" stroke-width="2"/>
</g>
<g>
	<polygon points="374,237 365,236 370,229" fill="#aaff00"/>
	<line x1="323" y1="199" x2="368" y2="233" stroke="#aaff00" stroke-width="2"/>
</g>

<g fill="#000000">
	<circle cx="322" cy="198" r="4"/>
</g>
<g fill="#000000">
	<circle cx="352" cy="127" r="4"/>
</g>
<g fill="#000000">
	<circle cx="188" cy="198" r="4"/>
</g>
<g fill="#000000">
	<circle cx="108" cy="268" r="4"/>
</g>
<g fill="#000000">
	<circle cx="89" cy="180" r="4"/>
</g>
<g fill="#000000">
	<circle cx="201" cy="148" r="4"/>
</g>
<g fill="#000000">
	<circle cx="151" cy="229" r="4"/>
</g>
<g fill="#000000">
	<circle cx="237" cy="248" r="4"/>
</g>
<g fill="#000000">
	<circle cx="139" cy="142" r="4"/>
</g>
<g fill="#000000">
	<circle cx="248" cy="163" r="4"/>
</g>
<g fill="#000000">
	<circle cx="183" cy="285" r="4"/>
</g>
<g fill="#000000">
	<circle cx="171" cy="98" r="4"/>
</g>
<g fill="#000000">
	<circle cx="105" cy="105" r="4"/>
</g>
<g fill="#000000">
	<circle cx="61" cy="69" r="4"/>
</g>
<g fill="#000000">
	<circle cx="237" cy="79" r="4"/>
</g>
<g fill="#000000">
	<circle cx="281" cy="107" r="4"/>
</g>
<g fill="#000000">
	<circle cx="89" cy="35" r="4"/>
</g>
<g fill="#000000">
	<circle cx="217" cy="45" r="4"/>
</g>
<g fill="#000000">
	<circle cx="133" cy="68" r="4"/>
</g>
<g fill="#000000">
	<circle cx="326" cy="260" r="4"/>
</g>
<g fill="#000000">
	<circle cx="377" cy="178" r="4"/>
</g>
<g fill="#000000">
	<circle cx="100" cy="225" r="4"/>
</g>
<g fill="#000000">
	<circle cx="264" cy="294" r="4"/>
</g>
<g fill="#000000">
	<circle cx="193" cy="4" r="4"/>
</g>
<g fill="#000000">
	<circle cx="22" cy="108" r="4"/>
</g>
<g fill="#000000">
	<circle cx="274" cy="4" r="4"/>
</g>
<g fill="#000000">
	<circle cx="178" cy="56" r="4"/>
</g>
<g fill="#000000">
	<circle cx="65" cy="139" r="4"/>
</g>
<g fill="#000000">
	<circle cx="137" cy="21" r="4"/>
</g>
<g fill="#000000">
	<circle cx="377" cy="239" r="4"/>
</g>

</g>

</svg>
