<?xml version="1.0" encoding="utf-8"?>
<!-- Created with Hypercube (http://tumic.wz.cz/hypercube) -->

<svg width="400" height="300" viewBox="0 0 400 300" xmlns="http://www.w3.org/2000/svg" baseProfile="tiny">

<g font-family="Helvetica" font-weight="normal">

<g>
	<polygon points="270,81 274,89 265,89" fill="#aaff00"/>
	<line x1="268" y1="144" x2="270" y2="88" stroke="#aaff00" stroke-width="2"/>
</g>
<g>
	<polygon points="185,178 190,171 194,179" fill="#aaff00"/>
	<line x1="268" y1="144" x2="191" y2="175" stroke="#aaff00" stroke-width="2"/>
</g>
<g>
	<polygon points="330,171 321,172 325,163" fill="#aaff00"/>
	<line x1="268" y1="144" x2="324" y2="168" stroke="#aaff00" stroke-width="2"/>
</g>
<g>
	<polygon points="205,44 214,43 209,51" fill="#aaff00"/>
	<line x1="271" y1="77" x2="211" y2="47" stroke="#aaff00" stroke-width="2"/>
</g>
<g>
	<polygon points="338,49 333,56 329,48" fill="#aaff00"/>
	<line x1="271" y1="77" x2="332" y2="52" stroke="#aaff00" stroke-width="2"/>
</g>
<g>
	<polygon points="127,8 136,7 132,16" fill="#aaff00"/>
	<line x1="201" y1="42" x2="133" y2="11" stroke="#aaff00" stroke-width="2"/>
</g>
<g>
	<polygon points="177,82 177,73 185,77" fill="#aaff00"/>
	<line x1="201" y1="42" x2="180" y2="75" stroke="#aaff00" stroke-width="2"/>
</g>
<g>
	<polygon points="239,7 236,16 230,9" fill="#aaff00"/>
	<line x1="201" y1="42" x2="234" y2="12" stroke="#aaff00" stroke-width="2"/>
</g>
<g>
	<polygon points="174,8 183,11 176,17" fill="#aaff00"/>
	<line x1="201" y1="42" x2="179" y2="14" stroke="#aaff00" stroke-width="2"/>
</g>
<g>
	<polygon points="391,7 388,16 382,9" fill="#aaff00"/>
	<line x1="343" y1="48" x2="385" y2="12" stroke="#aaff00" stroke-width="2"/>
</g>
<g>
	<polygon points="322,8 329,13 321,17" fill="#aaff00"/>
	<line x1="343" y1="48" x2="325" y2="15" stroke="#aaff00" stroke-width="2"/>
</g>
<g>
	<polygon points="390,70 381,70 385,62" fill="#aaff00"/>
	<line x1="343" y1="48" x2="384" y2="67" stroke="#aaff00" stroke-width="2"/>
</g>
<g>
	<polygon points="60,148 69,145 66,154" fill="#aaff00"/>
	<line x1="181" y1="180" x2="67" y2="149" stroke="#aaff00" stroke-width="2"/>
</g>
<g>
	<polygon points="238,210 229,211 233,203" fill="#aaff00"/>
	<line x1="181" y1="180" x2="231" y2="207" stroke="#aaff00" stroke-width="2"/>
</g>
<g>
	<polygon points="173,247 169,239 178,240" fill="#aaff00"/>
	<line x1="181" y1="180" x2="174" y2="240" stroke="#aaff00" stroke-width="2"/>
</g>
<g>
	<polygon points="71,91 73,100 65,97" fill="#aaff00"/>
	<line x1="56" y1="147" x2="69" y2="98" stroke="#aaff00" stroke-width="2"/>
</g>
<g>
	<polygon points="9,170 13,163 17,171" fill="#aaff00"/>
	<line x1="56" y1="147" x2="15" y2="167" stroke="#aaff00" stroke-width="2"/>
</g>
<g>
	<polygon points="7,223 7,214 15,219" fill="#aaff00"/>
	<line x1="56" y1="147" x2="11" y2="217" stroke="#aaff00" stroke-width="2"/>
</g>
<g>
	<polygon points="13,68 20,73 12,77" fill="#aaff00"/>
	<line x1="56" y1="147" x2="16" y2="75" stroke="#aaff00" stroke-width="2"/>
</g>
<g>
	<polygon points="102,147 94,151 94,142" fill="#aaff00"/>
	<line x1="56" y1="147" x2="95" y2="147" stroke="#aaff00" stroke-width="2"/>
</g>
<g>
	<polygon points="8,119 17,119 13,127" fill="#aaff00"/>
	<line x1="56" y1="147" x2="15" y2="122" stroke="#aaff00" stroke-width="2"/>
</g>
<g>
	<polygon points="63,200 57,193 66,192" fill="#aaff00"/>
	<line x1="56" y1="147" x2="62" y2="193" stroke="#aaff00" stroke-width="2"/>
</g>
<g>
	<polygon points="283,248 274,246 280,239" fill="#aaff00"/>
	<line x1="242" y1="213" x2="278" y2="243" stroke="#aaff00" stroke-width="2"/>
</g>
<g>
	<polygon points="222,292 213,290 219,283" fill="#aaff00"/>
	<line x1="173" y1="252" x2="216" y2="287" stroke="#aaff00" stroke-width="2"/>
</g>
<g>
	<polygon points="168,290 164,282 173,283" fill="#aaff00"/>
	<line x1="173" y1="252" x2="169" y2="283" stroke="#aaff00" stroke-width="2"/>
</g>
<g>
	<polygon points="111,292 115,284 120,291" fill="#aaff00"/>
	<line x1="173" y1="252" x2="117" y2="288" stroke="#aaff00" stroke-width="2"/>
</g>
<g>
	<polygon points="129,237 138,235 135,244" fill="#aaff00"/>
	<line x1="173" y1="252" x2="136" y2="239" stroke="#aaff00" stroke-width="2"/>
</g>
<g>
	<polygon points="390,159 384,165 381,156" fill="#aaff00"/>
	<line x1="335" y1="173" x2="383" y2="160" stroke="#aaff00" stroke-width="2"/>
</g>
<g>
	<polygon points="369,224 361,220 368,215" fill="#aaff00"/>
	<line x1="335" y1="173" x2="365" y2="218" stroke="#aaff00" stroke-width="2"/>
</g>

<g fill="#000000">
	<circle cx="267" cy="143" r="4"/>
</g>
<g fill="#000000">
	<circle cx="270" cy="76" r="4"/>
</g>
<g fill="#000000">
	<circle cx="180" cy="179" r="4"/>
</g>
<g fill="#000000">
	<circle cx="334" cy="172" r="4"/>
</g>
<g fill="#000000">
	<circle cx="200" cy="41" r="4"/>
</g>
<g fill="#000000">
	<circle cx="342" cy="47" r="4"/>
</g>
<g fill="#000000">
	<circle cx="122" cy="6" r="4"/>
</g>
<g fill="#000000">
	<circle cx="174" cy="85" r="4"/>
</g>
<g fill="#000000">
	<circle cx="242" cy="4" r="4"/>
</g>
<g fill="#000000">
	<circle cx="171" cy="4" r="4"/>
</g>
<g fill="#000000">
	<circle cx="394" cy="4" r="4"/>
</g>
<g fill="#000000">
	<circle cx="319" cy="4" r="4"/>
</g>
<g fill="#000000">
	<circle cx="394" cy="71" r="4"/>
</g>
<g fill="#000000">
	<circle cx="55" cy="146" r="4"/>
</g>
<g fill="#000000">
	<circle cx="241" cy="212" r="4"/>
</g>
<g fill="#000000">
	<circle cx="172" cy="251" r="4"/>
</g>
<g fill="#000000">
	<circle cx="72" cy="86" r="4"/>
</g>
<g fill="#000000">
	<circle cx="4" cy="172" r="4"/>
</g>
<g fill="#000000">
	<circle cx="4" cy="226" r="4"/>
</g>
<g fill="#000000">
	<circle cx="10" cy="64" r="4"/>
</g>
<g fill="#000000">
	<circle cx="106" cy="146" r="4"/>
</g>
<g fill="#000000">
	<circle cx="4" cy="116" r="4"/>
</g>
<g fill="#000000">
	<circle cx="63" cy="204" r="4"/>
</g>
<g fill="#000000">
	<circle cx="286" cy="250" r="4"/>
</g>
<g fill="#000000">
	<circle cx="225" cy="294" r="4"/>
</g>
<g fill="#000000">
	<circle cx="167" cy="294" r="4"/>
</g>
<g fill="#000000">
	<circle cx="107" cy="294" r="4"/>
</g>
<g fill="#000000">
	<circle cx="124" cy="235" r="4"/>
</g>
<g fill="#000000">
	<circle cx="394" cy="157" r="4"/>
</g>
<g fill="#000000">
	<circle cx="371" cy="227" r="4"/>
</g>

</g>

</svg>
