<?xml version="1.0" encoding="utf-8"?>
<!-- Created with Hypercube (http://tumic.wz.cz/hypercube) -->

<svg width="400" height="300" viewBox="0 0 400 300" xmlns="http://www.w3.org/2000/svg" baseProfile="tiny">

<g font-family="Helvetica" font-weight="normal">

<g>
	<polygon points="254,194 246,198 247,189" fill="#aaff00"/>
	<line x1="90" y1="175" x2="247" y2="193" stroke="#aaff00" stroke-width="2"/>
</g>
<g>
	<polygon points="263,193 269,186 272,195" fill="#aaff00"/>
	<line x1="384" y1="153" x2="270" y2="191" stroke="#aaff00" stroke-width="2"/>
</g>
<g>
	<polygon points="388,49 392,57 383,57" fill="#aaff00"/>
	<line x1="384" y1="153" x2="388" y2="56" stroke="#aaff00" stroke-width="2"/>
</g>
<g>
	<polygon points="297,254 299,245 306,251" fill="#aaff00"/>
	<line x1="384" y1="153" x2="302" y2="249" stroke="#aaff00" stroke-width="2"/>
</g>
<g>
	<polygon points="385,103 390,111 381,111" fill="#aaff00"/>
	<line x1="384" y1="153" x2="385" y2="110" stroke="#aaff00" stroke-width="2"/>
</g>
<g>
	<polygon points="362,177 364,168 371,174" fill="#aaff00"/>
	<line x1="384" y1="153" x2="367" y2="172" stroke="#aaff00" stroke-width="2"/>
</g>
<g>
	<polygon points="384,43 375,43 379,35" fill="#aaff00"/>
	<line x1="329" y1="16" x2="378" y2="39" stroke="#aaff00" stroke-width="2"/>
</g>
<g>
	<polygon points="277,16 285,11 285,20" fill="#aaff00"/>
	<line x1="329" y1="16" x2="284" y2="16" stroke="#aaff00" stroke-width="2"/>
</g>
<g>
	<polygon points="262,57 267,49 271,57" fill="#aaff00"/>
	<line x1="329" y1="16" x2="268" y2="53" stroke="#aaff00" stroke-width="2"/>
</g>
<g>
	<polygon points="222,16 230,12 230,21" fill="#aaff00"/>
	<line x1="273" y1="16" x2="229" y2="16" stroke="#aaff00" stroke-width="2"/>
</g>
<g>
	<polygon points="260,55 258,46 267,49" fill="#aaff00"/>
	<line x1="273" y1="16" x2="262" y2="48" stroke="#aaff00" stroke-width="2"/>
</g>
<g>
	<polygon points="255,56 247,54 253,47" fill="#aaff00"/>
	<line x1="218" y1="17" x2="250" y2="51" stroke="#aaff00" stroke-width="2"/>
</g>
<g>
	<polygon points="234,145 232,136 240,139" fill="#aaff00"/>
	<line x1="259" y1="60" x2="236" y2="138" stroke="#aaff00" stroke-width="2"/>
</g>
<g>
	<polygon points="248,97 246,88 254,91" fill="#aaff00"/>
	<line x1="259" y1="60" x2="250" y2="90" stroke="#aaff00" stroke-width="2"/>
</g>
<g>
	<polygon points="306,74 297,76 300,68" fill="#aaff00"/>
	<line x1="259" y1="60" x2="299" y2="72" stroke="#aaff00" stroke-width="2"/>
</g>
<g>
	<polygon points="292,254 284,249 292,245" fill="#aaff00"/>
	<line x1="233" y1="150" x2="289" y2="247" stroke="#aaff00" stroke-width="2"/>
</g>
<g>
	<polygon points="245,106 247,115 239,112" fill="#aaff00"/>
	<line x1="233" y1="150" x2="243" y2="113" stroke="#aaff00" stroke-width="2"/>
</g>
<g>
	<polygon points="306,77 301,84 297,76" fill="#aaff00"/>
	<line x1="247" y1="102" x2="300" y2="80" stroke="#aaff00" stroke-width="2"/>
</g>
<g>
	<polygon points="381,97 372,99 375,91" fill="#aaff00"/>
	<line x1="311" y1="76" x2="374" y2="95" stroke="#aaff00" stroke-width="2"/>
</g>
<g>
	<polygon points="263,194 270,188 271,197" fill="#aaff00"/>
	<line x1="321" y1="183" x2="270" y2="192" stroke="#aaff00" stroke-width="2"/>
</g>
<g>
	<polygon points="339,135 340,144 332,140" fill="#aaff00"/>
	<line x1="321" y1="183" x2="336" y2="141" stroke="#aaff00" stroke-width="2"/>
</g>
<g>
	<polygon points="379,154 374,162 370,154" fill="#aaff00"/>
	<line x1="321" y1="183" x2="373" y2="158" stroke="#aaff00" stroke-width="2"/>
</g>
<g>
	<polygon points="390,220 381,221 385,213" fill="#aaff00"/>
	<line x1="321" y1="183" x2="383" y2="217" stroke="#aaff00" stroke-width="2"/>
</g>
<g>
	<polygon points="321,222 316,214 325,214" fill="#aaff00"/>
	<line x1="321" y1="183" x2="321" y2="215" stroke="#aaff00" stroke-width="2"/>
</g>
<g>
	<polygon points="355,181 347,186 347,177" fill="#aaff00"/>
	<line x1="321" y1="183" x2="348" y2="181" stroke="#aaff00" stroke-width="2"/>
</g>
<g>
	<polygon points="379,150 371,151 375,143" fill="#aaff00"/>
	<line x1="341" y1="131" x2="373" y2="147" stroke="#aaff00" stroke-width="2"/>
</g>
<g>
	<polygon points="336,131 329,136 328,127" fill="#aaff00"/>
	<line x1="292" y1="134" x2="329" y2="131" stroke="#aaff00" stroke-width="2"/>
</g>
<g>
	<polygon points="384,157 390,164 381,165" fill="#aaff00"/>
	<line x1="394" y1="223" x2="385" y2="164" stroke="#aaff00" stroke-width="2"/>
</g>
<g>
	<polygon points="394,227 398,235 389,235" fill="#aaff00"/>
	<line x1="395" y1="284" x2="394" y2="234" stroke="#aaff00" stroke-width="2"/>
</g>
<g>
	<polygon points="117,109 118,118 110,114" fill="#aaff00"/>
	<line x1="90" y1="175" x2="114" y2="115" stroke="#aaff00" stroke-width="2"/>
</g>
<g>
	<polygon points="9,119 18,120 13,127" fill="#aaff00"/>
	<line x1="90" y1="175" x2="15" y2="123" stroke="#aaff00" stroke-width="2"/>
</g>
<g>
	<polygon points="139,163 133,169 130,160" fill="#aaff00"/>
	<line x1="90" y1="175" x2="132" y2="164" stroke="#aaff00" stroke-width="2"/>
</g>
<g>
	<polygon points="137,219 128,217 135,211" fill="#aaff00"/>
	<line x1="90" y1="175" x2="132" y2="214" stroke="#aaff00" stroke-width="2"/>
</g>
<g>
	<polygon points="15,183 22,178 23,187" fill="#aaff00"/>
	<line x1="90" y1="175" x2="22" y2="182" stroke="#aaff00" stroke-width="2"/>
</g>
<g>
	<polygon points="60,141 69,144 62,150" fill="#aaff00"/>
	<line x1="90" y1="175" x2="65" y2="146" stroke="#aaff00" stroke-width="2"/>
</g>
<g>
	<polygon points="99,259 94,252 103,251" fill="#aaff00"/>
	<line x1="90" y1="175" x2="98" y2="252" stroke="#aaff00" stroke-width="2"/>
</g>
<g>
	<polygon points="65,83 71,89 62,92" fill="#aaff00"/>
	<line x1="90" y1="175" x2="67" y2="90" stroke="#aaff00" stroke-width="2"/>
</g>
<g>
	<polygon points="68,211 68,202 76,206" fill="#aaff00"/>
	<line x1="90" y1="175" x2="72" y2="204" stroke="#aaff00" stroke-width="2"/>
</g>
<g>
	<polygon points="26,241 28,233 34,239" fill="#aaff00"/>
	<line x1="90" y1="175" x2="31" y2="236" stroke="#aaff00" stroke-width="2"/>
</g>

<g fill="#000000">
	<circle cx="258" cy="194" r="4"/>
</g>
<g fill="#000000">
	<circle cx="118" cy="104" r="4"/>
</g>
<g fill="#000000">
	<circle cx="5" cy="116" r="4"/>
</g>
<g fill="#000000">
	<circle cx="89" cy="174" r="4"/>
</g>
<g fill="#000000">
	<circle cx="143" cy="161" r="4"/>
</g>
<g fill="#000000">
	<circle cx="291" cy="133" r="4"/>
</g>
<g fill="#000000">
	<circle cx="340" cy="130" r="4"/>
</g>
<g fill="#000000">
	<circle cx="383" cy="152" r="4"/>
</g>
<g fill="#000000">
	<circle cx="394" cy="283" r="4"/>
</g>
<g fill="#000000">
	<circle cx="393" cy="222" r="4"/>
</g>
<g fill="#000000">
	<circle cx="140" cy="222" r="4"/>
</g>
<g fill="#000000">
	<circle cx="320" cy="226" r="4"/>
</g>
<g fill="#000000">
	<circle cx="388" cy="44" r="4"/>
</g>
<g fill="#000000">
	<circle cx="294" cy="257" r="4"/>
</g>
<g fill="#000000">
	<circle cx="385" cy="98" r="4"/>
</g>
<g fill="#000000">
	<circle cx="359" cy="180" r="4"/>
</g>
<g fill="#000000">
	<circle cx="320" cy="182" r="4"/>
</g>
<g fill="#000000">
	<circle cx="10" cy="183" r="4"/>
</g>
<g fill="#000000">
	<circle cx="57" cy="137" r="4"/>
</g>
<g fill="#000000">
	<circle cx="99" cy="263" r="4"/>
</g>
<g fill="#000000">
	<circle cx="63" cy="78" r="4"/>
</g>
<g fill="#000000">
	<circle cx="328" cy="15" r="4"/>
</g>
<g fill="#000000">
	<circle cx="272" cy="15" r="4"/>
</g>
<g fill="#000000">
	<circle cx="217" cy="16" r="4"/>
</g>
<g fill="#000000">
	<circle cx="65" cy="214" r="4"/>
</g>
<g fill="#000000">
	<circle cx="232" cy="149" r="4"/>
</g>
<g fill="#000000">
	<circle cx="246" cy="101" r="4"/>
</g>
<g fill="#000000">
	<circle cx="310" cy="75" r="4"/>
</g>
<g fill="#000000">
	<circle cx="22" cy="244" r="4"/>
</g>
<g fill="#000000">
	<circle cx="258" cy="59" r="4"/>
</g>

</g>

</svg>
