<?xml version="1.0" encoding="utf-8"?>
<!-- Created with Hypercube (http://tumic.wz.cz/hypercube) -->

<svg width="400" height="300" viewBox="0 0 400 300" xmlns="http://www.w3.org/2000/svg" baseProfile="tiny">

<g font-family="Helvetica" font-weight="normal">

<g>
	<polygon points="189,109 180,109 184,101" fill="#aaff00"/>
	<line x1="152" y1="88" x2="182" y2="106" stroke="#aaff00" stroke-width="2"/>
</g>
<g>
	<polygon points="311,160 302,161 306,153" fill="#aaff00"/>
	<line x1="193" y1="112" x2="305" y2="157" stroke="#aaff00" stroke-width="2"/>
</g>
<g>
	<polygon points="120,57 129,58 124,65" fill="#aaff00"/>
	<line x1="193" y1="112" x2="126" y2="62" stroke="#aaff00" stroke-width="2"/>
</g>
<g>
	<polygon points="114,189 116,181 122,187" fill="#aaff00"/>
	<line x1="193" y1="112" x2="119" y2="184" stroke="#aaff00" stroke-width="2"/>
</g>
<g>
	<polygon points="323,217 317,210 326,209" fill="#aaff00"/>
	<line x1="316" y1="162" x2="322" y2="210" stroke="#aaff00" stroke-width="2"/>
</g>
<g>
	<polygon points="369,197 360,196 365,189" fill="#aaff00"/>
	<line x1="316" y1="162" x2="363" y2="193" stroke="#aaff00" stroke-width="2"/>
</g>
<g>
	<polygon points="368,201 363,209 359,200" fill="#aaff00"/>
	<line x1="324" y1="222" x2="362" y2="204" stroke="#aaff00" stroke-width="2"/>
</g>
<g>
	<polygon points="393,248 386,243 394,239" fill="#aaff00"/>
	<line x1="373" y1="200" x2="390" y2="242" stroke="#aaff00" stroke-width="2"/>
</g>
<g>
	<polygon points="149,255 157,250 157,259" fill="#aaff00"/>
	<line x1="260" y1="250" x2="156" y2="255" stroke="#aaff00" stroke-width="2"/>
</g>
<g>
	<polygon points="260,188 265,196 256,196" fill="#aaff00"/>
	<line x1="260" y1="250" x2="260" y2="195" stroke="#aaff00" stroke-width="2"/>
</g>
<g>
	<polygon points="319,223 314,231 310,222" fill="#aaff00"/>
	<line x1="260" y1="250" x2="313" y2="226" stroke="#aaff00" stroke-width="2"/>
</g>
<g>
	<polygon points="202,250 195,255 194,246" fill="#aaff00"/>
	<line x1="145" y1="256" x2="195" y2="251" stroke="#aaff00" stroke-width="2"/>
</g>
<g>
	<polygon points="80,136 87,141 79,145" fill="#aaff00"/>
	<line x1="145" y1="256" x2="83" y2="143" stroke="#aaff00" stroke-width="2"/>
</g>
<g>
	<polygon points="178,224 187,225 181,232" fill="#aaff00"/>
	<line x1="207" y1="250" x2="183" y2="228" stroke="#aaff00" stroke-width="2"/>
</g>
<g>
	<polygon points="207,192 204,201 198,194" fill="#aaff00"/>
	<line x1="175" y1="221" x2="202" y2="197" stroke="#aaff00" stroke-width="2"/>
</g>
<g>
	<polygon points="156,187 164,183 164,192" fill="#aaff00"/>
	<line x1="211" y1="190" x2="163" y2="187" stroke="#aaff00" stroke-width="2"/>
</g>
<g>
	<polygon points="157,151 160,159 151,158" fill="#aaff00"/>
	<line x1="152" y1="187" x2="156" y2="158" stroke="#aaff00" stroke-width="2"/>
</g>
<g>
	<polygon points="170,219 161,220 165,211" fill="#aaff00"/>
	<line x1="111" y1="193" x2="164" y2="216" stroke="#aaff00" stroke-width="2"/>
</g>
<g>
	<polygon points="147,187 140,193 139,184" fill="#aaff00"/>
	<line x1="111" y1="193" x2="140" y2="188" stroke="#aaff00" stroke-width="2"/>
</g>
<g>
	<polygon points="140,255 132,259 132,250" fill="#aaff00"/>
	<line x1="80" y1="253" x2="133" y2="255" stroke="#aaff00" stroke-width="2"/>
</g>
<g>
	<polygon points="108,196 109,205 101,201" fill="#aaff00"/>
	<line x1="80" y1="253" x2="105" y2="203" stroke="#aaff00" stroke-width="2"/>
</g>
<g>
	<polygon points="76,255 73,264 67,257" fill="#aaff00"/>
	<line x1="32" y1="293" x2="71" y2="260" stroke="#aaff00" stroke-width="2"/>
</g>
<g>
	<polygon points="215,189 222,184 223,193" fill="#aaff00"/>
	<line x1="261" y1="184" x2="222" y2="188" stroke="#aaff00" stroke-width="2"/>
</g>
<g>
	<polygon points="261,179 256,171 265,171" fill="#aaff00"/>
	<line x1="264" y1="69" x2="261" y2="172" stroke="#aaff00" stroke-width="2"/>
</g>
<g>
	<polygon points="261,65 253,61 261,56" fill="#aaff00"/>
	<line x1="222" y1="5" x2="257" y2="59" stroke="#aaff00" stroke-width="2"/>
</g>
<g>
	<polygon points="121,53 126,45 130,53" fill="#aaff00"/>
	<line x1="222" y1="5" x2="127" y2="49" stroke="#aaff00" stroke-width="2"/>
</g>
<g>
	<polygon points="80,128 79,119 87,124" fill="#aaff00"/>
	<line x1="117" y1="55" x2="83" y2="122" stroke="#aaff00" stroke-width="2"/>
</g>
<g>
	<polygon points="59,72 65,66 68,74" fill="#aaff00"/>
	<line x1="117" y1="55" x2="66" y2="70" stroke="#aaff00" stroke-width="2"/>
</g>
<g>
	<polygon points="56,78 63,83 55,87" fill="#aaff00"/>
	<line x1="78" y1="133" x2="59" y2="84" stroke="#aaff00" stroke-width="2"/>
</g>
<g>
	<polygon points="8,47 17,47 13,55" fill="#aaff00"/>
	<line x1="55" y1="74" x2="15" y2="50" stroke="#aaff00" stroke-width="2"/>
</g>
<g>
	<polygon points="226,5 234,0 234,9" fill="#aaff00"/>
	<line x1="283" y1="5" x2="233" y2="5" stroke="#aaff00" stroke-width="2"/>
</g>
<g>
	<polygon points="243,128 236,123 244,119" fill="#aaff00"/>
	<line x1="220" y1="65" x2="240" y2="122" stroke="#aaff00" stroke-width="2"/>
</g>
<g>
	<polygon points="259,68 251,72 252,63" fill="#aaff00"/>
	<line x1="220" y1="65" x2="252" y2="67" stroke="#aaff00" stroke-width="2"/>
</g>
<g>
	<polygon points="208,245 206,236 215,239" fill="#aaff00"/>
	<line x1="245" y1="133" x2="210" y2="238" stroke="#aaff00" stroke-width="2"/>
</g>
<g>
	<polygon points="197,112 205,107 205,116" fill="#aaff00"/>
	<line x1="296" y1="112" x2="204" y2="112" stroke="#aaff00" stroke-width="2"/>
</g>
<g>
	<polygon points="249,131 254,124 258,132" fill="#aaff00"/>
	<line x1="296" y1="112" x2="255" y2="128" stroke="#aaff00" stroke-width="2"/>
</g>
<g>
	<polygon points="314,157 307,152 315,148" fill="#aaff00"/>
	<line x1="296" y1="112" x2="311" y2="151" stroke="#aaff00" stroke-width="2"/>
</g>
<g>
	<polygon points="300,110 305,102 309,110" fill="#aaff00"/>
	<line x1="356" y1="83" x2="306" y2="106" stroke="#aaff00" stroke-width="2"/>
</g>
<g>
	<polygon points="216,62 207,60 213,53" fill="#aaff00"/>
	<line x1="177" y1="27" x2="211" y2="57" stroke="#aaff00" stroke-width="2"/>
</g>
<g>
	<polygon points="262,253 270,257 263,262" fill="#aaff00"/>
	<line x1="293" y1="295" x2="266" y2="259" stroke="#aaff00" stroke-width="2"/>
</g>

<g fill="#000000">
	<circle cx="151" cy="87" r="4"/>
</g>
<g fill="#000000">
	<circle cx="192" cy="111" r="4"/>
</g>
<g fill="#000000">
	<circle cx="292" cy="294" r="4"/>
</g>
<g fill="#000000">
	<circle cx="259" cy="249" r="4"/>
</g>
<g fill="#000000">
	<circle cx="355" cy="82" r="4"/>
</g>
<g fill="#000000">
	<circle cx="295" cy="111" r="4"/>
</g>
<g fill="#000000">
	<circle cx="282" cy="4" r="4"/>
</g>
<g fill="#000000">
	<circle cx="221" cy="4" r="4"/>
</g>
<g fill="#000000">
	<circle cx="31" cy="292" r="4"/>
</g>
<g fill="#000000">
	<circle cx="79" cy="252" r="4"/>
</g>
<g fill="#000000">
	<circle cx="394" cy="252" r="4"/>
</g>
<g fill="#000000">
	<circle cx="4" cy="44" r="4"/>
</g>
<g fill="#000000">
	<circle cx="157" cy="146" r="4"/>
</g>
<g fill="#000000">
	<circle cx="176" cy="26" r="4"/>
</g>
<g fill="#000000">
	<circle cx="219" cy="64" r="4"/>
</g>
<g fill="#000000">
	<circle cx="144" cy="255" r="4"/>
</g>
<g fill="#000000">
	<circle cx="206" cy="249" r="4"/>
</g>
<g fill="#000000">
	<circle cx="77" cy="132" r="4"/>
</g>
<g fill="#000000">
	<circle cx="244" cy="132" r="4"/>
</g>
<g fill="#000000">
	<circle cx="263" cy="68" r="4"/>
</g>
<g fill="#000000">
	<circle cx="260" cy="183" r="4"/>
</g>
<g fill="#000000">
	<circle cx="174" cy="220" r="4"/>
</g>
<g fill="#000000">
	<circle cx="210" cy="189" r="4"/>
</g>
<g fill="#000000">
	<circle cx="315" cy="161" r="4"/>
</g>
<g fill="#000000">
	<circle cx="116" cy="54" r="4"/>
</g>
<g fill="#000000">
	<circle cx="110" cy="192" r="4"/>
</g>
<g fill="#000000">
	<circle cx="323" cy="221" r="4"/>
</g>
<g fill="#000000">
	<circle cx="372" cy="199" r="4"/>
</g>
<g fill="#000000">
	<circle cx="54" cy="73" r="4"/>
</g>
<g fill="#000000">
	<circle cx="151" cy="186" r="4"/>
</g>

</g>

</svg>
