<?xml version="1.0" encoding="utf-8"?>
<!-- Created with Hypercube (http://tumic.wz.cz/hypercube) -->

<svg width="400" height="300" viewBox="0 0 400 300" xmlns="http://www.w3.org/2000/svg" baseProfile="tiny">

<g font-family="Helvetica" font-weight="normal">

<g>
	<polygon points="46,185 54,189 46,194" fill="#aaff00"/>
	<line x1="102" y1="272" x2="50" y2="191" stroke="#aaff00" stroke-width="2"/>
</g>
<g>
	<polygon points="78,234 86,238 78,243" fill="#aaff00"/>
	<line x1="102" y1="272" x2="82" y2="240" stroke="#aaff00" stroke-width="2"/>
</g>
<g>
	<polygon points="62,71 65,79 56,78" fill="#aaff00"/>
	<line x1="44" y1="182" x2="61" y2="78" stroke="#aaff00" stroke-width="2"/>
</g>
<g>
	<polygon points="103,184 95,188 95,179" fill="#aaff00"/>
	<line x1="44" y1="182" x2="96" y2="184" stroke="#aaff00" stroke-width="2"/>
</g>
<g>
	<polygon points="132,73 124,77 125,68" fill="#aaff00"/>
	<line x1="63" y1="67" x2="125" y2="72" stroke="#aaff00" stroke-width="2"/>
</g>
<g>
	<polygon points="146,15 141,23 137,15" fill="#aaff00"/>
	<line x1="63" y1="67" x2="140" y2="19" stroke="#aaff00" stroke-width="2"/>
</g>
<g>
	<polygon points="108,44 116,46 110,52" fill="#aaff00"/>
	<line x1="137" y1="74" x2="113" y2="49" stroke="#aaff00" stroke-width="2"/>
</g>
<g>
	<polygon points="234,80 226,84 227,75" fill="#aaff00"/>
	<line x1="137" y1="74" x2="227" y2="80" stroke="#aaff00" stroke-width="2"/>
</g>
<g>
	<polygon points="192,5 185,11 184,2" fill="#aaff00"/>
	<line x1="150" y1="13" x2="185" y2="6" stroke="#aaff00" stroke-width="2"/>
</g>
<g>
	<polygon points="235,78 226,77 231,69" fill="#aaff00"/>
	<line x1="150" y1="13" x2="229" y2="73" stroke="#aaff00" stroke-width="2"/>
</g>
<g>
	<polygon points="239,85 245,92 236,93" fill="#aaff00"/>
	<line x1="247" y1="136" x2="240" y2="92" stroke="#aaff00" stroke-width="2"/>
</g>
<g>
	<polygon points="260,184 254,178 262,175" fill="#aaff00"/>
	<line x1="247" y1="136" x2="258" y2="177" stroke="#aaff00" stroke-width="2"/>
</g>
<g>
	<polygon points="243,138 240,147 234,140" fill="#aaff00"/>
	<line x1="206" y1="169" x2="237" y2="143" stroke="#aaff00" stroke-width="2"/>
</g>
<g>
	<polygon points="201,169 194,175 193,166" fill="#aaff00"/>
	<line x1="158" y1="176" x2="194" y2="170" stroke="#aaff00" stroke-width="2"/>
</g>
<g>
	<polygon points="153,176 146,182 145,173" fill="#aaff00"/>
	<line x1="108" y1="185" x2="146" y2="178" stroke="#aaff00" stroke-width="2"/>
</g>
<g>
	<polygon points="175,111 173,120 167,113" fill="#aaff00"/>
	<line x1="108" y1="185" x2="171" y2="116" stroke="#aaff00" stroke-width="2"/>
</g>
<g>
	<polygon points="249,39 247,47 241,41" fill="#aaff00"/>
	<line x1="179" y1="108" x2="244" y2="44" stroke="#aaff00" stroke-width="2"/>
</g>
<g>
	<polygon points="297,66 288,65 293,58" fill="#aaff00"/>
	<line x1="253" y1="36" x2="291" y2="62" stroke="#aaff00" stroke-width="2"/>
</g>
<g>
	<polygon points="291,13 286,21 282,13" fill="#aaff00"/>
	<line x1="253" y1="36" x2="284" y2="16" stroke="#aaff00" stroke-width="2"/>
</g>
<g>
	<polygon points="243,80 250,74 251,83" fill="#aaff00"/>
	<line x1="301" y1="69" x2="250" y2="78" stroke="#aaff00" stroke-width="2"/>
</g>
<g>
	<polygon points="352,84 343,86 346,78" fill="#aaff00"/>
	<line x1="301" y1="69" x2="345" y2="82" stroke="#aaff00" stroke-width="2"/>
</g>
<g>
	<polygon points="241,77 243,68 250,74" fill="#aaff00"/>
	<line x1="295" y1="11" x2="246" y2="71" stroke="#aaff00" stroke-width="2"/>
</g>
<g>
	<polygon points="349,5 342,10 341,1" fill="#aaff00"/>
	<line x1="295" y1="11" x2="342" y2="6" stroke="#aaff00" stroke-width="2"/>
</g>
<g>
	<polygon points="105,188 104,197 97,192" fill="#aaff00"/>
	<line x1="76" y1="231" x2="101" y2="194" stroke="#aaff00" stroke-width="2"/>
</g>
<g>
	<polygon points="241,84 250,87 243,93" fill="#aaff00"/>
	<line x1="310" y1="164" x2="246" y2="89" stroke="#aaff00" stroke-width="2"/>
</g>
<g>
	<polygon points="353,193 344,192 349,185" fill="#aaff00"/>
	<line x1="310" y1="164" x2="347" y2="189" stroke="#aaff00" stroke-width="2"/>
</g>
<g>
	<polygon points="308,168 309,177 301,173" fill="#aaff00"/>
	<line x1="280" y1="243" x2="305" y2="174" stroke="#aaff00" stroke-width="2"/>
</g>
<g>
	<polygon points="280,247 285,254 276,255" fill="#aaff00"/>
	<line x1="284" y1="295" x2="280" y2="254" stroke="#aaff00" stroke-width="2"/>
</g>
<g>
	<polygon points="279,295 271,299 271,290" fill="#aaff00"/>
	<line x1="222" y1="295" x2="272" y2="295" stroke="#aaff00" stroke-width="2"/>
</g>
<g>
	<polygon points="205,259 213,264 204,268" fill="#aaff00"/>
	<line x1="222" y1="295" x2="208" y2="265" stroke="#aaff00" stroke-width="2"/>
</g>
<g>
	<polygon points="106,271 113,265 114,274" fill="#aaff00"/>
	<line x1="204" y1="255" x2="113" y2="270" stroke="#aaff00" stroke-width="2"/>
</g>
<g>
	<polygon points="275,243 268,249 267,240" fill="#aaff00"/>
	<line x1="204" y1="255" x2="268" y2="244" stroke="#aaff00" stroke-width="2"/>
</g>
<g>
	<polygon points="106,273 115,272 111,281" fill="#aaff00"/>
	<line x1="153" y1="295" x2="112" y2="276" stroke="#aaff00" stroke-width="2"/>
</g>
<g>
	<polygon points="217,295 209,299 209,290" fill="#aaff00"/>
	<line x1="153" y1="295" x2="210" y2="295" stroke="#aaff00" stroke-width="2"/>
</g>
<g>
	<polygon points="152,290 146,283 155,282" fill="#aaff00"/>
	<line x1="142" y1="234" x2="150" y2="283" stroke="#aaff00" stroke-width="2"/>
</g>
<g>
	<polygon points="140,229 132,224 140,220" fill="#aaff00"/>
	<line x1="100" y1="142" x2="137" y2="223" stroke="#aaff00" stroke-width="2"/>
</g>
<g>
	<polygon points="95,140 86,141 90,132" fill="#aaff00"/>
	<line x1="54" y1="122" x2="89" y2="137" stroke="#aaff00" stroke-width="2"/>
</g>

<g fill="#000000">
	<circle cx="101" cy="271" r="4"/>
</g>
<g fill="#000000">
	<circle cx="221" cy="294" r="4"/>
</g>
<g fill="#000000">
	<circle cx="43" cy="181" r="4"/>
</g>
<g fill="#000000">
	<circle cx="75" cy="230" r="4"/>
</g>
<g fill="#000000">
	<circle cx="157" cy="175" r="4"/>
</g>
<g fill="#000000">
	<circle cx="178" cy="107" r="4"/>
</g>
<g fill="#000000">
	<circle cx="104" cy="40" r="4"/>
</g>
<g fill="#000000">
	<circle cx="196" cy="4" r="4"/>
</g>
<g fill="#000000">
	<circle cx="238" cy="80" r="4"/>
</g>
<g fill="#000000">
	<circle cx="353" cy="4" r="4"/>
</g>
<g fill="#000000">
	<circle cx="356" cy="85" r="4"/>
</g>
<g fill="#000000">
	<circle cx="261" cy="188" r="4"/>
</g>
<g fill="#000000">
	<circle cx="283" cy="294" r="4"/>
</g>
<g fill="#000000">
	<circle cx="203" cy="254" r="4"/>
</g>
<g fill="#000000">
	<circle cx="62" cy="66" r="4"/>
</g>
<g fill="#000000">
	<circle cx="107" cy="184" r="4"/>
</g>
<g fill="#000000">
	<circle cx="205" cy="168" r="4"/>
</g>
<g fill="#000000">
	<circle cx="252" cy="35" r="4"/>
</g>
<g fill="#000000">
	<circle cx="136" cy="73" r="4"/>
</g>
<g fill="#000000">
	<circle cx="149" cy="12" r="4"/>
</g>
<g fill="#000000">
	<circle cx="246" cy="135" r="4"/>
</g>
<g fill="#000000">
	<circle cx="300" cy="68" r="4"/>
</g>
<g fill="#000000">
	<circle cx="294" cy="10" r="4"/>
</g>
<g fill="#000000">
	<circle cx="279" cy="242" r="4"/>
</g>
<g fill="#000000">
	<circle cx="309" cy="163" r="4"/>
</g>
<g fill="#000000">
	<circle cx="356" cy="195" r="4"/>
</g>
<g fill="#000000">
	<circle cx="141" cy="233" r="4"/>
</g>
<g fill="#000000">
	<circle cx="152" cy="294" r="4"/>
</g>
<g fill="#000000">
	<circle cx="53" cy="121" r="4"/>
</g>
<g fill="#000000">
	<circle cx="99" cy="141" r="4"/>
</g>

</g>

</svg>
