<?xml version="1.0" encoding="utf-8"?>
<!-- Created with Hypercube (http://tumic.wz.cz/hypercube) -->

<svg width="400" height="300" viewBox="0 0 400 300" xmlns="http://www.w3.org/2000/svg" baseProfile="tiny">

<g font-family="Helvetica" font-weight="normal">

<g>
	<polygon points="89,48 93,56 84,56" fill="#aaff00"/>
	<line x1="92" y1="138" x2="89" y2="55" stroke="#aaff00" stroke-width="2"/>
</g>
<g>
	<polygon points="89,141 89,150 82,146" fill="#aaff00"/>
	<line x1="64" y1="188" x2="86" y2="148" stroke="#aaff00" stroke-width="2"/>
</g>
<g>
	<polygon points="335,94 331,102 326,95" fill="#aaff00"/>
	<line x1="236" y1="166" x2="329" y2="98" stroke="#aaff00" stroke-width="2"/>
</g>
<g>
	<polygon points="257,230 250,224 259,221" fill="#aaff00"/>
	<line x1="236" y1="166" x2="255" y2="223" stroke="#aaff00" stroke-width="2"/>
</g>
<g>
	<polygon points="260,158 254,164 251,156" fill="#aaff00"/>
	<line x1="236" y1="166" x2="253" y2="160" stroke="#aaff00" stroke-width="2"/>
</g>
<g>
	<polygon points="293,147 287,154 284,145" fill="#aaff00"/>
	<line x1="236" y1="166" x2="286" y2="149" stroke="#aaff00" stroke-width="2"/>
</g>
<g>
	<polygon points="355,126 349,133 346,124" fill="#aaff00"/>
	<line x1="236" y1="166" x2="348" y2="128" stroke="#aaff00" stroke-width="2"/>
</g>
<g>
	<polygon points="322,137 316,144 313,135" fill="#aaff00"/>
	<line x1="236" y1="166" x2="315" y2="139" stroke="#aaff00" stroke-width="2"/>
</g>
<g>
	<polygon points="315,62 314,71 306,66" fill="#aaff00"/>
	<line x1="236" y1="166" x2="310" y2="68" stroke="#aaff00" stroke-width="2"/>
</g>
<g>
	<polygon points="289,215 280,213 287,207" fill="#aaff00"/>
	<line x1="236" y1="166" x2="284" y2="211" stroke="#aaff00" stroke-width="2"/>
</g>
<g>
	<polygon points="321,201 312,202 316,194" fill="#aaff00"/>
	<line x1="236" y1="166" x2="315" y2="198" stroke="#aaff00" stroke-width="2"/>
</g>
<g>
	<polygon points="347,172 339,176 339,167" fill="#aaff00"/>
	<line x1="236" y1="166" x2="340" y2="172" stroke="#aaff00" stroke-width="2"/>
</g>
<g>
	<polygon points="280,184 271,185 275,177" fill="#aaff00"/>
	<line x1="236" y1="166" x2="274" y2="181" stroke="#aaff00" stroke-width="2"/>
</g>
<g>
	<polygon points="270,270 263,264 272,261" fill="#aaff00"/>
	<line x1="236" y1="166" x2="268" y2="263" stroke="#aaff00" stroke-width="2"/>
</g>
<g>
	<polygon points="388,169 380,165 388,160" fill="#aaff00"/>
	<line x1="339" y1="92" x2="384" y2="163" stroke="#aaff00" stroke-width="2"/>
</g>
<g>
	<polygon points="386,174 381,182 377,174" fill="#aaff00"/>
	<line x1="259" y1="235" x2="380" y2="177" stroke="#aaff00" stroke-width="2"/>
</g>
<g>
	<polygon points="386,172 378,175 379,166" fill="#aaff00"/>
	<line x1="265" y1="157" x2="379" y2="171" stroke="#aaff00" stroke-width="2"/>
</g>
<g>
	<polygon points="386,171 377,173 380,165" fill="#aaff00"/>
	<line x1="298" y1="146" x2="379" y2="169" stroke="#aaff00" stroke-width="2"/>
</g>
<g>
	<polygon points="388,169 380,165 388,160" fill="#aaff00"/>
	<line x1="360" y1="125" x2="384" y2="163" stroke="#aaff00" stroke-width="2"/>
</g>
<g>
	<polygon points="387,170 378,170 382,162" fill="#aaff00"/>
	<line x1="327" y1="136" x2="380" y2="167" stroke="#aaff00" stroke-width="2"/>
</g>
<g>
	<polygon points="388,169 380,165 388,160" fill="#aaff00"/>
	<line x1="318" y1="59" x2="384" y2="163" stroke="#aaff00" stroke-width="2"/>
</g>
<g>
	<polygon points="386,174 381,182 377,174" fill="#aaff00"/>
	<line x1="293" y1="219" x2="380" y2="177" stroke="#aaff00" stroke-width="2"/>
</g>
<g>
	<polygon points="386,174 381,182 377,174" fill="#aaff00"/>
	<line x1="326" y1="203" x2="380" y2="177" stroke="#aaff00" stroke-width="2"/>
</g>
<g>
	<polygon points="386,173 378,177 378,168" fill="#aaff00"/>
	<line x1="352" y1="173" x2="379" y2="173" stroke="#aaff00" stroke-width="2"/>
</g>
<g>
	<polygon points="386,173 379,178 378,170" fill="#aaff00"/>
	<line x1="285" y1="186" x2="379" y2="174" stroke="#aaff00" stroke-width="2"/>
</g>
<g>
	<polygon points="387,175 384,184 378,177" fill="#aaff00"/>
	<line x1="272" y1="275" x2="382" y2="180" stroke="#aaff00" stroke-width="2"/>
</g>
<g>
	<polygon points="390,168 385,161 394,160" fill="#aaff00"/>
	<line x1="381" y1="64" x2="389" y2="161" stroke="#aaff00" stroke-width="2"/>
</g>
<g>
	<polygon points="376,62 367,65 370,56" fill="#aaff00"/>
	<line x1="267" y1="37" x2="369" y2="61" stroke="#aaff00" stroke-width="2"/>
</g>
<g>
	<polygon points="192,62 198,55 201,64" fill="#aaff00"/>
	<line x1="267" y1="37" x2="199" y2="60" stroke="#aaff00" stroke-width="2"/>
</g>
<g>
	<polygon points="104,89 110,83 113,91" fill="#aaff00"/>
	<line x1="188" y1="64" x2="111" y2="87" stroke="#aaff00" stroke-width="2"/>
</g>
<g>
	<polygon points="27,100 34,94 35,103" fill="#aaff00"/>
	<line x1="100" y1="91" x2="34" y2="99" stroke="#aaff00" stroke-width="2"/>
</g>
<g>
	<polygon points="12,53 18,59 9,61" fill="#aaff00"/>
	<line x1="23" y1="101" x2="13" y2="60" stroke="#aaff00" stroke-width="2"/>
</g>
<g>
	<polygon points="389,177 390,186 382,182" fill="#aaff00"/>
	<line x1="348" y1="275" x2="386" y2="183" stroke="#aaff00" stroke-width="2"/>
</g>
<g>
	<polygon points="352,276 361,276 357,284" fill="#aaff00"/>
	<line x1="391" y1="295" x2="358" y2="279" stroke="#aaff00" stroke-width="2"/>
</g>
<g>
	<polygon points="391,177 395,185 386,185" fill="#aaff00"/>
	<line x1="391" y1="215" x2="391" y2="184" stroke="#aaff00" stroke-width="2"/>
</g>
<g>
	<polygon points="391,219 395,227 386,227" fill="#aaff00"/>
	<line x1="391" y1="254" x2="391" y2="226" stroke="#aaff00" stroke-width="2"/>
</g>
<g>
	<polygon points="15,48 22,43 23,52" fill="#aaff00"/>
	<line x1="89" y1="44" x2="22" y2="48" stroke="#aaff00" stroke-width="2"/>
</g>
<g>
	<polygon points="156,7 151,14 147,6" fill="#aaff00"/>
	<line x1="89" y1="44" x2="149" y2="10" stroke="#aaff00" stroke-width="2"/>
</g>
<g>
	<polygon points="51,8 60,10 53,16" fill="#aaff00"/>
	<line x1="89" y1="44" x2="56" y2="13" stroke="#aaff00" stroke-width="2"/>
</g>
<g>
	<polygon points="108,8 108,17 101,13" fill="#aaff00"/>
	<line x1="89" y1="44" x2="105" y2="15" stroke="#aaff00" stroke-width="2"/>
</g>

<g fill="#000000">
	<circle cx="88" cy="43" r="4"/>
</g>
<g fill="#000000">
	<circle cx="63" cy="187" r="4"/>
</g>
<g fill="#000000">
	<circle cx="91" cy="137" r="4"/>
</g>
<g fill="#000000">
	<circle cx="235" cy="165" r="4"/>
</g>
<g fill="#000000">
	<circle cx="338" cy="91" r="4"/>
</g>
<g fill="#000000">
	<circle cx="258" cy="234" r="4"/>
</g>
<g fill="#000000">
	<circle cx="264" cy="156" r="4"/>
</g>
<g fill="#000000">
	<circle cx="297" cy="145" r="4"/>
</g>
<g fill="#000000">
	<circle cx="359" cy="124" r="4"/>
</g>
<g fill="#000000">
	<circle cx="326" cy="135" r="4"/>
</g>
<g fill="#000000">
	<circle cx="317" cy="58" r="4"/>
</g>
<g fill="#000000">
	<circle cx="292" cy="218" r="4"/>
</g>
<g fill="#000000">
	<circle cx="325" cy="202" r="4"/>
</g>
<g fill="#000000">
	<circle cx="351" cy="172" r="4"/>
</g>
<g fill="#000000">
	<circle cx="284" cy="185" r="4"/>
</g>
<g fill="#000000">
	<circle cx="271" cy="274" r="4"/>
</g>
<g fill="#000000">
	<circle cx="10" cy="48" r="4"/>
</g>
<g fill="#000000">
	<circle cx="99" cy="90" r="4"/>
</g>
<g fill="#000000">
	<circle cx="22" cy="100" r="4"/>
</g>
<g fill="#000000">
	<circle cx="266" cy="36" r="4"/>
</g>
<g fill="#000000">
	<circle cx="380" cy="63" r="4"/>
</g>
<g fill="#000000">
	<circle cx="187" cy="63" r="4"/>
</g>
<g fill="#000000">
	<circle cx="390" cy="172" r="4"/>
</g>
<g fill="#000000">
	<circle cx="159" cy="4" r="4"/>
</g>
<g fill="#000000">
	<circle cx="390" cy="294" r="4"/>
</g>
<g fill="#000000">
	<circle cx="347" cy="274" r="4"/>
</g>
<g fill="#000000">
	<circle cx="390" cy="253" r="4"/>
</g>
<g fill="#000000">
	<circle cx="390" cy="214" r="4"/>
</g>
<g fill="#000000">
	<circle cx="47" cy="4" r="4"/>
</g>
<g fill="#000000">
	<circle cx="110" cy="4" r="4"/>
</g>

</g>

</svg>
