<?xml version="1.0" encoding="utf-8"?>
<!-- Created with Hypercube (http://tumic.wz.cz/hypercube) -->

<svg width="400" height="300" viewBox="0 0 400 300" xmlns="http://www.w3.org/2000/svg" baseProfile="tiny">

<g font-family="Helvetica" font-weight="normal">

<g>
	<polygon points="231,128 239,130 233,137" fill="#aaff00"/>
	<line x1="262" y1="161" x2="236" y2="133" stroke="#aaff00" stroke-width="2"/>
</g>
<g>
	<polygon points="211,179 217,172 220,181" fill="#aaff00"/>
	<line x1="262" y1="161" x2="217" y2="177" stroke="#aaff00" stroke-width="2"/>
</g>
<g>
	<polygon points="266,230 261,223 270,222" fill="#aaff00"/>
	<line x1="262" y1="161" x2="266" y2="223" stroke="#aaff00" stroke-width="2"/>
</g>
<g>
	<polygon points="280,81 282,89 273,87" fill="#aaff00"/>
	<line x1="262" y1="161" x2="278" y2="88" stroke="#aaff00" stroke-width="2"/>
</g>
<g>
	<polygon points="150,99 159,97 156,106" fill="#aaff00"/>
	<line x1="228" y1="125" x2="157" y2="101" stroke="#aaff00" stroke-width="2"/>
</g>
<g>
	<polygon points="157,173 161,165 166,172" fill="#aaff00"/>
	<line x1="228" y1="125" x2="163" y2="169" stroke="#aaff00" stroke-width="2"/>
</g>
<g>
	<polygon points="63,172 66,164 72,171" fill="#aaff00"/>
	<line x1="146" y1="98" x2="68" y2="168" stroke="#aaff00" stroke-width="2"/>
</g>
<g>
	<polygon points="140,37 145,44 136,45" fill="#aaff00"/>
	<line x1="146" y1="98" x2="141" y2="44" stroke="#aaff00" stroke-width="2"/>
</g>
<g>
	<polygon points="88,89 96,86 95,95" fill="#aaff00"/>
	<line x1="146" y1="98" x2="95" y2="90" stroke="#aaff00" stroke-width="2"/>
</g>
<g>
	<polygon points="82,93 85,102 76,99" fill="#aaff00"/>
	<line x1="60" y1="176" x2="80" y2="100" stroke="#aaff00" stroke-width="2"/>
</g>
<g>
	<polygon points="96,195 87,196 91,188" fill="#aaff00"/>
	<line x1="60" y1="176" x2="89" y2="192" stroke="#aaff00" stroke-width="2"/>
</g>
<g>
	<polygon points="9,172 17,168 16,177" fill="#aaff00"/>
	<line x1="60" y1="176" x2="16" y2="172" stroke="#aaff00" stroke-width="2"/>
</g>
<g>
	<polygon points="8,227 10,219 16,225" fill="#aaff00"/>
	<line x1="60" y1="176" x2="13" y2="222" stroke="#aaff00" stroke-width="2"/>
</g>
<g>
	<polygon points="171,139 171,148 163,144" fill="#aaff00"/>
	<line x1="154" y1="176" x2="168" y2="145" stroke="#aaff00" stroke-width="2"/>
</g>
<g>
	<polygon points="116,145 125,147 119,154" fill="#aaff00"/>
	<line x1="154" y1="176" x2="122" y2="150" stroke="#aaff00" stroke-width="2"/>
</g>
<g>
	<polygon points="104,196 109,189 113,197" fill="#aaff00"/>
	<line x1="154" y1="176" x2="110" y2="193" stroke="#aaff00" stroke-width="2"/>
</g>
<g>
	<polygon points="152,180 155,189 146,186" fill="#aaff00"/>
	<line x1="142" y1="225" x2="151" y2="187" stroke="#aaff00" stroke-width="2"/>
</g>
<g>
	<polygon points="45,128 53,130 47,136" fill="#aaff00"/>
	<line x1="142" y1="225" x2="50" y2="133" stroke="#aaff00" stroke-width="2"/>
</g>
<g>
	<polygon points="83,250 88,243 92,251" fill="#aaff00"/>
	<line x1="142" y1="225" x2="89" y2="247" stroke="#aaff00" stroke-width="2"/>
</g>
<g>
	<polygon points="180,279 172,275 179,270" fill="#aaff00"/>
	<line x1="142" y1="225" x2="176" y2="273" stroke="#aaff00" stroke-width="2"/>
</g>
<g>
	<polygon points="7,77 15,81 8,86" fill="#aaff00"/>
	<line x1="42" y1="125" x2="11" y2="83" stroke="#aaff00" stroke-width="2"/>
</g>
<g>
	<polygon points="61,180 67,186 58,189" fill="#aaff00"/>
	<line x1="79" y1="252" x2="62" y2="187" stroke="#aaff00" stroke-width="2"/>
</g>
<g>
	<polygon points="43,291 45,282 52,288" fill="#aaff00"/>
	<line x1="79" y1="252" x2="48" y2="286" stroke="#aaff00" stroke-width="2"/>
</g>
<g>
	<polygon points="264,239 265,248 257,243" fill="#aaff00"/>
	<line x1="241" y1="287" x2="261" y2="245" stroke="#aaff00" stroke-width="2"/>
</g>
<g>
	<polygon points="187,283 195,279 194,288" fill="#aaff00"/>
	<line x1="241" y1="287" x2="194" y2="283" stroke="#aaff00" stroke-width="2"/>
</g>
<g>
	<polygon points="148,101 156,105 149,110" fill="#aaff00"/>
	<line x1="207" y1="181" x2="152" y2="107" stroke="#aaff00" stroke-width="2"/>
</g>
<g>
	<polygon points="145,222 149,214 154,221" fill="#aaff00"/>
	<line x1="207" y1="181" x2="151" y2="218" stroke="#aaff00" stroke-width="2"/>
</g>
<g>
	<polygon points="176,7 172,15 167,8" fill="#aaff00"/>
	<line x1="140" y1="33" x2="170" y2="11" stroke="#aaff00" stroke-width="2"/>
</g>
<g>
	<polygon points="232,125 240,122 239,131" fill="#aaff00"/>
	<line x1="331" y1="140" x2="239" y2="126" stroke="#aaff00" stroke-width="2"/>
</g>
<g>
	<polygon points="281,72 276,64 285,64" fill="#aaff00"/>
	<line x1="282" y1="16" x2="281" y2="65" stroke="#aaff00" stroke-width="2"/>
</g>
<g>
	<polygon points="395,177 390,169 399,169" fill="#aaff00"/>
	<line x1="395" y1="133" x2="395" y2="170" stroke="#aaff00" stroke-width="2"/>
</g>
<g>
	<polygon points="385,266 376,263 383,257" fill="#aaff00"/>
	<line x1="352" y1="224" x2="380" y2="260" stroke="#aaff00" stroke-width="2"/>
</g>
<g>
	<polygon points="392,30 393,39 385,35" fill="#aaff00"/>
	<line x1="368" y1="76" x2="389" y2="37" stroke="#aaff00" stroke-width="2"/>
</g>
<g>
	<polygon points="390,133 383,138 382,129" fill="#aaff00"/>
	<line x1="331" y1="140" x2="383" y2="134" stroke="#aaff00" stroke-width="2"/>
</g>
<g>
	<polygon points="350,219 344,213 353,210" fill="#aaff00"/>
	<line x1="331" y1="140" x2="349" y2="212" stroke="#aaff00" stroke-width="2"/>
</g>
<g>
	<polygon points="365,79 365,88 357,84" fill="#aaff00"/>
	<line x1="331" y1="140" x2="362" y2="86" stroke="#aaff00" stroke-width="2"/>
</g>

<g fill="#000000">
	<circle cx="261" cy="160" r="4"/>
</g>
<g fill="#000000">
	<circle cx="227" cy="124" r="4"/>
</g>
<g fill="#000000">
	<circle cx="206" cy="180" r="4"/>
</g>
<g fill="#000000">
	<circle cx="266" cy="234" r="4"/>
</g>
<g fill="#000000">
	<circle cx="280" cy="76" r="4"/>
</g>
<g fill="#000000">
	<circle cx="145" cy="97" r="4"/>
</g>
<g fill="#000000">
	<circle cx="153" cy="175" r="4"/>
</g>
<g fill="#000000">
	<circle cx="330" cy="139" r="4"/>
</g>
<g fill="#000000">
	<circle cx="141" cy="224" r="4"/>
</g>
<g fill="#000000">
	<circle cx="41" cy="124" r="4"/>
</g>
<g fill="#000000">
	<circle cx="78" cy="251" r="4"/>
</g>
<g fill="#000000">
	<circle cx="182" cy="282" r="4"/>
</g>
<g fill="#000000">
	<circle cx="59" cy="175" r="4"/>
</g>
<g fill="#000000">
	<circle cx="139" cy="32" r="4"/>
</g>
<g fill="#000000">
	<circle cx="83" cy="88" r="4"/>
</g>
<g fill="#000000">
	<circle cx="172" cy="134" r="4"/>
</g>
<g fill="#000000">
	<circle cx="112" cy="142" r="4"/>
</g>
<g fill="#000000">
	<circle cx="99" cy="197" r="4"/>
</g>
<g fill="#000000">
	<circle cx="4" cy="73" r="4"/>
</g>
<g fill="#000000">
	<circle cx="40" cy="294" r="4"/>
</g>
<g fill="#000000">
	<circle cx="4" cy="171" r="4"/>
</g>
<g fill="#000000">
	<circle cx="4" cy="230" r="4"/>
</g>
<g fill="#000000">
	<circle cx="179" cy="4" r="4"/>
</g>
<g fill="#000000">
	<circle cx="240" cy="286" r="4"/>
</g>
<g fill="#000000">
	<circle cx="394" cy="132" r="4"/>
</g>
<g fill="#000000">
	<circle cx="394" cy="181" r="4"/>
</g>
<g fill="#000000">
	<circle cx="351" cy="223" r="4"/>
</g>
<g fill="#000000">
	<circle cx="387" cy="269" r="4"/>
</g>
<g fill="#000000">
	<circle cx="281" cy="15" r="4"/>
</g>
<g fill="#000000">
	<circle cx="367" cy="75" r="4"/>
</g>
<g fill="#000000">
	<circle cx="394" cy="26" r="4"/>
</g>

</g>

</svg>
