<?xml version="1.0" encoding="utf-8"?>
<!-- Created with Hypercube (http://tumic.wz.cz/hypercube) -->

<svg width="400" height="300" viewBox="0 0 400 300" xmlns="http://www.w3.org/2000/svg" baseProfile="tiny">

<g font-family="Helvetica" font-weight="normal">

<g>
	<polygon points="207,186 204,178 213,179" fill="#aaff00"/>
	<line x1="225" y1="76" x2="208" y2="179" stroke="#aaff00" stroke-width="2"/>
</g>
<g>
	<polygon points="183,163 183,154 191,158" fill="#aaff00"/>
	<line x1="225" y1="76" x2="186" y2="157" stroke="#aaff00" stroke-width="2"/>
</g>
<g>
	<polygon points="99,225 101,216 108,222" fill="#aaff00"/>
	<line x1="225" y1="76" x2="104" y2="220" stroke="#aaff00" stroke-width="2"/>
</g>
<g>
	<polygon points="258,177 251,171 260,168" fill="#aaff00"/>
	<line x1="225" y1="76" x2="256" y2="170" stroke="#aaff00" stroke-width="2"/>
</g>
<g>
	<polygon points="103,106 109,100 112,109" fill="#aaff00"/>
	<line x1="225" y1="76" x2="110" y2="105" stroke="#aaff00" stroke-width="2"/>
</g>
<g>
	<polygon points="206,158 204,150 213,151" fill="#aaff00"/>
	<line x1="225" y1="76" x2="208" y2="151" stroke="#aaff00" stroke-width="2"/>
</g>
<g>
	<polygon points="284,212 276,207 285,203" fill="#aaff00"/>
	<line x1="225" y1="76" x2="281" y2="206" stroke="#aaff00" stroke-width="2"/>
</g>
<g>
	<polygon points="102,140 107,133 111,141" fill="#aaff00"/>
	<line x1="225" y1="76" x2="109" y2="137" stroke="#aaff00" stroke-width="2"/>
</g>
<g>
	<polygon points="123,155 126,146 132,153" fill="#aaff00"/>
	<line x1="225" y1="76" x2="129" y2="150" stroke="#aaff00" stroke-width="2"/>
</g>
<g>
	<polygon points="275,198 268,193 276,189" fill="#aaff00"/>
	<line x1="225" y1="76" x2="272" y2="192" stroke="#aaff00" stroke-width="2"/>
</g>
<g>
	<polygon points="182,127 184,118 191,124" fill="#aaff00"/>
	<line x1="225" y1="76" x2="187" y2="121" stroke="#aaff00" stroke-width="2"/>
</g>
<g>
	<polygon points="171,89 177,83 180,92" fill="#aaff00"/>
	<line x1="225" y1="76" x2="178" y2="88" stroke="#aaff00" stroke-width="2"/>
</g>
<g>
	<polygon points="100,21 109,20 105,29" fill="#aaff00"/>
	<line x1="225" y1="76" x2="106" y2="24" stroke="#aaff00" stroke-width="2"/>
</g>
<g>
	<polygon points="143,145 146,136 152,143" fill="#aaff00"/>
	<line x1="225" y1="76" x2="148" y2="140" stroke="#aaff00" stroke-width="2"/>
</g>
<g>
	<polygon points="302,224 295,219 303,215" fill="#aaff00"/>
	<line x1="225" y1="76" x2="299" y2="217" stroke="#aaff00" stroke-width="2"/>
</g>
<g>
	<polygon points="101,55 109,52 108,61" fill="#aaff00"/>
	<line x1="225" y1="76" x2="108" y2="56" stroke="#aaff00" stroke-width="2"/>
</g>
<g>
	<polygon points="185,171 194,173 188,179" fill="#aaff00"/>
	<line x1="207" y1="191" x2="190" y2="175" stroke="#aaff00" stroke-width="2"/>
</g>
<g>
	<polygon points="178,170 174,178 169,171" fill="#aaff00"/>
	<line x1="97" y1="229" x2="172" y2="174" stroke="#aaff00" stroke-width="2"/>
</g>
<g>
	<polygon points="97,224 92,216 101,216" fill="#aaff00"/>
	<line x1="99" y1="108" x2="97" y2="217" stroke="#aaff00" stroke-width="2"/>
</g>
<g>
	<polygon points="206,186 202,178 211,178" fill="#aaff00"/>
	<line x1="205" y1="138" x2="206" y2="179" stroke="#aaff00" stroke-width="2"/>
</g>
<g>
	<polygon points="184,164 185,155 193,160" fill="#aaff00"/>
	<line x1="205" y1="138" x2="189" y2="158" stroke="#aaff00" stroke-width="2"/>
</g>
<g>
	<polygon points="100,226 103,217 109,224" fill="#aaff00"/>
	<line x1="205" y1="138" x2="105" y2="221" stroke="#aaff00" stroke-width="2"/>
</g>
<g>
	<polygon points="256,179 247,177 253,170" fill="#aaff00"/>
	<line x1="205" y1="138" x2="250" y2="174" stroke="#aaff00" stroke-width="2"/>
</g>
<g>
	<polygon points="103,109 112,107 109,115" fill="#aaff00"/>
	<line x1="205" y1="138" x2="110" y2="111" stroke="#aaff00" stroke-width="2"/>
</g>
<g>
	<polygon points="205,158 201,150 210,150" fill="#aaff00"/>
	<line x1="205" y1="138" x2="205" y2="151" stroke="#aaff00" stroke-width="2"/>
</g>
<g>
	<polygon points="282,213 274,211 280,205" fill="#aaff00"/>
	<line x1="205" y1="138" x2="277" y2="208" stroke="#aaff00" stroke-width="2"/>
</g>
<g>
	<polygon points="103,142 111,137 111,146" fill="#aaff00"/>
	<line x1="205" y1="138" x2="110" y2="142" stroke="#aaff00" stroke-width="2"/>
</g>
<g>
	<polygon points="273,199 264,198 270,191" fill="#aaff00"/>
	<line x1="205" y1="138" x2="268" y2="195" stroke="#aaff00" stroke-width="2"/>
</g>
<g>
	<polygon points="184,132 193,129 190,138" fill="#aaff00"/>
	<line x1="205" y1="138" x2="191" y2="134" stroke="#aaff00" stroke-width="2"/>
</g>
<g>
	<polygon points="144,147 151,141 152,150" fill="#aaff00"/>
	<line x1="205" y1="138" x2="151" y2="146" stroke="#aaff00" stroke-width="2"/>
</g>
<g>
	<polygon points="301,224 292,223 298,216" fill="#aaff00"/>
	<line x1="205" y1="138" x2="296" y2="220" stroke="#aaff00" stroke-width="2"/>
</g>
<g>
	<polygon points="211,190 218,185 219,194" fill="#aaff00"/>
	<line x1="235" y1="189" x2="218" y2="190" stroke="#aaff00" stroke-width="2"/>
</g>
<g>
	<polygon points="186,169 195,168 191,176" fill="#aaff00"/>
	<line x1="235" y1="189" x2="192" y2="172" stroke="#aaff00" stroke-width="2"/>
</g>
<g>
	<polygon points="101,227 107,221 110,229" fill="#aaff00"/>
	<line x1="235" y1="189" x2="108" y2="225" stroke="#aaff00" stroke-width="2"/>
</g>
<g>
	<polygon points="255,183 249,189 246,180" fill="#aaff00"/>
	<line x1="235" y1="189" x2="248" y2="185" stroke="#aaff00" stroke-width="2"/>
</g>
<g>
	<polygon points="209,166 218,167 212,174" fill="#aaff00"/>
	<line x1="235" y1="189" x2="214" y2="170" stroke="#aaff00" stroke-width="2"/>
</g>
<g>
	<polygon points="282,214 273,215 277,207" fill="#aaff00"/>
	<line x1="235" y1="189" x2="275" y2="211" stroke="#aaff00" stroke-width="2"/>
</g>
<g>
	<polygon points="186,167 193,161 194,169" fill="#aaff00"/>
	<line x1="206" y1="163" x2="193" y2="165" stroke="#aaff00" stroke-width="2"/>
</g>
<g>
	<polygon points="202,191 195,197 194,189" fill="#aaff00"/>
	<line x1="174" y1="198" x2="195" y2="193" stroke="#aaff00" stroke-width="2"/>
</g>
<g>
	<polygon points="101,227 106,220 110,228" fill="#aaff00"/>
	<line x1="174" y1="198" x2="107" y2="224" stroke="#aaff00" stroke-width="2"/>
</g>
<g>
	<polygon points="202,166 201,175 194,169" fill="#aaff00"/>
	<line x1="174" y1="198" x2="198" y2="171" stroke="#aaff00" stroke-width="2"/>
</g>
<g>
	<polygon points="102,145 111,146 106,153" fill="#aaff00"/>
	<line x1="174" y1="198" x2="108" y2="149" stroke="#aaff00" stroke-width="2"/>
</g>
<g>
	<polygon points="123,160 132,161 127,168" fill="#aaff00"/>
	<line x1="174" y1="198" x2="129" y2="164" stroke="#aaff00" stroke-width="2"/>
</g>
<g>
	<polygon points="272,202 264,206 264,197" fill="#aaff00"/>
	<line x1="174" y1="198" x2="265" y2="202" stroke="#aaff00" stroke-width="2"/>
</g>
<g>
	<polygon points="179,135 183,143 174,142" fill="#aaff00"/>
	<line x1="174" y1="198" x2="178" y2="142" stroke="#aaff00" stroke-width="2"/>
</g>
<g>
	<polygon points="300,226 292,229 294,220" fill="#aaff00"/>
	<line x1="174" y1="198" x2="293" y2="225" stroke="#aaff00" stroke-width="2"/>
</g>
<g>
	<polygon points="97,224 92,216 101,216" fill="#aaff00"/>
	<line x1="99" y1="143" x2="97" y2="217" stroke="#aaff00" stroke-width="2"/>
</g>
<g>
	<polygon points="177,167 169,170 170,161" fill="#aaff00"/>
	<line x1="120" y1="158" x2="170" y2="166" stroke="#aaff00" stroke-width="2"/>
</g>
<g>
	<polygon points="98,224 96,215 105,218" fill="#aaff00"/>
	<line x1="120" y1="158" x2="100" y2="217" stroke="#aaff00" stroke-width="2"/>
</g>
<g>
	<polygon points="102,145 111,146 106,153" fill="#aaff00"/>
	<line x1="120" y1="158" x2="108" y2="149" stroke="#aaff00" stroke-width="2"/>
</g>
<g>
	<polygon points="102,140 106,131 111,139" fill="#aaff00"/>
	<line x1="167" y1="91" x2="108" y2="135" stroke="#aaff00" stroke-width="2"/>
</g>
<g>
	<polygon points="122,154 123,145 130,150" fill="#aaff00"/>
	<line x1="167" y1="91" x2="126" y2="148" stroke="#aaff00" stroke-width="2"/>
</g>
<g>
	<polygon points="207,186 202,178 211,178" fill="#aaff00"/>
	<line x1="210" y1="94" x2="207" y2="179" stroke="#aaff00" stroke-width="2"/>
</g>
<g>
	<polygon points="99,225 101,216 108,222" fill="#aaff00"/>
	<line x1="210" y1="94" x2="104" y2="220" stroke="#aaff00" stroke-width="2"/>
</g>
<g>
	<polygon points="257,178 250,173 257,169" fill="#aaff00"/>
	<line x1="210" y1="94" x2="254" y2="171" stroke="#aaff00" stroke-width="2"/>
</g>
<g>
	<polygon points="103,141 108,133 112,142" fill="#aaff00"/>
	<line x1="210" y1="94" x2="109" y2="138" stroke="#aaff00" stroke-width="2"/>
</g>
<g>
	<polygon points="123,155 127,147 132,154" fill="#aaff00"/>
	<line x1="210" y1="94" x2="129" y2="151" stroke="#aaff00" stroke-width="2"/>
</g>
<g>
	<polygon points="274,199 266,194 274,190" fill="#aaff00"/>
	<line x1="210" y1="94" x2="270" y2="193" stroke="#aaff00" stroke-width="2"/>
</g>
<g>
	<polygon points="182,127 184,118 191,124" fill="#aaff00"/>
	<line x1="210" y1="94" x2="187" y2="121" stroke="#aaff00" stroke-width="2"/>
</g>
<g>
	<polygon points="171,91 179,87 178,96" fill="#aaff00"/>
	<line x1="210" y1="94" x2="178" y2="91" stroke="#aaff00" stroke-width="2"/>
</g>
<g>
	<polygon points="302,224 294,220 301,215" fill="#aaff00"/>
	<line x1="210" y1="94" x2="298" y2="218" stroke="#aaff00" stroke-width="2"/>
</g>
<g>
	<polygon points="151,120 156,112 160,121" fill="#aaff00"/>
	<line x1="210" y1="94" x2="157" y2="117" stroke="#aaff00" stroke-width="2"/>
</g>
<g>
	<polygon points="102,84 110,80 109,89" fill="#aaff00"/>
	<line x1="210" y1="94" x2="109" y2="85" stroke="#aaff00" stroke-width="2"/>
</g>
<g>
	<polygon points="101,228 108,222 109,231" fill="#aaff00"/>
	<line x1="277" y1="203" x2="108" y2="227" stroke="#aaff00" stroke-width="2"/>
</g>
<g>
	<polygon points="283,213 275,209 283,204" fill="#aaff00"/>
	<line x1="277" y1="203" x2="279" y2="207" stroke="#aaff00" stroke-width="2"/>
</g>
<g>
	<polygon points="101,228 108,223 109,232" fill="#aaff00"/>
	<line x1="286" y1="217" x2="108" y2="228" stroke="#aaff00" stroke-width="2"/>
</g>
<g>
	<polygon points="186,169 195,169 191,177" fill="#aaff00"/>
	<line x1="305" y1="228" x2="192" y2="173" stroke="#aaff00" stroke-width="2"/>
</g>
<g>
	<polygon points="101,228 109,224 109,233" fill="#aaff00"/>
	<line x1="305" y1="228" x2="108" y2="228" stroke="#aaff00" stroke-width="2"/>
</g>
<g>
	<polygon points="289,219 298,219 294,227" fill="#aaff00"/>
	<line x1="305" y1="228" x2="296" y2="222" stroke="#aaff00" stroke-width="2"/>
</g>
<g>
	<polygon points="280,205 289,207 283,214" fill="#aaff00"/>
	<line x1="305" y1="228" x2="285" y2="210" stroke="#aaff00" stroke-width="2"/>
</g>
<g>
	<polygon points="203,193 199,201 194,193" fill="#aaff00"/>
	<line x1="96" y1="264" x2="197" y2="197" stroke="#aaff00" stroke-width="2"/>
</g>
<g>
	<polygon points="96,233 101,241 92,241" fill="#aaff00"/>
	<line x1="96" y1="264" x2="96" y2="240" stroke="#aaff00" stroke-width="2"/>
</g>
<g>
	<polygon points="98,147 103,155 94,155" fill="#aaff00"/>
	<line x1="96" y1="264" x2="98" y2="154" stroke="#aaff00" stroke-width="2"/>
</g>
<g>
	<polygon points="300,228 293,234 292,225" fill="#aaff00"/>
	<line x1="96" y1="264" x2="293" y2="229" stroke="#aaff00" stroke-width="2"/>
</g>
<g>
	<polygon points="202,192 197,199 193,191" fill="#aaff00"/>
	<line x1="140" y1="216" x2="196" y2="195" stroke="#aaff00" stroke-width="2"/>
</g>
<g>
	<polygon points="179,171 177,180 170,174" fill="#aaff00"/>
	<line x1="140" y1="216" x2="174" y2="176" stroke="#aaff00" stroke-width="2"/>
</g>
<g>
	<polygon points="101,227 107,221 110,229" fill="#aaff00"/>
	<line x1="140" y1="216" x2="108" y2="225" stroke="#aaff00" stroke-width="2"/>
</g>
<g>
	<polygon points="255,183 249,189 246,181" fill="#aaff00"/>
	<line x1="140" y1="216" x2="248" y2="185" stroke="#aaff00" stroke-width="2"/>
</g>
<g>
	<polygon points="101,146 108,151 101,155" fill="#aaff00"/>
	<line x1="140" y1="216" x2="104" y2="153" stroke="#aaff00" stroke-width="2"/>
</g>
<g>
	<polygon points="300,227 292,231 293,222" fill="#aaff00"/>
	<line x1="140" y1="216" x2="293" y2="227" stroke="#aaff00" stroke-width="2"/>
</g>
<g>
	<polygon points="203,188 194,186 200,179" fill="#aaff00"/>
	<line x1="162" y1="151" x2="198" y2="183" stroke="#aaff00" stroke-width="2"/>
</g>
<g>
	<polygon points="178,165 169,163 175,156" fill="#aaff00"/>
	<line x1="162" y1="151" x2="173" y2="160" stroke="#aaff00" stroke-width="2"/>
</g>
<g>
	<polygon points="99,225 101,216 108,222" fill="#aaff00"/>
	<line x1="162" y1="151" x2="104" y2="220" stroke="#aaff00" stroke-width="2"/>
</g>
<g>
	<polygon points="102,110 111,111 106,118" fill="#aaff00"/>
	<line x1="162" y1="151" x2="108" y2="114" stroke="#aaff00" stroke-width="2"/>
</g>
<g>
	<polygon points="103,143 111,140 110,149" fill="#aaff00"/>
	<line x1="162" y1="151" x2="110" y2="144" stroke="#aaff00" stroke-width="2"/>
</g>
<g>
	<polygon points="124,157 131,151 132,160" fill="#aaff00"/>
	<line x1="162" y1="151" x2="131" y2="156" stroke="#aaff00" stroke-width="2"/>
</g>
<g>
	<polygon points="176,134 175,143 168,137" fill="#aaff00"/>
	<line x1="162" y1="151" x2="172" y2="139" stroke="#aaff00" stroke-width="2"/>
</g>
<g>
	<polygon points="144,148 152,145 151,154" fill="#aaff00"/>
	<line x1="162" y1="151" x2="151" y2="149" stroke="#aaff00" stroke-width="2"/>
</g>
<g>
	<polygon points="301,225 292,226 296,218" fill="#aaff00"/>
	<line x1="162" y1="151" x2="294" y2="222" stroke="#aaff00" stroke-width="2"/>
</g>
<g>
	<polygon points="149,125 156,130 148,134" fill="#aaff00"/>
	<line x1="162" y1="151" x2="152" y2="132" stroke="#aaff00" stroke-width="2"/>
</g>
<g>
	<polygon points="101,87 109,89 103,95" fill="#aaff00"/>
	<line x1="162" y1="151" x2="106" y2="92" stroke="#aaff00" stroke-width="2"/>
</g>
<g>
	<polygon points="99,225 101,216 108,222" fill="#aaff00"/>
	<line x1="180" y1="131" x2="104" y2="220" stroke="#aaff00" stroke-width="2"/>
</g>
<g>
	<polygon points="103,142 110,136 111,145" fill="#aaff00"/>
	<line x1="180" y1="131" x2="110" y2="141" stroke="#aaff00" stroke-width="2"/>
</g>
<g>
	<polygon points="206,186 202,178 211,178" fill="#aaff00"/>
	<line x1="205" y1="114" x2="206" y2="179" stroke="#aaff00" stroke-width="2"/>
</g>
<g>
	<polygon points="183,163 182,154 190,158" fill="#aaff00"/>
	<line x1="205" y1="114" x2="186" y2="157" stroke="#aaff00" stroke-width="2"/>
</g>
<g>
	<polygon points="100,225 102,216 108,223" fill="#aaff00"/>
	<line x1="205" y1="114" x2="105" y2="220" stroke="#aaff00" stroke-width="2"/>
</g>
<g>
	<polygon points="257,178 248,175 255,169" fill="#aaff00"/>
	<line x1="205" y1="114" x2="252" y2="172" stroke="#aaff00" stroke-width="2"/>
</g>
<g>
	<polygon points="205,158 201,150 210,150" fill="#aaff00"/>
	<line x1="205" y1="114" x2="205" y2="151" stroke="#aaff00" stroke-width="2"/>
</g>
<g>
	<polygon points="103,141 109,135 112,144" fill="#aaff00"/>
	<line x1="205" y1="114" x2="110" y2="139" stroke="#aaff00" stroke-width="2"/>
</g>
<g>
	<polygon points="123,155 128,148 132,156" fill="#aaff00"/>
	<line x1="205" y1="114" x2="130" y2="152" stroke="#aaff00" stroke-width="2"/>
</g>
<g>
	<polygon points="274,199 265,196 272,190" fill="#aaff00"/>
	<line x1="205" y1="114" x2="269" y2="193" stroke="#aaff00" stroke-width="2"/>
</g>
<g>
	<polygon points="183,128 187,120 192,127" fill="#aaff00"/>
	<line x1="205" y1="114" x2="189" y2="124" stroke="#aaff00" stroke-width="2"/>
</g>
<g>
	<polygon points="170,93 179,93 175,101" fill="#aaff00"/>
	<line x1="205" y1="114" x2="177" y2="97" stroke="#aaff00" stroke-width="2"/>
</g>
<g>
	<polygon points="302,224 293,221 300,215" fill="#aaff00"/>
	<line x1="205" y1="114" x2="297" y2="219" stroke="#aaff00" stroke-width="2"/>
</g>
<g>
	<polygon points="102,85 111,82 108,91" fill="#aaff00"/>
	<line x1="205" y1="114" x2="109" y2="87" stroke="#aaff00" stroke-width="2"/>
</g>
<g>
	<polygon points="97,224 92,216 101,216" fill="#aaff00"/>
	<line x1="98" y1="84" x2="97" y2="217" stroke="#aaff00" stroke-width="2"/>
</g>
<g>
	<polygon points="98,138 94,130 103,130" fill="#aaff00"/>
	<line x1="98" y1="84" x2="98" y2="131" stroke="#aaff00" stroke-width="2"/>
</g>
<g>
	<polygon points="97,224 92,216 101,216" fill="#aaff00"/>
	<line x1="98" y1="188" x2="97" y2="217" stroke="#aaff00" stroke-width="2"/>
</g>
<g>
	<polygon points="98,147 103,155 94,155" fill="#aaff00"/>
	<line x1="98" y1="188" x2="98" y2="154" stroke="#aaff00" stroke-width="2"/>
</g>
<g>
	<polygon points="117,161 116,170 109,165" fill="#aaff00"/>
	<line x1="98" y1="188" x2="113" y2="167" stroke="#aaff00" stroke-width="2"/>
</g>
<g>
	<polygon points="98,88 102,96 93,96" fill="#aaff00"/>
	<line x1="98" y1="188" x2="98" y2="95" stroke="#aaff00" stroke-width="2"/>
</g>
<g>
	<polygon points="99,225 98,216 106,220" fill="#aaff00"/>
	<line x1="140" y1="148" x2="102" y2="218" stroke="#aaff00" stroke-width="2"/>
</g>
<g>
	<polygon points="103,143 111,140 110,148" fill="#aaff00"/>
	<line x1="140" y1="148" x2="110" y2="144" stroke="#aaff00" stroke-width="2"/>
</g>
<g>
	<polygon points="103,141 108,133 112,142" fill="#aaff00"/>
	<line x1="147" y1="122" x2="109" y2="138" stroke="#aaff00" stroke-width="2"/>
</g>
<g>
	<polygon points="204,194 205,203 197,199" fill="#aaff00"/>
	<line x1="195" y1="214" x2="201" y2="201" stroke="#aaff00" stroke-width="2"/>
</g>
<g>
	<polygon points="101,228 108,222 109,231" fill="#aaff00"/>
	<line x1="195" y1="214" x2="108" y2="227" stroke="#aaff00" stroke-width="2"/>
</g>
<g>
	<polygon points="255,183 250,191 246,183" fill="#aaff00"/>
	<line x1="195" y1="214" x2="249" y2="187" stroke="#aaff00" stroke-width="2"/>
</g>
<g>
	<polygon points="281,216 273,221 273,212" fill="#aaff00"/>
	<line x1="195" y1="214" x2="274" y2="216" stroke="#aaff00" stroke-width="2"/>
</g>
<g>
	<polygon points="102,145 111,146 106,153" fill="#aaff00"/>
	<line x1="195" y1="214" x2="108" y2="149" stroke="#aaff00" stroke-width="2"/>
</g>
<g>
	<polygon points="123,160 132,161 127,168" fill="#aaff00"/>
	<line x1="195" y1="214" x2="129" y2="164" stroke="#aaff00" stroke-width="2"/>
</g>
<g>
	<polygon points="272,203 265,209 264,200" fill="#aaff00"/>
	<line x1="195" y1="214" x2="265" y2="204" stroke="#aaff00" stroke-width="2"/>
</g>
<g>
	<polygon points="97,224 92,216 101,216" fill="#aaff00"/>
	<line x1="97" y1="55" x2="97" y2="217" stroke="#aaff00" stroke-width="2"/>
</g>
<g>
	<polygon points="98,138 94,130 103,130" fill="#aaff00"/>
	<line x1="97" y1="55" x2="98" y2="131" stroke="#aaff00" stroke-width="2"/>
</g>
<g>
	<polygon points="96,224 92,216 101,216" fill="#aaff00"/>
	<line x1="96" y1="20" x2="96" y2="217" stroke="#aaff00" stroke-width="2"/>
</g>
<g>
	<polygon points="205,195 206,204 197,200" fill="#aaff00"/>
	<line x1="169" y1="276" x2="202" y2="201" stroke="#aaff00" stroke-width="2"/>
</g>
<g>
	<polygon points="100,231 109,231 104,239" fill="#aaff00"/>
	<line x1="169" y1="276" x2="106" y2="235" stroke="#aaff00" stroke-width="2"/>
</g>
<g>
	<polygon points="218,281 210,285 211,276" fill="#aaff00"/>
	<line x1="169" y1="276" x2="211" y2="280" stroke="#aaff00" stroke-width="2"/>
</g>
<g>
	<polygon points="177,169 172,177 168,169" fill="#aaff00"/>
	<line x1="153" y1="182" x2="171" y2="173" stroke="#aaff00" stroke-width="2"/>
</g>

<g fill="#000000">
	<circle cx="224" cy="75" r="4"/>
</g>
<g fill="#000000">
	<circle cx="206" cy="190" r="4"/>
</g>
<g fill="#000000">
	<circle cx="181" cy="167" r="4"/>
</g>
<g fill="#000000">
	<circle cx="96" cy="228" r="4"/>
</g>
<g fill="#000000">
	<circle cx="259" cy="181" r="4"/>
</g>
<g fill="#000000">
	<circle cx="98" cy="107" r="4"/>
</g>
<g fill="#000000">
	<circle cx="205" cy="162" r="4"/>
</g>
<g fill="#000000">
	<circle cx="285" cy="216" r="4"/>
</g>
<g fill="#000000">
	<circle cx="98" cy="142" r="4"/>
</g>
<g fill="#000000">
	<circle cx="119" cy="157" r="4"/>
</g>
<g fill="#000000">
	<circle cx="276" cy="202" r="4"/>
</g>
<g fill="#000000">
	<circle cx="179" cy="130" r="4"/>
</g>
<g fill="#000000">
	<circle cx="166" cy="90" r="4"/>
</g>
<g fill="#000000">
	<circle cx="95" cy="19" r="4"/>
</g>
<g fill="#000000">
	<circle cx="139" cy="147" r="4"/>
</g>
<g fill="#000000">
	<circle cx="304" cy="227" r="4"/>
</g>
<g fill="#000000">
	<circle cx="96" cy="54" r="4"/>
</g>
<g fill="#000000">
	<circle cx="168" cy="275" r="4"/>
</g>
<g fill="#000000">
	<circle cx="222" cy="281" r="4"/>
</g>
<g fill="#000000">
	<circle cx="95" cy="263" r="4"/>
</g>
<g fill="#000000">
	<circle cx="204" cy="137" r="4"/>
</g>
<g fill="#000000">
	<circle cx="234" cy="188" r="4"/>
</g>
<g fill="#000000">
	<circle cx="139" cy="215" r="4"/>
</g>
<g fill="#000000">
	<circle cx="161" cy="150" r="4"/>
</g>
<g fill="#000000">
	<circle cx="146" cy="121" r="4"/>
</g>
<g fill="#000000">
	<circle cx="97" cy="83" r="4"/>
</g>
<g fill="#000000">
	<circle cx="209" cy="93" r="4"/>
</g>
<g fill="#000000">
	<circle cx="173" cy="197" r="4"/>
</g>
<g fill="#000000">
	<circle cx="204" cy="113" r="4"/>
</g>
<g fill="#000000">
	<circle cx="152" cy="181" r="4"/>
</g>
<g fill="#000000">
	<circle cx="97" cy="187" r="4"/>
</g>
<g fill="#000000">
	<circle cx="194" cy="213" r="4"/>
</g>

</g>

</svg>
