<?xml version="1.0" encoding="utf-8"?>
<!-- Created with Hypercube (http://tumic.wz.cz/hypercube) -->

<svg width="400" height="300" viewBox="0 0 400 300" xmlns="http://www.w3.org/2000/svg" baseProfile="tiny">

<g font-family="Helvetica" font-weight="normal">

<g>
	<polygon points="385,53 377,57 378,48" fill="#aaff00"/>
	<line x1="319" y1="48" x2="378" y2="53" stroke="#aaff00" stroke-width="2"/>
</g>
<g>
	<polygon points="294,8 302,13 294,17" fill="#aaff00"/>
	<line x1="319" y1="48" x2="298" y2="14" stroke="#aaff00" stroke-width="2"/>
</g>
<g>
	<polygon points="332,95 326,89 334,86" fill="#aaff00"/>
	<line x1="319" y1="48" x2="330" y2="88" stroke="#aaff00" stroke-width="2"/>
</g>
<g>
	<polygon points="340,8 340,17 333,13" fill="#aaff00"/>
	<line x1="319" y1="48" x2="337" y2="15" stroke="#aaff00" stroke-width="2"/>
</g>
<g>
	<polygon points="314,46 305,47 309,39" fill="#aaff00"/>
	<line x1="243" y1="16" x2="308" y2="43" stroke="#aaff00" stroke-width="2"/>
</g>
<g>
	<polygon points="240,106 232,102 239,97" fill="#aaff00"/>
	<line x1="198" y1="48" x2="236" y2="100" stroke="#aaff00" stroke-width="2"/>
</g>
<g>
	<polygon points="239,18 235,26 230,19" fill="#aaff00"/>
	<line x1="198" y1="48" x2="233" y2="22" stroke="#aaff00" stroke-width="2"/>
</g>
<g>
	<polygon points="130,61 137,55 138,64" fill="#aaff00"/>
	<line x1="198" y1="48" x2="137" y2="59" stroke="#aaff00" stroke-width="2"/>
</g>
<g>
	<polygon points="234,187 230,179 239,180" fill="#aaff00"/>
	<line x1="243" y1="110" x2="235" y2="180" stroke="#aaff00" stroke-width="2"/>
</g>
<g>
	<polygon points="237,195 245,198 238,204" fill="#aaff00"/>
	<line x1="291" y1="255" x2="241" y2="200" stroke="#aaff00" stroke-width="2"/>
</g>
<g>
	<polygon points="294,257 303,258 298,265" fill="#aaff00"/>
	<line x1="341" y1="292" x2="300" y2="261" stroke="#aaff00" stroke-width="2"/>
</g>
<g>
	<polygon points="344,289 349,281 353,289" fill="#aaff00"/>
	<line x1="393" y1="261" x2="351" y2="286" stroke="#aaff00" stroke-width="2"/>
</g>
<g>
	<polygon points="391,256 384,250 393,247" fill="#aaff00"/>
	<line x1="375" y1="207" x2="389" y2="249" stroke="#aaff00" stroke-width="2"/>
</g>
<g>
	<polygon points="317,192 326,189 323,198" fill="#aaff00"/>
	<line x1="375" y1="207" x2="324" y2="193" stroke="#aaff00" stroke-width="2"/>
</g>
<g>
	<polygon points="238,191 246,187 246,196" fill="#aaff00"/>
	<line x1="313" y1="191" x2="245" y2="191" stroke="#aaff00" stroke-width="2"/>
</g>
<g>
	<polygon points="231,188 223,184 230,179" fill="#aaff00"/>
	<line x1="167" y1="103" x2="226" y2="182" stroke="#aaff00" stroke-width="2"/>
</g>
<g>
	<polygon points="162,101 153,102 157,94" fill="#aaff00"/>
	<line x1="71" y1="65" x2="156" y2="98" stroke="#aaff00" stroke-width="2"/>
</g>
<g>
	<polygon points="30,100 33,91 39,98" fill="#aaff00"/>
	<line x1="71" y1="65" x2="35" y2="95" stroke="#aaff00" stroke-width="2"/>
</g>
<g>
	<polygon points="58,160 51,155 58,151" fill="#aaff00"/>
	<line x1="27" y1="103" x2="55" y2="153" stroke="#aaff00" stroke-width="2"/>
</g>
<g>
	<polygon points="57,166 52,173 48,165" fill="#aaff00"/>
	<line x1="8" y1="193" x2="50" y2="169" stroke="#aaff00" stroke-width="2"/>
</g>
<g>
	<polygon points="148,200 142,206 139,197" fill="#aaff00"/>
	<line x1="51" y1="224" x2="141" y2="201" stroke="#aaff00" stroke-width="2"/>
</g>
<g>
	<polygon points="11,195 20,196 15,203" fill="#aaff00"/>
	<line x1="51" y1="224" x2="17" y2="199" stroke="#aaff00" stroke-width="2"/>
</g>
<g>
	<polygon points="229,192 222,197 221,188" fill="#aaff00"/>
	<line x1="153" y1="199" x2="222" y2="193" stroke="#aaff00" stroke-width="2"/>
</g>
<g>
	<polygon points="63,160 63,151 71,156" fill="#aaff00"/>
	<line x1="126" y1="62" x2="67" y2="154" stroke="#aaff00" stroke-width="2"/>
</g>
<g>
	<polygon points="61,168 67,175 58,176" fill="#aaff00"/>
	<line x1="80" y1="274" x2="62" y2="175" stroke="#aaff00" stroke-width="2"/>
</g>
<g>
	<polygon points="84,275 93,273 90,282" fill="#aaff00"/>
	<line x1="141" y1="295" x2="91" y2="277" stroke="#aaff00" stroke-width="2"/>
</g>
<g>
	<polygon points="205,290 198,295 197,286" fill="#aaff00"/>
	<line x1="141" y1="295" x2="198" y2="290" stroke="#aaff00" stroke-width="2"/>
</g>
<g>
	<polygon points="232,196 235,205 226,202" fill="#aaff00"/>
	<line x1="210" y1="290" x2="231" y2="203" stroke="#aaff00" stroke-width="2"/>
</g>
<g>
	<polygon points="63,167 72,170 65,176" fill="#aaff00"/>
	<line x1="103" y1="212" x2="68" y2="172" stroke="#aaff00" stroke-width="2"/>
</g>
<g>
	<polygon points="216,238 209,244 208,235" fill="#aaff00"/>
	<line x1="166" y1="249" x2="209" y2="240" stroke="#aaff00" stroke-width="2"/>
</g>
<g>
	<polygon points="106,214 115,214 111,222" fill="#aaff00"/>
	<line x1="166" y1="249" x2="113" y2="217" stroke="#aaff00" stroke-width="2"/>
</g>
<g>
	<polygon points="232,196 234,205 226,202" fill="#aaff00"/>
	<line x1="221" y1="238" x2="230" y2="203" stroke="#aaff00" stroke-width="2"/>
</g>
<g>
	<polygon points="63,160 65,151 72,157" fill="#aaff00"/>
	<line x1="91" y1="128" x2="68" y2="155" stroke="#aaff00" stroke-width="2"/>
</g>
<g>
	<polygon points="194,154 186,157 187,148" fill="#aaff00"/>
	<line x1="140" y1="145" x2="187" y2="153" stroke="#aaff00" stroke-width="2"/>
</g>
<g>
	<polygon points="95,129 104,127 101,136" fill="#aaff00"/>
	<line x1="140" y1="145" x2="102" y2="131" stroke="#aaff00" stroke-width="2"/>
</g>
<g>
	<polygon points="230,188 222,186 228,179" fill="#aaff00"/>
	<line x1="199" y1="155" x2="225" y2="183" stroke="#aaff00" stroke-width="2"/>
</g>
<g>
	<polygon points="392,9 396,17 387,16" fill="#aaff00"/>
	<line x1="390" y1="54" x2="392" y2="16" stroke="#aaff00" stroke-width="2"/>
</g>

<g fill="#000000">
	<circle cx="318" cy="47" r="4"/>
</g>
<g fill="#000000">
	<circle cx="389" cy="53" r="4"/>
</g>
<g fill="#000000">
	<circle cx="291" cy="4" r="4"/>
</g>
<g fill="#000000">
	<circle cx="333" cy="99" r="4"/>
</g>
<g fill="#000000">
	<circle cx="342" cy="4" r="4"/>
</g>
<g fill="#000000">
	<circle cx="60" cy="163" r="4"/>
</g>
<g fill="#000000">
	<circle cx="392" cy="4" r="4"/>
</g>
<g fill="#000000">
	<circle cx="233" cy="191" r="4"/>
</g>
<g fill="#000000">
	<circle cx="340" cy="291" r="4"/>
</g>
<g fill="#000000">
	<circle cx="290" cy="254" r="4"/>
</g>
<g fill="#000000">
	<circle cx="374" cy="206" r="4"/>
</g>
<g fill="#000000">
	<circle cx="392" cy="260" r="4"/>
</g>
<g fill="#000000">
	<circle cx="312" cy="190" r="4"/>
</g>
<g fill="#000000">
	<circle cx="70" cy="64" r="4"/>
</g>
<g fill="#000000">
	<circle cx="166" cy="102" r="4"/>
</g>
<g fill="#000000">
	<circle cx="26" cy="102" r="4"/>
</g>
<g fill="#000000">
	<circle cx="50" cy="223" r="4"/>
</g>
<g fill="#000000">
	<circle cx="152" cy="198" r="4"/>
</g>
<g fill="#000000">
	<circle cx="7" cy="192" r="4"/>
</g>
<g fill="#000000">
	<circle cx="197" cy="47" r="4"/>
</g>
<g fill="#000000">
	<circle cx="242" cy="109" r="4"/>
</g>
<g fill="#000000">
	<circle cx="242" cy="15" r="4"/>
</g>
<g fill="#000000">
	<circle cx="125" cy="61" r="4"/>
</g>
<g fill="#000000">
	<circle cx="140" cy="294" r="4"/>
</g>
<g fill="#000000">
	<circle cx="79" cy="273" r="4"/>
</g>
<g fill="#000000">
	<circle cx="209" cy="289" r="4"/>
</g>
<g fill="#000000">
	<circle cx="165" cy="248" r="4"/>
</g>
<g fill="#000000">
	<circle cx="220" cy="237" r="4"/>
</g>
<g fill="#000000">
	<circle cx="102" cy="211" r="4"/>
</g>
<g fill="#000000">
	<circle cx="139" cy="144" r="4"/>
</g>
<g fill="#000000">
	<circle cx="198" cy="154" r="4"/>
</g>
<g fill="#000000">
	<circle cx="90" cy="127" r="4"/>
</g>

</g>

</svg>
