<?xml version="1.0" encoding="utf-8"?>
<!-- Created with Hypercube (http://tumic.wz.cz/hypercube) -->

<svg width="400" height="300" viewBox="0 0 400 300" xmlns="http://www.w3.org/2000/svg" baseProfile="tiny">

<g font-family="Helvetica" font-weight="normal">

<g>
	<polygon points="338,105 329,106 333,98" fill="#aaff00"/>
	<line x1="229" y1="60" x2="332" y2="102" stroke="#aaff00" stroke-width="2"/>
</g>
<g>
	<polygon points="273,35 268,42 264,35" fill="#aaff00"/>
	<line x1="229" y1="60" x2="266" y2="38" stroke="#aaff00" stroke-width="2"/>
</g>
<g>
	<polygon points="137,79 144,73 145,81" fill="#aaff00"/>
	<line x1="229" y1="60" x2="144" y2="77" stroke="#aaff00" stroke-width="2"/>
</g>
<g>
	<polygon points="176,10 185,12 178,18" fill="#aaff00"/>
	<line x1="229" y1="60" x2="181" y2="15" stroke="#aaff00" stroke-width="2"/>
</g>
<g>
	<polygon points="228,9 232,17 223,17" fill="#aaff00"/>
	<line x1="229" y1="60" x2="228" y2="16" stroke="#aaff00" stroke-width="2"/>
</g>
<g>
	<polygon points="265,82 256,82 260,74" fill="#aaff00"/>
	<line x1="229" y1="60" x2="259" y2="78" stroke="#aaff00" stroke-width="2"/>
</g>
<g>
	<polygon points="311,7 307,15 302,7" fill="#aaff00"/>
	<line x1="229" y1="60" x2="305" y2="11" stroke="#aaff00" stroke-width="2"/>
</g>
<g>
	<polygon points="369,159 361,154 369,150" fill="#aaff00"/>
	<line x1="343" y1="107" x2="365" y2="153" stroke="#aaff00" stroke-width="2"/>
</g>
<g>
	<polygon points="367,166 363,175 358,167" fill="#aaff00"/>
	<line x1="321" y1="202" x2="361" y2="171" stroke="#aaff00" stroke-width="2"/>
</g>
<g>
	<polygon points="316,201 308,205 309,196" fill="#aaff00"/>
	<line x1="242" y1="194" x2="309" y2="200" stroke="#aaff00" stroke-width="2"/>
</g>
<g>
	<polygon points="290,144 288,152 282,146" fill="#aaff00"/>
	<line x1="242" y1="194" x2="285" y2="149" stroke="#aaff00" stroke-width="2"/>
</g>
<g>
	<polygon points="112,211 119,205 120,214" fill="#aaff00"/>
	<line x1="242" y1="194" x2="119" y2="210" stroke="#aaff00" stroke-width="2"/>
</g>
<g>
	<polygon points="233,139 239,146 230,147" fill="#aaff00"/>
	<line x1="242" y1="194" x2="234" y2="146" stroke="#aaff00" stroke-width="2"/>
</g>
<g>
	<polygon points="328,60 329,69 321,65" fill="#aaff00"/>
	<line x1="294" y1="141" x2="325" y2="66" stroke="#aaff00" stroke-width="2"/>
</g>
<g>
	<polygon points="316,9 322,15 314,18" fill="#aaff00"/>
	<line x1="330" y1="56" x2="318" y2="16" stroke="#aaff00" stroke-width="2"/>
</g>
<g>
	<polygon points="325,54 316,55 320,46" fill="#aaff00"/>
	<line x1="277" y1="33" x2="319" y2="51" stroke="#aaff00" stroke-width="2"/>
</g>
<g>
	<polygon points="46,150 54,152 48,158" fill="#aaff00"/>
	<line x1="108" y1="212" x2="51" y2="155" stroke="#aaff00" stroke-width="2"/>
</g>
<g>
	<polygon points="46,144 50,136 55,143" fill="#aaff00"/>
	<line x1="133" y1="80" x2="52" y2="140" stroke="#aaff00" stroke-width="2"/>
</g>
<g>
	<polygon points="46,150 54,152 48,158" fill="#aaff00"/>
	<line x1="73" y1="176" x2="51" y2="155" stroke="#aaff00" stroke-width="2"/>
</g>
<g>
	<polygon points="179,181 170,183 173,175" fill="#aaff00"/>
	<line x1="124" y1="165" x2="172" y2="179" stroke="#aaff00" stroke-width="2"/>
</g>
<g>
	<polygon points="77,175 84,169 85,177" fill="#aaff00"/>
	<line x1="124" y1="165" x2="84" y2="173" stroke="#aaff00" stroke-width="2"/>
</g>
<g>
	<polygon points="175,114 173,122 167,116" fill="#aaff00"/>
	<line x1="124" y1="165" x2="170" y2="119" stroke="#aaff00" stroke-width="2"/>
</g>
<g>
	<polygon points="237,193 229,196 230,187" fill="#aaff00"/>
	<line x1="184" y1="183" x2="230" y2="191" stroke="#aaff00" stroke-width="2"/>
</g>
<g>
	<polygon points="225,63 223,71 217,65" fill="#aaff00"/>
	<line x1="179" y1="111" x2="220" y2="68" stroke="#aaff00" stroke-width="2"/>
</g>
<g>
	<polygon points="122,160 115,154 124,151" fill="#aaff00"/>
	<line x1="83" y1="49" x2="120" y2="153" stroke="#aaff00" stroke-width="2"/>
</g>
<g>
	<polygon points="79,45 71,43 77,36" fill="#aaff00"/>
	<line x1="42" y1="6" x2="74" y2="40" stroke="#aaff00" stroke-width="2"/>
</g>
<g>
	<polygon points="120,167 117,176 111,169" fill="#aaff00"/>
	<line x1="43" y1="234" x2="115" y2="172" stroke="#aaff00" stroke-width="2"/>
</g>
<g>
	<polygon points="42,238 44,246 36,245" fill="#aaff00"/>
	<line x1="30" y1="295" x2="40" y2="245" stroke="#aaff00" stroke-width="2"/>
</g>
<g>
	<polygon points="126,168 134,172 127,177" fill="#aaff00"/>
	<line x1="181" y1="244" x2="130" y2="174" stroke="#aaff00" stroke-width="2"/>
</g>
<g>
	<polygon points="183,247 190,252 182,256" fill="#aaff00"/>
	<line x1="208" y1="295" x2="186" y2="254" stroke="#aaff00" stroke-width="2"/>
</g>
<g>
	<polygon points="121,161 112,158 119,152" fill="#aaff00"/>
	<line x1="80" y1="110" x2="116" y2="155" stroke="#aaff00" stroke-width="2"/>
</g>
<g>
	<polygon points="76,107 67,108 71,100" fill="#aaff00"/>
	<line x1="30" y1="83" x2="69" y2="104" stroke="#aaff00" stroke-width="2"/>
</g>
<g>
	<polygon points="124,169 128,177 119,177" fill="#aaff00"/>
	<line x1="125" y1="258" x2="124" y2="176" stroke="#aaff00" stroke-width="2"/>
</g>
<g>
	<polygon points="122,261 121,270 114,265" fill="#aaff00"/>
	<line x1="98" y1="295" x2="118" y2="267" stroke="#aaff00" stroke-width="2"/>
</g>
<g>
	<polygon points="229,64 234,72 225,72" fill="#aaff00"/>
	<line x1="233" y1="135" x2="229" y2="71" stroke="#aaff00" stroke-width="2"/>
</g>
<g>
	<polygon points="244,197 252,201 245,206" fill="#aaff00"/>
	<line x1="283" y1="254" x2="248" y2="203" stroke="#aaff00" stroke-width="2"/>
</g>
<g>
	<polygon points="286,257 294,259 288,265" fill="#aaff00"/>
	<line x1="324" y1="295" x2="291" y2="262" stroke="#aaff00" stroke-width="2"/>
</g>

<g fill="#000000">
	<circle cx="228" cy="59" r="4"/>
</g>
<g fill="#000000">
	<circle cx="342" cy="106" r="4"/>
</g>
<g fill="#000000">
	<circle cx="276" cy="32" r="4"/>
</g>
<g fill="#000000">
	<circle cx="132" cy="79" r="4"/>
</g>
<g fill="#000000">
	<circle cx="172" cy="6" r="4"/>
</g>
<g fill="#000000">
	<circle cx="227" cy="4" r="4"/>
</g>
<g fill="#000000">
	<circle cx="268" cy="84" r="4"/>
</g>
<g fill="#000000">
	<circle cx="329" cy="55" r="4"/>
</g>
<g fill="#000000">
	<circle cx="314" cy="4" r="4"/>
</g>
<g fill="#000000">
	<circle cx="370" cy="163" r="4"/>
</g>
<g fill="#000000">
	<circle cx="42" cy="146" r="4"/>
</g>
<g fill="#000000">
	<circle cx="241" cy="193" r="4"/>
</g>
<g fill="#000000">
	<circle cx="320" cy="201" r="4"/>
</g>
<g fill="#000000">
	<circle cx="293" cy="140" r="4"/>
</g>
<g fill="#000000">
	<circle cx="107" cy="211" r="4"/>
</g>
<g fill="#000000">
	<circle cx="232" cy="134" r="4"/>
</g>
<g fill="#000000">
	<circle cx="123" cy="164" r="4"/>
</g>
<g fill="#000000">
	<circle cx="183" cy="182" r="4"/>
</g>
<g fill="#000000">
	<circle cx="72" cy="175" r="4"/>
</g>
<g fill="#000000">
	<circle cx="178" cy="110" r="4"/>
</g>
<g fill="#000000">
	<circle cx="41" cy="5" r="4"/>
</g>
<g fill="#000000">
	<circle cx="82" cy="48" r="4"/>
</g>
<g fill="#000000">
	<circle cx="323" cy="294" r="4"/>
</g>
<g fill="#000000">
	<circle cx="282" cy="253" r="4"/>
</g>
<g fill="#000000">
	<circle cx="29" cy="294" r="4"/>
</g>
<g fill="#000000">
	<circle cx="42" cy="233" r="4"/>
</g>
<g fill="#000000">
	<circle cx="207" cy="294" r="4"/>
</g>
<g fill="#000000">
	<circle cx="180" cy="243" r="4"/>
</g>
<g fill="#000000">
	<circle cx="29" cy="82" r="4"/>
</g>
<g fill="#000000">
	<circle cx="79" cy="109" r="4"/>
</g>
<g fill="#000000">
	<circle cx="97" cy="294" r="4"/>
</g>
<g fill="#000000">
	<circle cx="124" cy="257" r="4"/>
</g>

</g>

</svg>
