<?xml version="1.0" encoding="utf-8"?>
<!-- Created with Hypercube (http://tumic.wz.cz/hypercube) -->

<svg width="400" height="300" viewBox="0 0 400 300" xmlns="http://www.w3.org/2000/svg" baseProfile="tiny">

<g font-family="Helvetica" font-weight="normal">

<g>
	<polygon points="194,256 202,261 194,265" fill="#aaff00"/>
	<line x1="217" y1="295" x2="197" y2="263" stroke="#aaff00" stroke-width="2"/>
</g>
<g>
	<polygon points="156,218 164,220 158,226" fill="#aaff00"/>
	<line x1="192" y1="253" x2="161" y2="223" stroke="#aaff00" stroke-width="2"/>
</g>
<g>
	<polygon points="222,217 220,226 213,220" fill="#aaff00"/>
	<line x1="192" y1="253" x2="217" y2="222" stroke="#aaff00" stroke-width="2"/>
</g>
<g>
	<polygon points="127,273 126,264 134,268" fill="#aaff00"/>
	<line x1="153" y1="215" x2="130" y2="267" stroke="#aaff00" stroke-width="2"/>
</g>
<g>
	<polygon points="192,174 190,182 184,176" fill="#aaff00"/>
	<line x1="153" y1="215" x2="187" y2="179" stroke="#aaff00" stroke-width="2"/>
</g>
<g>
	<polygon points="143,148 149,155 140,156" fill="#aaff00"/>
	<line x1="153" y1="215" x2="144" y2="155" stroke="#aaff00" stroke-width="2"/>
</g>
<g>
	<polygon points="198,174 206,178 199,183" fill="#aaff00"/>
	<line x1="225" y1="214" x2="202" y2="180" stroke="#aaff00" stroke-width="2"/>
</g>
<g>
	<polygon points="226,209 226,200 234,204" fill="#aaff00"/>
	<line x1="251" y1="160" x2="230" y2="203" stroke="#aaff00" stroke-width="2"/>
</g>
<g>
	<polygon points="207,57 214,62 206,66" fill="#aaff00"/>
	<line x1="251" y1="160" x2="210" y2="63" stroke="#aaff00" stroke-width="2"/>
</g>
<g>
	<polygon points="290,179 281,179 285,171" fill="#aaff00"/>
	<line x1="251" y1="160" x2="284" y2="175" stroke="#aaff00" stroke-width="2"/>
</g>
<g>
	<polygon points="339,114 334,121 330,113" fill="#aaff00"/>
	<line x1="251" y1="160" x2="332" y2="117" stroke="#aaff00" stroke-width="2"/>
</g>
<g>
	<polygon points="97,188 104,182 105,191" fill="#aaff00"/>
	<line x1="251" y1="160" x2="104" y2="186" stroke="#aaff00" stroke-width="2"/>
</g>
<g>
	<polygon points="232,8 232,17 224,13" fill="#aaff00"/>
	<line x1="206" y1="53" x2="228" y2="15" stroke="#aaff00" stroke-width="2"/>
</g>
<g>
	<polygon points="170,8 179,11 172,17" fill="#aaff00"/>
	<line x1="206" y1="53" x2="175" y2="14" stroke="#aaff00" stroke-width="2"/>
</g>
<g>
	<polygon points="144,139 143,130 151,134" fill="#aaff00"/>
	<line x1="167" y1="87" x2="147" y2="133" stroke="#aaff00" stroke-width="2"/>
</g>
<g>
	<polygon points="97,54 106,54 102,62" fill="#aaff00"/>
	<line x1="167" y1="87" x2="103" y2="57" stroke="#aaff00" stroke-width="2"/>
</g>
<g>
	<polygon points="202,55 199,64 193,57" fill="#aaff00"/>
	<line x1="167" y1="87" x2="197" y2="60" stroke="#aaff00" stroke-width="2"/>
</g>
<g>
	<polygon points="70,8 77,13 69,17" fill="#aaff00"/>
	<line x1="93" y1="53" x2="73" y2="15" stroke="#aaff00" stroke-width="2"/>
</g>
<g>
	<polygon points="31,54 39,50 39,59" fill="#aaff00"/>
	<line x1="93" y1="53" x2="38" y2="54" stroke="#aaff00" stroke-width="2"/>
</g>
<g>
	<polygon points="285,54 287,62 279,61" fill="#aaff00"/>
	<line x1="276" y1="99" x2="283" y2="61" stroke="#aaff00" stroke-width="2"/>
</g>
<g>
	<polygon points="236,103 243,98 244,107" fill="#aaff00"/>
	<line x1="276" y1="99" x2="243" y2="102" stroke="#aaff00" stroke-width="2"/>
</g>
<g>
	<polygon points="171,87 179,83 178,92" fill="#aaff00"/>
	<line x1="276" y1="99" x2="178" y2="88" stroke="#aaff00" stroke-width="2"/>
</g>
<g>
	<polygon points="335,159 327,157 333,151" fill="#aaff00"/>
	<line x1="276" y1="99" x2="330" y2="154" stroke="#aaff00" stroke-width="2"/>
</g>
<g>
	<polygon points="235,100 237,92 243,98" fill="#aaff00"/>
	<line x1="286" y1="50" x2="240" y2="95" stroke="#aaff00" stroke-width="2"/>
</g>
<g>
	<polygon points="322,8 320,17 313,11" fill="#aaff00"/>
	<line x1="286" y1="50" x2="317" y2="13" stroke="#aaff00" stroke-width="2"/>
</g>
<g>
	<polygon points="198,167 197,158 205,162" fill="#aaff00"/>
	<line x1="232" y1="104" x2="201" y2="160" stroke="#aaff00" stroke-width="2"/>
</g>
<g>
	<polygon points="388,196 379,195 384,188" fill="#aaff00"/>
	<line x1="339" y1="163" x2="382" y2="192" stroke="#aaff00" stroke-width="2"/>
</g>
<g>
	<polygon points="323,224 320,215 329,218" fill="#aaff00"/>
	<line x1="339" y1="163" x2="324" y2="217" stroke="#aaff00" stroke-width="2"/>
</g>
<g>
	<polygon points="299,179 304,172 308,180" fill="#aaff00"/>
	<line x1="339" y1="163" x2="305" y2="176" stroke="#aaff00" stroke-width="2"/>
</g>
<g>
	<polygon points="342,116 346,124 337,123" fill="#aaff00"/>
	<line x1="339" y1="163" x2="342" y2="123" stroke="#aaff00" stroke-width="2"/>
</g>
<g>
	<polygon points="254,163 262,165 256,171" fill="#aaff00"/>
	<line x1="322" y1="229" x2="259" y2="168" stroke="#aaff00" stroke-width="2"/>
</g>
<g>
	<polygon points="346,285 339,280 347,276" fill="#aaff00"/>
	<line x1="322" y1="229" x2="343" y2="279" stroke="#aaff00" stroke-width="2"/>
</g>
<g>
	<polygon points="388,61 387,70 380,64" fill="#aaff00"/>
	<line x1="343" y1="112" x2="384" y2="66" stroke="#aaff00" stroke-width="2"/>
</g>
<g>
	<polygon points="387,120 379,123 380,114" fill="#aaff00"/>
	<line x1="343" y1="112" x2="380" y2="118" stroke="#aaff00" stroke-width="2"/>
</g>
<g>
	<polygon points="53,248 54,239 61,244" fill="#aaff00"/>
	<line x1="93" y1="189" x2="57" y2="242" stroke="#aaff00" stroke-width="2"/>
</g>
<g>
	<polygon points="23,188 31,183 31,192" fill="#aaff00"/>
	<line x1="93" y1="189" x2="30" y2="188" stroke="#aaff00" stroke-width="2"/>
</g>
<g>
	<polygon points="62,141 70,145 62,150" fill="#aaff00"/>
	<line x1="93" y1="189" x2="66" y2="147" stroke="#aaff00" stroke-width="2"/>
</g>
<g>
	<polygon points="12,289 14,281 20,287" fill="#aaff00"/>
	<line x1="51" y1="252" x2="17" y2="284" stroke="#aaff00" stroke-width="2"/>
</g>

<g fill="#000000">
	<circle cx="216" cy="294" r="4"/>
</g>
<g fill="#000000">
	<circle cx="191" cy="252" r="4"/>
</g>
<g fill="#000000">
	<circle cx="152" cy="214" r="4"/>
</g>
<g fill="#000000">
	<circle cx="224" cy="213" r="4"/>
</g>
<g fill="#000000">
	<circle cx="125" cy="277" r="4"/>
</g>
<g fill="#000000">
	<circle cx="195" cy="170" r="4"/>
</g>
<g fill="#000000">
	<circle cx="142" cy="143" r="4"/>
</g>
<g fill="#000000">
	<circle cx="275" cy="98" r="4"/>
</g>
<g fill="#000000">
	<circle cx="285" cy="49" r="4"/>
</g>
<g fill="#000000">
	<circle cx="231" cy="103" r="4"/>
</g>
<g fill="#000000">
	<circle cx="166" cy="86" r="4"/>
</g>
<g fill="#000000">
	<circle cx="338" cy="162" r="4"/>
</g>
<g fill="#000000">
	<circle cx="324" cy="4" r="4"/>
</g>
<g fill="#000000">
	<circle cx="92" cy="52" r="4"/>
</g>
<g fill="#000000">
	<circle cx="205" cy="52" r="4"/>
</g>
<g fill="#000000">
	<circle cx="67" cy="4" r="4"/>
</g>
<g fill="#000000">
	<circle cx="26" cy="54" r="4"/>
</g>
<g fill="#000000">
	<circle cx="234" cy="4" r="4"/>
</g>
<g fill="#000000">
	<circle cx="167" cy="4" r="4"/>
</g>
<g fill="#000000">
	<circle cx="391" cy="198" r="4"/>
</g>
<g fill="#000000">
	<circle cx="321" cy="228" r="4"/>
</g>
<g fill="#000000">
	<circle cx="294" cy="180" r="4"/>
</g>
<g fill="#000000">
	<circle cx="342" cy="111" r="4"/>
</g>
<g fill="#000000">
	<circle cx="250" cy="159" r="4"/>
</g>
<g fill="#000000">
	<circle cx="347" cy="289" r="4"/>
</g>
<g fill="#000000">
	<circle cx="92" cy="188" r="4"/>
</g>
<g fill="#000000">
	<circle cx="50" cy="251" r="4"/>
</g>
<g fill="#000000">
	<circle cx="18" cy="187" r="4"/>
</g>
<g fill="#000000">
	<circle cx="59" cy="137" r="4"/>
</g>
<g fill="#000000">
	<circle cx="8" cy="292" r="4"/>
</g>
<g fill="#000000">
	<circle cx="391" cy="57" r="4"/>
</g>
<g fill="#000000">
	<circle cx="391" cy="120" r="4"/>
</g>

</g>

</svg>
