<?xml version="1.0" encoding="utf-8"?>
<!-- Created with Hypercube (http://tumic.wz.cz/hypercube) -->

<svg width="400" height="300" viewBox="0 0 400 300" xmlns="http://www.w3.org/2000/svg" baseProfile="tiny">

<g font-family="Helvetica" font-weight="normal">

<g>
	<polygon points="332,202 341,204 334,210" fill="#aaff00"/>
	<line x1="370" y1="238" x2="337" y2="207" stroke="#aaff00" stroke-width="2"/>
</g>
<g>
	<polygon points="294,220 298,212 303,220" fill="#aaff00"/>
	<line x1="329" y1="199" x2="300" y2="216" stroke="#aaff00" stroke-width="2"/>
</g>
<g>
	<polygon points="230,175 239,172 236,181" fill="#aaff00"/>
	<line x1="329" y1="199" x2="237" y2="176" stroke="#aaff00" stroke-width="2"/>
</g>
<g>
	<polygon points="180,176 189,175 185,183" fill="#aaff00"/>
	<line x1="291" y1="223" x2="186" y2="179" stroke="#aaff00" stroke-width="2"/>
</g>
<g>
	<polygon points="256,208 265,207 261,215" fill="#aaff00"/>
	<line x1="291" y1="223" x2="262" y2="211" stroke="#aaff00" stroke-width="2"/>
</g>
<g>
	<polygon points="132,175 140,170 140,179" fill="#aaff00"/>
	<line x1="176" y1="175" x2="139" y2="175" stroke="#aaff00" stroke-width="2"/>
</g>
<g>
	<polygon points="163,61 168,68 159,69" fill="#aaff00"/>
	<line x1="176" y1="175" x2="164" y2="68" stroke="#aaff00" stroke-width="2"/>
</g>
<g>
	<polygon points="91,225 96,217 100,225" fill="#aaff00"/>
	<line x1="176" y1="175" x2="98" y2="221" stroke="#aaff00" stroke-width="2"/>
</g>
<g>
	<polygon points="99,133 107,137 100,142" fill="#aaff00"/>
	<line x1="128" y1="175" x2="103" y2="139" stroke="#aaff00" stroke-width="2"/>
</g>
<g>
	<polygon points="65,182 72,177 73,186" fill="#aaff00"/>
	<line x1="128" y1="175" x2="72" y2="181" stroke="#aaff00" stroke-width="2"/>
</g>
<g>
	<polygon points="141,223 135,217 143,214" fill="#aaff00"/>
	<line x1="128" y1="175" x2="139" y2="216" stroke="#aaff00" stroke-width="2"/>
</g>
<g>
	<polygon points="234,250 225,251 229,243" fill="#aaff00"/>
	<line x1="194" y1="233" x2="228" y2="247" stroke="#aaff00" stroke-width="2"/>
</g>
<g>
	<polygon points="147,228 155,224 154,233" fill="#aaff00"/>
	<line x1="194" y1="233" x2="154" y2="229" stroke="#aaff00" stroke-width="2"/>
</g>
<g>
	<polygon points="216,126 218,134 210,133" fill="#aaff00"/>
	<line x1="194" y1="233" x2="214" y2="133" stroke="#aaff00" stroke-width="2"/>
</g>
<g>
	<polygon points="257,90 258,99 249,95" fill="#aaff00"/>
	<line x1="194" y1="233" x2="254" y2="96" stroke="#aaff00" stroke-width="2"/>
</g>
<g>
	<polygon points="270,292 261,291 267,283" fill="#aaff00"/>
	<line x1="194" y1="233" x2="264" y2="287" stroke="#aaff00" stroke-width="2"/>
</g>
<g>
	<polygon points="213,290 206,284 215,281" fill="#aaff00"/>
	<line x1="194" y1="233" x2="211" y2="283" stroke="#aaff00" stroke-width="2"/>
</g>
<g>
	<polygon points="168,290 167,281 176,285" fill="#aaff00"/>
	<line x1="194" y1="233" x2="171" y2="284" stroke="#aaff00" stroke-width="2"/>
</g>
<g>
	<polygon points="120,292 123,283 129,290" fill="#aaff00"/>
	<line x1="194" y1="233" x2="126" y2="287" stroke="#aaff00" stroke-width="2"/>
</g>
<g>
	<polygon points="198,231 203,223 207,232" fill="#aaff00"/>
	<line x1="252" y1="207" x2="204" y2="228" stroke="#aaff00" stroke-width="2"/>
</g>
<g>
	<polygon points="298,120 299,129 291,125" fill="#aaff00"/>
	<line x1="252" y1="207" x2="295" y2="127" stroke="#aaff00" stroke-width="2"/>
</g>
<g>
	<polygon points="240,247 238,238 246,241" fill="#aaff00"/>
	<line x1="252" y1="207" x2="242" y2="240" stroke="#aaff00" stroke-width="2"/>
</g>
<g>
	<polygon points="221,121 229,116 229,125" fill="#aaff00"/>
	<line x1="301" y1="117" x2="228" y2="121" stroke="#aaff00" stroke-width="2"/>
</g>
<g>
	<polygon points="262,88 271,89 266,96" fill="#aaff00"/>
	<line x1="301" y1="117" x2="268" y2="92" stroke="#aaff00" stroke-width="2"/>
</g>
<g>
	<polygon points="362,102 356,108 353,99" fill="#aaff00"/>
	<line x1="301" y1="117" x2="355" y2="103" stroke="#aaff00" stroke-width="2"/>
</g>
<g>
	<polygon points="175,112 183,110 182,119" fill="#aaff00"/>
	<line x1="217" y1="122" x2="182" y2="114" stroke="#aaff00" stroke-width="2"/>
</g>
<g>
	<polygon points="220,7 217,16 211,9" fill="#aaff00"/>
	<line x1="163" y1="57" x2="215" y2="12" stroke="#aaff00" stroke-width="2"/>
</g>
<g>
	<polygon points="136,8 143,13 136,17" fill="#aaff00"/>
	<line x1="163" y1="57" x2="139" y2="15" stroke="#aaff00" stroke-width="2"/>
</g>
<g>
	<polygon points="87,14 96,14 92,21" fill="#aaff00"/>
	<line x1="163" y1="57" x2="94" y2="17" stroke="#aaff00" stroke-width="2"/>
</g>
<g>
	<polygon points="214,118 205,115 212,109" fill="#aaff00"/>
	<line x1="163" y1="57" x2="209" y2="113" stroke="#aaff00" stroke-width="2"/>
</g>
<g>
	<polygon points="74,76 81,70 82,78" fill="#aaff00"/>
	<line x1="163" y1="57" x2="81" y2="74" stroke="#aaff00" stroke-width="2"/>
</g>
<g>
	<polygon points="254,84 245,86 248,78" fill="#aaff00"/>
	<line x1="163" y1="57" x2="247" y2="82" stroke="#aaff00" stroke-width="2"/>
</g>
<g>
	<polygon points="164,52 162,43 171,46" fill="#aaff00"/>
	<line x1="180" y1="5" x2="166" y2="45" stroke="#aaff00" stroke-width="2"/>
</g>
<g>
	<polygon points="219,5 211,9 211,0" fill="#aaff00"/>
	<line x1="180" y1="5" x2="212" y2="5" stroke="#aaff00" stroke-width="2"/>
</g>
<g>
	<polygon points="138,5 146,0 146,9" fill="#aaff00"/>
	<line x1="180" y1="5" x2="145" y2="5" stroke="#aaff00" stroke-width="2"/>
</g>
<g>
	<polygon points="85,224 77,219 85,215" fill="#aaff00"/>
	<line x1="31" y1="137" x2="81" y2="218" stroke="#aaff00" stroke-width="2"/>
</g>
<g>
	<polygon points="67,80 67,89 59,84" fill="#aaff00"/>
	<line x1="31" y1="137" x2="63" y2="86" stroke="#aaff00" stroke-width="2"/>
</g>
<g>
	<polygon points="189,232 181,236 181,227" fill="#aaff00"/>
	<line x1="88" y1="228" x2="182" y2="232" stroke="#aaff00" stroke-width="2"/>
</g>
<g>
	<polygon points="35,262 39,254 44,261" fill="#aaff00"/>
	<line x1="88" y1="228" x2="41" y2="258" stroke="#aaff00" stroke-width="2"/>
</g>
<g>
	<polygon points="301,33 299,42 292,36" fill="#aaff00"/>
	<line x1="259" y1="86" x2="296" y2="39" stroke="#aaff00" stroke-width="2"/>
</g>
<g>
	<polygon points="217,117 213,109 222,109" fill="#aaff00"/>
	<line x1="219" y1="74" x2="217" y2="110" stroke="#aaff00" stroke-width="2"/>
</g>
<g>
	<polygon points="254,84 245,86 248,78" fill="#aaff00"/>
	<line x1="219" y1="74" x2="247" y2="82" stroke="#aaff00" stroke-width="2"/>
</g>
<g>
	<polygon points="180,174 188,170 188,179" fill="#aaff00"/>
	<line x1="226" y1="174" x2="187" y2="174" stroke="#aaff00" stroke-width="2"/>
</g>
<g>
	<polygon points="249,203 240,200 247,194" fill="#aaff00"/>
	<line x1="226" y1="174" x2="244" y2="197" stroke="#aaff00" stroke-width="2"/>
</g>
<g>
	<polygon points="132,174 140,170 140,179" fill="#aaff00"/>
	<line x1="226" y1="174" x2="139" y2="174" stroke="#aaff00" stroke-width="2"/>
</g>
<g>
	<polygon points="230,172 236,166 239,174" fill="#aaff00"/>
	<line x1="278" y1="159" x2="237" y2="170" stroke="#aaff00" stroke-width="2"/>
</g>

<g fill="#000000">
	<circle cx="369" cy="237" r="4"/>
</g>
<g fill="#000000">
	<circle cx="328" cy="198" r="4"/>
</g>
<g fill="#000000">
	<circle cx="290" cy="222" r="4"/>
</g>
<g fill="#000000">
	<circle cx="225" cy="173" r="4"/>
</g>
<g fill="#000000">
	<circle cx="175" cy="174" r="4"/>
</g>
<g fill="#000000">
	<circle cx="251" cy="206" r="4"/>
</g>
<g fill="#000000">
	<circle cx="127" cy="174" r="4"/>
</g>
<g fill="#000000">
	<circle cx="277" cy="158" r="4"/>
</g>
<g fill="#000000">
	<circle cx="162" cy="56" r="4"/>
</g>
<g fill="#000000">
	<circle cx="87" cy="227" r="4"/>
</g>
<g fill="#000000">
	<circle cx="193" cy="232" r="4"/>
</g>
<g fill="#000000">
	<circle cx="300" cy="116" r="4"/>
</g>
<g fill="#000000">
	<circle cx="238" cy="251" r="4"/>
</g>
<g fill="#000000">
	<circle cx="96" cy="129" r="4"/>
</g>
<g fill="#000000">
	<circle cx="60" cy="182" r="4"/>
</g>
<g fill="#000000">
	<circle cx="142" cy="227" r="4"/>
</g>
<g fill="#000000">
	<circle cx="223" cy="4" r="4"/>
</g>
<g fill="#000000">
	<circle cx="133" cy="4" r="4"/>
</g>
<g fill="#000000">
	<circle cx="83" cy="11" r="4"/>
</g>
<g fill="#000000">
	<circle cx="216" cy="121" r="4"/>
</g>
<g fill="#000000">
	<circle cx="69" cy="76" r="4"/>
</g>
<g fill="#000000">
	<circle cx="258" cy="85" r="4"/>
</g>
<g fill="#000000">
	<circle cx="179" cy="4" r="4"/>
</g>
<g fill="#000000">
	<circle cx="31" cy="264" r="4"/>
</g>
<g fill="#000000">
	<circle cx="30" cy="136" r="4"/>
</g>
<g fill="#000000">
	<circle cx="273" cy="294" r="4"/>
</g>
<g fill="#000000">
	<circle cx="214" cy="294" r="4"/>
</g>
<g fill="#000000">
	<circle cx="166" cy="294" r="4"/>
</g>
<g fill="#000000">
	<circle cx="116" cy="294" r="4"/>
</g>
<g fill="#000000">
	<circle cx="366" cy="100" r="4"/>
</g>
<g fill="#000000">
	<circle cx="170" cy="111" r="4"/>
</g>
<g fill="#000000">
	<circle cx="303" cy="29" r="4"/>
</g>
<g fill="#000000">
	<circle cx="218" cy="73" r="4"/>
</g>

</g>

</svg>
