<?xml version="1.0" encoding="utf-8"?>
<!-- Created with Hypercube (http://tumic.wz.cz/hypercube) -->

<svg width="400" height="300" viewBox="0 0 400 300" xmlns="http://www.w3.org/2000/svg" baseProfile="tiny">

<g font-family="Helvetica" font-weight="normal">

<g>
	<polygon points="116,69 123,63 124,72" fill="#aaff00"/>
	<line x1="193" y1="54" x2="123" y2="67" stroke="#aaff00" stroke-width="2"/>
</g>
<g>
	<polygon points="208,135 202,128 211,127" fill="#aaff00"/>
	<line x1="193" y1="54" x2="206" y2="128" stroke="#aaff00" stroke-width="2"/>
</g>
<g>
	<polygon points="274,53 266,57 266,48" fill="#aaff00"/>
	<line x1="193" y1="54" x2="267" y2="53" stroke="#aaff00" stroke-width="2"/>
</g>
<g>
	<polygon points="54,102 59,94 63,102" fill="#aaff00"/>
	<line x1="112" y1="70" x2="61" y2="99" stroke="#aaff00" stroke-width="2"/>
</g>
<g>
	<polygon points="122,160 113,159 119,151" fill="#aaff00"/>
	<line x1="51" y1="105" x2="116" y2="155" stroke="#aaff00" stroke-width="2"/>
</g>
<g>
	<polygon points="7,24 14,29 6,33" fill="#aaff00"/>
	<line x1="51" y1="105" x2="10" y2="31" stroke="#aaff00" stroke-width="2"/>
</g>
<g>
	<polygon points="58,45 61,53 53,52" fill="#aaff00"/>
	<line x1="51" y1="105" x2="57" y2="52" stroke="#aaff00" stroke-width="2"/>
</g>
<g>
	<polygon points="62,158 56,151 64,150" fill="#aaff00"/>
	<line x1="51" y1="105" x2="60" y2="151" stroke="#aaff00" stroke-width="2"/>
</g>
<g>
	<polygon points="8,128 13,121 17,128" fill="#aaff00"/>
	<line x1="51" y1="105" x2="15" y2="125" stroke="#aaff00" stroke-width="2"/>
</g>
<g>
	<polygon points="8,80 17,80 13,88" fill="#aaff00"/>
	<line x1="51" y1="105" x2="15" y2="83" stroke="#aaff00" stroke-width="2"/>
</g>
<g>
	<polygon points="7,180 7,171 15,175" fill="#aaff00"/>
	<line x1="51" y1="105" x2="10" y2="173" stroke="#aaff00" stroke-width="2"/>
</g>
<g>
	<polygon points="221,219 212,219 216,211" fill="#aaff00"/>
	<line x1="126" y1="163" x2="214" y2="216" stroke="#aaff00" stroke-width="2"/>
</g>
<g>
	<polygon points="138,235 145,229 146,238" fill="#aaff00"/>
	<line x1="225" y1="222" x2="145" y2="234" stroke="#aaff00" stroke-width="2"/>
</g>
<g>
	<polygon points="268,229 260,232 261,223" fill="#aaff00"/>
	<line x1="225" y1="222" x2="261" y2="228" stroke="#aaff00" stroke-width="2"/>
</g>
<g>
	<polygon points="188,196 197,197 192,204" fill="#aaff00"/>
	<line x1="225" y1="222" x2="194" y2="200" stroke="#aaff00" stroke-width="2"/>
</g>
<g>
	<polygon points="319,259 310,260 314,252" fill="#aaff00"/>
	<line x1="225" y1="222" x2="313" y2="256" stroke="#aaff00" stroke-width="2"/>
</g>
<g>
	<polygon points="154,291 156,283 162,289" fill="#aaff00"/>
	<line x1="225" y1="222" x2="159" y2="286" stroke="#aaff00" stroke-width="2"/>
</g>
<g>
	<polygon points="219,290 215,282 224,283" fill="#aaff00"/>
	<line x1="225" y1="222" x2="219" y2="283" stroke="#aaff00" stroke-width="2"/>
</g>
<g>
	<polygon points="193,253 195,245 201,251" fill="#aaff00"/>
	<line x1="225" y1="222" x2="198" y2="248" stroke="#aaff00" stroke-width="2"/>
</g>
<g>
	<polygon points="270,291 262,287 270,282" fill="#aaff00"/>
	<line x1="225" y1="222" x2="266" y2="285" stroke="#aaff00" stroke-width="2"/>
</g>
<g>
	<polygon points="224,217 218,210 227,209" fill="#aaff00"/>
	<line x1="209" y1="140" x2="222" y2="210" stroke="#aaff00" stroke-width="2"/>
</g>
<g>
	<polygon points="227,218 227,209 235,214" fill="#aaff00"/>
	<line x1="273" y1="147" x2="231" y2="212" stroke="#aaff00" stroke-width="2"/>
</g>
<g>
	<polygon points="276,144 279,135 285,142" fill="#aaff00"/>
	<line x1="338" y1="94" x2="282" y2="139" stroke="#aaff00" stroke-width="2"/>
</g>
<g>
	<polygon points="312,177 310,168 318,171" fill="#aaff00"/>
	<line x1="338" y1="94" x2="314" y2="170" stroke="#aaff00" stroke-width="2"/>
</g>
<g>
	<polygon points="229,220 234,212 238,220" fill="#aaff00"/>
	<line x1="311" y1="182" x2="235" y2="217" stroke="#aaff00" stroke-width="2"/>
</g>
<g>
	<polygon points="334,91 325,90 330,83" fill="#aaff00"/>
	<line x1="279" y1="53" x2="328" y2="87" stroke="#aaff00" stroke-width="2"/>
</g>
<g>
	<polygon points="342,93 349,87 350,95" fill="#aaff00"/>
	<line x1="395" y1="82" x2="349" y2="91" stroke="#aaff00" stroke-width="2"/>
</g>
<g>
	<polygon points="340,90 342,81 349,87" fill="#aaff00"/>
	<line x1="395" y1="26" x2="345" y2="85" stroke="#aaff00" stroke-width="2"/>
</g>
<g>
	<polygon points="337,89 333,81 342,81" fill="#aaff00"/>
	<line x1="336" y1="29" x2="337" y2="82" stroke="#aaff00" stroke-width="2"/>
</g>
<g>
	<polygon points="341,97 350,98 344,105" fill="#aaff00"/>
	<line x1="395" y1="145" x2="346" y2="101" stroke="#aaff00" stroke-width="2"/>
</g>
<g>
	<polygon points="338,98 344,105 336,106" fill="#aaff00"/>
	<line x1="347" y1="138" x2="340" y2="105" stroke="#aaff00" stroke-width="2"/>
</g>
<g>
	<polygon points="195,50 195,41 203,46" fill="#aaff00"/>
	<line x1="225" y1="5" x2="199" y2="44" stroke="#aaff00" stroke-width="2"/>
</g>
<g>
	<polygon points="190,50 182,46 189,41" fill="#aaff00"/>
	<line x1="160" y1="5" x2="186" y2="44" stroke="#aaff00" stroke-width="2"/>
</g>
<g>
	<polygon points="190,57 188,66 181,60" fill="#aaff00"/>
	<line x1="161" y1="94" x2="185" y2="63" stroke="#aaff00" stroke-width="2"/>
</g>
<g>
	<polygon points="196,56 205,57 200,64" fill="#aaff00"/>
	<line x1="232" y1="81" x2="202" y2="60" stroke="#aaff00" stroke-width="2"/>
</g>

<g fill="#000000">
	<circle cx="192" cy="53" r="4"/>
</g>
<g fill="#000000">
	<circle cx="111" cy="69" r="4"/>
</g>
<g fill="#000000">
	<circle cx="208" cy="139" r="4"/>
</g>
<g fill="#000000">
	<circle cx="278" cy="52" r="4"/>
</g>
<g fill="#000000">
	<circle cx="50" cy="104" r="4"/>
</g>
<g fill="#000000">
	<circle cx="125" cy="162" r="4"/>
</g>
<g fill="#000000">
	<circle cx="4" cy="20" r="4"/>
</g>
<g fill="#000000">
	<circle cx="58" cy="40" r="4"/>
</g>
<g fill="#000000">
	<circle cx="62" cy="162" r="4"/>
</g>
<g fill="#000000">
	<circle cx="4" cy="130" r="4"/>
</g>
<g fill="#000000">
	<circle cx="4" cy="77" r="4"/>
</g>
<g fill="#000000">
	<circle cx="4" cy="183" r="4"/>
</g>
<g fill="#000000">
	<circle cx="224" cy="221" r="4"/>
</g>
<g fill="#000000">
	<circle cx="133" cy="235" r="4"/>
</g>
<g fill="#000000">
	<circle cx="272" cy="229" r="4"/>
</g>
<g fill="#000000">
	<circle cx="184" cy="193" r="4"/>
</g>
<g fill="#000000">
	<circle cx="323" cy="260" r="4"/>
</g>
<g fill="#000000">
	<circle cx="150" cy="294" r="4"/>
</g>
<g fill="#000000">
	<circle cx="218" cy="294" r="4"/>
</g>
<g fill="#000000">
	<circle cx="189" cy="256" r="4"/>
</g>
<g fill="#000000">
	<circle cx="272" cy="294" r="4"/>
</g>
<g fill="#000000">
	<circle cx="337" cy="93" r="4"/>
</g>
<g fill="#000000">
	<circle cx="272" cy="146" r="4"/>
</g>
<g fill="#000000">
	<circle cx="310" cy="181" r="4"/>
</g>
<g fill="#000000">
	<circle cx="224" cy="4" r="4"/>
</g>
<g fill="#000000">
	<circle cx="159" cy="4" r="4"/>
</g>
<g fill="#000000">
	<circle cx="160" cy="93" r="4"/>
</g>
<g fill="#000000">
	<circle cx="231" cy="80" r="4"/>
</g>
<g fill="#000000">
	<circle cx="394" cy="81" r="4"/>
</g>
<g fill="#000000">
	<circle cx="394" cy="25" r="4"/>
</g>
<g fill="#000000">
	<circle cx="335" cy="28" r="4"/>
</g>
<g fill="#000000">
	<circle cx="394" cy="144" r="4"/>
</g>
<g fill="#000000">
	<circle cx="346" cy="137" r="4"/>
</g>

</g>

</svg>
