<?xml version="1.0" encoding="utf-8"?>
<!-- Created with Hypercube (http://tumic.wz.cz/hypercube) -->

<svg width="400" height="300" viewBox="0 0 400 300" xmlns="http://www.w3.org/2000/svg" baseProfile="tiny">

<g font-family="Helvetica" font-weight="normal">

<g>
	<polygon points="100,284 93,289 92,280" fill="#aaff00"/>
	<line x1="28" y1="293" x2="93" y2="285" stroke="#aaff00" stroke-width="2"/>
</g>
<g>
	<polygon points="15,232 21,239 12,240" fill="#aaff00"/>
	<line x1="28" y1="293" x2="17" y2="239" stroke="#aaff00" stroke-width="2"/>
</g>
<g>
	<polygon points="148,288 140,292 141,283" fill="#aaff00"/>
	<line x1="105" y1="284" x2="141" y2="287" stroke="#aaff00" stroke-width="2"/>
</g>
<g>
	<polygon points="138,246 137,255 130,249" fill="#aaff00"/>
	<line x1="105" y1="284" x2="134" y2="251" stroke="#aaff00" stroke-width="2"/>
</g>
<g>
	<polygon points="69,257 78,258 73,265" fill="#aaff00"/>
	<line x1="105" y1="284" x2="75" y2="261" stroke="#aaff00" stroke-width="2"/>
</g>
<g>
	<polygon points="91,219 97,226 89,227" fill="#aaff00"/>
	<line x1="105" y1="284" x2="93" y2="226" stroke="#aaff00" stroke-width="2"/>
</g>
<g>
	<polygon points="143,247 149,253 140,256" fill="#aaff00"/>
	<line x1="153" y1="289" x2="144" y2="254" stroke="#aaff00" stroke-width="2"/>
</g>
<g>
	<polygon points="177,205 175,214 169,207" fill="#aaff00"/>
	<line x1="142" y1="243" x2="172" y2="210" stroke="#aaff00" stroke-width="2"/>
</g>
<g>
	<polygon points="182,197 181,188 190,192" fill="#aaff00"/>
	<line x1="206" y1="145" x2="185" y2="191" stroke="#aaff00" stroke-width="2"/>
</g>
<g>
	<polygon points="176,202 169,208 168,199" fill="#aaff00"/>
	<line x1="91" y1="215" x2="169" y2="203" stroke="#aaff00" stroke-width="2"/>
</g>
<g>
	<polygon points="19,227 26,221 27,230" fill="#aaff00"/>
	<line x1="91" y1="215" x2="26" y2="226" stroke="#aaff00" stroke-width="2"/>
</g>
<g>
	<polygon points="88,218 88,227 80,223" fill="#aaff00"/>
	<line x1="66" y1="255" x2="84" y2="224" stroke="#aaff00" stroke-width="2"/>
</g>
<g>
	<polygon points="185,201 191,194 193,203" fill="#aaff00"/>
	<line x1="234" y1="190" x2="192" y2="199" stroke="#aaff00" stroke-width="2"/>
</g>
<g>
	<polygon points="183,205 191,209 184,214" fill="#aaff00"/>
	<line x1="211" y1="242" x2="188" y2="211" stroke="#aaff00" stroke-width="2"/>
</g>
<g>
	<polygon points="185,203 194,201 191,209" fill="#aaff00"/>
	<line x1="275" y1="230" x2="192" y2="205" stroke="#aaff00" stroke-width="2"/>
</g>
<g>
	<polygon points="109,284 117,280 116,289" fill="#aaff00"/>
	<line x1="206" y1="295" x2="116" y2="285" stroke="#aaff00" stroke-width="2"/>
</g>
<g>
	<polygon points="296,295 288,299 288,290" fill="#aaff00"/>
	<line x1="206" y1="295" x2="289" y2="295" stroke="#aaff00" stroke-width="2"/>
</g>
<g>
	<polygon points="210,295 218,290 218,299" fill="#aaff00"/>
	<line x1="252" y1="295" x2="217" y2="295" stroke="#aaff00" stroke-width="2"/>
</g>
<g>
	<polygon points="159,106 165,99 168,108" fill="#aaff00"/>
	<line x1="271" y1="66" x2="165" y2="104" stroke="#aaff00" stroke-width="2"/>
</g>
<g>
	<polygon points="208,141 210,132 217,138" fill="#aaff00"/>
	<line x1="271" y1="66" x2="213" y2="135" stroke="#aaff00" stroke-width="2"/>
</g>
<g>
	<polygon points="231,50 240,49 236,57" fill="#aaff00"/>
	<line x1="271" y1="66" x2="237" y2="53" stroke="#aaff00" stroke-width="2"/>
</g>
<g>
	<polygon points="286,9 289,18 280,15" fill="#aaff00"/>
	<line x1="271" y1="66" x2="284" y2="16" stroke="#aaff00" stroke-width="2"/>
</g>
<g>
	<polygon points="349,150 341,148 347,141" fill="#aaff00"/>
	<line x1="271" y1="66" x2="345" y2="145" stroke="#aaff00" stroke-width="2"/>
</g>
<g>
	<polygon points="318,98 309,97 314,90" fill="#aaff00"/>
	<line x1="271" y1="66" x2="312" y2="94" stroke="#aaff00" stroke-width="2"/>
</g>
<g>
	<polygon points="311,53 305,59 302,51" fill="#aaff00"/>
	<line x1="271" y1="66" x2="304" y2="55" stroke="#aaff00" stroke-width="2"/>
</g>
<g>
	<polygon points="153,7 162,6 157,14" fill="#aaff00"/>
	<line x1="271" y1="66" x2="159" y2="10" stroke="#aaff00" stroke-width="2"/>
</g>
<g>
	<polygon points="263,111 260,103 269,104" fill="#aaff00"/>
	<line x1="271" y1="66" x2="264" y2="104" stroke="#aaff00" stroke-width="2"/>
</g>
<g>
	<polygon points="380,100 371,102 374,94" fill="#aaff00"/>
	<line x1="271" y1="66" x2="373" y2="98" stroke="#aaff00" stroke-width="2"/>
</g>
<g>
	<polygon points="172,55 180,51 179,60" fill="#aaff00"/>
	<line x1="271" y1="66" x2="179" y2="56" stroke="#aaff00" stroke-width="2"/>
</g>
<g>
	<polygon points="204,7 213,9 207,16" fill="#aaff00"/>
	<line x1="271" y1="66" x2="209" y2="12" stroke="#aaff00" stroke-width="2"/>
</g>
<g>
	<polygon points="247,9 254,14 246,18" fill="#aaff00"/>
	<line x1="271" y1="66" x2="250" y2="15" stroke="#aaff00" stroke-width="2"/>
</g>
<g>
	<polygon points="296,151 290,145 298,142" fill="#aaff00"/>
	<line x1="271" y1="66" x2="294" y2="144" stroke="#aaff00" stroke-width="2"/>
</g>
<g>
	<polygon points="219,91 223,84 228,92" fill="#aaff00"/>
	<line x1="271" y1="66" x2="225" y2="88" stroke="#aaff00" stroke-width="2"/>
</g>
<g>
	<polygon points="330,8 328,16 322,10" fill="#aaff00"/>
	<line x1="271" y1="66" x2="325" y2="13" stroke="#aaff00" stroke-width="2"/>
</g>
<g>
	<polygon points="365,52 358,58 357,49" fill="#aaff00"/>
	<line x1="271" y1="66" x2="358" y2="53" stroke="#aaff00" stroke-width="2"/>
</g>
<g>
	<polygon points="382,7 377,14 373,6" fill="#aaff00"/>
	<line x1="271" y1="66" x2="375" y2="10" stroke="#aaff00" stroke-width="2"/>
</g>

<g fill="#000000">
	<circle cx="270" cy="65" r="4"/>
</g>
<g fill="#000000">
	<circle cx="154" cy="107" r="4"/>
</g>
<g fill="#000000">
	<circle cx="27" cy="292" r="4"/>
</g>
<g fill="#000000">
	<circle cx="104" cy="283" r="4"/>
</g>
<g fill="#000000">
	<circle cx="205" cy="144" r="4"/>
</g>
<g fill="#000000">
	<circle cx="180" cy="201" r="4"/>
</g>
<g fill="#000000">
	<circle cx="226" cy="48" r="4"/>
</g>
<g fill="#000000">
	<circle cx="287" cy="4" r="4"/>
</g>
<g fill="#000000">
	<circle cx="352" cy="153" r="4"/>
</g>
<g fill="#000000">
	<circle cx="152" cy="288" r="4"/>
</g>
<g fill="#000000">
	<circle cx="141" cy="242" r="4"/>
</g>
<g fill="#000000">
	<circle cx="65" cy="254" r="4"/>
</g>
<g fill="#000000">
	<circle cx="90" cy="214" r="4"/>
</g>
<g fill="#000000">
	<circle cx="233" cy="189" r="4"/>
</g>
<g fill="#000000">
	<circle cx="210" cy="241" r="4"/>
</g>
<g fill="#000000">
	<circle cx="321" cy="100" r="4"/>
</g>
<g fill="#000000">
	<circle cx="315" cy="51" r="4"/>
</g>
<g fill="#000000">
	<circle cx="14" cy="227" r="4"/>
</g>
<g fill="#000000">
	<circle cx="148" cy="4" r="4"/>
</g>
<g fill="#000000">
	<circle cx="262" cy="115" r="4"/>
</g>
<g fill="#000000">
	<circle cx="384" cy="101" r="4"/>
</g>
<g fill="#000000">
	<circle cx="274" cy="229" r="4"/>
</g>
<g fill="#000000">
	<circle cx="167" cy="54" r="4"/>
</g>
<g fill="#000000">
	<circle cx="200" cy="4" r="4"/>
</g>
<g fill="#000000">
	<circle cx="245" cy="4" r="4"/>
</g>
<g fill="#000000">
	<circle cx="297" cy="155" r="4"/>
</g>
<g fill="#000000">
	<circle cx="214" cy="93" r="4"/>
</g>
<g fill="#000000">
	<circle cx="333" cy="4" r="4"/>
</g>
<g fill="#000000">
	<circle cx="369" cy="51" r="4"/>
</g>
<g fill="#000000">
	<circle cx="385" cy="4" r="4"/>
</g>
<g fill="#000000">
	<circle cx="205" cy="294" r="4"/>
</g>
<g fill="#000000">
	<circle cx="300" cy="294" r="4"/>
</g>
<g fill="#000000">
	<circle cx="251" cy="294" r="4"/>
</g>

</g>

</svg>
