<?xml version="1.0" encoding="utf-8"?>
<!-- Created with Hypercube (http://tumic.wz.cz/hypercube) -->

<svg width="400" height="300" viewBox="0 0 400 300" xmlns="http://www.w3.org/2000/svg" baseProfile="tiny">

<g font-family="Helvetica" font-weight="normal">

<g>
	<polygon points="318,119 310,117 316,110" fill="#aaff00"/>
	<line x1="283" y1="81" x2="314" y2="114" stroke="#aaff00" stroke-width="2"/>
</g>
<g>
	<polygon points="278,79 269,80 273,72" fill="#aaff00"/>
	<line x1="229" y1="60" x2="272" y2="76" stroke="#aaff00" stroke-width="2"/>
</g>
<g>
	<polygon points="171,61 179,57 179,66" fill="#aaff00"/>
	<line x1="229" y1="60" x2="178" y2="61" stroke="#aaff00" stroke-width="2"/>
</g>
<g>
	<polygon points="109,88 114,80 118,89" fill="#aaff00"/>
	<line x1="167" y1="62" x2="115" y2="85" stroke="#aaff00" stroke-width="2"/>
</g>
<g>
	<polygon points="143,113 134,113 138,105" fill="#aaff00"/>
	<line x1="105" y1="90" x2="137" y2="109" stroke="#aaff00" stroke-width="2"/>
</g>
<g>
	<polygon points="156,162 150,155 159,154" fill="#aaff00"/>
	<line x1="147" y1="116" x2="154" y2="155" stroke="#aaff00" stroke-width="2"/>
</g>
<g>
	<polygon points="159,170 167,174 160,179" fill="#aaff00"/>
	<line x1="213" y1="250" x2="163" y2="176" stroke="#aaff00" stroke-width="2"/>
</g>
<g>
	<polygon points="215,253 224,257 216,262" fill="#aaff00"/>
	<line x1="247" y1="295" x2="220" y2="259" stroke="#aaff00" stroke-width="2"/>
</g>
<g>
	<polygon points="250,292 255,285 259,293" fill="#aaff00"/>
	<line x1="304" y1="264" x2="257" y2="289" stroke="#aaff00" stroke-width="2"/>
</g>
<g>
	<polygon points="217,127 226,128 221,135" fill="#aaff00"/>
	<line x1="286" y1="179" x2="223" y2="132" stroke="#aaff00" stroke-width="2"/>
</g>
<g>
	<polygon points="303,259 297,252 305,251" fill="#aaff00"/>
	<line x1="286" y1="179" x2="301" y2="252" stroke="#aaff00" stroke-width="2"/>
</g>
<g>
	<polygon points="109,91 118,89 115,98" fill="#aaff00"/>
	<line x1="214" y1="125" x2="116" y2="93" stroke="#aaff00" stroke-width="2"/>
</g>
<g>
	<polygon points="290,179 298,176 297,185" fill="#aaff00"/>
	<line x1="357" y1="190" x2="297" y2="180" stroke="#aaff00" stroke-width="2"/>
</g>
<g>
	<polygon points="359,193 368,196 361,202" fill="#aaff00"/>
	<line x1="390" y1="227" x2="364" y2="198" stroke="#aaff00" stroke-width="2"/>
</g>
<g>
	<polygon points="281,179 274,185 273,176" fill="#aaff00"/>
	<line x1="216" y1="189" x2="274" y2="180" stroke="#aaff00" stroke-width="2"/>
</g>
<g>
	<polygon points="177,291 169,289 175,283" fill="#aaff00"/>
	<line x1="116" y1="231" x2="172" y2="286" stroke="#aaff00" stroke-width="2"/>
</g>
<g>
	<polygon points="211,190 206,197 202,189" fill="#aaff00"/>
	<line x1="116" y1="231" x2="205" y2="193" stroke="#aaff00" stroke-width="2"/>
</g>
<g>
	<polygon points="111,194 116,201 108,202" fill="#aaff00"/>
	<line x1="116" y1="231" x2="112" y2="201" stroke="#aaff00" stroke-width="2"/>
</g>
<g>
	<polygon points="96,153 102,159 93,162" fill="#aaff00"/>
	<line x1="116" y1="231" x2="97" y2="160" stroke="#aaff00" stroke-width="2"/>
</g>
<g>
	<polygon points="159,211 154,219 150,210" fill="#aaff00"/>
	<line x1="116" y1="231" x2="153" y2="214" stroke="#aaff00" stroke-width="2"/>
</g>
<g>
	<polygon points="242,295 234,299 234,290" fill="#aaff00"/>
	<line x1="181" y1="295" x2="235" y2="295" stroke="#aaff00" stroke-width="2"/>
</g>
<g>
	<polygon points="152,169 148,176 143,168" fill="#aaff00"/>
	<line x1="111" y1="190" x2="146" y2="172" stroke="#aaff00" stroke-width="2"/>
</g>
<g>
	<polygon points="152,165 143,167 146,159" fill="#aaff00"/>
	<line x1="95" y1="149" x2="145" y2="163" stroke="#aaff00" stroke-width="2"/>
</g>
<g>
	<polygon points="157,171 163,178 154,179" fill="#aaff00"/>
	<line x1="164" y1="210" x2="158" y2="178" stroke="#aaff00" stroke-width="2"/>
</g>
<g>
	<polygon points="111,231 104,237 103,228" fill="#aaff00"/>
	<line x1="35" y1="247" x2="104" y2="233" stroke="#aaff00" stroke-width="2"/>
</g>
<g>
	<polygon points="33,251 33,260 25,256" fill="#aaff00"/>
	<line x1="12" y1="295" x2="29" y2="257" stroke="#aaff00" stroke-width="2"/>
</g>
<g>
	<polygon points="66,295 58,299 58,290" fill="#aaff00"/>
	<line x1="12" y1="295" x2="59" y2="295" stroke="#aaff00" stroke-width="2"/>
</g>
<g>
	<polygon points="113,234 112,243 105,238" fill="#aaff00"/>
	<line x1="71" y1="295" x2="109" y2="240" stroke="#aaff00" stroke-width="2"/>
</g>
<g>
	<polygon points="102,94 103,103 95,98" fill="#aaff00"/>
	<line x1="59" y1="182" x2="99" y2="100" stroke="#aaff00" stroke-width="2"/>
</g>
<g>
	<polygon points="255,218 250,225 246,217" fill="#aaff00"/>
	<line x1="149" y1="260" x2="249" y2="221" stroke="#aaff00" stroke-width="2"/>
</g>
<g>
	<polygon points="62,184 71,186 65,193" fill="#aaff00"/>
	<line x1="149" y1="260" x2="67" y2="189" stroke="#aaff00" stroke-width="2"/>
</g>
<g>
	<polygon points="319,126 318,135 311,130" fill="#aaff00"/>
	<line x1="260" y1="217" x2="315" y2="132" stroke="#aaff00" stroke-width="2"/>
</g>
<g>
	<polygon points="101,86 92,85 98,78" fill="#aaff00"/>
	<line x1="33" y1="24" x2="96" y2="82" stroke="#aaff00" stroke-width="2"/>
</g>
<g>
	<polygon points="37,22 43,15 46,24" fill="#aaff00"/>
	<line x1="88" y1="5" x2="44" y2="20" stroke="#aaff00" stroke-width="2"/>
</g>
<g>
	<polygon points="72,52 70,43 79,46" fill="#aaff00"/>
	<line x1="88" y1="5" x2="74" y2="45" stroke="#aaff00" stroke-width="2"/>
</g>
<g>
	<polygon points="101,86 93,84 99,78" fill="#aaff00"/>
	<line x1="71" y1="57" x2="96" y2="81" stroke="#aaff00" stroke-width="2"/>
</g>
<g>
	<polygon points="92,5 100,0 100,9" fill="#aaff00"/>
	<line x1="156" y1="5" x2="99" y2="5" stroke="#aaff00" stroke-width="2"/>
</g>
<g>
	<polygon points="160,5 168,0 168,9" fill="#aaff00"/>
	<line x1="225" y1="5" x2="167" y2="5" stroke="#aaff00" stroke-width="2"/>
</g>
<g>
	<polygon points="229,5 237,0 237,9" fill="#aaff00"/>
	<line x1="295" y1="5" x2="236" y2="5" stroke="#aaff00" stroke-width="2"/>
</g>
<g>
	<polygon points="368,67 362,61 371,59" fill="#aaff00"/>
	<line x1="357" y1="15" x2="367" y2="60" stroke="#aaff00" stroke-width="2"/>
</g>
<g>
	<polygon points="299,5 307,2 306,11" fill="#aaff00"/>
	<line x1="357" y1="15" x2="306" y2="6" stroke="#aaff00" stroke-width="2"/>
</g>
<g>
	<polygon points="325,119 327,110 333,117" fill="#aaff00"/>
	<line x1="370" y1="72" x2="330" y2="114" stroke="#aaff00" stroke-width="2"/>
</g>

<g fill="#000000">
	<circle cx="321" cy="122" r="4"/>
</g>
<g fill="#000000">
	<circle cx="156" cy="166" r="4"/>
</g>
<g fill="#000000">
	<circle cx="246" cy="294" r="4"/>
</g>
<g fill="#000000">
	<circle cx="212" cy="249" r="4"/>
</g>
<g fill="#000000">
	<circle cx="104" cy="89" r="4"/>
</g>
<g fill="#000000">
	<circle cx="146" cy="115" r="4"/>
</g>
<g fill="#000000">
	<circle cx="228" cy="59" r="4"/>
</g>
<g fill="#000000">
	<circle cx="282" cy="80" r="4"/>
</g>
<g fill="#000000">
	<circle cx="166" cy="61" r="4"/>
</g>
<g fill="#000000">
	<circle cx="148" cy="259" r="4"/>
</g>
<g fill="#000000">
	<circle cx="259" cy="216" r="4"/>
</g>
<g fill="#000000">
	<circle cx="58" cy="181" r="4"/>
</g>
<g fill="#000000">
	<circle cx="87" cy="4" r="4"/>
</g>
<g fill="#000000">
	<circle cx="32" cy="23" r="4"/>
</g>
<g fill="#000000">
	<circle cx="70" cy="56" r="4"/>
</g>
<g fill="#000000">
	<circle cx="224" cy="4" r="4"/>
</g>
<g fill="#000000">
	<circle cx="155" cy="4" r="4"/>
</g>
<g fill="#000000">
	<circle cx="356" cy="14" r="4"/>
</g>
<g fill="#000000">
	<circle cx="369" cy="71" r="4"/>
</g>
<g fill="#000000">
	<circle cx="294" cy="4" r="4"/>
</g>
<g fill="#000000">
	<circle cx="285" cy="178" r="4"/>
</g>
<g fill="#000000">
	<circle cx="213" cy="124" r="4"/>
</g>
<g fill="#000000">
	<circle cx="303" cy="263" r="4"/>
</g>
<g fill="#000000">
	<circle cx="389" cy="226" r="4"/>
</g>
<g fill="#000000">
	<circle cx="356" cy="189" r="4"/>
</g>
<g fill="#000000">
	<circle cx="115" cy="230" r="4"/>
</g>
<g fill="#000000">
	<circle cx="180" cy="294" r="4"/>
</g>
<g fill="#000000">
	<circle cx="215" cy="188" r="4"/>
</g>
<g fill="#000000">
	<circle cx="110" cy="189" r="4"/>
</g>
<g fill="#000000">
	<circle cx="94" cy="148" r="4"/>
</g>
<g fill="#000000">
	<circle cx="163" cy="209" r="4"/>
</g>
<g fill="#000000">
	<circle cx="11" cy="294" r="4"/>
</g>
<g fill="#000000">
	<circle cx="34" cy="246" r="4"/>
</g>
<g fill="#000000">
	<circle cx="70" cy="294" r="4"/>
</g>

</g>

</svg>
