<?xml version="1.0" encoding="utf-8"?>
<!-- Created with Hypercube (http://tumic.wz.cz/hypercube) -->

<svg width="400" height="300" viewBox="0 0 400 300" xmlns="http://www.w3.org/2000/svg" baseProfile="tiny">

<g font-family="Helvetica" font-weight="normal">

<g>
	<polygon points="197,163 203,157 206,166" fill="#aaff00"/>
	<line x1="288" y1="139" x2="204" y2="161" stroke="#aaff00" stroke-width="2"/>
</g>
<g>
	<polygon points="168,114 176,119 168,123" fill="#aaff00"/>
	<line x1="193" y1="165" x2="171" y2="120" stroke="#aaff00" stroke-width="2"/>
</g>
<g>
	<polygon points="118,237 120,229 126,235" fill="#aaff00"/>
	<line x1="193" y1="165" x2="123" y2="232" stroke="#aaff00" stroke-width="2"/>
</g>
<g>
	<polygon points="116,236 115,227 123,231" fill="#aaff00"/>
	<line x1="167" y1="110" x2="119" y2="230" stroke="#aaff00" stroke-width="2"/>
</g>
<g>
	<polygon points="182,59 184,68 176,65" fill="#aaff00"/>
	<line x1="167" y1="110" x2="180" y2="66" stroke="#aaff00" stroke-width="2"/>
</g>
<g>
	<polygon points="68,291 70,282 76,289" fill="#aaff00"/>
	<line x1="115" y1="241" x2="72" y2="286" stroke="#aaff00" stroke-width="2"/>
</g>
<g>
	<polygon points="204,292 195,292 199,284" fill="#aaff00"/>
	<line x1="115" y1="241" x2="197" y2="289" stroke="#aaff00" stroke-width="2"/>
</g>
<g>
	<polygon points="190,241 182,245 182,236" fill="#aaff00"/>
	<line x1="115" y1="241" x2="183" y2="241" stroke="#aaff00" stroke-width="2"/>
</g>
<g>
	<polygon points="114,245 118,253 109,252" fill="#aaff00"/>
	<line x1="110" y1="295" x2="113" y2="252" stroke="#aaff00" stroke-width="2"/>
</g>
<g>
	<polygon points="111,238 102,238 106,230" fill="#aaff00"/>
	<line x1="37" y1="193" x2="105" y2="234" stroke="#aaff00" stroke-width="2"/>
</g>
<g>
	<polygon points="110,240 102,245 102,236" fill="#aaff00"/>
	<line x1="6" y1="239" x2="103" y2="240" stroke="#aaff00" stroke-width="2"/>
</g>
<g>
	<polygon points="110,240 102,244 103,235" fill="#aaff00"/>
	<line x1="68" y1="237" x2="103" y2="240" stroke="#aaff00" stroke-width="2"/>
</g>
<g>
	<polygon points="118,238 121,229 127,236" fill="#aaff00"/>
	<line x1="151" y1="211" x2="123" y2="233" stroke="#aaff00" stroke-width="2"/>
</g>
<g>
	<polygon points="117,244 126,248 118,253" fill="#aaff00"/>
	<line x1="156" y1="295" x2="122" y2="250" stroke="#aaff00" stroke-width="2"/>
</g>
<g>
	<polygon points="111,243 106,250 102,242" fill="#aaff00"/>
	<line x1="16" y1="295" x2="104" y2="246" stroke="#aaff00" stroke-width="2"/>
</g>
<g>
	<polygon points="188,163 179,165 182,156" fill="#aaff00"/>
	<line x1="129" y1="144" x2="181" y2="161" stroke="#aaff00" stroke-width="2"/>
</g>
<g>
	<polygon points="163,113 160,121 154,114" fill="#aaff00"/>
	<line x1="129" y1="144" x2="158" y2="117" stroke="#aaff00" stroke-width="2"/>
</g>
<g>
	<polygon points="125,146 122,155 116,148" fill="#aaff00"/>
	<line x1="92" y1="175" x2="120" y2="151" stroke="#aaff00" stroke-width="2"/>
</g>
<g>
	<polygon points="124,143 116,145 117,136" fill="#aaff00"/>
	<line x1="60" y1="129" x2="117" y2="141" stroke="#aaff00" stroke-width="2"/>
</g>
<g>
	<polygon points="171,110 179,105 179,114" fill="#aaff00"/>
	<line x1="226" y1="110" x2="178" y2="110" stroke="#aaff00" stroke-width="2"/>
</g>
<g>
	<polygon points="164,106 155,103 162,97" fill="#aaff00"/>
	<line x1="99" y1="33" x2="159" y2="101" stroke="#aaff00" stroke-width="2"/>
</g>
<g>
	<polygon points="61,62 64,53 70,60" fill="#aaff00"/>
	<line x1="99" y1="33" x2="67" y2="57" stroke="#aaff00" stroke-width="2"/>
</g>
<g>
	<polygon points="69,7 78,9 72,16" fill="#aaff00"/>
	<line x1="99" y1="33" x2="74" y2="12" stroke="#aaff00" stroke-width="2"/>
</g>
<g>
	<polygon points="106,88 97,88 101,80" fill="#aaff00"/>
	<line x1="58" y1="65" x2="100" y2="85" stroke="#aaff00" stroke-width="2"/>
</g>
<g>
	<polygon points="162,108 153,110 156,101" fill="#aaff00"/>
	<line x1="111" y1="90" x2="155" y2="106" stroke="#aaff00" stroke-width="2"/>
</g>
<g>
	<polygon points="53,66 47,72 44,63" fill="#aaff00"/>
	<line x1="5" y1="78" x2="46" y2="67" stroke="#aaff00" stroke-width="2"/>
</g>
<g>
	<polygon points="94,31 85,33 88,24" fill="#aaff00"/>
	<line x1="14" y1="5" x2="87" y2="29" stroke="#aaff00" stroke-width="2"/>
</g>
<g>
	<polygon points="102,30 107,22 111,30" fill="#aaff00"/>
	<line x1="146" y1="5" x2="109" y2="27" stroke="#aaff00" stroke-width="2"/>
</g>
<g>
	<polygon points="170,106 172,98 178,104" fill="#aaff00"/>
	<line x1="236" y1="42" x2="175" y2="101" stroke="#aaff00" stroke-width="2"/>
</g>
<g>
	<polygon points="370,196 362,191 370,187" fill="#aaff00"/>
	<line x1="349" y1="153" x2="366" y2="190" stroke="#aaff00" stroke-width="2"/>
</g>
<g>
	<polygon points="331,240 333,232 339,238" fill="#aaff00"/>
	<line x1="372" y1="201" x2="336" y2="235" stroke="#aaff00" stroke-width="2"/>
</g>
<g>
	<polygon points="309,290 308,281 316,285" fill="#aaff00"/>
	<line x1="328" y1="244" x2="312" y2="284" stroke="#aaff00" stroke-width="2"/>
</g>
<g>
	<polygon points="374,205 381,209 373,214" fill="#aaff00"/>
	<line x1="395" y1="247" x2="377" y2="211" stroke="#aaff00" stroke-width="2"/>
</g>
<g>
	<polygon points="395,251 399,259 390,259" fill="#aaff00"/>
	<line x1="395" y1="295" x2="395" y2="258" stroke="#aaff00" stroke-width="2"/>
</g>
<g>
	<polygon points="344,151 336,154 338,145" fill="#aaff00"/>
	<line x1="288" y1="139" x2="337" y2="150" stroke="#aaff00" stroke-width="2"/>
</g>
<g>
	<polygon points="320,91 319,100 312,95" fill="#aaff00"/>
	<line x1="288" y1="139" x2="316" y2="97" stroke="#aaff00" stroke-width="2"/>
</g>

<g fill="#000000">
	<circle cx="287" cy="138" r="4"/>
</g>
<g fill="#000000">
	<circle cx="192" cy="164" r="4"/>
</g>
<g fill="#000000">
	<circle cx="166" cy="109" r="4"/>
</g>
<g fill="#000000">
	<circle cx="114" cy="240" r="4"/>
</g>
<g fill="#000000">
	<circle cx="91" cy="174" r="4"/>
</g>
<g fill="#000000">
	<circle cx="128" cy="143" r="4"/>
</g>
<g fill="#000000">
	<circle cx="183" cy="54" r="4"/>
</g>
<g fill="#000000">
	<circle cx="64" cy="294" r="4"/>
</g>
<g fill="#000000">
	<circle cx="207" cy="294" r="4"/>
</g>
<g fill="#000000">
	<circle cx="194" cy="240" r="4"/>
</g>
<g fill="#000000">
	<circle cx="348" cy="152" r="4"/>
</g>
<g fill="#000000">
	<circle cx="371" cy="200" r="4"/>
</g>
<g fill="#000000">
	<circle cx="327" cy="243" r="4"/>
</g>
<g fill="#000000">
	<circle cx="394" cy="294" r="4"/>
</g>
<g fill="#000000">
	<circle cx="394" cy="246" r="4"/>
</g>
<g fill="#000000">
	<circle cx="307" cy="294" r="4"/>
</g>
<g fill="#000000">
	<circle cx="225" cy="109" r="4"/>
</g>
<g fill="#000000">
	<circle cx="13" cy="4" r="4"/>
</g>
<g fill="#000000">
	<circle cx="98" cy="32" r="4"/>
</g>
<g fill="#000000">
	<circle cx="57" cy="64" r="4"/>
</g>
<g fill="#000000">
	<circle cx="65" cy="4" r="4"/>
</g>
<g fill="#000000">
	<circle cx="110" cy="89" r="4"/>
</g>
<g fill="#000000">
	<circle cx="4" cy="77" r="4"/>
</g>
<g fill="#000000">
	<circle cx="109" cy="294" r="4"/>
</g>
<g fill="#000000">
	<circle cx="36" cy="192" r="4"/>
</g>
<g fill="#000000">
	<circle cx="5" cy="238" r="4"/>
</g>
<g fill="#000000">
	<circle cx="235" cy="41" r="4"/>
</g>
<g fill="#000000">
	<circle cx="59" cy="128" r="4"/>
</g>
<g fill="#000000">
	<circle cx="145" cy="4" r="4"/>
</g>
<g fill="#000000">
	<circle cx="67" cy="236" r="4"/>
</g>
<g fill="#000000">
	<circle cx="150" cy="210" r="4"/>
</g>
<g fill="#000000">
	<circle cx="155" cy="294" r="4"/>
</g>
<g fill="#000000">
	<circle cx="15" cy="294" r="4"/>
</g>
<g fill="#000000">
	<circle cx="322" cy="87" r="4"/>
</g>

</g>

</svg>
