<?xml version="1.0" encoding="utf-8"?>
<!-- Created with Hypercube (http://tumic.wz.cz/hypercube) -->

<svg width="400" height="300" viewBox="0 0 400 300" xmlns="http://www.w3.org/2000/svg" baseProfile="tiny">

<g font-family="Helvetica" font-weight="normal">

<g>
	<polygon points="273,30 269,38 264,31" fill="#aaff00"/>
	<line x1="189" y1="90" x2="267" y2="34" stroke="#aaff00" stroke-width="2"/>
</g>
<g>
	<polygon points="281,26 286,19 290,27" fill="#aaff00"/>
	<line x1="332" y1="6" x2="287" y2="23" stroke="#aaff00" stroke-width="2"/>
</g>
<g>
	<polygon points="138,226 133,219 142,218" fill="#aaff00"/>
	<line x1="131" y1="159" x2="137" y2="219" stroke="#aaff00" stroke-width="2"/>
</g>
<g>
	<polygon points="143,230 151,226 151,235" fill="#aaff00"/>
	<line x1="275" y1="229" x2="150" y2="230" stroke="#aaff00" stroke-width="2"/>
</g>
<g>
	<polygon points="276,233 282,239 274,242" fill="#aaff00"/>
	<line x1="295" y1="293" x2="278" y2="240" stroke="#aaff00" stroke-width="2"/>
</g>
<g>
	<polygon points="299,293 307,288 307,297" fill="#aaff00"/>
	<line x1="346" y1="295" x2="306" y2="293" stroke="#aaff00" stroke-width="2"/>
</g>
<g>
	<polygon points="350,295 358,290 358,299" fill="#aaff00"/>
	<line x1="395" y1="295" x2="357" y2="295" stroke="#aaff00" stroke-width="2"/>
</g>
<g>
	<polygon points="278,226 282,218 287,225" fill="#aaff00"/>
	<line x1="351" y1="176" x2="284" y2="222" stroke="#aaff00" stroke-width="2"/>
</g>
<g>
	<polygon points="354,172 356,164 362,170" fill="#aaff00"/>
	<line x1="395" y1="132" x2="359" y2="167" stroke="#aaff00" stroke-width="2"/>
</g>
<g>
	<polygon points="354,178 363,179 358,186" fill="#aaff00"/>
	<line x1="395" y1="206" x2="360" y2="182" stroke="#aaff00" stroke-width="2"/>
</g>
<g>
	<polygon points="279,229 287,225 287,234" fill="#aaff00"/>
	<line x1="328" y1="232" x2="286" y2="229" stroke="#aaff00" stroke-width="2"/>
</g>
<g>
	<polygon points="135,233 131,241 126,233" fill="#aaff00"/>
	<line x1="89" y1="263" x2="129" y2="237" stroke="#aaff00" stroke-width="2"/>
</g>
<g>
	<polygon points="85,265 82,274 76,267" fill="#aaff00"/>
	<line x1="52" y1="295" x2="80" y2="270" stroke="#aaff00" stroke-width="2"/>
</g>
<g>
	<polygon points="47,295 39,299 39,290" fill="#aaff00"/>
	<line x1="5" y1="295" x2="40" y2="295" stroke="#aaff00" stroke-width="2"/>
</g>
<g>
	<polygon points="139,235 144,242 136,243" fill="#aaff00"/>
	<line x1="147" y1="295" x2="140" y2="242" stroke="#aaff00" stroke-width="2"/>
</g>
<g>
	<polygon points="134,229 125,230 129,222" fill="#aaff00"/>
	<line x1="63" y1="199" x2="128" y2="226" stroke="#aaff00" stroke-width="2"/>
</g>
<g>
	<polygon points="58,198 50,201 51,192" fill="#aaff00"/>
	<line x1="5" y1="191" x2="51" y2="197" stroke="#aaff00" stroke-width="2"/>
</g>
<g>
	<polygon points="323,84 316,90 315,81" fill="#aaff00"/>
	<line x1="266" y1="96" x2="316" y2="86" stroke="#aaff00" stroke-width="2"/>
</g>
<g>
	<polygon points="181,183 177,175 186,176" fill="#aaff00"/>
	<line x1="187" y1="136" x2="182" y2="176" stroke="#aaff00" stroke-width="2"/>
</g>
<g>
	<polygon points="109,34 100,34 104,26" fill="#aaff00"/>
	<line x1="60" y1="5" x2="102" y2="30" stroke="#aaff00" stroke-width="2"/>
</g>
<g>
	<polygon points="55,5 47,9 47,0" fill="#aaff00"/>
	<line x1="5" y1="5" x2="48" y2="5" stroke="#aaff00" stroke-width="2"/>
</g>
<g>
	<polygon points="235,170 237,178 229,177" fill="#aaff00"/>
	<line x1="220" y1="240" x2="233" y2="177" stroke="#aaff00" stroke-width="2"/>
</g>
<g>
	<polygon points="220,244 224,252 215,252" fill="#aaff00"/>
	<line x1="222" y1="295" x2="220" y2="251" stroke="#aaff00" stroke-width="2"/>
</g>
<g>
	<polygon points="213,45 208,38 217,37" fill="#aaff00"/>
	<line x1="211" y1="5" x2="213" y2="38" stroke="#aaff00" stroke-width="2"/>
</g>
<g>
	<polygon points="206,5 198,9 198,0" fill="#aaff00"/>
	<line x1="162" y1="5" x2="199" y2="5" stroke="#aaff00" stroke-width="2"/>
</g>
<g>
	<polygon points="52,93 60,88 60,97" fill="#aaff00"/>
	<line x1="108" y1="95" x2="59" y2="93" stroke="#aaff00" stroke-width="2"/>
</g>
<g>
	<polygon points="133,155 135,146 142,152" fill="#aaff00"/>
	<line x1="189" y1="90" x2="138" y2="150" stroke="#aaff00" stroke-width="2"/>
</g>
<g>
	<polygon points="261,95 253,99 254,90" fill="#aaff00"/>
	<line x1="189" y1="90" x2="254" y2="95" stroke="#aaff00" stroke-width="2"/>
</g>
<g>
	<polygon points="187,131 183,123 192,123" fill="#aaff00"/>
	<line x1="189" y1="90" x2="187" y2="124" stroke="#aaff00" stroke-width="2"/>
</g>
<g>
	<polygon points="116,39 125,40 120,47" fill="#aaff00"/>
	<line x1="189" y1="90" x2="122" y2="43" stroke="#aaff00" stroke-width="2"/>
</g>
<g>
	<polygon points="233,162 225,157 233,153" fill="#aaff00"/>
	<line x1="189" y1="90" x2="229" y2="156" stroke="#aaff00" stroke-width="2"/>
</g>
<g>
	<polygon points="211,53 211,62 203,58" fill="#aaff00"/>
	<line x1="189" y1="90" x2="207" y2="59" stroke="#aaff00" stroke-width="2"/>
</g>
<g>
	<polygon points="112,94 119,89 120,98" fill="#aaff00"/>
	<line x1="189" y1="90" x2="119" y2="94" stroke="#aaff00" stroke-width="2"/>
</g>

<g fill="#000000">
	<circle cx="188" cy="89" r="4"/>
</g>
<g fill="#000000">
	<circle cx="276" cy="27" r="4"/>
</g>
<g fill="#000000">
	<circle cx="331" cy="5" r="4"/>
</g>
<g fill="#000000">
	<circle cx="130" cy="158" r="4"/>
</g>
<g fill="#000000">
	<circle cx="138" cy="230" r="4"/>
</g>
<g fill="#000000">
	<circle cx="274" cy="228" r="4"/>
</g>
<g fill="#000000">
	<circle cx="294" cy="292" r="4"/>
</g>
<g fill="#000000">
	<circle cx="345" cy="294" r="4"/>
</g>
<g fill="#000000">
	<circle cx="394" cy="294" r="4"/>
</g>
<g fill="#000000">
	<circle cx="265" cy="95" r="4"/>
</g>
<g fill="#000000">
	<circle cx="327" cy="83" r="4"/>
</g>
<g fill="#000000">
	<circle cx="186" cy="135" r="4"/>
</g>
<g fill="#000000">
	<circle cx="180" cy="187" r="4"/>
</g>
<g fill="#000000">
	<circle cx="59" cy="4" r="4"/>
</g>
<g fill="#000000">
	<circle cx="112" cy="36" r="4"/>
</g>
<g fill="#000000">
	<circle cx="4" cy="4" r="4"/>
</g>
<g fill="#000000">
	<circle cx="219" cy="239" r="4"/>
</g>
<g fill="#000000">
	<circle cx="235" cy="165" r="4"/>
</g>
<g fill="#000000">
	<circle cx="210" cy="4" r="4"/>
</g>
<g fill="#000000">
	<circle cx="213" cy="49" r="4"/>
</g>
<g fill="#000000">
	<circle cx="161" cy="4" r="4"/>
</g>
<g fill="#000000">
	<circle cx="221" cy="294" r="4"/>
</g>
<g fill="#000000">
	<circle cx="350" cy="175" r="4"/>
</g>
<g fill="#000000">
	<circle cx="88" cy="262" r="4"/>
</g>
<g fill="#000000">
	<circle cx="51" cy="294" r="4"/>
</g>
<g fill="#000000">
	<circle cx="4" cy="294" r="4"/>
</g>
<g fill="#000000">
	<circle cx="394" cy="131" r="4"/>
</g>
<g fill="#000000">
	<circle cx="327" cy="231" r="4"/>
</g>
<g fill="#000000">
	<circle cx="107" cy="94" r="4"/>
</g>
<g fill="#000000">
	<circle cx="47" cy="92" r="4"/>
</g>
<g fill="#000000">
	<circle cx="146" cy="294" r="4"/>
</g>
<g fill="#000000">
	<circle cx="394" cy="205" r="4"/>
</g>
<g fill="#000000">
	<circle cx="62" cy="198" r="4"/>
</g>
<g fill="#000000">
	<circle cx="4" cy="190" r="4"/>
</g>

</g>

</svg>
