<?xml version="1.0" encoding="utf-8"?>
<!-- Created with Hypercube (http://tumic.wz.cz/hypercube) -->

<svg width="400" height="300" viewBox="0 0 400 300" xmlns="http://www.w3.org/2000/svg" baseProfile="tiny">

<g font-family="Helvetica" font-weight="normal">

<g>
	<polygon points="90,101 82,97 89,92" fill="#aaff00"/>
	<line x1="53" y1="49" x2="86" y2="95" stroke="#aaff00" stroke-width="2"/>
</g>
<g>
	<polygon points="109,215 103,208 112,207" fill="#aaff00"/>
	<line x1="93" y1="105" x2="108" y2="208" stroke="#aaff00" stroke-width="2"/>
</g>
<g>
	<polygon points="177,52 172,60 168,52" fill="#aaff00"/>
	<line x1="93" y1="105" x2="171" y2="56" stroke="#aaff00" stroke-width="2"/>
</g>
<g>
	<polygon points="60,291 61,282 68,287" fill="#aaff00"/>
	<line x1="110" y1="220" x2="64" y2="285" stroke="#aaff00" stroke-width="2"/>
</g>
<g>
	<polygon points="151,176 149,184 143,178" fill="#aaff00"/>
	<line x1="110" y1="220" x2="146" y2="181" stroke="#aaff00" stroke-width="2"/>
</g>
<g>
	<polygon points="105,280 101,272 110,273" fill="#aaff00"/>
	<line x1="110" y1="220" x2="105" y2="273" stroke="#aaff00" stroke-width="2"/>
</g>
<g>
	<polygon points="9,295 17,290 17,299" fill="#aaff00"/>
	<line x1="58" y1="295" x2="16" y2="295" stroke="#aaff00" stroke-width="2"/>
</g>
<g>
	<polygon points="100,285 93,291 92,283" fill="#aaff00"/>
	<line x1="58" y1="295" x2="93" y2="287" stroke="#aaff00" stroke-width="2"/>
</g>
<g>
	<polygon points="159,171 165,165 168,173" fill="#aaff00"/>
	<line x1="215" y1="155" x2="166" y2="169" stroke="#aaff00" stroke-width="2"/>
</g>
<g>
	<polygon points="213,150 205,145 213,141" fill="#aaff00"/>
	<line x1="189" y1="101" x2="209" y2="144" stroke="#aaff00" stroke-width="2"/>
</g>
<g>
	<polygon points="147,88 156,86 153,94" fill="#aaff00"/>
	<line x1="189" y1="101" x2="154" y2="90" stroke="#aaff00" stroke-width="2"/>
</g>
<g>
	<polygon points="262,68 254,71 256,62" fill="#aaff00"/>
	<line x1="181" y1="50" x2="255" y2="67" stroke="#aaff00" stroke-width="2"/>
</g>
<g>
	<polygon points="188,96 182,89 191,88" fill="#aaff00"/>
	<line x1="181" y1="50" x2="187" y2="89" stroke="#aaff00" stroke-width="2"/>
</g>
<g>
	<polygon points="346,129 337,128 342,121" fill="#aaff00"/>
	<line x1="267" y1="70" x2="340" y2="125" stroke="#aaff00" stroke-width="2"/>
</g>
<g>
	<polygon points="302,97 293,96 298,88" fill="#aaff00"/>
	<line x1="267" y1="70" x2="296" y2="92" stroke="#aaff00" stroke-width="2"/>
</g>
<g>
	<polygon points="311,195 311,186 319,190" fill="#aaff00"/>
	<line x1="350" y1="132" x2="315" y2="189" stroke="#aaff00" stroke-width="2"/>
</g>
<g>
	<polygon points="352,186 347,178 356,178" fill="#aaff00"/>
	<line x1="350" y1="132" x2="352" y2="179" stroke="#aaff00" stroke-width="2"/>
</g>
<g>
	<polygon points="390,70 389,79 382,74" fill="#aaff00"/>
	<line x1="350" y1="132" x2="386" y2="76" stroke="#aaff00" stroke-width="2"/>
</g>
<g>
	<polygon points="390,116 385,123 381,115" fill="#aaff00"/>
	<line x1="350" y1="132" x2="384" y2="119" stroke="#aaff00" stroke-width="2"/>
</g>
<g>
	<polygon points="298,160 304,166 295,169" fill="#aaff00"/>
	<line x1="309" y1="199" x2="300" y2="167" stroke="#aaff00" stroke-width="2"/>
</g>
<g>
	<polygon points="265,208 271,202 273,211" fill="#aaff00"/>
	<line x1="309" y1="199" x2="272" y2="207" stroke="#aaff00" stroke-width="2"/>
</g>
<g>
	<polygon points="219,155 227,150 227,159" fill="#aaff00"/>
	<line x1="297" y1="156" x2="226" y2="155" stroke="#aaff00" stroke-width="2"/>
</g>
<g>
	<polygon points="305,104 308,112 299,111" fill="#aaff00"/>
	<line x1="297" y1="156" x2="304" y2="111" stroke="#aaff00" stroke-width="2"/>
</g>
<g>
	<polygon points="300,158 309,158 305,166" fill="#aaff00"/>
	<line x1="353" y1="191" x2="306" y2="162" stroke="#aaff00" stroke-width="2"/>
</g>
<g>
	<polygon points="265,209 272,203 273,211" fill="#aaff00"/>
	<line x1="353" y1="191" x2="272" y2="207" stroke="#aaff00" stroke-width="2"/>
</g>
<g>
	<polygon points="187,218 194,213 195,222" fill="#aaff00"/>
	<line x1="261" y1="210" x2="194" y2="217" stroke="#aaff00" stroke-width="2"/>
</g>
<g>
	<polygon points="252,126 257,133 248,134" fill="#aaff00"/>
	<line x1="261" y1="210" x2="253" y2="133" stroke="#aaff00" stroke-width="2"/>
</g>
<g>
	<polygon points="269,259 263,252 272,251" fill="#aaff00"/>
	<line x1="261" y1="210" x2="268" y2="252" stroke="#aaff00" stroke-width="2"/>
</g>
<g>
	<polygon points="87,173 96,173 92,181" fill="#aaff00"/>
	<line x1="183" y1="219" x2="93" y2="176" stroke="#aaff00" stroke-width="2"/>
</g>
<g>
	<polygon points="20,161 28,158 27,167" fill="#aaff00"/>
	<line x1="83" y1="172" x2="27" y2="162" stroke="#aaff00" stroke-width="2"/>
</g>
<g>
	<polygon points="5,209 3,201 11,202" fill="#aaff00"/>
	<line x1="16" y1="161" x2="7" y2="202" stroke="#aaff00" stroke-width="2"/>
</g>
<g>
	<polygon points="55,239 47,240 51,232" fill="#aaff00"/>
	<line x1="5" y1="214" x2="49" y2="236" stroke="#aaff00" stroke-width="2"/>
</g>
<g>
	<polygon points="153,289 144,290 148,282" fill="#aaff00"/>
	<line x1="60" y1="242" x2="146" y2="286" stroke="#aaff00" stroke-width="2"/>
</g>
<g>
	<polygon points="227,294 219,299 219,290" fill="#aaff00"/>
	<line x1="157" y1="292" x2="220" y2="294" stroke="#aaff00" stroke-width="2"/>
</g>
<g>
	<polygon points="296,295 288,299 288,290" fill="#aaff00"/>
	<line x1="232" y1="295" x2="289" y2="295" stroke="#aaff00" stroke-width="2"/>
</g>
<g>
	<polygon points="266,266 263,275 257,268" fill="#aaff00"/>
	<line x1="232" y1="295" x2="260" y2="271" stroke="#aaff00" stroke-width="2"/>
</g>
<g>
	<polygon points="273,267 281,269 275,275" fill="#aaff00"/>
	<line x1="301" y1="295" x2="278" y2="272" stroke="#aaff00" stroke-width="2"/>
</g>
<g>
	<polygon points="218,152 221,143 227,150" fill="#aaff00"/>
	<line x1="252" y1="122" x2="223" y2="147" stroke="#aaff00" stroke-width="2"/>
</g>
<g>
	<polygon points="276,23 279,32 270,29" fill="#aaff00"/>
	<line x1="252" y1="122" x2="275" y2="30" stroke="#aaff00" stroke-width="2"/>
</g>
<g>
	<polygon points="328,6 322,12 319,3" fill="#aaff00"/>
	<line x1="278" y1="19" x2="321" y2="7" stroke="#aaff00" stroke-width="2"/>
</g>
<g>
	<polygon points="385,6 377,11 377,2" fill="#aaff00"/>
	<line x1="333" y1="5" x2="378" y2="6" stroke="#aaff00" stroke-width="2"/>
</g>
<g>
	<polygon points="392,62 387,54 396,54" fill="#aaff00"/>
	<line x1="390" y1="7" x2="392" y2="55" stroke="#aaff00" stroke-width="2"/>
</g>
<g>
	<polygon points="394,110 389,102 398,102" fill="#aaff00"/>
	<line x1="393" y1="67" x2="394" y2="103" stroke="#aaff00" stroke-width="2"/>
</g>
<g>
	<polygon points="50,45 42,41 49,36" fill="#aaff00"/>
	<line x1="20" y1="5" x2="45" y2="39" stroke="#aaff00" stroke-width="2"/>
</g>

<g fill="#000000">
	<circle cx="19" cy="4" r="4"/>
</g>
<g fill="#000000">
	<circle cx="52" cy="48" r="4"/>
</g>
<g fill="#000000">
	<circle cx="92" cy="104" r="4"/>
</g>
<g fill="#000000">
	<circle cx="109" cy="219" r="4"/>
</g>
<g fill="#000000">
	<circle cx="180" cy="49" r="4"/>
</g>
<g fill="#000000">
	<circle cx="57" cy="294" r="4"/>
</g>
<g fill="#000000">
	<circle cx="154" cy="172" r="4"/>
</g>
<g fill="#000000">
	<circle cx="266" cy="69" r="4"/>
</g>
<g fill="#000000">
	<circle cx="188" cy="100" r="4"/>
</g>
<g fill="#000000">
	<circle cx="4" cy="294" r="4"/>
</g>
<g fill="#000000">
	<circle cx="104" cy="284" r="4"/>
</g>
<g fill="#000000">
	<circle cx="349" cy="131" r="4"/>
</g>
<g fill="#000000">
	<circle cx="214" cy="154" r="4"/>
</g>
<g fill="#000000">
	<circle cx="142" cy="86" r="4"/>
</g>
<g fill="#000000">
	<circle cx="308" cy="198" r="4"/>
</g>
<g fill="#000000">
	<circle cx="352" cy="190" r="4"/>
</g>
<g fill="#000000">
	<circle cx="296" cy="155" r="4"/>
</g>
<g fill="#000000">
	<circle cx="260" cy="209" r="4"/>
</g>
<g fill="#000000">
	<circle cx="305" cy="99" r="4"/>
</g>
<g fill="#000000">
	<circle cx="182" cy="218" r="4"/>
</g>
<g fill="#000000">
	<circle cx="251" cy="121" r="4"/>
</g>
<g fill="#000000">
	<circle cx="82" cy="171" r="4"/>
</g>
<g fill="#000000">
	<circle cx="277" cy="18" r="4"/>
</g>
<g fill="#000000">
	<circle cx="15" cy="160" r="4"/>
</g>
<g fill="#000000">
	<circle cx="4" cy="213" r="4"/>
</g>
<g fill="#000000">
	<circle cx="59" cy="241" r="4"/>
</g>
<g fill="#000000">
	<circle cx="156" cy="291" r="4"/>
</g>
<g fill="#000000">
	<circle cx="231" cy="294" r="4"/>
</g>
<g fill="#000000">
	<circle cx="300" cy="294" r="4"/>
</g>
<g fill="#000000">
	<circle cx="269" cy="263" r="4"/>
</g>
<g fill="#000000">
	<circle cx="332" cy="4" r="4"/>
</g>
<g fill="#000000">
	<circle cx="389" cy="6" r="4"/>
</g>
<g fill="#000000">
	<circle cx="392" cy="66" r="4"/>
</g>
<g fill="#000000">
	<circle cx="394" cy="114" r="4"/>
</g>

</g>

</svg>
