<?xml version="1.0" encoding="utf-8"?>
<!-- Created with Hypercube (http://tumic.wz.cz/hypercube) -->

<svg width="400" height="300" viewBox="0 0 400 300" xmlns="http://www.w3.org/2000/svg" baseProfile="tiny">

<g font-family="Helvetica" font-weight="normal">

<g>
	<polygon points="154,112 159,104 163,112" fill="#aaff00"/>
	<line x1="281" y1="50" x2="160" y2="108" stroke="#aaff00" stroke-width="2"/>
</g>
<g>
	<polygon points="312,9 311,18 303,12" fill="#aaff00"/>
	<line x1="281" y1="50" x2="307" y2="15" stroke="#aaff00" stroke-width="2"/>
</g>
<g>
	<polygon points="259,9 266,14 258,18" fill="#aaff00"/>
	<line x1="281" y1="50" x2="262" y2="16" stroke="#aaff00" stroke-width="2"/>
</g>
<g>
	<polygon points="362,8 358,15 354,7" fill="#aaff00"/>
	<line x1="281" y1="50" x2="356" y2="11" stroke="#aaff00" stroke-width="2"/>
</g>
<g>
	<polygon points="67,142 73,135 76,144" fill="#aaff00"/>
	<line x1="150" y1="114" x2="74" y2="140" stroke="#aaff00" stroke-width="2"/>
</g>
<g>
	<polygon points="59,146 55,154 50,147" fill="#aaff00"/>
	<line x1="8" y1="185" x2="53" y2="150" stroke="#aaff00" stroke-width="2"/>
</g>
<g>
	<polygon points="9,189 15,195 6,197" fill="#aaff00"/>
	<line x1="21" y1="241" x2="10" y2="196" stroke="#aaff00" stroke-width="2"/>
</g>
<g>
	<polygon points="77,229 70,235 69,226" fill="#aaff00"/>
	<line x1="21" y1="241" x2="70" y2="231" stroke="#aaff00" stroke-width="2"/>
</g>
<g>
	<polygon points="191,191 185,198 182,189" fill="#aaff00"/>
	<line x1="82" y1="229" x2="184" y2="193" stroke="#aaff00" stroke-width="2"/>
</g>
<g>
	<polygon points="231,185 224,190 223,182" fill="#aaff00"/>
	<line x1="196" y1="190" x2="224" y2="186" stroke="#aaff00" stroke-width="2"/>
</g>
<g>
	<polygon points="210,140 212,149 204,146" fill="#aaff00"/>
	<line x1="196" y1="190" x2="208" y2="147" stroke="#aaff00" stroke-width="2"/>
</g>
<g>
	<polygon points="226,84 228,93 220,90" fill="#aaff00"/>
	<line x1="196" y1="190" x2="224" y2="91" stroke="#aaff00" stroke-width="2"/>
</g>
<g>
	<polygon points="247,133 250,141 241,139" fill="#aaff00"/>
	<line x1="236" y1="185" x2="246" y2="140" stroke="#aaff00" stroke-width="2"/>
</g>
<g>
	<polygon points="253,130 262,127 259,136" fill="#aaff00"/>
	<line x1="370" y1="163" x2="260" y2="132" stroke="#aaff00" stroke-width="2"/>
</g>
<g>
	<polygon points="371,158 371,149 379,153" fill="#aaff00"/>
	<line x1="394" y1="111" x2="374" y2="152" stroke="#aaff00" stroke-width="2"/>
</g>
<g>
	<polygon points="370,64 377,69 369,73" fill="#aaff00"/>
	<line x1="394" y1="111" x2="373" y2="71" stroke="#aaff00" stroke-width="2"/>
</g>
<g>
	<polygon points="285,50 293,47 292,56" fill="#aaff00"/>
	<line x1="368" y1="61" x2="292" y2="51" stroke="#aaff00" stroke-width="2"/>
</g>
<g>
	<polygon points="246,125 237,122 244,116" fill="#aaff00"/>
	<line x1="144" y1="7" x2="241" y2="120" stroke="#aaff00" stroke-width="2"/>
</g>
<g>
	<polygon points="139,7 132,12 131,4" fill="#aaff00"/>
	<line x1="64" y1="17" x2="132" y2="8" stroke="#aaff00" stroke-width="2"/>
</g>
<g>
	<polygon points="23,68 25,59 32,65" fill="#aaff00"/>
	<line x1="64" y1="17" x2="28" y2="62" stroke="#aaff00" stroke-width="2"/>
</g>
<g>
	<polygon points="60,140 52,135 60,131" fill="#aaff00"/>
	<line x1="21" y1="72" x2="57" y2="133" stroke="#aaff00" stroke-width="2"/>
</g>
<g>
	<polygon points="245,126 236,124 242,117" fill="#aaff00"/>
	<line x1="180" y1="69" x2="240" y2="121" stroke="#aaff00" stroke-width="2"/>
</g>
<g>
	<polygon points="175,67 166,69 169,61" fill="#aaff00"/>
	<line x1="131" y1="54" x2="168" y2="65" stroke="#aaff00" stroke-width="2"/>
</g>
<g>
	<polygon points="85,85 89,77 94,84" fill="#aaff00"/>
	<line x1="131" y1="54" x2="91" y2="81" stroke="#aaff00" stroke-width="2"/>
</g>
<g>
	<polygon points="196,9 192,17 187,10" fill="#aaff00"/>
	<line x1="131" y1="54" x2="190" y2="13" stroke="#aaff00" stroke-width="2"/>
</g>
<g>
	<polygon points="64,139 62,130 71,133" fill="#aaff00"/>
	<line x1="82" y1="88" x2="66" y2="132" stroke="#aaff00" stroke-width="2"/>
</g>
<g>
	<polygon points="277,47 268,48 272,40" fill="#aaff00"/>
	<line x1="200" y1="7" x2="270" y2="44" stroke="#aaff00" stroke-width="2"/>
</g>
<g>
	<polygon points="248,133 250,141 241,140" fill="#aaff00"/>
	<line x1="223" y1="249" x2="246" y2="140" stroke="#aaff00" stroke-width="2"/>
</g>
<g>
	<polygon points="219,252 217,260 211,254" fill="#aaff00"/>
	<line x1="178" y1="294" x2="214" y2="257" stroke="#aaff00" stroke-width="2"/>
</g>
<g>
	<polygon points="122,266 131,266 127,274" fill="#aaff00"/>
	<line x1="178" y1="294" x2="128" y2="270" stroke="#aaff00" stroke-width="2"/>
</g>
<g>
	<polygon points="64,148 72,153 63,157" fill="#aaff00"/>
	<line x1="118" y1="265" x2="67" y2="154" stroke="#aaff00" stroke-width="2"/>
</g>
<g>
	<polygon points="244,129 237,135 236,126" fill="#aaff00"/>
	<line x1="212" y1="136" x2="237" y2="131" stroke="#aaff00" stroke-width="2"/>
</g>
<g>
	<polygon points="277,52 272,59 268,52" fill="#aaff00"/>
	<line x1="228" y1="80" x2="270" y2="55" stroke="#aaff00" stroke-width="2"/>
</g>
<g>
	<polygon points="200,190 208,185 208,194" fill="#aaff00"/>
	<line x1="282" y1="192" x2="207" y2="190" stroke="#aaff00" stroke-width="2"/>
</g>
<g>
	<polygon points="283,187 282,178 290,182" fill="#aaff00"/>
	<line x1="300" y1="143" x2="286" y2="181" stroke="#aaff00" stroke-width="2"/>
</g>
<g>
	<polygon points="304,91 308,99 299,98" fill="#aaff00"/>
	<line x1="300" y1="143" x2="303" y2="98" stroke="#aaff00" stroke-width="2"/>
</g>
<g>
	<polygon points="283,53 291,57 283,62" fill="#aaff00"/>
	<line x1="305" y1="87" x2="287" y2="59" stroke="#aaff00" stroke-width="2"/>
</g>
<g>
	<polygon points="199,192 208,192 203,200" fill="#aaff00"/>
	<line x1="289" y1="250" x2="205" y2="196" stroke="#aaff00" stroke-width="2"/>
</g>
<g>
	<polygon points="292,247 297,240 301,248" fill="#aaff00"/>
	<line x1="349" y1="217" x2="299" y2="244" stroke="#aaff00" stroke-width="2"/>
</g>
<g>
	<polygon points="343,126 348,133 339,134" fill="#aaff00"/>
	<line x1="349" y1="217" x2="343" y2="133" stroke="#aaff00" stroke-width="2"/>
</g>
<g>
	<polygon points="283,53 292,56 285,62" fill="#aaff00"/>
	<line x1="343" y1="122" x2="288" y2="58" stroke="#aaff00" stroke-width="2"/>
</g>
<g>
	<polygon points="191,191 185,198 182,189" fill="#aaff00"/>
	<line x1="146" y1="206" x2="184" y2="193" stroke="#aaff00" stroke-width="2"/>
</g>
<g>
	<polygon points="142,202 133,201 139,194" fill="#aaff00"/>
	<line x1="111" y1="174" x2="137" y2="198" stroke="#aaff00" stroke-width="2"/>
</g>

<g fill="#000000">
	<circle cx="280" cy="49" r="4"/>
</g>
<g fill="#000000">
	<circle cx="149" cy="113" r="4"/>
</g>
<g fill="#000000">
	<circle cx="314" cy="5" r="4"/>
</g>
<g fill="#000000">
	<circle cx="256" cy="5" r="4"/>
</g>
<g fill="#000000">
	<circle cx="366" cy="5" r="4"/>
</g>
<g fill="#000000">
	<circle cx="248" cy="128" r="4"/>
</g>
<g fill="#000000">
	<circle cx="62" cy="143" r="4"/>
</g>
<g fill="#000000">
	<circle cx="299" cy="142" r="4"/>
</g>
<g fill="#000000">
	<circle cx="281" cy="191" r="4"/>
</g>
<g fill="#000000">
	<circle cx="304" cy="86" r="4"/>
</g>
<g fill="#000000">
	<circle cx="393" cy="110" r="4"/>
</g>
<g fill="#000000">
	<circle cx="369" cy="162" r="4"/>
</g>
<g fill="#000000">
	<circle cx="367" cy="60" r="4"/>
</g>
<g fill="#000000">
	<circle cx="20" cy="240" r="4"/>
</g>
<g fill="#000000">
	<circle cx="7" cy="184" r="4"/>
</g>
<g fill="#000000">
	<circle cx="81" cy="228" r="4"/>
</g>
<g fill="#000000">
	<circle cx="63" cy="16" r="4"/>
</g>
<g fill="#000000">
	<circle cx="143" cy="6" r="4"/>
</g>
<g fill="#000000">
	<circle cx="20" cy="71" r="4"/>
</g>
<g fill="#000000">
	<circle cx="130" cy="53" r="4"/>
</g>
<g fill="#000000">
	<circle cx="179" cy="68" r="4"/>
</g>
<g fill="#000000">
	<circle cx="81" cy="87" r="4"/>
</g>
<g fill="#000000">
	<circle cx="199" cy="6" r="4"/>
</g>
<g fill="#000000">
	<circle cx="177" cy="293" r="4"/>
</g>
<g fill="#000000">
	<circle cx="222" cy="248" r="4"/>
</g>
<g fill="#000000">
	<circle cx="117" cy="264" r="4"/>
</g>
<g fill="#000000">
	<circle cx="348" cy="216" r="4"/>
</g>
<g fill="#000000">
	<circle cx="288" cy="249" r="4"/>
</g>
<g fill="#000000">
	<circle cx="342" cy="121" r="4"/>
</g>
<g fill="#000000">
	<circle cx="110" cy="173" r="4"/>
</g>
<g fill="#000000">
	<circle cx="145" cy="205" r="4"/>
</g>
<g fill="#000000">
	<circle cx="195" cy="189" r="4"/>
</g>
<g fill="#000000">
	<circle cx="235" cy="184" r="4"/>
</g>
<g fill="#000000">
	<circle cx="211" cy="135" r="4"/>
</g>
<g fill="#000000">
	<circle cx="227" cy="79" r="4"/>
</g>

</g>

</svg>
