<?xml version="1.0" encoding="utf-8"?>
<!-- Created with Hypercube (http://tumic.wz.cz/hypercube) -->

<svg width="400" height="300" viewBox="0 0 400 300" xmlns="http://www.w3.org/2000/svg" baseProfile="tiny">

<g font-family="Helvetica" font-weight="normal">

<g>
	<polygon points="114,147 111,156 105,148" fill="#aaff00"/>
	<line x1="61" y1="189" x2="108" y2="152" stroke="#aaff00" stroke-width="2"/>
</g>
<g>
	<polygon points="224,185 215,186 219,178" fill="#aaff00"/>
	<line x1="118" y1="145" x2="218" y2="182" stroke="#aaff00" stroke-width="2"/>
</g>
<g>
	<polygon points="208,227 208,218 216,222" fill="#aaff00"/>
	<line x1="229" y1="187" x2="212" y2="221" stroke="#aaff00" stroke-width="2"/>
</g>
<g>
	<polygon points="159,220 164,212 168,220" fill="#aaff00"/>
	<line x1="229" y1="187" x2="165" y2="217" stroke="#aaff00" stroke-width="2"/>
</g>
<g>
	<polygon points="317,230 308,230 312,222" fill="#aaff00"/>
	<line x1="229" y1="187" x2="311" y2="226" stroke="#aaff00" stroke-width="2"/>
</g>
<g>
	<polygon points="229,182 225,174 234,175" fill="#aaff00"/>
	<line x1="238" y1="80" x2="229" y2="175" stroke="#aaff00" stroke-width="2"/>
</g>
<g>
	<polygon points="187,69 195,66 194,75" fill="#aaff00"/>
	<line x1="238" y1="80" x2="194" y2="71" stroke="#aaff00" stroke-width="2"/>
</g>
<g>
	<polygon points="117,140 111,133 120,132" fill="#aaff00"/>
	<line x1="104" y1="72" x2="115" y2="133" stroke="#aaff00" stroke-width="2"/>
</g>
<g>
	<polygon points="233,79 225,83 225,74" fill="#aaff00"/>
	<line x1="104" y1="72" x2="226" y2="79" stroke="#aaff00" stroke-width="2"/>
</g>
<g>
	<polygon points="50,92 55,85 59,93" fill="#aaff00"/>
	<line x1="104" y1="72" x2="56" y2="89" stroke="#aaff00" stroke-width="2"/>
</g>
<g>
	<polygon points="100,69 91,69 95,61" fill="#aaff00"/>
	<line x1="37" y1="32" x2="93" y2="66" stroke="#aaff00" stroke-width="2"/>
</g>
<g>
	<polygon points="103,67 97,60 106,59" fill="#aaff00"/>
	<line x1="94" y1="7" x2="102" y2="60" stroke="#aaff00" stroke-width="2"/>
</g>
<g>
	<polygon points="242,81 251,80 247,88" fill="#aaff00"/>
	<line x1="310" y1="111" x2="248" y2="84" stroke="#aaff00" stroke-width="2"/>
</g>
<g>
	<polygon points="238,75 236,67 244,68" fill="#aaff00"/>
	<line x1="253" y1="7" x2="240" y2="68" stroke="#aaff00" stroke-width="2"/>
</g>
<g>
	<polygon points="339,5 331,9 331,0" fill="#aaff00"/>
	<line x1="253" y1="7" x2="332" y2="5" stroke="#aaff00" stroke-width="2"/>
</g>
<g>
	<polygon points="292,5 284,10 284,1" fill="#aaff00"/>
	<line x1="253" y1="7" x2="285" y2="5" stroke="#aaff00" stroke-width="2"/>
</g>
<g>
	<polygon points="336,53 333,45 342,46" fill="#aaff00"/>
	<line x1="344" y1="5" x2="337" y2="46" stroke="#aaff00" stroke-width="2"/>
</g>
<g>
	<polygon points="242,79 249,72 250,81" fill="#aaff00"/>
	<line x1="336" y1="58" x2="249" y2="77" stroke="#aaff00" stroke-width="2"/>
</g>
<g>
	<polygon points="348,5 356,0 356,9" fill="#aaff00"/>
	<line x1="395" y1="5" x2="355" y2="5" stroke="#aaff00" stroke-width="2"/>
</g>
<g>
	<polygon points="248,6 240,11 240,2" fill="#aaff00"/>
	<line x1="167" y1="5" x2="241" y2="6" stroke="#aaff00" stroke-width="2"/>
</g>
<g>
	<polygon points="248,6 240,10 240,1" fill="#aaff00"/>
	<line x1="213" y1="5" x2="241" y2="6" stroke="#aaff00" stroke-width="2"/>
</g>
<g>
	<polygon points="242,78 247,70 251,79" fill="#aaff00"/>
	<line x1="278" y1="62" x2="248" y2="75" stroke="#aaff00" stroke-width="2"/>
</g>
<g>
	<polygon points="226,182 219,178 227,173" fill="#aaff00"/>
	<line x1="202" y1="133" x2="223" y2="176" stroke="#aaff00" stroke-width="2"/>
</g>
<g>
	<polygon points="227,191 229,200 220,197" fill="#aaff00"/>
	<line x1="194" y1="285" x2="225" y2="198" stroke="#aaff00" stroke-width="2"/>
</g>
<g>
	<polygon points="231,190 239,195 231,199" fill="#aaff00"/>
	<line x1="263" y1="242" x2="235" y2="196" stroke="#aaff00" stroke-width="2"/>
</g>
<g>
	<polygon points="233,187 241,183 240,192" fill="#aaff00"/>
	<line x1="281" y1="193" x2="240" y2="188" stroke="#aaff00" stroke-width="2"/>
</g>
<g>
	<polygon points="233,186 240,181 241,190" fill="#aaff00"/>
	<line x1="339" y1="174" x2="240" y2="185" stroke="#aaff00" stroke-width="2"/>
</g>
<g>
	<polygon points="224,185 215,188 218,179" fill="#aaff00"/>
	<line x1="172" y1="171" x2="217" y2="183" stroke="#aaff00" stroke-width="2"/>
</g>
<g>
	<polygon points="231,183 232,174 239,179" fill="#aaff00"/>
	<line x1="260" y1="142" x2="235" y2="177" stroke="#aaff00" stroke-width="2"/>
</g>
<g>
	<polygon points="126,291 117,288 124,282" fill="#aaff00"/>
	<line x1="88" y1="246" x2="121" y2="286" stroke="#aaff00" stroke-width="2"/>
</g>
<g>
	<polygon points="64,295 72,290 72,299" fill="#aaff00"/>
	<line x1="129" y1="295" x2="71" y2="295" stroke="#aaff00" stroke-width="2"/>
</g>
<g>
	<polygon points="9,295 17,290 17,299" fill="#aaff00"/>
	<line x1="60" y1="295" x2="16" y2="295" stroke="#aaff00" stroke-width="2"/>
</g>
<g>
	<polygon points="133,295 141,290 141,299" fill="#aaff00"/>
	<line x1="244" y1="295" x2="140" y2="295" stroke="#aaff00" stroke-width="2"/>
</g>
<g>
	<polygon points="248,295 256,290 256,299" fill="#aaff00"/>
	<line x1="309" y1="295" x2="255" y2="295" stroke="#aaff00" stroke-width="2"/>
</g>
<g>
	<polygon points="86,241 78,236 86,232" fill="#aaff00"/>
	<line x1="61" y1="189" x2="82" y2="235" stroke="#aaff00" stroke-width="2"/>
</g>
<g>
	<polygon points="9,187 17,182 17,191" fill="#aaff00"/>
	<line x1="61" y1="189" x2="16" y2="187" stroke="#aaff00" stroke-width="2"/>
</g>

<g fill="#000000">
	<circle cx="60" cy="188" r="4"/>
</g>
<g fill="#000000">
	<circle cx="117" cy="144" r="4"/>
</g>
<g fill="#000000">
	<circle cx="228" cy="186" r="4"/>
</g>
<g fill="#000000">
	<circle cx="36" cy="31" r="4"/>
</g>
<g fill="#000000">
	<circle cx="103" cy="71" r="4"/>
</g>
<g fill="#000000">
	<circle cx="237" cy="79" r="4"/>
</g>
<g fill="#000000">
	<circle cx="45" cy="93" r="4"/>
</g>
<g fill="#000000">
	<circle cx="182" cy="68" r="4"/>
</g>
<g fill="#000000">
	<circle cx="206" cy="231" r="4"/>
</g>
<g fill="#000000">
	<circle cx="154" cy="221" r="4"/>
</g>
<g fill="#000000">
	<circle cx="321" cy="231" r="4"/>
</g>
<g fill="#000000">
	<circle cx="87" cy="245" r="4"/>
</g>
<g fill="#000000">
	<circle cx="128" cy="294" r="4"/>
</g>
<g fill="#000000">
	<circle cx="59" cy="294" r="4"/>
</g>
<g fill="#000000">
	<circle cx="308" cy="294" r="4"/>
</g>
<g fill="#000000">
	<circle cx="243" cy="294" r="4"/>
</g>
<g fill="#000000">
	<circle cx="4" cy="294" r="4"/>
</g>
<g fill="#000000">
	<circle cx="309" cy="110" r="4"/>
</g>
<g fill="#000000">
	<circle cx="166" cy="4" r="4"/>
</g>
<g fill="#000000">
	<circle cx="252" cy="6" r="4"/>
</g>
<g fill="#000000">
	<circle cx="343" cy="4" r="4"/>
</g>
<g fill="#000000">
	<circle cx="296" cy="4" r="4"/>
</g>
<g fill="#000000">
	<circle cx="335" cy="57" r="4"/>
</g>
<g fill="#000000">
	<circle cx="394" cy="4" r="4"/>
</g>
<g fill="#000000">
	<circle cx="201" cy="132" r="4"/>
</g>
<g fill="#000000">
	<circle cx="193" cy="284" r="4"/>
</g>
<g fill="#000000">
	<circle cx="262" cy="241" r="4"/>
</g>
<g fill="#000000">
	<circle cx="277" cy="61" r="4"/>
</g>
<g fill="#000000">
	<circle cx="93" cy="6" r="4"/>
</g>
<g fill="#000000">
	<circle cx="212" cy="4" r="4"/>
</g>
<g fill="#000000">
	<circle cx="280" cy="192" r="4"/>
</g>
<g fill="#000000">
	<circle cx="338" cy="173" r="4"/>
</g>
<g fill="#000000">
	<circle cx="171" cy="170" r="4"/>
</g>
<g fill="#000000">
	<circle cx="259" cy="141" r="4"/>
</g>
<g fill="#000000">
	<circle cx="4" cy="186" r="4"/>
</g>

</g>

</svg>
