<?xml version="1.0" encoding="utf-8"?>
<!-- Created with Hypercube (http://tumic.wz.cz/hypercube) -->

<svg width="400" height="300" viewBox="0 0 400 300" xmlns="http://www.w3.org/2000/svg" baseProfile="tiny">

<g font-family="Helvetica" font-weight="normal">

<g>
	<polygon points="208,44 210,35 216,42" fill="#aaff00"/>
	<line x1="246" y1="5" x2="213" y2="39" stroke="#aaff00" stroke-width="2"/>
</g>
<g>
	<polygon points="121,158 119,149 127,152" fill="#aaff00"/>
	<line x1="141" y1="94" x2="123" y2="151" stroke="#aaff00" stroke-width="2"/>
</g>
<g>
	<polygon points="115,162 107,165 108,157" fill="#aaff00"/>
	<line x1="46" y1="154" x2="108" y2="161" stroke="#aaff00" stroke-width="2"/>
</g>
<g>
	<polygon points="46,158 51,165 42,166" fill="#aaff00"/>
	<line x1="52" y1="205" x2="47" y2="165" stroke="#aaff00" stroke-width="2"/>
</g>
<g>
	<polygon points="83,104 85,113 77,110" fill="#aaff00"/>
	<line x1="52" y1="205" x2="81" y2="111" stroke="#aaff00" stroke-width="2"/>
</g>
<g>
	<polygon points="9,205 17,200 17,209" fill="#aaff00"/>
	<line x1="52" y1="205" x2="16" y2="205" stroke="#aaff00" stroke-width="2"/>
</g>
<g>
	<polygon points="133,223 125,225 126,216" fill="#aaff00"/>
	<line x1="52" y1="205" x2="126" y2="221" stroke="#aaff00" stroke-width="2"/>
</g>
<g>
	<polygon points="72,137 74,146 66,143" fill="#aaff00"/>
	<line x1="52" y1="205" x2="70" y2="144" stroke="#aaff00" stroke-width="2"/>
</g>
<g>
	<polygon points="63,247 57,241 66,238" fill="#aaff00"/>
	<line x1="52" y1="205" x2="61" y2="240" stroke="#aaff00" stroke-width="2"/>
</g>
<g>
	<polygon points="8,249 10,241 16,247" fill="#aaff00"/>
	<line x1="52" y1="205" x2="13" y2="244" stroke="#aaff00" stroke-width="2"/>
</g>
<g>
	<polygon points="79,179 77,187 70,181" fill="#aaff00"/>
	<line x1="52" y1="205" x2="74" y2="183" stroke="#aaff00" stroke-width="2"/>
</g>
<g>
	<polygon points="84,212 76,214 77,206" fill="#aaff00"/>
	<line x1="52" y1="205" x2="77" y2="210" stroke="#aaff00" stroke-width="2"/>
</g>
<g>
	<polygon points="117,159 110,154 117,150" fill="#aaff00"/>
	<line x1="85" y1="100" x2="114" y2="152" stroke="#aaff00" stroke-width="2"/>
</g>
<g>
	<polygon points="42,156 38,164 33,157" fill="#aaff00"/>
	<line x1="20" y1="173" x2="36" y2="160" stroke="#aaff00" stroke-width="2"/>
</g>
<g>
	<polygon points="82,103 80,112 73,106" fill="#aaff00"/>
	<line x1="20" y1="173" x2="77" y2="108" stroke="#aaff00" stroke-width="2"/>
</g>
<g>
	<polygon points="6,200 6,191 14,195" fill="#aaff00"/>
	<line x1="20" y1="173" x2="9" y2="194" stroke="#aaff00" stroke-width="2"/>
</g>
<g>
	<polygon points="70,135 66,143 61,136" fill="#aaff00"/>
	<line x1="20" y1="173" x2="64" y2="139" stroke="#aaff00" stroke-width="2"/>
</g>
<g>
	<polygon points="62,248 55,243 62,239" fill="#aaff00"/>
	<line x1="20" y1="173" x2="59" y2="241" stroke="#aaff00" stroke-width="2"/>
</g>
<g>
	<polygon points="5,248 2,240 11,241" fill="#aaff00"/>
	<line x1="20" y1="173" x2="7" y2="241" stroke="#aaff00" stroke-width="2"/>
</g>
<g>
	<polygon points="78,175 70,179 70,170" fill="#aaff00"/>
	<line x1="20" y1="173" x2="71" y2="175" stroke="#aaff00" stroke-width="2"/>
</g>
<g>
	<polygon points="85,210 76,210 80,202" fill="#aaff00"/>
	<line x1="20" y1="173" x2="78" y2="207" stroke="#aaff00" stroke-width="2"/>
</g>
<g>
	<polygon points="136,94 129,99 128,90" fill="#aaff00"/>
	<line x1="37" y1="104" x2="129" y2="95" stroke="#aaff00" stroke-width="2"/>
</g>
<g>
	<polygon points="45,149 39,142 48,141" fill="#aaff00"/>
	<line x1="37" y1="104" x2="43" y2="142" stroke="#aaff00" stroke-width="2"/>
</g>
<g>
	<polygon points="80,100 73,105 72,96" fill="#aaff00"/>
	<line x1="37" y1="104" x2="73" y2="100" stroke="#aaff00" stroke-width="2"/>
</g>
<g>
	<polygon points="6,200 4,191 13,194" fill="#aaff00"/>
	<line x1="37" y1="104" x2="8" y2="193" stroke="#aaff00" stroke-width="2"/>
</g>
<g>
	<polygon points="70,130 61,128 67,121" fill="#aaff00"/>
	<line x1="37" y1="104" x2="64" y2="125" stroke="#aaff00" stroke-width="2"/>
</g>
<g>
	<polygon points="116,160 107,160 112,152" fill="#aaff00"/>
	<line x1="74" y1="133" x2="110" y2="156" stroke="#aaff00" stroke-width="2"/>
</g>
<g>
	<polygon points="117,166 117,175 109,171" fill="#aaff00"/>
	<line x1="65" y1="252" x2="113" y2="172" stroke="#aaff00" stroke-width="2"/>
</g>
<g>
	<polygon points="115,164 109,171 106,162" fill="#aaff00"/>
	<line x1="83" y1="176" x2="108" y2="166" stroke="#aaff00" stroke-width="2"/>
</g>
<g>
	<polygon points="117,166 117,175 109,171" fill="#aaff00"/>
	<line x1="89" y1="213" x2="113" y2="172" stroke="#aaff00" stroke-width="2"/>
</g>
<g>
	<polygon points="121,167 127,173 119,176" fill="#aaff00"/>
	<line x1="138" y1="224" x2="123" y2="174" stroke="#aaff00" stroke-width="2"/>
</g>
<g>
	<polygon points="274,86 283,88 277,95" fill="#aaff00"/>
	<line x1="328" y1="130" x2="280" y2="91" stroke="#aaff00" stroke-width="2"/>
</g>
<g>
	<polygon points="348,194 341,188 350,185" fill="#aaff00"/>
	<line x1="328" y1="130" x2="346" y2="187" stroke="#aaff00" stroke-width="2"/>
</g>
<g>
	<polygon points="391,167 382,167 386,159" fill="#aaff00"/>
	<line x1="328" y1="130" x2="384" y2="164" stroke="#aaff00" stroke-width="2"/>
</g>
<g>
	<polygon points="359,102 356,111 350,104" fill="#aaff00"/>
	<line x1="328" y1="130" x2="354" y2="107" stroke="#aaff00" stroke-width="2"/>
</g>
<g>
	<polygon points="391,172 387,180 382,172" fill="#aaff00"/>
	<line x1="350" y1="199" x2="385" y2="176" stroke="#aaff00" stroke-width="2"/>
</g>
<g>
	<polygon points="362,104 365,112 356,111" fill="#aaff00"/>
	<line x1="350" y1="199" x2="361" y2="111" stroke="#aaff00" stroke-width="2"/>
</g>
<g>
	<polygon points="276,228 281,221 285,229" fill="#aaff00"/>
	<line x1="350" y1="199" x2="282" y2="225" stroke="#aaff00" stroke-width="2"/>
</g>
<g>
	<polygon points="338,290 335,282 343,283" fill="#aaff00"/>
	<line x1="350" y1="199" x2="339" y2="283" stroke="#aaff00" stroke-width="2"/>
</g>
<g>
	<polygon points="267,178 276,175 273,184" fill="#aaff00"/>
	<line x1="350" y1="199" x2="274" y2="179" stroke="#aaff00" stroke-width="2"/>
</g>
<g>
	<polygon points="384,269 376,264 384,260" fill="#aaff00"/>
	<line x1="350" y1="199" x2="380" y2="263" stroke="#aaff00" stroke-width="2"/>
</g>
<g>
	<polygon points="390,217 381,218 385,209" fill="#aaff00"/>
	<line x1="350" y1="199" x2="384" y2="214" stroke="#aaff00" stroke-width="2"/>
</g>
<g>
	<polygon points="326,172 334,175 327,181" fill="#aaff00"/>
	<line x1="350" y1="199" x2="330" y2="177" stroke="#aaff00" stroke-width="2"/>
</g>
<g>
	<polygon points="309,260 310,251 317,256" fill="#aaff00"/>
	<line x1="350" y1="199" x2="313" y2="254" stroke="#aaff00" stroke-width="2"/>
</g>
<g>
	<polygon points="343,246 340,238 349,239" fill="#aaff00"/>
	<line x1="350" y1="199" x2="344" y2="239" stroke="#aaff00" stroke-width="2"/>
</g>
<g>
	<polygon points="392,132 392,141 384,136" fill="#aaff00"/>
	<line x1="350" y1="199" x2="388" y2="138" stroke="#aaff00" stroke-width="2"/>
</g>
<g>
	<polygon points="395,174 399,182 390,182" fill="#aaff00"/>
	<line x1="395" y1="219" x2="395" y2="181" stroke="#aaff00" stroke-width="2"/>
</g>
<g>
	<polygon points="327,134 330,142 321,141" fill="#aaff00"/>
	<line x1="316" y1="222" x2="326" y2="141" stroke="#aaff00" stroke-width="2"/>
</g>
<g>
	<polygon points="346,201 342,209 337,202" fill="#aaff00"/>
	<line x1="316" y1="222" x2="340" y2="205" stroke="#aaff00" stroke-width="2"/>
</g>
<g>
	<polygon points="276,229 283,223 284,232" fill="#aaff00"/>
	<line x1="316" y1="222" x2="283" y2="227" stroke="#aaff00" stroke-width="2"/>
</g>
<g>
	<polygon points="382,271 373,270 378,263" fill="#aaff00"/>
	<line x1="316" y1="222" x2="376" y2="267" stroke="#aaff00" stroke-width="2"/>
</g>
<g>
	<polygon points="390,219 382,223 382,214" fill="#aaff00"/>
	<line x1="316" y1="222" x2="383" y2="219" stroke="#aaff00" stroke-width="2"/>
</g>
<g>
	<polygon points="307,259 305,251 313,252" fill="#aaff00"/>
	<line x1="316" y1="222" x2="309" y2="252" stroke="#aaff00" stroke-width="2"/>
</g>
<g>
	<polygon points="339,247 331,245 337,238" fill="#aaff00"/>
	<line x1="316" y1="222" x2="335" y2="242" stroke="#aaff00" stroke-width="2"/>
</g>
<g>
	<polygon points="334,291 326,289 332,283" fill="#aaff00"/>
	<line x1="272" y1="230" x2="329" y2="286" stroke="#aaff00" stroke-width="2"/>
</g>
<g>
	<polygon points="263,181 269,188 260,189" fill="#aaff00"/>
	<line x1="272" y1="230" x2="264" y2="188" stroke="#aaff00" stroke-width="2"/>
</g>
<g>
	<polygon points="342,293 347,285 351,294" fill="#aaff00"/>
	<line x1="386" y1="274" x2="348" y2="290" stroke="#aaff00" stroke-width="2"/>
</g>
<g>
	<polygon points="334,291 326,289 332,283" fill="#aaff00"/>
	<line x1="307" y1="264" x2="329" y2="286" stroke="#aaff00" stroke-width="2"/>
</g>
<g>
	<polygon points="338,290 334,282 343,283" fill="#aaff00"/>
	<line x1="343" y1="251" x2="339" y2="283" stroke="#aaff00" stroke-width="2"/>
</g>
<g>
	<polygon points="197,294 205,289 205,298" fill="#aaff00"/>
	<line x1="250" y1="292" x2="204" y2="294" stroke="#aaff00" stroke-width="2"/>
</g>
<g>
	<polygon points="312,225 310,234 304,227" fill="#aaff00"/>
	<line x1="250" y1="292" x2="307" y2="230" stroke="#aaff00" stroke-width="2"/>
</g>
<g>
	<polygon points="395,165 390,157 399,157" fill="#aaff00"/>
	<line x1="395" y1="129" x2="395" y2="158" stroke="#aaff00" stroke-width="2"/>
</g>
<g>
	<polygon points="366,103 375,104 369,111" fill="#aaff00"/>
	<line x1="395" y1="129" x2="371" y2="107" stroke="#aaff00" stroke-width="2"/>
</g>
<g>
	<polygon points="109,5 117,0 117,9" fill="#aaff00"/>
	<line x1="161" y1="5" x2="116" y2="5" stroke="#aaff00" stroke-width="2"/>
</g>
<g>
	<polygon points="144,91 148,83 153,90" fill="#aaff00"/>
	<line x1="205" y1="48" x2="150" y2="87" stroke="#aaff00" stroke-width="2"/>
</g>
<g>
	<polygon points="267,81 258,82 262,74" fill="#aaff00"/>
	<line x1="205" y1="48" x2="260" y2="78" stroke="#aaff00" stroke-width="2"/>
</g>
<g>
	<polygon points="164,8 172,10 166,16" fill="#aaff00"/>
	<line x1="205" y1="48" x2="169" y2="13" stroke="#aaff00" stroke-width="2"/>
</g>

<g fill="#000000">
	<circle cx="204" cy="47" r="4"/>
</g>
<g fill="#000000">
	<circle cx="140" cy="93" r="4"/>
</g>
<g fill="#000000">
	<circle cx="119" cy="162" r="4"/>
</g>
<g fill="#000000">
	<circle cx="51" cy="204" r="4"/>
</g>
<g fill="#000000">
	<circle cx="45" cy="153" r="4"/>
</g>
<g fill="#000000">
	<circle cx="84" cy="99" r="4"/>
</g>
<g fill="#000000">
	<circle cx="4" cy="204" r="4"/>
</g>
<g fill="#000000">
	<circle cx="137" cy="223" r="4"/>
</g>
<g fill="#000000">
	<circle cx="73" cy="132" r="4"/>
</g>
<g fill="#000000">
	<circle cx="64" cy="251" r="4"/>
</g>
<g fill="#000000">
	<circle cx="4" cy="252" r="4"/>
</g>
<g fill="#000000">
	<circle cx="82" cy="175" r="4"/>
</g>
<g fill="#000000">
	<circle cx="88" cy="212" r="4"/>
</g>
<g fill="#000000">
	<circle cx="19" cy="172" r="4"/>
</g>
<g fill="#000000">
	<circle cx="36" cy="103" r="4"/>
</g>
<g fill="#000000">
	<circle cx="327" cy="129" r="4"/>
</g>
<g fill="#000000">
	<circle cx="270" cy="83" r="4"/>
</g>
<g fill="#000000">
	<circle cx="349" cy="198" r="4"/>
</g>
<g fill="#000000">
	<circle cx="394" cy="169" r="4"/>
</g>
<g fill="#000000">
	<circle cx="362" cy="99" r="4"/>
</g>
<g fill="#000000">
	<circle cx="271" cy="229" r="4"/>
</g>
<g fill="#000000">
	<circle cx="337" cy="294" r="4"/>
</g>
<g fill="#000000">
	<circle cx="262" cy="176" r="4"/>
</g>
<g fill="#000000">
	<circle cx="385" cy="273" r="4"/>
</g>
<g fill="#000000">
	<circle cx="394" cy="218" r="4"/>
</g>
<g fill="#000000">
	<circle cx="322" cy="168" r="4"/>
</g>
<g fill="#000000">
	<circle cx="306" cy="263" r="4"/>
</g>
<g fill="#000000">
	<circle cx="342" cy="250" r="4"/>
</g>
<g fill="#000000">
	<circle cx="394" cy="128" r="4"/>
</g>
<g fill="#000000">
	<circle cx="249" cy="291" r="4"/>
</g>
<g fill="#000000">
	<circle cx="192" cy="294" r="4"/>
</g>
<g fill="#000000">
	<circle cx="315" cy="221" r="4"/>
</g>
<g fill="#000000">
	<circle cx="160" cy="4" r="4"/>
</g>
<g fill="#000000">
	<circle cx="104" cy="4" r="4"/>
</g>
<g fill="#000000">
	<circle cx="245" cy="4" r="4"/>
</g>

</g>

</svg>
