<?xml version="1.0" encoding="utf-8"?>
<!-- Created with Hypercube (http://tumic.wz.cz/hypercube) -->

<svg width="400" height="300" viewBox="0 0 400 300" xmlns="http://www.w3.org/2000/svg" baseProfile="tiny">

<g font-family="Helvetica" font-weight="normal">

<g>
	<polygon points="137,136 145,140 138,145" fill="#aaff00"/>
	<line x1="173" y1="190" x2="141" y2="142" stroke="#aaff00" stroke-width="2"/>
</g>
<g>
	<polygon points="171,194 173,203 165,200" fill="#aaff00"/>
	<line x1="153" y1="254" x2="169" y2="201" stroke="#aaff00" stroke-width="2"/>
</g>
<g>
	<polygon points="148,255 143,263 139,254" fill="#aaff00"/>
	<line x1="84" y1="285" x2="142" y2="258" stroke="#aaff00" stroke-width="2"/>
</g>
<g>
	<polygon points="63,220 70,226 61,229" fill="#aaff00"/>
	<line x1="84" y1="285" x2="65" y2="227" stroke="#aaff00" stroke-width="2"/>
</g>
<g>
	<polygon points="76,165 78,174 70,171" fill="#aaff00"/>
	<line x1="62" y1="216" x2="74" y2="172" stroke="#aaff00" stroke-width="2"/>
</g>
<g>
	<polygon points="105,45 108,54 99,51" fill="#aaff00"/>
	<line x1="93" y1="96" x2="104" y2="52" stroke="#aaff00" stroke-width="2"/>
</g>
<g>
	<polygon points="79,156 76,148 85,150" fill="#aaff00"/>
	<line x1="93" y1="96" x2="80" y2="149" stroke="#aaff00" stroke-width="2"/>
</g>
<g>
	<polygon points="77,8 85,11 78,17" fill="#aaff00"/>
	<line x1="107" y1="41" x2="81" y2="13" stroke="#aaff00" stroke-width="2"/>
</g>
<g>
	<polygon points="131,129 122,127 129,121" fill="#aaff00"/>
	<line x1="55" y1="57" x2="126" y2="124" stroke="#aaff00" stroke-width="2"/>
</g>
<g>
	<polygon points="102,42 96,48 93,40" fill="#aaff00"/>
	<line x1="55" y1="57" x2="95" y2="44" stroke="#aaff00" stroke-width="2"/>
</g>
<g>
	<polygon points="72,9 74,18 65,15" fill="#aaff00"/>
	<line x1="55" y1="57" x2="69" y2="15" stroke="#aaff00" stroke-width="2"/>
</g>
<g>
	<polygon points="8,104 10,96 16,102" fill="#aaff00"/>
	<line x1="55" y1="57" x2="13" y2="99" stroke="#aaff00" stroke-width="2"/>
</g>
<g>
	<polygon points="9,62 16,57 17,66" fill="#aaff00"/>
	<line x1="55" y1="57" x2="16" y2="61" stroke="#aaff00" stroke-width="2"/>
</g>
<g>
	<polygon points="10,8 18,10 12,17" fill="#aaff00"/>
	<line x1="55" y1="57" x2="14" y2="13" stroke="#aaff00" stroke-width="2"/>
</g>
<g>
	<polygon points="5,67 9,75 0,75" fill="#aaff00"/>
	<line x1="5" y1="108" x2="5" y2="74" stroke="#aaff00" stroke-width="2"/>
</g>
<g>
	<polygon points="5,112 9,120 0,120" fill="#aaff00"/>
	<line x1="5" y1="164" x2="5" y2="119" stroke="#aaff00" stroke-width="2"/>
</g>
<g>
	<polygon points="134,137 138,145 129,144" fill="#aaff00"/>
	<line x1="128" y1="192" x2="133" y2="144" stroke="#aaff00" stroke-width="2"/>
</g>
<g>
	<polygon points="81,163 90,163 86,171" fill="#aaff00"/>
	<line x1="128" y1="192" x2="87" y2="167" stroke="#aaff00" stroke-width="2"/>
</g>
<g>
	<polygon points="151,249 144,244 152,240" fill="#aaff00"/>
	<line x1="128" y1="192" x2="148" y2="243" stroke="#aaff00" stroke-width="2"/>
</g>
<g>
	<polygon points="66,214 72,207 75,216" fill="#aaff00"/>
	<line x1="128" y1="192" x2="72" y2="212" stroke="#aaff00" stroke-width="2"/>
</g>
<g>
	<polygon points="168,190 160,195 160,186" fill="#aaff00"/>
	<line x1="128" y1="192" x2="161" y2="190" stroke="#aaff00" stroke-width="2"/>
</g>
<g>
	<polygon points="218,196 210,200 210,191" fill="#aaff00"/>
	<line x1="128" y1="192" x2="211" y2="196" stroke="#aaff00" stroke-width="2"/>
</g>
<g>
	<polygon points="108,234 107,225 116,229" fill="#aaff00"/>
	<line x1="128" y1="192" x2="111" y2="228" stroke="#aaff00" stroke-width="2"/>
</g>
<g>
	<polygon points="177,190 185,187 184,196" fill="#aaff00"/>
	<line x1="223" y1="197" x2="184" y2="191" stroke="#aaff00" stroke-width="2"/>
</g>
<g>
	<polygon points="227,196 235,191 235,200" fill="#aaff00"/>
	<line x1="332" y1="192" x2="234" y2="196" stroke="#aaff00" stroke-width="2"/>
</g>
<g>
	<polygon points="252,53 258,60 249,61" fill="#aaff00"/>
	<line x1="260" y1="106" x2="253" y2="60" stroke="#aaff00" stroke-width="2"/>
</g>
<g>
	<polygon points="228,8 236,13 228,17" fill="#aaff00"/>
	<line x1="252" y1="49" x2="231" y2="15" stroke="#aaff00" stroke-width="2"/>
</g>
<g>
	<polygon points="278,8 277,17 270,12" fill="#aaff00"/>
	<line x1="252" y1="49" x2="274" y2="14" stroke="#aaff00" stroke-width="2"/>
</g>
<g>
	<polygon points="276,5 268,9 268,0" fill="#aaff00"/>
	<line x1="226" y1="5" x2="269" y2="5" stroke="#aaff00" stroke-width="2"/>
</g>
<g>
	<polygon points="391,235 382,234 387,227" fill="#aaff00"/>
	<line x1="332" y1="192" x2="385" y2="231" stroke="#aaff00" stroke-width="2"/>
</g>
<g>
	<polygon points="342,237 336,231 345,228" fill="#aaff00"/>
	<line x1="332" y1="192" x2="341" y2="230" stroke="#aaff00" stroke-width="2"/>
</g>
<g>
	<polygon points="287,229 290,220 296,227" fill="#aaff00"/>
	<line x1="332" y1="192" x2="292" y2="224" stroke="#aaff00" stroke-width="2"/>
</g>
<g>
	<polygon points="304,137 311,142 303,146" fill="#aaff00"/>
	<line x1="332" y1="192" x2="307" y2="144" stroke="#aaff00" stroke-width="2"/>
</g>
<g>
	<polygon points="331,290 326,282 335,282" fill="#aaff00"/>
	<line x1="332" y1="192" x2="331" y2="283" stroke="#aaff00" stroke-width="2"/>
</g>
<g>
	<polygon points="390,193 382,198 382,189" fill="#aaff00"/>
	<line x1="332" y1="192" x2="383" y2="193" stroke="#aaff00" stroke-width="2"/>
</g>
<g>
	<polygon points="280,180 288,177 286,186" fill="#aaff00"/>
	<line x1="332" y1="192" x2="287" y2="181" stroke="#aaff00" stroke-width="2"/>
</g>
<g>
	<polygon points="392,99 392,108 384,103" fill="#aaff00"/>
	<line x1="332" y1="192" x2="388" y2="105" stroke="#aaff00" stroke-width="2"/>
</g>
<g>
	<polygon points="391,148 387,156 382,149" fill="#aaff00"/>
	<line x1="332" y1="192" x2="385" y2="152" stroke="#aaff00" stroke-width="2"/>
</g>
<g>
	<polygon points="262,109 271,112 264,118" fill="#aaff00"/>
	<line x1="332" y1="192" x2="267" y2="114" stroke="#aaff00" stroke-width="2"/>
</g>
<g>
	<polygon points="275,280 275,271 283,276" fill="#aaff00"/>
	<line x1="332" y1="192" x2="279" y2="274" stroke="#aaff00" stroke-width="2"/>
</g>
<g>
	<polygon points="340,92 344,100 335,99" fill="#aaff00"/>
	<line x1="332" y1="192" x2="339" y2="99" stroke="#aaff00" stroke-width="2"/>
</g>
<g>
	<polygon points="392,285 384,281 392,276" fill="#aaff00"/>
	<line x1="332" y1="192" x2="388" y2="279" stroke="#aaff00" stroke-width="2"/>
</g>
<g>
	<polygon points="348,154 349,163 341,159" fill="#aaff00"/>
	<line x1="332" y1="192" x2="345" y2="160" stroke="#aaff00" stroke-width="2"/>
</g>

<g fill="#000000">
	<circle cx="134" cy="132" r="4"/>
</g>
<g fill="#000000">
	<circle cx="394" cy="237" r="4"/>
</g>
<g fill="#000000">
	<circle cx="343" cy="241" r="4"/>
</g>
<g fill="#000000">
	<circle cx="283" cy="231" r="4"/>
</g>
<g fill="#000000">
	<circle cx="301" cy="133" r="4"/>
</g>
<g fill="#000000">
	<circle cx="92" cy="95" r="4"/>
</g>
<g fill="#000000">
	<circle cx="106" cy="40" r="4"/>
</g>
<g fill="#000000">
	<circle cx="77" cy="160" r="4"/>
</g>
<g fill="#000000">
	<circle cx="73" cy="4" r="4"/>
</g>
<g fill="#000000">
	<circle cx="330" cy="294" r="4"/>
</g>
<g fill="#000000">
	<circle cx="83" cy="284" r="4"/>
</g>
<g fill="#000000">
	<circle cx="152" cy="253" r="4"/>
</g>
<g fill="#000000">
	<circle cx="61" cy="215" r="4"/>
</g>
<g fill="#000000">
	<circle cx="172" cy="189" r="4"/>
</g>
<g fill="#000000">
	<circle cx="331" cy="191" r="4"/>
</g>
<g fill="#000000">
	<circle cx="222" cy="196" r="4"/>
</g>
<g fill="#000000">
	<circle cx="394" cy="193" r="4"/>
</g>
<g fill="#000000">
	<circle cx="106" cy="238" r="4"/>
</g>
<g fill="#000000">
	<circle cx="275" cy="178" r="4"/>
</g>
<g fill="#000000">
	<circle cx="394" cy="95" r="4"/>
</g>
<g fill="#000000">
	<circle cx="127" cy="191" r="4"/>
</g>
<g fill="#000000">
	<circle cx="394" cy="145" r="4"/>
</g>
<g fill="#000000">
	<circle cx="259" cy="105" r="4"/>
</g>
<g fill="#000000">
	<circle cx="251" cy="48" r="4"/>
</g>
<g fill="#000000">
	<circle cx="225" cy="4" r="4"/>
</g>
<g fill="#000000">
	<circle cx="280" cy="4" r="4"/>
</g>
<g fill="#000000">
	<circle cx="272" cy="283" r="4"/>
</g>
<g fill="#000000">
	<circle cx="4" cy="163" r="4"/>
</g>
<g fill="#000000">
	<circle cx="4" cy="107" r="4"/>
</g>
<g fill="#000000">
	<circle cx="4" cy="62" r="4"/>
</g>
<g fill="#000000">
	<circle cx="340" cy="87" r="4"/>
</g>
<g fill="#000000">
	<circle cx="6" cy="4" r="4"/>
</g>
<g fill="#000000">
	<circle cx="394" cy="288" r="4"/>
</g>
<g fill="#000000">
	<circle cx="54" cy="56" r="4"/>
</g>
<g fill="#000000">
	<circle cx="349" cy="149" r="4"/>
</g>

</g>

</svg>
