<?xml version="1.0" encoding="utf-8"?>
<!-- Created with Hypercube (http://tumic.wz.cz/hypercube) -->

<svg width="400" height="300" viewBox="0 0 400 300" xmlns="http://www.w3.org/2000/svg" baseProfile="tiny">

<g font-family="Helvetica" font-weight="normal">

<g>
	<polygon points="179,157 171,152 180,148" fill="#aaff00"/>
	<line x1="138" y1="66" x2="176" y2="151" stroke="#aaff00" stroke-width="2"/>
</g>
<g>
	<polygon points="250,175 242,178 243,169" fill="#aaff00"/>
	<line x1="181" y1="162" x2="243" y2="173" stroke="#aaff00" stroke-width="2"/>
</g>
<g>
	<polygon points="258,221 253,214 262,213" fill="#aaff00"/>
	<line x1="255" y1="176" x2="258" y2="214" stroke="#aaff00" stroke-width="2"/>
</g>
<g>
	<polygon points="271,131 272,140 264,136" fill="#aaff00"/>
	<line x1="255" y1="176" x2="268" y2="137" stroke="#aaff00" stroke-width="2"/>
</g>
<g>
	<polygon points="214,197 219,190 223,198" fill="#aaff00"/>
	<line x1="255" y1="176" x2="221" y2="194" stroke="#aaff00" stroke-width="2"/>
</g>
<g>
	<polygon points="258,178 267,177 263,185" fill="#aaff00"/>
	<line x1="315" y1="209" x2="265" y2="181" stroke="#aaff00" stroke-width="2"/>
</g>
<g>
	<polygon points="330,272 324,266 333,263" fill="#aaff00"/>
	<line x1="315" y1="209" x2="329" y2="265" stroke="#aaff00" stroke-width="2"/>
</g>
<g>
	<polygon points="181,166 186,173 177,174" fill="#aaff00"/>
	<line x1="187" y1="248" x2="181" y2="173" stroke="#aaff00" stroke-width="2"/>
</g>
<g>
	<polygon points="310,210 304,216 301,208" fill="#aaff00"/>
	<line x1="187" y1="248" x2="303" y2="212" stroke="#aaff00" stroke-width="2"/>
</g>
<g>
	<polygon points="159,291 159,282 167,287" fill="#aaff00"/>
	<line x1="187" y1="248" x2="163" y2="285" stroke="#aaff00" stroke-width="2"/>
</g>
<g>
	<polygon points="183,250 178,258 174,250" fill="#aaff00"/>
	<line x1="108" y1="295" x2="176" y2="253" stroke="#aaff00" stroke-width="2"/>
</g>
<g>
	<polygon points="318,211 327,211 323,219" fill="#aaff00"/>
	<line x1="383" y1="249" x2="325" y2="214" stroke="#aaff00" stroke-width="2"/>
</g>
<g>
	<polygon points="316,204 314,195 323,198" fill="#aaff00"/>
	<line x1="347" y1="113" x2="318" y2="197" stroke="#aaff00" stroke-width="2"/>
</g>
<g>
	<polygon points="387,88 382,96 378,88" fill="#aaff00"/>
	<line x1="347" y1="113" x2="381" y2="92" stroke="#aaff00" stroke-width="2"/>
</g>
<g>
	<polygon points="392,175 384,171 391,166" fill="#aaff00"/>
	<line x1="347" y1="113" x2="388" y2="169" stroke="#aaff00" stroke-width="2"/>
</g>
<g>
	<polygon points="344,156 345,147 352,152" fill="#aaff00"/>
	<line x1="391" y1="86" x2="348" y2="150" stroke="#aaff00" stroke-width="2"/>
</g>
<g>
	<polygon points="317,205 316,196 324,200" fill="#aaff00"/>
	<line x1="342" y1="160" x2="320" y2="198" stroke="#aaff00" stroke-width="2"/>
</g>
<g>
	<polygon points="391,90 396,97 387,98" fill="#aaff00"/>
	<line x1="395" y1="130" x2="392" y2="97" stroke="#aaff00" stroke-width="2"/>
</g>
<g>
	<polygon points="347,108 343,100 352,100" fill="#aaff00"/>
	<line x1="350" y1="41" x2="347" y2="101" stroke="#aaff00" stroke-width="2"/>
</g>
<g>
	<polygon points="112,228 107,221 116,220" fill="#aaff00"/>
	<line x1="108" y1="169" x2="112" y2="221" stroke="#aaff00" stroke-width="2"/>
</g>
<g>
	<polygon points="51,247 57,240 59,249" fill="#aaff00"/>
	<line x1="113" y1="233" x2="58" y2="245" stroke="#aaff00" stroke-width="2"/>
</g>
<g>
	<polygon points="8,285 10,277 16,283" fill="#aaff00"/>
	<line x1="47" y1="248" x2="13" y2="280" stroke="#aaff00" stroke-width="2"/>
</g>
<g>
	<polygon points="116,235 125,235 121,243" fill="#aaff00"/>
	<line x1="212" y1="295" x2="122" y2="239" stroke="#aaff00" stroke-width="2"/>
</g>
<g>
	<polygon points="216,295 224,290 224,299" fill="#aaff00"/>
	<line x1="265" y1="295" x2="223" y2="295" stroke="#aaff00" stroke-width="2"/>
</g>
<g>
	<polygon points="109,164 107,155 115,158" fill="#aaff00"/>
	<line x1="138" y1="66" x2="111" y2="157" stroke="#aaff00" stroke-width="2"/>
</g>
<g>
	<polygon points="224,7 220,15 215,8" fill="#aaff00"/>
	<line x1="138" y1="66" x2="218" y2="11" stroke="#aaff00" stroke-width="2"/>
</g>
<g>
	<polygon points="182,53 176,59 173,51" fill="#aaff00"/>
	<line x1="138" y1="66" x2="175" y2="55" stroke="#aaff00" stroke-width="2"/>
</g>
<g>
	<polygon points="76,8 85,10 78,16" fill="#aaff00"/>
	<line x1="138" y1="66" x2="81" y2="13" stroke="#aaff00" stroke-width="2"/>
</g>
<g>
	<polygon points="36,52 44,49 43,58" fill="#aaff00"/>
	<line x1="138" y1="66" x2="43" y2="53" stroke="#aaff00" stroke-width="2"/>
</g>
<g>
	<polygon points="125,9 131,15 122,17" fill="#aaff00"/>
	<line x1="138" y1="66" x2="126" y2="16" stroke="#aaff00" stroke-width="2"/>
</g>
<g>
	<polygon points="169,8 169,17 162,13" fill="#aaff00"/>
	<line x1="138" y1="66" x2="166" y2="15" stroke="#aaff00" stroke-width="2"/>
</g>
<g>
	<polygon points="62,112 67,104 71,112" fill="#aaff00"/>
	<line x1="138" y1="66" x2="68" y2="108" stroke="#aaff00" stroke-width="2"/>
</g>
<g>
	<polygon points="94,58 102,55 101,64" fill="#aaff00"/>
	<line x1="138" y1="66" x2="101" y2="59" stroke="#aaff00" stroke-width="2"/>
</g>
<g>
	<polygon points="122,106 121,97 129,101" fill="#aaff00"/>
	<line x1="138" y1="66" x2="125" y2="100" stroke="#aaff00" stroke-width="2"/>
</g>
<g>
	<polygon points="235,61 227,66 227,57" fill="#aaff00"/>
	<line x1="138" y1="66" x2="228" y2="61" stroke="#aaff00" stroke-width="2"/>
</g>
<g>
	<polygon points="180,101 171,99 177,92" fill="#aaff00"/>
	<line x1="138" y1="66" x2="174" y2="96" stroke="#aaff00" stroke-width="2"/>
</g>

<g fill="#000000">
	<circle cx="137" cy="65" r="4"/>
</g>
<g fill="#000000">
	<circle cx="180" cy="161" r="4"/>
</g>
<g fill="#000000">
	<circle cx="254" cy="175" r="4"/>
</g>
<g fill="#000000">
	<circle cx="107" cy="294" r="4"/>
</g>
<g fill="#000000">
	<circle cx="186" cy="247" r="4"/>
</g>
<g fill="#000000">
	<circle cx="314" cy="208" r="4"/>
</g>
<g fill="#000000">
	<circle cx="156" cy="294" r="4"/>
</g>
<g fill="#000000">
	<circle cx="331" cy="276" r="4"/>
</g>
<g fill="#000000">
	<circle cx="258" cy="225" r="4"/>
</g>
<g fill="#000000">
	<circle cx="272" cy="126" r="4"/>
</g>
<g fill="#000000">
	<circle cx="210" cy="199" r="4"/>
</g>
<g fill="#000000">
	<circle cx="107" cy="168" r="4"/>
</g>
<g fill="#000000">
	<circle cx="112" cy="232" r="4"/>
</g>
<g fill="#000000">
	<circle cx="46" cy="247" r="4"/>
</g>
<g fill="#000000">
	<circle cx="264" cy="294" r="4"/>
</g>
<g fill="#000000">
	<circle cx="211" cy="294" r="4"/>
</g>
<g fill="#000000">
	<circle cx="4" cy="288" r="4"/>
</g>
<g fill="#000000">
	<circle cx="382" cy="248" r="4"/>
</g>
<g fill="#000000">
	<circle cx="349" cy="40" r="4"/>
</g>
<g fill="#000000">
	<circle cx="346" cy="112" r="4"/>
</g>
<g fill="#000000">
	<circle cx="390" cy="85" r="4"/>
</g>
<g fill="#000000">
	<circle cx="394" cy="178" r="4"/>
</g>
<g fill="#000000">
	<circle cx="341" cy="159" r="4"/>
</g>
<g fill="#000000">
	<circle cx="394" cy="129" r="4"/>
</g>
<g fill="#000000">
	<circle cx="227" cy="4" r="4"/>
</g>
<g fill="#000000">
	<circle cx="186" cy="51" r="4"/>
</g>
<g fill="#000000">
	<circle cx="72" cy="4" r="4"/>
</g>
<g fill="#000000">
	<circle cx="31" cy="51" r="4"/>
</g>
<g fill="#000000">
	<circle cx="123" cy="4" r="4"/>
</g>
<g fill="#000000">
	<circle cx="171" cy="4" r="4"/>
</g>
<g fill="#000000">
	<circle cx="58" cy="114" r="4"/>
</g>
<g fill="#000000">
	<circle cx="89" cy="57" r="4"/>
</g>
<g fill="#000000">
	<circle cx="120" cy="110" r="4"/>
</g>
<g fill="#000000">
	<circle cx="239" cy="60" r="4"/>
</g>
<g fill="#000000">
	<circle cx="183" cy="103" r="4"/>
</g>

</g>

</svg>
