<?xml version="1.0" encoding="utf-8"?>
<!-- Created with Hypercube (http://tumic.wz.cz/hypercube) -->

<svg width="400" height="300" viewBox="0 0 400 300" xmlns="http://www.w3.org/2000/svg" baseProfile="tiny">

<g font-family="Helvetica" font-weight="normal">

<g>
	<polygon points="31,66 38,60 39,69" fill="#aaff00"/>
	<line x1="104" y1="56" x2="38" y2="65" stroke="#aaff00" stroke-width="2"/>
</g>
<g>
	<polygon points="204,6 199,14 195,6" fill="#aaff00"/>
	<line x1="104" y1="56" x2="198" y2="10" stroke="#aaff00" stroke-width="2"/>
</g>
<g>
	<polygon points="21,9 30,9 26,16" fill="#aaff00"/>
	<line x1="104" y1="56" x2="28" y2="12" stroke="#aaff00" stroke-width="2"/>
</g>
<g>
	<polygon points="116,9 119,18 110,15" fill="#aaff00"/>
	<line x1="104" y1="56" x2="114" y2="16" stroke="#aaff00" stroke-width="2"/>
</g>
<g>
	<polygon points="70,8 78,12 71,17" fill="#aaff00"/>
	<line x1="104" y1="56" x2="74" y2="14" stroke="#aaff00" stroke-width="2"/>
</g>
<g>
	<polygon points="167,26 162,34 158,26" fill="#aaff00"/>
	<line x1="104" y1="56" x2="161" y2="29" stroke="#aaff00" stroke-width="2"/>
</g>
<g>
	<polygon points="249,25 240,26 244,18" fill="#aaff00"/>
	<line x1="209" y1="5" x2="242" y2="22" stroke="#aaff00" stroke-width="2"/>
</g>
<g>
	<polygon points="248,27 240,32 240,23" fill="#aaff00"/>
	<line x1="172" y1="25" x2="241" y2="27" stroke="#aaff00" stroke-width="2"/>
</g>
<g>
	<polygon points="257,28 265,25 264,34" fill="#aaff00"/>
	<line x1="359" y1="43" x2="264" y2="29" stroke="#aaff00" stroke-width="2"/>
</g>
<g>
	<polygon points="360,47 367,52 359,56" fill="#aaff00"/>
	<line x1="384" y1="109" x2="363" y2="53" stroke="#aaff00" stroke-width="2"/>
</g>
<g>
	<polygon points="383,184 378,176 387,176" fill="#aaff00"/>
	<line x1="384" y1="109" x2="383" y2="177" stroke="#aaff00" stroke-width="2"/>
</g>
<g>
	<polygon points="301,256 304,247 310,254" fill="#aaff00"/>
	<line x1="383" y1="189" x2="307" y2="251" stroke="#aaff00" stroke-width="2"/>
</g>
<g>
	<polygon points="265,291 267,283 273,289" fill="#aaff00"/>
	<line x1="298" y1="259" x2="270" y2="286" stroke="#aaff00" stroke-width="2"/>
</g>
<g>
	<polygon points="240,254 248,250 247,259" fill="#aaff00"/>
	<line x1="298" y1="259" x2="247" y2="254" stroke="#aaff00" stroke-width="2"/>
</g>
<g>
	<polygon points="184,243 193,244 188,251" fill="#aaff00"/>
	<line x1="262" y1="295" x2="190" y2="247" stroke="#aaff00" stroke-width="2"/>
</g>
<g>
	<polygon points="176,241 169,246 168,237" fill="#aaff00"/>
	<line x1="81" y1="251" x2="169" y2="242" stroke="#aaff00" stroke-width="2"/>
</g>
<g>
	<polygon points="77,248 68,246 74,239" fill="#aaff00"/>
	<line x1="29" y1="210" x2="71" y2="243" stroke="#aaff00" stroke-width="2"/>
</g>
<g>
	<polygon points="29,148 34,156 25,156" fill="#aaff00"/>
	<line x1="29" y1="210" x2="29" y2="155" stroke="#aaff00" stroke-width="2"/>
</g>
<g>
	<polygon points="101,59 99,68 92,62" fill="#aaff00"/>
	<line x1="30" y1="144" x2="96" y2="64" stroke="#aaff00" stroke-width="2"/>
</g>
<g>
	<polygon points="184,237 186,229 192,235" fill="#aaff00"/>
	<line x1="238" y1="185" x2="189" y2="232" stroke="#aaff00" stroke-width="2"/>
</g>
<g>
	<polygon points="241,181 242,172 249,178" fill="#aaff00"/>
	<line x1="311" y1="105" x2="245" y2="176" stroke="#aaff00" stroke-width="2"/>
</g>
<g>
	<polygon points="308,40 313,48 304,48" fill="#aaff00"/>
	<line x1="311" y1="105" x2="308" y2="47" stroke="#aaff00" stroke-width="2"/>
</g>
<g>
	<polygon points="257,28 265,25 264,34" fill="#aaff00"/>
	<line x1="308" y1="36" x2="264" y2="29" stroke="#aaff00" stroke-width="2"/>
</g>
<g>
	<polygon points="176,239 167,239 171,231" fill="#aaff00"/>
	<line x1="124" y1="214" x2="170" y2="235" stroke="#aaff00" stroke-width="2"/>
</g>
<g>
	<polygon points="178,75 176,84 169,78" fill="#aaff00"/>
	<line x1="118" y1="147" x2="173" y2="80" stroke="#aaff00" stroke-width="2"/>
</g>
<g>
	<polygon points="123,209 118,202 127,201" fill="#aaff00"/>
	<line x1="118" y1="147" x2="122" y2="202" stroke="#aaff00" stroke-width="2"/>
</g>
<g>
	<polygon points="80,110 88,112 82,118" fill="#aaff00"/>
	<line x1="118" y1="147" x2="85" y2="115" stroke="#aaff00" stroke-width="2"/>
</g>
<g>
	<polygon points="249,30 244,38 240,30" fill="#aaff00"/>
	<line x1="181" y1="72" x2="243" y2="34" stroke="#aaff00" stroke-width="2"/>
</g>
<g>
	<polygon points="101,59 102,68 94,64" fill="#aaff00"/>
	<line x1="77" y1="107" x2="98" y2="66" stroke="#aaff00" stroke-width="2"/>
</g>
<g>
	<polygon points="181,236 179,228 187,229" fill="#aaff00"/>
	<line x1="191" y1="194" x2="183" y2="229" stroke="#aaff00" stroke-width="2"/>
</g>
<g>
	<polygon points="194,190 196,182 202,188" fill="#aaff00"/>
	<line x1="248" y1="137" x2="199" y2="185" stroke="#aaff00" stroke-width="2"/>
</g>
<g>
	<polygon points="262,80 265,89 256,86" fill="#aaff00"/>
	<line x1="248" y1="137" x2="261" y2="87" stroke="#aaff00" stroke-width="2"/>
</g>
<g>
	<polygon points="254,32 260,38 251,40" fill="#aaff00"/>
	<line x1="264" y1="76" x2="255" y2="39" stroke="#aaff00" stroke-width="2"/>
</g>
<g>
	<polygon points="185,242 193,239 191,248" fill="#aaff00"/>
	<line x1="236" y1="254" x2="192" y2="243" stroke="#aaff00" stroke-width="2"/>
</g>
<g>
	<polygon points="295,255 288,250 296,246" fill="#aaff00"/>
	<line x1="274" y1="214" x2="292" y2="248" stroke="#aaff00" stroke-width="2"/>
</g>
<g>
	<polygon points="143,107 152,108 146,115" fill="#aaff00"/>
	<line x1="187" y1="147" x2="148" y2="111" stroke="#aaff00" stroke-width="2"/>
</g>
<g>
	<polygon points="270,211 261,210 267,202" fill="#aaff00"/>
	<line x1="187" y1="147" x2="264" y2="206" stroke="#aaff00" stroke-width="2"/>
</g>
<g>
	<polygon points="106,59 114,63 107,68" fill="#aaff00"/>
	<line x1="140" y1="104" x2="111" y2="65" stroke="#aaff00" stroke-width="2"/>
</g>
<g>
	<polygon points="301,256 304,247 310,254" fill="#aaff00"/>
	<line x1="339" y1="224" x2="306" y2="251" stroke="#aaff00" stroke-width="2"/>
</g>
<g>
	<polygon points="220,102 229,103 224,110" fill="#aaff00"/>
	<line x1="311" y1="165" x2="226" y2="106" stroke="#aaff00" stroke-width="2"/>
</g>
<g>
	<polygon points="337,219 329,214 337,210" fill="#aaff00"/>
	<line x1="311" y1="165" x2="333" y2="213" stroke="#aaff00" stroke-width="2"/>
</g>
<g>
	<polygon points="108,57 117,56 113,64" fill="#aaff00"/>
	<line x1="217" y1="100" x2="114" y2="60" stroke="#aaff00" stroke-width="2"/>
</g>
<g>
	<polygon points="293,260 288,267 284,259" fill="#aaff00"/>
	<line x1="202" y1="295" x2="287" y2="263" stroke="#aaff00" stroke-width="2"/>
</g>
<g>
	<polygon points="197,295 189,299 189,290" fill="#aaff00"/>
	<line x1="146" y1="295" x2="190" y2="295" stroke="#aaff00" stroke-width="2"/>
</g>

<g fill="#000000">
	<circle cx="103" cy="55" r="4"/>
</g>
<g fill="#000000">
	<circle cx="26" cy="66" r="4"/>
</g>
<g fill="#000000">
	<circle cx="208" cy="4" r="4"/>
</g>
<g fill="#000000">
	<circle cx="17" cy="6" r="4"/>
</g>
<g fill="#000000">
	<circle cx="117" cy="4" r="4"/>
</g>
<g fill="#000000">
	<circle cx="67" cy="4" r="4"/>
</g>
<g fill="#000000">
	<circle cx="171" cy="24" r="4"/>
</g>
<g fill="#000000">
	<circle cx="180" cy="240" r="4"/>
</g>
<g fill="#000000">
	<circle cx="252" cy="27" r="4"/>
</g>
<g fill="#000000">
	<circle cx="186" cy="146" r="4"/>
</g>
<g fill="#000000">
	<circle cx="139" cy="103" r="4"/>
</g>
<g fill="#000000">
	<circle cx="273" cy="213" r="4"/>
</g>
<g fill="#000000">
	<circle cx="28" cy="209" r="4"/>
</g>
<g fill="#000000">
	<circle cx="80" cy="250" r="4"/>
</g>
<g fill="#000000">
	<circle cx="29" cy="143" r="4"/>
</g>
<g fill="#000000">
	<circle cx="383" cy="108" r="4"/>
</g>
<g fill="#000000">
	<circle cx="358" cy="42" r="4"/>
</g>
<g fill="#000000">
	<circle cx="382" cy="188" r="4"/>
</g>
<g fill="#000000">
	<circle cx="310" cy="104" r="4"/>
</g>
<g fill="#000000">
	<circle cx="237" cy="184" r="4"/>
</g>
<g fill="#000000">
	<circle cx="307" cy="35" r="4"/>
</g>
<g fill="#000000">
	<circle cx="117" cy="146" r="4"/>
</g>
<g fill="#000000">
	<circle cx="180" cy="71" r="4"/>
</g>
<g fill="#000000">
	<circle cx="123" cy="213" r="4"/>
</g>
<g fill="#000000">
	<circle cx="76" cy="106" r="4"/>
</g>
<g fill="#000000">
	<circle cx="247" cy="136" r="4"/>
</g>
<g fill="#000000">
	<circle cx="190" cy="193" r="4"/>
</g>
<g fill="#000000">
	<circle cx="263" cy="75" r="4"/>
</g>
<g fill="#000000">
	<circle cx="310" cy="164" r="4"/>
</g>
<g fill="#000000">
	<circle cx="216" cy="99" r="4"/>
</g>
<g fill="#000000">
	<circle cx="338" cy="223" r="4"/>
</g>
<g fill="#000000">
	<circle cx="145" cy="294" r="4"/>
</g>
<g fill="#000000">
	<circle cx="201" cy="294" r="4"/>
</g>
<g fill="#000000">
	<circle cx="297" cy="258" r="4"/>
</g>
<g fill="#000000">
	<circle cx="261" cy="294" r="4"/>
</g>
<g fill="#000000">
	<circle cx="235" cy="253" r="4"/>
</g>

</g>

</svg>
