<?xml version="1.0" encoding="utf-8"?>
<!-- Created with Hypercube (http://tumic.wz.cz/hypercube) -->

<svg width="400" height="300" viewBox="0 0 400 300" xmlns="http://www.w3.org/2000/svg" baseProfile="tiny">

<g font-family="Helvetica" font-weight="normal">

<g>
	<polygon points="281,37 282,46 273,42" fill="#aaff00"/>
	<line x1="237" y1="136" x2="278" y2="43" stroke="#aaff00" stroke-width="2"/>
</g>
<g>
	<polygon points="304,88 300,96 295,89" fill="#aaff00"/>
	<line x1="237" y1="136" x2="298" y2="92" stroke="#aaff00" stroke-width="2"/>
</g>
<g>
	<polygon points="297,195 289,193 295,187" fill="#aaff00"/>
	<line x1="237" y1="136" x2="292" y2="190" stroke="#aaff00" stroke-width="2"/>
</g>
<g>
	<polygon points="192,174 195,165 201,172" fill="#aaff00"/>
	<line x1="237" y1="136" x2="197" y2="169" stroke="#aaff00" stroke-width="2"/>
</g>
<g>
	<polygon points="235,267 230,259 239,259" fill="#aaff00"/>
	<line x1="237" y1="136" x2="235" y2="260" stroke="#aaff00" stroke-width="2"/>
</g>
<g>
	<polygon points="79,102 87,100 86,108" fill="#aaff00"/>
	<line x1="237" y1="136" x2="86" y2="104" stroke="#aaff00" stroke-width="2"/>
</g>
<g>
	<polygon points="342,161 333,164 336,155" fill="#aaff00"/>
	<line x1="237" y1="136" x2="335" y2="160" stroke="#aaff00" stroke-width="2"/>
</g>
<g>
	<polygon points="256,95 256,104 248,100" fill="#aaff00"/>
	<line x1="237" y1="136" x2="253" y2="101" stroke="#aaff00" stroke-width="2"/>
</g>
<g>
	<polygon points="289,140 281,144 282,135" fill="#aaff00"/>
	<line x1="237" y1="136" x2="282" y2="139" stroke="#aaff00" stroke-width="2"/>
</g>
<g>
	<polygon points="212,226 209,217 218,220" fill="#aaff00"/>
	<line x1="237" y1="136" x2="214" y2="219" stroke="#aaff00" stroke-width="2"/>
</g>
<g>
	<polygon points="174,137 182,133 182,142" fill="#aaff00"/>
	<line x1="237" y1="136" x2="181" y2="137" stroke="#aaff00" stroke-width="2"/>
</g>
<g>
	<polygon points="245,7 254,8 249,15" fill="#aaff00"/>
	<line x1="283" y1="33" x2="251" y2="11" stroke="#aaff00" stroke-width="2"/>
</g>
<g>
	<polygon points="237,5 229,9 229,0" fill="#aaff00"/>
	<line x1="178" y1="5" x2="230" y2="5" stroke="#aaff00" stroke-width="2"/>
</g>
<g>
	<polygon points="175,8 174,17 167,12" fill="#aaff00"/>
	<line x1="128" y1="76" x2="171" y2="14" stroke="#aaff00" stroke-width="2"/>
</g>
<g>
	<polygon points="239,184 231,182 237,176" fill="#aaff00"/>
	<line x1="128" y1="76" x2="234" y2="179" stroke="#aaff00" stroke-width="2"/>
</g>
<g>
	<polygon points="68,172 68,163 76,167" fill="#aaff00"/>
	<line x1="128" y1="76" x2="72" y2="166" stroke="#aaff00" stroke-width="2"/>
</g>
<g>
	<polygon points="124,111 120,103 129,104" fill="#aaff00"/>
	<line x1="128" y1="76" x2="125" y2="104" stroke="#aaff00" stroke-width="2"/>
</g>
<g>
	<polygon points="115,200 111,192 120,193" fill="#aaff00"/>
	<line x1="128" y1="76" x2="116" y2="193" stroke="#aaff00" stroke-width="2"/>
</g>
<g>
	<polygon points="78,9 86,13 79,18" fill="#aaff00"/>
	<line x1="128" y1="76" x2="82" y2="15" stroke="#aaff00" stroke-width="2"/>
</g>
<g>
	<polygon points="43,50 52,48 49,56" fill="#aaff00"/>
	<line x1="128" y1="76" x2="50" y2="52" stroke="#aaff00" stroke-width="2"/>
</g>
<g>
	<polygon points="166,66 160,72 157,63" fill="#aaff00"/>
	<line x1="128" y1="76" x2="159" y2="67" stroke="#aaff00" stroke-width="2"/>
</g>
<g>
	<polygon points="193,99 184,101 187,92" fill="#aaff00"/>
	<line x1="128" y1="76" x2="186" y2="97" stroke="#aaff00" stroke-width="2"/>
</g>
<g>
	<polygon points="210,54 204,60 201,51" fill="#aaff00"/>
	<line x1="128" y1="76" x2="203" y2="55" stroke="#aaff00" stroke-width="2"/>
</g>
<g>
	<polygon points="299,243 291,241 297,235" fill="#aaff00"/>
	<line x1="243" y1="188" x2="294" y2="238" stroke="#aaff00" stroke-width="2"/>
</g>
<g>
	<polygon points="302,242 297,234 306,234" fill="#aaff00"/>
	<line x1="301" y1="199" x2="302" y2="235" stroke="#aaff00" stroke-width="2"/>
</g>
<g>
	<polygon points="82,240 76,234 85,231" fill="#aaff00"/>
	<line x1="66" y1="176" x2="81" y2="233" stroke="#aaff00" stroke-width="2"/>
</g>
<g>
	<polygon points="76,290 73,282 82,283" fill="#aaff00"/>
	<line x1="84" y1="245" x2="77" y2="283" stroke="#aaff00" stroke-width="2"/>
</g>
<g>
	<polygon points="119,282 111,280 117,273" fill="#aaff00"/>
	<line x1="84" y1="245" x2="114" y2="277" stroke="#aaff00" stroke-width="2"/>
</g>
<g>
	<polygon points="155,221 149,228 146,219" fill="#aaff00"/>
	<line x1="84" y1="245" x2="148" y2="223" stroke="#aaff00" stroke-width="2"/>
</g>
<g>
	<polygon points="162,279 155,285 154,276" fill="#aaff00"/>
	<line x1="76" y1="295" x2="155" y2="281" stroke="#aaff00" stroke-width="2"/>
</g>
<g>
	<polygon points="207,234 206,243 199,237" fill="#aaff00"/>
	<line x1="167" y1="279" x2="203" y2="239" stroke="#aaff00" stroke-width="2"/>
</g>
<g>
	<polygon points="171,278 178,273 179,282" fill="#aaff00"/>
	<line x1="235" y1="272" x2="178" y2="277" stroke="#aaff00" stroke-width="2"/>
</g>
<g>
	<polygon points="164,275 156,271 163,266" fill="#aaff00"/>
	<line x1="115" y1="205" x2="160" y2="269" stroke="#aaff00" stroke-width="2"/>
</g>
<g>
	<polygon points="162,279 155,285 154,276" fill="#aaff00"/>
	<line x1="123" y1="286" x2="155" y2="280" stroke="#aaff00" stroke-width="2"/>
</g>
<g>
	<polygon points="233,139 232,148 225,142" fill="#aaff00"/>
	<line x1="160" y1="220" x2="229" y2="144" stroke="#aaff00" stroke-width="2"/>
</g>
<g>
	<polygon points="120,152 116,144 125,145" fill="#aaff00"/>
	<line x1="124" y1="116" x2="121" y2="145" stroke="#aaff00" stroke-width="2"/>
</g>
<g>
	<polygon points="25,143 33,140 32,149" fill="#aaff00"/>
	<line x1="120" y1="157" x2="32" y2="144" stroke="#aaff00" stroke-width="2"/>
</g>
<g>
	<polygon points="165,139 160,146 156,138" fill="#aaff00"/>
	<line x1="120" y1="157" x2="159" y2="142" stroke="#aaff00" stroke-width="2"/>
</g>
<g>
	<polygon points="10,95 16,101 7,103" fill="#aaff00"/>
	<line x1="21" y1="143" x2="11" y2="102" stroke="#aaff00" stroke-width="2"/>
</g>
<g>
	<polygon points="13,91 21,88 20,97" fill="#aaff00"/>
	<line x1="75" y1="102" x2="20" y2="92" stroke="#aaff00" stroke-width="2"/>
</g>
<g>
	<polygon points="11,87 12,78 19,83" fill="#aaff00"/>
	<line x1="39" y1="49" x2="15" y2="81" stroke="#aaff00" stroke-width="2"/>
</g>
<g>
	<polygon points="124,158 133,156 130,164" fill="#aaff00"/>
	<line x1="189" y1="177" x2="131" y2="160" stroke="#aaff00" stroke-width="2"/>
</g>
<g>
	<polygon points="115,5 107,9 107,0" fill="#aaff00"/>
	<line x1="76" y1="6" x2="108" y2="5" stroke="#aaff00" stroke-width="2"/>
</g>
<g>
	<polygon points="233,132 225,130 231,123" fill="#aaff00"/>
	<line x1="171" y1="65" x2="229" y2="127" stroke="#aaff00" stroke-width="2"/>
</g>
<g>
	<polygon points="233,132 224,131 230,124" fill="#aaff00"/>
	<line x1="198" y1="101" x2="228" y2="128" stroke="#aaff00" stroke-width="2"/>
</g>
<g>
	<polygon points="235,131 229,125 238,122" fill="#aaff00"/>
	<line x1="215" y1="53" x2="234" y2="124" stroke="#aaff00" stroke-width="2"/>
</g>
<g>
	<polygon points="241,134 247,128 250,136" fill="#aaff00"/>
	<line x1="359" y1="99" x2="248" y2="132" stroke="#aaff00" stroke-width="2"/>
</g>
<g>
	<polygon points="361,95 362,86 369,91" fill="#aaff00"/>
	<line x1="393" y1="53" x2="365" y2="89" stroke="#aaff00" stroke-width="2"/>
</g>

<g fill="#000000">
	<circle cx="236" cy="135" r="4"/>
</g>
<g fill="#000000">
	<circle cx="282" cy="32" r="4"/>
</g>
<g fill="#000000">
	<circle cx="307" cy="85" r="4"/>
</g>
<g fill="#000000">
	<circle cx="300" cy="198" r="4"/>
</g>
<g fill="#000000">
	<circle cx="188" cy="176" r="4"/>
</g>
<g fill="#000000">
	<circle cx="234" cy="271" r="4"/>
</g>
<g fill="#000000">
	<circle cx="74" cy="101" r="4"/>
</g>
<g fill="#000000">
	<circle cx="346" cy="162" r="4"/>
</g>
<g fill="#000000">
	<circle cx="257" cy="90" r="4"/>
</g>
<g fill="#000000">
	<circle cx="293" cy="140" r="4"/>
</g>
<g fill="#000000">
	<circle cx="166" cy="278" r="4"/>
</g>
<g fill="#000000">
	<circle cx="210" cy="230" r="4"/>
</g>
<g fill="#000000">
	<circle cx="119" cy="156" r="4"/>
</g>
<g fill="#000000">
	<circle cx="20" cy="142" r="4"/>
</g>
<g fill="#000000">
	<circle cx="169" cy="137" r="4"/>
</g>
<g fill="#000000">
	<circle cx="241" cy="4" r="4"/>
</g>
<g fill="#000000">
	<circle cx="8" cy="90" r="4"/>
</g>
<g fill="#000000">
	<circle cx="119" cy="4" r="4"/>
</g>
<g fill="#000000">
	<circle cx="127" cy="75" r="4"/>
</g>
<g fill="#000000">
	<circle cx="177" cy="4" r="4"/>
</g>
<g fill="#000000">
	<circle cx="242" cy="187" r="4"/>
</g>
<g fill="#000000">
	<circle cx="65" cy="175" r="4"/>
</g>
<g fill="#000000">
	<circle cx="123" cy="115" r="4"/>
</g>
<g fill="#000000">
	<circle cx="114" cy="204" r="4"/>
</g>
<g fill="#000000">
	<circle cx="75" cy="5" r="4"/>
</g>
<g fill="#000000">
	<circle cx="38" cy="48" r="4"/>
</g>
<g fill="#000000">
	<circle cx="170" cy="64" r="4"/>
</g>
<g fill="#000000">
	<circle cx="197" cy="100" r="4"/>
</g>
<g fill="#000000">
	<circle cx="214" cy="52" r="4"/>
</g>
<g fill="#000000">
	<circle cx="392" cy="52" r="4"/>
</g>
<g fill="#000000">
	<circle cx="358" cy="98" r="4"/>
</g>
<g fill="#000000">
	<circle cx="83" cy="244" r="4"/>
</g>
<g fill="#000000">
	<circle cx="75" cy="294" r="4"/>
</g>
<g fill="#000000">
	<circle cx="122" cy="285" r="4"/>
</g>
<g fill="#000000">
	<circle cx="159" cy="219" r="4"/>
</g>
<g fill="#000000">
	<circle cx="302" cy="246" r="4"/>
</g>

</g>

</svg>
