<?xml version="1.0" encoding="utf-8"?>
<!-- Created with Hypercube (http://tumic.wz.cz/hypercube) -->

<svg width="400" height="300" viewBox="0 0 400 300" xmlns="http://www.w3.org/2000/svg" baseProfile="tiny">

<g font-family="Helvetica" font-weight="normal">

<g>
	<polygon points="359,5 351,9 351,0" fill="#aaff00"/>
	<line x1="312" y1="5" x2="352" y2="5" stroke="#aaff00" stroke-width="2"/>
</g>
<g>
	<polygon points="273,53 272,62 265,57" fill="#aaff00"/>
	<line x1="187" y1="173" x2="269" y2="59" stroke="#aaff00" stroke-width="2"/>
</g>
<g>
	<polygon points="292,153 285,159 284,150" fill="#aaff00"/>
	<line x1="187" y1="173" x2="285" y2="155" stroke="#aaff00" stroke-width="2"/>
</g>
<g>
	<polygon points="42,182 49,177 50,186" fill="#aaff00"/>
	<line x1="187" y1="173" x2="49" y2="182" stroke="#aaff00" stroke-width="2"/>
</g>
<g>
	<polygon points="62,235 66,228 71,236" fill="#aaff00"/>
	<line x1="187" y1="173" x2="68" y2="232" stroke="#aaff00" stroke-width="2"/>
</g>
<g>
	<polygon points="295,277 287,275 293,269" fill="#aaff00"/>
	<line x1="187" y1="173" x2="290" y2="272" stroke="#aaff00" stroke-width="2"/>
</g>
<g>
	<polygon points="100,202 106,195 109,204" fill="#aaff00"/>
	<line x1="187" y1="173" x2="107" y2="200" stroke="#aaff00" stroke-width="2"/>
</g>
<g>
	<polygon points="145,290 143,281 152,284" fill="#aaff00"/>
	<line x1="187" y1="173" x2="147" y2="283" stroke="#aaff00" stroke-width="2"/>
</g>
<g>
	<polygon points="173,245 170,237 179,238" fill="#aaff00"/>
	<line x1="187" y1="173" x2="175" y2="238" stroke="#aaff00" stroke-width="2"/>
</g>
<g>
	<polygon points="245,155 239,161 236,153" fill="#aaff00"/>
	<line x1="187" y1="173" x2="238" y2="157" stroke="#aaff00" stroke-width="2"/>
</g>
<g>
	<polygon points="247,105 245,114 238,108" fill="#aaff00"/>
	<line x1="187" y1="173" x2="242" y2="110" stroke="#aaff00" stroke-width="2"/>
</g>
<g>
	<polygon points="259,237 250,236 256,229" fill="#aaff00"/>
	<line x1="187" y1="173" x2="254" y2="233" stroke="#aaff00" stroke-width="2"/>
</g>
<g>
	<polygon points="102,66 111,69 104,75" fill="#aaff00"/>
	<line x1="187" y1="173" x2="107" y2="72" stroke="#aaff00" stroke-width="2"/>
</g>
<g>
	<polygon points="269,194 260,197 263,188" fill="#aaff00"/>
	<line x1="187" y1="173" x2="262" y2="193" stroke="#aaff00" stroke-width="2"/>
</g>
<g>
	<polygon points="242,290 234,285 242,281" fill="#aaff00"/>
	<line x1="187" y1="173" x2="239" y2="284" stroke="#aaff00" stroke-width="2"/>
</g>
<g>
	<polygon points="163,135 171,139 163,144" fill="#aaff00"/>
	<line x1="187" y1="173" x2="167" y2="141" stroke="#aaff00" stroke-width="2"/>
</g>
<g>
	<polygon points="126,240 127,231 134,237" fill="#aaff00"/>
	<line x1="187" y1="173" x2="130" y2="235" stroke="#aaff00" stroke-width="2"/>
</g>
<g>
	<polygon points="303,106 298,114 294,106" fill="#aaff00"/>
	<line x1="187" y1="173" x2="296" y2="109" stroke="#aaff00" stroke-width="2"/>
</g>
<g>
	<polygon points="204,140 204,149 197,145" fill="#aaff00"/>
	<line x1="187" y1="173" x2="201" y2="147" stroke="#aaff00" stroke-width="2"/>
</g>
<g>
	<polygon points="156,84 163,90 154,93" fill="#aaff00"/>
	<line x1="187" y1="173" x2="158" y2="91" stroke="#aaff00" stroke-width="2"/>
</g>
<g>
	<polygon points="60,110 69,109 65,117" fill="#aaff00"/>
	<line x1="187" y1="173" x2="66" y2="113" stroke="#aaff00" stroke-width="2"/>
</g>
<g>
	<polygon points="336,173 328,178 328,169" fill="#aaff00"/>
	<line x1="187" y1="173" x2="329" y2="173" stroke="#aaff00" stroke-width="2"/>
</g>
<g>
	<polygon points="135,167 143,163 142,172" fill="#aaff00"/>
	<line x1="187" y1="173" x2="142" y2="168" stroke="#aaff00" stroke-width="2"/>
</g>
<g>
	<polygon points="85,153 93,150 92,159" fill="#aaff00"/>
	<line x1="187" y1="173" x2="92" y2="155" stroke="#aaff00" stroke-width="2"/>
</g>
<g>
	<polygon points="218,194 209,193 214,186" fill="#aaff00"/>
	<line x1="187" y1="173" x2="212" y2="190" stroke="#aaff00" stroke-width="2"/>
</g>
<g>
	<polygon points="213,237 206,232 214,228" fill="#aaff00"/>
	<line x1="187" y1="173" x2="210" y2="231" stroke="#aaff00" stroke-width="2"/>
</g>
<g>
	<polygon points="314,222 305,223 309,215" fill="#aaff00"/>
	<line x1="187" y1="173" x2="308" y2="219" stroke="#aaff00" stroke-width="2"/>
</g>
<g>
	<polygon points="155,34 162,41 153,42" fill="#aaff00"/>
	<line x1="187" y1="173" x2="157" y2="41" stroke="#aaff00" stroke-width="2"/>
</g>
<g>
	<polygon points="194,290 189,283 198,282" fill="#aaff00"/>
	<line x1="187" y1="173" x2="194" y2="283" stroke="#aaff00" stroke-width="2"/>
</g>
<g>
	<polygon points="160,202 162,193 169,199" fill="#aaff00"/>
	<line x1="187" y1="173" x2="165" y2="197" stroke="#aaff00" stroke-width="2"/>
</g>
<g>
	<polygon points="211,48 214,56 205,55" fill="#aaff00"/>
	<line x1="187" y1="173" x2="209" y2="55" stroke="#aaff00" stroke-width="2"/>
</g>
<g>
	<polygon points="198,95 201,103 192,102" fill="#aaff00"/>
	<line x1="187" y1="173" x2="197" y2="102" stroke="#aaff00" stroke-width="2"/>
</g>
<g>
	<polygon points="94,285 96,276 103,282" fill="#aaff00"/>
	<line x1="187" y1="173" x2="99" y2="279" stroke="#aaff00" stroke-width="2"/>
</g>
<g>
	<polygon points="119,118 128,120 122,127" fill="#aaff00"/>
	<line x1="187" y1="173" x2="125" y2="123" stroke="#aaff00" stroke-width="2"/>
</g>
<g>
	<polygon points="278,46 280,37 287,43" fill="#aaff00"/>
	<line x1="312" y1="5" x2="283" y2="40" stroke="#aaff00" stroke-width="2"/>
</g>

<g fill="#000000">
	<circle cx="311" cy="4" r="4"/>
</g>
<g fill="#000000">
	<circle cx="363" cy="4" r="4"/>
</g>
<g fill="#000000">
	<circle cx="186" cy="172" r="4"/>
</g>
<g fill="#000000">
	<circle cx="275" cy="49" r="4"/>
</g>
<g fill="#000000">
	<circle cx="296" cy="152" r="4"/>
</g>
<g fill="#000000">
	<circle cx="37" cy="182" r="4"/>
</g>
<g fill="#000000">
	<circle cx="57" cy="237" r="4"/>
</g>
<g fill="#000000">
	<circle cx="298" cy="280" r="4"/>
</g>
<g fill="#000000">
	<circle cx="95" cy="203" r="4"/>
</g>
<g fill="#000000">
	<circle cx="143" cy="294" r="4"/>
</g>
<g fill="#000000">
	<circle cx="172" cy="249" r="4"/>
</g>
<g fill="#000000">
	<circle cx="249" cy="153" r="4"/>
</g>
<g fill="#000000">
	<circle cx="249" cy="101" r="4"/>
</g>
<g fill="#000000">
	<circle cx="262" cy="240" r="4"/>
</g>
<g fill="#000000">
	<circle cx="99" cy="62" r="4"/>
</g>
<g fill="#000000">
	<circle cx="273" cy="195" r="4"/>
</g>
<g fill="#000000">
	<circle cx="243" cy="294" r="4"/>
</g>
<g fill="#000000">
	<circle cx="160" cy="131" r="4"/>
</g>
<g fill="#000000">
	<circle cx="122" cy="243" r="4"/>
</g>
<g fill="#000000">
	<circle cx="306" cy="103" r="4"/>
</g>
<g fill="#000000">
	<circle cx="206" cy="136" r="4"/>
</g>
<g fill="#000000">
	<circle cx="154" cy="79" r="4"/>
</g>
<g fill="#000000">
	<circle cx="55" cy="107" r="4"/>
</g>
<g fill="#000000">
	<circle cx="340" cy="173" r="4"/>
</g>
<g fill="#000000">
	<circle cx="130" cy="166" r="4"/>
</g>
<g fill="#000000">
	<circle cx="80" cy="152" r="4"/>
</g>
<g fill="#000000">
	<circle cx="221" cy="196" r="4"/>
</g>
<g fill="#000000">
	<circle cx="214" cy="241" r="4"/>
</g>
<g fill="#000000">
	<circle cx="318" cy="223" r="4"/>
</g>
<g fill="#000000">
	<circle cx="154" cy="29" r="4"/>
</g>
<g fill="#000000">
	<circle cx="194" cy="294" r="4"/>
</g>
<g fill="#000000">
	<circle cx="157" cy="205" r="4"/>
</g>
<g fill="#000000">
	<circle cx="211" cy="43" r="4"/>
</g>
<g fill="#000000">
	<circle cx="198" cy="90" r="4"/>
</g>
<g fill="#000000">
	<circle cx="91" cy="288" r="4"/>
</g>
<g fill="#000000">
	<circle cx="115" cy="115" r="4"/>
</g>

</g>

</svg>
