<?xml version="1.0" encoding="utf-8"?>
<!-- Created with Hypercube (http://tumic.wz.cz/hypercube) -->

<svg width="400" height="300" viewBox="0 0 400 300" xmlns="http://www.w3.org/2000/svg" baseProfile="tiny">

<g font-family="Helvetica" font-weight="normal">

<g>
	<polygon points="214,223 205,224 209,216" fill="#aaff00"/>
	<line x1="51" y1="136" x2="207" y2="220" stroke="#aaff00" stroke-width="2"/>
</g>
<g>
	<polygon points="9,125 18,122 15,131" fill="#aaff00"/>
	<line x1="51" y1="136" x2="16" y2="126" stroke="#aaff00" stroke-width="2"/>
</g>
<g>
	<polygon points="7,78 15,82 8,87" fill="#aaff00"/>
	<line x1="51" y1="136" x2="12" y2="84" stroke="#aaff00" stroke-width="2"/>
</g>
<g>
	<polygon points="267,255 258,255 262,247" fill="#aaff00"/>
	<line x1="218" y1="226" x2="260" y2="251" stroke="#aaff00" stroke-width="2"/>
</g>
<g>
	<polygon points="222,226 230,222 229,231" fill="#aaff00"/>
	<line x1="336" y1="234" x2="229" y2="226" stroke="#aaff00" stroke-width="2"/>
</g>
<g>
	<polygon points="275,256 280,249 284,257" fill="#aaff00"/>
	<line x1="336" y1="234" x2="281" y2="253" stroke="#aaff00" stroke-width="2"/>
</g>
<g>
	<polygon points="383,158 383,167 375,162" fill="#aaff00"/>
	<line x1="336" y1="234" x2="379" y2="164" stroke="#aaff00" stroke-width="2"/>
</g>
<g>
	<polygon points="390,207 385,215 381,207" fill="#aaff00"/>
	<line x1="336" y1="234" x2="384" y2="211" stroke="#aaff00" stroke-width="2"/>
</g>
<g>
	<polygon points="334,290 329,282 338,282" fill="#aaff00"/>
	<line x1="336" y1="234" x2="334" y2="283" stroke="#aaff00" stroke-width="2"/>
</g>
<g>
	<polygon points="391,272 382,271 387,264" fill="#aaff00"/>
	<line x1="336" y1="234" x2="385" y2="268" stroke="#aaff00" stroke-width="2"/>
</g>
<g>
	<polygon points="394,201 388,194 397,193" fill="#aaff00"/>
	<line x1="386" y1="155" x2="392" y2="194" stroke="#aaff00" stroke-width="2"/>
</g>
<g>
	<polygon points="271,8 279,7 275,15" fill="#aaff00"/>
	<line x1="368" y1="58" x2="277" y2="11" stroke="#aaff00" stroke-width="2"/>
</g>
<g>
	<polygon points="385,150 379,143 388,142" fill="#aaff00"/>
	<line x1="368" y1="58" x2="383" y2="143" stroke="#aaff00" stroke-width="2"/>
</g>
<g>
	<polygon points="262,7 256,14 253,5" fill="#aaff00"/>
	<line x1="123" y1="54" x2="255" y2="9" stroke="#aaff00" stroke-width="2"/>
</g>
<g>
	<polygon points="118,54 111,60 110,51" fill="#aaff00"/>
	<line x1="5" y1="75" x2="111" y2="56" stroke="#aaff00" stroke-width="2"/>
</g>
<g>
	<polygon points="5,79 9,87 0,87" fill="#aaff00"/>
	<line x1="5" y1="124" x2="5" y2="86" stroke="#aaff00" stroke-width="2"/>
</g>
<g>
	<polygon points="6,128 13,133 5,137" fill="#aaff00"/>
	<line x1="26" y1="176" x2="9" y2="134" stroke="#aaff00" stroke-width="2"/>
</g>
<g>
	<polygon points="118,120 118,129 111,125" fill="#aaff00"/>
	<line x1="71" y1="205" x2="115" y2="127" stroke="#aaff00" stroke-width="2"/>
</g>
<g>
	<polygon points="29,178 38,178 33,186" fill="#aaff00"/>
	<line x1="71" y1="205" x2="35" y2="182" stroke="#aaff00" stroke-width="2"/>
</g>
<g>
	<polygon points="122,58 127,66 118,66" fill="#aaff00"/>
	<line x1="121" y1="117" x2="122" y2="65" stroke="#aaff00" stroke-width="2"/>
</g>
<g>
	<polygon points="9,122 14,114 18,122" fill="#aaff00"/>
	<line x1="81" y1="89" x2="15" y2="119" stroke="#aaff00" stroke-width="2"/>
</g>
<g>
	<polygon points="117,114 108,113 113,106" fill="#aaff00"/>
	<line x1="81" y1="89" x2="111" y2="110" stroke="#aaff00" stroke-width="2"/>
</g>
<g>
	<polygon points="28,172 28,163 36,168" fill="#aaff00"/>
	<line x1="81" y1="89" x2="32" y2="166" stroke="#aaff00" stroke-width="2"/>
</g>
<g>
	<polygon points="119,56 116,65 110,58" fill="#aaff00"/>
	<line x1="81" y1="89" x2="114" y2="61" stroke="#aaff00" stroke-width="2"/>
</g>
<g>
	<polygon points="119,12 119,21 111,17" fill="#aaff00"/>
	<line x1="81" y1="89" x2="115" y2="18" stroke="#aaff00" stroke-width="2"/>
</g>
<g>
	<polygon points="50,70 59,70 55,78" fill="#aaff00"/>
	<line x1="81" y1="89" x2="56" y2="74" stroke="#aaff00" stroke-width="2"/>
</g>
<g>
	<polygon points="46,12 54,17 45,21" fill="#aaff00"/>
	<line x1="81" y1="89" x2="49" y2="18" stroke="#aaff00" stroke-width="2"/>
</g>
<g>
	<polygon points="96,152 90,146 99,143" fill="#aaff00"/>
	<line x1="81" y1="89" x2="95" y2="145" stroke="#aaff00" stroke-width="2"/>
</g>
<g>
	<polygon points="122,49 117,41 126,41" fill="#aaff00"/>
	<line x1="121" y1="8" x2="122" y2="42" stroke="#aaff00" stroke-width="2"/>
</g>
<g>
	<polygon points="125,7 133,3 133,12" fill="#aaff00"/>
	<line x1="182" y1="7" x2="132" y2="7" stroke="#aaff00" stroke-width="2"/>
</g>
<g>
	<polygon points="271,5 279,1 279,10" fill="#aaff00"/>
	<line x1="324" y1="5" x2="278" y2="5" stroke="#aaff00" stroke-width="2"/>
</g>
<g>
	<polygon points="140,242 140,233 148,237" fill="#aaff00"/>
	<line x1="172" y1="187" x2="143" y2="235" stroke="#aaff00" stroke-width="2"/>
</g>
<g>
	<polygon points="102,291 103,282 111,288" fill="#aaff00"/>
	<line x1="138" y1="246" x2="107" y2="285" stroke="#aaff00" stroke-width="2"/>
</g>
<g>
	<polygon points="149,290 143,284 152,281" fill="#aaff00"/>
	<line x1="138" y1="246" x2="148" y2="283" stroke="#aaff00" stroke-width="2"/>
</g>
<g>
	<polygon points="146,295 138,299 138,290" fill="#aaff00"/>
	<line x1="100" y1="295" x2="139" y2="295" stroke="#aaff00" stroke-width="2"/>
</g>
<g>
	<polygon points="212,57 220,61 213,66" fill="#aaff00"/>
	<line x1="244" y1="105" x2="216" y2="63" stroke="#aaff00" stroke-width="2"/>
</g>
<g>
	<polygon points="330,116 322,119 323,110" fill="#aaff00"/>
	<line x1="244" y1="105" x2="323" y2="115" stroke="#aaff00" stroke-width="2"/>
</g>
<g>
	<polygon points="260,59 262,68 253,65" fill="#aaff00"/>
	<line x1="244" y1="105" x2="258" y2="66" stroke="#aaff00" stroke-width="2"/>
</g>
<g>
	<polygon points="190,105 198,100 198,109" fill="#aaff00"/>
	<line x1="244" y1="105" x2="197" y2="105" stroke="#aaff00" stroke-width="2"/>
</g>
<g>
	<polygon points="184,10 192,14 184,19" fill="#aaff00"/>
	<line x1="244" y1="105" x2="188" y2="16" stroke="#aaff00" stroke-width="2"/>
</g>
<g>
	<polygon points="302,77 297,85 293,77" fill="#aaff00"/>
	<line x1="244" y1="105" x2="296" y2="80" stroke="#aaff00" stroke-width="2"/>
</g>
<g>
	<polygon points="223,147 223,138 231,142" fill="#aaff00"/>
	<line x1="244" y1="105" x2="226" y2="141" stroke="#aaff00" stroke-width="2"/>
</g>
<g>
	<polygon points="266,179 260,173 268,170" fill="#aaff00"/>
	<line x1="244" y1="105" x2="264" y2="172" stroke="#aaff00" stroke-width="2"/>
</g>
<g>
	<polygon points="174,183 176,174 183,180" fill="#aaff00"/>
	<line x1="244" y1="105" x2="179" y2="178" stroke="#aaff00" stroke-width="2"/>
</g>
<g>
	<polygon points="284,134 275,133 280,126" fill="#aaff00"/>
	<line x1="244" y1="105" x2="278" y2="130" stroke="#aaff00" stroke-width="2"/>
</g>

<g fill="#000000">
	<circle cx="243" cy="104" r="4"/>
</g>
<g fill="#000000">
	<circle cx="209" cy="53" r="4"/>
</g>
<g fill="#000000">
	<circle cx="334" cy="116" r="4"/>
</g>
<g fill="#000000">
	<circle cx="261" cy="54" r="4"/>
</g>
<g fill="#000000">
	<circle cx="185" cy="104" r="4"/>
</g>
<g fill="#000000">
	<circle cx="50" cy="135" r="4"/>
</g>
<g fill="#000000">
	<circle cx="217" cy="225" r="4"/>
</g>
<g fill="#000000">
	<circle cx="4" cy="123" r="4"/>
</g>
<g fill="#000000">
	<circle cx="270" cy="257" r="4"/>
</g>
<g fill="#000000">
	<circle cx="4" cy="74" r="4"/>
</g>
<g fill="#000000">
	<circle cx="306" cy="75" r="4"/>
</g>
<g fill="#000000">
	<circle cx="70" cy="204" r="4"/>
</g>
<g fill="#000000">
	<circle cx="120" cy="116" r="4"/>
</g>
<g fill="#000000">
	<circle cx="25" cy="175" r="4"/>
</g>
<g fill="#000000">
	<circle cx="122" cy="53" r="4"/>
</g>
<g fill="#000000">
	<circle cx="181" cy="6" r="4"/>
</g>
<g fill="#000000">
	<circle cx="120" cy="7" r="4"/>
</g>
<g fill="#000000">
	<circle cx="221" cy="151" r="4"/>
</g>
<g fill="#000000">
	<circle cx="46" cy="67" r="4"/>
</g>
<g fill="#000000">
	<circle cx="266" cy="5" r="4"/>
</g>
<g fill="#000000">
	<circle cx="44" cy="7" r="4"/>
</g>
<g fill="#000000">
	<circle cx="97" cy="156" r="4"/>
</g>
<g fill="#000000">
	<circle cx="80" cy="88" r="4"/>
</g>
<g fill="#000000">
	<circle cx="267" cy="183" r="4"/>
</g>
<g fill="#000000">
	<circle cx="171" cy="186" r="4"/>
</g>
<g fill="#000000">
	<circle cx="137" cy="245" r="4"/>
</g>
<g fill="#000000">
	<circle cx="99" cy="294" r="4"/>
</g>
<g fill="#000000">
	<circle cx="150" cy="294" r="4"/>
</g>
<g fill="#000000">
	<circle cx="287" cy="136" r="4"/>
</g>
<g fill="#000000">
	<circle cx="367" cy="57" r="4"/>
</g>
<g fill="#000000">
	<circle cx="385" cy="154" r="4"/>
</g>
<g fill="#000000">
	<circle cx="394" cy="205" r="4"/>
</g>
<g fill="#000000">
	<circle cx="323" cy="4" r="4"/>
</g>
<g fill="#000000">
	<circle cx="333" cy="294" r="4"/>
</g>
<g fill="#000000">
	<circle cx="394" cy="274" r="4"/>
</g>
<g fill="#000000">
	<circle cx="335" cy="233" r="4"/>
</g>

</g>

</svg>
