<?xml version="1.0" encoding="utf-8"?>
<!-- Created with Hypercube (http://tumic.wz.cz/hypercube) -->

<svg width="400" height="300" viewBox="0 0 400 300" xmlns="http://www.w3.org/2000/svg" baseProfile="tiny">

<g font-family="Helvetica" font-weight="normal">

<g>
	<polygon points="187,295 195,290 195,299" fill="#aaff00"/>
	<line x1="283" y1="295" x2="194" y2="295" stroke="#aaff00" stroke-width="2"/>
</g>
<g>
	<polygon points="134,207 141,212 134,216" fill="#aaff00"/>
	<line x1="183" y1="295" x2="137" y2="214" stroke="#aaff00" stroke-width="2"/>
</g>
<g>
	<polygon points="127,204 120,209 119,200" fill="#aaff00"/>
	<line x1="58" y1="209" x2="120" y2="204" stroke="#aaff00" stroke-width="2"/>
</g>
<g>
	<polygon points="53,208 45,210 47,201" fill="#aaff00"/>
	<line x1="5" y1="197" x2="46" y2="206" stroke="#aaff00" stroke-width="2"/>
</g>
<g>
	<polygon points="129,207 127,216 120,210" fill="#aaff00"/>
	<line x1="78" y1="271" x2="124" y2="213" stroke="#aaff00" stroke-width="2"/>
</g>
<g>
	<polygon points="73,272 68,280 64,271" fill="#aaff00"/>
	<line x1="23" y1="295" x2="67" y2="275" stroke="#aaff00" stroke-width="2"/>
</g>
<g>
	<polygon points="136,202 141,195 145,203" fill="#aaff00"/>
	<line x1="273" y1="144" x2="142" y2="199" stroke="#aaff00" stroke-width="2"/>
</g>
<g>
	<polygon points="374,163 366,159 373,154" fill="#aaff00"/>
	<line x1="346" y1="123" x2="370" y2="157" stroke="#aaff00" stroke-width="2"/>
</g>
<g>
	<polygon points="277,142 283,136 286,144" fill="#aaff00"/>
	<line x1="346" y1="123" x2="284" y2="140" stroke="#aaff00" stroke-width="2"/>
</g>
<g>
	<polygon points="323,181 329,175 332,184" fill="#aaff00"/>
	<line x1="377" y1="167" x2="330" y2="179" stroke="#aaff00" stroke-width="2"/>
</g>
<g>
	<polygon points="317,187 318,196 310,192" fill="#aaff00"/>
	<line x1="296" y1="241" x2="314" y2="193" stroke="#aaff00" stroke-width="2"/>
</g>
<g>
	<polygon points="292,243 289,252 283,245" fill="#aaff00"/>
	<line x1="235" y1="293" x2="287" y2="248" stroke="#aaff00" stroke-width="2"/>
</g>
<g>
	<polygon points="167,260 176,260 172,268" fill="#aaff00"/>
	<line x1="235" y1="293" x2="173" y2="263" stroke="#aaff00" stroke-width="2"/>
</g>
<g>
	<polygon points="134,207 141,212 134,216" fill="#aaff00"/>
	<line x1="163" y1="259" x2="137" y2="214" stroke="#aaff00" stroke-width="2"/>
</g>
<g>
	<polygon points="315,180 306,179 311,171" fill="#aaff00"/>
	<line x1="227" y1="113" x2="309" y2="175" stroke="#aaff00" stroke-width="2"/>
</g>
<g>
	<polygon points="222,111 213,113 216,105" fill="#aaff00"/>
	<line x1="122" y1="82" x2="215" y2="109" stroke="#aaff00" stroke-width="2"/>
</g>
<g>
	<polygon points="86,127 87,118 95,124" fill="#aaff00"/>
	<line x1="122" y1="82" x2="91" y2="121" stroke="#aaff00" stroke-width="2"/>
</g>
<g>
	<polygon points="129,200 121,196 129,191" fill="#aaff00"/>
	<line x1="84" y1="131" x2="125" y2="194" stroke="#aaff00" stroke-width="2"/>
</g>
<g>
	<polygon points="129,200 121,196 128,191" fill="#aaff00"/>
	<line x1="56" y1="89" x2="125" y2="194" stroke="#aaff00" stroke-width="2"/>
</g>
<g>
	<polygon points="144,5 137,11 136,2" fill="#aaff00"/>
	<line x1="81" y1="17" x2="137" y2="7" stroke="#aaff00" stroke-width="2"/>
</g>
<g>
	<polygon points="57,84 55,75 64,78" fill="#aaff00"/>
	<line x1="81" y1="17" x2="59" y2="77" stroke="#aaff00" stroke-width="2"/>
</g>
<g>
	<polygon points="282,5 274,10 274,1" fill="#aaff00"/>
	<line x1="149" y1="5" x2="275" y2="5" stroke="#aaff00" stroke-width="2"/>
</g>
<g>
	<polygon points="291,5 299,1 299,10" fill="#aaff00"/>
	<line x1="346" y1="5" x2="298" y2="5" stroke="#aaff00" stroke-width="2"/>
</g>
<g>
	<polygon points="350,5 358,0 358,9" fill="#aaff00"/>
	<line x1="395" y1="5" x2="357" y2="5" stroke="#aaff00" stroke-width="2"/>
</g>
<g>
	<polygon points="282,6 274,10 274,1" fill="#aaff00"/>
	<line x1="246" y1="6" x2="275" y2="6" stroke="#aaff00" stroke-width="2"/>
</g>
<g>
	<polygon points="241,6 233,10 233,1" fill="#aaff00"/>
	<line x1="206" y1="6" x2="234" y2="6" stroke="#aaff00" stroke-width="2"/>
</g>
<g>
	<polygon points="204,10 206,19 198,16" fill="#aaff00"/>
	<line x1="192" y1="53" x2="202" y2="17" stroke="#aaff00" stroke-width="2"/>
</g>
<g>
	<polygon points="157,139 155,131 164,132" fill="#aaff00"/>
	<line x1="167" y1="99" x2="159" y2="132" stroke="#aaff00" stroke-width="2"/>
</g>
<g>
	<polygon points="117,157 119,148 126,154" fill="#aaff00"/>
	<line x1="167" y1="99" x2="122" y2="152" stroke="#aaff00" stroke-width="2"/>
</g>
<g>
	<polygon points="189,56 190,65 182,61" fill="#aaff00"/>
	<line x1="167" y1="99" x2="186" y2="63" stroke="#aaff00" stroke-width="2"/>
</g>
<g>
	<polygon points="133,199 132,190 140,194" fill="#aaff00"/>
	<line x1="157" y1="144" x2="136" y2="193" stroke="#aaff00" stroke-width="2"/>
</g>
<g>
	<polygon points="130,199 123,194 131,190" fill="#aaff00"/>
	<line x1="115" y1="161" x2="127" y2="193" stroke="#aaff00" stroke-width="2"/>
</g>
<g>
	<polygon points="287,10 291,18 282,18" fill="#aaff00"/>
	<line x1="288" y1="81" x2="287" y2="17" stroke="#aaff00" stroke-width="2"/>
</g>
<g>
	<polygon points="224,226 223,217 231,221" fill="#aaff00"/>
	<line x1="242" y1="185" x2="227" y2="220" stroke="#aaff00" stroke-width="2"/>
</g>
<g>
	<polygon points="180,213 185,205 189,214" fill="#aaff00"/>
	<line x1="242" y1="185" x2="186" y2="210" stroke="#aaff00" stroke-width="2"/>
</g>
<g>
	<polygon points="202,177 210,174 209,183" fill="#aaff00"/>
	<line x1="242" y1="185" x2="209" y2="179" stroke="#aaff00" stroke-width="2"/>
</g>
<g>
	<polygon points="286,85 287,94 278,90" fill="#aaff00"/>
	<line x1="242" y1="185" x2="283" y2="91" stroke="#aaff00" stroke-width="2"/>
</g>
<g>
	<polygon points="136,205 145,203 142,211" fill="#aaff00"/>
	<line x1="223" y1="231" x2="143" y2="207" stroke="#aaff00" stroke-width="2"/>
</g>
<g>
	<polygon points="136,205 145,202 142,211" fill="#aaff00"/>
	<line x1="176" y1="215" x2="143" y2="206" stroke="#aaff00" stroke-width="2"/>
</g>
<g>
	<polygon points="136,202 141,195 145,203" fill="#aaff00"/>
	<line x1="198" y1="177" x2="142" y2="199" stroke="#aaff00" stroke-width="2"/>
</g>
<g>
	<polygon points="287,295 295,290 295,299" fill="#aaff00"/>
	<line x1="344" y1="295" x2="294" y2="295" stroke="#aaff00" stroke-width="2"/>
</g>
<g>
	<polygon points="390,295 382,299 382,290" fill="#aaff00"/>
	<line x1="344" y1="295" x2="383" y2="295" stroke="#aaff00" stroke-width="2"/>
</g>

<g fill="#000000">
	<circle cx="343" cy="294" r="4"/>
</g>
<g fill="#000000">
	<circle cx="282" cy="294" r="4"/>
</g>
<g fill="#000000">
	<circle cx="182" cy="294" r="4"/>
</g>
<g fill="#000000">
	<circle cx="4" cy="196" r="4"/>
</g>
<g fill="#000000">
	<circle cx="57" cy="208" r="4"/>
</g>
<g fill="#000000">
	<circle cx="22" cy="294" r="4"/>
</g>
<g fill="#000000">
	<circle cx="77" cy="270" r="4"/>
</g>
<g fill="#000000">
	<circle cx="345" cy="122" r="4"/>
</g>
<g fill="#000000">
	<circle cx="376" cy="166" r="4"/>
</g>
<g fill="#000000">
	<circle cx="272" cy="143" r="4"/>
</g>
<g fill="#000000">
	<circle cx="234" cy="292" r="4"/>
</g>
<g fill="#000000">
	<circle cx="295" cy="240" r="4"/>
</g>
<g fill="#000000">
	<circle cx="162" cy="258" r="4"/>
</g>
<g fill="#000000">
	<circle cx="121" cy="81" r="4"/>
</g>
<g fill="#000000">
	<circle cx="226" cy="112" r="4"/>
</g>
<g fill="#000000">
	<circle cx="83" cy="130" r="4"/>
</g>
<g fill="#000000">
	<circle cx="394" cy="4" r="4"/>
</g>
<g fill="#000000">
	<circle cx="345" cy="4" r="4"/>
</g>
<g fill="#000000">
	<circle cx="80" cy="16" r="4"/>
</g>
<g fill="#000000">
	<circle cx="148" cy="4" r="4"/>
</g>
<g fill="#000000">
	<circle cx="55" cy="88" r="4"/>
</g>
<g fill="#000000">
	<circle cx="131" cy="203" r="4"/>
</g>
<g fill="#000000">
	<circle cx="286" cy="5" r="4"/>
</g>
<g fill="#000000">
	<circle cx="318" cy="182" r="4"/>
</g>
<g fill="#000000">
	<circle cx="205" cy="5" r="4"/>
</g>
<g fill="#000000">
	<circle cx="245" cy="5" r="4"/>
</g>
<g fill="#000000">
	<circle cx="166" cy="98" r="4"/>
</g>
<g fill="#000000">
	<circle cx="156" cy="143" r="4"/>
</g>
<g fill="#000000">
	<circle cx="114" cy="160" r="4"/>
</g>
<g fill="#000000">
	<circle cx="191" cy="52" r="4"/>
</g>
<g fill="#000000">
	<circle cx="241" cy="184" r="4"/>
</g>
<g fill="#000000">
	<circle cx="222" cy="230" r="4"/>
</g>
<g fill="#000000">
	<circle cx="175" cy="214" r="4"/>
</g>
<g fill="#000000">
	<circle cx="197" cy="176" r="4"/>
</g>
<g fill="#000000">
	<circle cx="287" cy="80" r="4"/>
</g>
<g fill="#000000">
	<circle cx="394" cy="294" r="4"/>
</g>

</g>

</svg>
