<?xml version="1.0" encoding="utf-8"?>
<!-- Created with Hypercube (http://tumic.wz.cz/hypercube) -->

<svg width="400" height="300" viewBox="0 0 400 300" xmlns="http://www.w3.org/2000/svg" baseProfile="tiny">

<g font-family="Helvetica" font-weight="normal">

<g>
	<polygon points="200,196 209,194 206,203" fill="#aaff00"/>
	<line x1="293" y1="226" x2="207" y2="198" stroke="#aaff00" stroke-width="2"/>
</g>
<g>
	<polygon points="338,189 335,198 329,191" fill="#aaff00"/>
	<line x1="293" y1="226" x2="332" y2="194" stroke="#aaff00" stroke-width="2"/>
</g>
<g>
	<polygon points="296,282 291,275 300,274" fill="#aaff00"/>
	<line x1="293" y1="226" x2="296" y2="275" stroke="#aaff00" stroke-width="2"/>
</g>
<g>
	<polygon points="77,261 82,254 86,261" fill="#aaff00"/>
	<line x1="196" y1="195" x2="84" y2="258" stroke="#aaff00" stroke-width="2"/>
</g>
<g>
	<polygon points="262,100 261,109 254,104" fill="#aaff00"/>
	<line x1="196" y1="195" x2="258" y2="106" stroke="#aaff00" stroke-width="2"/>
</g>
<g>
	<polygon points="109,221 115,215 118,223" fill="#aaff00"/>
	<line x1="196" y1="195" x2="116" y2="219" stroke="#aaff00" stroke-width="2"/>
</g>
<g>
	<polygon points="237,206 228,208 231,200" fill="#aaff00"/>
	<line x1="196" y1="195" x2="230" y2="204" stroke="#aaff00" stroke-width="2"/>
</g>
<g>
	<polygon points="122,157 130,156 126,164" fill="#aaff00"/>
	<line x1="196" y1="195" x2="128" y2="160" stroke="#aaff00" stroke-width="2"/>
</g>
<g>
	<polygon points="182,271 179,263 188,264" fill="#aaff00"/>
	<line x1="196" y1="195" x2="183" y2="264" stroke="#aaff00" stroke-width="2"/>
</g>
<g>
	<polygon points="175,163 183,167 175,172" fill="#aaff00"/>
	<line x1="196" y1="195" x2="179" y2="169" stroke="#aaff00" stroke-width="2"/>
</g>
<g>
	<polygon points="247,276 239,272 247,267" fill="#aaff00"/>
	<line x1="196" y1="195" x2="243" y2="270" stroke="#aaff00" stroke-width="2"/>
</g>
<g>
	<polygon points="208,109 211,117 202,116" fill="#aaff00"/>
	<line x1="196" y1="195" x2="207" y2="116" stroke="#aaff00" stroke-width="2"/>
</g>
<g>
	<polygon points="154,82 161,87 153,91" fill="#aaff00"/>
	<line x1="196" y1="195" x2="157" y2="88" stroke="#aaff00" stroke-width="2"/>
</g>
<g>
	<polygon points="231,144 230,153 223,148" fill="#aaff00"/>
	<line x1="196" y1="195" x2="227" y2="150" stroke="#aaff00" stroke-width="2"/>
</g>
<g>
	<polygon points="9,191 18,194 11,200" fill="#aaff00"/>
	<line x1="74" y1="264" x2="14" y2="196" stroke="#aaff00" stroke-width="2"/>
</g>
<g>
	<polygon points="61,129 59,138 53,131" fill="#aaff00"/>
	<line x1="7" y1="188" x2="57" y2="134" stroke="#aaff00" stroke-width="2"/>
</g>
<g>
	<polygon points="66,121 65,112 74,116" fill="#aaff00"/>
	<line x1="86" y1="79" x2="69" y2="115" stroke="#aaff00" stroke-width="2"/>
</g>
<g>
	<polygon points="9,51 17,47 16,56" fill="#aaff00"/>
	<line x1="49" y1="54" x2="16" y2="51" stroke="#aaff00" stroke-width="2"/>
</g>
<g>
	<polygon points="82,76 73,75 78,68" fill="#aaff00"/>
	<line x1="49" y1="54" x2="76" y2="72" stroke="#aaff00" stroke-width="2"/>
</g>
<g>
	<polygon points="5,102 0,94 9,94" fill="#aaff00"/>
	<line x1="5" y1="51" x2="5" y2="95" stroke="#aaff00" stroke-width="2"/>
</g>
<g>
	<polygon points="56,7 53,16 47,9" fill="#aaff00"/>
	<line x1="5" y1="51" x2="51" y2="12" stroke="#aaff00" stroke-width="2"/>
</g>
<g>
	<polygon points="5,9 9,17 0,17" fill="#aaff00"/>
	<line x1="5" y1="51" x2="5" y2="16" stroke="#aaff00" stroke-width="2"/>
</g>
<g>
	<polygon points="60,124 51,126 54,117" fill="#aaff00"/>
	<line x1="5" y1="107" x2="53" y2="122" stroke="#aaff00" stroke-width="2"/>
</g>
<g>
	<polygon points="68,128 77,127 73,135" fill="#aaff00"/>
	<line x1="118" y1="155" x2="75" y2="131" stroke="#aaff00" stroke-width="2"/>
</g>
<g>
	<polygon points="68,123 73,116 77,124" fill="#aaff00"/>
	<line x1="153" y1="78" x2="75" y2="120" stroke="#aaff00" stroke-width="2"/>
</g>
<g>
	<polygon points="216,63 210,69 208,60" fill="#aaff00"/>
	<line x1="153" y1="78" x2="209" y2="64" stroke="#aaff00" stroke-width="2"/>
</g>
<g>
	<polygon points="224,64 233,66 227,73" fill="#aaff00"/>
	<line x1="265" y1="97" x2="230" y2="69" stroke="#aaff00" stroke-width="2"/>
</g>
<g>
	<polygon points="219,66 222,75 213,72" fill="#aaff00"/>
	<line x1="209" y1="105" x2="217" y2="73" stroke="#aaff00" stroke-width="2"/>
</g>
<g>
	<polygon points="221,66 227,73 218,74" fill="#aaff00"/>
	<line x1="234" y1="141" x2="222" y2="73" stroke="#aaff00" stroke-width="2"/>
</g>
<g>
	<polygon points="74,189 83,192 76,198" fill="#aaff00"/>
	<line x1="105" y1="223" x2="79" y2="194" stroke="#aaff00" stroke-width="2"/>
</g>
<g>
	<polygon points="143,221 135,226 135,217" fill="#aaff00"/>
	<line x1="105" y1="223" x2="136" y2="221" stroke="#aaff00" stroke-width="2"/>
</g>
<g>
	<polygon points="48,223 56,219 56,228" fill="#aaff00"/>
	<line x1="105" y1="223" x2="55" y2="223" stroke="#aaff00" stroke-width="2"/>
</g>
<g>
	<polygon points="140,293 145,286 149,294" fill="#aaff00"/>
	<line x1="182" y1="276" x2="146" y2="290" stroke="#aaff00" stroke-width="2"/>
</g>
<g>
	<polygon points="160,124 167,130 158,133" fill="#aaff00"/>
	<line x1="173" y1="160" x2="162" y2="131" stroke="#aaff00" stroke-width="2"/>
</g>
<g>
	<polygon points="338,294 330,297 331,288" fill="#aaff00"/>
	<line x1="250" y1="280" x2="331" y2="293" stroke="#aaff00" stroke-width="2"/>
</g>
<g>
	<polygon points="390,295 382,299 382,290" fill="#aaff00"/>
	<line x1="343" y1="295" x2="383" y2="295" stroke="#aaff00" stroke-width="2"/>
</g>
<g>
	<polygon points="380,135 379,144 372,139" fill="#aaff00"/>
	<line x1="342" y1="187" x2="376" y2="141" stroke="#aaff00" stroke-width="2"/>
</g>
<g>
	<polygon points="321,146 329,151 321,155" fill="#aaff00"/>
	<line x1="342" y1="187" x2="325" y2="152" stroke="#aaff00" stroke-width="2"/>
</g>
<g>
	<polygon points="394,182 387,175 396,174" fill="#aaff00"/>
	<line x1="383" y1="132" x2="392" y2="175" stroke="#aaff00" stroke-width="2"/>
</g>
<g>
	<polygon points="393,87 396,96 387,93" fill="#aaff00"/>
	<line x1="383" y1="132" x2="392" y2="94" stroke="#aaff00" stroke-width="2"/>
</g>
<g>
	<polygon points="354,61 361,66 353,70" fill="#aaff00"/>
	<line x1="383" y1="132" x2="357" y2="67" stroke="#aaff00" stroke-width="2"/>
</g>
<g>
	<polygon points="395,31 399,39 390,39" fill="#aaff00"/>
	<line x1="395" y1="83" x2="395" y2="38" stroke="#aaff00" stroke-width="2"/>
</g>
<g>
	<polygon points="391,29 387,37 382,30" fill="#aaff00"/>
	<line x1="353" y1="57" x2="385" y2="33" stroke="#aaff00" stroke-width="2"/>
</g>

<g fill="#000000">
	<circle cx="292" cy="225" r="4"/>
</g>
<g fill="#000000">
	<circle cx="195" cy="194" r="4"/>
</g>
<g fill="#000000">
	<circle cx="341" cy="186" r="4"/>
</g>
<g fill="#000000">
	<circle cx="296" cy="286" r="4"/>
</g>
<g fill="#000000">
	<circle cx="48" cy="53" r="4"/>
</g>
<g fill="#000000">
	<circle cx="4" cy="50" r="4"/>
</g>
<g fill="#000000">
	<circle cx="85" cy="78" r="4"/>
</g>
<g fill="#000000">
	<circle cx="73" cy="263" r="4"/>
</g>
<g fill="#000000">
	<circle cx="6" cy="187" r="4"/>
</g>
<g fill="#000000">
	<circle cx="64" cy="125" r="4"/>
</g>
<g fill="#000000">
	<circle cx="264" cy="96" r="4"/>
</g>
<g fill="#000000">
	<circle cx="104" cy="222" r="4"/>
</g>
<g fill="#000000">
	<circle cx="241" cy="207" r="4"/>
</g>
<g fill="#000000">
	<circle cx="117" cy="154" r="4"/>
</g>
<g fill="#000000">
	<circle cx="181" cy="275" r="4"/>
</g>
<g fill="#000000">
	<circle cx="172" cy="159" r="4"/>
</g>
<g fill="#000000">
	<circle cx="249" cy="279" r="4"/>
</g>
<g fill="#000000">
	<circle cx="208" cy="104" r="4"/>
</g>
<g fill="#000000">
	<circle cx="152" cy="77" r="4"/>
</g>
<g fill="#000000">
	<circle cx="233" cy="140" r="4"/>
</g>
<g fill="#000000">
	<circle cx="220" cy="61" r="4"/>
</g>
<g fill="#000000">
	<circle cx="71" cy="185" r="4"/>
</g>
<g fill="#000000">
	<circle cx="147" cy="220" r="4"/>
</g>
<g fill="#000000">
	<circle cx="43" cy="223" r="4"/>
</g>
<g fill="#000000">
	<circle cx="135" cy="294" r="4"/>
</g>
<g fill="#000000">
	<circle cx="158" cy="119" r="4"/>
</g>
<g fill="#000000">
	<circle cx="342" cy="294" r="4"/>
</g>
<g fill="#000000">
	<circle cx="382" cy="131" r="4"/>
</g>
<g fill="#000000">
	<circle cx="319" cy="141" r="4"/>
</g>
<g fill="#000000">
	<circle cx="4" cy="106" r="4"/>
</g>
<g fill="#000000">
	<circle cx="59" cy="4" r="4"/>
</g>
<g fill="#000000">
	<circle cx="4" cy="4" r="4"/>
</g>
<g fill="#000000">
	<circle cx="394" cy="294" r="4"/>
</g>
<g fill="#000000">
	<circle cx="394" cy="186" r="4"/>
</g>
<g fill="#000000">
	<circle cx="394" cy="82" r="4"/>
</g>
<g fill="#000000">
	<circle cx="352" cy="56" r="4"/>
</g>
<g fill="#000000">
	<circle cx="394" cy="26" r="4"/>
</g>

</g>

</svg>
