<?xml version="1.0" encoding="utf-8"?>
<!-- Created with Hypercube (http://tumic.wz.cz/hypercube) -->

<svg width="400" height="300" viewBox="0 0 400 300" xmlns="http://www.w3.org/2000/svg" baseProfile="tiny">

<g font-family="Helvetica" font-weight="normal">

<g>
	<polygon points="339,283 331,281 337,274" fill="#aaff00"/>
	<line x1="302" y1="244" x2="334" y2="278" stroke="#aaff00" stroke-width="2"/>
</g>
<g>
	<polygon points="293,294 300,288 301,297" fill="#aaff00"/>
	<line x1="343" y1="287" x2="300" y2="293" stroke="#aaff00" stroke-width="2"/>
</g>
<g>
	<polygon points="353,231 356,239 347,238" fill="#aaff00"/>
	<line x1="343" y1="287" x2="351" y2="238" stroke="#aaff00" stroke-width="2"/>
</g>
<g>
	<polygon points="390,294 382,297 383,288" fill="#aaff00"/>
	<line x1="343" y1="287" x2="383" y2="293" stroke="#aaff00" stroke-width="2"/>
</g>
<g>
	<polygon points="393,135 394,144 386,140" fill="#aaff00"/>
	<line x1="354" y1="227" x2="390" y2="141" stroke="#aaff00" stroke-width="2"/>
</g>
<g>
	<polygon points="240,202 248,200 247,208" fill="#aaff00"/>
	<line x1="354" y1="227" x2="247" y2="204" stroke="#aaff00" stroke-width="2"/>
</g>
<g>
	<polygon points="394,74 398,82 389,82" fill="#aaff00"/>
	<line x1="395" y1="131" x2="394" y2="81" stroke="#aaff00" stroke-width="2"/>
</g>
<g>
	<polygon points="343,50 352,49 348,57" fill="#aaff00"/>
	<line x1="394" y1="70" x2="349" y2="53" stroke="#aaff00" stroke-width="2"/>
</g>
<g>
	<polygon points="297,73 302,65 306,73" fill="#aaff00"/>
	<line x1="339" y1="49" x2="304" y2="69" stroke="#aaff00" stroke-width="2"/>
</g>
<g>
	<polygon points="252,65 259,59 260,68" fill="#aaff00"/>
	<line x1="339" y1="49" x2="259" y2="63" stroke="#aaff00" stroke-width="2"/>
</g>
<g>
	<polygon points="299,9 303,17 294,16" fill="#aaff00"/>
	<line x1="294" y1="76" x2="299" y2="16" stroke="#aaff00" stroke-width="2"/>
</g>
<g>
	<polygon points="237,197 237,188 245,192" fill="#aaff00"/>
	<line x1="294" y1="76" x2="240" y2="191" stroke="#aaff00" stroke-width="2"/>
</g>
<g>
	<polygon points="224,248 221,239 230,242" fill="#aaff00"/>
	<line x1="236" y1="202" x2="225" y2="241" stroke="#aaff00" stroke-width="2"/>
</g>
<g>
	<polygon points="144,257 152,252 152,261" fill="#aaff00"/>
	<line x1="223" y1="253" x2="151" y2="257" stroke="#aaff00" stroke-width="2"/>
</g>
<g>
	<polygon points="292,200 288,208 283,201" fill="#aaff00"/>
	<line x1="223" y1="253" x2="286" y2="205" stroke="#aaff00" stroke-width="2"/>
</g>
<g>
	<polygon points="107,157 114,163 105,166" fill="#aaff00"/>
	<line x1="140" y1="258" x2="109" y2="164" stroke="#aaff00" stroke-width="2"/>
</g>
<g>
	<polygon points="186,78 184,86 177,80" fill="#aaff00"/>
	<line x1="106" y1="153" x2="181" y2="82" stroke="#aaff00" stroke-width="2"/>
</g>
<g>
	<polygon points="169,16 176,22 167,25" fill="#aaff00"/>
	<line x1="190" y1="75" x2="171" y2="23" stroke="#aaff00" stroke-width="2"/>
</g>
<g>
	<polygon points="324,126 315,127 319,119" fill="#aaff00"/>
	<line x1="190" y1="75" x2="318" y2="123" stroke="#aaff00" stroke-width="2"/>
</g>
<g>
	<polygon points="124,5 132,2 131,11" fill="#aaff00"/>
	<line x1="168" y1="12" x2="131" y2="6" stroke="#aaff00" stroke-width="2"/>
</g>
<g>
	<polygon points="213,5 206,11 205,2" fill="#aaff00"/>
	<line x1="168" y1="12" x2="206" y2="6" stroke="#aaff00" stroke-width="2"/>
</g>
<g>
	<polygon points="391,178 382,176 388,169" fill="#aaff00"/>
	<line x1="329" y1="128" x2="385" y2="173" stroke="#aaff00" stroke-width="2"/>
</g>
<g>
	<polygon points="297,193 297,184 305,188" fill="#aaff00"/>
	<line x1="329" y1="128" x2="300" y2="187" stroke="#aaff00" stroke-width="2"/>
</g>
<g>
	<polygon points="338,180 333,187 329,179" fill="#aaff00"/>
	<line x1="296" y1="198" x2="332" y2="183" stroke="#aaff00" stroke-width="2"/>
</g>
<g>
	<polygon points="231,202 224,208 223,200" fill="#aaff00"/>
	<line x1="177" y1="214" x2="224" y2="204" stroke="#aaff00" stroke-width="2"/>
</g>
<g>
	<polygon points="175,209 168,203 177,200" fill="#aaff00"/>
	<line x1="162" y1="169" x2="173" y2="202" stroke="#aaff00" stroke-width="2"/>
</g>
<g>
	<polygon points="77,106 85,103 84,112" fill="#aaff00"/>
	<line x1="143" y1="119" x2="84" y2="108" stroke="#aaff00" stroke-width="2"/>
</g>
<g>
	<polygon points="160,164 153,159 161,155" fill="#aaff00"/>
	<line x1="143" y1="119" x2="157" y2="158" stroke="#aaff00" stroke-width="2"/>
</g>
<g>
	<polygon points="18,130 23,122 27,131" fill="#aaff00"/>
	<line x1="73" y1="106" x2="24" y2="127" stroke="#aaff00" stroke-width="2"/>
</g>
<g>
	<polygon points="5,69 11,76 2,77" fill="#aaff00"/>
	<line x1="14" y1="132" x2="6" y2="76" stroke="#aaff00" stroke-width="2"/>
</g>
<g>
	<polygon points="39,194 32,189 40,185" fill="#aaff00"/>
	<line x1="14" y1="132" x2="36" y2="188" stroke="#aaff00" stroke-width="2"/>
</g>
<g>
	<polygon points="44,36 40,44 35,37" fill="#aaff00"/>
	<line x1="5" y1="65" x2="38" y2="40" stroke="#aaff00" stroke-width="2"/>
</g>
<g>
	<polygon points="5,10 9,18 0,18" fill="#aaff00"/>
	<line x1="5" y1="65" x2="5" y2="17" stroke="#aaff00" stroke-width="2"/>
</g>
<g>
	<polygon points="7,244 8,235 15,240" fill="#aaff00"/>
	<line x1="41" y1="199" x2="11" y2="238" stroke="#aaff00" stroke-width="2"/>
</g>
<g>
	<polygon points="117,201 109,206 109,197" fill="#aaff00"/>
	<line x1="41" y1="199" x2="110" y2="201" stroke="#aaff00" stroke-width="2"/>
</g>
<g>
	<polygon points="172,213 164,215 165,206" fill="#aaff00"/>
	<line x1="122" y1="202" x2="165" y2="211" stroke="#aaff00" stroke-width="2"/>
</g>
<g>
	<polygon points="147,119 155,116 154,125" fill="#aaff00"/>
	<line x1="193" y1="126" x2="154" y2="120" stroke="#aaff00" stroke-width="2"/>
</g>
<g>
	<polygon points="125,198 127,189 133,196" fill="#aaff00"/>
	<line x1="193" y1="126" x2="129" y2="193" stroke="#aaff00" stroke-width="2"/>
</g>
<g>
	<polygon points="196,122 197,113 204,119" fill="#aaff00"/>
	<line x1="248" y1="66" x2="200" y2="117" stroke="#aaff00" stroke-width="2"/>
</g>
<g>
	<polygon points="257,160 262,152 266,160" fill="#aaff00"/>
	<line x1="287" y1="143" x2="263" y2="156" stroke="#aaff00" stroke-width="2"/>
</g>
<g>
	<polygon points="287,147 293,154 284,155" fill="#aaff00"/>
	<line x1="302" y1="244" x2="288" y2="154" stroke="#aaff00" stroke-width="2"/>
</g>

<g fill="#000000">
	<circle cx="301" cy="243" r="4"/>
</g>
<g fill="#000000">
	<circle cx="342" cy="286" r="4"/>
</g>
<g fill="#000000">
	<circle cx="288" cy="294" r="4"/>
</g>
<g fill="#000000">
	<circle cx="353" cy="226" r="4"/>
</g>
<g fill="#000000">
	<circle cx="394" cy="294" r="4"/>
</g>
<g fill="#000000">
	<circle cx="394" cy="130" r="4"/>
</g>
<g fill="#000000">
	<circle cx="393" cy="69" r="4"/>
</g>
<g fill="#000000">
	<circle cx="338" cy="48" r="4"/>
</g>
<g fill="#000000">
	<circle cx="293" cy="75" r="4"/>
</g>
<g fill="#000000">
	<circle cx="247" cy="65" r="4"/>
</g>
<g fill="#000000">
	<circle cx="299" cy="4" r="4"/>
</g>
<g fill="#000000">
	<circle cx="235" cy="201" r="4"/>
</g>
<g fill="#000000">
	<circle cx="222" cy="252" r="4"/>
</g>
<g fill="#000000">
	<circle cx="139" cy="257" r="4"/>
</g>
<g fill="#000000">
	<circle cx="105" cy="152" r="4"/>
</g>
<g fill="#000000">
	<circle cx="189" cy="74" r="4"/>
</g>
<g fill="#000000">
	<circle cx="167" cy="11" r="4"/>
</g>
<g fill="#000000">
	<circle cx="328" cy="127" r="4"/>
</g>
<g fill="#000000">
	<circle cx="119" cy="4" r="4"/>
</g>
<g fill="#000000">
	<circle cx="217" cy="4" r="4"/>
</g>
<g fill="#000000">
	<circle cx="394" cy="180" r="4"/>
</g>
<g fill="#000000">
	<circle cx="295" cy="197" r="4"/>
</g>
<g fill="#000000">
	<circle cx="342" cy="178" r="4"/>
</g>
<g fill="#000000">
	<circle cx="192" cy="125" r="4"/>
</g>
<g fill="#000000">
	<circle cx="142" cy="118" r="4"/>
</g>
<g fill="#000000">
	<circle cx="72" cy="105" r="4"/>
</g>
<g fill="#000000">
	<circle cx="161" cy="168" r="4"/>
</g>
<g fill="#000000">
	<circle cx="13" cy="131" r="4"/>
</g>
<g fill="#000000">
	<circle cx="4" cy="64" r="4"/>
</g>
<g fill="#000000">
	<circle cx="40" cy="198" r="4"/>
</g>
<g fill="#000000">
	<circle cx="47" cy="33" r="4"/>
</g>
<g fill="#000000">
	<circle cx="4" cy="5" r="4"/>
</g>
<g fill="#000000">
	<circle cx="4" cy="247" r="4"/>
</g>
<g fill="#000000">
	<circle cx="121" cy="201" r="4"/>
</g>
<g fill="#000000">
	<circle cx="176" cy="213" r="4"/>
</g>
<g fill="#000000">
	<circle cx="286" cy="142" r="4"/>
</g>
<g fill="#000000">
	<circle cx="253" cy="162" r="4"/>
</g>

</g>

</svg>
