<?xml version="1.0" encoding="utf-8"?>
<!-- Created with Hypercube (http://tumic.wz.cz/hypercube) -->

<svg width="400" height="300" viewBox="0 0 400 300" xmlns="http://www.w3.org/2000/svg" baseProfile="tiny">

<g font-family="Helvetica" font-weight="normal">

<g>
	<polygon points="188,94 197,93 193,101" fill="#aaff00"/>
	<line x1="222" y1="112" x2="195" y2="97" stroke="#aaff00" stroke-width="2"/>
</g>
<g>
	<polygon points="312,63 307,70 303,62" fill="#aaff00"/>
	<line x1="222" y1="112" x2="305" y2="66" stroke="#aaff00" stroke-width="2"/>
</g>
<g>
	<polygon points="231,167 225,160 234,159" fill="#aaff00"/>
	<line x1="222" y1="112" x2="230" y2="160" stroke="#aaff00" stroke-width="2"/>
</g>
<g>
	<polygon points="269,138 260,138 264,131" fill="#aaff00"/>
	<line x1="222" y1="112" x2="262" y2="135" stroke="#aaff00" stroke-width="2"/>
</g>
<g>
	<polygon points="242,21 244,29 235,28" fill="#aaff00"/>
	<line x1="222" y1="112" x2="240" y2="28" stroke="#aaff00" stroke-width="2"/>
</g>
<g>
	<polygon points="261,64 259,73 252,67" fill="#aaff00"/>
	<line x1="222" y1="112" x2="256" y2="70" stroke="#aaff00" stroke-width="2"/>
</g>
<g>
	<polygon points="119,58 128,57 124,65" fill="#aaff00"/>
	<line x1="222" y1="112" x2="126" y2="61" stroke="#aaff00" stroke-width="2"/>
</g>
<g>
	<polygon points="195,11 201,17 192,20" fill="#aaff00"/>
	<line x1="222" y1="112" x2="197" y2="18" stroke="#aaff00" stroke-width="2"/>
</g>
<g>
	<polygon points="188,149 189,140 196,146" fill="#aaff00"/>
	<line x1="222" y1="112" x2="192" y2="144" stroke="#aaff00" stroke-width="2"/>
</g>
<g>
	<polygon points="285,101 278,107 277,98" fill="#aaff00"/>
	<line x1="222" y1="112" x2="278" y2="102" stroke="#aaff00" stroke-width="2"/>
</g>
<g>
	<polygon points="138,109 146,104 146,113" fill="#aaff00"/>
	<line x1="222" y1="112" x2="145" y2="109" stroke="#aaff00" stroke-width="2"/>
</g>
<g>
	<polygon points="145,203 147,194 154,200" fill="#aaff00"/>
	<line x1="222" y1="112" x2="150" y2="198" stroke="#aaff00" stroke-width="2"/>
</g>
<g>
	<polygon points="290,207 282,203 289,198" fill="#aaff00"/>
	<line x1="222" y1="112" x2="286" y2="201" stroke="#aaff00" stroke-width="2"/>
</g>
<g>
	<polygon points="160,61 169,64 162,70" fill="#aaff00"/>
	<line x1="185" y1="92" x2="165" y2="67" stroke="#aaff00" stroke-width="2"/>
</g>
<g>
	<polygon points="187,88 188,79 195,84" fill="#aaff00"/>
	<line x1="208" y1="60" x2="191" y2="82" stroke="#aaff00" stroke-width="2"/>
</g>
<g>
	<polygon points="311,60 303,65 303,56" fill="#aaff00"/>
	<line x1="208" y1="60" x2="304" y2="60" stroke="#aaff00" stroke-width="2"/>
</g>
<g>
	<polygon points="231,167 225,160 233,159" fill="#aaff00"/>
	<line x1="208" y1="60" x2="229" y2="160" stroke="#aaff00" stroke-width="2"/>
</g>
<g>
	<polygon points="270,137 261,134 268,128" fill="#aaff00"/>
	<line x1="208" y1="60" x2="265" y2="131" stroke="#aaff00" stroke-width="2"/>
</g>
<g>
	<polygon points="240,20 238,29 231,23" fill="#aaff00"/>
	<line x1="208" y1="60" x2="235" y2="26" stroke="#aaff00" stroke-width="2"/>
</g>
<g>
	<polygon points="259,60 251,65 251,56" fill="#aaff00"/>
	<line x1="208" y1="60" x2="252" y2="60" stroke="#aaff00" stroke-width="2"/>
</g>
<g>
	<polygon points="120,56 128,52 128,61" fill="#aaff00"/>
	<line x1="208" y1="60" x2="127" y2="56" stroke="#aaff00" stroke-width="2"/>
</g>
<g>
	<polygon points="195,11 201,17 192,20" fill="#aaff00"/>
	<line x1="208" y1="60" x2="196" y2="18" stroke="#aaff00" stroke-width="2"/>
</g>
<g>
	<polygon points="186,148 183,139 192,142" fill="#aaff00"/>
	<line x1="208" y1="60" x2="187" y2="141" stroke="#aaff00" stroke-width="2"/>
</g>
<g>
	<polygon points="285,98 276,99 281,91" fill="#aaff00"/>
	<line x1="208" y1="60" x2="279" y2="95" stroke="#aaff00" stroke-width="2"/>
</g>
<g>
	<polygon points="137,106 141,98 146,105" fill="#aaff00"/>
	<line x1="208" y1="60" x2="143" y2="102" stroke="#aaff00" stroke-width="2"/>
</g>
<g>
	<polygon points="78,54 86,50 86,59" fill="#aaff00"/>
	<line x1="208" y1="60" x2="85" y2="54" stroke="#aaff00" stroke-width="2"/>
</g>
<g>
	<polygon points="390,47 383,53 382,44" fill="#aaff00"/>
	<line x1="316" y1="61" x2="383" y2="49" stroke="#aaff00" stroke-width="2"/>
</g>
<g>
	<polygon points="241,248 236,241 244,240" fill="#aaff00"/>
	<line x1="232" y1="172" x2="240" y2="241" stroke="#aaff00" stroke-width="2"/>
</g>
<g>
	<polygon points="337,171 328,171 332,163" fill="#aaff00"/>
	<line x1="273" y1="141" x2="331" y2="168" stroke="#aaff00" stroke-width="2"/>
</g>
<g>
	<polygon points="286,6 280,12 277,3" fill="#aaff00"/>
	<line x1="243" y1="17" x2="279" y2="7" stroke="#aaff00" stroke-width="2"/>
</g>
<g>
	<polygon points="341,7 337,15 332,8" fill="#aaff00"/>
	<line x1="264" y1="61" x2="335" y2="11" stroke="#aaff00" stroke-width="2"/>
</g>
<g>
	<polygon points="55,119 57,111 63,117" fill="#aaff00"/>
	<line x1="116" y1="56" x2="60" y2="114" stroke="#aaff00" stroke-width="2"/>
</g>
<g>
	<polygon points="81,8 89,12 82,17" fill="#aaff00"/>
	<line x1="116" y1="56" x2="85" y2="14" stroke="#aaff00" stroke-width="2"/>
</g>
<g>
	<polygon points="20,202 19,193 27,197" fill="#aaff00"/>
	<line x1="52" y1="123" x2="23" y2="196" stroke="#aaff00" stroke-width="2"/>
</g>
<g>
	<polygon points="6,263 3,255 12,257" fill="#aaff00"/>
	<line x1="19" y1="207" x2="7" y2="256" stroke="#aaff00" stroke-width="2"/>
</g>
<g>
	<polygon points="53,292 45,293 49,285" fill="#aaff00"/>
	<line x1="5" y1="268" x2="47" y2="289" stroke="#aaff00" stroke-width="2"/>
</g>
<g>
	<polygon points="107,271 102,279 98,271" fill="#aaff00"/>
	<line x1="58" y1="295" x2="101" y2="274" stroke="#aaff00" stroke-width="2"/>
</g>
<g>
	<polygon points="141,211 141,220 133,216" fill="#aaff00"/>
	<line x1="112" y1="270" x2="137" y2="217" stroke="#aaff00" stroke-width="2"/>
</g>
<g>
	<polygon points="5,145 0,137 9,137" fill="#aaff00"/>
	<line x1="5" y1="99" x2="5" y2="138" stroke="#aaff00" stroke-width="2"/>
</g>
<g>
	<polygon points="47,120 39,121 43,113" fill="#aaff00"/>
	<line x1="5" y1="99" x2="41" y2="117" stroke="#aaff00" stroke-width="2"/>
</g>
<g>
	<polygon points="147,5 155,0 155,9" fill="#aaff00"/>
	<line x1="194" y1="7" x2="154" y2="5" stroke="#aaff00" stroke-width="2"/>
</g>
<g>
	<polygon points="190,218 185,211 194,210" fill="#aaff00"/>
	<line x1="185" y1="153" x2="190" y2="211" stroke="#aaff00" stroke-width="2"/>
</g>
<g>
	<polygon points="359,113 351,116 352,107" fill="#aaff00"/>
	<line x1="290" y1="101" x2="352" y2="111" stroke="#aaff00" stroke-width="2"/>
</g>
<g>
	<polygon points="77,57 86,58 80,65" fill="#aaff00"/>
	<line x1="134" y1="109" x2="82" y2="61" stroke="#aaff00" stroke-width="2"/>
</g>
<g>
	<polygon points="105,156 105,147 113,151" fill="#aaff00"/>
	<line x1="134" y1="109" x2="109" y2="150" stroke="#aaff00" stroke-width="2"/>
</g>
<g>
	<polygon points="15,16 24,16 19,24" fill="#aaff00"/>
	<line x1="74" y1="54" x2="21" y2="20" stroke="#aaff00" stroke-width="2"/>
</g>
<g>
	<polygon points="345,265 354,266 349,273" fill="#aaff00"/>
	<line x1="390" y1="295" x2="351" y2="269" stroke="#aaff00" stroke-width="2"/>
</g>
<g>
	<polygon points="338,259 330,257 336,250" fill="#aaff00"/>
	<line x1="293" y1="211" x2="333" y2="254" stroke="#aaff00" stroke-width="2"/>
</g>

<g fill="#000000">
	<circle cx="221" cy="111" r="4"/>
</g>
<g fill="#000000">
	<circle cx="184" cy="91" r="4"/>
</g>
<g fill="#000000">
	<circle cx="315" cy="60" r="4"/>
</g>
<g fill="#000000">
	<circle cx="231" cy="171" r="4"/>
</g>
<g fill="#000000">
	<circle cx="272" cy="140" r="4"/>
</g>
<g fill="#000000">
	<circle cx="242" cy="16" r="4"/>
</g>
<g fill="#000000">
	<circle cx="263" cy="60" r="4"/>
</g>
<g fill="#000000">
	<circle cx="115" cy="55" r="4"/>
</g>
<g fill="#000000">
	<circle cx="193" cy="6" r="4"/>
</g>
<g fill="#000000">
	<circle cx="184" cy="152" r="4"/>
</g>
<g fill="#000000">
	<circle cx="289" cy="100" r="4"/>
</g>
<g fill="#000000">
	<circle cx="133" cy="108" r="4"/>
</g>
<g fill="#000000">
	<circle cx="142" cy="206" r="4"/>
</g>
<g fill="#000000">
	<circle cx="292" cy="210" r="4"/>
</g>
<g fill="#000000">
	<circle cx="157" cy="57" r="4"/>
</g>
<g fill="#000000">
	<circle cx="207" cy="59" r="4"/>
</g>
<g fill="#000000">
	<circle cx="73" cy="53" r="4"/>
</g>
<g fill="#000000">
	<circle cx="394" cy="46" r="4"/>
</g>
<g fill="#000000">
	<circle cx="4" cy="98" r="4"/>
</g>
<g fill="#000000">
	<circle cx="4" cy="149" r="4"/>
</g>
<g fill="#000000">
	<circle cx="51" cy="122" r="4"/>
</g>
<g fill="#000000">
	<circle cx="241" cy="252" r="4"/>
</g>
<g fill="#000000">
	<circle cx="341" cy="172" r="4"/>
</g>
<g fill="#000000">
	<circle cx="290" cy="4" r="4"/>
</g>
<g fill="#000000">
	<circle cx="344" cy="4" r="4"/>
</g>
<g fill="#000000">
	<circle cx="78" cy="4" r="4"/>
</g>
<g fill="#000000">
	<circle cx="18" cy="206" r="4"/>
</g>
<g fill="#000000">
	<circle cx="4" cy="267" r="4"/>
</g>
<g fill="#000000">
	<circle cx="142" cy="4" r="4"/>
</g>
<g fill="#000000">
	<circle cx="57" cy="294" r="4"/>
</g>
<g fill="#000000">
	<circle cx="190" cy="222" r="4"/>
</g>
<g fill="#000000">
	<circle cx="111" cy="269" r="4"/>
</g>
<g fill="#000000">
	<circle cx="363" cy="113" r="4"/>
</g>
<g fill="#000000">
	<circle cx="102" cy="159" r="4"/>
</g>
<g fill="#000000">
	<circle cx="11" cy="13" r="4"/>
</g>
<g fill="#000000">
	<circle cx="341" cy="262" r="4"/>
</g>
<g fill="#000000">
	<circle cx="389" cy="294" r="4"/>
</g>

</g>

</svg>
