<?xml version="1.0" encoding="utf-8"?>
<!-- Created with Hypercube (http://tumic.wz.cz/hypercube) -->

<svg width="400" height="300" viewBox="0 0 400 300" xmlns="http://www.w3.org/2000/svg" baseProfile="tiny">

<g font-family="Helvetica" font-weight="normal">

<g>
	<polygon points="221,202 230,200 227,208" fill="#aaff00"/>
	<line x1="263" y1="214" x2="228" y2="204" stroke="#aaff00" stroke-width="2"/>
</g>
<g>
	<polygon points="344,197 337,203 336,194" fill="#aaff00"/>
	<line x1="263" y1="214" x2="337" y2="199" stroke="#aaff00" stroke-width="2"/>
</g>
<g>
	<polygon points="297,228 288,229 292,221" fill="#aaff00"/>
	<line x1="263" y1="214" x2="291" y2="225" stroke="#aaff00" stroke-width="2"/>
</g>
<g>
	<polygon points="311,291 303,286 311,282" fill="#aaff00"/>
	<line x1="263" y1="214" x2="307" y2="285" stroke="#aaff00" stroke-width="2"/>
</g>
<g>
	<polygon points="297,182 295,190 288,184" fill="#aaff00"/>
	<line x1="263" y1="214" x2="292" y2="186" stroke="#aaff00" stroke-width="2"/>
</g>
<g>
	<polygon points="170,192 178,189 177,198" fill="#aaff00"/>
	<line x1="217" y1="201" x2="177" y2="194" stroke="#aaff00" stroke-width="2"/>
</g>
<g>
	<polygon points="170,193 179,191 176,199" fill="#aaff00"/>
	<line x1="346" y1="243" x2="177" y2="195" stroke="#aaff00" stroke-width="2"/>
</g>
<g>
	<polygon points="353,141 349,133 358,134" fill="#aaff00"/>
	<line x1="357" y1="92" x2="353" y2="134" stroke="#aaff00" stroke-width="2"/>
</g>
<g>
	<polygon points="373,30 376,39 367,36" fill="#aaff00"/>
	<line x1="357" y1="92" x2="371" y2="37" stroke="#aaff00" stroke-width="2"/>
</g>
<g>
	<polygon points="346,238 342,230 351,231" fill="#aaff00"/>
	<line x1="357" y1="92" x2="346" y2="231" stroke="#aaff00" stroke-width="2"/>
</g>
<g>
	<polygon points="266,211 270,202 275,210" fill="#aaff00"/>
	<line x1="353" y1="146" x2="272" y2="206" stroke="#aaff00" stroke-width="2"/>
</g>
<g>
	<polygon points="318,6 327,4 324,13" fill="#aaff00"/>
	<line x1="375" y1="26" x2="325" y2="8" stroke="#aaff00" stroke-width="2"/>
</g>
<g>
	<polygon points="309,5 301,9 301,0" fill="#aaff00"/>
	<line x1="264" y1="6" x2="302" y2="5" stroke="#aaff00" stroke-width="2"/>
</g>
<g>
	<polygon points="165,103 169,95 174,102" fill="#aaff00"/>
	<line x1="196" y1="81" x2="171" y2="99" stroke="#aaff00" stroke-width="2"/>
</g>
<g>
	<polygon points="128,130 132,122 137,129" fill="#aaff00"/>
	<line x1="196" y1="81" x2="134" y2="126" stroke="#aaff00" stroke-width="2"/>
</g>
<g>
	<polygon points="254,150 245,147 252,141" fill="#aaff00"/>
	<line x1="196" y1="81" x2="249" y2="145" stroke="#aaff00" stroke-width="2"/>
</g>
<g>
	<polygon points="260,9 259,18 252,12" fill="#aaff00"/>
	<line x1="196" y1="81" x2="256" y2="14" stroke="#aaff00" stroke-width="2"/>
</g>
<g>
	<polygon points="216,9 218,18 210,15" fill="#aaff00"/>
	<line x1="196" y1="81" x2="214" y2="16" stroke="#aaff00" stroke-width="2"/>
</g>
<g>
	<polygon points="308,104 300,106 301,98" fill="#aaff00"/>
	<line x1="196" y1="81" x2="301" y2="102" stroke="#aaff00" stroke-width="2"/>
</g>
<g>
	<polygon points="267,95 259,98 260,89" fill="#aaff00"/>
	<line x1="196" y1="81" x2="260" y2="93" stroke="#aaff00" stroke-width="2"/>
</g>
<g>
	<polygon points="293,50 287,56 284,48" fill="#aaff00"/>
	<line x1="196" y1="81" x2="286" y2="52" stroke="#aaff00" stroke-width="2"/>
</g>
<g>
	<polygon points="239,67 233,73 230,65" fill="#aaff00"/>
	<line x1="196" y1="81" x2="232" y2="69" stroke="#aaff00" stroke-width="2"/>
</g>
<g>
	<polygon points="78,127 83,120 87,128" fill="#aaff00"/>
	<line x1="196" y1="81" x2="84" y2="124" stroke="#aaff00" stroke-width="2"/>
</g>
<g>
	<polygon points="218,125 211,120 219,116" fill="#aaff00"/>
	<line x1="196" y1="81" x2="215" y2="118" stroke="#aaff00" stroke-width="2"/>
</g>
<g>
	<polygon points="176,145 174,136 182,139" fill="#aaff00"/>
	<line x1="196" y1="81" x2="178" y2="138" stroke="#aaff00" stroke-width="2"/>
</g>
<g>
	<polygon points="165,187 160,179 169,179" fill="#aaff00"/>
	<line x1="162" y1="106" x2="165" y2="180" stroke="#aaff00" stroke-width="2"/>
</g>
<g>
	<polygon points="163,188 155,184 162,179" fill="#aaff00"/>
	<line x1="125" y1="133" x2="159" y2="182" stroke="#aaff00" stroke-width="2"/>
</g>
<g>
	<polygon points="262,209 257,202 266,201" fill="#aaff00"/>
	<line x1="257" y1="154" x2="261" y2="202" stroke="#aaff00" stroke-width="2"/>
</g>
<g>
	<polygon points="309,5 301,9 301,0" fill="#aaff00"/>
	<line x1="218" y1="5" x2="302" y2="5" stroke="#aaff00" stroke-width="2"/>
</g>
<g>
	<polygon points="352,93 346,99 343,91" fill="#aaff00"/>
	<line x1="313" y1="105" x2="345" y2="95" stroke="#aaff00" stroke-width="2"/>
</g>
<g>
	<polygon points="352,92 344,97 344,88" fill="#aaff00"/>
	<line x1="272" y1="96" x2="345" y2="92" stroke="#aaff00" stroke-width="2"/>
</g>
<g>
	<polygon points="353,89 344,88 349,81" fill="#aaff00"/>
	<line x1="298" y1="49" x2="347" y2="85" stroke="#aaff00" stroke-width="2"/>
</g>
<g>
	<polygon points="352,90 344,93 346,84" fill="#aaff00"/>
	<line x1="244" y1="66" x2="345" y2="89" stroke="#aaff00" stroke-width="2"/>
</g>
<g>
	<polygon points="52,191 50,182 59,185" fill="#aaff00"/>
	<line x1="74" y1="129" x2="54" y2="184" stroke="#aaff00" stroke-width="2"/>
</g>
<g>
	<polygon points="117,236 108,236 112,228" fill="#aaff00"/>
	<line x1="51" y1="196" x2="111" y2="232" stroke="#aaff00" stroke-width="2"/>
</g>
<g>
	<polygon points="92,195 84,199 84,190" fill="#aaff00"/>
	<line x1="51" y1="196" x2="85" y2="195" stroke="#aaff00" stroke-width="2"/>
</g>
<g>
	<polygon points="258,214 251,220 250,211" fill="#aaff00"/>
	<line x1="121" y1="239" x2="251" y2="216" stroke="#aaff00" stroke-width="2"/>
</g>
<g>
	<polygon points="161,192 153,197 153,188" fill="#aaff00"/>
	<line x1="97" y1="195" x2="154" y2="192" stroke="#aaff00" stroke-width="2"/>
</g>
<g>
	<polygon points="261,209 253,204 261,200" fill="#aaff00"/>
	<line x1="221" y1="129" x2="257" y2="203" stroke="#aaff00" stroke-width="2"/>
</g>
<g>
	<polygon points="166,187 164,179 172,180" fill="#aaff00"/>
	<line x1="175" y1="150" x2="168" y2="180" stroke="#aaff00" stroke-width="2"/>
</g>
<g>
	<polygon points="191,80 183,83 184,74" fill="#aaff00"/>
	<line x1="94" y1="63" x2="184" y2="78" stroke="#aaff00" stroke-width="2"/>
</g>
<g>
	<polygon points="89,61 80,63 83,54" fill="#aaff00"/>
	<line x1="26" y1="40" x2="82" y2="59" stroke="#aaff00" stroke-width="2"/>
</g>
<g>
	<polygon points="193,77 184,73 192,68" fill="#aaff00"/>
	<line x1="150" y1="21" x2="188" y2="71" stroke="#aaff00" stroke-width="2"/>
</g>
<g>
	<polygon points="145,19 136,21 139,13" fill="#aaff00"/>
	<line x1="95" y1="5" x2="138" y2="17" stroke="#aaff00" stroke-width="2"/>
</g>
<g>
	<polygon points="195,85 199,93 190,92" fill="#aaff00"/>
	<line x1="181" y1="236" x2="194" y2="92" stroke="#aaff00" stroke-width="2"/>
</g>
<g>
	<polygon points="182,240 188,246 179,249" fill="#aaff00"/>
	<line x1="195" y1="295" x2="183" y2="247" stroke="#aaff00" stroke-width="2"/>
</g>
<g>
	<polygon points="148,293 156,288 156,297" fill="#aaff00"/>
	<line x1="195" y1="295" x2="155" y2="293" stroke="#aaff00" stroke-width="2"/>
</g>
<g>
	<polygon points="252,295 244,299 244,290" fill="#aaff00"/>
	<line x1="195" y1="295" x2="245" y2="295" stroke="#aaff00" stroke-width="2"/>
</g>
<g>
	<polygon points="225,264 223,272 217,266" fill="#aaff00"/>
	<line x1="195" y1="295" x2="220" y2="269" stroke="#aaff00" stroke-width="2"/>
</g>
<g>
	<polygon points="165,196 167,204 158,203" fill="#aaff00"/>
	<line x1="144" y1="293" x2="163" y2="203" stroke="#aaff00" stroke-width="2"/>
</g>
<g>
	<polygon points="262,218 266,226 257,225" fill="#aaff00"/>
	<line x1="257" y1="295" x2="262" y2="225" stroke="#aaff00" stroke-width="2"/>
</g>
<g>
	<polygon points="260,217 259,226 252,221" fill="#aaff00"/>
	<line x1="229" y1="261" x2="256" y2="223" stroke="#aaff00" stroke-width="2"/>
</g>

<g fill="#000000">
	<circle cx="262" cy="213" r="4"/>
</g>
<g fill="#000000">
	<circle cx="216" cy="200" r="4"/>
</g>
<g fill="#000000">
	<circle cx="348" cy="196" r="4"/>
</g>
<g fill="#000000">
	<circle cx="301" cy="229" r="4"/>
</g>
<g fill="#000000">
	<circle cx="313" cy="294" r="4"/>
</g>
<g fill="#000000">
	<circle cx="300" cy="178" r="4"/>
</g>
<g fill="#000000">
	<circle cx="165" cy="191" r="4"/>
</g>
<g fill="#000000">
	<circle cx="313" cy="4" r="4"/>
</g>
<g fill="#000000">
	<circle cx="356" cy="91" r="4"/>
</g>
<g fill="#000000">
	<circle cx="352" cy="145" r="4"/>
</g>
<g fill="#000000">
	<circle cx="374" cy="25" r="4"/>
</g>
<g fill="#000000">
	<circle cx="345" cy="242" r="4"/>
</g>
<g fill="#000000">
	<circle cx="50" cy="195" r="4"/>
</g>
<g fill="#000000">
	<circle cx="120" cy="238" r="4"/>
</g>
<g fill="#000000">
	<circle cx="96" cy="194" r="4"/>
</g>
<g fill="#000000">
	<circle cx="195" cy="80" r="4"/>
</g>
<g fill="#000000">
	<circle cx="161" cy="105" r="4"/>
</g>
<g fill="#000000">
	<circle cx="124" cy="132" r="4"/>
</g>
<g fill="#000000">
	<circle cx="256" cy="153" r="4"/>
</g>
<g fill="#000000">
	<circle cx="263" cy="5" r="4"/>
</g>
<g fill="#000000">
	<circle cx="217" cy="4" r="4"/>
</g>
<g fill="#000000">
	<circle cx="312" cy="104" r="4"/>
</g>
<g fill="#000000">
	<circle cx="271" cy="95" r="4"/>
</g>
<g fill="#000000">
	<circle cx="297" cy="48" r="4"/>
</g>
<g fill="#000000">
	<circle cx="243" cy="65" r="4"/>
</g>
<g fill="#000000">
	<circle cx="73" cy="128" r="4"/>
</g>
<g fill="#000000">
	<circle cx="220" cy="128" r="4"/>
</g>
<g fill="#000000">
	<circle cx="174" cy="149" r="4"/>
</g>
<g fill="#000000">
	<circle cx="25" cy="39" r="4"/>
</g>
<g fill="#000000">
	<circle cx="93" cy="62" r="4"/>
</g>
<g fill="#000000">
	<circle cx="94" cy="4" r="4"/>
</g>
<g fill="#000000">
	<circle cx="149" cy="20" r="4"/>
</g>
<g fill="#000000">
	<circle cx="194" cy="294" r="4"/>
</g>
<g fill="#000000">
	<circle cx="180" cy="235" r="4"/>
</g>
<g fill="#000000">
	<circle cx="143" cy="292" r="4"/>
</g>
<g fill="#000000">
	<circle cx="256" cy="294" r="4"/>
</g>
<g fill="#000000">
	<circle cx="228" cy="260" r="4"/>
</g>

</g>

</svg>
