<?xml version="1.0" encoding="utf-8"?>
<!-- Created with Hypercube (http://tumic.wz.cz/hypercube) -->

<svg width="400" height="300" viewBox="0 0 400 300" xmlns="http://www.w3.org/2000/svg" baseProfile="tiny">

<g font-family="Helvetica" font-weight="normal">

<g>
	<polygon points="391,292 382,292 386,285" fill="#aaff00"/>
	<line x1="350" y1="270" x2="384" y2="289" stroke="#aaff00" stroke-width="2"/>
</g>
<g>
	<polygon points="318,292 322,284 327,291" fill="#aaff00"/>
	<line x1="350" y1="270" x2="324" y2="288" stroke="#aaff00" stroke-width="2"/>
</g>
<g>
	<polygon points="391,237 388,246 382,238" fill="#aaff00"/>
	<line x1="350" y1="270" x2="385" y2="242" stroke="#aaff00" stroke-width="2"/>
</g>
<g>
	<polygon points="348,265 340,260 348,256" fill="#aaff00"/>
	<line x1="327" y1="221" x2="345" y2="259" stroke="#aaff00" stroke-width="2"/>
</g>
<g>
	<polygon points="270,214 264,207 273,206" fill="#aaff00"/>
	<line x1="265" y1="176" x2="269" y2="207" stroke="#aaff00" stroke-width="2"/>
</g>
<g>
	<polygon points="218,147 227,147 223,155" fill="#aaff00"/>
	<line x1="265" y1="176" x2="224" y2="151" stroke="#aaff00" stroke-width="2"/>
</g>
<g>
	<polygon points="213,209 217,201 222,209" fill="#aaff00"/>
	<line x1="265" y1="176" x2="219" y2="205" stroke="#aaff00" stroke-width="2"/>
</g>
<g>
	<polygon points="323,218 314,217 319,210" fill="#aaff00"/>
	<line x1="265" y1="176" x2="317" y2="214" stroke="#aaff00" stroke-width="2"/>
</g>
<g>
	<polygon points="296,138 294,147 287,141" fill="#aaff00"/>
	<line x1="265" y1="176" x2="291" y2="143" stroke="#aaff00" stroke-width="2"/>
</g>
<g>
	<polygon points="240,245 243,236 249,243" fill="#aaff00"/>
	<line x1="271" y1="219" x2="245" y2="240" stroke="#aaff00" stroke-width="2"/>
</g>
<g>
	<polygon points="240,245 244,236 249,244" fill="#aaff00"/>
	<line x1="344" y1="166" x2="246" y2="240" stroke="#aaff00" stroke-width="2"/>
</g>
<g>
	<polygon points="247,96 254,91 255,100" fill="#aaff00"/>
	<line x1="354" y1="89" x2="254" y2="96" stroke="#aaff00" stroke-width="2"/>
</g>
<g>
	<polygon points="344,161 341,153 350,154" fill="#aaff00"/>
	<line x1="354" y1="89" x2="345" y2="154" stroke="#aaff00" stroke-width="2"/>
</g>
<g>
	<polygon points="128,124 134,118 137,127" fill="#aaff00"/>
	<line x1="243" y1="97" x2="135" y2="123" stroke="#aaff00" stroke-width="2"/>
</g>
<g>
	<polygon points="123,121 118,114 127,113" fill="#aaff00"/>
	<line x1="111" y1="5" x2="122" y2="114" stroke="#aaff00" stroke-width="2"/>
</g>
<g>
	<polygon points="300,5 292,9 292,0" fill="#aaff00"/>
	<line x1="187" y1="5" x2="293" y2="5" stroke="#aaff00" stroke-width="2"/>
</g>
<g>
	<polygon points="115,5 123,0 123,9" fill="#aaff00"/>
	<line x1="187" y1="5" x2="122" y2="5" stroke="#aaff00" stroke-width="2"/>
</g>
<g>
	<polygon points="351,85 343,80 351,76" fill="#aaff00"/>
	<line x1="305" y1="5" x2="348" y2="78" stroke="#aaff00" stroke-width="2"/>
</g>
<g>
	<polygon points="121,129 119,138 112,132" fill="#aaff00"/>
	<line x1="72" y1="191" x2="116" y2="135" stroke="#aaff00" stroke-width="2"/>
</g>
<g>
	<polygon points="71,195 75,203 66,202" fill="#aaff00"/>
	<line x1="67" y1="259" x2="71" y2="202" stroke="#aaff00" stroke-width="2"/>
</g>
<g>
	<polygon points="152,293 143,294 147,286" fill="#aaff00"/>
	<line x1="67" y1="259" x2="146" y2="290" stroke="#aaff00" stroke-width="2"/>
</g>
<g>
	<polygon points="105,274 96,275 100,267" fill="#aaff00"/>
	<line x1="67" y1="259" x2="99" y2="271" stroke="#aaff00" stroke-width="2"/>
</g>
<g>
	<polygon points="233,250 228,258 224,250" fill="#aaff00"/>
	<line x1="157" y1="295" x2="226" y2="253" stroke="#aaff00" stroke-width="2"/>
</g>
<g>
	<polygon points="168,253 163,260 159,252" fill="#aaff00"/>
	<line x1="110" y1="276" x2="162" y2="256" stroke="#aaff00" stroke-width="2"/>
</g>
<g>
	<polygon points="131,205 140,208 133,214" fill="#aaff00"/>
	<line x1="173" y1="252" x2="136" y2="210" stroke="#aaff00" stroke-width="2"/>
</g>
<g>
	<polygon points="252,292 244,293 248,285" fill="#aaff00"/>
	<line x1="173" y1="252" x2="246" y2="289" stroke="#aaff00" stroke-width="2"/>
</g>
<g>
	<polygon points="124,130 129,137 120,138" fill="#aaff00"/>
	<line x1="129" y1="202" x2="124" y2="137" stroke="#aaff00" stroke-width="2"/>
</g>
<g>
	<polygon points="345,271 339,277 336,268" fill="#aaff00"/>
	<line x1="257" y1="295" x2="338" y2="273" stroke="#aaff00" stroke-width="2"/>
</g>
<g>
	<polygon points="176,248 178,239 184,246" fill="#aaff00"/>
	<line x1="210" y1="212" x2="180" y2="243" stroke="#aaff00" stroke-width="2"/>
</g>
<g>
	<polygon points="62,257 53,257 57,249" fill="#aaff00"/>
	<line x1="8" y1="230" x2="56" y2="253" stroke="#aaff00" stroke-width="2"/>
</g>
<g>
	<polygon points="7,225 2,217 11,217" fill="#aaff00"/>
	<line x1="5" y1="168" x2="7" y2="218" stroke="#aaff00" stroke-width="2"/>
</g>
<g>
	<polygon points="41,127 39,136 32,130" fill="#aaff00"/>
	<line x1="5" y1="168" x2="36" y2="132" stroke="#aaff00" stroke-width="2"/>
</g>
<g>
	<polygon points="119,125 111,130 111,121" fill="#aaff00"/>
	<line x1="44" y1="124" x2="112" y2="125" stroke="#aaff00" stroke-width="2"/>
</g>
<g>
	<polygon points="128,124 134,118 137,127" fill="#aaff00"/>
	<line x1="169" y1="114" x2="135" y2="122" stroke="#aaff00" stroke-width="2"/>
</g>
<g>
	<polygon points="168,109 164,101 173,101" fill="#aaff00"/>
	<line x1="168" y1="72" x2="168" y2="102" stroke="#aaff00" stroke-width="2"/>
</g>
<g>
	<polygon points="175,168 170,161 179,160" fill="#aaff00"/>
	<line x1="168" y1="72" x2="175" y2="161" stroke="#aaff00" stroke-width="2"/>
</g>
<g>
	<polygon points="125,83 131,77 134,86" fill="#aaff00"/>
	<line x1="168" y1="72" x2="132" y2="81" stroke="#aaff00" stroke-width="2"/>
</g>
<g>
	<polygon points="120,48 129,48 125,56" fill="#aaff00"/>
	<line x1="168" y1="72" x2="126" y2="52" stroke="#aaff00" stroke-width="2"/>
</g>
<g>
	<polygon points="215,42 210,50 206,42" fill="#aaff00"/>
	<line x1="168" y1="72" x2="209" y2="46" stroke="#aaff00" stroke-width="2"/>
</g>
<g>
	<polygon points="234,244 225,241 232,235" fill="#aaff00"/>
	<line x1="176" y1="173" x2="229" y2="238" stroke="#aaff00" stroke-width="2"/>
</g>
<g>
	<polygon points="123,121 118,114 127,113" fill="#aaff00"/>
	<line x1="121" y1="85" x2="123" y2="114" stroke="#aaff00" stroke-width="2"/>
</g>
<g>
	<polygon points="123,121 118,114 127,113" fill="#aaff00"/>
	<line x1="116" y1="47" x2="122" y2="114" stroke="#aaff00" stroke-width="2"/>
</g>
<g>
	<polygon points="259,25 253,32 250,23" fill="#aaff00"/>
	<line x1="219" y1="40" x2="252" y2="27" stroke="#aaff00" stroke-width="2"/>
</g>
<g>
	<polygon points="268,25 277,23 274,32" fill="#aaff00"/>
	<line x1="327" y1="44" x2="275" y2="27" stroke="#aaff00" stroke-width="2"/>
</g>
<g>
	<polygon points="324,47 324,56 316,52" fill="#aaff00"/>
	<line x1="303" y1="84" x2="320" y2="54" stroke="#aaff00" stroke-width="2"/>
</g>
<g>
	<polygon points="302,88 306,96 297,95" fill="#aaff00"/>
	<line x1="299" y1="135" x2="302" y2="95" stroke="#aaff00" stroke-width="2"/>
</g>
<g>
	<polygon points="128,126 136,124 135,132" fill="#aaff00"/>
	<line x1="215" y1="145" x2="135" y2="128" stroke="#aaff00" stroke-width="2"/>
</g>

<g fill="#000000">
	<circle cx="349" cy="269" r="4"/>
</g>
<g fill="#000000">
	<circle cx="394" cy="294" r="4"/>
</g>
<g fill="#000000">
	<circle cx="314" cy="294" r="4"/>
</g>
<g fill="#000000">
	<circle cx="394" cy="234" r="4"/>
</g>
<g fill="#000000">
	<circle cx="123" cy="125" r="4"/>
</g>
<g fill="#000000">
	<circle cx="263" cy="23" r="4"/>
</g>
<g fill="#000000">
	<circle cx="236" cy="247" r="4"/>
</g>
<g fill="#000000">
	<circle cx="353" cy="88" r="4"/>
</g>
<g fill="#000000">
	<circle cx="242" cy="96" r="4"/>
</g>
<g fill="#000000">
	<circle cx="343" cy="165" r="4"/>
</g>
<g fill="#000000">
	<circle cx="186" cy="4" r="4"/>
</g>
<g fill="#000000">
	<circle cx="304" cy="4" r="4"/>
</g>
<g fill="#000000">
	<circle cx="110" cy="4" r="4"/>
</g>
<g fill="#000000">
	<circle cx="66" cy="258" r="4"/>
</g>
<g fill="#000000">
	<circle cx="71" cy="190" r="4"/>
</g>
<g fill="#000000">
	<circle cx="156" cy="294" r="4"/>
</g>
<g fill="#000000">
	<circle cx="109" cy="275" r="4"/>
</g>
<g fill="#000000">
	<circle cx="4" cy="167" r="4"/>
</g>
<g fill="#000000">
	<circle cx="7" cy="229" r="4"/>
</g>
<g fill="#000000">
	<circle cx="43" cy="123" r="4"/>
</g>
<g fill="#000000">
	<circle cx="167" cy="71" r="4"/>
</g>
<g fill="#000000">
	<circle cx="168" cy="113" r="4"/>
</g>
<g fill="#000000">
	<circle cx="175" cy="172" r="4"/>
</g>
<g fill="#000000">
	<circle cx="120" cy="84" r="4"/>
</g>
<g fill="#000000">
	<circle cx="115" cy="46" r="4"/>
</g>
<g fill="#000000">
	<circle cx="218" cy="39" r="4"/>
</g>
<g fill="#000000">
	<circle cx="264" cy="175" r="4"/>
</g>
<g fill="#000000">
	<circle cx="270" cy="218" r="4"/>
</g>
<g fill="#000000">
	<circle cx="214" cy="144" r="4"/>
</g>
<g fill="#000000">
	<circle cx="209" cy="211" r="4"/>
</g>
<g fill="#000000">
	<circle cx="326" cy="220" r="4"/>
</g>
<g fill="#000000">
	<circle cx="298" cy="134" r="4"/>
</g>
<g fill="#000000">
	<circle cx="172" cy="251" r="4"/>
</g>
<g fill="#000000">
	<circle cx="128" cy="201" r="4"/>
</g>
<g fill="#000000">
	<circle cx="256" cy="294" r="4"/>
</g>
<g fill="#000000">
	<circle cx="302" cy="83" r="4"/>
</g>
<g fill="#000000">
	<circle cx="326" cy="43" r="4"/>
</g>

</g>

</svg>
