<?xml version="1.0" encoding="utf-8"?>
<!-- Created with Hypercube (http://tumic.wz.cz/hypercube) -->

<svg width="400" height="300" viewBox="0 0 400 300" xmlns="http://www.w3.org/2000/svg" baseProfile="tiny">

<g font-family="Helvetica" font-weight="normal">

<g>
	<polygon points="226,289 218,284 227,280" fill="#aaff00"/>
	<line x1="181" y1="188" x2="223" y2="283" stroke="#aaff00" stroke-width="2"/>
</g>
<g>
	<polygon points="254,252 245,250 251,243" fill="#aaff00"/>
	<line x1="181" y1="188" x2="249" y2="247" stroke="#aaff00" stroke-width="2"/>
</g>
<g>
	<polygon points="244,210 235,212 238,203" fill="#aaff00"/>
	<line x1="181" y1="188" x2="237" y2="208" stroke="#aaff00" stroke-width="2"/>
</g>
<g>
	<polygon points="244,165 238,172 235,163" fill="#aaff00"/>
	<line x1="181" y1="188" x2="237" y2="167" stroke="#aaff00" stroke-width="2"/>
</g>
<g>
	<polygon points="204,144 204,153 197,149" fill="#aaff00"/>
	<line x1="181" y1="188" x2="201" y2="151" stroke="#aaff00" stroke-width="2"/>
</g>
<g>
	<polygon points="163,148 171,153 162,157" fill="#aaff00"/>
	<line x1="181" y1="188" x2="166" y2="154" stroke="#aaff00" stroke-width="2"/>
</g>
<g>
	<polygon points="119,171 128,168 125,177" fill="#aaff00"/>
	<line x1="181" y1="188" x2="126" y2="173" stroke="#aaff00" stroke-width="2"/>
</g>
<g>
	<polygon points="130,289 130,280 138,284" fill="#aaff00"/>
	<line x1="181" y1="188" x2="134" y2="283" stroke="#aaff00" stroke-width="2"/>
</g>
<g>
	<polygon points="153,259 152,250 160,254" fill="#aaff00"/>
	<line x1="181" y1="188" x2="156" y2="253" stroke="#aaff00" stroke-width="2"/>
</g>
<g>
	<polygon points="210,266 203,261 211,257" fill="#aaff00"/>
	<line x1="181" y1="188" x2="207" y2="260" stroke="#aaff00" stroke-width="2"/>
</g>
<g>
	<polygon points="173,209 171,200 180,203" fill="#aaff00"/>
	<line x1="181" y1="188" x2="175" y2="202" stroke="#aaff00" stroke-width="2"/>
</g>
<g>
	<polygon points="98,242 102,234 107,241" fill="#aaff00"/>
	<line x1="181" y1="188" x2="104" y2="238" stroke="#aaff00" stroke-width="2"/>
</g>
<g>
	<polygon points="78,201 85,195 86,204" fill="#aaff00"/>
	<line x1="181" y1="188" x2="85" y2="200" stroke="#aaff00" stroke-width="2"/>
</g>
<g>
	<polygon points="255,258 254,267 246,262" fill="#aaff00"/>
	<line x1="228" y1="294" x2="250" y2="264" stroke="#aaff00" stroke-width="2"/>
</g>
<g>
	<polygon points="247,216 250,225 241,222" fill="#aaff00"/>
	<line x1="228" y1="294" x2="246" y2="223" stroke="#aaff00" stroke-width="2"/>
</g>
<g>
	<polygon points="248,168 251,176 242,175" fill="#aaff00"/>
	<line x1="228" y1="294" x2="247" y2="175" stroke="#aaff00" stroke-width="2"/>
</g>
<g>
	<polygon points="207,145 213,152 204,153" fill="#aaff00"/>
	<line x1="228" y1="294" x2="208" y2="152" stroke="#aaff00" stroke-width="2"/>
</g>
<g>
	<polygon points="163,148 171,153 162,157" fill="#aaff00"/>
	<line x1="228" y1="294" x2="166" y2="154" stroke="#aaff00" stroke-width="2"/>
</g>
<g>
	<polygon points="118,173 126,176 119,182" fill="#aaff00"/>
	<line x1="228" y1="294" x2="122" y2="178" stroke="#aaff00" stroke-width="2"/>
</g>
<g>
	<polygon points="133,294 141,289 141,298" fill="#aaff00"/>
	<line x1="228" y1="294" x2="140" y2="294" stroke="#aaff00" stroke-width="2"/>
</g>
<g>
	<polygon points="156,265 165,264 161,272" fill="#aaff00"/>
	<line x1="228" y1="294" x2="162" y2="268" stroke="#aaff00" stroke-width="2"/>
</g>
<g>
	<polygon points="214,274 222,278 215,283" fill="#aaff00"/>
	<line x1="228" y1="294" x2="218" y2="280" stroke="#aaff00" stroke-width="2"/>
</g>
<g>
	<polygon points="174,217 182,221 175,226" fill="#aaff00"/>
	<line x1="228" y1="294" x2="178" y2="223" stroke="#aaff00" stroke-width="2"/>
</g>
<g>
	<polygon points="99,246 108,245 104,253" fill="#aaff00"/>
	<line x1="228" y1="294" x2="105" y2="249" stroke="#aaff00" stroke-width="2"/>
</g>
<g>
	<polygon points="87,294 95,290 95,299" fill="#aaff00"/>
	<line x1="228" y1="294" x2="94" y2="294" stroke="#aaff00" stroke-width="2"/>
</g>
<g>
	<polygon points="334,157 332,166 325,160" fill="#aaff00"/>
	<line x1="228" y1="294" x2="329" y2="163" stroke="#aaff00" stroke-width="2"/>
</g>
<g>
	<polygon points="249,216 255,223 247,224" fill="#aaff00"/>
	<line x1="258" y1="255" x2="251" y2="223" stroke="#aaff00" stroke-width="2"/>
</g>
<g>
	<polygon points="303,292 294,290 300,283" fill="#aaff00"/>
	<line x1="258" y1="255" x2="297" y2="287" stroke="#aaff00" stroke-width="2"/>
</g>
<g>
	<polygon points="249,168 253,176 244,176" fill="#aaff00"/>
	<line x1="249" y1="212" x2="249" y2="175" stroke="#aaff00" stroke-width="2"/>
</g>
<g>
	<polygon points="293,204 286,210 285,201" fill="#aaff00"/>
	<line x1="249" y1="212" x2="286" y2="205" stroke="#aaff00" stroke-width="2"/>
</g>
<g>
	<polygon points="253,121 257,129 248,128" fill="#aaff00"/>
	<line x1="249" y1="164" x2="252" y2="128" stroke="#aaff00" stroke-width="2"/>
</g>
<g>
	<polygon points="265,70 268,78 259,77" fill="#aaff00"/>
	<line x1="249" y1="164" x2="264" y2="77" stroke="#aaff00" stroke-width="2"/>
</g>
<g>
	<polygon points="211,138 215,131 219,139" fill="#aaff00"/>
	<line x1="254" y1="117" x2="217" y2="135" stroke="#aaff00" stroke-width="2"/>
</g>
<g>
	<polygon points="166,143 173,138 174,147" fill="#aaff00"/>
	<line x1="207" y1="141" x2="173" y2="143" stroke="#aaff00" stroke-width="2"/>
</g>
<g>
	<polygon points="194,68 200,75 191,76" fill="#aaff00"/>
	<line x1="207" y1="141" x2="195" y2="75" stroke="#aaff00" stroke-width="2"/>
</g>
<g>
	<polygon points="118,167 123,160 127,167" fill="#aaff00"/>
	<line x1="162" y1="144" x2="125" y2="164" stroke="#aaff00" stroke-width="2"/>
</g>
<g>
	<polygon points="130,83 137,88 129,92" fill="#aaff00"/>
	<line x1="162" y1="144" x2="133" y2="90" stroke="#aaff00" stroke-width="2"/>
</g>
<g>
	<polygon points="69,118 78,121 71,127" fill="#aaff00"/>
	<line x1="115" y1="170" x2="74" y2="123" stroke="#aaff00" stroke-width="2"/>
</g>
<g>
	<polygon points="40,226 44,217 49,225" fill="#aaff00"/>
	<line x1="115" y1="170" x2="46" y2="221" stroke="#aaff00" stroke-width="2"/>
</g>
<g>
	<polygon points="149,267 148,276 140,271" fill="#aaff00"/>
	<line x1="129" y1="294" x2="144" y2="273" stroke="#aaff00" stroke-width="2"/>
</g>
<g>
	<polygon points="40,231 49,232 44,239" fill="#aaff00"/>
	<line x1="129" y1="294" x2="46" y2="235" stroke="#aaff00" stroke-width="2"/>
</g>
<g>
	<polygon points="168,294 160,298 160,289" fill="#aaff00"/>
	<line x1="129" y1="294" x2="161" y2="294" stroke="#aaff00" stroke-width="2"/>
</g>
<g>
	<polygon points="207,270 199,274 200,265" fill="#aaff00"/>
	<line x1="152" y1="264" x2="200" y2="269" stroke="#aaff00" stroke-width="2"/>
</g>
<g>
	<polygon points="130,235 138,239 131,244" fill="#aaff00"/>
	<line x1="152" y1="264" x2="135" y2="241" stroke="#aaff00" stroke-width="2"/>
</g>
<g>
	<polygon points="174,217 182,221 175,226" fill="#aaff00"/>
	<line x1="212" y1="271" x2="178" y2="223" stroke="#aaff00" stroke-width="2"/>
</g>
<g>
	<polygon points="206,247 212,253 203,256" fill="#aaff00"/>
	<line x1="212" y1="271" x2="207" y2="254" stroke="#aaff00" stroke-width="2"/>
</g>
<g>
	<polygon points="99,243 104,236 108,244" fill="#aaff00"/>
	<line x1="172" y1="214" x2="105" y2="240" stroke="#aaff00" stroke-width="2"/>
</g>
<g>
	<polygon points="177,235 171,229 180,226" fill="#aaff00"/>
	<line x1="172" y1="214" x2="175" y2="228" stroke="#aaff00" stroke-width="2"/>
</g>
<g>
	<polygon points="75,206 83,211 75,215" fill="#aaff00"/>
	<line x1="95" y1="245" x2="79" y2="212" stroke="#aaff00" stroke-width="2"/>
</g>
<g>
	<polygon points="24,290 28,282 33,290" fill="#aaff00"/>
	<line x1="95" y1="245" x2="30" y2="286" stroke="#aaff00" stroke-width="2"/>
</g>
<g>
	<polygon points="82,290 77,283 86,282" fill="#aaff00"/>
	<line x1="74" y1="202" x2="81" y2="283" stroke="#aaff00" stroke-width="2"/>
</g>
<g>
	<polygon points="9,170 18,170 14,178" fill="#aaff00"/>
	<line x1="74" y1="202" x2="15" y2="174" stroke="#aaff00" stroke-width="2"/>
</g>
<g>
	<polygon points="395,59 399,67 390,67" fill="#aaff00"/>
	<line x1="395" y1="113" x2="395" y2="66" stroke="#aaff00" stroke-width="2"/>
</g>
<g>
	<polygon points="360,196 368,194 367,202" fill="#aaff00"/>
	<line x1="395" y1="204" x2="367" y2="198" stroke="#aaff00" stroke-width="2"/>
</g>
<g>
	<polygon points="395,247 390,239 399,239" fill="#aaff00"/>
	<line x1="395" y1="204" x2="395" y2="240" stroke="#aaff00" stroke-width="2"/>
</g>
<g>
	<polygon points="395,290 390,282 399,282" fill="#aaff00"/>
	<line x1="395" y1="252" x2="395" y2="283" stroke="#aaff00" stroke-width="2"/>
</g>
<g>
	<polygon points="341,10 344,18 336,17" fill="#aaff00"/>
	<line x1="334" y1="71" x2="340" y2="17" stroke="#aaff00" stroke-width="2"/>
</g>
<g>
	<polygon points="391,115 387,123 382,116" fill="#aaff00"/>
	<line x1="337" y1="154" x2="385" y2="119" stroke="#aaff00" stroke-width="2"/>
</g>
<g>
	<polygon points="354,191 346,186 355,182" fill="#aaff00"/>
	<line x1="337" y1="154" x2="351" y2="185" stroke="#aaff00" stroke-width="2"/>
</g>
<g>
	<polygon points="334,75 338,83 329,83" fill="#aaff00"/>
	<line x1="337" y1="154" x2="334" y2="82" stroke="#aaff00" stroke-width="2"/>
</g>

<g fill="#000000">
	<circle cx="180" cy="187" r="4"/>
</g>
<g fill="#000000">
	<circle cx="227" cy="293" r="4"/>
</g>
<g fill="#000000">
	<circle cx="257" cy="254" r="4"/>
</g>
<g fill="#000000">
	<circle cx="248" cy="211" r="4"/>
</g>
<g fill="#000000">
	<circle cx="248" cy="163" r="4"/>
</g>
<g fill="#000000">
	<circle cx="206" cy="140" r="4"/>
</g>
<g fill="#000000">
	<circle cx="161" cy="143" r="4"/>
</g>
<g fill="#000000">
	<circle cx="114" cy="169" r="4"/>
</g>
<g fill="#000000">
	<circle cx="128" cy="293" r="4"/>
</g>
<g fill="#000000">
	<circle cx="151" cy="263" r="4"/>
</g>
<g fill="#000000">
	<circle cx="211" cy="270" r="4"/>
</g>
<g fill="#000000">
	<circle cx="171" cy="213" r="4"/>
</g>
<g fill="#000000">
	<circle cx="94" cy="244" r="4"/>
</g>
<g fill="#000000">
	<circle cx="73" cy="201" r="4"/>
</g>
<g fill="#000000">
	<circle cx="82" cy="294" r="4"/>
</g>
<g fill="#000000">
	<circle cx="336" cy="153" r="4"/>
</g>
<g fill="#000000">
	<circle cx="306" cy="294" r="4"/>
</g>
<g fill="#000000">
	<circle cx="394" cy="112" r="4"/>
</g>
<g fill="#000000">
	<circle cx="394" cy="54" r="4"/>
</g>
<g fill="#000000">
	<circle cx="394" cy="203" r="4"/>
</g>
<g fill="#000000">
	<circle cx="355" cy="195" r="4"/>
</g>
<g fill="#000000">
	<circle cx="394" cy="251" r="4"/>
</g>
<g fill="#000000">
	<circle cx="297" cy="203" r="4"/>
</g>
<g fill="#000000">
	<circle cx="253" cy="116" r="4"/>
</g>
<g fill="#000000">
	<circle cx="265" cy="65" r="4"/>
</g>
<g fill="#000000">
	<circle cx="193" cy="63" r="4"/>
</g>
<g fill="#000000">
	<circle cx="127" cy="79" r="4"/>
</g>
<g fill="#000000">
	<circle cx="66" cy="114" r="4"/>
</g>
<g fill="#000000">
	<circle cx="36" cy="228" r="4"/>
</g>
<g fill="#000000">
	<circle cx="172" cy="293" r="4"/>
</g>
<g fill="#000000">
	<circle cx="127" cy="231" r="4"/>
</g>
<g fill="#000000">
	<circle cx="204" cy="242" r="4"/>
</g>
<g fill="#000000">
	<circle cx="178" cy="239" r="4"/>
</g>
<g fill="#000000">
	<circle cx="20" cy="292" r="4"/>
</g>
<g fill="#000000">
	<circle cx="4" cy="168" r="4"/>
</g>
<g fill="#000000">
	<circle cx="394" cy="294" r="4"/>
</g>
<g fill="#000000">
	<circle cx="333" cy="70" r="4"/>
</g>
<g fill="#000000">
	<circle cx="341" cy="5" r="4"/>
</g>

</g>

</svg>
