<?xml version="1.0" encoding="utf-8"?>
<!-- Created with Hypercube (http://tumic.wz.cz/hypercube) -->

<svg width="400" height="300" viewBox="0 0 400 300" xmlns="http://www.w3.org/2000/svg" baseProfile="tiny">

<g font-family="Helvetica" font-weight="normal">

<g>
	<polygon points="157,198 165,195 164,204" fill="#aaff00"/>
	<line x1="201" y1="207" x2="164" y2="200" stroke="#aaff00" stroke-width="2"/>
</g>
<g>
	<polygon points="236,165 234,174 227,168" fill="#aaff00"/>
	<line x1="201" y1="207" x2="231" y2="170" stroke="#aaff00" stroke-width="2"/>
</g>
<g>
	<polygon points="143,112 148,119 139,120" fill="#aaff00"/>
	<line x1="153" y1="198" x2="144" y2="119" stroke="#aaff00" stroke-width="2"/>
</g>
<g>
	<polygon points="208,61 204,69 199,62" fill="#aaff00"/>
	<line x1="143" y1="108" x2="202" y2="65" stroke="#aaff00" stroke-width="2"/>
</g>
<g>
	<polygon points="130,153 127,144 136,147" fill="#aaff00"/>
	<line x1="143" y1="108" x2="132" y2="146" stroke="#aaff00" stroke-width="2"/>
</g>
<g>
	<polygon points="272,180 263,180 267,173" fill="#aaff00"/>
	<line x1="143" y1="108" x2="265" y2="177" stroke="#aaff00" stroke-width="2"/>
</g>
<g>
	<polygon points="181,95 175,102 172,93" fill="#aaff00"/>
	<line x1="143" y1="108" x2="174" y2="97" stroke="#aaff00" stroke-width="2"/>
</g>
<g>
	<polygon points="172,123 163,124 167,116" fill="#aaff00"/>
	<line x1="143" y1="108" x2="165" y2="120" stroke="#aaff00" stroke-width="2"/>
</g>
<g>
	<polygon points="239,76 233,83 230,74" fill="#aaff00"/>
	<line x1="143" y1="108" x2="232" y2="78" stroke="#aaff00" stroke-width="2"/>
</g>
<g>
	<polygon points="80,106 88,101 88,110" fill="#aaff00"/>
	<line x1="143" y1="108" x2="87" y2="106" stroke="#aaff00" stroke-width="2"/>
</g>
<g>
	<polygon points="262,8 260,16 254,10" fill="#aaff00"/>
	<line x1="212" y1="59" x2="257" y2="13" stroke="#aaff00" stroke-width="2"/>
</g>
<g>
	<polygon points="142,23 149,17 150,26" fill="#aaff00"/>
	<line x1="266" y1="5" x2="149" y2="22" stroke="#aaff00" stroke-width="2"/>
</g>
<g>
	<polygon points="212,5 220,0 220,9" fill="#aaff00"/>
	<line x1="266" y1="5" x2="219" y2="5" stroke="#aaff00" stroke-width="2"/>
</g>
<g>
	<polygon points="342,5 334,9 334,0" fill="#aaff00"/>
	<line x1="266" y1="5" x2="335" y2="5" stroke="#aaff00" stroke-width="2"/>
</g>
<g>
	<polygon points="133,25 127,31 124,22" fill="#aaff00"/>
	<line x1="93" y1="36" x2="126" y2="27" stroke="#aaff00" stroke-width="2"/>
</g>
<g>
	<polygon points="203,6 197,12 194,3" fill="#aaff00"/>
	<line x1="93" y1="36" x2="196" y2="8" stroke="#aaff00" stroke-width="2"/>
</g>
<g>
	<polygon points="53,7 62,8 57,15" fill="#aaff00"/>
	<line x1="93" y1="36" x2="59" y2="11" stroke="#aaff00" stroke-width="2"/>
</g>
<g>
	<polygon points="18,48 25,42 26,51" fill="#aaff00"/>
	<line x1="93" y1="36" x2="25" y2="47" stroke="#aaff00" stroke-width="2"/>
</g>
<g>
	<polygon points="142,22 148,16 151,25" fill="#aaff00"/>
	<line x1="172" y1="15" x2="149" y2="21" stroke="#aaff00" stroke-width="2"/>
</g>
<g>
	<polygon points="203,6 197,12 194,3" fill="#aaff00"/>
	<line x1="172" y1="15" x2="196" y2="8" stroke="#aaff00" stroke-width="2"/>
</g>
<g>
	<polygon points="94,40 100,46 92,49" fill="#aaff00"/>
	<line x1="129" y1="158" x2="96" y2="47" stroke="#aaff00" stroke-width="2"/>
</g>
<g>
	<polygon points="57,174 64,167 65,176" fill="#aaff00"/>
	<line x1="129" y1="158" x2="64" y2="172" stroke="#aaff00" stroke-width="2"/>
</g>
<g>
	<polygon points="8,203 12,195 17,203" fill="#aaff00"/>
	<line x1="53" y1="175" x2="14" y2="199" stroke="#aaff00" stroke-width="2"/>
</g>
<g>
	<polygon points="211,63 216,71 207,71" fill="#aaff00"/>
	<line x1="211" y1="130" x2="211" y2="70" stroke="#aaff00" stroke-width="2"/>
</g>
<g>
	<polygon points="133,156 139,149 142,158" fill="#aaff00"/>
	<line x1="211" y1="130" x2="140" y2="154" stroke="#aaff00" stroke-width="2"/>
</g>
<g>
	<polygon points="272,180 263,178 269,171" fill="#aaff00"/>
	<line x1="211" y1="130" x2="266" y2="175" stroke="#aaff00" stroke-width="2"/>
</g>
<g>
	<polygon points="188,97 196,101 189,106" fill="#aaff00"/>
	<line x1="211" y1="130" x2="192" y2="103" stroke="#aaff00" stroke-width="2"/>
</g>
<g>
	<polygon points="180,126 188,122 187,131" fill="#aaff00"/>
	<line x1="211" y1="130" x2="187" y2="127" stroke="#aaff00" stroke-width="2"/>
</g>
<g>
	<polygon points="241,78 241,87 233,83" fill="#aaff00"/>
	<line x1="211" y1="130" x2="237" y2="85" stroke="#aaff00" stroke-width="2"/>
</g>
<g>
	<polygon points="330,174 323,180 322,171" fill="#aaff00"/>
	<line x1="276" y1="183" x2="323" y2="175" stroke="#aaff00" stroke-width="2"/>
</g>
<g>
	<polygon points="246,245 246,236 254,240" fill="#aaff00"/>
	<line x1="276" y1="183" x2="249" y2="239" stroke="#aaff00" stroke-width="2"/>
</g>
<g>
	<polygon points="278,179 277,170 285,174" fill="#aaff00"/>
	<line x1="338" y1="70" x2="281" y2="172" stroke="#aaff00" stroke-width="2"/>
</g>
<g>
	<polygon points="269,8 278,9 272,16" fill="#aaff00"/>
	<line x1="338" y1="70" x2="274" y2="12" stroke="#aaff00" stroke-width="2"/>
</g>
<g>
	<polygon points="269,8 278,9 272,16" fill="#aaff00"/>
	<line x1="299" y1="35" x2="274" y2="12" stroke="#aaff00" stroke-width="2"/>
</g>
<g>
	<polygon points="334,66 325,65 331,58" fill="#aaff00"/>
	<line x1="299" y1="35" x2="329" y2="62" stroke="#aaff00" stroke-width="2"/>
</g>
<g>
	<polygon points="295,37 291,45 286,38" fill="#aaff00"/>
	<line x1="244" y1="75" x2="289" y2="41" stroke="#aaff00" stroke-width="2"/>
</g>
<g>
	<polygon points="214,62 222,67 214,71" fill="#aaff00"/>
	<line x1="248" y1="118" x2="218" y2="68" stroke="#aaff00" stroke-width="2"/>
</g>
<g>
	<polygon points="133,156 139,149 142,158" fill="#aaff00"/>
	<line x1="248" y1="118" x2="140" y2="154" stroke="#aaff00" stroke-width="2"/>
</g>
<g>
	<polygon points="244,79 249,86 240,87" fill="#aaff00"/>
	<line x1="248" y1="118" x2="245" y2="86" stroke="#aaff00" stroke-width="2"/>
</g>
<g>
	<polygon points="252,119 261,116 258,125" fill="#aaff00"/>
	<line x1="298" y1="130" x2="259" y2="120" stroke="#aaff00" stroke-width="2"/>
</g>
<g>
	<polygon points="287,85 293,91 284,94" fill="#aaff00"/>
	<line x1="298" y1="130" x2="288" y2="92" stroke="#aaff00" stroke-width="2"/>
</g>
<g>
	<polygon points="216,60 225,58 222,66" fill="#aaff00"/>
	<line x1="286" y1="81" x2="223" y2="62" stroke="#aaff00" stroke-width="2"/>
</g>
<g>
	<polygon points="248,75 256,72 255,81" fill="#aaff00"/>
	<line x1="286" y1="81" x2="255" y2="76" stroke="#aaff00" stroke-width="2"/>
</g>
<g>
	<polygon points="294,132 289,139 285,131" fill="#aaff00"/>
	<line x1="239" y1="162" x2="287" y2="135" stroke="#aaff00" stroke-width="2"/>
</g>
<g>
	<polygon points="213,133 222,136 215,142" fill="#aaff00"/>
	<line x1="239" y1="162" x2="218" y2="138" stroke="#aaff00" stroke-width="2"/>
</g>
<g>
	<polygon points="277,187 283,193 274,196" fill="#aaff00"/>
	<line x1="291" y1="245" x2="278" y2="194" stroke="#aaff00" stroke-width="2"/>
</g>
<g>
	<polygon points="352,228 346,234 343,225" fill="#aaff00"/>
	<line x1="291" y1="245" x2="345" y2="230" stroke="#aaff00" stroke-width="2"/>
</g>
<g>
	<polygon points="392,183 390,192 383,186" fill="#aaff00"/>
	<line x1="357" y1="227" x2="387" y2="189" stroke="#aaff00" stroke-width="2"/>
</g>
<g>
	<polygon points="391,252 382,251 387,244" fill="#aaff00"/>
	<line x1="357" y1="227" x2="385" y2="248" stroke="#aaff00" stroke-width="2"/>
</g>
<g>
	<polygon points="395,290 390,282 399,282" fill="#aaff00"/>
	<line x1="395" y1="255" x2="395" y2="283" stroke="#aaff00" stroke-width="2"/>
</g>
<g>
	<polygon points="346,292 350,283 355,291" fill="#aaff00"/>
	<line x1="395" y1="255" x2="352" y2="287" stroke="#aaff00" stroke-width="2"/>
</g>
<g>
	<polygon points="131,161 138,166 130,170" fill="#aaff00"/>
	<line x1="185" y1="260" x2="134" y2="168" stroke="#aaff00" stroke-width="2"/>
</g>
<g>
	<polygon points="286,245 279,251 278,242" fill="#aaff00"/>
	<line x1="185" y1="260" x2="279" y2="246" stroke="#aaff00" stroke-width="2"/>
</g>
<g>
	<polygon points="126,161 127,170 119,166" fill="#aaff00"/>
	<line x1="88" y1="237" x2="123" y2="168" stroke="#aaff00" stroke-width="2"/>
</g>
<g>
	<polygon points="61,290 61,281 69,285" fill="#aaff00"/>
	<line x1="88" y1="237" x2="65" y2="284" stroke="#aaff00" stroke-width="2"/>
</g>

<g fill="#000000">
	<circle cx="200" cy="206" r="4"/>
</g>
<g fill="#000000">
	<circle cx="152" cy="197" r="4"/>
</g>
<g fill="#000000">
	<circle cx="238" cy="161" r="4"/>
</g>
<g fill="#000000">
	<circle cx="142" cy="107" r="4"/>
</g>
<g fill="#000000">
	<circle cx="297" cy="129" r="4"/>
</g>
<g fill="#000000">
	<circle cx="210" cy="129" r="4"/>
</g>
<g fill="#000000">
	<circle cx="247" cy="117" r="4"/>
</g>
<g fill="#000000">
	<circle cx="285" cy="80" r="4"/>
</g>
<g fill="#000000">
	<circle cx="211" cy="58" r="4"/>
</g>
<g fill="#000000">
	<circle cx="128" cy="157" r="4"/>
</g>
<g fill="#000000">
	<circle cx="275" cy="182" r="4"/>
</g>
<g fill="#000000">
	<circle cx="185" cy="93" r="4"/>
</g>
<g fill="#000000">
	<circle cx="175" cy="125" r="4"/>
</g>
<g fill="#000000">
	<circle cx="243" cy="74" r="4"/>
</g>
<g fill="#000000">
	<circle cx="75" cy="105" r="4"/>
</g>
<g fill="#000000">
	<circle cx="265" cy="4" r="4"/>
</g>
<g fill="#000000">
	<circle cx="92" cy="35" r="4"/>
</g>
<g fill="#000000">
	<circle cx="52" cy="174" r="4"/>
</g>
<g fill="#000000">
	<circle cx="334" cy="173" r="4"/>
</g>
<g fill="#000000">
	<circle cx="244" cy="249" r="4"/>
</g>
<g fill="#000000">
	<circle cx="298" cy="34" r="4"/>
</g>
<g fill="#000000">
	<circle cx="137" cy="23" r="4"/>
</g>
<g fill="#000000">
	<circle cx="207" cy="4" r="4"/>
</g>
<g fill="#000000">
	<circle cx="346" cy="4" r="4"/>
</g>
<g fill="#000000">
	<circle cx="171" cy="14" r="4"/>
</g>
<g fill="#000000">
	<circle cx="87" cy="236" r="4"/>
</g>
<g fill="#000000">
	<circle cx="59" cy="294" r="4"/>
</g>
<g fill="#000000">
	<circle cx="337" cy="69" r="4"/>
</g>
<g fill="#000000">
	<circle cx="49" cy="4" r="4"/>
</g>
<g fill="#000000">
	<circle cx="13" cy="48" r="4"/>
</g>
<g fill="#000000">
	<circle cx="4" cy="205" r="4"/>
</g>
<g fill="#000000">
	<circle cx="184" cy="259" r="4"/>
</g>
<g fill="#000000">
	<circle cx="290" cy="244" r="4"/>
</g>
<g fill="#000000">
	<circle cx="356" cy="226" r="4"/>
</g>
<g fill="#000000">
	<circle cx="394" cy="179" r="4"/>
</g>
<g fill="#000000">
	<circle cx="394" cy="254" r="4"/>
</g>
<g fill="#000000">
	<circle cx="394" cy="294" r="4"/>
</g>
<g fill="#000000">
	<circle cx="342" cy="294" r="4"/>
</g>

</g>

</svg>
