<?xml version="1.0" encoding="utf-8"?>
<!-- Created with Hypercube (http://tumic.wz.cz/hypercube) -->

<svg width="400" height="300" viewBox="0 0 400 300" xmlns="http://www.w3.org/2000/svg" baseProfile="tiny">

<g font-family="Helvetica" font-weight="normal">

<g>
	<polygon points="169,238 178,235 175,244" fill="#aaff00"/>
	<line x1="232" y1="253" x2="176" y2="239" stroke="#aaff00" stroke-width="2"/>
</g>
<g>
	<polygon points="262,191 262,200 254,196" fill="#aaff00"/>
	<line x1="232" y1="253" x2="258" y2="197" stroke="#aaff00" stroke-width="2"/>
</g>
<g>
	<polygon points="279,246 272,252 271,243" fill="#aaff00"/>
	<line x1="232" y1="253" x2="272" y2="247" stroke="#aaff00" stroke-width="2"/>
</g>
<g>
	<polygon points="241,290 235,284 244,281" fill="#aaff00"/>
	<line x1="232" y1="253" x2="240" y2="283" stroke="#aaff00" stroke-width="2"/>
</g>
<g>
	<polygon points="302,292 293,292 297,285" fill="#aaff00"/>
	<line x1="232" y1="253" x2="295" y2="289" stroke="#aaff00" stroke-width="2"/>
</g>
<g>
	<polygon points="180,288 184,280 189,287" fill="#aaff00"/>
	<line x1="232" y1="253" x2="186" y2="284" stroke="#aaff00" stroke-width="2"/>
</g>
<g>
	<polygon points="109,252 115,246 118,254" fill="#aaff00"/>
	<line x1="165" y1="237" x2="116" y2="250" stroke="#aaff00" stroke-width="2"/>
</g>
<g>
	<polygon points="172,288 164,289 168,281" fill="#aaff00"/>
	<line x1="105" y1="254" x2="166" y2="285" stroke="#aaff00" stroke-width="2"/>
</g>
<g>
	<polygon points="81,207 88,212 80,216" fill="#aaff00"/>
	<line x1="105" y1="254" x2="84" y2="214" stroke="#aaff00" stroke-width="2"/>
</g>
<g>
	<polygon points="71,291 72,282 79,288" fill="#aaff00"/>
	<line x1="105" y1="254" x2="75" y2="286" stroke="#aaff00" stroke-width="2"/>
</g>
<g>
	<polygon points="123,290 115,285 123,281" fill="#aaff00"/>
	<line x1="105" y1="254" x2="119" y2="284" stroke="#aaff00" stroke-width="2"/>
</g>
<g>
	<polygon points="100,253 92,257 93,248" fill="#aaff00"/>
	<line x1="31" y1="249" x2="93" y2="253" stroke="#aaff00" stroke-width="2"/>
</g>
<g>
	<polygon points="28,252 28,261 21,257" fill="#aaff00"/>
	<line x1="5" y1="295" x2="25" y2="259" stroke="#aaff00" stroke-width="2"/>
</g>
<g>
	<polygon points="119,121 128,120 124,128" fill="#aaff00"/>
	<line x1="179" y1="145" x2="125" y2="124" stroke="#aaff00" stroke-width="2"/>
</g>
<g>
	<polygon points="74,65 82,69 75,74" fill="#aaff00"/>
	<line x1="115" y1="120" x2="78" y2="71" stroke="#aaff00" stroke-width="2"/>
</g>
<g>
	<polygon points="70,57 64,51 73,48" fill="#aaff00"/>
	<line x1="56" y1="5" x2="68" y2="50" stroke="#aaff00" stroke-width="2"/>
</g>
<g>
	<polygon points="51,5 43,9 43,0" fill="#aaff00"/>
	<line x1="5" y1="5" x2="44" y2="5" stroke="#aaff00" stroke-width="2"/>
</g>
<g>
	<polygon points="5,48 0,40 9,40" fill="#aaff00"/>
	<line x1="5" y1="5" x2="5" y2="41" stroke="#aaff00" stroke-width="2"/>
</g>
<g>
	<polygon points="67,61 59,64 60,55" fill="#aaff00"/>
	<line x1="5" y1="53" x2="60" y2="60" stroke="#aaff00" stroke-width="2"/>
</g>
<g>
	<polygon points="76,62 84,57 84,66" fill="#aaff00"/>
	<line x1="133" y1="63" x2="83" y2="62" stroke="#aaff00" stroke-width="2"/>
</g>
<g>
	<polygon points="244,59 237,65 236,57" fill="#aaff00"/>
	<line x1="192" y1="71" x2="237" y2="61" stroke="#aaff00" stroke-width="2"/>
</g>
<g>
	<polygon points="137,63 145,60 144,69" fill="#aaff00"/>
	<line x1="192" y1="71" x2="144" y2="64" stroke="#aaff00" stroke-width="2"/>
</g>
<g>
	<polygon points="297,38 292,45 288,37" fill="#aaff00"/>
	<line x1="249" y1="59" x2="291" y2="41" stroke="#aaff00" stroke-width="2"/>
</g>
<g>
	<polygon points="338,7 335,16 329,9" fill="#aaff00"/>
	<line x1="302" y1="37" x2="332" y2="12" stroke="#aaff00" stroke-width="2"/>
</g>
<g>
	<polygon points="390,5 382,9 382,0" fill="#aaff00"/>
	<line x1="342" y1="5" x2="383" y2="5" stroke="#aaff00" stroke-width="2"/>
</g>
<g>
	<polygon points="395,46 390,38 399,38" fill="#aaff00"/>
	<line x1="395" y1="5" x2="395" y2="39" stroke="#aaff00" stroke-width="2"/>
</g>
<g>
	<polygon points="304,40 313,43 306,49" fill="#aaff00"/>
	<line x1="347" y1="90" x2="309" y2="45" stroke="#aaff00" stroke-width="2"/>
</g>
<g>
	<polygon points="350,92 359,93 353,101" fill="#aaff00"/>
	<line x1="395" y1="127" x2="356" y2="97" stroke="#aaff00" stroke-width="2"/>
</g>
<g>
	<polygon points="298,34 289,34 293,26" fill="#aaff00"/>
	<line x1="250" y1="5" x2="292" y2="30" stroke="#aaff00" stroke-width="2"/>
</g>
<g>
	<polygon points="245,5 237,9 237,0" fill="#aaff00"/>
	<line x1="186" y1="5" x2="238" y2="5" stroke="#aaff00" stroke-width="2"/>
</g>
<g>
	<polygon points="128,5 136,0 136,9" fill="#aaff00"/>
	<line x1="186" y1="5" x2="135" y2="5" stroke="#aaff00" stroke-width="2"/>
</g>
<g>
	<polygon points="75,58 76,49 83,55" fill="#aaff00"/>
	<line x1="124" y1="5" x2="79" y2="53" stroke="#aaff00" stroke-width="2"/>
</g>
<g>
	<polygon points="68,65 67,74 60,68" fill="#aaff00"/>
	<line x1="28" y1="111" x2="64" y2="70" stroke="#aaff00" stroke-width="2"/>
</g>
<g>
	<polygon points="25,115 26,124 18,119" fill="#aaff00"/>
	<line x1="5" y1="157" x2="22" y2="121" stroke="#aaff00" stroke-width="2"/>
</g>
<g>
	<polygon points="391,258 382,256 388,249" fill="#aaff00"/>
	<line x1="351" y1="224" x2="386" y2="253" stroke="#aaff00" stroke-width="2"/>
</g>
<g>
	<polygon points="316,172 310,178 307,169" fill="#aaff00"/>
	<line x1="264" y1="187" x2="309" y2="174" stroke="#aaff00" stroke-width="2"/>
</g>
<g>
	<polygon points="183,146 192,146 188,154" fill="#aaff00"/>
	<line x1="264" y1="187" x2="189" y2="150" stroke="#aaff00" stroke-width="2"/>
</g>
<g>
	<polygon points="346,222 337,223 341,215" fill="#aaff00"/>
	<line x1="264" y1="187" x2="340" y2="219" stroke="#aaff00" stroke-width="2"/>
</g>
<g>
	<polygon points="263,137 267,145 258,145" fill="#aaff00"/>
	<line x1="264" y1="187" x2="263" y2="144" stroke="#aaff00" stroke-width="2"/>
</g>
<g>
	<polygon points="219,189 226,184 227,193" fill="#aaff00"/>
	<line x1="264" y1="187" x2="226" y2="189" stroke="#aaff00" stroke-width="2"/>
</g>

<g fill="#000000">
	<circle cx="231" cy="252" r="4"/>
</g>
<g fill="#000000">
	<circle cx="164" cy="236" r="4"/>
</g>
<g fill="#000000">
	<circle cx="263" cy="186" r="4"/>
</g>
<g fill="#000000">
	<circle cx="283" cy="245" r="4"/>
</g>
<g fill="#000000">
	<circle cx="242" cy="294" r="4"/>
</g>
<g fill="#000000">
	<circle cx="305" cy="294" r="4"/>
</g>
<g fill="#000000">
	<circle cx="104" cy="253" r="4"/>
</g>
<g fill="#000000">
	<circle cx="176" cy="290" r="4"/>
</g>
<g fill="#000000">
	<circle cx="78" cy="203" r="4"/>
</g>
<g fill="#000000">
	<circle cx="67" cy="294" r="4"/>
</g>
<g fill="#000000">
	<circle cx="124" cy="294" r="4"/>
</g>
<g fill="#000000">
	<circle cx="4" cy="294" r="4"/>
</g>
<g fill="#000000">
	<circle cx="30" cy="248" r="4"/>
</g>
<g fill="#000000">
	<circle cx="320" cy="170" r="4"/>
</g>
<g fill="#000000">
	<circle cx="178" cy="144" r="4"/>
</g>
<g fill="#000000">
	<circle cx="114" cy="119" r="4"/>
</g>
<g fill="#000000">
	<circle cx="71" cy="61" r="4"/>
</g>
<g fill="#000000">
	<circle cx="394" cy="4" r="4"/>
</g>
<g fill="#000000">
	<circle cx="394" cy="50" r="4"/>
</g>
<g fill="#000000">
	<circle cx="350" cy="223" r="4"/>
</g>
<g fill="#000000">
	<circle cx="394" cy="260" r="4"/>
</g>
<g fill="#000000">
	<circle cx="301" cy="36" r="4"/>
</g>
<g fill="#000000">
	<circle cx="341" cy="4" r="4"/>
</g>
<g fill="#000000">
	<circle cx="394" cy="126" r="4"/>
</g>
<g fill="#000000">
	<circle cx="346" cy="89" r="4"/>
</g>
<g fill="#000000">
	<circle cx="4" cy="4" r="4"/>
</g>
<g fill="#000000">
	<circle cx="55" cy="4" r="4"/>
</g>
<g fill="#000000">
	<circle cx="4" cy="52" r="4"/>
</g>
<g fill="#000000">
	<circle cx="191" cy="70" r="4"/>
</g>
<g fill="#000000">
	<circle cx="248" cy="58" r="4"/>
</g>
<g fill="#000000">
	<circle cx="132" cy="62" r="4"/>
</g>
<g fill="#000000">
	<circle cx="262" cy="132" r="4"/>
</g>
<g fill="#000000">
	<circle cx="185" cy="4" r="4"/>
</g>
<g fill="#000000">
	<circle cx="249" cy="4" r="4"/>
</g>
<g fill="#000000">
	<circle cx="123" cy="4" r="4"/>
</g>
<g fill="#000000">
	<circle cx="4" cy="156" r="4"/>
</g>
<g fill="#000000">
	<circle cx="27" cy="110" r="4"/>
</g>
<g fill="#000000">
	<circle cx="214" cy="189" r="4"/>
</g>

</g>

</svg>
