<?xml version="1.0" encoding="utf-8"?>
<!-- Created with Hypercube (http://tumic.wz.cz/hypercube) -->

<svg width="400" height="300" viewBox="0 0 400 300" xmlns="http://www.w3.org/2000/svg" baseProfile="tiny">

<g font-family="Helvetica" font-weight="normal">

<g>
	<polygon points="298,207 294,199 303,199" fill="#aaff00"/>
	<line x1="302" y1="140" x2="298" y2="200" stroke="#aaff00" stroke-width="2"/>
</g>
<g>
	<polygon points="197,292 200,283 206,290" fill="#aaff00"/>
	<line x1="298" y1="212" x2="203" y2="287" stroke="#aaff00" stroke-width="2"/>
</g>
<g>
	<polygon points="127,285 135,282 134,291" fill="#aaff00"/>
	<line x1="194" y1="295" x2="134" y2="286" stroke="#aaff00" stroke-width="2"/>
</g>
<g>
	<polygon points="71,294 78,288 79,297" fill="#aaff00"/>
	<line x1="123" y1="285" x2="78" y2="292" stroke="#aaff00" stroke-width="2"/>
</g>
<g>
	<polygon points="121,280 115,274 123,271" fill="#aaff00"/>
	<line x1="102" y1="213" x2="119" y2="273" stroke="#aaff00" stroke-width="2"/>
</g>
<g>
	<polygon points="101,208 96,201 105,200" fill="#aaff00"/>
	<line x1="94" y1="109" x2="101" y2="201" stroke="#aaff00" stroke-width="2"/>
</g>
<g>
	<polygon points="95,104 92,95 101,98" fill="#aaff00"/>
	<line x1="108" y1="51" x2="96" y2="97" stroke="#aaff00" stroke-width="2"/>
</g>
<g>
	<polygon points="108,46 106,38 115,39" fill="#aaff00"/>
	<line x1="118" y1="5" x2="110" y2="39" stroke="#aaff00" stroke-width="2"/>
</g>
<g>
	<polygon points="91,105 83,101 90,96" fill="#aaff00"/>
	<line x1="58" y1="57" x2="87" y2="99" stroke="#aaff00" stroke-width="2"/>
</g>
<g>
	<polygon points="57,52 53,44 62,44" fill="#aaff00"/>
	<line x1="56" y1="5" x2="57" y2="45" stroke="#aaff00" stroke-width="2"/>
</g>
<g>
	<polygon points="91,112 91,121 83,116" fill="#aaff00"/>
	<line x1="44" y1="186" x2="87" y2="118" stroke="#aaff00" stroke-width="2"/>
</g>
<g>
	<polygon points="41,189 39,198 32,192" fill="#aaff00"/>
	<line x1="5" y1="230" x2="36" y2="194" stroke="#aaff00" stroke-width="2"/>
</g>
<g>
	<polygon points="98,106 102,99 106,107" fill="#aaff00"/>
	<line x1="200" y1="55" x2="104" y2="103" stroke="#aaff00" stroke-width="2"/>
</g>
<g>
	<polygon points="203,51 205,43 211,49" fill="#aaff00"/>
	<line x1="248" y1="7" x2="208" y2="46" stroke="#aaff00" stroke-width="2"/>
</g>
<g>
	<polygon points="89,106 80,107 85,99" fill="#aaff00"/>
	<line x1="5" y1="64" x2="83" y2="103" stroke="#aaff00" stroke-width="2"/>
</g>
<g>
	<polygon points="5,59 0,51 9,51" fill="#aaff00"/>
	<line x1="5" y1="5" x2="5" y2="52" stroke="#aaff00" stroke-width="2"/>
</g>
<g>
	<polygon points="96,112 105,115 97,121" fill="#aaff00"/>
	<line x1="125" y1="149" x2="101" y2="118" stroke="#aaff00" stroke-width="2"/>
</g>
<g>
	<polygon points="128,151 137,152 131,160" fill="#aaff00"/>
	<line x1="165" y1="180" x2="134" y2="156" stroke="#aaff00" stroke-width="2"/>
</g>
<g>
	<polygon points="97,106 102,99 106,106" fill="#aaff00"/>
	<line x1="152" y1="76" x2="104" y2="103" stroke="#aaff00" stroke-width="2"/>
</g>
<g>
	<polygon points="153,71 151,62 160,65" fill="#aaff00"/>
	<line x1="176" y1="5" x2="155" y2="64" stroke="#aaff00" stroke-width="2"/>
</g>
<g>
	<polygon points="89,109 82,115 81,106" fill="#aaff00"/>
	<line x1="41" y1="117" x2="82" y2="110" stroke="#aaff00" stroke-width="2"/>
</g>
<g>
	<polygon points="37,119 34,128 28,121" fill="#aaff00"/>
	<line x1="5" y1="146" x2="31" y2="124" stroke="#aaff00" stroke-width="2"/>
</g>
<g>
	<polygon points="293,213 287,220 284,211" fill="#aaff00"/>
	<line x1="238" y1="231" x2="286" y2="215" stroke="#aaff00" stroke-width="2"/>
</g>
<g>
	<polygon points="233,231 227,238 225,229" fill="#aaff00"/>
	<line x1="185" y1="243" x2="226" y2="233" stroke="#aaff00" stroke-width="2"/>
</g>
<g>
	<polygon points="300,215 307,220 300,224" fill="#aaff00"/>
	<line x1="345" y1="295" x2="303" y2="222" stroke="#aaff00" stroke-width="2"/>
</g>
<g>
	<polygon points="349,295 357,290 357,299" fill="#aaff00"/>
	<line x1="395" y1="295" x2="356" y2="295" stroke="#aaff00" stroke-width="2"/>
</g>
<g>
	<polygon points="302,213 311,212 307,220" fill="#aaff00"/>
	<line x1="348" y1="231" x2="308" y2="216" stroke="#aaff00" stroke-width="2"/>
</g>
<g>
	<polygon points="352,231 360,226 360,235" fill="#aaff00"/>
	<line x1="395" y1="231" x2="359" y2="231" stroke="#aaff00" stroke-width="2"/>
</g>
<g>
	<polygon points="301,209 306,201 310,209" fill="#aaff00"/>
	<line x1="365" y1="173" x2="308" y2="206" stroke="#aaff00" stroke-width="2"/>
</g>
<g>
	<polygon points="367,169 368,160 375,165" fill="#aaff00"/>
	<line x1="395" y1="133" x2="372" y2="163" stroke="#aaff00" stroke-width="2"/>
</g>
<g>
	<polygon points="299,207 299,198 307,202" fill="#aaff00"/>
	<line x1="347" y1="105" x2="302" y2="201" stroke="#aaff00" stroke-width="2"/>
</g>
<g>
	<polygon points="349,101 350,92 358,97" fill="#aaff00"/>
	<line x1="387" y1="53" x2="354" y2="95" stroke="#aaff00" stroke-width="2"/>
</g>
<g>
	<polygon points="294,209 285,207 291,200" fill="#aaff00"/>
	<line x1="253" y1="174" x2="289" y2="204" stroke="#aaff00" stroke-width="2"/>
</g>
<g>
	<polygon points="250,169 243,165 251,161" fill="#aaff00"/>
	<line x1="230" y1="129" x2="247" y2="163" stroke="#aaff00" stroke-width="2"/>
</g>
<g>
	<polygon points="297,216 301,224 292,223" fill="#aaff00"/>
	<line x1="293" y1="274" x2="297" y2="223" stroke="#aaff00" stroke-width="2"/>
</g>
<g>
	<polygon points="289,276 284,283 280,275" fill="#aaff00"/>
	<line x1="253" y1="295" x2="282" y2="279" stroke="#aaff00" stroke-width="2"/>
</g>
<g>
	<polygon points="301,135 296,128 305,127" fill="#aaff00"/>
	<line x1="295" y1="76" x2="300" y2="128" stroke="#aaff00" stroke-width="2"/>
</g>

<g fill="#000000">
	<circle cx="301" cy="139" r="4"/>
</g>
<g fill="#000000">
	<circle cx="297" cy="211" r="4"/>
</g>
<g fill="#000000">
	<circle cx="237" cy="230" r="4"/>
</g>
<g fill="#000000">
	<circle cx="344" cy="294" r="4"/>
</g>
<g fill="#000000">
	<circle cx="347" cy="230" r="4"/>
</g>
<g fill="#000000">
	<circle cx="364" cy="172" r="4"/>
</g>
<g fill="#000000">
	<circle cx="193" cy="294" r="4"/>
</g>
<g fill="#000000">
	<circle cx="346" cy="104" r="4"/>
</g>
<g fill="#000000">
	<circle cx="252" cy="173" r="4"/>
</g>
<g fill="#000000">
	<circle cx="292" cy="273" r="4"/>
</g>
<g fill="#000000">
	<circle cx="122" cy="284" r="4"/>
</g>
<g fill="#000000">
	<circle cx="101" cy="212" r="4"/>
</g>
<g fill="#000000">
	<circle cx="66" cy="294" r="4"/>
</g>
<g fill="#000000">
	<circle cx="93" cy="108" r="4"/>
</g>
<g fill="#000000">
	<circle cx="107" cy="50" r="4"/>
</g>
<g fill="#000000">
	<circle cx="57" cy="56" r="4"/>
</g>
<g fill="#000000">
	<circle cx="43" cy="185" r="4"/>
</g>
<g fill="#000000">
	<circle cx="199" cy="54" r="4"/>
</g>
<g fill="#000000">
	<circle cx="4" cy="63" r="4"/>
</g>
<g fill="#000000">
	<circle cx="124" cy="148" r="4"/>
</g>
<g fill="#000000">
	<circle cx="151" cy="75" r="4"/>
</g>
<g fill="#000000">
	<circle cx="40" cy="116" r="4"/>
</g>
<g fill="#000000">
	<circle cx="247" cy="6" r="4"/>
</g>
<g fill="#000000">
	<circle cx="386" cy="52" r="4"/>
</g>
<g fill="#000000">
	<circle cx="4" cy="4" r="4"/>
</g>
<g fill="#000000">
	<circle cx="55" cy="4" r="4"/>
</g>
<g fill="#000000">
	<circle cx="252" cy="294" r="4"/>
</g>
<g fill="#000000">
	<circle cx="4" cy="229" r="4"/>
</g>
<g fill="#000000">
	<circle cx="229" cy="128" r="4"/>
</g>
<g fill="#000000">
	<circle cx="4" cy="145" r="4"/>
</g>
<g fill="#000000">
	<circle cx="394" cy="294" r="4"/>
</g>
<g fill="#000000">
	<circle cx="184" cy="242" r="4"/>
</g>
<g fill="#000000">
	<circle cx="164" cy="179" r="4"/>
</g>
<g fill="#000000">
	<circle cx="394" cy="132" r="4"/>
</g>
<g fill="#000000">
	<circle cx="175" cy="4" r="4"/>
</g>
<g fill="#000000">
	<circle cx="394" cy="230" r="4"/>
</g>
<g fill="#000000">
	<circle cx="117" cy="4" r="4"/>
</g>
<g fill="#000000">
	<circle cx="294" cy="75" r="4"/>
</g>

</g>

</svg>
