<?xml version="1.0" encoding="utf-8"?>
<!-- Created with Hypercube (http://tumic.wz.cz/hypercube) -->

<svg width="400" height="300" viewBox="0 0 400 300" xmlns="http://www.w3.org/2000/svg" baseProfile="tiny">

<g font-family="Helvetica" font-weight="normal">

<g>
	<polygon points="176,205 182,199 185,208" fill="#aaff00"/>
	<line x1="231" y1="192" x2="183" y2="204" stroke="#aaff00" stroke-width="2"/>
</g>
<g>
	<polygon points="218,232 216,223 224,226" fill="#aaff00"/>
	<line x1="231" y1="192" x2="220" y2="225" stroke="#aaff00" stroke-width="2"/>
</g>
<g>
	<polygon points="231,147 236,155 227,155" fill="#aaff00"/>
	<line x1="231" y1="192" x2="231" y2="154" stroke="#aaff00" stroke-width="2"/>
</g>
<g>
	<polygon points="274,197 266,200 267,192" fill="#aaff00"/>
	<line x1="231" y1="192" x2="267" y2="196" stroke="#aaff00" stroke-width="2"/>
</g>
<g>
	<polygon points="273,243 264,240 271,234" fill="#aaff00"/>
	<line x1="231" y1="192" x2="268" y2="237" stroke="#aaff00" stroke-width="2"/>
</g>
<g>
	<polygon points="181,156 190,157 185,164" fill="#aaff00"/>
	<line x1="231" y1="192" x2="187" y2="160" stroke="#aaff00" stroke-width="2"/>
</g>
<g>
	<polygon points="134,174 143,176 137,183" fill="#aaff00"/>
	<line x1="172" y1="207" x2="139" y2="179" stroke="#aaff00" stroke-width="2"/>
</g>
<g>
	<polygon points="173,155 168,162 164,154" fill="#aaff00"/>
	<line x1="131" y1="172" x2="167" y2="158" stroke="#aaff00" stroke-width="2"/>
</g>
<g>
	<polygon points="118,213 116,204 124,207" fill="#aaff00"/>
	<line x1="131" y1="172" x2="120" y2="206" stroke="#aaff00" stroke-width="2"/>
</g>
<g>
	<polygon points="122,128 128,135 119,136" fill="#aaff00"/>
	<line x1="131" y1="172" x2="124" y2="135" stroke="#aaff00" stroke-width="2"/>
</g>
<g>
	<polygon points="59,219 63,211 68,218" fill="#aaff00"/>
	<line x1="131" y1="172" x2="65" y2="215" stroke="#aaff00" stroke-width="2"/>
</g>
<g>
	<polygon points="134,168 136,160 143,166" fill="#aaff00"/>
	<line x1="213" y1="95" x2="139" y2="163" stroke="#aaff00" stroke-width="2"/>
</g>
<g>
	<polygon points="282,137 281,129 289,133" fill="#aaff00"/>
	<line x1="302" y1="99" x2="285" y2="131" stroke="#aaff00" stroke-width="2"/>
</g>
<g>
	<polygon points="363,72 358,79 354,71" fill="#aaff00"/>
	<line x1="302" y1="99" x2="357" y2="75" stroke="#aaff00" stroke-width="2"/>
</g>
<g>
	<polygon points="217,95 225,91 225,100" fill="#aaff00"/>
	<line x1="302" y1="99" x2="224" y2="95" stroke="#aaff00" stroke-width="2"/>
</g>
<g>
	<polygon points="234,188 236,180 242,186" fill="#aaff00"/>
	<line x1="280" y1="142" x2="239" y2="183" stroke="#aaff00" stroke-width="2"/>
</g>
<g>
	<polygon points="392,119 385,115 393,111" fill="#aaff00"/>
	<line x1="368" y1="71" x2="389" y2="113" stroke="#aaff00" stroke-width="2"/>
</g>
<g>
	<polygon points="395,128 399,136 390,136" fill="#aaff00"/>
	<line x1="395" y1="195" x2="395" y2="135" stroke="#aaff00" stroke-width="2"/>
</g>
<g>
	<polygon points="362,292 353,290 359,283" fill="#aaff00"/>
	<line x1="329" y1="262" x2="357" y2="287" stroke="#aaff00" stroke-width="2"/>
</g>
<g>
	<polygon points="171,284 178,278 179,287" fill="#aaff00"/>
	<line x1="329" y1="262" x2="178" y2="283" stroke="#aaff00" stroke-width="2"/>
</g>
<g>
	<polygon points="337,142 341,150 332,149" fill="#aaff00"/>
	<line x1="329" y1="262" x2="337" y2="149" stroke="#aaff00" stroke-width="2"/>
</g>
<g>
	<polygon points="258,293 263,285 267,294" fill="#aaff00"/>
	<line x1="329" y1="262" x2="264" y2="290" stroke="#aaff00" stroke-width="2"/>
</g>
<g>
	<polygon points="391,198 389,206 383,200" fill="#aaff00"/>
	<line x1="329" y1="262" x2="386" y2="203" stroke="#aaff00" stroke-width="2"/>
</g>
<g>
	<polygon points="333,195 337,203 328,202" fill="#aaff00"/>
	<line x1="329" y1="262" x2="333" y2="202" stroke="#aaff00" stroke-width="2"/>
</g>
<g>
	<polygon points="391,266 390,275 383,269" fill="#aaff00"/>
	<line x1="366" y1="295" x2="387" y2="271" stroke="#aaff00" stroke-width="2"/>
</g>
<g>
	<polygon points="70,156 78,160 71,165" fill="#aaff00"/>
	<line x1="167" y1="285" x2="75" y2="162" stroke="#aaff00" stroke-width="2"/>
</g>
<g>
	<polygon points="9,128 18,127 14,135" fill="#aaff00"/>
	<line x1="68" y1="153" x2="15" y2="131" stroke="#aaff00" stroke-width="2"/>
</g>
<g>
	<polygon points="100,71 101,80 93,76" fill="#aaff00"/>
	<line x1="68" y1="153" x2="97" y2="77" stroke="#aaff00" stroke-width="2"/>
</g>
<g>
	<polygon points="19,64 21,72 12,71" fill="#aaff00"/>
	<line x1="5" y1="127" x2="17" y2="71" stroke="#aaff00" stroke-width="2"/>
</g>
<g>
	<polygon points="18,55 12,49 21,46" fill="#aaff00"/>
	<line x1="5" y1="5" x2="16" y2="48" stroke="#aaff00" stroke-width="2"/>
</g>
<g>
	<polygon points="52,89 48,81 57,81" fill="#aaff00"/>
	<line x1="52" y1="14" x2="52" y2="82" stroke="#aaff00" stroke-width="2"/>
</g>
<g>
	<polygon points="9,5 17,2 16,11" fill="#aaff00"/>
	<line x1="52" y1="14" x2="16" y2="7" stroke="#aaff00" stroke-width="2"/>
</g>
<g>
	<polygon points="97,5 90,11 89,2" fill="#aaff00"/>
	<line x1="52" y1="14" x2="90" y2="7" stroke="#aaff00" stroke-width="2"/>
</g>
<g>
	<polygon points="66,148 60,142 69,139" fill="#aaff00"/>
	<line x1="53" y1="94" x2="65" y2="141" stroke="#aaff00" stroke-width="2"/>
</g>
<g>
	<polygon points="145,5 137,9 137,0" fill="#aaff00"/>
	<line x1="102" y1="5" x2="138" y2="5" stroke="#aaff00" stroke-width="2"/>
</g>
<g>
	<polygon points="147,8 146,17 138,11" fill="#aaff00"/>
	<line x1="102" y1="67" x2="142" y2="14" stroke="#aaff00" stroke-width="2"/>
</g>
<g>
	<polygon points="154,5 162,0 162,9" fill="#aaff00"/>
	<line x1="213" y1="5" x2="161" y2="5" stroke="#aaff00" stroke-width="2"/>
</g>
<g>
	<polygon points="161,55 168,50 169,59" fill="#aaff00"/>
	<line x1="255" y1="48" x2="168" y2="55" stroke="#aaff00" stroke-width="2"/>
</g>
<g>
	<polygon points="216,8 224,10 218,16" fill="#aaff00"/>
	<line x1="255" y1="48" x2="221" y2="13" stroke="#aaff00" stroke-width="2"/>
</g>
<g>
	<polygon points="24,59 32,55 32,64" fill="#aaff00"/>
	<line x1="157" y1="56" x2="31" y2="59" stroke="#aaff00" stroke-width="2"/>
</g>
<g>
	<polygon points="258,51 266,53 260,60" fill="#aaff00"/>
	<line x1="338" y1="138" x2="262" y2="56" stroke="#aaff00" stroke-width="2"/>
</g>
<g>
	<polygon points="130,295 138,290 138,299" fill="#aaff00"/>
	<line x1="254" y1="295" x2="137" y2="295" stroke="#aaff00" stroke-width="2"/>
</g>
<g>
	<polygon points="303,103 310,109 301,112" fill="#aaff00"/>
	<line x1="334" y1="191" x2="305" y2="110" stroke="#aaff00" stroke-width="2"/>
</g>
<g>
	<polygon points="209,274 206,266 215,267" fill="#aaff00"/>
	<line x1="217" y1="237" x2="211" y2="267" stroke="#aaff00" stroke-width="2"/>
</g>

<g fill="#000000">
	<circle cx="230" cy="191" r="4"/>
</g>
<g fill="#000000">
	<circle cx="171" cy="206" r="4"/>
</g>
<g fill="#000000">
	<circle cx="216" cy="236" r="4"/>
</g>
<g fill="#000000">
	<circle cx="231" cy="142" r="4"/>
</g>
<g fill="#000000">
	<circle cx="278" cy="197" r="4"/>
</g>
<g fill="#000000">
	<circle cx="275" cy="246" r="4"/>
</g>
<g fill="#000000">
	<circle cx="130" cy="171" r="4"/>
</g>
<g fill="#000000">
	<circle cx="177" cy="153" r="4"/>
</g>
<g fill="#000000">
	<circle cx="116" cy="217" r="4"/>
</g>
<g fill="#000000">
	<circle cx="121" cy="123" r="4"/>
</g>
<g fill="#000000">
	<circle cx="55" cy="221" r="4"/>
</g>
<g fill="#000000">
	<circle cx="208" cy="278" r="4"/>
</g>
<g fill="#000000">
	<circle cx="67" cy="152" r="4"/>
</g>
<g fill="#000000">
	<circle cx="4" cy="126" r="4"/>
</g>
<g fill="#000000">
	<circle cx="101" cy="66" r="4"/>
</g>
<g fill="#000000">
	<circle cx="149" cy="4" r="4"/>
</g>
<g fill="#000000">
	<circle cx="19" cy="59" r="4"/>
</g>
<g fill="#000000">
	<circle cx="301" cy="98" r="4"/>
</g>
<g fill="#000000">
	<circle cx="279" cy="141" r="4"/>
</g>
<g fill="#000000">
	<circle cx="367" cy="70" r="4"/>
</g>
<g fill="#000000">
	<circle cx="212" cy="94" r="4"/>
</g>
<g fill="#000000">
	<circle cx="328" cy="261" r="4"/>
</g>
<g fill="#000000">
	<circle cx="365" cy="294" r="4"/>
</g>
<g fill="#000000">
	<circle cx="166" cy="284" r="4"/>
</g>
<g fill="#000000">
	<circle cx="337" cy="137" r="4"/>
</g>
<g fill="#000000">
	<circle cx="253" cy="294" r="4"/>
</g>
<g fill="#000000">
	<circle cx="394" cy="194" r="4"/>
</g>
<g fill="#000000">
	<circle cx="333" cy="190" r="4"/>
</g>
<g fill="#000000">
	<circle cx="51" cy="13" r="4"/>
</g>
<g fill="#000000">
	<circle cx="52" cy="93" r="4"/>
</g>
<g fill="#000000">
	<circle cx="4" cy="4" r="4"/>
</g>
<g fill="#000000">
	<circle cx="101" cy="4" r="4"/>
</g>
<g fill="#000000">
	<circle cx="394" cy="123" r="4"/>
</g>
<g fill="#000000">
	<circle cx="254" cy="47" r="4"/>
</g>
<g fill="#000000">
	<circle cx="156" cy="55" r="4"/>
</g>
<g fill="#000000">
	<circle cx="212" cy="4" r="4"/>
</g>
<g fill="#000000">
	<circle cx="394" cy="262" r="4"/>
</g>
<g fill="#000000">
	<circle cx="125" cy="294" r="4"/>
</g>

</g>

</svg>
