<?xml version="1.0" encoding="utf-8"?>
<!-- Created with Hypercube (http://tumic.wz.cz/hypercube) -->

<svg width="400" height="300" viewBox="0 0 400 300" xmlns="http://www.w3.org/2000/svg" baseProfile="tiny">

<g font-family="Helvetica" font-weight="normal">

<g>
	<polygon points="188,84 179,82 186,76" fill="#aaff00"/>
	<line x1="153" y1="52" x2="183" y2="80" stroke="#aaff00" stroke-width="2"/>
</g>
<g>
	<polygon points="192,8 190,17 183,11" fill="#aaff00"/>
	<line x1="153" y1="52" x2="187" y2="13" stroke="#aaff00" stroke-width="2"/>
</g>
<g>
	<polygon points="98,60 105,54 106,63" fill="#aaff00"/>
	<line x1="153" y1="52" x2="105" y2="59" stroke="#aaff00" stroke-width="2"/>
</g>
<g>
	<polygon points="82,7 91,7 86,15" fill="#aaff00"/>
	<line x1="153" y1="52" x2="88" y2="11" stroke="#aaff00" stroke-width="2"/>
</g>
<g>
	<polygon points="139,9 146,15 137,18" fill="#aaff00"/>
	<line x1="153" y1="52" x2="141" y2="16" stroke="#aaff00" stroke-width="2"/>
</g>
<g>
	<polygon points="157,51 164,46 165,54" fill="#aaff00"/>
	<line x1="250" y1="40" x2="164" y2="50" stroke="#aaff00" stroke-width="2"/>
</g>
<g>
	<polygon points="332,57 324,59 325,51" fill="#aaff00"/>
	<line x1="250" y1="40" x2="325" y2="55" stroke="#aaff00" stroke-width="2"/>
</g>
<g>
	<polygon points="320,9 327,15 318,18" fill="#aaff00"/>
	<line x1="337" y1="58" x2="322" y2="16" stroke="#aaff00" stroke-width="2"/>
</g>
<g>
	<polygon points="384,8 382,16 376,10" fill="#aaff00"/>
	<line x1="337" y1="58" x2="379" y2="13" stroke="#aaff00" stroke-width="2"/>
</g>
<g>
	<polygon points="307,89 309,80 315,87" fill="#aaff00"/>
	<line x1="337" y1="58" x2="312" y2="84" stroke="#aaff00" stroke-width="2"/>
</g>
<g>
	<polygon points="390,58 382,63 382,54" fill="#aaff00"/>
	<line x1="337" y1="58" x2="383" y2="58" stroke="#aaff00" stroke-width="2"/>
</g>
<g>
	<polygon points="339,156 335,148 344,148" fill="#aaff00"/>
	<line x1="337" y1="58" x2="339" y2="149" stroke="#aaff00" stroke-width="2"/>
</g>
<g>
	<polygon points="390,177 381,179 384,170" fill="#aaff00"/>
	<line x1="340" y1="161" x2="383" y2="175" stroke="#aaff00" stroke-width="2"/>
</g>
<g>
	<polygon points="391,125 387,133 382,126" fill="#aaff00"/>
	<line x1="340" y1="161" x2="385" y2="129" stroke="#aaff00" stroke-width="2"/>
</g>
<g>
	<polygon points="310,188 312,180 319,186" fill="#aaff00"/>
	<line x1="340" y1="161" x2="315" y2="183" stroke="#aaff00" stroke-width="2"/>
</g>
<g>
	<polygon points="253,218 257,210 262,217" fill="#aaff00"/>
	<line x1="340" y1="161" x2="259" y2="214" stroke="#aaff00" stroke-width="2"/>
</g>
<g>
	<polygon points="348,242 343,235 352,234" fill="#aaff00"/>
	<line x1="340" y1="161" x2="347" y2="235" stroke="#aaff00" stroke-width="2"/>
</g>
<g>
	<polygon points="243,290 239,282 248,283" fill="#aaff00"/>
	<line x1="250" y1="221" x2="244" y2="283" stroke="#aaff00" stroke-width="2"/>
</g>
<g>
	<polygon points="247,166 252,174 243,174" fill="#aaff00"/>
	<line x1="250" y1="221" x2="247" y2="173" stroke="#aaff00" stroke-width="2"/>
</g>
<g>
	<polygon points="201,197 210,197 206,205" fill="#aaff00"/>
	<line x1="250" y1="221" x2="207" y2="200" stroke="#aaff00" stroke-width="2"/>
</g>
<g>
	<polygon points="198,261 201,252 207,259" fill="#aaff00"/>
	<line x1="250" y1="221" x2="204" y2="256" stroke="#aaff00" stroke-width="2"/>
</g>
<g>
	<polygon points="302,282 306,273 311,281" fill="#aaff00"/>
	<line x1="349" y1="247" x2="308" y2="277" stroke="#aaff00" stroke-width="2"/>
</g>
<g>
	<polygon points="391,291 383,289 389,283" fill="#aaff00"/>
	<line x1="349" y1="247" x2="386" y2="286" stroke="#aaff00" stroke-width="2"/>
</g>
<g>
	<polygon points="346,290 342,282 351,283" fill="#aaff00"/>
	<line x1="349" y1="247" x2="346" y2="283" stroke="#aaff00" stroke-width="2"/>
</g>
<g>
	<polygon points="390,237 384,243 381,234" fill="#aaff00"/>
	<line x1="349" y1="247" x2="383" y2="238" stroke="#aaff00" stroke-width="2"/>
</g>
<g>
	<polygon points="150,56 151,65 143,60" fill="#aaff00"/>
	<line x1="118" y1="122" x2="147" y2="62" stroke="#aaff00" stroke-width="2"/>
</g>
<g>
	<polygon points="55,202 56,193 64,199" fill="#aaff00"/>
	<line x1="118" y1="122" x2="60" y2="196" stroke="#aaff00" stroke-width="2"/>
</g>
<g>
	<polygon points="9,106 17,111 8,115" fill="#aaff00"/>
	<line x1="53" y1="206" x2="12" y2="112" stroke="#aaff00" stroke-width="2"/>
</g>
<g>
	<polygon points="107,238 98,238 102,230" fill="#aaff00"/>
	<line x1="53" y1="206" x2="100" y2="234" stroke="#aaff00" stroke-width="2"/>
</g>
<g>
	<polygon points="60,153 63,161 54,160" fill="#aaff00"/>
	<line x1="53" y1="206" x2="59" y2="160" stroke="#aaff00" stroke-width="2"/>
</g>
<g>
	<polygon points="8,244 11,235 17,242" fill="#aaff00"/>
	<line x1="53" y1="206" x2="13" y2="239" stroke="#aaff00" stroke-width="2"/>
</g>
<g>
	<polygon points="54,258 50,250 59,250" fill="#aaff00"/>
	<line x1="53" y1="206" x2="54" y2="251" stroke="#aaff00" stroke-width="2"/>
</g>
<g>
	<polygon points="97,291 90,286 98,282" fill="#aaff00"/>
	<line x1="53" y1="206" x2="94" y2="284" stroke="#aaff00" stroke-width="2"/>
</g>
<g>
	<polygon points="8,157 16,159 10,166" fill="#aaff00"/>
	<line x1="53" y1="206" x2="12" y2="162" stroke="#aaff00" stroke-width="2"/>
</g>
<g>
	<polygon points="7,291 6,282 14,286" fill="#aaff00"/>
	<line x1="53" y1="206" x2="10" y2="284" stroke="#aaff00" stroke-width="2"/>
</g>
<g>
	<polygon points="9,200 17,197 16,205" fill="#aaff00"/>
	<line x1="53" y1="206" x2="16" y2="201" stroke="#aaff00" stroke-width="2"/>
</g>
<g>
	<polygon points="103,190 97,196 94,188" fill="#aaff00"/>
	<line x1="53" y1="206" x2="96" y2="192" stroke="#aaff00" stroke-width="2"/>
</g>

<g fill="#000000">
	<circle cx="152" cy="51" r="4"/>
</g>
<g fill="#000000">
	<circle cx="191" cy="87" r="4"/>
</g>
<g fill="#000000">
	<circle cx="194" cy="4" r="4"/>
</g>
<g fill="#000000">
	<circle cx="93" cy="60" r="4"/>
</g>
<g fill="#000000">
	<circle cx="78" cy="4" r="4"/>
</g>
<g fill="#000000">
	<circle cx="137" cy="4" r="4"/>
</g>
<g fill="#000000">
	<circle cx="52" cy="205" r="4"/>
</g>
<g fill="#000000">
	<circle cx="7" cy="101" r="4"/>
</g>
<g fill="#000000">
	<circle cx="110" cy="240" r="4"/>
</g>
<g fill="#000000">
	<circle cx="60" cy="148" r="4"/>
</g>
<g fill="#000000">
	<circle cx="4" cy="246" r="4"/>
</g>
<g fill="#000000">
	<circle cx="54" cy="262" r="4"/>
</g>
<g fill="#000000">
	<circle cx="99" cy="294" r="4"/>
</g>
<g fill="#000000">
	<circle cx="4" cy="153" r="4"/>
</g>
<g fill="#000000">
	<circle cx="4" cy="294" r="4"/>
</g>
<g fill="#000000">
	<circle cx="4" cy="199" r="4"/>
</g>
<g fill="#000000">
	<circle cx="107" cy="188" r="4"/>
</g>
<g fill="#000000">
	<circle cx="336" cy="57" r="4"/>
</g>
<g fill="#000000">
	<circle cx="318" cy="4" r="4"/>
</g>
<g fill="#000000">
	<circle cx="387" cy="4" r="4"/>
</g>
<g fill="#000000">
	<circle cx="303" cy="92" r="4"/>
</g>
<g fill="#000000">
	<circle cx="394" cy="58" r="4"/>
</g>
<g fill="#000000">
	<circle cx="339" cy="160" r="4"/>
</g>
<g fill="#000000">
	<circle cx="394" cy="178" r="4"/>
</g>
<g fill="#000000">
	<circle cx="394" cy="122" r="4"/>
</g>
<g fill="#000000">
	<circle cx="306" cy="191" r="4"/>
</g>
<g fill="#000000">
	<circle cx="249" cy="220" r="4"/>
</g>
<g fill="#000000">
	<circle cx="348" cy="246" r="4"/>
</g>
<g fill="#000000">
	<circle cx="242" cy="294" r="4"/>
</g>
<g fill="#000000">
	<circle cx="246" cy="161" r="4"/>
</g>
<g fill="#000000">
	<circle cx="196" cy="195" r="4"/>
</g>
<g fill="#000000">
	<circle cx="194" cy="263" r="4"/>
</g>
<g fill="#000000">
	<circle cx="298" cy="284" r="4"/>
</g>
<g fill="#000000">
	<circle cx="394" cy="294" r="4"/>
</g>
<g fill="#000000">
	<circle cx="345" cy="294" r="4"/>
</g>
<g fill="#000000">
	<circle cx="394" cy="235" r="4"/>
</g>
<g fill="#000000">
	<circle cx="249" cy="39" r="4"/>
</g>
<g fill="#000000">
	<circle cx="117" cy="121" r="4"/>
</g>

</g>

</svg>
