<?xml version="1.0" encoding="utf-8"?>
<!-- Created with Hypercube (http://tumic.wz.cz/hypercube) -->

<svg width="400" height="300" viewBox="0 0 400 300" xmlns="http://www.w3.org/2000/svg" baseProfile="tiny">

<g font-family="Helvetica" font-weight="normal">

<g>
	<polygon points="247,277 250,268 256,275" fill="#aaff00"/>
	<line x1="312" y1="224" x2="253" y2="272" stroke="#aaff00" stroke-width="2"/>
</g>
<g>
	<polygon points="389,240 381,242 382,234" fill="#aaff00"/>
	<line x1="312" y1="224" x2="382" y2="238" stroke="#aaff00" stroke-width="2"/>
</g>
<g>
	<polygon points="338,263 330,259 337,254" fill="#aaff00"/>
	<line x1="312" y1="224" x2="334" y2="257" stroke="#aaff00" stroke-width="2"/>
</g>
<g>
	<polygon points="334,185 334,194 326,190" fill="#aaff00"/>
	<line x1="312" y1="224" x2="331" y2="192" stroke="#aaff00" stroke-width="2"/>
</g>
<g>
	<polygon points="303,290 300,282 309,283" fill="#aaff00"/>
	<line x1="312" y1="224" x2="304" y2="283" stroke="#aaff00" stroke-width="2"/>
</g>
<g>
	<polygon points="248,229 255,224 256,233" fill="#aaff00"/>
	<line x1="312" y1="224" x2="255" y2="228" stroke="#aaff00" stroke-width="2"/>
</g>
<g>
	<polygon points="160,252 169,250 166,259" fill="#aaff00"/>
	<line x1="244" y1="280" x2="167" y2="254" stroke="#aaff00" stroke-width="2"/>
</g>
<g>
	<polygon points="239,231 233,237 230,228" fill="#aaff00"/>
	<line x1="156" y1="251" x2="232" y2="232" stroke="#aaff00" stroke-width="2"/>
</g>
<g>
	<polygon points="186,291 178,287 185,282" fill="#aaff00"/>
	<line x1="156" y1="251" x2="181" y2="285" stroke="#aaff00" stroke-width="2"/>
</g>
<g>
	<polygon points="133,291 133,282 140,286" fill="#aaff00"/>
	<line x1="156" y1="251" x2="136" y2="284" stroke="#aaff00" stroke-width="2"/>
</g>
<g>
	<polygon points="103,255 110,250 111,259" fill="#aaff00"/>
	<line x1="156" y1="251" x2="110" y2="254" stroke="#aaff00" stroke-width="2"/>
</g>
<g>
	<polygon points="151,249 142,249 146,241" fill="#aaff00"/>
	<line x1="59" y1="206" x2="145" y2="246" stroke="#aaff00" stroke-width="2"/>
</g>
<g>
	<polygon points="63,54 66,63 57,60" fill="#aaff00"/>
	<line x1="41" y1="141" x2="62" y2="61" stroke="#aaff00" stroke-width="2"/>
</g>
<g>
	<polygon points="96,142 88,147 88,138" fill="#aaff00"/>
	<line x1="41" y1="141" x2="89" y2="142" stroke="#aaff00" stroke-width="2"/>
</g>
<g>
	<polygon points="57,201 51,195 60,192" fill="#aaff00"/>
	<line x1="41" y1="141" x2="55" y2="194" stroke="#aaff00" stroke-width="2"/>
</g>
<g>
	<polygon points="184,95 175,96 179,88" fill="#aaff00"/>
	<line x1="65" y1="50" x2="178" y2="92" stroke="#aaff00" stroke-width="2"/>
</g>
<g>
	<polygon points="216,67 214,76 208,69" fill="#aaff00"/>
	<line x1="189" y1="97" x2="211" y2="72" stroke="#aaff00" stroke-width="2"/>
</g>
<g>
	<polygon points="195,142 189,135 198,134" fill="#aaff00"/>
	<line x1="189" y1="97" x2="194" y2="135" stroke="#aaff00" stroke-width="2"/>
</g>
<g>
	<polygon points="202,189 196,182 205,181" fill="#aaff00"/>
	<line x1="189" y1="97" x2="201" y2="182" stroke="#aaff00" stroke-width="2"/>
</g>
<g>
	<polygon points="238,98 231,93 238,89" fill="#aaff00"/>
	<line x1="220" y1="64" x2="235" y2="91" stroke="#aaff00" stroke-width="2"/>
</g>
<g>
	<polygon points="283,149 274,146 281,140" fill="#aaff00"/>
	<line x1="241" y1="102" x2="278" y2="144" stroke="#aaff00" stroke-width="2"/>
</g>
<g>
	<polygon points="310,219 303,214 311,210" fill="#aaff00"/>
	<line x1="286" y1="153" x2="307" y2="213" stroke="#aaff00" stroke-width="2"/>
</g>
<g>
	<polygon points="236,103 230,109 227,101" fill="#aaff00"/>
	<line x1="101" y1="143" x2="229" y2="105" stroke="#aaff00" stroke-width="2"/>
</g>
<g>
	<polygon points="236,101 228,105 229,96" fill="#aaff00"/>
	<line x1="144" y1="95" x2="229" y2="101" stroke="#aaff00" stroke-width="2"/>
</g>
<g>
	<polygon points="57,98 62,91 66,99" fill="#aaff00"/>
	<line x1="98" y1="81" x2="63" y2="95" stroke="#aaff00" stroke-width="2"/>
</g>
<g>
	<polygon points="139,93 130,95 133,87" fill="#aaff00"/>
	<line x1="98" y1="81" x2="132" y2="91" stroke="#aaff00" stroke-width="2"/>
</g>
<g>
	<polygon points="42,136 40,127 48,130" fill="#aaff00"/>
	<line x1="53" y1="100" x2="44" y2="129" stroke="#aaff00" stroke-width="2"/>
</g>
<g>
	<polygon points="241,97 237,89 246,90" fill="#aaff00"/>
	<line x1="250" y1="12" x2="242" y2="90" stroke="#aaff00" stroke-width="2"/>
</g>
<g>
	<polygon points="252,15 259,20 252,24" fill="#aaff00"/>
	<line x1="271" y1="50" x2="255" y2="22" stroke="#aaff00" stroke-width="2"/>
</g>
<g>
	<polygon points="243,98 243,89 251,93" fill="#aaff00"/>
	<line x1="297" y1="9" x2="247" y2="91" stroke="#aaff00" stroke-width="2"/>
</g>
<g>
	<polygon points="173,34 175,25 182,31" fill="#aaff00"/>
	<line x1="199" y1="5" x2="178" y2="29" stroke="#aaff00" stroke-width="2"/>
</g>
<g>
	<polygon points="292,8 284,12 284,4" fill="#aaff00"/>
	<line x1="199" y1="5" x2="285" y2="8" stroke="#aaff00" stroke-width="2"/>
</g>
<g>
	<polygon points="133,17 140,11 141,20" fill="#aaff00"/>
	<line x1="199" y1="5" x2="140" y2="15" stroke="#aaff00" stroke-width="2"/>
</g>
<g>
	<polygon points="187,92 181,86 189,83" fill="#aaff00"/>
	<line x1="171" y1="38" x2="185" y2="85" stroke="#aaff00" stroke-width="2"/>
</g>
<g>
	<polygon points="148,140 142,133 151,132" fill="#aaff00"/>
	<line x1="129" y1="18" x2="147" y2="133" stroke="#aaff00" stroke-width="2"/>
</g>
<g>
	<polygon points="137,199 135,191 143,192" fill="#aaff00"/>
	<line x1="149" y1="145" x2="139" y2="192" stroke="#aaff00" stroke-width="2"/>
</g>
<g>
	<polygon points="154,246 147,241 155,237" fill="#aaff00"/>
	<line x1="137" y1="204" x2="151" y2="240" stroke="#aaff00" stroke-width="2"/>
</g>
<g>
	<polygon points="153,145 161,141 161,150" fill="#aaff00"/>
	<line x1="196" y1="147" x2="160" y2="145" stroke="#aaff00" stroke-width="2"/>
</g>
<g>
	<polygon points="158,247 160,238 167,244" fill="#aaff00"/>
	<line x1="203" y1="194" x2="163" y2="241" stroke="#aaff00" stroke-width="2"/>
</g>
<g>
	<polygon points="151,252 146,260 142,252" fill="#aaff00"/>
	<line x1="61" y1="295" x2="145" y2="255" stroke="#aaff00" stroke-width="2"/>
</g>
<g>
	<polygon points="56,295 48,299 48,290" fill="#aaff00"/>
	<line x1="5" y1="295" x2="49" y2="295" stroke="#aaff00" stroke-width="2"/>
</g>
<g>
	<polygon points="314,220 314,211 322,216" fill="#aaff00"/>
	<line x1="371" y1="132" x2="318" y2="214" stroke="#aaff00" stroke-width="2"/>
</g>
<g>
	<polygon points="372,127 371,118 380,122" fill="#aaff00"/>
	<line x1="395" y1="77" x2="375" y2="121" stroke="#aaff00" stroke-width="2"/>
</g>
<g>
	<polygon points="394,196 399,204 390,204" fill="#aaff00"/>
	<line x1="394" y1="241" x2="394" y2="203" stroke="#aaff00" stroke-width="2"/>
</g>
<g>
	<polygon points="394,289 390,281 399,281" fill="#aaff00"/>
	<line x1="394" y1="241" x2="394" y2="282" stroke="#aaff00" stroke-width="2"/>
</g>

<g fill="#000000">
	<circle cx="311" cy="223" r="4"/>
</g>
<g fill="#000000">
	<circle cx="243" cy="279" r="4"/>
</g>
<g fill="#000000">
	<circle cx="393" cy="240" r="4"/>
</g>
<g fill="#000000">
	<circle cx="340" cy="266" r="4"/>
</g>
<g fill="#000000">
	<circle cx="336" cy="181" r="4"/>
</g>
<g fill="#000000">
	<circle cx="302" cy="294" r="4"/>
</g>
<g fill="#000000">
	<circle cx="155" cy="250" r="4"/>
</g>
<g fill="#000000">
	<circle cx="243" cy="229" r="4"/>
</g>
<g fill="#000000">
	<circle cx="188" cy="294" r="4"/>
</g>
<g fill="#000000">
	<circle cx="130" cy="294" r="4"/>
</g>
<g fill="#000000">
	<circle cx="98" cy="255" r="4"/>
</g>
<g fill="#000000">
	<circle cx="40" cy="140" r="4"/>
</g>
<g fill="#000000">
	<circle cx="64" cy="49" r="4"/>
</g>
<g fill="#000000">
	<circle cx="100" cy="142" r="4"/>
</g>
<g fill="#000000">
	<circle cx="58" cy="205" r="4"/>
</g>
<g fill="#000000">
	<circle cx="97" cy="80" r="4"/>
</g>
<g fill="#000000">
	<circle cx="52" cy="99" r="4"/>
</g>
<g fill="#000000">
	<circle cx="143" cy="94" r="4"/>
</g>
<g fill="#000000">
	<circle cx="270" cy="49" r="4"/>
</g>
<g fill="#000000">
	<circle cx="249" cy="11" r="4"/>
</g>
<g fill="#000000">
	<circle cx="4" cy="294" r="4"/>
</g>
<g fill="#000000">
	<circle cx="60" cy="294" r="4"/>
</g>
<g fill="#000000">
	<circle cx="394" cy="76" r="4"/>
</g>
<g fill="#000000">
	<circle cx="370" cy="131" r="4"/>
</g>
<g fill="#000000">
	<circle cx="394" cy="191" r="4"/>
</g>
<g fill="#000000">
	<circle cx="394" cy="293" r="4"/>
</g>
<g fill="#000000">
	<circle cx="198" cy="4" r="4"/>
</g>
<g fill="#000000">
	<circle cx="170" cy="37" r="4"/>
</g>
<g fill="#000000">
	<circle cx="296" cy="8" r="4"/>
</g>
<g fill="#000000">
	<circle cx="128" cy="17" r="4"/>
</g>
<g fill="#000000">
	<circle cx="148" cy="144" r="4"/>
</g>
<g fill="#000000">
	<circle cx="136" cy="203" r="4"/>
</g>
<g fill="#000000">
	<circle cx="240" cy="101" r="4"/>
</g>
<g fill="#000000">
	<circle cx="285" cy="152" r="4"/>
</g>
<g fill="#000000">
	<circle cx="188" cy="96" r="4"/>
</g>
<g fill="#000000">
	<circle cx="219" cy="63" r="4"/>
</g>
<g fill="#000000">
	<circle cx="195" cy="146" r="4"/>
</g>
<g fill="#000000">
	<circle cx="202" cy="193" r="4"/>
</g>

</g>

</svg>
