<?xml version="1.0" encoding="utf-8"?>
<!-- Created with Hypercube (http://tumic.wz.cz/hypercube) -->

<svg width="400" height="300" viewBox="0 0 400 300" xmlns="http://www.w3.org/2000/svg" baseProfile="tiny">

<g font-family="Helvetica" font-weight="normal">

<g>
	<polygon points="192,264 201,265 196,272" fill="#aaff00"/>
	<line x1="233" y1="295" x2="198" y2="269" stroke="#aaff00" stroke-width="2"/>
</g>
<g>
	<polygon points="278,255 275,264 269,257" fill="#aaff00"/>
	<line x1="233" y1="295" x2="273" y2="260" stroke="#aaff00" stroke-width="2"/>
</g>
<g>
	<polygon points="147,216 155,219 149,225" fill="#aaff00"/>
	<line x1="189" y1="262" x2="151" y2="221" stroke="#aaff00" stroke-width="2"/>
</g>
<g>
	<polygon points="133,290 130,282 139,283" fill="#aaff00"/>
	<line x1="144" y1="213" x2="134" y2="283" stroke="#aaff00" stroke-width="2"/>
</g>
<g>
	<polygon points="97,120 104,124 96,129" fill="#aaff00"/>
	<line x1="144" y1="213" x2="100" y2="126" stroke="#aaff00" stroke-width="2"/>
</g>
<g>
	<polygon points="79,295 87,290 87,299" fill="#aaff00"/>
	<line x1="133" y1="295" x2="86" y2="295" stroke="#aaff00" stroke-width="2"/>
</g>
<g>
	<polygon points="97,257 97,266 89,262" fill="#aaff00"/>
	<line x1="75" y1="295" x2="93" y2="263" stroke="#aaff00" stroke-width="2"/>
</g>
<g>
	<polygon points="53,234 60,240 51,243" fill="#aaff00"/>
	<line x1="75" y1="295" x2="55" y2="241" stroke="#aaff00" stroke-width="2"/>
</g>
<g>
	<polygon points="71,186 72,195 63,191" fill="#aaff00"/>
	<line x1="52" y1="230" x2="68" y2="192" stroke="#aaff00" stroke-width="2"/>
</g>
<g>
	<polygon points="8,203 17,203 13,211" fill="#aaff00"/>
	<line x1="52" y1="230" x2="14" y2="207" stroke="#aaff00" stroke-width="2"/>
</g>
<g>
	<polygon points="5,246 0,238 9,238" fill="#aaff00"/>
	<line x1="5" y1="201" x2="5" y2="239" stroke="#aaff00" stroke-width="2"/>
</g>
<g>
	<polygon points="5,153 9,161 0,161" fill="#aaff00"/>
	<line x1="5" y1="201" x2="5" y2="160" stroke="#aaff00" stroke-width="2"/>
</g>
<g>
	<polygon points="5,290 0,282 9,282" fill="#aaff00"/>
	<line x1="5" y1="251" x2="5" y2="283" stroke="#aaff00" stroke-width="2"/>
</g>
<g>
	<polygon points="39,93 48,92 44,100" fill="#aaff00"/>
	<line x1="95" y1="116" x2="45" y2="96" stroke="#aaff00" stroke-width="2"/>
</g>
<g>
	<polygon points="84,53 90,60 81,61" fill="#aaff00"/>
	<line x1="95" y1="116" x2="85" y2="60" stroke="#aaff00" stroke-width="2"/>
</g>
<g>
	<polygon points="43,9 51,11 45,17" fill="#aaff00"/>
	<line x1="84" y1="49" x2="48" y2="14" stroke="#aaff00" stroke-width="2"/>
</g>
<g>
	<polygon points="138,49 130,54 130,45" fill="#aaff00"/>
	<line x1="84" y1="49" x2="131" y2="49" stroke="#aaff00" stroke-width="2"/>
</g>
<g>
	<polygon points="199,57 191,60 192,51" fill="#aaff00"/>
	<line x1="143" y1="50" x2="192" y2="56" stroke="#aaff00" stroke-width="2"/>
</g>
<g>
	<polygon points="156,9 158,18 149,15" fill="#aaff00"/>
	<line x1="143" y1="50" x2="154" y2="16" stroke="#aaff00" stroke-width="2"/>
</g>
<g>
	<polygon points="265,56 257,60 257,51" fill="#aaff00"/>
	<line x1="204" y1="58" x2="258" y2="56" stroke="#aaff00" stroke-width="2"/>
</g>
<g>
	<polygon points="250,9 257,14 249,18" fill="#aaff00"/>
	<line x1="270" y1="56" x2="253" y2="15" stroke="#aaff00" stroke-width="2"/>
</g>
<g>
	<polygon points="332,86 323,86 327,78" fill="#aaff00"/>
	<line x1="270" y1="56" x2="326" y2="82" stroke="#aaff00" stroke-width="2"/>
</g>
<g>
	<polygon points="390,88 382,93 382,84" fill="#aaff00"/>
	<line x1="337" y1="88" x2="383" y2="88" stroke="#aaff00" stroke-width="2"/>
</g>
<g>
	<polygon points="350,140 344,134 353,131" fill="#aaff00"/>
	<line x1="337" y1="88" x2="349" y2="133" stroke="#aaff00" stroke-width="2"/>
</g>
<g>
	<polygon points="272,152 279,147 280,156" fill="#aaff00"/>
	<line x1="352" y1="145" x2="279" y2="151" stroke="#aaff00" stroke-width="2"/>
</g>
<g>
	<polygon points="390,162 381,163 385,154" fill="#aaff00"/>
	<line x1="352" y1="145" x2="384" y2="159" stroke="#aaff00" stroke-width="2"/>
</g>
<g>
	<polygon points="221,136 230,134 227,143" fill="#aaff00"/>
	<line x1="268" y1="153" x2="228" y2="138" stroke="#aaff00" stroke-width="2"/>
</g>
<g>
	<polygon points="290,197 283,193 291,189" fill="#aaff00"/>
	<line x1="268" y1="153" x2="287" y2="191" stroke="#aaff00" stroke-width="2"/>
</g>
<g>
	<polygon points="238,209 245,203 246,212" fill="#aaff00"/>
	<line x1="293" y1="202" x2="245" y2="208" stroke="#aaff00" stroke-width="2"/>
</g>
<g>
	<polygon points="350,247 341,245 347,238" fill="#aaff00"/>
	<line x1="293" y1="202" x2="344" y2="242" stroke="#aaff00" stroke-width="2"/>
</g>
<g>
	<polygon points="390,291 381,288 388,282" fill="#aaff00"/>
	<line x1="354" y1="250" x2="385" y2="286" stroke="#aaff00" stroke-width="2"/>
</g>
<g>
	<polygon points="391,230 386,237 382,229" fill="#aaff00"/>
	<line x1="354" y1="250" x2="384" y2="233" stroke="#aaff00" stroke-width="2"/>
</g>
<g>
	<polygon points="307,138 309,146 300,145" fill="#aaff00"/>
	<line x1="282" y1="253" x2="305" y2="145" stroke="#aaff00" stroke-width="2"/>
</g>
<g>
	<polygon points="303,291 295,286 303,282" fill="#aaff00"/>
	<line x1="282" y1="253" x2="300" y2="284" stroke="#aaff00" stroke-width="2"/>
</g>
<g>
	<polygon points="352,43 352,52 344,48" fill="#aaff00"/>
	<line x1="308" y1="134" x2="348" y2="49" stroke="#aaff00" stroke-width="2"/>
</g>
<g>
	<polygon points="324,8 332,10 326,16" fill="#aaff00"/>
	<line x1="354" y1="39" x2="329" y2="13" stroke="#aaff00" stroke-width="2"/>
</g>
<g>
	<polygon points="391,7 388,16 382,9" fill="#aaff00"/>
	<line x1="354" y1="39" x2="386" y2="12" stroke="#aaff00" stroke-width="2"/>
</g>

<g fill="#000000">
	<circle cx="232" cy="294" r="4"/>
</g>
<g fill="#000000">
	<circle cx="188" cy="261" r="4"/>
</g>
<g fill="#000000">
	<circle cx="281" cy="252" r="4"/>
</g>
<g fill="#000000">
	<circle cx="143" cy="212" r="4"/>
</g>
<g fill="#000000">
	<circle cx="132" cy="294" r="4"/>
</g>
<g fill="#000000">
	<circle cx="94" cy="115" r="4"/>
</g>
<g fill="#000000">
	<circle cx="74" cy="294" r="4"/>
</g>
<g fill="#000000">
	<circle cx="99" cy="253" r="4"/>
</g>
<g fill="#000000">
	<circle cx="51" cy="229" r="4"/>
</g>
<g fill="#000000">
	<circle cx="72" cy="181" r="4"/>
</g>
<g fill="#000000">
	<circle cx="4" cy="200" r="4"/>
</g>
<g fill="#000000">
	<circle cx="4" cy="250" r="4"/>
</g>
<g fill="#000000">
	<circle cx="4" cy="148" r="4"/>
</g>
<g fill="#000000">
	<circle cx="4" cy="294" r="4"/>
</g>
<g fill="#000000">
	<circle cx="34" cy="91" r="4"/>
</g>
<g fill="#000000">
	<circle cx="83" cy="48" r="4"/>
</g>
<g fill="#000000">
	<circle cx="39" cy="5" r="4"/>
</g>
<g fill="#000000">
	<circle cx="142" cy="49" r="4"/>
</g>
<g fill="#000000">
	<circle cx="203" cy="57" r="4"/>
</g>
<g fill="#000000">
	<circle cx="157" cy="4" r="4"/>
</g>
<g fill="#000000">
	<circle cx="269" cy="55" r="4"/>
</g>
<g fill="#000000">
	<circle cx="248" cy="4" r="4"/>
</g>
<g fill="#000000">
	<circle cx="336" cy="87" r="4"/>
</g>
<g fill="#000000">
	<circle cx="394" cy="88" r="4"/>
</g>
<g fill="#000000">
	<circle cx="351" cy="144" r="4"/>
</g>
<g fill="#000000">
	<circle cx="267" cy="152" r="4"/>
</g>
<g fill="#000000">
	<circle cx="394" cy="163" r="4"/>
</g>
<g fill="#000000">
	<circle cx="216" cy="134" r="4"/>
</g>
<g fill="#000000">
	<circle cx="292" cy="201" r="4"/>
</g>
<g fill="#000000">
	<circle cx="233" cy="209" r="4"/>
</g>
<g fill="#000000">
	<circle cx="353" cy="249" r="4"/>
</g>
<g fill="#000000">
	<circle cx="392" cy="294" r="4"/>
</g>
<g fill="#000000">
	<circle cx="394" cy="227" r="4"/>
</g>
<g fill="#000000">
	<circle cx="307" cy="133" r="4"/>
</g>
<g fill="#000000">
	<circle cx="305" cy="294" r="4"/>
</g>
<g fill="#000000">
	<circle cx="353" cy="38" r="4"/>
</g>
<g fill="#000000">
	<circle cx="320" cy="4" r="4"/>
</g>
<g fill="#000000">
	<circle cx="394" cy="4" r="4"/>
</g>

</g>

</svg>
