<?xml version="1.0" encoding="utf-8"?>
<!-- Created with Hypercube (http://tumic.wz.cz/hypercube) -->

<svg width="400" height="300" viewBox="0 0 400 300" xmlns="http://www.w3.org/2000/svg" baseProfile="tiny">

<g font-family="Helvetica" font-weight="normal">

<g>
	<polygon points="228,67 235,72 227,76" fill="#aaff00"/>
	<line x1="275" y1="158" x2="231" y2="74" stroke="#aaff00" stroke-width="2"/>
</g>
<g>
	<polygon points="331,160 323,164 323,155" fill="#aaff00"/>
	<line x1="275" y1="158" x2="324" y2="160" stroke="#aaff00" stroke-width="2"/>
</g>
<g>
	<polygon points="346,54 345,63 338,58" fill="#aaff00"/>
	<line x1="275" y1="158" x2="342" y2="60" stroke="#aaff00" stroke-width="2"/>
</g>
<g>
	<polygon points="337,208 328,206 334,199" fill="#aaff00"/>
	<line x1="275" y1="158" x2="331" y2="203" stroke="#aaff00" stroke-width="2"/>
</g>
<g>
	<polygon points="342,113 338,121 333,114" fill="#aaff00"/>
	<line x1="275" y1="158" x2="336" y2="117" stroke="#aaff00" stroke-width="2"/>
</g>
<g>
	<polygon points="285,65 289,73 280,72" fill="#aaff00"/>
	<line x1="275" y1="158" x2="284" y2="72" stroke="#aaff00" stroke-width="2"/>
</g>
<g>
	<polygon points="242,229 241,220 250,224" fill="#aaff00"/>
	<line x1="275" y1="158" x2="245" y2="223" stroke="#aaff00" stroke-width="2"/>
</g>
<g>
	<polygon points="218,178 224,171 227,180" fill="#aaff00"/>
	<line x1="275" y1="158" x2="224" y2="176" stroke="#aaff00" stroke-width="2"/>
</g>
<g>
	<polygon points="301,241 294,235 303,232" fill="#aaff00"/>
	<line x1="275" y1="158" x2="299" y2="234" stroke="#aaff00" stroke-width="2"/>
</g>
<g>
	<polygon points="167,241 170,232 176,240" fill="#aaff00"/>
	<line x1="275" y1="158" x2="173" y2="236" stroke="#aaff00" stroke-width="2"/>
</g>
<g>
	<polygon points="281,118 284,126 275,125" fill="#aaff00"/>
	<line x1="275" y1="158" x2="280" y2="125" stroke="#aaff00" stroke-width="2"/>
</g>
<g>
	<polygon points="206,9 213,15 204,18" fill="#aaff00"/>
	<line x1="226" y1="64" x2="208" y2="16" stroke="#aaff00" stroke-width="2"/>
</g>
<g>
	<polygon points="390,165 382,169 383,160" fill="#aaff00"/>
	<line x1="336" y1="161" x2="383" y2="165" stroke="#aaff00" stroke-width="2"/>
</g>
<g>
	<polygon points="388,10 386,18 380,12" fill="#aaff00"/>
	<line x1="349" y1="51" x2="383" y2="15" stroke="#aaff00" stroke-width="2"/>
</g>
<g>
	<polygon points="390,228 381,230 384,221" fill="#aaff00"/>
	<line x1="341" y1="211" x2="383" y2="226" stroke="#aaff00" stroke-width="2"/>
</g>
<g>
	<polygon points="390,90 385,98 381,89" fill="#aaff00"/>
	<line x1="346" y1="111" x2="384" y2="93" stroke="#aaff00" stroke-width="2"/>
</g>
<g>
	<polygon points="293,9 296,17 287,16" fill="#aaff00"/>
	<line x1="286" y1="61" x2="292" y2="16" stroke="#aaff00" stroke-width="2"/>
</g>
<g>
	<polygon points="221,288 219,279 228,282" fill="#aaff00"/>
	<line x1="241" y1="234" x2="223" y2="281" stroke="#aaff00" stroke-width="2"/>
</g>
<g>
	<polygon points="160,180 168,175 168,184" fill="#aaff00"/>
	<line x1="214" y1="180" x2="167" y2="180" stroke="#aaff00" stroke-width="2"/>
</g>
<g>
	<polygon points="342,291 333,288 340,282" fill="#aaff00"/>
	<line x1="303" y1="246" x2="337" y2="286" stroke="#aaff00" stroke-width="2"/>
</g>
<g>
	<polygon points="285,290 284,281 292,285" fill="#aaff00"/>
	<line x1="303" y1="246" x2="288" y2="284" stroke="#aaff00" stroke-width="2"/>
</g>
<g>
	<polygon points="390,295 382,299 382,290" fill="#aaff00"/>
	<line x1="345" y1="295" x2="383" y2="295" stroke="#aaff00" stroke-width="2"/>
</g>
<g>
	<polygon points="90,280 94,273 99,281" fill="#aaff00"/>
	<line x1="164" y1="244" x2="96" y2="277" stroke="#aaff00" stroke-width="2"/>
</g>
<g>
	<polygon points="147,290 145,281 154,284" fill="#aaff00"/>
	<line x1="164" y1="244" x2="149" y2="283" stroke="#aaff00" stroke-width="2"/>
</g>
<g>
	<polygon points="31,294 38,288 39,296" fill="#aaff00"/>
	<line x1="86" y1="283" x2="38" y2="292" stroke="#aaff00" stroke-width="2"/>
</g>
<g>
	<polygon points="271,155 262,155 266,147" fill="#aaff00"/>
	<line x1="214" y1="123" x2="264" y2="152" stroke="#aaff00" stroke-width="2"/>
</g>
<g>
	<polygon points="167,101 176,100 172,109" fill="#aaff00"/>
	<line x1="214" y1="123" x2="173" y2="104" stroke="#aaff00" stroke-width="2"/>
</g>
<g>
	<polygon points="100,27 99,36 92,31" fill="#aaff00"/>
	<line x1="59" y1="86" x2="96" y2="33" stroke="#aaff00" stroke-width="2"/>
</g>
<g>
	<polygon points="9,107 14,100 18,108" fill="#aaff00"/>
	<line x1="59" y1="86" x2="15" y2="104" stroke="#aaff00" stroke-width="2"/>
</g>
<g>
	<polygon points="8,55 17,55 13,63" fill="#aaff00"/>
	<line x1="59" y1="86" x2="14" y2="59" stroke="#aaff00" stroke-width="2"/>
</g>
<g>
	<polygon points="108,90 100,94 101,85" fill="#aaff00"/>
	<line x1="59" y1="86" x2="101" y2="89" stroke="#aaff00" stroke-width="2"/>
</g>
<g>
	<polygon points="69,7 78,6 73,14" fill="#aaff00"/>
	<line x1="103" y1="24" x2="75" y2="10" stroke="#aaff00" stroke-width="2"/>
</g>
<g>
	<polygon points="5,151 0,143 9,143" fill="#aaff00"/>
	<line x1="5" y1="109" x2="5" y2="144" stroke="#aaff00" stroke-width="2"/>
</g>
<g>
	<polygon points="5,9 9,17 0,17" fill="#aaff00"/>
	<line x1="5" y1="53" x2="5" y2="16" stroke="#aaff00" stroke-width="2"/>
</g>
<g>
	<polygon points="59,90 64,98 55,98" fill="#aaff00"/>
	<line x1="62" y1="154" x2="59" y2="97" stroke="#aaff00" stroke-width="2"/>
</g>
<g>
	<polygon points="35,206 34,197 42,201" fill="#aaff00"/>
	<line x1="62" y1="154" x2="38" y2="199" stroke="#aaff00" stroke-width="2"/>
</g>
<g>
	<polygon points="117,91 125,88 124,97" fill="#aaff00"/>
	<line x1="163" y1="100" x2="124" y2="93" stroke="#aaff00" stroke-width="2"/>
</g>

<g fill="#000000">
	<circle cx="274" cy="157" r="4"/>
</g>
<g fill="#000000">
	<circle cx="213" cy="122" r="4"/>
</g>
<g fill="#000000">
	<circle cx="162" cy="99" r="4"/>
</g>
<g fill="#000000">
	<circle cx="225" cy="63" r="4"/>
</g>
<g fill="#000000">
	<circle cx="335" cy="160" r="4"/>
</g>
<g fill="#000000">
	<circle cx="348" cy="50" r="4"/>
</g>
<g fill="#000000">
	<circle cx="340" cy="210" r="4"/>
</g>
<g fill="#000000">
	<circle cx="345" cy="110" r="4"/>
</g>
<g fill="#000000">
	<circle cx="285" cy="60" r="4"/>
</g>
<g fill="#000000">
	<circle cx="240" cy="233" r="4"/>
</g>
<g fill="#000000">
	<circle cx="213" cy="179" r="4"/>
</g>
<g fill="#000000">
	<circle cx="302" cy="245" r="4"/>
</g>
<g fill="#000000">
	<circle cx="163" cy="243" r="4"/>
</g>
<g fill="#000000">
	<circle cx="281" cy="113" r="4"/>
</g>
<g fill="#000000">
	<circle cx="204" cy="4" r="4"/>
</g>
<g fill="#000000">
	<circle cx="394" cy="165" r="4"/>
</g>
<g fill="#000000">
	<circle cx="391" cy="6" r="4"/>
</g>
<g fill="#000000">
	<circle cx="394" cy="229" r="4"/>
</g>
<g fill="#000000">
	<circle cx="394" cy="88" r="4"/>
</g>
<g fill="#000000">
	<circle cx="293" cy="4" r="4"/>
</g>
<g fill="#000000">
	<circle cx="219" cy="292" r="4"/>
</g>
<g fill="#000000">
	<circle cx="155" cy="179" r="4"/>
</g>
<g fill="#000000">
	<circle cx="344" cy="294" r="4"/>
</g>
<g fill="#000000">
	<circle cx="283" cy="294" r="4"/>
</g>
<g fill="#000000">
	<circle cx="394" cy="294" r="4"/>
</g>
<g fill="#000000">
	<circle cx="85" cy="282" r="4"/>
</g>
<g fill="#000000">
	<circle cx="145" cy="294" r="4"/>
</g>
<g fill="#000000">
	<circle cx="26" cy="294" r="4"/>
</g>
<g fill="#000000">
	<circle cx="58" cy="85" r="4"/>
</g>
<g fill="#000000">
	<circle cx="102" cy="23" r="4"/>
</g>
<g fill="#000000">
	<circle cx="4" cy="108" r="4"/>
</g>
<g fill="#000000">
	<circle cx="4" cy="52" r="4"/>
</g>
<g fill="#000000">
	<circle cx="112" cy="90" r="4"/>
</g>
<g fill="#000000">
	<circle cx="64" cy="4" r="4"/>
</g>
<g fill="#000000">
	<circle cx="61" cy="153" r="4"/>
</g>
<g fill="#000000">
	<circle cx="32" cy="209" r="4"/>
</g>
<g fill="#000000">
	<circle cx="4" cy="155" r="4"/>
</g>
<g fill="#000000">
	<circle cx="4" cy="4" r="4"/>
</g>

</g>

</svg>
