<?xml version="1.0" encoding="utf-8"?>
<!-- Created with Hypercube (http://tumic.wz.cz/hypercube) -->

<svg width="400" height="300" viewBox="0 0 400 300" xmlns="http://www.w3.org/2000/svg" baseProfile="tiny">

<g font-family="Helvetica" font-weight="normal">

<g>
	<polygon points="114,10 122,5 122,14" fill="#aaff00"/>
	<line x1="219" y1="5" x2="121" y2="10" stroke="#aaff00" stroke-width="2"/>
</g>
<g>
	<polygon points="69,100 68,91 77,95" fill="#aaff00"/>
	<line x1="110" y1="11" x2="72" y2="94" stroke="#aaff00" stroke-width="2"/>
</g>
<g>
	<polygon points="68,109 74,116 65,117" fill="#aaff00"/>
	<line x1="93" y1="295" x2="69" y2="116" stroke="#aaff00" stroke-width="2"/>
</g>
<g>
	<polygon points="97,292 101,285 106,293" fill="#aaff00"/>
	<line x1="322" y1="179" x2="103" y2="289" stroke="#aaff00" stroke-width="2"/>
</g>
<g>
	<polygon points="288,61 294,67 286,70" fill="#aaff00"/>
	<line x1="322" y1="179" x2="290" y2="68" stroke="#aaff00" stroke-width="2"/>
</g>
<g>
	<polygon points="370,254 362,250 370,245" fill="#aaff00"/>
	<line x1="322" y1="179" x2="366" y2="248" stroke="#aaff00" stroke-width="2"/>
</g>
<g>
	<polygon points="368,200 359,201 363,192" fill="#aaff00"/>
	<line x1="322" y1="179" x2="362" y2="197" stroke="#aaff00" stroke-width="2"/>
</g>
<g>
	<polygon points="322,236 317,228 326,228" fill="#aaff00"/>
	<line x1="322" y1="179" x2="322" y2="229" stroke="#aaff00" stroke-width="2"/>
</g>
<g>
	<polygon points="222,7 231,8 226,16" fill="#aaff00"/>
	<line x1="287" y1="57" x2="228" y2="12" stroke="#aaff00" stroke-width="2"/>
</g>
<g>
	<polygon points="318,176 309,176 313,168" fill="#aaff00"/>
	<line x1="273" y1="149" x2="312" y2="172" stroke="#aaff00" stroke-width="2"/>
</g>
<g>
	<polygon points="155,41 164,43 158,50" fill="#aaff00"/>
	<line x1="233" y1="104" x2="161" y2="46" stroke="#aaff00" stroke-width="2"/>
</g>
<g>
	<polygon points="138,82 146,80 145,89" fill="#aaff00"/>
	<line x1="233" y1="104" x2="145" y2="84" stroke="#aaff00" stroke-width="2"/>
</g>
<g>
	<polygon points="263,196 256,190 265,187" fill="#aaff00"/>
	<line x1="233" y1="104" x2="261" y2="189" stroke="#aaff00" stroke-width="2"/>
</g>
<g>
	<polygon points="291,104 283,108 283,99" fill="#aaff00"/>
	<line x1="233" y1="104" x2="284" y2="104" stroke="#aaff00" stroke-width="2"/>
</g>
<g>
	<polygon points="243,44 246,52 237,51" fill="#aaff00"/>
	<line x1="233" y1="104" x2="242" y2="51" stroke="#aaff00" stroke-width="2"/>
</g>
<g>
	<polygon points="270,145 261,142 268,136" fill="#aaff00"/>
	<line x1="233" y1="104" x2="265" y2="140" stroke="#aaff00" stroke-width="2"/>
</g>
<g>
	<polygon points="71,102 74,93 80,100" fill="#aaff00"/>
	<line x1="152" y1="39" x2="77" y2="97" stroke="#aaff00" stroke-width="2"/>
</g>
<g>
	<polygon points="96,165 95,156 104,160" fill="#aaff00"/>
	<line x1="134" y1="82" x2="99" y2="159" stroke="#aaff00" stroke-width="2"/>
</g>
<g>
	<polygon points="117,214 110,210 118,206" fill="#aaff00"/>
	<line x1="95" y1="170" x2="114" y2="208" stroke="#aaff00" stroke-width="2"/>
</g>
<g>
	<polygon points="122,179 113,181 116,172" fill="#aaff00"/>
	<line x1="95" y1="170" x2="115" y2="177" stroke="#aaff00" stroke-width="2"/>
</g>
<g>
	<polygon points="32,144 41,143 37,151" fill="#aaff00"/>
	<line x1="95" y1="170" x2="38" y2="147" stroke="#aaff00" stroke-width="2"/>
</g>
<g>
	<polygon points="139,258 132,254 140,249" fill="#aaff00"/>
	<line x1="95" y1="170" x2="136" y2="252" stroke="#aaff00" stroke-width="2"/>
</g>
<g>
	<polygon points="115,125 116,134 107,130" fill="#aaff00"/>
	<line x1="95" y1="170" x2="112" y2="131" stroke="#aaff00" stroke-width="2"/>
</g>
<g>
	<polygon points="85,228 82,220 91,221" fill="#aaff00"/>
	<line x1="95" y1="170" x2="86" y2="221" stroke="#aaff00" stroke-width="2"/>
</g>
<g>
	<polygon points="139,147 135,154 131,146" fill="#aaff00"/>
	<line x1="95" y1="170" x2="133" y2="150" stroke="#aaff00" stroke-width="2"/>
</g>
<g>
	<polygon points="180,126 176,133 172,125" fill="#aaff00"/>
	<line x1="95" y1="170" x2="174" y2="129" stroke="#aaff00" stroke-width="2"/>
</g>
<g>
	<polygon points="166,169 158,173 158,164" fill="#aaff00"/>
	<line x1="95" y1="170" x2="159" y2="169" stroke="#aaff00" stroke-width="2"/>
</g>
<g>
	<polygon points="156,202 147,203 151,195" fill="#aaff00"/>
	<line x1="95" y1="170" x2="149" y2="199" stroke="#aaff00" stroke-width="2"/>
</g>
<g>
	<polygon points="193,193 187,200 184,191" fill="#aaff00"/>
	<line x1="120" y1="219" x2="186" y2="195" stroke="#aaff00" stroke-width="2"/>
</g>
<g>
	<polygon points="198,72 203,80 194,80" fill="#aaff00"/>
	<line x1="198" y1="192" x2="198" y2="79" stroke="#aaff00" stroke-width="2"/>
</g>
<g>
	<polygon points="193,239 189,231 198,232" fill="#aaff00"/>
	<line x1="198" y1="192" x2="194" y2="232" stroke="#aaff00" stroke-width="2"/>
</g>
<g>
	<polygon points="217,9 219,18 210,15" fill="#aaff00"/>
	<line x1="199" y1="68" x2="215" y2="16" stroke="#aaff00" stroke-width="2"/>
</g>
<g>
	<polygon points="193,191 185,194 186,185" fill="#aaff00"/>
	<line x1="127" y1="181" x2="186" y2="190" stroke="#aaff00" stroke-width="2"/>
</g>
<g>
	<polygon points="195,195 193,204 186,198" fill="#aaff00"/>
	<line x1="142" y1="263" x2="190" y2="201" stroke="#aaff00" stroke-width="2"/>
</g>
<g>
	<polygon points="194,189 185,187 191,180" fill="#aaff00"/>
	<line x1="117" y1="121" x2="189" y2="184" stroke="#aaff00" stroke-width="2"/>
</g>
<g>
	<polygon points="193,193 187,200 184,191" fill="#aaff00"/>
	<line x1="85" y1="233" x2="187" y2="195" stroke="#aaff00" stroke-width="2"/>
</g>
<g>
	<polygon points="194,189 185,187 191,180" fill="#aaff00"/>
	<line x1="144" y1="145" x2="189" y2="184" stroke="#aaff00" stroke-width="2"/>
</g>
<g>
	<polygon points="197,187 191,180 200,179" fill="#aaff00"/>
	<line x1="185" y1="124" x2="195" y2="180" stroke="#aaff00" stroke-width="2"/>
</g>
<g>
	<polygon points="194,189 185,187 191,180" fill="#aaff00"/>
	<line x1="171" y1="169" x2="189" y2="184" stroke="#aaff00" stroke-width="2"/>
</g>
<g>
	<polygon points="193,193 187,200 184,191" fill="#aaff00"/>
	<line x1="160" y1="205" x2="186" y2="195" stroke="#aaff00" stroke-width="2"/>
</g>
<g>
	<polygon points="201,195 209,197 203,204" fill="#aaff00"/>
	<line x1="250" y1="247" x2="206" y2="200" stroke="#aaff00" stroke-width="2"/>
</g>
<g>
	<polygon points="252,251 259,255 251,260" fill="#aaff00"/>
	<line x1="272" y1="291" x2="255" y2="257" stroke="#aaff00" stroke-width="2"/>
</g>
<g>
	<polygon points="222,293 230,288 230,297" fill="#aaff00"/>
	<line x1="272" y1="291" x2="229" y2="293" stroke="#aaff00" stroke-width="2"/>
</g>
<g>
	<polygon points="198,196 204,203 195,204" fill="#aaff00"/>
	<line x1="218" y1="294" x2="200" y2="203" stroke="#aaff00" stroke-width="2"/>
</g>
<g>
	<polygon points="271,286 266,279 275,278" fill="#aaff00"/>
	<line x1="265" y1="201" x2="271" y2="279" stroke="#aaff00" stroke-width="2"/>
</g>
<g>
	<polygon points="64,108 62,116 55,110" fill="#aaff00"/>
	<line x1="28" y1="143" x2="59" y2="113" stroke="#aaff00" stroke-width="2"/>
</g>
<g>
	<polygon points="367,60 362,68 358,60" fill="#aaff00"/>
	<line x1="296" y1="104" x2="361" y2="64" stroke="#aaff00" stroke-width="2"/>
</g>
<g>
	<polygon points="372,142 368,134 377,134" fill="#aaff00"/>
	<line x1="371" y1="58" x2="372" y2="135" stroke="#aaff00" stroke-width="2"/>
</g>
<g>
	<polygon points="316,8 325,9 319,16" fill="#aaff00"/>
	<line x1="371" y1="58" x2="321" y2="12" stroke="#aaff00" stroke-width="2"/>
</g>
<g>
	<polygon points="371,100 367,92 376,92" fill="#aaff00"/>
	<line x1="371" y1="58" x2="371" y2="93" stroke="#aaff00" stroke-width="2"/>
</g>
<g>
	<polygon points="339,84 342,75 348,82" fill="#aaff00"/>
	<line x1="371" y1="58" x2="345" y2="79" stroke="#aaff00" stroke-width="2"/>
</g>
<g>
	<polygon points="325,176 330,168 334,176" fill="#aaff00"/>
	<line x1="373" y1="147" x2="331" y2="172" stroke="#aaff00" stroke-width="2"/>
</g>
<g>
	<polygon points="223,5 231,0 231,9" fill="#aaff00"/>
	<line x1="313" y1="5" x2="230" y2="5" stroke="#aaff00" stroke-width="2"/>
</g>
<g>
	<polygon points="324,175 325,166 332,171" fill="#aaff00"/>
	<line x1="372" y1="105" x2="328" y2="169" stroke="#aaff00" stroke-width="2"/>
</g>
<g>
	<polygon points="322,174 319,166 328,167" fill="#aaff00"/>
	<line x1="336" y1="87" x2="323" y2="167" stroke="#aaff00" stroke-width="2"/>
</g>
<g>
	<polygon points="221,8 229,12 222,17" fill="#aaff00"/>
	<line x1="244" y1="40" x2="225" y2="14" stroke="#aaff00" stroke-width="2"/>
</g>

<g fill="#000000">
	<circle cx="218" cy="4" r="4"/>
</g>
<g fill="#000000">
	<circle cx="109" cy="10" r="4"/>
</g>
<g fill="#000000">
	<circle cx="321" cy="178" r="4"/>
</g>
<g fill="#000000">
	<circle cx="92" cy="294" r="4"/>
</g>
<g fill="#000000">
	<circle cx="286" cy="56" r="4"/>
</g>
<g fill="#000000">
	<circle cx="372" cy="257" r="4"/>
</g>
<g fill="#000000">
	<circle cx="372" cy="201" r="4"/>
</g>
<g fill="#000000">
	<circle cx="321" cy="240" r="4"/>
</g>
<g fill="#000000">
	<circle cx="67" cy="104" r="4"/>
</g>
<g fill="#000000">
	<circle cx="94" cy="169" r="4"/>
</g>
<g fill="#000000">
	<circle cx="119" cy="218" r="4"/>
</g>
<g fill="#000000">
	<circle cx="126" cy="180" r="4"/>
</g>
<g fill="#000000">
	<circle cx="27" cy="142" r="4"/>
</g>
<g fill="#000000">
	<circle cx="141" cy="262" r="4"/>
</g>
<g fill="#000000">
	<circle cx="116" cy="120" r="4"/>
</g>
<g fill="#000000">
	<circle cx="84" cy="232" r="4"/>
</g>
<g fill="#000000">
	<circle cx="143" cy="144" r="4"/>
</g>
<g fill="#000000">
	<circle cx="184" cy="123" r="4"/>
</g>
<g fill="#000000">
	<circle cx="170" cy="168" r="4"/>
</g>
<g fill="#000000">
	<circle cx="159" cy="204" r="4"/>
</g>
<g fill="#000000">
	<circle cx="197" cy="191" r="4"/>
</g>
<g fill="#000000">
	<circle cx="198" cy="67" r="4"/>
</g>
<g fill="#000000">
	<circle cx="192" cy="243" r="4"/>
</g>
<g fill="#000000">
	<circle cx="271" cy="290" r="4"/>
</g>
<g fill="#000000">
	<circle cx="249" cy="246" r="4"/>
</g>
<g fill="#000000">
	<circle cx="217" cy="293" r="4"/>
</g>
<g fill="#000000">
	<circle cx="232" cy="103" r="4"/>
</g>
<g fill="#000000">
	<circle cx="151" cy="38" r="4"/>
</g>
<g fill="#000000">
	<circle cx="133" cy="81" r="4"/>
</g>
<g fill="#000000">
	<circle cx="264" cy="200" r="4"/>
</g>
<g fill="#000000">
	<circle cx="295" cy="103" r="4"/>
</g>
<g fill="#000000">
	<circle cx="243" cy="39" r="4"/>
</g>
<g fill="#000000">
	<circle cx="272" cy="148" r="4"/>
</g>
<g fill="#000000">
	<circle cx="370" cy="57" r="4"/>
</g>
<g fill="#000000">
	<circle cx="372" cy="146" r="4"/>
</g>
<g fill="#000000">
	<circle cx="312" cy="4" r="4"/>
</g>
<g fill="#000000">
	<circle cx="371" cy="104" r="4"/>
</g>
<g fill="#000000">
	<circle cx="335" cy="86" r="4"/>
</g>

</g>

</svg>
