<?xml version="1.0" encoding="utf-8"?>
<!-- Created with Hypercube (http://tumic.wz.cz/hypercube) -->

<svg width="400" height="300" viewBox="0 0 400 300" xmlns="http://www.w3.org/2000/svg" baseProfile="tiny">

<g font-family="Helvetica" font-weight="normal">

<g>
	<polygon points="54,295 46,299 46,290" fill="#aaff00"/>
	<line x1="5" y1="295" x2="47" y2="295" stroke="#aaff00" stroke-width="2"/>
</g>
<g>
	<polygon points="111,295 103,299 103,290" fill="#aaff00"/>
	<line x1="59" y1="295" x2="104" y2="295" stroke="#aaff00" stroke-width="2"/>
</g>
<g>
	<polygon points="191,237 187,246 182,238" fill="#aaff00"/>
	<line x1="116" y1="295" x2="185" y2="242" stroke="#aaff00" stroke-width="2"/>
</g>
<g>
	<polygon points="223,196 222,205 215,200" fill="#aaff00"/>
	<line x1="195" y1="235" x2="219" y2="202" stroke="#aaff00" stroke-width="2"/>
</g>
<g>
	<polygon points="253,228 246,233 245,224" fill="#aaff00"/>
	<line x1="195" y1="235" x2="246" y2="229" stroke="#aaff00" stroke-width="2"/>
</g>
<g>
	<polygon points="254,224 246,221 253,215" fill="#aaff00"/>
	<line x1="226" y1="193" x2="250" y2="219" stroke="#aaff00" stroke-width="2"/>
</g>
<g>
	<polygon points="311,230 303,234 303,225" fill="#aaff00"/>
	<line x1="258" y1="228" x2="304" y2="230" stroke="#aaff00" stroke-width="2"/>
</g>
<g>
	<polygon points="278,268 270,263 278,259" fill="#aaff00"/>
	<line x1="258" y1="228" x2="274" y2="262" stroke="#aaff00" stroke-width="2"/>
</g>
<g>
	<polygon points="282,269 284,260 291,266" fill="#aaff00"/>
	<line x1="316" y1="231" x2="287" y2="264" stroke="#aaff00" stroke-width="2"/>
</g>
<g>
	<polygon points="315,292 306,292 310,285" fill="#aaff00"/>
	<line x1="280" y1="273" x2="308" y2="289" stroke="#aaff00" stroke-width="2"/>
</g>
<g>
	<polygon points="237,293 242,285 246,293" fill="#aaff00"/>
	<line x1="280" y1="273" x2="243" y2="290" stroke="#aaff00" stroke-width="2"/>
</g>
<g>
	<polygon points="237,295 245,290 245,299" fill="#aaff00"/>
	<line x1="319" y1="295" x2="244" y2="295" stroke="#aaff00" stroke-width="2"/>
</g>
<g>
	<polygon points="185,295 193,290 193,299" fill="#aaff00"/>
	<line x1="233" y1="295" x2="192" y2="295" stroke="#aaff00" stroke-width="2"/>
</g>
<g>
	<polygon points="149,254 158,254 154,262" fill="#aaff00"/>
	<line x1="233" y1="295" x2="155" y2="258" stroke="#aaff00" stroke-width="2"/>
</g>
<g>
	<polygon points="147,256 156,259 149,265" fill="#aaff00"/>
	<line x1="181" y1="295" x2="152" y2="261" stroke="#aaff00" stroke-width="2"/>
</g>
<g>
	<polygon points="102,230 111,229 107,237" fill="#aaff00"/>
	<line x1="145" y1="253" x2="109" y2="233" stroke="#aaff00" stroke-width="2"/>
</g>
<g>
	<polygon points="69,194 78,195 72,203" fill="#aaff00"/>
	<line x1="145" y1="253" x2="75" y2="199" stroke="#aaff00" stroke-width="2"/>
</g>
<g>
	<polygon points="69,195 77,198 70,204" fill="#aaff00"/>
	<line x1="99" y1="228" x2="73" y2="200" stroke="#aaff00" stroke-width="2"/>
</g>
<g>
	<polygon points="9,174 18,172 15,180" fill="#aaff00"/>
	<line x1="66" y1="192" x2="16" y2="176" stroke="#aaff00" stroke-width="2"/>
</g>
<g>
	<polygon points="35,130 43,135 35,139" fill="#aaff00"/>
	<line x1="66" y1="192" x2="39" y2="136" stroke="#aaff00" stroke-width="2"/>
</g>
<g>
	<polygon points="31,129 31,138 23,134" fill="#aaff00"/>
	<line x1="5" y1="173" x2="27" y2="135" stroke="#aaff00" stroke-width="2"/>
</g>
<g>
	<polygon points="7,84 15,88 7,93" fill="#aaff00"/>
	<line x1="34" y1="126" x2="11" y2="90" stroke="#aaff00" stroke-width="2"/>
</g>
<g>
	<polygon points="44,56 47,64 38,63" fill="#aaff00"/>
	<line x1="34" y1="126" x2="43" y2="63" stroke="#aaff00" stroke-width="2"/>
</g>
<g>
	<polygon points="41,54 37,62 32,55" fill="#aaff00"/>
	<line x1="5" y1="81" x2="35" y2="58" stroke="#aaff00" stroke-width="2"/>
</g>
<g>
	<polygon points="33,9 39,15 30,18" fill="#aaff00"/>
	<line x1="45" y1="52" x2="35" y2="16" stroke="#aaff00" stroke-width="2"/>
</g>
<g>
	<polygon points="87,8 85,16 79,10" fill="#aaff00"/>
	<line x1="45" y1="52" x2="82" y2="13" stroke="#aaff00" stroke-width="2"/>
</g>
<g>
	<polygon points="86,5 78,9 78,0" fill="#aaff00"/>
	<line x1="32" y1="5" x2="79" y2="5" stroke="#aaff00" stroke-width="2"/>
</g>
<g>
	<polygon points="133,5 125,9 125,0" fill="#aaff00"/>
	<line x1="91" y1="5" x2="126" y2="5" stroke="#aaff00" stroke-width="2"/>
</g>
<g>
	<polygon points="183,5 175,9 175,0" fill="#aaff00"/>
	<line x1="91" y1="5" x2="176" y2="5" stroke="#aaff00" stroke-width="2"/>
</g>
<g>
	<polygon points="183,5 175,9 175,0" fill="#aaff00"/>
	<line x1="138" y1="5" x2="176" y2="5" stroke="#aaff00" stroke-width="2"/>
</g>
<g>
	<polygon points="231,5 223,9 223,0" fill="#aaff00"/>
	<line x1="188" y1="5" x2="224" y2="5" stroke="#aaff00" stroke-width="2"/>
</g>
<g>
	<polygon points="279,5 271,9 271,0" fill="#aaff00"/>
	<line x1="188" y1="5" x2="272" y2="5" stroke="#aaff00" stroke-width="2"/>
</g>
<g>
	<polygon points="279,5 271,9 271,0" fill="#aaff00"/>
	<line x1="236" y1="5" x2="272" y2="5" stroke="#aaff00" stroke-width="2"/>
</g>
<g>
	<polygon points="328,5 320,9 320,0" fill="#aaff00"/>
	<line x1="284" y1="5" x2="321" y2="5" stroke="#aaff00" stroke-width="2"/>
</g>
<g>
	<polygon points="347,42 338,42 342,34" fill="#aaff00"/>
	<line x1="284" y1="5" x2="340" y2="39" stroke="#aaff00" stroke-width="2"/>
</g>
<g>
	<polygon points="349,40 341,35 350,31" fill="#aaff00"/>
	<line x1="333" y1="5" x2="346" y2="34" stroke="#aaff00" stroke-width="2"/>
</g>
<g>
	<polygon points="390,54 381,57 384,48" fill="#aaff00"/>
	<line x1="351" y1="45" x2="383" y2="53" stroke="#aaff00" stroke-width="2"/>
</g>
<g>
	<polygon points="392,107 384,103 391,98" fill="#aaff00"/>
	<line x1="351" y1="45" x2="388" y2="101" stroke="#aaff00" stroke-width="2"/>
</g>
<g>
	<polygon points="395,106 390,98 399,98" fill="#aaff00"/>
	<line x1="395" y1="56" x2="395" y2="99" stroke="#aaff00" stroke-width="2"/>
</g>
<g>
	<polygon points="395,168 390,160 399,160" fill="#aaff00"/>
	<line x1="395" y1="111" x2="395" y2="161" stroke="#aaff00" stroke-width="2"/>
</g>
<g>
	<polygon points="354,145 357,136 363,143" fill="#aaff00"/>
	<line x1="395" y1="111" x2="359" y2="140" stroke="#aaff00" stroke-width="2"/>
</g>
<g>
	<polygon points="354,150 363,150 359,157" fill="#aaff00"/>
	<line x1="395" y1="173" x2="361" y2="153" stroke="#aaff00" stroke-width="2"/>
</g>
<g>
	<polygon points="331,110 338,115 330,119" fill="#aaff00"/>
	<line x1="351" y1="148" x2="334" y2="117" stroke="#aaff00" stroke-width="2"/>
</g>
<g>
	<polygon points="290,130 299,128 296,136" fill="#aaff00"/>
	<line x1="351" y1="148" x2="297" y2="132" stroke="#aaff00" stroke-width="2"/>
</g>
<g>
	<polygon points="290,126 294,119 298,127" fill="#aaff00"/>
	<line x1="329" y1="107" x2="296" y2="123" stroke="#aaff00" stroke-width="2"/>
</g>
<g>
	<polygon points="267,84 274,89 266,93" fill="#aaff00"/>
	<line x1="286" y1="129" x2="270" y2="90" stroke="#aaff00" stroke-width="2"/>
</g>
<g>
	<polygon points="230,113 239,111 236,119" fill="#aaff00"/>
	<line x1="286" y1="129" x2="237" y2="115" stroke="#aaff00" stroke-width="2"/>
</g>
<g>
	<polygon points="229,109 232,100 238,107" fill="#aaff00"/>
	<line x1="266" y1="80" x2="235" y2="104" stroke="#aaff00" stroke-width="2"/>
</g>
<g>
	<polygon points="178,138 183,131 187,138" fill="#aaff00"/>
	<line x1="226" y1="112" x2="185" y2="135" stroke="#aaff00" stroke-width="2"/>
</g>
<g>
	<polygon points="184,79 193,80 187,88" fill="#aaff00"/>
	<line x1="226" y1="112" x2="190" y2="84" stroke="#aaff00" stroke-width="2"/>
</g>
<g>
	<polygon points="127,135 135,131 134,140" fill="#aaff00"/>
	<line x1="175" y1="141" x2="134" y2="136" stroke="#aaff00" stroke-width="2"/>
</g>
<g>
	<polygon points="128,87 132,95 123,94" fill="#aaff00"/>
	<line x1="123" y1="135" x2="127" y2="94" stroke="#aaff00" stroke-width="2"/>
</g>
<g>
	<polygon points="176,77 169,82 168,73" fill="#aaff00"/>
	<line x1="129" y1="83" x2="169" y2="78" stroke="#aaff00" stroke-width="2"/>
</g>
<g>
	<polygon points="5,290 0,282 9,282" fill="#aaff00"/>
	<line x1="5" y1="249" x2="5" y2="283" stroke="#aaff00" stroke-width="2"/>
</g>

<g fill="#000000">
	<circle cx="4" cy="248" r="4"/>
</g>
<g fill="#000000">
	<circle cx="4" cy="294" r="4"/>
</g>
<g fill="#000000">
	<circle cx="58" cy="294" r="4"/>
</g>
<g fill="#000000">
	<circle cx="115" cy="294" r="4"/>
</g>
<g fill="#000000">
	<circle cx="194" cy="234" r="4"/>
</g>
<g fill="#000000">
	<circle cx="225" cy="192" r="4"/>
</g>
<g fill="#000000">
	<circle cx="257" cy="227" r="4"/>
</g>
<g fill="#000000">
	<circle cx="315" cy="230" r="4"/>
</g>
<g fill="#000000">
	<circle cx="279" cy="272" r="4"/>
</g>
<g fill="#000000">
	<circle cx="318" cy="294" r="4"/>
</g>
<g fill="#000000">
	<circle cx="232" cy="294" r="4"/>
</g>
<g fill="#000000">
	<circle cx="180" cy="294" r="4"/>
</g>
<g fill="#000000">
	<circle cx="144" cy="252" r="4"/>
</g>
<g fill="#000000">
	<circle cx="98" cy="227" r="4"/>
</g>
<g fill="#000000">
	<circle cx="65" cy="191" r="4"/>
</g>
<g fill="#000000">
	<circle cx="4" cy="172" r="4"/>
</g>
<g fill="#000000">
	<circle cx="33" cy="125" r="4"/>
</g>
<g fill="#000000">
	<circle cx="4" cy="80" r="4"/>
</g>
<g fill="#000000">
	<circle cx="44" cy="51" r="4"/>
</g>
<g fill="#000000">
	<circle cx="31" cy="4" r="4"/>
</g>
<g fill="#000000">
	<circle cx="90" cy="4" r="4"/>
</g>
<g fill="#000000">
	<circle cx="137" cy="4" r="4"/>
</g>
<g fill="#000000">
	<circle cx="187" cy="4" r="4"/>
</g>
<g fill="#000000">
	<circle cx="235" cy="4" r="4"/>
</g>
<g fill="#000000">
	<circle cx="283" cy="4" r="4"/>
</g>
<g fill="#000000">
	<circle cx="332" cy="4" r="4"/>
</g>
<g fill="#000000">
	<circle cx="350" cy="44" r="4"/>
</g>
<g fill="#000000">
	<circle cx="394" cy="55" r="4"/>
</g>
<g fill="#000000">
	<circle cx="394" cy="110" r="4"/>
</g>
<g fill="#000000">
	<circle cx="394" cy="172" r="4"/>
</g>
<g fill="#000000">
	<circle cx="350" cy="147" r="4"/>
</g>
<g fill="#000000">
	<circle cx="328" cy="106" r="4"/>
</g>
<g fill="#000000">
	<circle cx="285" cy="128" r="4"/>
</g>
<g fill="#000000">
	<circle cx="265" cy="79" r="4"/>
</g>
<g fill="#000000">
	<circle cx="225" cy="111" r="4"/>
</g>
<g fill="#000000">
	<circle cx="174" cy="140" r="4"/>
</g>
<g fill="#000000">
	<circle cx="180" cy="76" r="4"/>
</g>
<g fill="#000000">
	<circle cx="122" cy="134" r="4"/>
</g>
<g fill="#000000">
	<circle cx="128" cy="82" r="4"/>
</g>

</g>

</svg>
