<?xml version="1.0" encoding="utf-8"?>
<!-- Created with Hypercube (http://tumic.wz.cz/hypercube) -->

<svg width="400" height="300" viewBox="0 0 400 300" xmlns="http://www.w3.org/2000/svg" baseProfile="tiny">

<g font-family="Helvetica" font-weight="normal">

<g>
	<polygon points="191,226 188,218 197,219" fill="#aaff00"/>
	<line x1="205" y1="147" x2="192" y2="219" stroke="#aaff00" stroke-width="2"/>
</g>
<g>
	<polygon points="164,155 171,149 172,158" fill="#aaff00"/>
	<line x1="205" y1="147" x2="171" y2="153" stroke="#aaff00" stroke-width="2"/>
</g>
<g>
	<polygon points="153,244 152,235 160,239" fill="#aaff00"/>
	<line x1="205" y1="147" x2="156" y2="237" stroke="#aaff00" stroke-width="2"/>
</g>
<g>
	<polygon points="118,188 123,180 127,188" fill="#aaff00"/>
	<line x1="205" y1="147" x2="124" y2="185" stroke="#aaff00" stroke-width="2"/>
</g>
<g>
	<polygon points="205,181 201,173 210,173" fill="#aaff00"/>
	<line x1="205" y1="147" x2="205" y2="174" stroke="#aaff00" stroke-width="2"/>
</g>
<g>
	<polygon points="164,191 165,182 172,188" fill="#aaff00"/>
	<line x1="205" y1="147" x2="168" y2="186" stroke="#aaff00" stroke-width="2"/>
</g>
<g>
	<polygon points="184,116 192,120 185,125" fill="#aaff00"/>
	<line x1="205" y1="147" x2="188" y2="122" stroke="#aaff00" stroke-width="2"/>
</g>
<g>
	<polygon points="87,164 94,158 95,167" fill="#aaff00"/>
	<line x1="205" y1="147" x2="94" y2="163" stroke="#aaff00" stroke-width="2"/>
</g>
<g>
	<polygon points="279,243 270,240 278,234" fill="#aaff00"/>
	<line x1="205" y1="147" x2="274" y2="237" stroke="#aaff00" stroke-width="2"/>
</g>
<g>
	<polygon points="255,78 254,87 247,82" fill="#aaff00"/>
	<line x1="205" y1="147" x2="251" y2="84" stroke="#aaff00" stroke-width="2"/>
</g>
<g>
	<polygon points="244,161 235,163 238,154" fill="#aaff00"/>
	<line x1="205" y1="147" x2="238" y2="159" stroke="#aaff00" stroke-width="2"/>
</g>
<g>
	<polygon points="168,74 176,79 168,83" fill="#aaff00"/>
	<line x1="205" y1="147" x2="172" y2="80" stroke="#aaff00" stroke-width="2"/>
</g>
<g>
	<polygon points="148,108 157,109 152,116" fill="#aaff00"/>
	<line x1="205" y1="147" x2="154" y2="112" stroke="#aaff00" stroke-width="2"/>
</g>
<g>
	<polygon points="196,11 201,18 192,19" fill="#aaff00"/>
	<line x1="205" y1="147" x2="196" y2="18" stroke="#aaff00" stroke-width="2"/>
</g>
<g>
	<polygon points="281,42 280,51 273,46" fill="#aaff00"/>
	<line x1="205" y1="147" x2="277" y2="48" stroke="#aaff00" stroke-width="2"/>
</g>
<g>
	<polygon points="155,246 160,239 164,247" fill="#aaff00"/>
	<line x1="191" y1="231" x2="161" y2="243" stroke="#aaff00" stroke-width="2"/>
</g>
<g>
	<polygon points="71,246 79,241 79,250" fill="#aaff00"/>
	<line x1="151" y1="248" x2="78" y2="246" stroke="#aaff00" stroke-width="2"/>
</g>
<g>
	<polygon points="111,193 109,202 102,196" fill="#aaff00"/>
	<line x1="67" y1="246" x2="106" y2="198" stroke="#aaff00" stroke-width="2"/>
</g>
<g>
	<polygon points="83,278 76,274 84,270" fill="#aaff00"/>
	<line x1="67" y1="246" x2="80" y2="272" stroke="#aaff00" stroke-width="2"/>
</g>
<g>
	<polygon points="156,194 148,198 149,189" fill="#aaff00"/>
	<line x1="114" y1="190" x2="149" y2="193" stroke="#aaff00" stroke-width="2"/>
</g>
<g>
	<polygon points="47,199 54,193 55,202" fill="#aaff00"/>
	<line x1="114" y1="190" x2="54" y2="198" stroke="#aaff00" stroke-width="2"/>
</g>
<g>
	<polygon points="117,142 126,145 119,151" fill="#aaff00"/>
	<line x1="161" y1="195" x2="122" y2="148" stroke="#aaff00" stroke-width="2"/>
</g>
<g>
	<polygon points="230,246 221,245 226,238" fill="#aaff00"/>
	<line x1="161" y1="195" x2="224" y2="242" stroke="#aaff00" stroke-width="2"/>
</g>
<g>
	<polygon points="177,114 172,121 168,113" fill="#aaff00"/>
	<line x1="115" y1="139" x2="171" y2="117" stroke="#aaff00" stroke-width="2"/>
</g>
<g>
	<polygon points="86,162 89,153 95,160" fill="#aaff00"/>
	<line x1="115" y1="139" x2="92" y2="157" stroke="#aaff00" stroke-width="2"/>
</g>
<g>
	<polygon points="186,112 193,106 194,114" fill="#aaff00"/>
	<line x1="221" y1="105" x2="193" y2="110" stroke="#aaff00" stroke-width="2"/>
</g>
<g>
	<polygon points="252,9 254,18 245,15" fill="#aaff00"/>
	<line x1="221" y1="105" x2="250" y2="16" stroke="#aaff00" stroke-width="2"/>
</g>
<g>
	<polygon points="318,5 310,9 310,0" fill="#aaff00"/>
	<line x1="254" y1="5" x2="311" y2="5" stroke="#aaff00" stroke-width="2"/>
</g>
<g>
	<polygon points="200,6 208,2 208,11" fill="#aaff00"/>
	<line x1="254" y1="5" x2="207" y2="6" stroke="#aaff00" stroke-width="2"/>
</g>
<g>
	<polygon points="281,35 272,32 279,26" fill="#aaff00"/>
	<line x1="254" y1="5" x2="276" y2="30" stroke="#aaff00" stroke-width="2"/>
</g>
<g>
	<polygon points="287,36 290,27 296,34" fill="#aaff00"/>
	<line x1="323" y1="5" x2="292" y2="31" stroke="#aaff00" stroke-width="2"/>
</g>
<g>
	<polygon points="135,26 141,19 144,28" fill="#aaff00"/>
	<line x1="196" y1="7" x2="142" y2="24" stroke="#aaff00" stroke-width="2"/>
</g>
<g>
	<polygon points="64,122 65,113 72,118" fill="#aaff00"/>
	<line x1="131" y1="28" x2="68" y2="116" stroke="#aaff00" stroke-width="2"/>
</g>
<g>
	<polygon points="253,73 244,74 248,66" fill="#aaff00"/>
	<line x1="131" y1="28" x2="247" y2="70" stroke="#aaff00" stroke-width="2"/>
</g>
<g>
	<polygon points="107,79 105,87 99,81" fill="#aaff00"/>
	<line x1="62" y1="126" x2="102" y2="84" stroke="#aaff00" stroke-width="2"/>
</g>
<g>
	<polygon points="143,290 136,285 144,281" fill="#aaff00"/>
	<line x1="62" y1="126" x2="140" y2="284" stroke="#aaff00" stroke-width="2"/>
</g>
<g>
	<polygon points="261,110 253,113 255,104" fill="#aaff00"/>
	<line x1="111" y1="76" x2="254" y2="109" stroke="#aaff00" stroke-width="2"/>
</g>
<g>
	<polygon points="258,79 264,86 256,87" fill="#aaff00"/>
	<line x1="266" y1="112" x2="260" y2="86" stroke="#aaff00" stroke-width="2"/>
</g>
<g>
	<polygon points="319,198 311,193 319,189" fill="#aaff00"/>
	<line x1="266" y1="112" x2="315" y2="192" stroke="#aaff00" stroke-width="2"/>
</g>
<g>
	<polygon points="261,77 270,78 265,85" fill="#aaff00"/>
	<line x1="358" y1="143" x2="267" y2="81" stroke="#aaff00" stroke-width="2"/>
</g>
<g>
	<polygon points="237,246 242,239 246,247" fill="#aaff00"/>
	<line x1="322" y1="202" x2="244" y2="243" stroke="#aaff00" stroke-width="2"/>
</g>
<g>
	<polygon points="355,146 355,155 347,151" fill="#aaff00"/>
	<line x1="322" y1="202" x2="351" y2="152" stroke="#aaff00" stroke-width="2"/>
</g>
<g>
	<polygon points="257,291 258,282 265,287" fill="#aaff00"/>
	<line x1="322" y1="202" x2="261" y2="285" stroke="#aaff00" stroke-width="2"/>
</g>
<g>
	<polygon points="277,247 269,252 269,243" fill="#aaff00"/>
	<line x1="234" y1="249" x2="270" y2="247" stroke="#aaff00" stroke-width="2"/>
</g>
<g>
	<polygon points="257,291 257,282 264,286" fill="#aaff00"/>
	<line x1="282" y1="247" x2="260" y2="284" stroke="#aaff00" stroke-width="2"/>
</g>
<g>
	<polygon points="150,295 158,290 158,299" fill="#aaff00"/>
	<line x1="255" y1="295" x2="157" y2="295" stroke="#aaff00" stroke-width="2"/>
</g>
<g>
	<polygon points="207,284 215,282 214,290" fill="#aaff00"/>
	<line x1="255" y1="295" x2="214" y2="286" stroke="#aaff00" stroke-width="2"/>
</g>
<g>
	<polygon points="198,284 191,290 190,281" fill="#aaff00"/>
	<line x1="146" y1="295" x2="191" y2="286" stroke="#aaff00" stroke-width="2"/>
</g>
<g>
	<polygon points="47,201 56,201 52,209" fill="#aaff00"/>
	<line x1="116" y1="234" x2="53" y2="204" stroke="#aaff00" stroke-width="2"/>
</g>
<g>
	<polygon points="229,248 221,251 222,242" fill="#aaff00"/>
	<line x1="116" y1="234" x2="222" y2="247" stroke="#aaff00" stroke-width="2"/>
</g>
<g>
	<polygon points="199,281 190,281 194,273" fill="#aaff00"/>
	<line x1="116" y1="234" x2="192" y2="278" stroke="#aaff00" stroke-width="2"/>
</g>
<g>
	<polygon points="64,81 67,89 58,88" fill="#aaff00"/>
	<line x1="43" y1="200" x2="62" y2="88" stroke="#aaff00" stroke-width="2"/>
</g>
<g>
	<polygon points="127,30 123,38 118,31" fill="#aaff00"/>
	<line x1="65" y1="77" x2="121" y2="34" stroke="#aaff00" stroke-width="2"/>
</g>
<g>
	<polygon points="62,121 58,113 67,114" fill="#aaff00"/>
	<line x1="65" y1="77" x2="62" y2="114" stroke="#aaff00" stroke-width="2"/>
</g>
<g>
	<polygon points="69,76 76,71 77,80" fill="#aaff00"/>
	<line x1="167" y1="70" x2="76" y2="76" stroke="#aaff00" stroke-width="2"/>
</g>
<g>
	<polygon points="170,72 179,72 174,80" fill="#aaff00"/>
	<line x1="289" y1="149" x2="176" y2="76" stroke="#aaff00" stroke-width="2"/>
</g>
<g>
	<polygon points="307,122 306,131 299,126" fill="#aaff00"/>
	<line x1="289" y1="149" x2="303" y2="128" stroke="#aaff00" stroke-width="2"/>
</g>
<g>
	<polygon points="205,280 205,271 213,276" fill="#aaff00"/>
	<line x1="310" y1="119" x2="209" y2="274" stroke="#aaff00" stroke-width="2"/>
</g>
<g>
	<polygon points="202,57 211,57 207,65" fill="#aaff00"/>
	<line x1="310" y1="119" x2="209" y2="60" stroke="#aaff00" stroke-width="2"/>
</g>
<g>
	<polygon points="171,68 176,60 180,68" fill="#aaff00"/>
	<line x1="199" y1="55" x2="177" y2="65" stroke="#aaff00" stroke-width="2"/>
</g>
<g>
	<polygon points="148,102 150,94 157,100" fill="#aaff00"/>
	<line x1="199" y1="55" x2="153" y2="97" stroke="#aaff00" stroke-width="2"/>
</g>
<g>
	<polygon points="158,151 152,145 160,142" fill="#aaff00"/>
	<line x1="145" y1="106" x2="156" y2="144" stroke="#aaff00" stroke-width="2"/>
</g>
<g>
	<polygon points="117,187 121,179 126,186" fill="#aaff00"/>
	<line x1="160" y1="156" x2="123" y2="183" stroke="#aaff00" stroke-width="2"/>
</g>
<g>
	<polygon points="202,183 193,183 198,175" fill="#aaff00"/>
	<line x1="160" y1="156" x2="196" y2="179" stroke="#aaff00" stroke-width="2"/>
</g>
<g>
	<polygon points="209,188 218,188 214,196" fill="#aaff00"/>
	<line x1="241" y1="207" x2="216" y2="192" stroke="#aaff00" stroke-width="2"/>
</g>
<g>
	<polygon points="286,152 284,161 277,155" fill="#aaff00"/>
	<line x1="241" y1="207" x2="281" y2="158" stroke="#aaff00" stroke-width="2"/>
</g>
<g>
	<polygon points="248,167 251,175 242,174" fill="#aaff00"/>
	<line x1="241" y1="207" x2="246" y2="174" stroke="#aaff00" stroke-width="2"/>
</g>
<g>
	<polygon points="222,109 230,114 222,118" fill="#aaff00"/>
	<line x1="249" y1="163" x2="226" y2="115" stroke="#aaff00" stroke-width="2"/>
</g>
<g>
	<polygon points="45,203 52,208 44,212" fill="#aaff00"/>
	<line x1="86" y1="283" x2="48" y2="210" stroke="#aaff00" stroke-width="2"/>
</g>
<g>
	<polygon points="236,208 231,216 227,208" fill="#aaff00"/>
	<line x1="86" y1="283" x2="230" y2="212" stroke="#aaff00" stroke-width="2"/>
</g>
<g>
	<polygon points="114,229 106,224 114,220" fill="#aaff00"/>
	<line x1="83" y1="165" x2="110" y2="223" stroke="#aaff00" stroke-width="2"/>
</g>
<g>
	<polygon points="64,129 71,134 63,138" fill="#aaff00"/>
	<line x1="83" y1="165" x2="67" y2="136" stroke="#aaff00" stroke-width="2"/>
</g>

<g fill="#000000">
	<circle cx="204" cy="146" r="4"/>
</g>
<g fill="#000000">
	<circle cx="190" cy="230" r="4"/>
</g>
<g fill="#000000">
	<circle cx="159" cy="155" r="4"/>
</g>
<g fill="#000000">
	<circle cx="150" cy="247" r="4"/>
</g>
<g fill="#000000">
	<circle cx="113" cy="189" r="4"/>
</g>
<g fill="#000000">
	<circle cx="205" cy="185" r="4"/>
</g>
<g fill="#000000">
	<circle cx="66" cy="245" r="4"/>
</g>
<g fill="#000000">
	<circle cx="85" cy="282" r="4"/>
</g>
<g fill="#000000">
	<circle cx="160" cy="194" r="4"/>
</g>
<g fill="#000000">
	<circle cx="42" cy="199" r="4"/>
</g>
<g fill="#000000">
	<circle cx="240" cy="206" r="4"/>
</g>
<g fill="#000000">
	<circle cx="114" cy="138" r="4"/>
</g>
<g fill="#000000">
	<circle cx="181" cy="112" r="4"/>
</g>
<g fill="#000000">
	<circle cx="82" cy="164" r="4"/>
</g>
<g fill="#000000">
	<circle cx="115" cy="233" r="4"/>
</g>
<g fill="#000000">
	<circle cx="233" cy="248" r="4"/>
</g>
<g fill="#000000">
	<circle cx="64" cy="76" r="4"/>
</g>
<g fill="#000000">
	<circle cx="281" cy="246" r="4"/>
</g>
<g fill="#000000">
	<circle cx="130" cy="27" r="4"/>
</g>
<g fill="#000000">
	<circle cx="61" cy="125" r="4"/>
</g>
<g fill="#000000">
	<circle cx="257" cy="74" r="4"/>
</g>
<g fill="#000000">
	<circle cx="110" cy="75" r="4"/>
</g>
<g fill="#000000">
	<circle cx="265" cy="111" r="4"/>
</g>
<g fill="#000000">
	<circle cx="321" cy="201" r="4"/>
</g>
<g fill="#000000">
	<circle cx="357" cy="142" r="4"/>
</g>
<g fill="#000000">
	<circle cx="254" cy="294" r="4"/>
</g>
<g fill="#000000">
	<circle cx="145" cy="294" r="4"/>
</g>
<g fill="#000000">
	<circle cx="202" cy="283" r="4"/>
</g>
<g fill="#000000">
	<circle cx="288" cy="148" r="4"/>
</g>
<g fill="#000000">
	<circle cx="248" cy="162" r="4"/>
</g>
<g fill="#000000">
	<circle cx="166" cy="69" r="4"/>
</g>
<g fill="#000000">
	<circle cx="309" cy="118" r="4"/>
</g>
<g fill="#000000">
	<circle cx="220" cy="104" r="4"/>
</g>
<g fill="#000000">
	<circle cx="198" cy="54" r="4"/>
</g>
<g fill="#000000">
	<circle cx="144" cy="105" r="4"/>
</g>
<g fill="#000000">
	<circle cx="253" cy="4" r="4"/>
</g>
<g fill="#000000">
	<circle cx="322" cy="4" r="4"/>
</g>
<g fill="#000000">
	<circle cx="195" cy="6" r="4"/>
</g>
<g fill="#000000">
	<circle cx="283" cy="38" r="4"/>
</g>

</g>

</svg>
