<?xml version="1.0" encoding="utf-8"?>
<!-- Created with Hypercube (http://tumic.wz.cz/hypercube) -->

<svg width="400" height="300" viewBox="0 0 400 300" xmlns="http://www.w3.org/2000/svg" baseProfile="tiny">

<g font-family="Helvetica" font-weight="normal">

<g>
	<polygon points="336,238 328,243 328,234" fill="#aaff00"/>
	<line x1="218" y1="244" x2="329" y2="238" stroke="#aaff00" stroke-width="2"/>
</g>
<g>
	<polygon points="177,291 179,282 186,288" fill="#aaff00"/>
	<line x1="218" y1="244" x2="182" y2="286" stroke="#aaff00" stroke-width="2"/>
</g>
<g>
	<polygon points="234,290 227,284 236,281" fill="#aaff00"/>
	<line x1="218" y1="244" x2="232" y2="283" stroke="#aaff00" stroke-width="2"/>
</g>
<g>
	<polygon points="218,239 214,231 223,231" fill="#aaff00"/>
	<line x1="223" y1="140" x2="218" y2="232" stroke="#aaff00" stroke-width="2"/>
</g>
<g>
	<polygon points="297,118 291,124 288,116" fill="#aaff00"/>
	<line x1="223" y1="140" x2="290" y2="120" stroke="#aaff00" stroke-width="2"/>
</g>
<g>
	<polygon points="248,94 248,103 240,99" fill="#aaff00"/>
	<line x1="223" y1="140" x2="245" y2="101" stroke="#aaff00" stroke-width="2"/>
</g>
<g>
	<polygon points="261,164 252,164 257,156" fill="#aaff00"/>
	<line x1="223" y1="140" x2="255" y2="160" stroke="#aaff00" stroke-width="2"/>
</g>
<g>
	<polygon points="221,183 217,175 226,175" fill="#aaff00"/>
	<line x1="223" y1="140" x2="221" y2="176" stroke="#aaff00" stroke-width="2"/>
</g>
<g>
	<polygon points="260,168 255,176 251,168" fill="#aaff00"/>
	<line x1="221" y1="188" x2="254" y2="172" stroke="#aaff00" stroke-width="2"/>
</g>
<g>
	<polygon points="61,213 61,204 69,208" fill="#aaff00"/>
	<line x1="144" y1="80" x2="65" y2="207" stroke="#aaff00" stroke-width="2"/>
</g>
<g>
	<polygon points="242,27 237,34 233,26" fill="#aaff00"/>
	<line x1="144" y1="80" x2="235" y2="30" stroke="#aaff00" stroke-width="2"/>
</g>
<g>
	<polygon points="219,137 210,136 215,128" fill="#aaff00"/>
	<line x1="144" y1="80" x2="213" y2="132" stroke="#aaff00" stroke-width="2"/>
</g>
<g>
	<polygon points="93,61 102,59 99,68" fill="#aaff00"/>
	<line x1="144" y1="80" x2="99" y2="63" stroke="#aaff00" stroke-width="2"/>
</g>
<g>
	<polygon points="127,9 134,15 125,17" fill="#aaff00"/>
	<line x1="144" y1="80" x2="129" y2="16" stroke="#aaff00" stroke-width="2"/>
</g>
<g>
	<polygon points="160,42 161,51 153,47" fill="#aaff00"/>
	<line x1="144" y1="80" x2="157" y2="48" stroke="#aaff00" stroke-width="2"/>
</g>
<g>
	<polygon points="98,109 102,101 107,109" fill="#aaff00"/>
	<line x1="144" y1="80" x2="104" y2="105" stroke="#aaff00" stroke-width="2"/>
</g>
<g>
	<polygon points="79,8 87,11 80,17" fill="#aaff00"/>
	<line x1="144" y1="80" x2="83" y2="13" stroke="#aaff00" stroke-width="2"/>
</g>
<g>
	<polygon points="188,83 180,87 181,78" fill="#aaff00"/>
	<line x1="144" y1="80" x2="181" y2="83" stroke="#aaff00" stroke-width="2"/>
</g>
<g>
	<polygon points="191,8 190,17 183,12" fill="#aaff00"/>
	<line x1="144" y1="80" x2="187" y2="14" stroke="#aaff00" stroke-width="2"/>
</g>
<g>
	<polygon points="146,137 141,129 150,129" fill="#aaff00"/>
	<line x1="144" y1="80" x2="146" y2="130" stroke="#aaff00" stroke-width="2"/>
</g>
<g>
	<polygon points="108,230 99,233 102,224" fill="#aaff00"/>
	<line x1="59" y1="217" x2="101" y2="228" stroke="#aaff00" stroke-width="2"/>
</g>
<g>
	<polygon points="51,265 48,257 57,258" fill="#aaff00"/>
	<line x1="59" y1="217" x2="52" y2="258" stroke="#aaff00" stroke-width="2"/>
</g>
<g>
	<polygon points="66,172 69,180 60,179" fill="#aaff00"/>
	<line x1="59" y1="217" x2="65" y2="179" stroke="#aaff00" stroke-width="2"/>
</g>
<g>
	<polygon points="9,222 16,217 17,226" fill="#aaff00"/>
	<line x1="59" y1="217" x2="16" y2="221" stroke="#aaff00" stroke-width="2"/>
</g>
<g>
	<polygon points="7,158 16,161 9,167" fill="#aaff00"/>
	<line x1="59" y1="217" x2="12" y2="163" stroke="#aaff00" stroke-width="2"/>
</g>
<g>
	<polygon points="7,284 8,275 16,280" fill="#aaff00"/>
	<line x1="59" y1="217" x2="12" y2="278" stroke="#aaff00" stroke-width="2"/>
</g>
<g>
	<polygon points="94,288 87,284 95,279" fill="#aaff00"/>
	<line x1="59" y1="217" x2="91" y2="282" stroke="#aaff00" stroke-width="2"/>
</g>
<g>
	<polygon points="5,97 9,105 0,105" fill="#aaff00"/>
	<line x1="5" y1="155" x2="5" y2="104" stroke="#aaff00" stroke-width="2"/>
</g>
<g>
	<polygon points="5,55 9,63 0,63" fill="#aaff00"/>
	<line x1="5" y1="93" x2="5" y2="62" stroke="#aaff00" stroke-width="2"/>
</g>
<g>
	<polygon points="5,9 9,17 0,17" fill="#aaff00"/>
	<line x1="5" y1="93" x2="5" y2="16" stroke="#aaff00" stroke-width="2"/>
</g>
<g>
	<polygon points="250,23 256,16 259,25" fill="#aaff00"/>
	<line x1="303" y1="5" x2="257" y2="21" stroke="#aaff00" stroke-width="2"/>
</g>
<g>
	<polygon points="395,101 399,109 390,109" fill="#aaff00"/>
	<line x1="395" y1="155" x2="395" y2="108" stroke="#aaff00" stroke-width="2"/>
</g>
<g>
	<polygon points="391,266 382,266 386,258" fill="#aaff00"/>
	<line x1="341" y1="238" x2="384" y2="263" stroke="#aaff00" stroke-width="2"/>
</g>
<g>
	<polygon points="390,218 385,225 381,217" fill="#aaff00"/>
	<line x1="341" y1="238" x2="384" y2="221" stroke="#aaff00" stroke-width="2"/>
</g>
<g>
	<polygon points="309,291 309,282 317,286" fill="#aaff00"/>
	<line x1="341" y1="238" x2="312" y2="284" stroke="#aaff00" stroke-width="2"/>
</g>
<g>
	<polygon points="294,236 302,231 302,240" fill="#aaff00"/>
	<line x1="341" y1="238" x2="301" y2="236" stroke="#aaff00" stroke-width="2"/>
</g>
<g>
	<polygon points="392,158 392,167 384,162" fill="#aaff00"/>
	<line x1="341" y1="238" x2="388" y2="164" stroke="#aaff00" stroke-width="2"/>
</g>
<g>
	<polygon points="340,190 344,198 335,198" fill="#aaff00"/>
	<line x1="341" y1="238" x2="340" y2="197" stroke="#aaff00" stroke-width="2"/>
</g>
<g>
	<polygon points="355,290 349,284 358,281" fill="#aaff00"/>
	<line x1="341" y1="238" x2="353" y2="283" stroke="#aaff00" stroke-width="2"/>
</g>

<g fill="#000000">
	<circle cx="217" cy="243" r="4"/>
</g>
<g fill="#000000">
	<circle cx="340" cy="237" r="4"/>
</g>
<g fill="#000000">
	<circle cx="174" cy="294" r="4"/>
</g>
<g fill="#000000">
	<circle cx="235" cy="294" r="4"/>
</g>
<g fill="#000000">
	<circle cx="4" cy="92" r="4"/>
</g>
<g fill="#000000">
	<circle cx="4" cy="50" r="4"/>
</g>
<g fill="#000000">
	<circle cx="4" cy="4" r="4"/>
</g>
<g fill="#000000">
	<circle cx="394" cy="268" r="4"/>
</g>
<g fill="#000000">
	<circle cx="394" cy="216" r="4"/>
</g>
<g fill="#000000">
	<circle cx="306" cy="294" r="4"/>
</g>
<g fill="#000000">
	<circle cx="289" cy="235" r="4"/>
</g>
<g fill="#000000">
	<circle cx="58" cy="216" r="4"/>
</g>
<g fill="#000000">
	<circle cx="112" cy="231" r="4"/>
</g>
<g fill="#000000">
	<circle cx="50" cy="269" r="4"/>
</g>
<g fill="#000000">
	<circle cx="66" cy="167" r="4"/>
</g>
<g fill="#000000">
	<circle cx="4" cy="222" r="4"/>
</g>
<g fill="#000000">
	<circle cx="4" cy="154" r="4"/>
</g>
<g fill="#000000">
	<circle cx="4" cy="287" r="4"/>
</g>
<g fill="#000000">
	<circle cx="96" cy="292" r="4"/>
</g>
<g fill="#000000">
	<circle cx="394" cy="154" r="4"/>
</g>
<g fill="#000000">
	<circle cx="394" cy="96" r="4"/>
</g>
<g fill="#000000">
	<circle cx="302" cy="4" r="4"/>
</g>
<g fill="#000000">
	<circle cx="245" cy="24" r="4"/>
</g>
<g fill="#000000">
	<circle cx="222" cy="139" r="4"/>
</g>
<g fill="#000000">
	<circle cx="301" cy="116" r="4"/>
</g>
<g fill="#000000">
	<circle cx="250" cy="90" r="4"/>
</g>
<g fill="#000000">
	<circle cx="264" cy="166" r="4"/>
</g>
<g fill="#000000">
	<circle cx="220" cy="187" r="4"/>
</g>
<g fill="#000000">
	<circle cx="339" cy="185" r="4"/>
</g>
<g fill="#000000">
	<circle cx="143" cy="79" r="4"/>
</g>
<g fill="#000000">
	<circle cx="88" cy="59" r="4"/>
</g>
<g fill="#000000">
	<circle cx="126" cy="4" r="4"/>
</g>
<g fill="#000000">
	<circle cx="161" cy="37" r="4"/>
</g>
<g fill="#000000">
	<circle cx="94" cy="111" r="4"/>
</g>
<g fill="#000000">
	<circle cx="75" cy="4" r="4"/>
</g>
<g fill="#000000">
	<circle cx="192" cy="83" r="4"/>
</g>
<g fill="#000000">
	<circle cx="193" cy="4" r="4"/>
</g>
<g fill="#000000">
	<circle cx="146" cy="141" r="4"/>
</g>
<g fill="#000000">
	<circle cx="356" cy="294" r="4"/>
</g>

</g>

</svg>
