<?xml version="1.0" encoding="utf-8"?>
<!-- Created with Hypercube (http://tumic.wz.cz/hypercube) -->

<svg width="400" height="300" viewBox="0 0 400 300" xmlns="http://www.w3.org/2000/svg" baseProfile="tiny">

<g font-family="Helvetica" font-weight="normal">

<g>
	<polygon points="89,65 98,63 95,71" fill="#aaff00"/>
	<line x1="258" y1="113" x2="96" y2="67" stroke="#aaff00" stroke-width="2"/>
</g>
<g>
	<polygon points="216,215 215,206 223,210" fill="#aaff00"/>
	<line x1="258" y1="113" x2="219" y2="209" stroke="#aaff00" stroke-width="2"/>
</g>
<g>
	<polygon points="181,126 188,120 189,129" fill="#aaff00"/>
	<line x1="258" y1="113" x2="188" y2="125" stroke="#aaff00" stroke-width="2"/>
</g>
<g>
	<polygon points="231,151 232,142 239,147" fill="#aaff00"/>
	<line x1="258" y1="113" x2="235" y2="145" stroke="#aaff00" stroke-width="2"/>
</g>
<g>
	<polygon points="336,8 335,17 328,12" fill="#aaff00"/>
	<line x1="258" y1="113" x2="331" y2="14" stroke="#aaff00" stroke-width="2"/>
</g>
<g>
	<polygon points="249,9 254,16 245,17" fill="#aaff00"/>
	<line x1="258" y1="113" x2="249" y2="16" stroke="#aaff00" stroke-width="2"/>
</g>
<g>
	<polygon points="258,194 253,186 262,186" fill="#aaff00"/>
	<line x1="258" y1="113" x2="258" y2="187" stroke="#aaff00" stroke-width="2"/>
</g>
<g>
	<polygon points="132,119 140,114 140,123" fill="#aaff00"/>
	<line x1="258" y1="113" x2="139" y2="119" stroke="#aaff00" stroke-width="2"/>
</g>
<g>
	<polygon points="204,8 211,13 203,17" fill="#aaff00"/>
	<line x1="258" y1="113" x2="207" y2="15" stroke="#aaff00" stroke-width="2"/>
</g>
<g>
	<polygon points="300,109 293,114 292,105" fill="#aaff00"/>
	<line x1="258" y1="113" x2="293" y2="109" stroke="#aaff00" stroke-width="2"/>
</g>
<g>
	<polygon points="264,247 259,239 268,239" fill="#aaff00"/>
	<line x1="258" y1="113" x2="264" y2="240" stroke="#aaff00" stroke-width="2"/>
</g>
<g>
	<polygon points="144,62 153,61 149,70" fill="#aaff00"/>
	<line x1="258" y1="113" x2="150" y2="65" stroke="#aaff00" stroke-width="2"/>
</g>
<g>
	<polygon points="346,110 338,114 338,105" fill="#aaff00"/>
	<line x1="258" y1="113" x2="339" y2="110" stroke="#aaff00" stroke-width="2"/>
</g>
<g>
	<polygon points="390,89 383,95 382,86" fill="#aaff00"/>
	<line x1="258" y1="113" x2="383" y2="91" stroke="#aaff00" stroke-width="2"/>
</g>
<g>
	<polygon points="307,190 299,186 307,181" fill="#aaff00"/>
	<line x1="258" y1="113" x2="303" y2="184" stroke="#aaff00" stroke-width="2"/>
</g>
<g>
	<polygon points="320,236 313,232 321,228" fill="#aaff00"/>
	<line x1="258" y1="113" x2="317" y2="230" stroke="#aaff00" stroke-width="2"/>
</g>
<g>
	<polygon points="221,102 230,100 227,108" fill="#aaff00"/>
	<line x1="258" y1="113" x2="228" y2="104" stroke="#aaff00" stroke-width="2"/>
</g>
<g>
	<polygon points="306,62 304,70 298,64" fill="#aaff00"/>
	<line x1="258" y1="113" x2="301" y2="67" stroke="#aaff00" stroke-width="2"/>
</g>
<g>
	<polygon points="349,61 344,68 340,61" fill="#aaff00"/>
	<line x1="258" y1="113" x2="342" y2="64" stroke="#aaff00" stroke-width="2"/>
</g>
<g>
	<polygon points="371,197 362,196 367,189" fill="#aaff00"/>
	<line x1="258" y1="113" x2="365" y2="193" stroke="#aaff00" stroke-width="2"/>
</g>
<g>
	<polygon points="189,174 192,165 198,172" fill="#aaff00"/>
	<line x1="258" y1="113" x2="194" y2="169" stroke="#aaff00" stroke-width="2"/>
</g>
<g>
	<polygon points="187,71 196,71 192,79" fill="#aaff00"/>
	<line x1="258" y1="113" x2="194" y2="74" stroke="#aaff00" stroke-width="2"/>
</g>
<g>
	<polygon points="266,68 269,76 260,75" fill="#aaff00"/>
	<line x1="258" y1="113" x2="264" y2="75" stroke="#aaff00" stroke-width="2"/>
</g>
<g>
	<polygon points="138,171 143,163 147,171" fill="#aaff00"/>
	<line x1="258" y1="113" x2="144" y2="167" stroke="#aaff00" stroke-width="2"/>
</g>
<g>
	<polygon points="388,142 380,145 382,136" fill="#aaff00"/>
	<line x1="258" y1="113" x2="381" y2="141" stroke="#aaff00" stroke-width="2"/>
</g>
<g>
	<polygon points="331,153 322,153 326,146" fill="#aaff00"/>
	<line x1="258" y1="113" x2="324" y2="150" stroke="#aaff00" stroke-width="2"/>
</g>
<g>
	<polygon points="228,54 235,59 227,63" fill="#aaff00"/>
	<line x1="258" y1="113" x2="231" y2="61" stroke="#aaff00" stroke-width="2"/>
</g>
<g>
	<polygon points="276,150 269,146 277,141" fill="#aaff00"/>
	<line x1="258" y1="113" x2="273" y2="144" stroke="#aaff00" stroke-width="2"/>
</g>
<g>
	<polygon points="160,9 168,11 162,18" fill="#aaff00"/>
	<line x1="258" y1="113" x2="165" y2="14" stroke="#aaff00" stroke-width="2"/>
</g>
<g>
	<polygon points="290,12 292,21 283,18" fill="#aaff00"/>
	<line x1="258" y1="113" x2="288" y2="19" stroke="#aaff00" stroke-width="2"/>
</g>
<g>
	<polygon points="387,24 383,32 378,25" fill="#aaff00"/>
	<line x1="258" y1="113" x2="381" y2="28" stroke="#aaff00" stroke-width="2"/>
</g>
<g>
	<polygon points="255,116 254,125 246,120" fill="#aaff00"/>
	<line x1="161" y1="240" x2="250" y2="122" stroke="#aaff00" stroke-width="2"/>
</g>
<g>
	<polygon points="172,290 166,284 175,282" fill="#aaff00"/>
	<line x1="161" y1="240" x2="171" y2="283" stroke="#aaff00" stroke-width="2"/>
</g>
<g>
	<polygon points="47,260 55,257 53,266" fill="#aaff00"/>
	<line x1="100" y1="272" x2="54" y2="261" stroke="#aaff00" stroke-width="2"/>
</g>
<g>
	<polygon points="157,242 152,249 148,241" fill="#aaff00"/>
	<line x1="100" y1="272" x2="150" y2="245" stroke="#aaff00" stroke-width="2"/>
</g>
<g>
	<polygon points="8,220 16,223 9,229" fill="#aaff00"/>
	<line x1="43" y1="259" x2="12" y2="225" stroke="#aaff00" stroke-width="2"/>
</g>
<g>
	<polygon points="8,291 10,283 17,289" fill="#aaff00"/>
	<line x1="43" y1="259" x2="13" y2="286" stroke="#aaff00" stroke-width="2"/>
</g>
<g>
	<polygon points="49,12 57,16 50,21" fill="#aaff00"/>
	<line x1="85" y1="64" x2="53" y2="18" stroke="#aaff00" stroke-width="2"/>
</g>
<g>
	<polygon points="25,79 31,73 34,82" fill="#aaff00"/>
	<line x1="85" y1="64" x2="32" y2="77" stroke="#aaff00" stroke-width="2"/>
</g>

<g fill="#000000">
	<circle cx="257" cy="112" r="4"/>
</g>
<g fill="#000000">
	<circle cx="84" cy="63" r="4"/>
</g>
<g fill="#000000">
	<circle cx="214" cy="219" r="4"/>
</g>
<g fill="#000000">
	<circle cx="176" cy="126" r="4"/>
</g>
<g fill="#000000">
	<circle cx="228" cy="154" r="4"/>
</g>
<g fill="#000000">
	<circle cx="338" cy="4" r="4"/>
</g>
<g fill="#000000">
	<circle cx="248" cy="4" r="4"/>
</g>
<g fill="#000000">
	<circle cx="257" cy="198" r="4"/>
</g>
<g fill="#000000">
	<circle cx="127" cy="119" r="4"/>
</g>
<g fill="#000000">
	<circle cx="201" cy="4" r="4"/>
</g>
<g fill="#000000">
	<circle cx="304" cy="108" r="4"/>
</g>
<g fill="#000000">
	<circle cx="264" cy="251" r="4"/>
</g>
<g fill="#000000">
	<circle cx="139" cy="60" r="4"/>
</g>
<g fill="#000000">
	<circle cx="350" cy="109" r="4"/>
</g>
<g fill="#000000">
	<circle cx="394" cy="88" r="4"/>
</g>
<g fill="#000000">
	<circle cx="309" cy="193" r="4"/>
</g>
<g fill="#000000">
	<circle cx="322" cy="240" r="4"/>
</g>
<g fill="#000000">
	<circle cx="216" cy="100" r="4"/>
</g>
<g fill="#000000">
	<circle cx="309" cy="58" r="4"/>
</g>
<g fill="#000000">
	<circle cx="352" cy="58" r="4"/>
</g>
<g fill="#000000">
	<circle cx="374" cy="199" r="4"/>
</g>
<g fill="#000000">
	<circle cx="185" cy="176" r="4"/>
</g>
<g fill="#000000">
	<circle cx="183" cy="68" r="4"/>
</g>
<g fill="#000000">
	<circle cx="266" cy="63" r="4"/>
</g>
<g fill="#000000">
	<circle cx="133" cy="172" r="4"/>
</g>
<g fill="#000000">
	<circle cx="392" cy="143" r="4"/>
</g>
<g fill="#000000">
	<circle cx="334" cy="155" r="4"/>
</g>
<g fill="#000000">
	<circle cx="225" cy="50" r="4"/>
</g>
<g fill="#000000">
	<circle cx="278" cy="154" r="4"/>
</g>
<g fill="#000000">
	<circle cx="156" cy="5" r="4"/>
</g>
<g fill="#000000">
	<circle cx="291" cy="7" r="4"/>
</g>
<g fill="#000000">
	<circle cx="390" cy="21" r="4"/>
</g>
<g fill="#000000">
	<circle cx="46" cy="8" r="4"/>
</g>
<g fill="#000000">
	<circle cx="20" cy="80" r="4"/>
</g>
<g fill="#000000">
	<circle cx="99" cy="271" r="4"/>
</g>
<g fill="#000000">
	<circle cx="42" cy="258" r="4"/>
</g>
<g fill="#000000">
	<circle cx="160" cy="239" r="4"/>
</g>
<g fill="#000000">
	<circle cx="4" cy="216" r="4"/>
</g>
<g fill="#000000">
	<circle cx="4" cy="294" r="4"/>
</g>
<g fill="#000000">
	<circle cx="173" cy="294" r="4"/>
</g>

</g>

</svg>
