<?xml version="1.0" encoding="utf-8"?>
<!-- Created with Hypercube (http://tumic.wz.cz/hypercube) -->

<svg width="400" height="300" viewBox="0 0 400 300" xmlns="http://www.w3.org/2000/svg" baseProfile="tiny">

<g font-family="Helvetica" font-weight="normal">

<g>
	<polygon points="83,214 90,208 91,217" fill="#aaff00"/>
	<line x1="128" y1="206" x2="90" y2="212" stroke="#aaff00" stroke-width="2"/>
</g>
<g>
	<polygon points="185,212 177,216 178,207" fill="#aaff00"/>
	<line x1="128" y1="206" x2="178" y2="211" stroke="#aaff00" stroke-width="2"/>
</g>
<g>
	<polygon points="73,164 82,165 77,173" fill="#aaff00"/>
	<line x1="128" y1="206" x2="79" y2="169" stroke="#aaff00" stroke-width="2"/>
</g>
<g>
	<polygon points="213,174 208,181 204,173" fill="#aaff00"/>
	<line x1="128" y1="206" x2="207" y2="177" stroke="#aaff00" stroke-width="2"/>
</g>
<g>
	<polygon points="220,215 212,219 213,210" fill="#aaff00"/>
	<line x1="128" y1="206" x2="213" y2="214" stroke="#aaff00" stroke-width="2"/>
</g>
<g>
	<polygon points="156,189 151,197 147,189" fill="#aaff00"/>
	<line x1="128" y1="206" x2="149" y2="192" stroke="#aaff00" stroke-width="2"/>
</g>
<g>
	<polygon points="39,106 48,109 41,115" fill="#aaff00"/>
	<line x1="128" y1="206" x2="44" y2="111" stroke="#aaff00" stroke-width="2"/>
</g>
<g>
	<polygon points="173,80 175,89 166,86" fill="#aaff00"/>
	<line x1="128" y1="206" x2="171" y2="86" stroke="#aaff00" stroke-width="2"/>
</g>
<g>
	<polygon points="255,257 246,258 250,250" fill="#aaff00"/>
	<line x1="128" y1="206" x2="249" y2="254" stroke="#aaff00" stroke-width="2"/>
</g>
<g>
	<polygon points="148,151 149,160 141,156" fill="#aaff00"/>
	<line x1="128" y1="206" x2="145" y2="157" stroke="#aaff00" stroke-width="2"/>
</g>
<g>
	<polygon points="110,145 116,151 108,154" fill="#aaff00"/>
	<line x1="128" y1="206" x2="112" y2="152" stroke="#aaff00" stroke-width="2"/>
</g>
<g>
	<polygon points="291,224 283,228 284,219" fill="#aaff00"/>
	<line x1="128" y1="206" x2="284" y2="223" stroke="#aaff00" stroke-width="2"/>
</g>
<g>
	<polygon points="198,268 189,266 195,259" fill="#aaff00"/>
	<line x1="128" y1="206" x2="193" y2="263" stroke="#aaff00" stroke-width="2"/>
</g>
<g>
	<polygon points="79,108 87,113 79,117" fill="#aaff00"/>
	<line x1="128" y1="206" x2="83" y2="114" stroke="#aaff00" stroke-width="2"/>
</g>
<g>
	<polygon points="67,267 69,259 75,265" fill="#aaff00"/>
	<line x1="128" y1="206" x2="72" y2="262" stroke="#aaff00" stroke-width="2"/>
</g>
<g>
	<polygon points="70,166 76,173 67,174" fill="#aaff00"/>
	<line x1="79" y1="215" x2="71" y2="173" stroke="#aaff00" stroke-width="2"/>
</g>
<g>
	<polygon points="158,114 153,121 149,113" fill="#aaff00"/>
	<line x1="70" y1="162" x2="151" y2="117" stroke="#aaff00" stroke-width="2"/>
</g>
<g>
	<polygon points="214,169 206,166 213,160" fill="#aaff00"/>
	<line x1="162" y1="112" x2="210" y2="164" stroke="#aaff00" stroke-width="2"/>
</g>
<g>
	<polygon points="242,88 236,94 233,86" fill="#aaff00"/>
	<line x1="162" y1="112" x2="235" y2="90" stroke="#aaff00" stroke-width="2"/>
</g>
<g>
	<polygon points="164,185 170,179 173,188" fill="#aaff00"/>
	<line x1="218" y1="173" x2="171" y2="184" stroke="#aaff00" stroke-width="2"/>
</g>
<g>
	<polygon points="290,97 288,105 282,99" fill="#aaff00"/>
	<line x1="218" y1="173" x2="285" y2="102" stroke="#aaff00" stroke-width="2"/>
</g>
<g>
	<polygon points="118,82 125,87 117,91" fill="#aaff00"/>
	<line x1="160" y1="187" x2="121" y2="88" stroke="#aaff00" stroke-width="2"/>
</g>
<g>
	<polygon points="257,198 249,202 250,193" fill="#aaff00"/>
	<line x1="160" y1="187" x2="250" y2="197" stroke="#aaff00" stroke-width="2"/>
</g>
<g>
	<polygon points="41,101 47,95 50,103" fill="#aaff00"/>
	<line x1="117" y1="78" x2="48" y2="99" stroke="#aaff00" stroke-width="2"/>
</g>
<g>
	<polygon points="170,76 162,80 162,71" fill="#aaff00"/>
	<line x1="117" y1="78" x2="163" y2="76" stroke="#aaff00" stroke-width="2"/>
</g>
<g>
	<polygon points="34,106 33,115 25,110" fill="#aaff00"/>
	<line x1="8" y1="141" x2="29" y2="112" stroke="#aaff00" stroke-width="2"/>
</g>
<g>
	<polygon points="8,190 4,182 13,182" fill="#aaff00"/>
	<line x1="8" y1="141" x2="8" y2="183" stroke="#aaff00" stroke-width="2"/>
</g>
<g>
	<polygon points="8,266 3,258 12,258" fill="#aaff00"/>
	<line x1="9" y1="195" x2="8" y2="259" stroke="#aaff00" stroke-width="2"/>
</g>
<g>
	<polygon points="75,107 74,116 66,111" fill="#aaff00"/>
	<line x1="9" y1="195" x2="70" y2="113" stroke="#aaff00" stroke-width="2"/>
</g>
<g>
	<polygon points="61,267 53,263 60,258" fill="#aaff00"/>
	<line x1="9" y1="195" x2="57" y2="261" stroke="#aaff00" stroke-width="2"/>
</g>
<g>
	<polygon points="59,271 51,275 51,266" fill="#aaff00"/>
	<line x1="8" y1="271" x2="52" y2="271" stroke="#aaff00" stroke-width="2"/>
</g>
<g>
	<polygon points="182,32 178,40 173,33" fill="#aaff00"/>
	<line x1="78" y1="104" x2="176" y2="36" stroke="#aaff00" stroke-width="2"/>
</g>
<g>
	<polygon points="255,44 247,46 248,38" fill="#aaff00"/>
	<line x1="186" y1="30" x2="248" y2="42" stroke="#aaff00" stroke-width="2"/>
</g>
<g>
	<polygon points="151,142 149,133 157,136" fill="#aaff00"/>
	<line x1="186" y1="30" x2="153" y2="135" stroke="#aaff00" stroke-width="2"/>
</g>
<g>
	<polygon points="223,58 228,51 232,60" fill="#aaff00"/>
	<line x1="260" y1="45" x2="229" y2="55" stroke="#aaff00" stroke-width="2"/>
</g>
<g>
	<polygon points="368,66 360,69 361,60" fill="#aaff00"/>
	<line x1="260" y1="45" x2="361" y2="64" stroke="#aaff00" stroke-width="2"/>
</g>
<g>
	<polygon points="213,124 209,116 218,117" fill="#aaff00"/>
	<line x1="219" y1="60" x2="214" y2="117" stroke="#aaff00" stroke-width="2"/>
</g>
<g>
	<polygon points="154,145 160,139 163,147" fill="#aaff00"/>
	<line x1="213" y1="129" x2="161" y2="143" stroke="#aaff00" stroke-width="2"/>
</g>
<g>
	<polygon points="270,158 261,159 265,151" fill="#aaff00"/>
	<line x1="213" y1="129" x2="263" y2="155" stroke="#aaff00" stroke-width="2"/>
</g>
<g>
	<polygon points="154,148 163,146 160,154" fill="#aaff00"/>
	<line x1="187" y1="158" x2="161" y2="150" stroke="#aaff00" stroke-width="2"/>
</g>
<g>
	<polygon points="263,194 261,185 269,188" fill="#aaff00"/>
	<line x1="274" y1="161" x2="265" y2="187" stroke="#aaff00" stroke-width="2"/>
</g>
<g>
	<polygon points="191,158 199,153 199,162" fill="#aaff00"/>
	<line x1="274" y1="161" x2="198" y2="158" stroke="#aaff00" stroke-width="2"/>
</g>
<g>
	<polygon points="356,163 348,168 348,159" fill="#aaff00"/>
	<line x1="274" y1="161" x2="349" y2="163" stroke="#aaff00" stroke-width="2"/>
</g>
<g>
	<polygon points="260,254 255,246 264,246" fill="#aaff00"/>
	<line x1="262" y1="199" x2="260" y2="247" stroke="#aaff00" stroke-width="2"/>
</g>
<g>
	<polygon points="357,167 355,175 348,169" fill="#aaff00"/>
	<line x1="260" y1="259" x2="352" y2="172" stroke="#aaff00" stroke-width="2"/>
</g>
<g>
	<polygon points="372,71 375,79 367,78" fill="#aaff00"/>
	<line x1="361" y1="164" x2="371" y2="78" stroke="#aaff00" stroke-width="2"/>
</g>
<g>
	<polygon points="389,137 387,145 380,139" fill="#aaff00"/>
	<line x1="361" y1="164" x2="384" y2="141" stroke="#aaff00" stroke-width="2"/>
</g>
<g>
	<polygon points="391,129 385,123 393,120" fill="#aaff00"/>
	<line x1="373" y1="67" x2="389" y2="122" stroke="#aaff00" stroke-width="2"/>
</g>
<g>
	<polygon points="295,98 302,103 294,107" fill="#aaff00"/>
	<line x1="309" y1="132" x2="298" y2="104" stroke="#aaff00" stroke-width="2"/>
</g>
<g>
	<polygon points="264,195 265,186 272,191" fill="#aaff00"/>
	<line x1="309" y1="132" x2="268" y2="189" stroke="#aaff00" stroke-width="2"/>
</g>
<g>
	<polygon points="388,133 380,138 380,129" fill="#aaff00"/>
	<line x1="309" y1="132" x2="381" y2="133" stroke="#aaff00" stroke-width="2"/>
</g>
<g>
	<polygon points="317,60 316,69 309,64" fill="#aaff00"/>
	<line x1="294" y1="94" x2="313" y2="66" stroke="#aaff00" stroke-width="2"/>
</g>
<g>
	<polygon points="190,30 198,28 197,36" fill="#aaff00"/>
	<line x1="320" y1="57" x2="197" y2="32" stroke="#aaff00" stroke-width="2"/>
</g>
<g>
	<polygon points="264,45 272,42 271,51" fill="#aaff00"/>
	<line x1="320" y1="57" x2="271" y2="47" stroke="#aaff00" stroke-width="2"/>
</g>
<g>
	<polygon points="319,61 322,69 313,68" fill="#aaff00"/>
	<line x1="296" y1="225" x2="318" y2="68" stroke="#aaff00" stroke-width="2"/>
</g>
<g>
	<polygon points="299,221 301,213 308,219" fill="#aaff00"/>
	<line x1="328" y1="195" x2="304" y2="217" stroke="#aaff00" stroke-width="2"/>
</g>
<g>
	<polygon points="381,216 372,217 376,209" fill="#aaff00"/>
	<line x1="328" y1="195" x2="375" y2="213" stroke="#aaff00" stroke-width="2"/>
</g>
<g>
	<polygon points="392,138 396,146 387,145" fill="#aaff00"/>
	<line x1="386" y1="218" x2="392" y2="145" stroke="#aaff00" stroke-width="2"/>
</g>
<g>
	<polygon points="322,268 325,259 331,266" fill="#aaff00"/>
	<line x1="386" y1="218" x2="328" y2="263" stroke="#aaff00" stroke-width="2"/>
</g>
<g>
	<polygon points="298,229 305,233 297,238" fill="#aaff00"/>
	<line x1="319" y1="271" x2="301" y2="235" stroke="#aaff00" stroke-width="2"/>
</g>
<g>
	<polygon points="206,271 214,266 214,275" fill="#aaff00"/>
	<line x1="319" y1="271" x2="213" y2="271" stroke="#aaff00" stroke-width="2"/>
</g>
<g>
	<polygon points="190,217 196,224 188,225" fill="#aaff00"/>
	<line x1="202" y1="271" x2="192" y2="224" stroke="#aaff00" stroke-width="2"/>
</g>
<g>
	<polygon points="215,176 214,185 207,180" fill="#aaff00"/>
	<line x1="190" y1="213" x2="211" y2="182" stroke="#aaff00" stroke-width="2"/>
</g>
<g>
	<polygon points="220,215 212,219 213,210" fill="#aaff00"/>
	<line x1="190" y1="213" x2="213" y2="215" stroke="#aaff00" stroke-width="2"/>
</g>
<g>
	<polygon points="226,211 223,202 232,205" fill="#aaff00"/>
	<line x1="250" y1="124" x2="228" y2="204" stroke="#aaff00" stroke-width="2"/>
</g>
<g>
	<polygon points="324,191 315,190 321,183" fill="#aaff00"/>
	<line x1="250" y1="124" x2="319" y2="187" stroke="#aaff00" stroke-width="2"/>
</g>
<g>
	<polygon points="113,140 120,135 121,143" fill="#aaff00"/>
	<line x1="250" y1="124" x2="120" y2="139" stroke="#aaff00" stroke-width="2"/>
</g>
<g>
	<polygon points="12,141 20,136 20,145" fill="#aaff00"/>
	<line x1="109" y1="141" x2="19" y2="141" stroke="#aaff00" stroke-width="2"/>
</g>
<g>
	<polygon points="289,93 281,96 282,87" fill="#aaff00"/>
	<line x1="247" y1="87" x2="282" y2="92" stroke="#aaff00" stroke-width="2"/>
</g>
<g>
	<polygon points="249,119 244,112 253,111" fill="#aaff00"/>
	<line x1="247" y1="87" x2="249" y2="112" stroke="#aaff00" stroke-width="2"/>
</g>
<g>
	<polygon points="304,130 295,131 299,123" fill="#aaff00"/>
	<line x1="175" y1="76" x2="298" y2="127" stroke="#aaff00" stroke-width="2"/>
</g>
<g>
	<polygon points="255,46 249,53 246,44" fill="#aaff00"/>
	<line x1="175" y1="76" x2="249" y2="49" stroke="#aaff00" stroke-width="2"/>
</g>
<g>
	<polygon points="74,216 69,223 65,215" fill="#aaff00"/>
	<line x1="37" y1="231" x2="68" y2="219" stroke="#aaff00" stroke-width="2"/>
</g>

<g fill="#000000">
	<circle cx="36" cy="230" r="4"/>
</g>
<g fill="#000000">
	<circle cx="127" cy="205" r="4"/>
</g>
<g fill="#000000">
	<circle cx="78" cy="214" r="4"/>
</g>
<g fill="#000000">
	<circle cx="189" cy="212" r="4"/>
</g>
<g fill="#000000">
	<circle cx="69" cy="161" r="4"/>
</g>
<g fill="#000000">
	<circle cx="217" cy="172" r="4"/>
</g>
<g fill="#000000">
	<circle cx="224" cy="215" r="4"/>
</g>
<g fill="#000000">
	<circle cx="161" cy="111" r="4"/>
</g>
<g fill="#000000">
	<circle cx="246" cy="86" r="4"/>
</g>
<g fill="#000000">
	<circle cx="159" cy="186" r="4"/>
</g>
<g fill="#000000">
	<circle cx="293" cy="93" r="4"/>
</g>
<g fill="#000000">
	<circle cx="249" cy="123" r="4"/>
</g>
<g fill="#000000">
	<circle cx="116" cy="77" r="4"/>
</g>
<g fill="#000000">
	<circle cx="36" cy="102" r="4"/>
</g>
<g fill="#000000">
	<circle cx="174" cy="75" r="4"/>
</g>
<g fill="#000000">
	<circle cx="308" cy="131" r="4"/>
</g>
<g fill="#000000">
	<circle cx="261" cy="198" r="4"/>
</g>
<g fill="#000000">
	<circle cx="319" cy="56" r="4"/>
</g>
<g fill="#000000">
	<circle cx="259" cy="258" r="4"/>
</g>
<g fill="#000000">
	<circle cx="185" cy="29" r="4"/>
</g>
<g fill="#000000">
	<circle cx="259" cy="44" r="4"/>
</g>
<g fill="#000000">
	<circle cx="149" cy="146" r="4"/>
</g>
<g fill="#000000">
	<circle cx="218" cy="59" r="4"/>
</g>
<g fill="#000000">
	<circle cx="212" cy="128" r="4"/>
</g>
<g fill="#000000">
	<circle cx="273" cy="160" r="4"/>
</g>
<g fill="#000000">
	<circle cx="186" cy="157" r="4"/>
</g>
<g fill="#000000">
	<circle cx="360" cy="163" r="4"/>
</g>
<g fill="#000000">
	<circle cx="372" cy="66" r="4"/>
</g>
<g fill="#000000">
	<circle cx="392" cy="133" r="4"/>
</g>
<g fill="#000000">
	<circle cx="327" cy="194" r="4"/>
</g>
<g fill="#000000">
	<circle cx="108" cy="140" r="4"/>
</g>
<g fill="#000000">
	<circle cx="295" cy="224" r="4"/>
</g>
<g fill="#000000">
	<circle cx="385" cy="217" r="4"/>
</g>
<g fill="#000000">
	<circle cx="7" cy="140" r="4"/>
</g>
<g fill="#000000">
	<circle cx="318" cy="270" r="4"/>
</g>
<g fill="#000000">
	<circle cx="201" cy="270" r="4"/>
</g>
<g fill="#000000">
	<circle cx="8" cy="194" r="4"/>
</g>
<g fill="#000000">
	<circle cx="7" cy="270" r="4"/>
</g>
<g fill="#000000">
	<circle cx="77" cy="103" r="4"/>
</g>
<g fill="#000000">
	<circle cx="63" cy="270" r="4"/>
</g>

</g>

</svg>
