<?xml version="1.0" encoding="utf-8"?>
<!-- Created with Hypercube (http://tumic.wz.cz/hypercube) -->

<svg width="400" height="300" viewBox="0 0 400 300" xmlns="http://www.w3.org/2000/svg" baseProfile="tiny">

<g font-family="Helvetica" font-weight="normal">

<g>
	<polygon points="83,125 90,120 91,129" fill="#aaff00"/>
	<line x1="201" y1="118" x2="90" y2="125" stroke="#aaff00" stroke-width="2"/>
</g>
<g>
	<polygon points="196,250 191,242 200,242" fill="#aaff00"/>
	<line x1="201" y1="118" x2="196" y2="243" stroke="#aaff00" stroke-width="2"/>
</g>
<g>
	<polygon points="291,168 282,168 286,161" fill="#aaff00"/>
	<line x1="201" y1="118" x2="284" y2="165" stroke="#aaff00" stroke-width="2"/>
</g>
<g>
	<polygon points="329,189 320,189 324,182" fill="#aaff00"/>
	<line x1="201" y1="118" x2="322" y2="186" stroke="#aaff00" stroke-width="2"/>
</g>
<g>
	<polygon points="319,120 311,125 311,116" fill="#aaff00"/>
	<line x1="201" y1="118" x2="312" y2="120" stroke="#aaff00" stroke-width="2"/>
</g>
<g>
	<polygon points="289,74 284,82 280,74" fill="#aaff00"/>
	<line x1="201" y1="118" x2="283" y2="78" stroke="#aaff00" stroke-width="2"/>
</g>
<g>
	<polygon points="170,36 177,41 169,45" fill="#aaff00"/>
	<line x1="201" y1="118" x2="173" y2="42" stroke="#aaff00" stroke-width="2"/>
</g>
<g>
	<polygon points="265,119 257,124 257,115" fill="#aaff00"/>
	<line x1="201" y1="118" x2="258" y2="119" stroke="#aaff00" stroke-width="2"/>
</g>
<g>
	<polygon points="238,189 231,184 239,180" fill="#aaff00"/>
	<line x1="201" y1="118" x2="235" y2="182" stroke="#aaff00" stroke-width="2"/>
</g>
<g>
	<polygon points="203,186 198,178 207,178" fill="#aaff00"/>
	<line x1="201" y1="118" x2="203" y2="179" stroke="#aaff00" stroke-width="2"/>
</g>
<g>
	<polygon points="172,159 173,150 180,155" fill="#aaff00"/>
	<line x1="201" y1="118" x2="176" y2="153" stroke="#aaff00" stroke-width="2"/>
</g>
<g>
	<polygon points="118,170 122,162 127,170" fill="#aaff00"/>
	<line x1="201" y1="118" x2="124" y2="166" stroke="#aaff00" stroke-width="2"/>
</g>
<g>
	<polygon points="76,236 71,228 80,228" fill="#aaff00"/>
	<line x1="79" y1="126" x2="76" y2="229" stroke="#aaff00" stroke-width="2"/>
</g>
<g>
	<polygon points="191,254 183,258 184,249" fill="#aaff00"/>
	<line x1="76" y1="241" x2="184" y2="253" stroke="#aaff00" stroke-width="2"/>
</g>
<g>
	<polygon points="308,250 300,255 300,246" fill="#aaff00"/>
	<line x1="196" y1="255" x2="301" y2="250" stroke="#aaff00" stroke-width="2"/>
</g>
<g>
	<polygon points="378,198 375,207 369,200" fill="#aaff00"/>
	<line x1="313" y1="250" x2="372" y2="203" stroke="#aaff00" stroke-width="2"/>
</g>
<g>
	<polygon points="384,119 389,127 380,127" fill="#aaff00"/>
	<line x1="382" y1="196" x2="384" y2="126" stroke="#aaff00" stroke-width="2"/>
</g>
<g>
	<polygon points="356,52 364,57 355,61" fill="#aaff00"/>
	<line x1="385" y1="115" x2="359" y2="58" stroke="#aaff00" stroke-width="2"/>
</g>
<g>
	<polygon points="302,14 311,14 306,22" fill="#aaff00"/>
	<line x1="355" y1="48" x2="308" y2="18" stroke="#aaff00" stroke-width="2"/>
</g>
<g>
	<polygon points="238,6 246,2 245,11" fill="#aaff00"/>
	<line x1="299" y1="12" x2="245" y2="7" stroke="#aaff00" stroke-width="2"/>
</g>
<g>
	<polygon points="221,61 218,53 227,55" fill="#aaff00"/>
	<line x1="234" y1="6" x2="222" y2="54" stroke="#aaff00" stroke-width="2"/>
</g>
<g>
	<polygon points="232,114 226,108 235,105" fill="#aaff00"/>
	<line x1="220" y1="66" x2="231" y2="107" stroke="#aaff00" stroke-width="2"/>
</g>
<g>
	<polygon points="249,153 241,148 250,144" fill="#aaff00"/>
	<line x1="234" y1="119" x2="246" y2="147" stroke="#aaff00" stroke-width="2"/>
</g>
<g>
	<polygon points="237,234 234,226 243,227" fill="#aaff00"/>
	<line x1="251" y1="158" x2="238" y2="227" stroke="#aaff00" stroke-width="2"/>
</g>
<g>
	<polygon points="158,249 165,243 166,252" fill="#aaff00"/>
	<line x1="237" y1="239" x2="165" y2="248" stroke="#aaff00" stroke-width="2"/>
</g>
<g>
	<polygon points="129,215 137,219 130,224" fill="#aaff00"/>
	<line x1="154" y1="250" x2="133" y2="221" stroke="#aaff00" stroke-width="2"/>
</g>
<g>
	<polygon points="81,178 90,179 85,186" fill="#aaff00"/>
	<line x1="127" y1="212" x2="87" y2="182" stroke="#aaff00" stroke-width="2"/>
</g>
<g>
	<polygon points="110,173 103,178 102,169" fill="#aaff00"/>
	<line x1="78" y1="176" x2="103" y2="173" stroke="#aaff00" stroke-width="2"/>
</g>
<g>
	<polygon points="192,258 189,266 183,259" fill="#aaff00"/>
	<line x1="152" y1="295" x2="187" y2="262" stroke="#aaff00" stroke-width="2"/>
</g>
<g>
	<polygon points="116,177 122,183 114,186" fill="#aaff00"/>
	<line x1="152" y1="295" x2="118" y2="184" stroke="#aaff00" stroke-width="2"/>
</g>
<g>
	<polygon points="112,271 121,271 117,279" fill="#aaff00"/>
	<line x1="152" y1="295" x2="119" y2="275" stroke="#aaff00" stroke-width="2"/>
</g>
<g>
	<polygon points="269,292 261,296 261,287" fill="#aaff00"/>
	<line x1="152" y1="295" x2="262" y2="292" stroke="#aaff00" stroke-width="2"/>
</g>
<g>
	<polygon points="217,293 209,297 209,288" fill="#aaff00"/>
	<line x1="152" y1="295" x2="210" y2="293" stroke="#aaff00" stroke-width="2"/>
</g>
<g>
	<polygon points="79,243 88,245 82,252" fill="#aaff00"/>
	<line x1="109" y1="269" x2="84" y2="248" stroke="#aaff00" stroke-width="2"/>
</g>
<g>
	<polygon points="309,253 307,262 301,255" fill="#aaff00"/>
	<line x1="274" y1="292" x2="305" y2="258" stroke="#aaff00" stroke-width="2"/>
</g>
<g>
	<polygon points="292,174 292,183 284,179" fill="#aaff00"/>
	<line x1="274" y1="207" x2="289" y2="181" stroke="#aaff00" stroke-width="2"/>
</g>
<g>
	<polygon points="328,193 322,199 319,190" fill="#aaff00"/>
	<line x1="274" y1="207" x2="321" y2="194" stroke="#aaff00" stroke-width="2"/>
</g>
<g>
	<polygon points="321,124 321,133 313,129" fill="#aaff00"/>
	<line x1="274" y1="207" x2="318" y2="131" stroke="#aaff00" stroke-width="2"/>
</g>
<g>
	<polygon points="293,77 296,85 287,84" fill="#aaff00"/>
	<line x1="274" y1="207" x2="292" y2="84" stroke="#aaff00" stroke-width="2"/>
</g>
<g>
	<polygon points="270,124 275,132 266,132" fill="#aaff00"/>
	<line x1="274" y1="207" x2="270" y2="131" stroke="#aaff00" stroke-width="2"/>
</g>
<g>
	<polygon points="245,194 254,193 250,201" fill="#aaff00"/>
	<line x1="274" y1="207" x2="251" y2="197" stroke="#aaff00" stroke-width="2"/>
</g>
<g>
	<polygon points="208,192 216,189 214,198" fill="#aaff00"/>
	<line x1="274" y1="207" x2="215" y2="193" stroke="#aaff00" stroke-width="2"/>
</g>
<g>
	<polygon points="174,164 183,163 179,171" fill="#aaff00"/>
	<line x1="274" y1="207" x2="180" y2="167" stroke="#aaff00" stroke-width="2"/>
</g>
<g>
	<polygon points="274,287 269,279 278,279" fill="#aaff00"/>
	<line x1="274" y1="207" x2="274" y2="280" stroke="#aaff00" stroke-width="2"/>
</g>
<g>
	<polygon points="224,289 224,280 232,284" fill="#aaff00"/>
	<line x1="274" y1="207" x2="228" y2="282" stroke="#aaff00" stroke-width="2"/>
</g>
<g>
	<polygon points="312,245 305,239 314,237" fill="#aaff00"/>
	<line x1="295" y1="171" x2="310" y2="238" stroke="#aaff00" stroke-width="2"/>
</g>
<g>
	<polygon points="377,195 369,199 370,190" fill="#aaff00"/>
	<line x1="333" y1="192" x2="370" y2="195" stroke="#aaff00" stroke-width="2"/>
</g>
<g>
	<polygon points="380,115 373,120 372,111" fill="#aaff00"/>
	<line x1="324" y1="121" x2="373" y2="116" stroke="#aaff00" stroke-width="2"/>
</g>
<g>
	<polygon points="350,49 345,56 341,48" fill="#aaff00"/>
	<line x1="294" y1="73" x2="344" y2="52" stroke="#aaff00" stroke-width="2"/>
</g>
<g>
	<polygon points="298,16 302,24 293,23" fill="#aaff00"/>
	<line x1="294" y1="73" x2="298" y2="23" stroke="#aaff00" stroke-width="2"/>
</g>
<g>
	<polygon points="223,69 231,71 225,78" fill="#aaff00"/>
	<line x1="270" y1="120" x2="227" y2="74" stroke="#aaff00" stroke-width="2"/>
</g>
<g>
	<polygon points="238,119 246,114 246,123" fill="#aaff00"/>
	<line x1="270" y1="120" x2="245" y2="119" stroke="#aaff00" stroke-width="2"/>
</g>
<g>
	<polygon points="253,153 252,144 260,149" fill="#aaff00"/>
	<line x1="270" y1="120" x2="256" y2="147" stroke="#aaff00" stroke-width="2"/>
</g>
<g>
	<polygon points="249,162 251,171 243,168" fill="#aaff00"/>
	<line x1="241" y1="193" x2="247" y2="169" stroke="#aaff00" stroke-width="2"/>
</g>
<g>
	<polygon points="237,234 233,226 242,227" fill="#aaff00"/>
	<line x1="241" y1="193" x2="238" y2="227" stroke="#aaff00" stroke-width="2"/>
</g>
<g>
	<polygon points="196,250 193,242 201,243" fill="#aaff00"/>
	<line x1="204" y1="191" x2="197" y2="243" stroke="#aaff00" stroke-width="2"/>
</g>
<g>
	<polygon points="174,211 178,203 183,210" fill="#aaff00"/>
	<line x1="204" y1="191" x2="180" y2="207" stroke="#aaff00" stroke-width="2"/>
</g>
<g>
	<polygon points="155,245 155,236 163,240" fill="#aaff00"/>
	<line x1="171" y1="214" x2="158" y2="239" stroke="#aaff00" stroke-width="2"/>
</g>
<g>
	<polygon points="129,208 131,199 138,205" fill="#aaff00"/>
	<line x1="170" y1="163" x2="134" y2="203" stroke="#aaff00" stroke-width="2"/>
</g>
<g>
	<polygon points="145,125 153,129 146,134" fill="#aaff00"/>
	<line x1="170" y1="163" x2="149" y2="131" stroke="#aaff00" stroke-width="2"/>
</g>
<g>
	<polygon points="216,68 212,76 207,69" fill="#aaff00"/>
	<line x1="143" y1="122" x2="210" y2="72" stroke="#aaff00" stroke-width="2"/>
</g>
<g>
	<polygon points="81,173 84,164 90,171" fill="#aaff00"/>
	<line x1="143" y1="122" x2="86" y2="168" stroke="#aaff00" stroke-width="2"/>
</g>
<g>
	<polygon points="148,292 139,292 143,284" fill="#aaff00"/>
	<line x1="31" y1="222" x2="141" y2="288" stroke="#aaff00" stroke-width="2"/>
</g>
<g>
	<polygon points="79,121 75,113 84,114" fill="#aaff00"/>
	<line x1="83" y1="78" x2="79" y2="114" stroke="#aaff00" stroke-width="2"/>
</g>
<g>
	<polygon points="165,34 160,41 156,33" fill="#aaff00"/>
	<line x1="83" y1="78" x2="158" y2="37" stroke="#aaff00" stroke-width="2"/>
</g>
<g>
	<polygon points="128,66 122,72 119,63" fill="#aaff00"/>
	<line x1="83" y1="78" x2="121" y2="67" stroke="#aaff00" stroke-width="2"/>
</g>
<g>
	<polygon points="32,217 30,208 39,211" fill="#aaff00"/>
	<line x1="83" y1="78" x2="34" y2="211" stroke="#aaff00" stroke-width="2"/>
</g>
<g>
	<polygon points="44,22 52,26 45,31" fill="#aaff00"/>
	<line x1="83" y1="78" x2="48" y2="28" stroke="#aaff00" stroke-width="2"/>
</g>
<g>
	<polygon points="229,7 224,14 220,6" fill="#aaff00"/>
	<line x1="169" y1="32" x2="223" y2="10" stroke="#aaff00" stroke-width="2"/>
</g>
<g>
	<polygon points="197,115 188,113 194,106" fill="#aaff00"/>
	<line x1="133" y1="65" x2="191" y2="110" stroke="#aaff00" stroke-width="2"/>
</g>
<g>
	<polygon points="15,108 10,100 19,100" fill="#aaff00"/>
	<line x1="15" y1="61" x2="15" y2="101" stroke="#aaff00" stroke-width="2"/>
</g>
<g>
	<polygon points="17,57 17,48 25,53" fill="#aaff00"/>
	<line x1="42" y1="19" x2="21" y2="51" stroke="#aaff00" stroke-width="2"/>
</g>

<g fill="#000000">
	<circle cx="200" cy="117" r="4"/>
</g>
<g fill="#000000">
	<circle cx="78" cy="125" r="4"/>
</g>
<g fill="#000000">
	<circle cx="195" cy="254" r="4"/>
</g>
<g fill="#000000">
	<circle cx="294" cy="170" r="4"/>
</g>
<g fill="#000000">
	<circle cx="332" cy="191" r="4"/>
</g>
<g fill="#000000">
	<circle cx="323" cy="120" r="4"/>
</g>
<g fill="#000000">
	<circle cx="293" cy="72" r="4"/>
</g>
<g fill="#000000">
	<circle cx="168" cy="31" r="4"/>
</g>
<g fill="#000000">
	<circle cx="269" cy="119" r="4"/>
</g>
<g fill="#000000">
	<circle cx="240" cy="192" r="4"/>
</g>
<g fill="#000000">
	<circle cx="203" cy="190" r="4"/>
</g>
<g fill="#000000">
	<circle cx="169" cy="162" r="4"/>
</g>
<g fill="#000000">
	<circle cx="114" cy="172" r="4"/>
</g>
<g fill="#000000">
	<circle cx="132" cy="64" r="4"/>
</g>
<g fill="#000000">
	<circle cx="75" cy="240" r="4"/>
</g>
<g fill="#000000">
	<circle cx="312" cy="249" r="4"/>
</g>
<g fill="#000000">
	<circle cx="381" cy="195" r="4"/>
</g>
<g fill="#000000">
	<circle cx="384" cy="114" r="4"/>
</g>
<g fill="#000000">
	<circle cx="354" cy="47" r="4"/>
</g>
<g fill="#000000">
	<circle cx="298" cy="11" r="4"/>
</g>
<g fill="#000000">
	<circle cx="233" cy="5" r="4"/>
</g>
<g fill="#000000">
	<circle cx="219" cy="65" r="4"/>
</g>
<g fill="#000000">
	<circle cx="233" cy="118" r="4"/>
</g>
<g fill="#000000">
	<circle cx="250" cy="157" r="4"/>
</g>
<g fill="#000000">
	<circle cx="236" cy="238" r="4"/>
</g>
<g fill="#000000">
	<circle cx="153" cy="249" r="4"/>
</g>
<g fill="#000000">
	<circle cx="170" cy="213" r="4"/>
</g>
<g fill="#000000">
	<circle cx="126" cy="211" r="4"/>
</g>
<g fill="#000000">
	<circle cx="142" cy="121" r="4"/>
</g>
<g fill="#000000">
	<circle cx="77" cy="175" r="4"/>
</g>
<g fill="#000000">
	<circle cx="108" cy="268" r="4"/>
</g>
<g fill="#000000">
	<circle cx="151" cy="294" r="4"/>
</g>
<g fill="#000000">
	<circle cx="273" cy="291" r="4"/>
</g>
<g fill="#000000">
	<circle cx="221" cy="292" r="4"/>
</g>
<g fill="#000000">
	<circle cx="30" cy="221" r="4"/>
</g>
<g fill="#000000">
	<circle cx="273" cy="206" r="4"/>
</g>
<g fill="#000000">
	<circle cx="82" cy="77" r="4"/>
</g>
<g fill="#000000">
	<circle cx="41" cy="18" r="4"/>
</g>
<g fill="#000000">
	<circle cx="14" cy="60" r="4"/>
</g>
<g fill="#000000">
	<circle cx="14" cy="112" r="4"/>
</g>

</g>

</svg>
