<?xml version="1.0" encoding="utf-8"?>
<!-- Created with Hypercube (http://tumic.wz.cz/hypercube) -->

<svg width="400" height="300" viewBox="0 0 400 300" xmlns="http://www.w3.org/2000/svg" baseProfile="tiny">

<g font-family="Helvetica" font-weight="normal">

<g>
	<polygon points="51,295 43,299 43,290" fill="#aaff00"/>
	<line x1="5" y1="295" x2="44" y2="295" stroke="#aaff00" stroke-width="2"/>
</g>
<g>
	<polygon points="92,276 88,283 84,275" fill="#aaff00"/>
	<line x1="56" y1="295" x2="86" y2="279" stroke="#aaff00" stroke-width="2"/>
</g>
<g>
	<polygon points="111,227 113,236 105,233" fill="#aaff00"/>
	<line x1="97" y1="274" x2="109" y2="234" stroke="#aaff00" stroke-width="2"/>
</g>
<g>
	<polygon points="161,165 159,174 152,168" fill="#aaff00"/>
	<line x1="113" y1="223" x2="156" y2="170" stroke="#aaff00" stroke-width="2"/>
</g>
<g>
	<polygon points="165,112 170,120 161,120" fill="#aaff00"/>
	<line x1="164" y1="162" x2="165" y2="119" stroke="#aaff00" stroke-width="2"/>
</g>
<g>
	<polygon points="301,185 293,188 294,179" fill="#aaff00"/>
	<line x1="164" y1="162" x2="294" y2="184" stroke="#aaff00" stroke-width="2"/>
</g>
<g>
	<polygon points="100,134 109,133 105,141" fill="#aaff00"/>
	<line x1="164" y1="162" x2="106" y2="137" stroke="#aaff00" stroke-width="2"/>
</g>
<g>
	<polygon points="187,68 187,77 180,73" fill="#aaff00"/>
	<line x1="166" y1="108" x2="184" y2="75" stroke="#aaff00" stroke-width="2"/>
</g>
<g>
	<polygon points="265,53 258,59 257,50" fill="#aaff00"/>
	<line x1="190" y1="65" x2="258" y2="54" stroke="#aaff00" stroke-width="2"/>
</g>
<g>
	<polygon points="116,52 124,49 123,58" fill="#aaff00"/>
	<line x1="190" y1="65" x2="123" y2="53" stroke="#aaff00" stroke-width="2"/>
</g>
<g>
	<polygon points="270,95 265,87 274,87" fill="#aaff00"/>
	<line x1="270" y1="53" x2="270" y2="88" stroke="#aaff00" stroke-width="2"/>
</g>
<g>
	<polygon points="236,133 238,125 244,131" fill="#aaff00"/>
	<line x1="270" y1="100" x2="241" y2="128" stroke="#aaff00" stroke-width="2"/>
</g>
<g>
	<polygon points="300,133 291,130 298,124" fill="#aaff00"/>
	<line x1="270" y1="100" x2="295" y2="128" stroke="#aaff00" stroke-width="2"/>
</g>
<g>
	<polygon points="217,183 215,174 224,177" fill="#aaff00"/>
	<line x1="233" y1="137" x2="219" y2="176" stroke="#aaff00" stroke-width="2"/>
</g>
<g>
	<polygon points="165,221 169,213 174,220" fill="#aaff00"/>
	<line x1="216" y1="188" x2="171" y2="217" stroke="#aaff00" stroke-width="2"/>
</g>
<g>
	<polygon points="266,213 257,213 261,205" fill="#aaff00"/>
	<line x1="216" y1="188" x2="260" y2="209" stroke="#aaff00" stroke-width="2"/>
</g>
<g>
	<polygon points="82,182 91,181 87,189" fill="#aaff00"/>
	<line x1="162" y1="224" x2="89" y2="185" stroke="#aaff00" stroke-width="2"/>
</g>
<g>
	<polygon points="94,137 96,146 87,143" fill="#aaff00"/>
	<line x1="79" y1="180" x2="92" y2="143" stroke="#aaff00" stroke-width="2"/>
</g>
<g>
	<polygon points="22,146 31,146 27,154" fill="#aaff00"/>
	<line x1="79" y1="180" x2="29" y2="150" stroke="#aaff00" stroke-width="2"/>
</g>
<g>
	<polygon points="92,130 83,130 87,122" fill="#aaff00"/>
	<line x1="40" y1="100" x2="85" y2="127" stroke="#aaff00" stroke-width="2"/>
</g>
<g>
	<polygon points="38,104 38,113 30,109" fill="#aaff00"/>
	<line x1="19" y1="144" x2="34" y2="110" stroke="#aaff00" stroke-width="2"/>
</g>
<g>
	<polygon points="335,244 326,245 330,236" fill="#aaff00"/>
	<line x1="271" y1="215" x2="329" y2="241" stroke="#aaff00" stroke-width="2"/>
</g>
<g>
	<polygon points="391,290 382,288 388,281" fill="#aaff00"/>
	<line x1="340" y1="246" x2="386" y2="285" stroke="#aaff00" stroke-width="2"/>
</g>
<g>
	<polygon points="395,240 399,248 390,248" fill="#aaff00"/>
	<line x1="395" y1="293" x2="395" y2="247" stroke="#aaff00" stroke-width="2"/>
</g>
<g>
	<polygon points="395,192 399,200 390,200" fill="#aaff00"/>
	<line x1="395" y1="236" x2="395" y2="199" stroke="#aaff00" stroke-width="2"/>
</g>
<g>
	<polygon points="309,188 318,188 314,195" fill="#aaff00"/>
	<line x1="395" y1="236" x2="316" y2="191" stroke="#aaff00" stroke-width="2"/>
</g>
<g>
	<polygon points="364,206 372,208 366,214" fill="#aaff00"/>
	<line x1="395" y1="236" x2="369" y2="211" stroke="#aaff00" stroke-width="2"/>
</g>
<g>
	<polygon points="365,201 370,193 374,202" fill="#aaff00"/>
	<line x1="395" y1="188" x2="371" y2="198" stroke="#aaff00" stroke-width="2"/>
</g>
<g>
	<polygon points="341,241 341,232 349,236" fill="#aaff00"/>
	<line x1="390" y1="141" x2="345" y2="235" stroke="#aaff00" stroke-width="2"/>
</g>
<g>
	<polygon points="387,137 379,133 386,128" fill="#aaff00"/>
	<line x1="361" y1="102" x2="383" y2="131" stroke="#aaff00" stroke-width="2"/>
</g>
<g>
	<polygon points="357,104 352,112 348,104" fill="#aaff00"/>
	<line x1="303" y1="137" x2="350" y2="108" stroke="#aaff00" stroke-width="2"/>
</g>
<g>
	<polygon points="231,234 232,225 239,230" fill="#aaff00"/>
	<line x1="303" y1="137" x2="235" y2="228" stroke="#aaff00" stroke-width="2"/>
</g>
<g>
	<polygon points="225,290 221,282 230,283" fill="#aaff00"/>
	<line x1="229" y1="238" x2="225" y2="283" stroke="#aaff00" stroke-width="2"/>
</g>
<g>
	<polygon points="263,295 255,299 255,290" fill="#aaff00"/>
	<line x1="225" y1="295" x2="256" y2="295" stroke="#aaff00" stroke-width="2"/>
</g>
<g>
	<polygon points="287,264 282,272 278,264" fill="#aaff00"/>
	<line x1="225" y1="295" x2="281" y2="268" stroke="#aaff00" stroke-width="2"/>
</g>
<g>
	<polygon points="324,295 316,299 316,290" fill="#aaff00"/>
	<line x1="268" y1="295" x2="317" y2="295" stroke="#aaff00" stroke-width="2"/>
</g>
<g>
	<polygon points="339,250 341,258 332,257" fill="#aaff00"/>
	<line x1="329" y1="295" x2="337" y2="257" stroke="#aaff00" stroke-width="2"/>
</g>
<g>
	<polygon points="335,247 329,254 326,245" fill="#aaff00"/>
	<line x1="292" y1="263" x2="328" y2="249" stroke="#aaff00" stroke-width="2"/>
</g>
<g>
	<polygon points="274,51 279,43 283,52" fill="#aaff00"/>
	<line x1="343" y1="21" x2="280" y2="48" stroke="#aaff00" stroke-width="2"/>
</g>
<g>
	<polygon points="338,19 329,20 333,12" fill="#aaff00"/>
	<line x1="300" y1="5" x2="332" y2="16" stroke="#aaff00" stroke-width="2"/>
</g>
<g>
	<polygon points="295,5 287,9 287,0" fill="#aaff00"/>
	<line x1="243" y1="5" x2="288" y2="5" stroke="#aaff00" stroke-width="2"/>
</g>
<g>
	<polygon points="238,5 230,9 230,0" fill="#aaff00"/>
	<line x1="188" y1="5" x2="231" y2="5" stroke="#aaff00" stroke-width="2"/>
</g>
<g>
	<polygon points="183,5 175,9 175,0" fill="#aaff00"/>
	<line x1="135" y1="5" x2="176" y2="5" stroke="#aaff00" stroke-width="2"/>
</g>
<g>
	<polygon points="130,5 122,9 122,0" fill="#aaff00"/>
	<line x1="80" y1="5" x2="123" y2="5" stroke="#aaff00" stroke-width="2"/>
</g>
<g>
	<polygon points="82,8 90,12 83,17" fill="#aaff00"/>
	<line x1="112" y1="52" x2="86" y2="14" stroke="#aaff00" stroke-width="2"/>
</g>
<g>
	<polygon points="5,290 0,282 9,282" fill="#aaff00"/>
	<line x1="5" y1="248" x2="5" y2="283" stroke="#aaff00" stroke-width="2"/>
</g>
<g>
	<polygon points="5,243 0,235 9,235" fill="#aaff00"/>
	<line x1="5" y1="202" x2="5" y2="236" stroke="#aaff00" stroke-width="2"/>
</g>

<g fill="#000000">
	<circle cx="4" cy="201" r="4"/>
</g>
<g fill="#000000">
	<circle cx="4" cy="294" r="4"/>
</g>
<g fill="#000000">
	<circle cx="55" cy="294" r="4"/>
</g>
<g fill="#000000">
	<circle cx="96" cy="273" r="4"/>
</g>
<g fill="#000000">
	<circle cx="112" cy="222" r="4"/>
</g>
<g fill="#000000">
	<circle cx="163" cy="161" r="4"/>
</g>
<g fill="#000000">
	<circle cx="165" cy="107" r="4"/>
</g>
<g fill="#000000">
	<circle cx="189" cy="64" r="4"/>
</g>
<g fill="#000000">
	<circle cx="269" cy="52" r="4"/>
</g>
<g fill="#000000">
	<circle cx="111" cy="51" r="4"/>
</g>
<g fill="#000000">
	<circle cx="269" cy="99" r="4"/>
</g>
<g fill="#000000">
	<circle cx="79" cy="4" r="4"/>
</g>
<g fill="#000000">
	<circle cx="134" cy="4" r="4"/>
</g>
<g fill="#000000">
	<circle cx="187" cy="4" r="4"/>
</g>
<g fill="#000000">
	<circle cx="242" cy="4" r="4"/>
</g>
<g fill="#000000">
	<circle cx="299" cy="4" r="4"/>
</g>
<g fill="#000000">
	<circle cx="342" cy="20" r="4"/>
</g>
<g fill="#000000">
	<circle cx="232" cy="136" r="4"/>
</g>
<g fill="#000000">
	<circle cx="302" cy="136" r="4"/>
</g>
<g fill="#000000">
	<circle cx="215" cy="187" r="4"/>
</g>
<g fill="#000000">
	<circle cx="360" cy="101" r="4"/>
</g>
<g fill="#000000">
	<circle cx="228" cy="237" r="4"/>
</g>
<g fill="#000000">
	<circle cx="389" cy="140" r="4"/>
</g>
<g fill="#000000">
	<circle cx="224" cy="294" r="4"/>
</g>
<g fill="#000000">
	<circle cx="267" cy="294" r="4"/>
</g>
<g fill="#000000">
	<circle cx="291" cy="262" r="4"/>
</g>
<g fill="#000000">
	<circle cx="328" cy="294" r="4"/>
</g>
<g fill="#000000">
	<circle cx="339" cy="245" r="4"/>
</g>
<g fill="#000000">
	<circle cx="394" cy="292" r="4"/>
</g>
<g fill="#000000">
	<circle cx="394" cy="235" r="4"/>
</g>
<g fill="#000000">
	<circle cx="394" cy="187" r="4"/>
</g>
<g fill="#000000">
	<circle cx="305" cy="185" r="4"/>
</g>
<g fill="#000000">
	<circle cx="360" cy="202" r="4"/>
</g>
<g fill="#000000">
	<circle cx="161" cy="223" r="4"/>
</g>
<g fill="#000000">
	<circle cx="270" cy="214" r="4"/>
</g>
<g fill="#000000">
	<circle cx="78" cy="179" r="4"/>
</g>
<g fill="#000000">
	<circle cx="95" cy="132" r="4"/>
</g>
<g fill="#000000">
	<circle cx="18" cy="143" r="4"/>
</g>
<g fill="#000000">
	<circle cx="39" cy="99" r="4"/>
</g>
<g fill="#000000">
	<circle cx="4" cy="247" r="4"/>
</g>

</g>

</svg>
