<?xml version="1.0" encoding="utf-8"?>
<!-- Created with Hypercube (http://tumic.wz.cz/hypercube) -->

<svg width="400" height="300" viewBox="0 0 400 300" xmlns="http://www.w3.org/2000/svg" baseProfile="tiny">

<g font-family="Helvetica" font-weight="normal">

<g>
	<polygon points="352,293 360,289 360,298" fill="#aaff00"/>
	<line x1="395" y1="295" x2="359" y2="293" stroke="#aaff00" stroke-width="2"/>
</g>
<g>
	<polygon points="300,294 308,290 308,299" fill="#aaff00"/>
	<line x1="348" y1="293" x2="307" y2="294" stroke="#aaff00" stroke-width="2"/>
</g>
<g>
	<polygon points="322,251 330,256 322,260" fill="#aaff00"/>
	<line x1="348" y1="293" x2="326" y2="257" stroke="#aaff00" stroke-width="2"/>
</g>
<g>
	<polygon points="235,295 243,290 243,299" fill="#aaff00"/>
	<line x1="296" y1="295" x2="242" y2="295" stroke="#aaff00" stroke-width="2"/>
</g>
<g>
	<polygon points="234,291 236,283 243,289" fill="#aaff00"/>
	<line x1="263" y1="265" x2="239" y2="287" stroke="#aaff00" stroke-width="2"/>
</g>
<g>
	<polygon points="267,263 273,257 276,265" fill="#aaff00"/>
	<line x1="320" y1="248" x2="274" y2="261" stroke="#aaff00" stroke-width="2"/>
</g>
<g>
	<polygon points="291,210 300,214 292,219" fill="#aaff00"/>
	<line x1="320" y1="248" x2="296" y2="216" stroke="#aaff00" stroke-width="2"/>
</g>
<g>
	<polygon points="235,216 242,210 243,219" fill="#aaff00"/>
	<line x1="289" y1="207" x2="242" y2="215" stroke="#aaff00" stroke-width="2"/>
</g>
<g>
	<polygon points="268,165 275,169 267,174" fill="#aaff00"/>
	<line x1="289" y1="207" x2="271" y2="171" stroke="#aaff00" stroke-width="2"/>
</g>
<g>
	<polygon points="263,164 263,173 255,169" fill="#aaff00"/>
	<line x1="231" y1="217" x2="259" y2="170" stroke="#aaff00" stroke-width="2"/>
</g>
<g>
	<polygon points="188,264 190,255 197,261" fill="#aaff00"/>
	<line x1="231" y1="217" x2="193" y2="259" stroke="#aaff00" stroke-width="2"/>
</g>
<g>
	<polygon points="218,155 226,151 225,160" fill="#aaff00"/>
	<line x1="266" y1="161" x2="225" y2="156" stroke="#aaff00" stroke-width="2"/>
</g>
<g>
	<polygon points="342,160 334,164 334,155" fill="#aaff00"/>
	<line x1="266" y1="161" x2="335" y2="160" stroke="#aaff00" stroke-width="2"/>
</g>
<g>
	<polygon points="256,113 262,120 253,121" fill="#aaff00"/>
	<line x1="266" y1="161" x2="258" y2="120" stroke="#aaff00" stroke-width="2"/>
</g>
<g>
	<polygon points="209,111 218,113 212,120" fill="#aaff00"/>
	<line x1="266" y1="161" x2="214" y2="116" stroke="#aaff00" stroke-width="2"/>
</g>
<g>
	<polygon points="81,150 89,145 89,154" fill="#aaff00"/>
	<line x1="214" y1="155" x2="88" y2="150" stroke="#aaff00" stroke-width="2"/>
</g>
<g>
	<polygon points="318,59 315,67 309,60" fill="#aaff00"/>
	<line x1="214" y1="155" x2="313" y2="63" stroke="#aaff00" stroke-width="2"/>
</g>
<g>
	<polygon points="23,172 28,165 32,173" fill="#aaff00"/>
	<line x1="77" y1="150" x2="29" y2="169" stroke="#aaff00" stroke-width="2"/>
</g>
<g>
	<polygon points="8,78 16,80 10,86" fill="#aaff00"/>
	<line x1="77" y1="150" x2="13" y2="83" stroke="#aaff00" stroke-width="2"/>
</g>
<g>
	<polygon points="40,117 41,126 33,122" fill="#aaff00"/>
	<line x1="19" y1="174" x2="37" y2="123" stroke="#aaff00" stroke-width="2"/>
</g>
<g>
	<polygon points="31,234 25,227 34,226" fill="#aaff00"/>
	<line x1="19" y1="174" x2="29" y2="227" stroke="#aaff00" stroke-width="2"/>
</g>
<g>
	<polygon points="56,59 59,68 50,65" fill="#aaff00"/>
	<line x1="42" y1="113" x2="54" y2="66" stroke="#aaff00" stroke-width="2"/>
</g>
<g>
	<polygon points="89,99 83,105 80,97" fill="#aaff00"/>
	<line x1="42" y1="113" x2="82" y2="101" stroke="#aaff00" stroke-width="2"/>
</g>
<g>
	<polygon points="111,52 103,57 103,48" fill="#aaff00"/>
	<line x1="58" y1="55" x2="104" y2="52" stroke="#aaff00" stroke-width="2"/>
</g>
<g>
	<polygon points="143,8 143,17 135,12" fill="#aaff00"/>
	<line x1="116" y1="52" x2="139" y2="14" stroke="#aaff00" stroke-width="2"/>
</g>
<g>
	<polygon points="162,50 154,54 154,45" fill="#aaff00"/>
	<line x1="116" y1="52" x2="155" y2="50" stroke="#aaff00" stroke-width="2"/>
</g>
<g>
	<polygon points="194,5 186,9 186,0" fill="#aaff00"/>
	<line x1="146" y1="5" x2="187" y2="5" stroke="#aaff00" stroke-width="2"/>
</g>
<g>
	<polygon points="227,47 219,43 226,38" fill="#aaff00"/>
	<line x1="199" y1="5" x2="223" y2="41" stroke="#aaff00" stroke-width="2"/>
</g>
<g>
	<polygon points="268,69 259,69 263,61" fill="#aaff00"/>
	<line x1="230" y1="51" x2="262" y2="66" stroke="#aaff00" stroke-width="2"/>
</g>
<g>
	<polygon points="254,104 246,99 255,95" fill="#aaff00"/>
	<line x1="230" y1="51" x2="251" y2="98" stroke="#aaff00" stroke-width="2"/>
</g>
<g>
	<polygon points="257,104 256,95 265,99" fill="#aaff00"/>
	<line x1="273" y1="71" x2="260" y2="98" stroke="#aaff00" stroke-width="2"/>
</g>
<g>
	<polygon points="210,109 218,104 218,113" fill="#aaff00"/>
	<line x1="256" y1="109" x2="217" y2="109" stroke="#aaff00" stroke-width="2"/>
</g>
<g>
	<polygon points="168,135 172,127 177,134" fill="#aaff00"/>
	<line x1="206" y1="109" x2="174" y2="131" stroke="#aaff00" stroke-width="2"/>
</g>
<g>
	<polygon points="227,54 226,63 219,58" fill="#aaff00"/>
	<line x1="127" y1="188" x2="222" y2="60" stroke="#aaff00" stroke-width="2"/>
</g>
<g>
	<polygon points="123,190 118,198 114,190" fill="#aaff00"/>
	<line x1="77" y1="217" x2="116" y2="193" stroke="#aaff00" stroke-width="2"/>
</g>
<g>
	<polygon points="72,218 67,226 63,218" fill="#aaff00"/>
	<line x1="32" y1="239" x2="66" y2="222" stroke="#aaff00" stroke-width="2"/>
</g>
<g>
	<polygon points="85,264 76,264 80,256" fill="#aaff00"/>
	<line x1="32" y1="239" x2="79" y2="261" stroke="#aaff00" stroke-width="2"/>
</g>
<g>
	<polygon points="125,192 125,201 117,197" fill="#aaff00"/>
	<line x1="90" y1="266" x2="121" y2="198" stroke="#aaff00" stroke-width="2"/>
</g>
<g>
	<polygon points="225,49 216,51 219,42" fill="#aaff00"/>
	<line x1="90" y1="5" x2="218" y2="47" stroke="#aaff00" stroke-width="2"/>
</g>
<g>
	<polygon points="85,5 77,10 77,1" fill="#aaff00"/>
	<line x1="14" y1="9" x2="78" y2="5" stroke="#aaff00" stroke-width="2"/>
</g>
<g>
	<polygon points="13,13 16,21 7,20" fill="#aaff00"/>
	<line x1="5" y1="75" x2="12" y2="20" stroke="#aaff00" stroke-width="2"/>
</g>
<g>
	<polygon points="233,48 236,39 242,46" fill="#aaff00"/>
	<line x1="282" y1="5" x2="238" y2="43" stroke="#aaff00" stroke-width="2"/>
</g>
<g>
	<polygon points="286,5 294,0 294,9" fill="#aaff00"/>
	<line x1="323" y1="6" x2="293" y2="5" stroke="#aaff00" stroke-width="2"/>
</g>
<g>
	<polygon points="322,10 327,18 318,18" fill="#aaff00"/>
	<line x1="322" y1="56" x2="322" y2="17" stroke="#aaff00" stroke-width="2"/>
</g>
<g>
	<polygon points="366,10 364,18 358,12" fill="#aaff00"/>
	<line x1="322" y1="56" x2="361" y2="15" stroke="#aaff00" stroke-width="2"/>
</g>
<g>
	<polygon points="286,5 294,0 294,9" fill="#aaff00"/>
	<line x1="370" y1="7" x2="293" y2="5" stroke="#aaff00" stroke-width="2"/>
</g>
<g>
	<polygon points="234,52 243,52 239,60" fill="#aaff00"/>
	<line x1="344" y1="103" x2="240" y2="55" stroke="#aaff00" stroke-width="2"/>
</g>
<g>
	<polygon points="346,106 355,109 348,115" fill="#aaff00"/>
	<line x1="395" y1="162" x2="351" y2="111" stroke="#aaff00" stroke-width="2"/>
</g>
<g>
	<polygon points="390,161 382,165 382,156" fill="#aaff00"/>
	<line x1="347" y1="160" x2="383" y2="161" stroke="#aaff00" stroke-width="2"/>
</g>
<g>
	<polygon points="392,108 390,117 383,111" fill="#aaff00"/>
	<line x1="347" y1="160" x2="387" y2="113" stroke="#aaff00" stroke-width="2"/>
</g>
<g>
	<polygon points="348,103 356,98 356,107" fill="#aaff00"/>
	<line x1="395" y1="105" x2="355" y2="103" stroke="#aaff00" stroke-width="2"/>
</g>
<g>
	<polygon points="196,8 195,17 188,12" fill="#aaff00"/>
	<line x1="167" y1="50" x2="192" y2="14" stroke="#aaff00" stroke-width="2"/>
</g>
<g>
	<polygon points="114,56 114,65 106,61" fill="#aaff00"/>
	<line x1="94" y1="98" x2="110" y2="62" stroke="#aaff00" stroke-width="2"/>
</g>
<g>
	<polygon points="227,292 218,292 222,284" fill="#aaff00"/>
	<line x1="186" y1="268" x2="220" y2="288" stroke="#aaff00" stroke-width="2"/>
</g>

<g fill="#000000">
	<circle cx="394" cy="294" r="4"/>
</g>
<g fill="#000000">
	<circle cx="347" cy="292" r="4"/>
</g>
<g fill="#000000">
	<circle cx="295" cy="294" r="4"/>
</g>
<g fill="#000000">
	<circle cx="319" cy="247" r="4"/>
</g>
<g fill="#000000">
	<circle cx="262" cy="264" r="4"/>
</g>
<g fill="#000000">
	<circle cx="288" cy="206" r="4"/>
</g>
<g fill="#000000">
	<circle cx="230" cy="216" r="4"/>
</g>
<g fill="#000000">
	<circle cx="265" cy="160" r="4"/>
</g>
<g fill="#000000">
	<circle cx="213" cy="154" r="4"/>
</g>
<g fill="#000000">
	<circle cx="76" cy="149" r="4"/>
</g>
<g fill="#000000">
	<circle cx="18" cy="173" r="4"/>
</g>
<g fill="#000000">
	<circle cx="41" cy="112" r="4"/>
</g>
<g fill="#000000">
	<circle cx="57" cy="54" r="4"/>
</g>
<g fill="#000000">
	<circle cx="93" cy="97" r="4"/>
</g>
<g fill="#000000">
	<circle cx="115" cy="51" r="4"/>
</g>
<g fill="#000000">
	<circle cx="145" cy="4" r="4"/>
</g>
<g fill="#000000">
	<circle cx="166" cy="49" r="4"/>
</g>
<g fill="#000000">
	<circle cx="198" cy="4" r="4"/>
</g>
<g fill="#000000">
	<circle cx="31" cy="238" r="4"/>
</g>
<g fill="#000000">
	<circle cx="76" cy="216" r="4"/>
</g>
<g fill="#000000">
	<circle cx="89" cy="265" r="4"/>
</g>
<g fill="#000000">
	<circle cx="126" cy="187" r="4"/>
</g>
<g fill="#000000">
	<circle cx="4" cy="74" r="4"/>
</g>
<g fill="#000000">
	<circle cx="164" cy="137" r="4"/>
</g>
<g fill="#000000">
	<circle cx="13" cy="8" r="4"/>
</g>
<g fill="#000000">
	<circle cx="89" cy="4" r="4"/>
</g>
<g fill="#000000">
	<circle cx="321" cy="55" r="4"/>
</g>
<g fill="#000000">
	<circle cx="322" cy="5" r="4"/>
</g>
<g fill="#000000">
	<circle cx="369" cy="6" r="4"/>
</g>
<g fill="#000000">
	<circle cx="281" cy="4" r="4"/>
</g>
<g fill="#000000">
	<circle cx="346" cy="159" r="4"/>
</g>
<g fill="#000000">
	<circle cx="394" cy="161" r="4"/>
</g>
<g fill="#000000">
	<circle cx="394" cy="104" r="4"/>
</g>
<g fill="#000000">
	<circle cx="343" cy="102" r="4"/>
</g>
<g fill="#000000">
	<circle cx="229" cy="50" r="4"/>
</g>
<g fill="#000000">
	<circle cx="272" cy="70" r="4"/>
</g>
<g fill="#000000">
	<circle cx="255" cy="108" r="4"/>
</g>
<g fill="#000000">
	<circle cx="205" cy="108" r="4"/>
</g>
<g fill="#000000">
	<circle cx="185" cy="267" r="4"/>
</g>
<g fill="#000000">
	<circle cx="230" cy="294" r="4"/>
</g>

</g>

</svg>
