<?xml version="1.0" encoding="utf-8"?>
<!-- Created with Hypercube (http://tumic.wz.cz/hypercube) -->

<svg width="400" height="300" viewBox="0 0 400 300" xmlns="http://www.w3.org/2000/svg" baseProfile="tiny">

<g font-family="Helvetica" font-weight="normal">

<g>
	<polygon points="235,7 231,15 226,8" fill="#aaff00"/>
	<line x1="190" y1="41" x2="229" y2="11" stroke="#aaff00" stroke-width="2"/>
</g>
<g>
	<polygon points="243,5 251,0 251,9" fill="#aaff00"/>
	<line x1="299" y1="5" x2="250" y2="5" stroke="#aaff00" stroke-width="2"/>
</g>
<g>
	<polygon points="303,5 311,0 311,9" fill="#aaff00"/>
	<line x1="354" y1="5" x2="310" y2="5" stroke="#aaff00" stroke-width="2"/>
</g>
<g>
	<polygon points="372,200 364,204 365,195" fill="#aaff00"/>
	<line x1="312" y1="197" x2="365" y2="200" stroke="#aaff00" stroke-width="2"/>
</g>
<g>
	<polygon points="351,96 345,102 342,93" fill="#aaff00"/>
	<line x1="291" y1="111" x2="344" y2="97" stroke="#aaff00" stroke-width="2"/>
</g>
<g>
	<polygon points="343,292 334,293 339,285" fill="#aaff00"/>
	<line x1="290" y1="266" x2="337" y2="289" stroke="#aaff00" stroke-width="2"/>
</g>
<g>
	<polygon points="133,82 139,89 131,90" fill="#aaff00"/>
	<line x1="154" y1="181" x2="135" y2="89" stroke="#aaff00" stroke-width="2"/>
</g>
<g>
	<polygon points="37,287 40,279 46,286" fill="#aaff00"/>
	<line x1="154" y1="181" x2="42" y2="283" stroke="#aaff00" stroke-width="2"/>
</g>
<g>
	<polygon points="96,115 105,118 98,124" fill="#aaff00"/>
	<line x1="154" y1="181" x2="101" y2="120" stroke="#aaff00" stroke-width="2"/>
</g>
<g>
	<polygon points="91,291 91,282 98,286" fill="#aaff00"/>
	<line x1="154" y1="181" x2="94" y2="284" stroke="#aaff00" stroke-width="2"/>
</g>
<g>
	<polygon points="188,45 191,54 182,51" fill="#aaff00"/>
	<line x1="154" y1="181" x2="187" y2="52" stroke="#aaff00" stroke-width="2"/>
</g>
<g>
	<polygon points="307,196 299,200 300,191" fill="#aaff00"/>
	<line x1="154" y1="181" x2="300" y2="195" stroke="#aaff00" stroke-width="2"/>
</g>
<g>
	<polygon points="183,290 177,284 186,281" fill="#aaff00"/>
	<line x1="154" y1="181" x2="181" y2="283" stroke="#aaff00" stroke-width="2"/>
</g>
<g>
	<polygon points="28,114 37,113 33,121" fill="#aaff00"/>
	<line x1="154" y1="181" x2="35" y2="117" stroke="#aaff00" stroke-width="2"/>
</g>
<g>
	<polygon points="217,181 209,185 209,176" fill="#aaff00"/>
	<line x1="154" y1="181" x2="210" y2="181" stroke="#aaff00" stroke-width="2"/>
</g>
<g>
	<polygon points="211,245 202,242 209,236" fill="#aaff00"/>
	<line x1="154" y1="181" x2="206" y2="240" stroke="#aaff00" stroke-width="2"/>
</g>
<g>
	<polygon points="27,170 35,166 34,175" fill="#aaff00"/>
	<line x1="154" y1="181" x2="34" y2="170" stroke="#aaff00" stroke-width="2"/>
</g>
<g>
	<polygon points="236,291 228,287 235,282" fill="#aaff00"/>
	<line x1="154" y1="181" x2="232" y2="285" stroke="#aaff00" stroke-width="2"/>
</g>
<g>
	<polygon points="184,208 175,206 181,199" fill="#aaff00"/>
	<line x1="154" y1="181" x2="179" y2="203" stroke="#aaff00" stroke-width="2"/>
</g>
<g>
	<polygon points="63,245 67,237 72,244" fill="#aaff00"/>
	<line x1="154" y1="181" x2="69" y2="241" stroke="#aaff00" stroke-width="2"/>
</g>
<g>
	<polygon points="144,137 150,143 141,145" fill="#aaff00"/>
	<line x1="154" y1="181" x2="145" y2="144" stroke="#aaff00" stroke-width="2"/>
</g>
<g>
	<polygon points="130,210 132,201 139,207" fill="#aaff00"/>
	<line x1="154" y1="181" x2="135" y2="204" stroke="#aaff00" stroke-width="2"/>
</g>
<g>
	<polygon points="113,167 122,165 119,174" fill="#aaff00"/>
	<line x1="154" y1="181" x2="120" y2="169" stroke="#aaff00" stroke-width="2"/>
</g>
<g>
	<polygon points="286,113 282,120 278,112" fill="#aaff00"/>
	<line x1="154" y1="181" x2="280" y2="116" stroke="#aaff00" stroke-width="2"/>
</g>
<g>
	<polygon points="110,248 110,239 118,244" fill="#aaff00"/>
	<line x1="154" y1="181" x2="114" y2="242" stroke="#aaff00" stroke-width="2"/>
</g>
<g>
	<polygon points="248,217 239,218 243,210" fill="#aaff00"/>
	<line x1="154" y1="181" x2="242" y2="214" stroke="#aaff00" stroke-width="2"/>
</g>
<g>
	<polygon points="286,263 277,263 281,255" fill="#aaff00"/>
	<line x1="154" y1="181" x2="280" y2="259" stroke="#aaff00" stroke-width="2"/>
</g>
<g>
	<polygon points="224,84 223,93 216,88" fill="#aaff00"/>
	<line x1="154" y1="181" x2="220" y2="90" stroke="#aaff00" stroke-width="2"/>
</g>
<g>
	<polygon points="69,150 78,148 75,157" fill="#aaff00"/>
	<line x1="154" y1="181" x2="76" y2="152" stroke="#aaff00" stroke-width="2"/>
</g>
<g>
	<polygon points="176,103 178,112 170,109" fill="#aaff00"/>
	<line x1="154" y1="181" x2="174" y2="110" stroke="#aaff00" stroke-width="2"/>
</g>
<g>
	<polygon points="116,38 122,44 113,47" fill="#aaff00"/>
	<line x1="154" y1="181" x2="117" y2="45" stroke="#aaff00" stroke-width="2"/>
</g>
<g>
	<polygon points="186,151 183,159 177,152" fill="#aaff00"/>
	<line x1="154" y1="181" x2="181" y2="155" stroke="#aaff00" stroke-width="2"/>
</g>
<g>
	<polygon points="27,217 33,211 36,219" fill="#aaff00"/>
	<line x1="154" y1="181" x2="34" y2="215" stroke="#aaff00" stroke-width="2"/>
</g>
<g>
	<polygon points="162,244 156,237 165,236" fill="#aaff00"/>
	<line x1="154" y1="181" x2="161" y2="237" stroke="#aaff00" stroke-width="2"/>
</g>
<g>
	<polygon points="229,128 225,136 220,129" fill="#aaff00"/>
	<line x1="154" y1="181" x2="223" y2="132" stroke="#aaff00" stroke-width="2"/>
</g>
<g>
	<polygon points="139,290 136,282 145,283" fill="#aaff00"/>
	<line x1="154" y1="181" x2="140" y2="283" stroke="#aaff00" stroke-width="2"/>
</g>
<g>
	<polygon points="263,164 256,170 255,161" fill="#aaff00"/>
	<line x1="154" y1="181" x2="256" y2="165" stroke="#aaff00" stroke-width="2"/>
</g>
<g>
	<polygon points="78,200 84,194 87,203" fill="#aaff00"/>
	<line x1="154" y1="181" x2="85" y2="199" stroke="#aaff00" stroke-width="2"/>
</g>
<g>
	<polygon points="67,75 76,78 69,84" fill="#aaff00"/>
	<line x1="154" y1="181" x2="72" y2="81" stroke="#aaff00" stroke-width="2"/>
</g>

<g fill="#000000">
	<circle cx="153" cy="180" r="4"/>
</g>
<g fill="#000000">
	<circle cx="132" cy="77" r="4"/>
</g>
<g fill="#000000">
	<circle cx="33" cy="290" r="4"/>
</g>
<g fill="#000000">
	<circle cx="93" cy="111" r="4"/>
</g>
<g fill="#000000">
	<circle cx="88" cy="294" r="4"/>
</g>
<g fill="#000000">
	<circle cx="189" cy="40" r="4"/>
</g>
<g fill="#000000">
	<circle cx="238" cy="4" r="4"/>
</g>
<g fill="#000000">
	<circle cx="311" cy="196" r="4"/>
</g>
<g fill="#000000">
	<circle cx="376" cy="200" r="4"/>
</g>
<g fill="#000000">
	<circle cx="184" cy="294" r="4"/>
</g>
<g fill="#000000">
	<circle cx="24" cy="111" r="4"/>
</g>
<g fill="#000000">
	<circle cx="221" cy="180" r="4"/>
</g>
<g fill="#000000">
	<circle cx="213" cy="248" r="4"/>
</g>
<g fill="#000000">
	<circle cx="22" cy="169" r="4"/>
</g>
<g fill="#000000">
	<circle cx="238" cy="294" r="4"/>
</g>
<g fill="#000000">
	<circle cx="187" cy="210" r="4"/>
</g>
<g fill="#000000">
	<circle cx="59" cy="247" r="4"/>
</g>
<g fill="#000000">
	<circle cx="142" cy="132" r="4"/>
</g>
<g fill="#000000">
	<circle cx="298" cy="4" r="4"/>
</g>
<g fill="#000000">
	<circle cx="353" cy="4" r="4"/>
</g>
<g fill="#000000">
	<circle cx="127" cy="213" r="4"/>
</g>
<g fill="#000000">
	<circle cx="108" cy="165" r="4"/>
</g>
<g fill="#000000">
	<circle cx="290" cy="110" r="4"/>
</g>
<g fill="#000000">
	<circle cx="355" cy="94" r="4"/>
</g>
<g fill="#000000">
	<circle cx="107" cy="251" r="4"/>
</g>
<g fill="#000000">
	<circle cx="252" cy="218" r="4"/>
</g>
<g fill="#000000">
	<circle cx="289" cy="265" r="4"/>
</g>
<g fill="#000000">
	<circle cx="347" cy="294" r="4"/>
</g>
<g fill="#000000">
	<circle cx="226" cy="80" r="4"/>
</g>
<g fill="#000000">
	<circle cx="64" cy="148" r="4"/>
</g>
<g fill="#000000">
	<circle cx="177" cy="98" r="4"/>
</g>
<g fill="#000000">
	<circle cx="114" cy="33" r="4"/>
</g>
<g fill="#000000">
	<circle cx="189" cy="147" r="4"/>
</g>
<g fill="#000000">
	<circle cx="22" cy="218" r="4"/>
</g>
<g fill="#000000">
	<circle cx="162" cy="248" r="4"/>
</g>
<g fill="#000000">
	<circle cx="232" cy="125" r="4"/>
</g>
<g fill="#000000">
	<circle cx="138" cy="294" r="4"/>
</g>
<g fill="#000000">
	<circle cx="267" cy="163" r="4"/>
</g>
<g fill="#000000">
	<circle cx="73" cy="201" r="4"/>
</g>
<g fill="#000000">
	<circle cx="64" cy="71" r="4"/>
</g>

</g>

</svg>
