<?xml version="1.0" encoding="utf-8"?>
<!-- Created with Hypercube (http://tumic.wz.cz/hypercube) -->

<svg width="400" height="300" viewBox="0 0 400 300" xmlns="http://www.w3.org/2000/svg" baseProfile="tiny">

<g font-family="Helvetica" font-weight="normal">

<g>
	<polygon points="334,36 329,43 325,35" fill="#aaff00"/>
	<line x1="238" y1="88" x2="327" y2="39" stroke="#aaff00" stroke-width="2"/>
</g>
<g>
	<polygon points="137,216 139,207 146,213" fill="#aaff00"/>
	<line x1="238" y1="88" x2="142" y2="210" stroke="#aaff00" stroke-width="2"/>
</g>
<g>
	<polygon points="209,60 217,62 211,68" fill="#aaff00"/>
	<line x1="238" y1="88" x2="214" y2="65" stroke="#aaff00" stroke-width="2"/>
</g>
<g>
	<polygon points="245,21 249,29 240,28" fill="#aaff00"/>
	<line x1="238" y1="88" x2="244" y2="28" stroke="#aaff00" stroke-width="2"/>
</g>
<g>
	<polygon points="387,60 378,61 382,53" fill="#aaff00"/>
	<line x1="338" y1="34" x2="380" y2="57" stroke="#aaff00" stroke-width="2"/>
</g>
<g>
	<polygon points="394,9 398,17 389,16" fill="#aaff00"/>
	<line x1="391" y1="63" x2="394" y2="16" stroke="#aaff00" stroke-width="2"/>
</g>
<g>
	<polygon points="391,67 395,75 386,75" fill="#aaff00"/>
	<line x1="395" y1="175" x2="391" y2="74" stroke="#aaff00" stroke-width="2"/>
</g>
<g>
	<polygon points="244,241 249,233 253,241" fill="#aaff00"/>
	<line x1="293" y1="218" x2="250" y2="238" stroke="#aaff00" stroke-width="2"/>
</g>
<g>
	<polygon points="390,176 385,183 381,175" fill="#aaff00"/>
	<line x1="293" y1="218" x2="384" y2="179" stroke="#aaff00" stroke-width="2"/>
</g>
<g>
	<polygon points="268,159 275,164 267,168" fill="#aaff00"/>
	<line x1="293" y1="218" x2="271" y2="165" stroke="#aaff00" stroke-width="2"/>
</g>
<g>
	<polygon points="272,264 263,263 268,256" fill="#aaff00"/>
	<line x1="240" y1="243" x2="266" y2="260" stroke="#aaff00" stroke-width="2"/>
</g>
<g>
	<polygon points="277,262 275,253 284,256" fill="#aaff00"/>
	<line x1="306" y1="182" x2="279" y2="255" stroke="#aaff00" stroke-width="2"/>
</g>
<g>
	<polygon points="304,177 298,171 307,168" fill="#aaff00"/>
	<line x1="287" y1="111" x2="302" y2="170" stroke="#aaff00" stroke-width="2"/>
</g>
<g>
	<polygon points="345,86 340,93 336,85" fill="#aaff00"/>
	<line x1="287" y1="111" x2="339" y2="89" stroke="#aaff00" stroke-width="2"/>
</g>
<g>
	<polygon points="181,132 188,126 189,135" fill="#aaff00"/>
	<line x1="287" y1="111" x2="188" y2="130" stroke="#aaff00" stroke-width="2"/>
</g>
<g>
	<polygon points="287,67 291,75 282,75" fill="#aaff00"/>
	<line x1="287" y1="111" x2="287" y2="74" stroke="#aaff00" stroke-width="2"/>
</g>
<g>
	<polygon points="387,65 382,72 378,64" fill="#aaff00"/>
	<line x1="350" y1="85" x2="380" y2="68" stroke="#aaff00" stroke-width="2"/>
</g>
<g>
	<polygon points="132,145 138,139 141,147" fill="#aaff00"/>
	<line x1="177" y1="133" x2="139" y2="143" stroke="#aaff00" stroke-width="2"/>
</g>
<g>
	<polygon points="131,149 140,151 134,158" fill="#aaff00"/>
	<line x1="189" y1="195" x2="137" y2="154" stroke="#aaff00" stroke-width="2"/>
</g>
<g>
	<polygon points="359,254 352,247 361,246" fill="#aaff00"/>
	<line x1="346" y1="195" x2="357" y2="247" stroke="#aaff00" stroke-width="2"/>
</g>
<g>
	<polygon points="390,127 389,136 382,131" fill="#aaff00"/>
	<line x1="346" y1="195" x2="386" y2="133" stroke="#aaff00" stroke-width="2"/>
</g>
<g>
	<polygon points="193,195 201,190 201,199" fill="#aaff00"/>
	<line x1="346" y1="195" x2="200" y2="195" stroke="#aaff00" stroke-width="2"/>
</g>
<g>
	<polygon points="330,142 336,148 328,151" fill="#aaff00"/>
	<line x1="346" y1="195" x2="332" y2="149" stroke="#aaff00" stroke-width="2"/>
</g>
<g>
	<polygon points="280,266 287,261 288,270" fill="#aaff00"/>
	<line x1="360" y1="259" x2="287" y2="265" stroke="#aaff00" stroke-width="2"/>
</g>
<g>
	<polygon points="391,67 395,75 386,75" fill="#aaff00"/>
	<line x1="393" y1="124" x2="391" y2="74" stroke="#aaff00" stroke-width="2"/>
</g>
<g>
	<polygon points="241,90 250,89 246,97" fill="#aaff00"/>
	<line x1="329" y1="138" x2="248" y2="93" stroke="#aaff00" stroke-width="2"/>
</g>
<g>
	<polygon points="126,142 120,136 128,133" fill="#aaff00"/>
	<line x1="98" y1="52" x2="124" y2="135" stroke="#aaff00" stroke-width="2"/>
</g>
<g>
	<polygon points="287,5 279,9 279,0" fill="#aaff00"/>
	<line x1="150" y1="5" x2="280" y2="5" stroke="#aaff00" stroke-width="2"/>
</g>
<g>
	<polygon points="101,48 104,40 110,47" fill="#aaff00"/>
	<line x1="150" y1="5" x2="106" y2="44" stroke="#aaff00" stroke-width="2"/>
</g>
<g>
	<polygon points="195,5 187,10 187,1" fill="#aaff00"/>
	<line x1="150" y1="5" x2="188" y2="5" stroke="#aaff00" stroke-width="2"/>
</g>
<g>
	<polygon points="387,60 378,60 382,52" fill="#aaff00"/>
	<line x1="292" y1="5" x2="380" y2="57" stroke="#aaff00" stroke-width="2"/>
</g>
<g>
	<polygon points="236,83 228,78 236,74" fill="#aaff00"/>
	<line x1="200" y1="6" x2="233" y2="77" stroke="#aaff00" stroke-width="2"/>
</g>
<g>
	<polygon points="145,5 137,9 137,0" fill="#aaff00"/>
	<line x1="72" y1="5" x2="138" y2="5" stroke="#aaff00" stroke-width="2"/>
</g>
<g>
	<polygon points="67,5 59,9 59,0" fill="#aaff00"/>
	<line x1="10" y1="7" x2="60" y2="5" stroke="#aaff00" stroke-width="2"/>
</g>
<g>
	<polygon points="242,85 246,78 250,86" fill="#aaff00"/>
	<line x1="287" y1="63" x2="248" y2="82" stroke="#aaff00" stroke-width="2"/>
</g>
<g>
	<polygon points="271,268 265,274 262,266" fill="#aaff00"/>
	<line x1="184" y1="295" x2="264" y2="270" stroke="#aaff00" stroke-width="2"/>
</g>
<g>
	<polygon points="179,295 171,299 171,290" fill="#aaff00"/>
	<line x1="132" y1="295" x2="172" y2="295" stroke="#aaff00" stroke-width="2"/>
</g>
<g>
	<polygon points="239,92 247,97 238,101" fill="#aaff00"/>
	<line x1="267" y1="155" x2="242" y2="98" stroke="#aaff00" stroke-width="2"/>
</g>
<g>
	<polygon points="233,87 225,90 226,81" fill="#aaff00"/>
	<line x1="159" y1="74" x2="226" y2="85" stroke="#aaff00" stroke-width="2"/>
</g>
<g>
	<polygon points="154,76 150,83 145,75" fill="#aaff00"/>
	<line x1="113" y1="97" x2="148" y2="79" stroke="#aaff00" stroke-width="2"/>
</g>
<g>
	<polygon points="236,92 238,101 230,98" fill="#aaff00"/>
	<line x1="223" y1="136" x2="234" y2="99" stroke="#aaff00" stroke-width="2"/>
</g>
<g>
	<polygon points="223,140 229,147 220,148" fill="#aaff00"/>
	<line x1="233" y1="191" x2="225" y2="147" stroke="#aaff00" stroke-width="2"/>
</g>
<g>
	<polygon points="306,295 298,299 298,290" fill="#aaff00"/>
	<line x1="230" y1="295" x2="299" y2="295" stroke="#aaff00" stroke-width="2"/>
</g>
<g>
	<polygon points="9,181 17,177 16,186" fill="#aaff00"/>
	<line x1="55" y1="186" x2="16" y2="182" stroke="#aaff00" stroke-width="2"/>
</g>
<g>
	<polygon points="74,281 76,273 82,279" fill="#aaff00"/>
	<line x1="135" y1="220" x2="79" y2="276" stroke="#aaff00" stroke-width="2"/>
</g>
<g>
	<polygon points="86,232 92,226 95,235" fill="#aaff00"/>
	<line x1="135" y1="220" x2="93" y2="231" stroke="#aaff00" stroke-width="2"/>
</g>
<g>
	<polygon points="226,292 217,290 223,283" fill="#aaff00"/>
	<line x1="135" y1="220" x2="220" y2="287" stroke="#aaff00" stroke-width="2"/>
</g>
<g>
	<polygon points="59,187 68,186 64,194" fill="#aaff00"/>
	<line x1="135" y1="220" x2="65" y2="190" stroke="#aaff00" stroke-width="2"/>
</g>

<g fill="#000000">
	<circle cx="237" cy="87" r="4"/>
</g>
<g fill="#000000">
	<circle cx="337" cy="33" r="4"/>
</g>
<g fill="#000000">
	<circle cx="134" cy="219" r="4"/>
</g>
<g fill="#000000">
	<circle cx="205" cy="56" r="4"/>
</g>
<g fill="#000000">
	<circle cx="245" cy="16" r="4"/>
</g>
<g fill="#000000">
	<circle cx="275" cy="266" r="4"/>
</g>
<g fill="#000000">
	<circle cx="127" cy="146" r="4"/>
</g>
<g fill="#000000">
	<circle cx="390" cy="62" r="4"/>
</g>
<g fill="#000000">
	<circle cx="394" cy="4" r="4"/>
</g>
<g fill="#000000">
	<circle cx="292" cy="217" r="4"/>
</g>
<g fill="#000000">
	<circle cx="239" cy="242" r="4"/>
</g>
<g fill="#000000">
	<circle cx="394" cy="174" r="4"/>
</g>
<g fill="#000000">
	<circle cx="266" cy="154" r="4"/>
</g>
<g fill="#000000">
	<circle cx="286" cy="110" r="4"/>
</g>
<g fill="#000000">
	<circle cx="305" cy="181" r="4"/>
</g>
<g fill="#000000">
	<circle cx="349" cy="84" r="4"/>
</g>
<g fill="#000000">
	<circle cx="176" cy="132" r="4"/>
</g>
<g fill="#000000">
	<circle cx="286" cy="62" r="4"/>
</g>
<g fill="#000000">
	<circle cx="112" cy="96" r="4"/>
</g>
<g fill="#000000">
	<circle cx="158" cy="73" r="4"/>
</g>
<g fill="#000000">
	<circle cx="345" cy="194" r="4"/>
</g>
<g fill="#000000">
	<circle cx="359" cy="258" r="4"/>
</g>
<g fill="#000000">
	<circle cx="392" cy="123" r="4"/>
</g>
<g fill="#000000">
	<circle cx="188" cy="194" r="4"/>
</g>
<g fill="#000000">
	<circle cx="328" cy="137" r="4"/>
</g>
<g fill="#000000">
	<circle cx="149" cy="4" r="4"/>
</g>
<g fill="#000000">
	<circle cx="291" cy="4" r="4"/>
</g>
<g fill="#000000">
	<circle cx="97" cy="51" r="4"/>
</g>
<g fill="#000000">
	<circle cx="199" cy="5" r="4"/>
</g>
<g fill="#000000">
	<circle cx="9" cy="6" r="4"/>
</g>
<g fill="#000000">
	<circle cx="71" cy="4" r="4"/>
</g>
<g fill="#000000">
	<circle cx="131" cy="294" r="4"/>
</g>
<g fill="#000000">
	<circle cx="183" cy="294" r="4"/>
</g>
<g fill="#000000">
	<circle cx="232" cy="190" r="4"/>
</g>
<g fill="#000000">
	<circle cx="222" cy="135" r="4"/>
</g>
<g fill="#000000">
	<circle cx="70" cy="284" r="4"/>
</g>
<g fill="#000000">
	<circle cx="81" cy="233" r="4"/>
</g>
<g fill="#000000">
	<circle cx="229" cy="294" r="4"/>
</g>
<g fill="#000000">
	<circle cx="310" cy="294" r="4"/>
</g>
<g fill="#000000">
	<circle cx="54" cy="185" r="4"/>
</g>
<g fill="#000000">
	<circle cx="4" cy="180" r="4"/>
</g>

</g>

</svg>
