<?xml version="1.0" encoding="utf-8"?>
<!-- Created with Hypercube (http://tumic.wz.cz/hypercube) -->

<svg width="400" height="300" viewBox="0 0 400 300" xmlns="http://www.w3.org/2000/svg" baseProfile="tiny">

<g font-family="Helvetica" font-weight="normal">

<g>
	<polygon points="355,227 353,236 346,230" fill="#aaff00"/>
	<line x1="302" y1="293" x2="350" y2="233" stroke="#aaff00" stroke-width="2"/>
</g>
<g>
	<polygon points="346,274 341,281 337,273" fill="#aaff00"/>
	<line x1="302" y1="293" x2="340" y2="277" stroke="#aaff00" stroke-width="2"/>
</g>
<g>
	<polygon points="213,239 222,239 218,247" fill="#aaff00"/>
	<line x1="302" y1="293" x2="219" y2="243" stroke="#aaff00" stroke-width="2"/>
</g>
<g>
	<polygon points="323,70 330,77 321,78" fill="#aaff00"/>
	<line x1="358" y1="224" x2="325" y2="77" stroke="#aaff00" stroke-width="2"/>
</g>
<g>
	<polygon points="377,146 369,142 376,137" fill="#aaff00"/>
	<line x1="323" y1="66" x2="373" y2="140" stroke="#aaff00" stroke-width="2"/>
</g>
<g>
	<polygon points="217,65 225,60 225,69" fill="#aaff00"/>
	<line x1="323" y1="66" x2="224" y2="65" stroke="#aaff00" stroke-width="2"/>
</g>
<g>
	<polygon points="291,129 290,120 298,125" fill="#aaff00"/>
	<line x1="323" y1="66" x2="294" y2="123" stroke="#aaff00" stroke-width="2"/>
</g>
<g>
	<polygon points="353,82 344,82 348,75" fill="#aaff00"/>
	<line x1="323" y1="66" x2="346" y2="79" stroke="#aaff00" stroke-width="2"/>
</g>
<g>
	<polygon points="372,45 367,52 363,44" fill="#aaff00"/>
	<line x1="323" y1="66" x2="366" y2="48" stroke="#aaff00" stroke-width="2"/>
</g>
<g>
	<polygon points="294,66 302,61 302,70" fill="#aaff00"/>
	<line x1="323" y1="66" x2="301" y2="66" stroke="#aaff00" stroke-width="2"/>
</g>
<g>
	<polygon points="378,154 381,162 372,160" fill="#aaff00"/>
	<line x1="351" y1="273" x2="377" y2="161" stroke="#aaff00" stroke-width="2"/>
</g>
<g>
	<polygon points="355,271 360,264 364,272" fill="#aaff00"/>
	<line x1="395" y1="256" x2="361" y2="268" stroke="#aaff00" stroke-width="2"/>
</g>
<g>
	<polygon points="358,89 365,95 356,98" fill="#aaff00"/>
	<line x1="395" y1="192" x2="360" y2="96" stroke="#aaff00" stroke-width="2"/>
</g>
<g>
	<polygon points="395,251 390,243 399,243" fill="#aaff00"/>
	<line x1="395" y1="192" x2="395" y2="244" stroke="#aaff00" stroke-width="2"/>
</g>
<g>
	<polygon points="211,232 210,223 218,227" fill="#aaff00"/>
	<line x1="271" y1="94" x2="214" y2="226" stroke="#aaff00" stroke-width="2"/>
</g>
<g>
	<polygon points="319,68 314,75 310,67" fill="#aaff00"/>
	<line x1="271" y1="94" x2="312" y2="71" stroke="#aaff00" stroke-width="2"/>
</g>
<g>
	<polygon points="240,135 241,126 248,131" fill="#aaff00"/>
	<line x1="271" y1="94" x2="244" y2="129" stroke="#aaff00" stroke-width="2"/>
</g>
<g>
	<polygon points="323,13 323,22 315,17" fill="#aaff00"/>
	<line x1="271" y1="94" x2="319" y2="19" stroke="#aaff00" stroke-width="2"/>
</g>
<g>
	<polygon points="331,127 322,127 326,120" fill="#aaff00"/>
	<line x1="271" y1="94" x2="324" y2="124" stroke="#aaff00" stroke-width="2"/>
</g>
<g>
	<polygon points="249,25 255,31 247,34" fill="#aaff00"/>
	<line x1="271" y1="94" x2="251" y2="32" stroke="#aaff00" stroke-width="2"/>
</g>
<g>
	<polygon points="229,99 236,93 237,102" fill="#aaff00"/>
	<line x1="271" y1="94" x2="236" y2="98" stroke="#aaff00" stroke-width="2"/>
</g>
<g>
	<polygon points="287,129 279,124 288,120" fill="#aaff00"/>
	<line x1="271" y1="94" x2="284" y2="123" stroke="#aaff00" stroke-width="2"/>
</g>
<g>
	<polygon points="352,85 345,90 344,81" fill="#aaff00"/>
	<line x1="271" y1="94" x2="345" y2="86" stroke="#aaff00" stroke-width="2"/>
</g>
<g>
	<polygon points="287,69 286,78 279,73" fill="#aaff00"/>
	<line x1="271" y1="94" x2="283" y2="75" stroke="#aaff00" stroke-width="2"/>
</g>
<g>
	<polygon points="225,191 217,187 224,182" fill="#aaff00"/>
	<line x1="191" y1="144" x2="221" y2="185" stroke="#aaff00" stroke-width="2"/>
</g>
<g>
	<polygon points="233,139 226,144 225,135" fill="#aaff00"/>
	<line x1="191" y1="144" x2="226" y2="140" stroke="#aaff00" stroke-width="2"/>
</g>
<g>
	<polygon points="265,207 256,209 259,200" fill="#aaff00"/>
	<line x1="228" y1="195" x2="258" y2="205" stroke="#aaff00" stroke-width="2"/>
</g>
<g>
	<polygon points="308,233 299,233 303,225" fill="#aaff00"/>
	<line x1="228" y1="195" x2="302" y2="230" stroke="#aaff00" stroke-width="2"/>
</g>
<g>
	<polygon points="287,138 290,147 281,144" fill="#aaff00"/>
	<line x1="270" y1="209" x2="286" y2="145" stroke="#aaff00" stroke-width="2"/>
</g>
<g>
	<polygon points="296,190 292,198 287,191" fill="#aaff00"/>
	<line x1="270" y1="209" x2="290" y2="194" stroke="#aaff00" stroke-width="2"/>
</g>
<g>
	<polygon points="309,232 300,232 304,224" fill="#aaff00"/>
	<line x1="270" y1="209" x2="302" y2="228" stroke="#aaff00" stroke-width="2"/>
</g>
<g>
	<polygon points="337,186 329,191 329,182" fill="#aaff00"/>
	<line x1="300" y1="188" x2="330" y2="186" stroke="#aaff00" stroke-width="2"/>
</g>
<g>
	<polygon points="311,230 305,224 314,221" fill="#aaff00"/>
	<line x1="300" y1="188" x2="309" y2="223" stroke="#aaff00" stroke-width="2"/>
</g>
<g>
	<polygon points="315,231 315,222 323,226" fill="#aaff00"/>
	<line x1="342" y1="186" x2="318" y2="224" stroke="#aaff00" stroke-width="2"/>
</g>
<g>
	<polygon points="347,269 339,267 345,261" fill="#aaff00"/>
	<line x1="313" y1="235" x2="342" y2="264" stroke="#aaff00" stroke-width="2"/>
</g>
<g>
	<polygon points="264,265 268,257 273,265" fill="#aaff00"/>
	<line x1="313" y1="235" x2="270" y2="261" stroke="#aaff00" stroke-width="2"/>
</g>
<g>
	<polygon points="391,194 386,201 382,193" fill="#aaff00"/>
	<line x1="313" y1="235" x2="384" y2="197" stroke="#aaff00" stroke-width="2"/>
</g>
<g>
	<polygon points="390,254 381,257 384,248" fill="#aaff00"/>
	<line x1="313" y1="235" x2="383" y2="253" stroke="#aaff00" stroke-width="2"/>
</g>
<g>
	<polygon points="192,139 189,130 198,133" fill="#aaff00"/>
	<line x1="213" y1="65" x2="194" y2="132" stroke="#aaff00" stroke-width="2"/>
</g>
<g>
	<polygon points="236,134 229,128 238,125" fill="#aaff00"/>
	<line x1="213" y1="65" x2="234" y2="127" stroke="#aaff00" stroke-width="2"/>
</g>
<g>
	<polygon points="242,138 249,133 250,142" fill="#aaff00"/>
	<line x1="335" y1="130" x2="249" y2="137" stroke="#aaff00" stroke-width="2"/>
</g>
<g>
	<polygon points="330,9 338,5 338,14" fill="#aaff00"/>
	<line x1="395" y1="8" x2="337" y2="9" stroke="#aaff00" stroke-width="2"/>
</g>
<g>
	<polygon points="336,125 336,116 344,120" fill="#aaff00"/>
	<line x1="395" y1="8" x2="340" y2="119" stroke="#aaff00" stroke-width="2"/>
</g>
<g>
	<polygon points="323,61 319,53 328,53" fill="#aaff00"/>
	<line x1="326" y1="10" x2="323" y2="54" stroke="#aaff00" stroke-width="2"/>
</g>
<g>
	<polygon points="319,63 310,63 314,55" fill="#aaff00"/>
	<line x1="248" y1="21" x2="312" y2="59" stroke="#aaff00" stroke-width="2"/>
</g>
<g>
	<polygon points="243,22 237,29 234,20" fill="#aaff00"/>
	<line x1="163" y1="51" x2="236" y2="24" stroke="#aaff00" stroke-width="2"/>
</g>
<g>
	<polygon points="7,11 15,15 8,20" fill="#aaff00"/>
	<line x1="65" y1="89" x2="11" y2="17" stroke="#aaff00" stroke-width="2"/>
</g>
<g>
	<polygon points="103,168 95,163 103,159" fill="#aaff00"/>
	<line x1="65" y1="89" x2="99" y2="162" stroke="#aaff00" stroke-width="2"/>
</g>
<g>
	<polygon points="158,52 153,59 149,51" fill="#aaff00"/>
	<line x1="65" y1="89" x2="152" y2="55" stroke="#aaff00" stroke-width="2"/>
</g>
<g>
	<polygon points="103,66 98,74 94,66" fill="#aaff00"/>
	<line x1="65" y1="89" x2="96" y2="69" stroke="#aaff00" stroke-width="2"/>
</g>
<g>
	<polygon points="111,115 102,115 106,107" fill="#aaff00"/>
	<line x1="65" y1="89" x2="104" y2="112" stroke="#aaff00" stroke-width="2"/>
</g>
<g>
	<polygon points="7,170 8,161 15,166" fill="#aaff00"/>
	<line x1="65" y1="89" x2="11" y2="164" stroke="#aaff00" stroke-width="2"/>
</g>
<g>
	<polygon points="9,76 17,73 15,82" fill="#aaff00"/>
	<line x1="65" y1="89" x2="16" y2="77" stroke="#aaff00" stroke-width="2"/>
</g>
<g>
	<polygon points="45,56 53,61 45,65" fill="#aaff00"/>
	<line x1="65" y1="89" x2="49" y2="62" stroke="#aaff00" stroke-width="2"/>
</g>
<g>
	<polygon points="47,12 54,19 45,20" fill="#aaff00"/>
	<line x1="65" y1="89" x2="49" y2="19" stroke="#aaff00" stroke-width="2"/>
</g>
<g>
	<polygon points="54,135 52,127 60,128" fill="#aaff00"/>
	<line x1="65" y1="89" x2="56" y2="128" stroke="#aaff00" stroke-width="2"/>
</g>
<g>
	<polygon points="8,119 13,112 17,120" fill="#aaff00"/>
	<line x1="65" y1="89" x2="15" y2="116" stroke="#aaff00" stroke-width="2"/>
</g>
<g>
	<polygon points="54,196 50,188 59,189" fill="#aaff00"/>
	<line x1="65" y1="89" x2="55" y2="189" stroke="#aaff00" stroke-width="2"/>
</g>
<g>
	<polygon points="133,11 131,20 124,14" fill="#aaff00"/>
	<line x1="65" y1="89" x2="128" y2="16" stroke="#aaff00" stroke-width="2"/>
</g>
<g>
	<polygon points="87,12 89,21 81,18" fill="#aaff00"/>
	<line x1="65" y1="89" x2="85" y2="19" stroke="#aaff00" stroke-width="2"/>
</g>

<g fill="#000000">
	<circle cx="64" cy="88" r="4"/>
</g>
<g fill="#000000">
	<circle cx="4" cy="7" r="4"/>
</g>
<g fill="#000000">
	<circle cx="104" cy="172" r="4"/>
</g>
<g fill="#000000">
	<circle cx="301" cy="292" r="4"/>
</g>
<g fill="#000000">
	<circle cx="357" cy="223" r="4"/>
</g>
<g fill="#000000">
	<circle cx="350" cy="272" r="4"/>
</g>
<g fill="#000000">
	<circle cx="209" cy="236" r="4"/>
</g>
<g fill="#000000">
	<circle cx="322" cy="65" r="4"/>
</g>
<g fill="#000000">
	<circle cx="379" cy="149" r="4"/>
</g>
<g fill="#000000">
	<circle cx="190" cy="143" r="4"/>
</g>
<g fill="#000000">
	<circle cx="227" cy="194" r="4"/>
</g>
<g fill="#000000">
	<circle cx="237" cy="138" r="4"/>
</g>
<g fill="#000000">
	<circle cx="269" cy="208" r="4"/>
</g>
<g fill="#000000">
	<circle cx="212" cy="64" r="4"/>
</g>
<g fill="#000000">
	<circle cx="106" cy="63" r="4"/>
</g>
<g fill="#000000">
	<circle cx="394" cy="7" r="4"/>
</g>
<g fill="#000000">
	<circle cx="325" cy="9" r="4"/>
</g>
<g fill="#000000">
	<circle cx="334" cy="129" r="4"/>
</g>
<g fill="#000000">
	<circle cx="162" cy="50" r="4"/>
</g>
<g fill="#000000">
	<circle cx="247" cy="20" r="4"/>
</g>
<g fill="#000000">
	<circle cx="114" cy="117" r="4"/>
</g>
<g fill="#000000">
	<circle cx="4" cy="173" r="4"/>
</g>
<g fill="#000000">
	<circle cx="224" cy="99" r="4"/>
</g>
<g fill="#000000">
	<circle cx="288" cy="133" r="4"/>
</g>
<g fill="#000000">
	<circle cx="356" cy="84" r="4"/>
</g>
<g fill="#000000">
	<circle cx="376" cy="43" r="4"/>
</g>
<g fill="#000000">
	<circle cx="289" cy="65" r="4"/>
</g>
<g fill="#000000">
	<circle cx="4" cy="74" r="4"/>
</g>
<g fill="#000000">
	<circle cx="270" cy="93" r="4"/>
</g>
<g fill="#000000">
	<circle cx="42" cy="52" r="4"/>
</g>
<g fill="#000000">
	<circle cx="46" cy="7" r="4"/>
</g>
<g fill="#000000">
	<circle cx="53" cy="139" r="4"/>
</g>
<g fill="#000000">
	<circle cx="4" cy="121" r="4"/>
</g>
<g fill="#000000">
	<circle cx="260" cy="267" r="4"/>
</g>
<g fill="#000000">
	<circle cx="53" cy="200" r="4"/>
</g>
<g fill="#000000">
	<circle cx="394" cy="191" r="4"/>
</g>
<g fill="#000000">
	<circle cx="394" cy="255" r="4"/>
</g>
<g fill="#000000">
	<circle cx="135" cy="7" r="4"/>
</g>
<g fill="#000000">
	<circle cx="88" cy="7" r="4"/>
</g>
<g fill="#000000">
	<circle cx="299" cy="187" r="4"/>
</g>
<g fill="#000000">
	<circle cx="341" cy="185" r="4"/>
</g>
<g fill="#000000">
	<circle cx="312" cy="234" r="4"/>
</g>

</g>

</svg>
