<?xml version="1.0" encoding="utf-8"?>
<!-- Created with Hypercube (http://tumic.wz.cz/hypercube) -->

<svg width="400" height="300" viewBox="0 0 400 300" xmlns="http://www.w3.org/2000/svg" baseProfile="tiny">

<g font-family="Helvetica" font-weight="normal">

<g>
	<polygon points="154,47 163,49 157,56" fill="#aaff00"/>
	<line x1="204" y1="92" x2="159" y2="52" stroke="#aaff00" stroke-width="2"/>
</g>
<g>
	<polygon points="109,7 118,9 112,16" fill="#aaff00"/>
	<line x1="204" y1="92" x2="114" y2="12" stroke="#aaff00" stroke-width="2"/>
</g>
<g>
	<polygon points="228,141 221,137 229,132" fill="#aaff00"/>
	<line x1="204" y1="92" x2="225" y2="135" stroke="#aaff00" stroke-width="2"/>
</g>
<g>
	<polygon points="117,132 122,124 126,132" fill="#aaff00"/>
	<line x1="204" y1="92" x2="123" y2="129" stroke="#aaff00" stroke-width="2"/>
</g>
<g>
	<polygon points="201,171 196,163 205,163" fill="#aaff00"/>
	<line x1="204" y1="92" x2="201" y2="164" stroke="#aaff00" stroke-width="2"/>
</g>
<g>
	<polygon points="273,156 264,154 271,148" fill="#aaff00"/>
	<line x1="204" y1="92" x2="268" y2="152" stroke="#aaff00" stroke-width="2"/>
</g>
<g>
	<polygon points="267,216 260,212 268,208" fill="#aaff00"/>
	<line x1="204" y1="92" x2="264" y2="210" stroke="#aaff00" stroke-width="2"/>
</g>
<g>
	<polygon points="33,132 39,126 42,135" fill="#aaff00"/>
	<line x1="204" y1="92" x2="40" y2="131" stroke="#aaff00" stroke-width="2"/>
</g>
<g>
	<polygon points="159,202 158,193 166,197" fill="#aaff00"/>
	<line x1="204" y1="92" x2="162" y2="196" stroke="#aaff00" stroke-width="2"/>
</g>
<g>
	<polygon points="172,107 177,99 181,107" fill="#aaff00"/>
	<line x1="204" y1="92" x2="178" y2="104" stroke="#aaff00" stroke-width="2"/>
</g>
<g>
	<polygon points="129,178 131,169 138,175" fill="#aaff00"/>
	<line x1="204" y1="92" x2="134" y2="173" stroke="#aaff00" stroke-width="2"/>
</g>
<g>
	<polygon points="85,54 94,52 91,61" fill="#aaff00"/>
	<line x1="204" y1="92" x2="92" y2="56" stroke="#aaff00" stroke-width="2"/>
</g>
<g>
	<polygon points="283,247 276,243 284,239" fill="#aaff00"/>
	<line x1="204" y1="92" x2="280" y2="241" stroke="#aaff00" stroke-width="2"/>
</g>
<g>
	<polygon points="200,202 195,194 204,194" fill="#aaff00"/>
	<line x1="204" y1="92" x2="200" y2="195" stroke="#aaff00" stroke-width="2"/>
</g>
<g>
	<polygon points="273,88 265,93 265,84" fill="#aaff00"/>
	<line x1="204" y1="92" x2="266" y2="88" stroke="#aaff00" stroke-width="2"/>
</g>
<g>
	<polygon points="94,93 97,84 103,91" fill="#aaff00"/>
	<line x1="151" y1="45" x2="99" y2="88" stroke="#aaff00" stroke-width="2"/>
</g>
<g>
	<polygon points="131,83 130,74 138,78" fill="#aaff00"/>
	<line x1="151" y1="45" x2="134" y2="76" stroke="#aaff00" stroke-width="2"/>
</g>
<g>
	<polygon points="27,31 35,27 34,36" fill="#aaff00"/>
	<line x1="151" y1="45" x2="34" y2="32" stroke="#aaff00" stroke-width="2"/>
</g>
<g>
	<polygon points="280,23 273,29 272,20" fill="#aaff00"/>
	<line x1="151" y1="45" x2="273" y2="24" stroke="#aaff00" stroke-width="2"/>
</g>
<g>
	<polygon points="93,99 101,104 93,108" fill="#aaff00"/>
	<line x1="113" y1="134" x2="96" y2="106" stroke="#aaff00" stroke-width="2"/>
</g>
<g>
	<polygon points="167,153 158,155 161,146" fill="#aaff00"/>
	<line x1="113" y1="134" x2="160" y2="151" stroke="#aaff00" stroke-width="2"/>
</g>
<g>
	<polygon points="227,226 218,224 224,217" fill="#aaff00"/>
	<line x1="113" y1="134" x2="221" y2="221" stroke="#aaff00" stroke-width="2"/>
</g>
<g>
	<polygon points="84,182 84,173 92,177" fill="#aaff00"/>
	<line x1="113" y1="134" x2="87" y2="175" stroke="#aaff00" stroke-width="2"/>
</g>
<g>
	<polygon points="145,246 139,240 147,237" fill="#aaff00"/>
	<line x1="113" y1="134" x2="143" y2="239" stroke="#aaff00" stroke-width="2"/>
</g>
<g>
	<polygon points="135,152 126,150 132,143" fill="#aaff00"/>
	<line x1="113" y1="134" x2="129" y2="147" stroke="#aaff00" stroke-width="2"/>
</g>
<g>
	<polygon points="272,160 265,166 264,158" fill="#aaff00"/>
	<line x1="201" y1="176" x2="265" y2="162" stroke="#aaff00" stroke-width="2"/>
</g>
<g>
	<polygon points="94,98 103,99 98,106" fill="#aaff00"/>
	<line x1="201" y1="176" x2="100" y2="102" stroke="#aaff00" stroke-width="2"/>
</g>
<g>
	<polygon points="131,90 140,93 133,99" fill="#aaff00"/>
	<line x1="201" y1="176" x2="136" y2="96" stroke="#aaff00" stroke-width="2"/>
</g>
<g>
	<polygon points="215,123 218,132 209,129" fill="#aaff00"/>
	<line x1="201" y1="176" x2="213" y2="130" stroke="#aaff00" stroke-width="2"/>
</g>
<g>
	<polygon points="175,157 184,158 179,165" fill="#aaff00"/>
	<line x1="201" y1="176" x2="181" y2="161" stroke="#aaff00" stroke-width="2"/>
</g>
<g>
	<polygon points="228,225 221,220 228,216" fill="#aaff00"/>
	<line x1="201" y1="176" x2="225" y2="218" stroke="#aaff00" stroke-width="2"/>
</g>
<g>
	<polygon points="86,185 93,180 94,189" fill="#aaff00"/>
	<line x1="201" y1="176" x2="93" y2="185" stroke="#aaff00" stroke-width="2"/>
</g>
<g>
	<polygon points="149,247 150,238 157,243" fill="#aaff00"/>
	<line x1="201" y1="176" x2="153" y2="241" stroke="#aaff00" stroke-width="2"/>
</g>
<g>
	<polygon points="246,186 237,189 240,180" fill="#aaff00"/>
	<line x1="201" y1="176" x2="239" y2="185" stroke="#aaff00" stroke-width="2"/>
</g>
<g>
	<polygon points="191,235 188,227 197,228" fill="#aaff00"/>
	<line x1="201" y1="176" x2="192" y2="228" stroke="#aaff00" stroke-width="2"/>
</g>
<g>
	<polygon points="233,225 234,216 241,221" fill="#aaff00"/>
	<line x1="277" y1="160" x2="237" y2="219" stroke="#aaff00" stroke-width="2"/>
</g>
<g>
	<polygon points="254,184 256,175 262,182" fill="#aaff00"/>
	<line x1="277" y1="160" x2="258" y2="179" stroke="#aaff00" stroke-width="2"/>
</g>
<g>
	<polygon points="330,196 321,195 326,188" fill="#aaff00"/>
	<line x1="277" y1="160" x2="324" y2="192" stroke="#aaff00" stroke-width="2"/>
</g>
<g>
	<polygon points="235,228 242,222 243,230" fill="#aaff00"/>
	<line x1="270" y1="221" x2="242" y2="226" stroke="#aaff00" stroke-width="2"/>
</g>
<g>
	<polygon points="151,249 157,243 160,252" fill="#aaff00"/>
	<line x1="270" y1="221" x2="158" y2="248" stroke="#aaff00" stroke-width="2"/>
</g>
<g>
	<polygon points="143,157 152,156 147,164" fill="#aaff00"/>
	<line x1="270" y1="221" x2="149" y2="160" stroke="#aaff00" stroke-width="2"/>
</g>
<g>
	<polygon points="253,191 261,196 253,200" fill="#aaff00"/>
	<line x1="270" y1="221" x2="256" y2="198" stroke="#aaff00" stroke-width="2"/>
</g>
<g>
	<polygon points="195,238 201,232 204,241" fill="#aaff00"/>
	<line x1="270" y1="221" x2="202" y2="237" stroke="#aaff00" stroke-width="2"/>
</g>
<g>
	<polygon points="318,141 318,150 310,146" fill="#aaff00"/>
	<line x1="270" y1="221" x2="314" y2="147" stroke="#aaff00" stroke-width="2"/>
</g>
<g>
	<polygon points="87,98 82,106 78,98" fill="#aaff00"/>
	<line x1="29" y1="134" x2="81" y2="102" stroke="#aaff00" stroke-width="2"/>
</g>
<g>
	<polygon points="124,88 119,96 115,88" fill="#aaff00"/>
	<line x1="29" y1="134" x2="118" y2="91" stroke="#aaff00" stroke-width="2"/>
</g>
<g>
	<polygon points="23,35 28,43 19,43" fill="#aaff00"/>
	<line x1="29" y1="134" x2="23" y2="42" stroke="#aaff00" stroke-width="2"/>
</g>
<g>
	<polygon points="78,182 70,180 76,174" fill="#aaff00"/>
	<line x1="29" y1="134" x2="73" y2="177" stroke="#aaff00" stroke-width="2"/>
</g>
<g>
	<polygon points="143,247 135,245 141,239" fill="#aaff00"/>
	<line x1="29" y1="134" x2="138" y2="242" stroke="#aaff00" stroke-width="2"/>
</g>
<g>
	<polygon points="134,154 126,157 127,148" fill="#aaff00"/>
	<line x1="29" y1="134" x2="127" y2="152" stroke="#aaff00" stroke-width="2"/>
</g>
<g>
	<polygon points="27,86 31,94 22,94" fill="#aaff00"/>
	<line x1="29" y1="134" x2="27" y2="93" stroke="#aaff00" stroke-width="2"/>
</g>
<g>
	<polygon points="6,183 5,174 14,178" fill="#aaff00"/>
	<line x1="29" y1="134" x2="9" y2="177" stroke="#aaff00" stroke-width="2"/>
</g>
<g>
	<polygon points="27,29 33,23 36,31" fill="#aaff00"/>
	<line x1="106" y1="5" x2="34" y2="27" stroke="#aaff00" stroke-width="2"/>
</g>
<g>
	<polygon points="86,185 93,180 94,189" fill="#aaff00"/>
	<line x1="127" y1="182" x2="93" y2="184" stroke="#aaff00" stroke-width="2"/>
</g>
<g>
	<polygon points="137,159 138,168 129,164" fill="#aaff00"/>
	<line x1="127" y1="182" x2="134" y2="165" stroke="#aaff00" stroke-width="2"/>
</g>
<g>
	<polygon points="226,227 217,229 220,221" fill="#aaff00"/>
	<line x1="158" y1="207" x2="219" y2="225" stroke="#aaff00" stroke-width="2"/>
</g>
<g>
	<polygon points="148,246 145,237 154,240" fill="#aaff00"/>
	<line x1="158" y1="207" x2="149" y2="239" stroke="#aaff00" stroke-width="2"/>
</g>
<g>
	<polygon points="140,159 147,165 138,168" fill="#aaff00"/>
	<line x1="158" y1="207" x2="143" y2="165" stroke="#aaff00" stroke-width="2"/>
</g>
<g>
	<polygon points="141,151 141,142 149,146" fill="#aaff00"/>
	<line x1="168" y1="109" x2="145" y2="145" stroke="#aaff00" stroke-width="2"/>
</g>
<g>
	<polygon points="227,226 218,225 223,218" fill="#aaff00"/>
	<line x1="200" y1="207" x2="221" y2="222" stroke="#aaff00" stroke-width="2"/>
</g>
<g>
	<polygon points="142,157 151,159 145,166" fill="#aaff00"/>
	<line x1="200" y1="207" x2="147" y2="162" stroke="#aaff00" stroke-width="2"/>
</g>
<g>
	<polygon points="192,235 189,226 198,229" fill="#aaff00"/>
	<line x1="200" y1="207" x2="194" y2="228" stroke="#aaff00" stroke-width="2"/>
</g>
<g>
	<polygon points="89,91 83,85 92,83" fill="#aaff00"/>
	<line x1="81" y1="53" x2="88" y2="84" stroke="#aaff00" stroke-width="2"/>
</g>
<g>
	<polygon points="30,79 35,72 39,80" fill="#aaff00"/>
	<line x1="81" y1="53" x2="37" y2="76" stroke="#aaff00" stroke-width="2"/>
</g>
<g>
	<polygon points="235,230 244,229 240,237" fill="#aaff00"/>
	<line x1="286" y1="252" x2="241" y2="233" stroke="#aaff00" stroke-width="2"/>
</g>
<g>
	<polygon points="151,251 159,246 159,255" fill="#aaff00"/>
	<line x1="286" y1="252" x2="158" y2="251" stroke="#aaff00" stroke-width="2"/>
</g>
<g>
	<polygon points="318,134 309,131 316,125" fill="#aaff00"/>
	<line x1="278" y1="88" x2="313" y2="129" stroke="#aaff00" stroke-width="2"/>
</g>
<g>
	<polygon points="219,122 226,127 218,131" fill="#aaff00"/>
	<line x1="231" y1="146" x2="222" y2="129" stroke="#aaff00" stroke-width="2"/>
</g>
<g>
	<polygon points="343,5 351,0 351,9" fill="#aaff00"/>
	<line x1="395" y1="5" x2="350" y2="5" stroke="#aaff00" stroke-width="2"/>
</g>
<g>
	<polygon points="395,46 390,38 399,38" fill="#aaff00"/>
	<line x1="395" y1="5" x2="395" y2="39" stroke="#aaff00" stroke-width="2"/>
</g>
<g>
	<polygon points="350,77 358,81 351,86" fill="#aaff00"/>
	<line x1="395" y1="138" x2="354" y2="83" stroke="#aaff00" stroke-width="2"/>
</g>
<g>
	<polygon points="395,142 399,150 390,150" fill="#aaff00"/>
	<line x1="395" y1="180" x2="395" y2="149" stroke="#aaff00" stroke-width="2"/>
</g>
<g>
	<polygon points="395,142 399,150 390,150" fill="#aaff00"/>
	<line x1="395" y1="236" x2="395" y2="149" stroke="#aaff00" stroke-width="2"/>
</g>
<g>
	<polygon points="395,290 390,282 399,282" fill="#aaff00"/>
	<line x1="395" y1="236" x2="395" y2="283" stroke="#aaff00" stroke-width="2"/>
</g>
<g>
	<polygon points="198,5 206,0 206,9" fill="#aaff00"/>
	<line x1="242" y1="5" x2="205" y2="5" stroke="#aaff00" stroke-width="2"/>
</g>
<g>
	<polygon points="334,6 328,13 325,4" fill="#aaff00"/>
	<line x1="285" y1="23" x2="327" y2="8" stroke="#aaff00" stroke-width="2"/>
</g>
<g>
	<polygon points="344,71 335,69 341,62" fill="#aaff00"/>
	<line x1="285" y1="23" x2="338" y2="66" stroke="#aaff00" stroke-width="2"/>
</g>
<g>
	<polygon points="246,6 255,5 251,13" fill="#aaff00"/>
	<line x1="285" y1="23" x2="252" y2="9" stroke="#aaff00" stroke-width="2"/>
</g>

<g fill="#000000">
	<circle cx="203" cy="91" r="4"/>
</g>
<g fill="#000000">
	<circle cx="150" cy="44" r="4"/>
</g>
<g fill="#000000">
	<circle cx="105" cy="4" r="4"/>
</g>
<g fill="#000000">
	<circle cx="230" cy="145" r="4"/>
</g>
<g fill="#000000">
	<circle cx="112" cy="133" r="4"/>
</g>
<g fill="#000000">
	<circle cx="200" cy="175" r="4"/>
</g>
<g fill="#000000">
	<circle cx="276" cy="159" r="4"/>
</g>
<g fill="#000000">
	<circle cx="269" cy="220" r="4"/>
</g>
<g fill="#000000">
	<circle cx="28" cy="133" r="4"/>
</g>
<g fill="#000000">
	<circle cx="157" cy="206" r="4"/>
</g>
<g fill="#000000">
	<circle cx="167" cy="108" r="4"/>
</g>
<g fill="#000000">
	<circle cx="126" cy="181" r="4"/>
</g>
<g fill="#000000">
	<circle cx="80" cy="52" r="4"/>
</g>
<g fill="#000000">
	<circle cx="285" cy="251" r="4"/>
</g>
<g fill="#000000">
	<circle cx="199" cy="206" r="4"/>
</g>
<g fill="#000000">
	<circle cx="277" cy="87" r="4"/>
</g>
<g fill="#000000">
	<circle cx="90" cy="95" r="4"/>
</g>
<g fill="#000000">
	<circle cx="128" cy="86" r="4"/>
</g>
<g fill="#000000">
	<circle cx="22" cy="30" r="4"/>
</g>
<g fill="#000000">
	<circle cx="284" cy="22" r="4"/>
</g>
<g fill="#000000">
	<circle cx="216" cy="118" r="4"/>
</g>
<g fill="#000000">
	<circle cx="171" cy="154" r="4"/>
</g>
<g fill="#000000">
	<circle cx="230" cy="228" r="4"/>
</g>
<g fill="#000000">
	<circle cx="81" cy="185" r="4"/>
</g>
<g fill="#000000">
	<circle cx="146" cy="250" r="4"/>
</g>
<g fill="#000000">
	<circle cx="138" cy="154" r="4"/>
</g>
<g fill="#000000">
	<circle cx="250" cy="187" r="4"/>
</g>
<g fill="#000000">
	<circle cx="190" cy="239" r="4"/>
</g>
<g fill="#000000">
	<circle cx="333" cy="198" r="4"/>
</g>
<g fill="#000000">
	<circle cx="320" cy="137" r="4"/>
</g>
<g fill="#000000">
	<circle cx="26" cy="81" r="4"/>
</g>
<g fill="#000000">
	<circle cx="4" cy="187" r="4"/>
</g>
<g fill="#000000">
	<circle cx="394" cy="4" r="4"/>
</g>
<g fill="#000000">
	<circle cx="338" cy="4" r="4"/>
</g>
<g fill="#000000">
	<circle cx="394" cy="50" r="4"/>
</g>
<g fill="#000000">
	<circle cx="394" cy="137" r="4"/>
</g>
<g fill="#000000">
	<circle cx="347" cy="73" r="4"/>
</g>
<g fill="#000000">
	<circle cx="241" cy="4" r="4"/>
</g>
<g fill="#000000">
	<circle cx="193" cy="4" r="4"/>
</g>
<g fill="#000000">
	<circle cx="394" cy="179" r="4"/>
</g>
<g fill="#000000">
	<circle cx="394" cy="235" r="4"/>
</g>
<g fill="#000000">
	<circle cx="394" cy="294" r="4"/>
</g>

</g>

</svg>
