<?xml version="1.0" encoding="utf-8"?>
<!-- Created with Hypercube (http://tumic.wz.cz/hypercube) -->

<svg width="400" height="300" viewBox="0 0 400 300" xmlns="http://www.w3.org/2000/svg" baseProfile="tiny">

<g font-family="Helvetica" font-weight="normal">

<g>
	<polygon points="5,290 0,282 9,282" fill="#aaff00"/>
	<line x1="5" y1="241" x2="5" y2="283" stroke="#aaff00" stroke-width="2"/>
</g>
<g>
	<polygon points="47,295 39,299 39,290" fill="#aaff00"/>
	<line x1="5" y1="295" x2="40" y2="295" stroke="#aaff00" stroke-width="2"/>
</g>
<g>
	<polygon points="102,295 94,299 94,290" fill="#aaff00"/>
	<line x1="52" y1="295" x2="95" y2="295" stroke="#aaff00" stroke-width="2"/>
</g>
<g>
	<polygon points="174,295 166,299 166,290" fill="#aaff00"/>
	<line x1="107" y1="295" x2="167" y2="295" stroke="#aaff00" stroke-width="2"/>
</g>
<g>
	<polygon points="231,236 230,245 223,239" fill="#aaff00"/>
	<line x1="179" y1="295" x2="227" y2="241" stroke="#aaff00" stroke-width="2"/>
</g>
<g>
	<polygon points="172,152 181,155 173,161" fill="#aaff00"/>
	<line x1="235" y1="233" x2="177" y2="158" stroke="#aaff00" stroke-width="2"/>
</g>
<g>
	<polygon points="200,246 205,239 209,247" fill="#aaff00"/>
	<line x1="235" y1="233" x2="206" y2="243" stroke="#aaff00" stroke-width="2"/>
</g>
<g>
	<polygon points="283,257 274,258 278,250" fill="#aaff00"/>
	<line x1="235" y1="233" x2="276" y2="254" stroke="#aaff00" stroke-width="2"/>
</g>
<g>
	<polygon points="172,152 180,156 173,161" fill="#aaff00"/>
	<line x1="196" y1="188" x2="176" y2="158" stroke="#aaff00" stroke-width="2"/>
</g>
<g>
	<polygon points="151,203 157,196 160,205" fill="#aaff00"/>
	<line x1="196" y1="188" x2="158" y2="201" stroke="#aaff00" stroke-width="2"/>
</g>
<g>
	<polygon points="337,190 329,195 329,186" fill="#aaff00"/>
	<line x1="196" y1="188" x2="330" y2="190" stroke="#aaff00" stroke-width="2"/>
</g>
<g>
	<polygon points="302,181 311,178 308,187" fill="#aaff00"/>
	<line x1="342" y1="191" x2="309" y2="182" stroke="#aaff00" stroke-width="2"/>
</g>
<g>
	<polygon points="391,223 382,222 387,215" fill="#aaff00"/>
	<line x1="342" y1="191" x2="385" y2="219" stroke="#aaff00" stroke-width="2"/>
</g>
<g>
	<polygon points="392,117 391,126 384,121" fill="#aaff00"/>
	<line x1="342" y1="191" x2="388" y2="123" stroke="#aaff00" stroke-width="2"/>
</g>
<g>
	<polygon points="297,184 300,192 291,191" fill="#aaff00"/>
	<line x1="287" y1="260" x2="296" y2="191" stroke="#aaff00" stroke-width="2"/>
</g>
<g>
	<polygon points="336,292 327,291 332,284" fill="#aaff00"/>
	<line x1="287" y1="260" x2="330" y2="288" stroke="#aaff00" stroke-width="2"/>
</g>
<g>
	<polygon points="240,292 244,284 249,291" fill="#aaff00"/>
	<line x1="287" y1="260" x2="246" y2="288" stroke="#aaff00" stroke-width="2"/>
</g>
<g>
	<polygon points="149,267 158,265 155,273" fill="#aaff00"/>
	<line x1="237" y1="295" x2="156" y2="269" stroke="#aaff00" stroke-width="2"/>
</g>
<g>
	<polygon points="90,243 99,242 95,250" fill="#aaff00"/>
	<line x1="145" y1="266" x2="96" y2="246" stroke="#aaff00" stroke-width="2"/>
</g>
<g>
	<polygon points="96,197 99,206 90,203" fill="#aaff00"/>
	<line x1="86" y1="242" x2="95" y2="204" stroke="#aaff00" stroke-width="2"/>
</g>
<g>
	<polygon points="191,188 183,193 183,184" fill="#aaff00"/>
	<line x1="98" y1="193" x2="184" y2="188" stroke="#aaff00" stroke-width="2"/>
</g>
<g>
	<polygon points="296,175 289,170 297,166" fill="#aaff00"/>
	<line x1="246" y1="48" x2="293" y2="169" stroke="#aaff00" stroke-width="2"/>
</g>
<g>
	<polygon points="272,8 271,17 264,12" fill="#aaff00"/>
	<line x1="246" y1="48" x2="268" y2="14" stroke="#aaff00" stroke-width="2"/>
</g>
<g>
	<polygon points="167,7 176,6 172,14" fill="#aaff00"/>
	<line x1="246" y1="48" x2="174" y2="10" stroke="#aaff00" stroke-width="2"/>
</g>
<g>
	<polygon points="110,5 118,0 118,9" fill="#aaff00"/>
	<line x1="164" y1="5" x2="117" y2="5" stroke="#aaff00" stroke-width="2"/>
</g>
<g>
	<polygon points="55,5 63,0 63,9" fill="#aaff00"/>
	<line x1="106" y1="5" x2="62" y2="5" stroke="#aaff00" stroke-width="2"/>
</g>
<g>
	<polygon points="9,5 17,0 17,9" fill="#aaff00"/>
	<line x1="51" y1="5" x2="16" y2="5" stroke="#aaff00" stroke-width="2"/>
</g>
<g>
	<polygon points="170,144 166,136 175,137" fill="#aaff00"/>
	<line x1="177" y1="70" x2="171" y2="137" stroke="#aaff00" stroke-width="2"/>
</g>
<g>
	<polygon points="201,29 201,38 193,34" fill="#aaff00"/>
	<line x1="177" y1="70" x2="197" y2="35" stroke="#aaff00" stroke-width="2"/>
</g>
<g>
	<polygon points="241,49 235,56 232,47" fill="#aaff00"/>
	<line x1="177" y1="70" x2="234" y2="51" stroke="#aaff00" stroke-width="2"/>
</g>
<g>
	<polygon points="172,69 164,72 165,63" fill="#aaff00"/>
	<line x1="109" y1="60" x2="165" y2="68" stroke="#aaff00" stroke-width="2"/>
</g>
<g>
	<polygon points="104,61 98,68 95,59" fill="#aaff00"/>
	<line x1="54" y1="79" x2="97" y2="63" stroke="#aaff00" stroke-width="2"/>
</g>
<g>
	<polygon points="165,147 156,150 159,141" fill="#aaff00"/>
	<line x1="83" y1="128" x2="158" y2="146" stroke="#aaff00" stroke-width="2"/>
</g>
<g>
	<polygon points="12,137 19,131 20,140" fill="#aaff00"/>
	<line x1="83" y1="128" x2="19" y2="136" stroke="#aaff00" stroke-width="2"/>
</g>
<g>
	<polygon points="56,82 64,87 56,91" fill="#aaff00"/>
	<line x1="83" y1="128" x2="59" y2="89" stroke="#aaff00" stroke-width="2"/>
</g>
<g>
	<polygon points="87,126 93,120 96,129" fill="#aaff00"/>
	<line x1="138" y1="114" x2="94" y2="125" stroke="#aaff00" stroke-width="2"/>
</g>
<g>
	<polygon points="142,113 150,108 150,117" fill="#aaff00"/>
	<line x1="219" y1="110" x2="149" y2="113" stroke="#aaff00" stroke-width="2"/>
</g>
<g>
	<polygon points="345,130 337,133 338,124" fill="#aaff00"/>
	<line x1="285" y1="120" x2="338" y2="129" stroke="#aaff00" stroke-width="2"/>
</g>
<g>
	<polygon points="254,152 256,143 262,150" fill="#aaff00"/>
	<line x1="285" y1="120" x2="259" y2="147" stroke="#aaff00" stroke-width="2"/>
</g>
<g>
	<polygon points="223,110 231,107 230,116" fill="#aaff00"/>
	<line x1="285" y1="120" x2="230" y2="111" stroke="#aaff00" stroke-width="2"/>
</g>
<g>
	<polygon points="354,129 359,122 363,130" fill="#aaff00"/>
	<line x1="395" y1="114" x2="360" y2="126" stroke="#aaff00" stroke-width="2"/>
</g>
<g>
	<polygon points="395,27 399,35 390,35" fill="#aaff00"/>
	<line x1="395" y1="114" x2="395" y2="34" stroke="#aaff00" stroke-width="2"/>
</g>
<g>
	<polygon points="394,71 398,79 389,79" fill="#aaff00"/>
	<line x1="395" y1="114" x2="394" y2="78" stroke="#aaff00" stroke-width="2"/>
</g>
<g>
	<polygon points="360,8 368,13 360,17" fill="#aaff00"/>
	<line x1="394" y1="67" x2="363" y2="15" stroke="#aaff00" stroke-width="2"/>
</g>
<g>
	<polygon points="329,32 331,24 337,30" fill="#aaff00"/>
	<line x1="358" y1="5" x2="334" y2="27" stroke="#aaff00" stroke-width="2"/>
</g>
<g>
	<polygon points="316,78 313,70 322,72" fill="#aaff00"/>
	<line x1="326" y1="36" x2="317" y2="71" stroke="#aaff00" stroke-width="2"/>
</g>
<g>
	<polygon points="287,116 289,107 296,113" fill="#aaff00"/>
	<line x1="315" y1="83" x2="292" y2="110" stroke="#aaff00" stroke-width="2"/>
</g>

<g fill="#000000">
	<circle cx="4" cy="240" r="4"/>
</g>
<g fill="#000000">
	<circle cx="4" cy="294" r="4"/>
</g>
<g fill="#000000">
	<circle cx="51" cy="294" r="4"/>
</g>
<g fill="#000000">
	<circle cx="106" cy="294" r="4"/>
</g>
<g fill="#000000">
	<circle cx="178" cy="294" r="4"/>
</g>
<g fill="#000000">
	<circle cx="234" cy="232" r="4"/>
</g>
<g fill="#000000">
	<circle cx="169" cy="148" r="4"/>
</g>
<g fill="#000000">
	<circle cx="195" cy="247" r="4"/>
</g>
<g fill="#000000">
	<circle cx="286" cy="259" r="4"/>
</g>
<g fill="#000000">
	<circle cx="297" cy="179" r="4"/>
</g>
<g fill="#000000">
	<circle cx="339" cy="294" r="4"/>
</g>
<g fill="#000000">
	<circle cx="236" cy="294" r="4"/>
</g>
<g fill="#000000">
	<circle cx="144" cy="265" r="4"/>
</g>
<g fill="#000000">
	<circle cx="85" cy="241" r="4"/>
</g>
<g fill="#000000">
	<circle cx="97" cy="192" r="4"/>
</g>
<g fill="#000000">
	<circle cx="195" cy="187" r="4"/>
</g>
<g fill="#000000">
	<circle cx="146" cy="204" r="4"/>
</g>
<g fill="#000000">
	<circle cx="341" cy="190" r="4"/>
</g>
<g fill="#000000">
	<circle cx="394" cy="225" r="4"/>
</g>
<g fill="#000000">
	<circle cx="394" cy="113" r="4"/>
</g>
<g fill="#000000">
	<circle cx="349" cy="130" r="4"/>
</g>
<g fill="#000000">
	<circle cx="394" cy="22" r="4"/>
</g>
<g fill="#000000">
	<circle cx="393" cy="66" r="4"/>
</g>
<g fill="#000000">
	<circle cx="357" cy="4" r="4"/>
</g>
<g fill="#000000">
	<circle cx="325" cy="35" r="4"/>
</g>
<g fill="#000000">
	<circle cx="314" cy="82" r="4"/>
</g>
<g fill="#000000">
	<circle cx="284" cy="119" r="4"/>
</g>
<g fill="#000000">
	<circle cx="250" cy="155" r="4"/>
</g>
<g fill="#000000">
	<circle cx="218" cy="109" r="4"/>
</g>
<g fill="#000000">
	<circle cx="137" cy="113" r="4"/>
</g>
<g fill="#000000">
	<circle cx="82" cy="127" r="4"/>
</g>
<g fill="#000000">
	<circle cx="7" cy="137" r="4"/>
</g>
<g fill="#000000">
	<circle cx="53" cy="78" r="4"/>
</g>
<g fill="#000000">
	<circle cx="108" cy="59" r="4"/>
</g>
<g fill="#000000">
	<circle cx="176" cy="69" r="4"/>
</g>
<g fill="#000000">
	<circle cx="203" cy="25" r="4"/>
</g>
<g fill="#000000">
	<circle cx="245" cy="47" r="4"/>
</g>
<g fill="#000000">
	<circle cx="274" cy="4" r="4"/>
</g>
<g fill="#000000">
	<circle cx="163" cy="4" r="4"/>
</g>
<g fill="#000000">
	<circle cx="105" cy="4" r="4"/>
</g>
<g fill="#000000">
	<circle cx="50" cy="4" r="4"/>
</g>
<g fill="#000000">
	<circle cx="4" cy="4" r="4"/>
</g>

</g>

</svg>
