<?xml version="1.0" encoding="utf-8"?>
<!-- Created with Hypercube (http://tumic.wz.cz/hypercube) -->

<svg width="400" height="300" viewBox="0 0 400 300" xmlns="http://www.w3.org/2000/svg" baseProfile="tiny">

<g font-family="Helvetica" font-weight="normal">

<g>
	<polygon points="232,72 234,81 225,78" fill="#aaff00"/>
	<line x1="203" y1="160" x2="230" y2="79" stroke="#aaff00" stroke-width="2"/>
</g>
<g>
	<polygon points="213,223 207,216 216,215" fill="#aaff00"/>
	<line x1="203" y1="160" x2="212" y2="216" stroke="#aaff00" stroke-width="2"/>
</g>
<g>
	<polygon points="237,129 234,138 228,131" fill="#aaff00"/>
	<line x1="203" y1="160" x2="232" y2="134" stroke="#aaff00" stroke-width="2"/>
</g>
<g>
	<polygon points="315,7 311,15 306,8" fill="#aaff00"/>
	<line x1="234" y1="68" x2="309" y2="11" stroke="#aaff00" stroke-width="2"/>
</g>
<g>
	<polygon points="195,95 199,87 204,94" fill="#aaff00"/>
	<line x1="319" y1="5" x2="201" y2="91" stroke="#aaff00" stroke-width="2"/>
</g>
<g>
	<polygon points="279,35 283,26 288,34" fill="#aaff00"/>
	<line x1="319" y1="5" x2="285" y2="30" stroke="#aaff00" stroke-width="2"/>
</g>
<g>
	<polygon points="352,103 345,97 354,94" fill="#aaff00"/>
	<line x1="319" y1="5" x2="350" y2="96" stroke="#aaff00" stroke-width="2"/>
</g>
<g>
	<polygon points="392,126 384,121 392,117" fill="#aaff00"/>
	<line x1="319" y1="5" x2="388" y2="120" stroke="#aaff00" stroke-width="2"/>
</g>
<g>
	<polygon points="390,5 382,9 382,0" fill="#aaff00"/>
	<line x1="319" y1="5" x2="383" y2="5" stroke="#aaff00" stroke-width="2"/>
</g>
<g>
	<polygon points="329,36 322,30 331,27" fill="#aaff00"/>
	<line x1="319" y1="5" x2="327" y2="29" stroke="#aaff00" stroke-width="2"/>
</g>
<g>
	<polygon points="192,102 198,109 189,110" fill="#aaff00"/>
	<line x1="214" y1="228" x2="193" y2="109" stroke="#aaff00" stroke-width="2"/>
</g>
<g>
	<polygon points="218,227 225,222 226,231" fill="#aaff00"/>
	<line x1="349" y1="216" x2="225" y2="226" stroke="#aaff00" stroke-width="2"/>
</g>
<g>
	<polygon points="395,134 399,142 390,142" fill="#aaff00"/>
	<line x1="395" y1="207" x2="395" y2="141" stroke="#aaff00" stroke-width="2"/>
</g>
<g>
	<polygon points="353,215 360,209 361,218" fill="#aaff00"/>
	<line x1="395" y1="207" x2="360" y2="213" stroke="#aaff00" stroke-width="2"/>
</g>
<g>
	<polygon points="244,124 249,117 253,125" fill="#aaff00"/>
	<line x1="321" y1="83" x2="251" y2="121" stroke="#aaff00" stroke-width="2"/>
</g>
<g>
	<polygon points="319,9 323,17 314,17" fill="#aaff00"/>
	<line x1="321" y1="83" x2="319" y2="16" stroke="#aaff00" stroke-width="2"/>
</g>
<g>
	<polygon points="290,129 291,120 298,125" fill="#aaff00"/>
	<line x1="321" y1="83" x2="294" y2="123" stroke="#aaff00" stroke-width="2"/>
</g>
<g>
	<polygon points="370,45 366,53 361,46" fill="#aaff00"/>
	<line x1="321" y1="83" x2="364" y2="50" stroke="#aaff00" stroke-width="2"/>
</g>
<g>
	<polygon points="334,140 328,134 337,131" fill="#aaff00"/>
	<line x1="321" y1="83" x2="333" y2="133" stroke="#aaff00" stroke-width="2"/>
</g>
<g>
	<polygon points="247,8 255,10 249,16" fill="#aaff00"/>
	<line x1="321" y1="83" x2="252" y2="13" stroke="#aaff00" stroke-width="2"/>
</g>
<g>
	<polygon points="286,84 294,79 294,88" fill="#aaff00"/>
	<line x1="321" y1="83" x2="293" y2="84" stroke="#aaff00" stroke-width="2"/>
</g>
<g>
	<polygon points="350,105 341,104 346,96" fill="#aaff00"/>
	<line x1="321" y1="83" x2="344" y2="100" stroke="#aaff00" stroke-width="2"/>
</g>
<g>
	<polygon points="391,127 382,127 387,119" fill="#aaff00"/>
	<line x1="321" y1="83" x2="385" y2="123" stroke="#aaff00" stroke-width="2"/>
</g>
<g>
	<polygon points="329,45 332,54 323,51" fill="#aaff00"/>
	<line x1="321" y1="83" x2="328" y2="52" stroke="#aaff00" stroke-width="2"/>
</g>
<g>
	<polygon points="276,42 282,49 273,50" fill="#aaff00"/>
	<line x1="288" y1="133" x2="277" y2="49" stroke="#aaff00" stroke-width="2"/>
</g>
<g>
	<polygon points="265,237 261,229 270,229" fill="#aaff00"/>
	<line x1="265" y1="186" x2="265" y2="230" stroke="#aaff00" stroke-width="2"/>
</g>
<g>
	<polygon points="286,137 287,146 278,142" fill="#aaff00"/>
	<line x1="265" y1="186" x2="283" y2="143" stroke="#aaff00" stroke-width="2"/>
</g>
<g>
	<polygon points="269,239 274,232 278,240" fill="#aaff00"/>
	<line x1="305" y1="221" x2="276" y2="236" stroke="#aaff00" stroke-width="2"/>
</g>
<g>
	<polygon points="352,112 353,121 344,117" fill="#aaff00"/>
	<line x1="305" y1="221" x2="349" y2="118" stroke="#aaff00" stroke-width="2"/>
</g>
<g>
	<polygon points="289,290 287,282 295,283" fill="#aaff00"/>
	<line x1="305" y1="221" x2="291" y2="283" stroke="#aaff00" stroke-width="2"/>
</g>
<g>
	<polygon points="321,253 313,248 321,244" fill="#aaff00"/>
	<line x1="305" y1="221" x2="317" y2="247" stroke="#aaff00" stroke-width="2"/>
</g>
<g>
	<polygon points="337,295 329,299 329,290" fill="#aaff00"/>
	<line x1="289" y1="295" x2="330" y2="295" stroke="#aaff00" stroke-width="2"/>
</g>
<g>
	<polygon points="319,261 317,270 311,264" fill="#aaff00"/>
	<line x1="289" y1="295" x2="315" y2="266" stroke="#aaff00" stroke-width="2"/>
</g>
<g>
	<polygon points="325,262 332,266 324,270" fill="#aaff00"/>
	<line x1="342" y1="295" x2="328" y2="268" stroke="#aaff00" stroke-width="2"/>
</g>
<g>
	<polygon points="218,229 227,226 224,235" fill="#aaff00"/>
	<line x1="323" y1="258" x2="225" y2="231" stroke="#aaff00" stroke-width="2"/>
</g>
<g>
	<polygon points="270,243 279,240 276,249" fill="#aaff00"/>
	<line x1="323" y1="258" x2="277" y2="245" stroke="#aaff00" stroke-width="2"/>
</g>
<g>
	<polygon points="390,292 382,293 386,285" fill="#aaff00"/>
	<line x1="323" y1="258" x2="384" y2="289" stroke="#aaff00" stroke-width="2"/>
</g>
<g>
	<polygon points="391,209 387,217 382,210" fill="#aaff00"/>
	<line x1="323" y1="258" x2="385" y2="213" stroke="#aaff00" stroke-width="2"/>
</g>
<g>
	<polygon points="346,219 346,228 338,224" fill="#aaff00"/>
	<line x1="323" y1="258" x2="342" y2="225" stroke="#aaff00" stroke-width="2"/>
</g>
<g>
	<polygon points="292,134 301,131 298,140" fill="#aaff00"/>
	<line x1="336" y1="145" x2="299" y2="135" stroke="#aaff00" stroke-width="2"/>
</g>
<g>
	<polygon points="376,46 383,51 375,55" fill="#aaff00"/>
	<line x1="395" y1="83" x2="379" y2="53" stroke="#aaff00" stroke-width="2"/>
</g>
<g>
	<polygon points="339,141 341,132 347,139" fill="#aaff00"/>
	<line x1="395" y1="83" x2="344" y2="136" stroke="#aaff00" stroke-width="2"/>
</g>
<g>
	<polygon points="322,7 331,8 326,15" fill="#aaff00"/>
	<line x1="374" y1="43" x2="328" y2="11" stroke="#aaff00" stroke-width="2"/>
</g>
<g>
	<polygon points="314,5 306,9 306,0" fill="#aaff00"/>
	<line x1="244" y1="5" x2="307" y2="5" stroke="#aaff00" stroke-width="2"/>
</g>
<g>
	<polygon points="239,5 232,11 231,2" fill="#aaff00"/>
	<line x1="166" y1="20" x2="232" y2="7" stroke="#aaff00" stroke-width="2"/>
</g>
<g>
	<polygon points="9,64 18,64 14,72" fill="#aaff00"/>
	<line x1="66" y1="93" x2="15" y2="68" stroke="#aaff00" stroke-width="2"/>
</g>
<g>
	<polygon points="47,134 46,125 55,129" fill="#aaff00"/>
	<line x1="66" y1="93" x2="50" y2="128" stroke="#aaff00" stroke-width="2"/>
</g>
<g>
	<polygon points="162,22 158,30 153,23" fill="#aaff00"/>
	<line x1="66" y1="93" x2="156" y2="26" stroke="#aaff00" stroke-width="2"/>
</g>
<g>
	<polygon points="121,106 112,109 115,100" fill="#aaff00"/>
	<line x1="66" y1="93" x2="114" y2="105" stroke="#aaff00" stroke-width="2"/>
</g>
<g>
	<polygon points="39,201 36,192 45,195" fill="#aaff00"/>
	<line x1="66" y1="93" x2="40" y2="194" stroke="#aaff00" stroke-width="2"/>
</g>
<g>
	<polygon points="97,194 91,188 99,185" fill="#aaff00"/>
	<line x1="66" y1="93" x2="95" y2="187" stroke="#aaff00" stroke-width="2"/>
</g>
<g>
	<polygon points="53,54 60,60 51,63" fill="#aaff00"/>
	<line x1="66" y1="93" x2="55" y2="61" stroke="#aaff00" stroke-width="2"/>
</g>
<g>
	<polygon points="95,144 87,139 95,135" fill="#aaff00"/>
	<line x1="66" y1="93" x2="92" y2="137" stroke="#aaff00" stroke-width="2"/>
</g>
<g>
	<polygon points="7,159 9,150 16,156" fill="#aaff00"/>
	<line x1="66" y1="93" x2="12" y2="154" stroke="#aaff00" stroke-width="2"/>
</g>
<g>
	<polygon points="7,10 15,14 8,19" fill="#aaff00"/>
	<line x1="66" y1="93" x2="11" y2="16" stroke="#aaff00" stroke-width="2"/>
</g>
<g>
	<polygon points="55,9 60,16 52,17" fill="#aaff00"/>
	<line x1="66" y1="93" x2="56" y2="16" stroke="#aaff00" stroke-width="2"/>
</g>
<g>
	<polygon points="9,108 15,102 18,111" fill="#aaff00"/>
	<line x1="66" y1="93" x2="16" y2="106" stroke="#aaff00" stroke-width="2"/>
</g>
<g>
	<polygon points="105,9 105,18 97,14" fill="#aaff00"/>
	<line x1="66" y1="93" x2="102" y2="15" stroke="#aaff00" stroke-width="2"/>
</g>
<g>
	<polygon points="107,61 103,70 98,62" fill="#aaff00"/>
	<line x1="66" y1="93" x2="101" y2="66" stroke="#aaff00" stroke-width="2"/>
</g>

<g fill="#000000">
	<circle cx="65" cy="92" r="4"/>
</g>
<g fill="#000000">
	<circle cx="4" cy="62" r="4"/>
</g>
<g fill="#000000">
	<circle cx="45" cy="138" r="4"/>
</g>
<g fill="#000000">
	<circle cx="202" cy="159" r="4"/>
</g>
<g fill="#000000">
	<circle cx="233" cy="67" r="4"/>
</g>
<g fill="#000000">
	<circle cx="213" cy="227" r="4"/>
</g>
<g fill="#000000">
	<circle cx="240" cy="126" r="4"/>
</g>
<g fill="#000000">
	<circle cx="318" cy="4" r="4"/>
</g>
<g fill="#000000">
	<circle cx="191" cy="97" r="4"/>
</g>
<g fill="#000000">
	<circle cx="264" cy="185" r="4"/>
</g>
<g fill="#000000">
	<circle cx="265" cy="241" r="4"/>
</g>
<g fill="#000000">
	<circle cx="287" cy="132" r="4"/>
</g>
<g fill="#000000">
	<circle cx="304" cy="220" r="4"/>
</g>
<g fill="#000000">
	<circle cx="275" cy="37" r="4"/>
</g>
<g fill="#000000">
	<circle cx="125" cy="107" r="4"/>
</g>
<g fill="#000000">
	<circle cx="394" cy="82" r="4"/>
</g>
<g fill="#000000">
	<circle cx="373" cy="42" r="4"/>
</g>
<g fill="#000000">
	<circle cx="335" cy="144" r="4"/>
</g>
<g fill="#000000">
	<circle cx="165" cy="19" r="4"/>
</g>
<g fill="#000000">
	<circle cx="243" cy="4" r="4"/>
</g>
<g fill="#000000">
	<circle cx="37" cy="205" r="4"/>
</g>
<g fill="#000000">
	<circle cx="98" cy="198" r="4"/>
</g>
<g fill="#000000">
	<circle cx="281" cy="84" r="4"/>
</g>
<g fill="#000000">
	<circle cx="353" cy="107" r="4"/>
</g>
<g fill="#000000">
	<circle cx="394" cy="129" r="4"/>
</g>
<g fill="#000000">
	<circle cx="394" cy="4" r="4"/>
</g>
<g fill="#000000">
	<circle cx="330" cy="40" r="4"/>
</g>
<g fill="#000000">
	<circle cx="51" cy="49" r="4"/>
</g>
<g fill="#000000">
	<circle cx="320" cy="82" r="4"/>
</g>
<g fill="#000000">
	<circle cx="97" cy="147" r="4"/>
</g>
<g fill="#000000">
	<circle cx="4" cy="162" r="4"/>
</g>
<g fill="#000000">
	<circle cx="4" cy="6" r="4"/>
</g>
<g fill="#000000">
	<circle cx="54" cy="4" r="4"/>
</g>
<g fill="#000000">
	<circle cx="394" cy="294" r="4"/>
</g>
<g fill="#000000">
	<circle cx="4" cy="109" r="4"/>
</g>
<g fill="#000000">
	<circle cx="394" cy="206" r="4"/>
</g>
<g fill="#000000">
	<circle cx="348" cy="215" r="4"/>
</g>
<g fill="#000000">
	<circle cx="106" cy="4" r="4"/>
</g>
<g fill="#000000">
	<circle cx="110" cy="58" r="4"/>
</g>
<g fill="#000000">
	<circle cx="288" cy="294" r="4"/>
</g>
<g fill="#000000">
	<circle cx="341" cy="294" r="4"/>
</g>
<g fill="#000000">
	<circle cx="322" cy="257" r="4"/>
</g>

</g>

</svg>
