<?xml version="1.0" encoding="utf-8"?>
<!-- Created with Hypercube (http://tumic.wz.cz/hypercube) -->

<svg width="400" height="300" viewBox="0 0 400 300" xmlns="http://www.w3.org/2000/svg" baseProfile="tiny">

<g font-family="Helvetica" font-weight="normal">

<g>
	<polygon points="67,292 72,284 76,292" fill="#aaff00"/>
	<line x1="129" y1="257" x2="74" y2="289" stroke="#aaff00" stroke-width="2"/>
</g>
<g>
	<polygon points="149,291 141,286 149,282" fill="#aaff00"/>
	<line x1="129" y1="257" x2="145" y2="284" stroke="#aaff00" stroke-width="2"/>
</g>
<g>
	<polygon points="128,252 123,245 132,244" fill="#aaff00"/>
	<line x1="126" y1="216" x2="128" y2="245" stroke="#aaff00" stroke-width="2"/>
</g>
<g>
	<polygon points="207,174 203,181 199,173" fill="#aaff00"/>
	<line x1="126" y1="216" x2="201" y2="177" stroke="#aaff00" stroke-width="2"/>
</g>
<g>
	<polygon points="126,125 130,133 121,133" fill="#aaff00"/>
	<line x1="126" y1="216" x2="126" y2="132" stroke="#aaff00" stroke-width="2"/>
</g>
<g>
	<polygon points="298,275 289,277 292,268" fill="#aaff00"/>
	<line x1="126" y1="216" x2="291" y2="273" stroke="#aaff00" stroke-width="2"/>
</g>
<g>
	<polygon points="57,237 63,231 66,239" fill="#aaff00"/>
	<line x1="126" y1="216" x2="64" y2="235" stroke="#aaff00" stroke-width="2"/>
</g>
<g>
	<polygon points="154,162 155,171 147,167" fill="#aaff00"/>
	<line x1="126" y1="216" x2="151" y2="169" stroke="#aaff00" stroke-width="2"/>
</g>
<g>
	<polygon points="163,219 155,223 156,214" fill="#aaff00"/>
	<line x1="126" y1="216" x2="156" y2="218" stroke="#aaff00" stroke-width="2"/>
</g>
<g>
	<polygon points="85,196 94,196 90,204" fill="#aaff00"/>
	<line x1="126" y1="216" x2="91" y2="199" stroke="#aaff00" stroke-width="2"/>
</g>
<g>
	<polygon points="28,190 37,187 34,196" fill="#aaff00"/>
	<line x1="126" y1="216" x2="35" y2="191" stroke="#aaff00" stroke-width="2"/>
</g>
<g>
	<polygon points="258,172 250,176 250,167" fill="#aaff00"/>
	<line x1="212" y1="172" x2="251" y2="172" stroke="#aaff00" stroke-width="2"/>
</g>
<g>
	<polygon points="129,123 138,123 134,131" fill="#aaff00"/>
	<line x1="212" y1="172" x2="136" y2="126" stroke="#aaff00" stroke-width="2"/>
</g>
<g>
	<polygon points="230,205 223,200 230,196" fill="#aaff00"/>
	<line x1="212" y1="172" x2="227" y2="198" stroke="#aaff00" stroke-width="2"/>
</g>
<g>
	<polygon points="215,174 224,174 219,182" fill="#aaff00"/>
	<line x1="272" y1="210" x2="221" y2="178" stroke="#aaff00" stroke-width="2"/>
</g>
<g>
	<polygon points="264,176 270,182 261,185" fill="#aaff00"/>
	<line x1="272" y1="210" x2="265" y2="183" stroke="#aaff00" stroke-width="2"/>
</g>
<g>
	<polygon points="237,209 245,204 245,213" fill="#aaff00"/>
	<line x1="272" y1="210" x2="244" y2="209" stroke="#aaff00" stroke-width="2"/>
</g>
<g>
	<polygon points="228,247 231,238 237,245" fill="#aaff00"/>
	<line x1="272" y1="210" x2="233" y2="242" stroke="#aaff00" stroke-width="2"/>
</g>
<g>
	<polygon points="172,219 179,214 180,223" fill="#aaff00"/>
	<line x1="272" y1="210" x2="179" y2="218" stroke="#aaff00" stroke-width="2"/>
</g>
<g>
	<polygon points="266,259 262,251 271,252" fill="#aaff00"/>
	<line x1="272" y1="210" x2="267" y2="252" stroke="#aaff00" stroke-width="2"/>
</g>
<g>
	<polygon points="232,213 235,221 226,220" fill="#aaff00"/>
	<line x1="225" y1="250" x2="230" y2="220" stroke="#aaff00" stroke-width="2"/>
</g>
<g>
	<polygon points="208,175 206,184 200,177" fill="#aaff00"/>
	<line x1="192" y1="193" x2="203" y2="180" stroke="#aaff00" stroke-width="2"/>
</g>
<g>
	<polygon points="258,173 252,179 249,171" fill="#aaff00"/>
	<line x1="192" y1="193" x2="251" y2="175" stroke="#aaff00" stroke-width="2"/>
</g>
<g>
	<polygon points="228,207 219,208 223,200" fill="#aaff00"/>
	<line x1="192" y1="193" x2="222" y2="204" stroke="#aaff00" stroke-width="2"/>
</g>
<g>
	<polygon points="170,216 172,207 179,213" fill="#aaff00"/>
	<line x1="192" y1="193" x2="175" y2="211" stroke="#aaff00" stroke-width="2"/>
</g>
<g>
	<polygon points="229,151 227,160 220,154" fill="#aaff00"/>
	<line x1="192" y1="193" x2="224" y2="156" stroke="#aaff00" stroke-width="2"/>
</g>
<g>
	<polygon points="132,253 134,244 140,251" fill="#aaff00"/>
	<line x1="252" y1="125" x2="136" y2="248" stroke="#aaff00" stroke-width="2"/>
</g>
<g>
	<polygon points="214,168 216,159 223,165" fill="#aaff00"/>
	<line x1="252" y1="125" x2="219" y2="163" stroke="#aaff00" stroke-width="2"/>
</g>
<g>
	<polygon points="261,167 255,161 264,159" fill="#aaff00"/>
	<line x1="252" y1="125" x2="260" y2="160" stroke="#aaff00" stroke-width="2"/>
</g>
<g>
	<polygon points="130,121 138,116 138,125" fill="#aaff00"/>
	<line x1="252" y1="125" x2="137" y2="121" stroke="#aaff00" stroke-width="2"/>
</g>
<g>
	<polygon points="233,204 231,196 240,198" fill="#aaff00"/>
	<line x1="252" y1="125" x2="235" y2="197" stroke="#aaff00" stroke-width="2"/>
</g>
<g>
	<polygon points="301,272 294,266 303,263" fill="#aaff00"/>
	<line x1="252" y1="125" x2="299" y2="265" stroke="#aaff00" stroke-width="2"/>
</g>
<g>
	<polygon points="171,24 180,27 173,33" fill="#aaff00"/>
	<line x1="252" y1="125" x2="176" y2="30" stroke="#aaff00" stroke-width="2"/>
</g>
<g>
	<polygon points="129,213 133,205 138,212" fill="#aaff00"/>
	<line x1="252" y1="125" x2="135" y2="209" stroke="#aaff00" stroke-width="2"/>
</g>
<g>
	<polygon points="161,157 167,150 170,159" fill="#aaff00"/>
	<line x1="252" y1="125" x2="168" y2="155" stroke="#aaff00" stroke-width="2"/>
</g>
<g>
	<polygon points="170,216 172,207 179,213" fill="#aaff00"/>
	<line x1="252" y1="125" x2="175" y2="211" stroke="#aaff00" stroke-width="2"/>
</g>
<g>
	<polygon points="270,205 264,199 273,197" fill="#aaff00"/>
	<line x1="252" y1="125" x2="269" y2="198" stroke="#aaff00" stroke-width="2"/>
</g>
<g>
	<polygon points="194,189 196,180 203,186" fill="#aaff00"/>
	<line x1="252" y1="125" x2="199" y2="184" stroke="#aaff00" stroke-width="2"/>
</g>
<g>
	<polygon points="234,144 236,135 243,141" fill="#aaff00"/>
	<line x1="252" y1="125" x2="239" y2="139" stroke="#aaff00" stroke-width="2"/>
</g>
<g>
	<polygon points="165,90 174,89 170,97" fill="#aaff00"/>
	<line x1="252" y1="125" x2="171" y2="93" stroke="#aaff00" stroke-width="2"/>
</g>
<g>
	<polygon points="257,9 261,17 252,17" fill="#aaff00"/>
	<line x1="252" y1="125" x2="257" y2="16" stroke="#aaff00" stroke-width="2"/>
</g>
<g>
	<polygon points="223,43 230,49 221,52" fill="#aaff00"/>
	<line x1="252" y1="125" x2="225" y2="50" stroke="#aaff00" stroke-width="2"/>
</g>
<g>
	<polygon points="216,93 225,94 219,101" fill="#aaff00"/>
	<line x1="252" y1="125" x2="221" y2="97" stroke="#aaff00" stroke-width="2"/>
</g>
<g>
	<polygon points="354,108 347,114 346,105" fill="#aaff00"/>
	<line x1="252" y1="125" x2="347" y2="109" stroke="#aaff00" stroke-width="2"/>
</g>
<g>
	<polygon points="300,118 293,124 292,115" fill="#aaff00"/>
	<line x1="252" y1="125" x2="293" y2="119" stroke="#aaff00" stroke-width="2"/>
</g>
<g>
	<polygon points="306,67 304,76 298,69" fill="#aaff00"/>
	<line x1="252" y1="125" x2="301" y2="72" stroke="#aaff00" stroke-width="2"/>
</g>
<g>
	<polygon points="317,165 308,165 312,157" fill="#aaff00"/>
	<line x1="252" y1="125" x2="311" y2="161" stroke="#aaff00" stroke-width="2"/>
</g>
<g>
	<polygon points="261,73 264,81 255,80" fill="#aaff00"/>
	<line x1="252" y1="125" x2="259" y2="80" stroke="#aaff00" stroke-width="2"/>
</g>
<g>
	<polygon points="358,56 354,64 349,56" fill="#aaff00"/>
	<line x1="252" y1="125" x2="352" y2="60" stroke="#aaff00" stroke-width="2"/>
</g>
<g>
	<polygon points="369,156 360,159 363,150" fill="#aaff00"/>
	<line x1="252" y1="125" x2="362" y2="154" stroke="#aaff00" stroke-width="2"/>
</g>
<g>
	<polygon points="312,14 312,23 305,19" fill="#aaff00"/>
	<line x1="252" y1="125" x2="309" y2="21" stroke="#aaff00" stroke-width="2"/>
</g>
<g>
	<polygon points="121,121 113,125 113,116" fill="#aaff00"/>
	<line x1="60" y1="123" x2="114" y2="121" stroke="#aaff00" stroke-width="2"/>
</g>
<g>
	<polygon points="124,116 117,110 126,107" fill="#aaff00"/>
	<line x1="110" y1="71" x2="122" y2="109" stroke="#aaff00" stroke-width="2"/>
</g>
<g>
	<polygon points="129,117 132,109 138,116" fill="#aaff00"/>
	<line x1="161" y1="89" x2="134" y2="113" stroke="#aaff00" stroke-width="2"/>
</g>
<g>
	<polygon points="114,72 123,70 120,79" fill="#aaff00"/>
	<line x1="161" y1="89" x2="121" y2="74" stroke="#aaff00" stroke-width="2"/>
</g>
<g>
	<polygon points="122,118 113,117 118,110" fill="#aaff00"/>
	<line x1="46" y1="68" x2="116" y2="114" stroke="#aaff00" stroke-width="2"/>
</g>
<g>
	<polygon points="390,240 385,247 381,239" fill="#aaff00"/>
	<line x1="303" y1="277" x2="384" y2="243" stroke="#aaff00" stroke-width="2"/>
</g>
<g>
	<polygon points="390,294 382,297 383,288" fill="#aaff00"/>
	<line x1="303" y1="277" x2="383" y2="292" stroke="#aaff00" stroke-width="2"/>
</g>
<g>
	<polygon points="339,293 330,294 334,285" fill="#aaff00"/>
	<line x1="303" y1="277" x2="333" y2="290" stroke="#aaff00" stroke-width="2"/>
</g>
<g>
	<polygon points="338,245 335,253 329,246" fill="#aaff00"/>
	<line x1="303" y1="277" x2="333" y2="249" stroke="#aaff00" stroke-width="2"/>
</g>
<g>
	<polygon points="117,6 126,4 123,12" fill="#aaff00"/>
	<line x1="169" y1="21" x2="124" y2="8" stroke="#aaff00" stroke-width="2"/>
</g>
<g>
	<polygon points="59,295 51,299 51,290" fill="#aaff00"/>
	<line x1="5" y1="295" x2="52" y2="295" stroke="#aaff00" stroke-width="2"/>
</g>

<g fill="#000000">
	<circle cx="4" cy="294" r="4"/>
</g>
<g fill="#000000">
	<circle cx="128" cy="256" r="4"/>
</g>
<g fill="#000000">
	<circle cx="63" cy="294" r="4"/>
</g>
<g fill="#000000">
	<circle cx="151" cy="294" r="4"/>
</g>
<g fill="#000000">
	<circle cx="211" cy="171" r="4"/>
</g>
<g fill="#000000">
	<circle cx="262" cy="171" r="4"/>
</g>
<g fill="#000000">
	<circle cx="125" cy="120" r="4"/>
</g>
<g fill="#000000">
	<circle cx="232" cy="208" r="4"/>
</g>
<g fill="#000000">
	<circle cx="302" cy="276" r="4"/>
</g>
<g fill="#000000">
	<circle cx="394" cy="238" r="4"/>
</g>
<g fill="#000000">
	<circle cx="394" cy="294" r="4"/>
</g>
<g fill="#000000">
	<circle cx="343" cy="294" r="4"/>
</g>
<g fill="#000000">
	<circle cx="341" cy="241" r="4"/>
</g>
<g fill="#000000">
	<circle cx="224" cy="249" r="4"/>
</g>
<g fill="#000000">
	<circle cx="59" cy="122" r="4"/>
</g>
<g fill="#000000">
	<circle cx="168" cy="20" r="4"/>
</g>
<g fill="#000000">
	<circle cx="112" cy="4" r="4"/>
</g>
<g fill="#000000">
	<circle cx="109" cy="70" r="4"/>
</g>
<g fill="#000000">
	<circle cx="125" cy="215" r="4"/>
</g>
<g fill="#000000">
	<circle cx="52" cy="238" r="4"/>
</g>
<g fill="#000000">
	<circle cx="156" cy="158" r="4"/>
</g>
<g fill="#000000">
	<circle cx="167" cy="219" r="4"/>
</g>
<g fill="#000000">
	<circle cx="80" cy="194" r="4"/>
</g>
<g fill="#000000">
	<circle cx="23" cy="188" r="4"/>
</g>
<g fill="#000000">
	<circle cx="271" cy="209" r="4"/>
</g>
<g fill="#000000">
	<circle cx="265" cy="263" r="4"/>
</g>
<g fill="#000000">
	<circle cx="191" cy="192" r="4"/>
</g>
<g fill="#000000">
	<circle cx="231" cy="147" r="4"/>
</g>
<g fill="#000000">
	<circle cx="160" cy="88" r="4"/>
</g>
<g fill="#000000">
	<circle cx="45" cy="67" r="4"/>
</g>
<g fill="#000000">
	<circle cx="251" cy="124" r="4"/>
</g>
<g fill="#000000">
	<circle cx="257" cy="4" r="4"/>
</g>
<g fill="#000000">
	<circle cx="221" cy="38" r="4"/>
</g>
<g fill="#000000">
	<circle cx="212" cy="89" r="4"/>
</g>
<g fill="#000000">
	<circle cx="358" cy="107" r="4"/>
</g>
<g fill="#000000">
	<circle cx="304" cy="117" r="4"/>
</g>
<g fill="#000000">
	<circle cx="309" cy="63" r="4"/>
</g>
<g fill="#000000">
	<circle cx="320" cy="167" r="4"/>
</g>
<g fill="#000000">
	<circle cx="261" cy="68" r="4"/>
</g>
<g fill="#000000">
	<circle cx="361" cy="53" r="4"/>
</g>
<g fill="#000000">
	<circle cx="373" cy="157" r="4"/>
</g>
<g fill="#000000">
	<circle cx="314" cy="10" r="4"/>
</g>

</g>

</svg>
