<?xml version="1.0" encoding="utf-8"?>
<!-- Created with Hypercube (http://tumic.wz.cz/hypercube) -->

<svg width="400" height="300" viewBox="0 0 400 300" xmlns="http://www.w3.org/2000/svg" baseProfile="tiny">

<g font-family="Helvetica" font-weight="normal">

<g>
	<polygon points="39,227 44,220 48,228" fill="#aaff00"/>
	<line x1="138" y1="189" x2="45" y2="224" stroke="#aaff00" stroke-width="2"/>
</g>
<g>
	<polygon points="247,128 242,135 238,128" fill="#aaff00"/>
	<line x1="138" y1="189" x2="240" y2="131" stroke="#aaff00" stroke-width="2"/>
</g>
<g>
	<polygon points="102,231 104,222 111,228" fill="#aaff00"/>
	<line x1="138" y1="189" x2="107" y2="225" stroke="#aaff00" stroke-width="2"/>
</g>
<g>
	<polygon points="139,135 144,143 135,143" fill="#aaff00"/>
	<line x1="138" y1="189" x2="139" y2="142" stroke="#aaff00" stroke-width="2"/>
</g>
<g>
	<polygon points="155,239 148,233 157,230" fill="#aaff00"/>
	<line x1="138" y1="189" x2="153" y2="232" stroke="#aaff00" stroke-width="2"/>
</g>
<g>
	<polygon points="84,181 92,178 91,187" fill="#aaff00"/>
	<line x1="138" y1="189" x2="91" y2="182" stroke="#aaff00" stroke-width="2"/>
</g>
<g>
	<polygon points="181,161 177,169 172,161" fill="#aaff00"/>
	<line x1="138" y1="189" x2="175" y2="165" stroke="#aaff00" stroke-width="2"/>
</g>
<g>
	<polygon points="339,62 335,70 330,63" fill="#aaff00"/>
	<line x1="251" y1="126" x2="333" y2="66" stroke="#aaff00" stroke-width="2"/>
</g>
<g>
	<polygon points="346,9 350,17 341,16" fill="#aaff00"/>
	<line x1="343" y1="60" x2="346" y2="16" stroke="#aaff00" stroke-width="2"/>
</g>
<g>
	<polygon points="391,105 382,103 389,97" fill="#aaff00"/>
	<line x1="343" y1="60" x2="386" y2="100" stroke="#aaff00" stroke-width="2"/>
</g>
<g>
	<polygon points="390,58 382,62 382,53" fill="#aaff00"/>
	<line x1="343" y1="60" x2="383" y2="58" stroke="#aaff00" stroke-width="2"/>
</g>
<g>
	<polygon points="298,64 305,59 306,68" fill="#aaff00"/>
	<line x1="343" y1="60" x2="305" y2="63" stroke="#aaff00" stroke-width="2"/>
</g>
<g>
	<polygon points="297,8 306,11 299,17" fill="#aaff00"/>
	<line x1="343" y1="60" x2="302" y2="13" stroke="#aaff00" stroke-width="2"/>
</g>
<g>
	<polygon points="391,8 389,17 383,10" fill="#aaff00"/>
	<line x1="343" y1="60" x2="386" y2="13" stroke="#aaff00" stroke-width="2"/>
</g>
<g>
	<polygon points="336,111 333,103 341,104" fill="#aaff00"/>
	<line x1="343" y1="60" x2="337" y2="104" stroke="#aaff00" stroke-width="2"/>
</g>
<g>
	<polygon points="180,92 178,100 171,94" fill="#aaff00"/>
	<line x1="140" y1="131" x2="175" y2="97" stroke="#aaff00" stroke-width="2"/>
</g>
<g>
	<polygon points="119,70 128,68 125,76" fill="#aaff00"/>
	<line x1="184" y1="89" x2="126" y2="72" stroke="#aaff00" stroke-width="2"/>
</g>
<g>
	<polygon points="253,178 244,175 252,169" fill="#aaff00"/>
	<line x1="184" y1="89" x2="248" y2="172" stroke="#aaff00" stroke-width="2"/>
</g>
<g>
	<polygon points="227,71 222,78 218,70" fill="#aaff00"/>
	<line x1="184" y1="89" x2="221" y2="74" stroke="#aaff00" stroke-width="2"/>
</g>
<g>
	<polygon points="155,9 162,15 153,18" fill="#aaff00"/>
	<line x1="184" y1="89" x2="157" y2="16" stroke="#aaff00" stroke-width="2"/>
</g>
<g>
	<polygon points="220,9 221,18 212,14" fill="#aaff00"/>
	<line x1="184" y1="89" x2="217" y2="15" stroke="#aaff00" stroke-width="2"/>
</g>
<g>
	<polygon points="182,46 187,54 178,54" fill="#aaff00"/>
	<line x1="184" y1="89" x2="182" y2="53" stroke="#aaff00" stroke-width="2"/>
</g>
<g>
	<polygon points="184,154 180,146 189,146" fill="#aaff00"/>
	<line x1="184" y1="89" x2="184" y2="147" stroke="#aaff00" stroke-width="2"/>
</g>
<g>
	<polygon points="53,66 61,62 61,71" fill="#aaff00"/>
	<line x1="115" y1="69" x2="60" y2="66" stroke="#aaff00" stroke-width="2"/>
</g>
<g>
	<polygon points="93,16 91,25 84,19" fill="#aaff00"/>
	<line x1="49" y1="66" x2="88" y2="21" stroke="#aaff00" stroke-width="2"/>
</g>
<g>
	<polygon points="51,9 55,17 46,17" fill="#aaff00"/>
	<line x1="49" y1="66" x2="51" y2="16" stroke="#aaff00" stroke-width="2"/>
</g>
<g>
	<polygon points="62,111 56,105 64,102" fill="#aaff00"/>
	<line x1="49" y1="66" x2="60" y2="104" stroke="#aaff00" stroke-width="2"/>
</g>
<g>
	<polygon points="7,8 15,12 8,17" fill="#aaff00"/>
	<line x1="49" y1="66" x2="11" y2="14" stroke="#aaff00" stroke-width="2"/>
</g>
<g>
	<polygon points="7,146 6,137 14,141" fill="#aaff00"/>
	<line x1="49" y1="66" x2="10" y2="139" stroke="#aaff00" stroke-width="2"/>
</g>
<g>
	<polygon points="8,97 11,88 17,96" fill="#aaff00"/>
	<line x1="49" y1="66" x2="14" y2="92" stroke="#aaff00" stroke-width="2"/>
</g>
<g>
	<polygon points="9,52 18,50 15,59" fill="#aaff00"/>
	<line x1="49" y1="66" x2="16" y2="54" stroke="#aaff00" stroke-width="2"/>
</g>
<g>
	<polygon points="333,241 324,240 329,232" fill="#aaff00"/>
	<line x1="256" y1="182" x2="327" y2="236" stroke="#aaff00" stroke-width="2"/>
</g>
<g>
	<polygon points="391,195 388,204 382,197" fill="#aaff00"/>
	<line x1="337" y1="244" x2="386" y2="200" stroke="#aaff00" stroke-width="2"/>
</g>
<g>
	<polygon points="330,197 336,204 327,205" fill="#aaff00"/>
	<line x1="337" y1="244" x2="331" y2="204" stroke="#aaff00" stroke-width="2"/>
</g>
<g>
	<polygon points="292,291 294,282 300,289" fill="#aaff00"/>
	<line x1="337" y1="244" x2="297" y2="286" stroke="#aaff00" stroke-width="2"/>
</g>
<g>
	<polygon points="390,242 382,246 382,237" fill="#aaff00"/>
	<line x1="337" y1="244" x2="383" y2="242" stroke="#aaff00" stroke-width="2"/>
</g>
<g>
	<polygon points="284,244 292,239 292,248" fill="#aaff00"/>
	<line x1="337" y1="244" x2="291" y2="244" stroke="#aaff00" stroke-width="2"/>
</g>
<g>
	<polygon points="342,290 337,283 346,282" fill="#aaff00"/>
	<line x1="337" y1="244" x2="341" y2="283" stroke="#aaff00" stroke-width="2"/>
</g>
<g>
	<polygon points="391,292 382,290 388,283" fill="#aaff00"/>
	<line x1="337" y1="244" x2="386" y2="287" stroke="#aaff00" stroke-width="2"/>
</g>
<g>
	<polygon points="131,291 130,282 138,286" fill="#aaff00"/>
	<line x1="157" y1="244" x2="134" y2="284" stroke="#aaff00" stroke-width="2"/>
</g>
<g>
	<polygon points="72,295 80,290 80,299" fill="#aaff00"/>
	<line x1="129" y1="295" x2="79" y2="295" stroke="#aaff00" stroke-width="2"/>
</g>
<g>
	<polygon points="180,295 172,299 172,290" fill="#aaff00"/>
	<line x1="129" y1="295" x2="173" y2="295" stroke="#aaff00" stroke-width="2"/>
</g>

<g fill="#000000">
	<circle cx="137" cy="188" r="4"/>
</g>
<g fill="#000000">
	<circle cx="34" cy="228" r="4"/>
</g>
<g fill="#000000">
	<circle cx="250" cy="125" r="4"/>
</g>
<g fill="#000000">
	<circle cx="99" cy="234" r="4"/>
</g>
<g fill="#000000">
	<circle cx="139" cy="130" r="4"/>
</g>
<g fill="#000000">
	<circle cx="156" cy="243" r="4"/>
</g>
<g fill="#000000">
	<circle cx="79" cy="180" r="4"/>
</g>
<g fill="#000000">
	<circle cx="342" cy="59" r="4"/>
</g>
<g fill="#000000">
	<circle cx="183" cy="88" r="4"/>
</g>
<g fill="#000000">
	<circle cx="128" cy="294" r="4"/>
</g>
<g fill="#000000">
	<circle cx="346" cy="4" r="4"/>
</g>
<g fill="#000000">
	<circle cx="394" cy="108" r="4"/>
</g>
<g fill="#000000">
	<circle cx="394" cy="57" r="4"/>
</g>
<g fill="#000000">
	<circle cx="293" cy="64" r="4"/>
</g>
<g fill="#000000">
	<circle cx="294" cy="4" r="4"/>
</g>
<g fill="#000000">
	<circle cx="394" cy="4" r="4"/>
</g>
<g fill="#000000">
	<circle cx="335" cy="115" r="4"/>
</g>
<g fill="#000000">
	<circle cx="67" cy="294" r="4"/>
</g>
<g fill="#000000">
	<circle cx="184" cy="294" r="4"/>
</g>
<g fill="#000000">
	<circle cx="114" cy="68" r="4"/>
</g>
<g fill="#000000">
	<circle cx="255" cy="181" r="4"/>
</g>
<g fill="#000000">
	<circle cx="231" cy="69" r="4"/>
</g>
<g fill="#000000">
	<circle cx="153" cy="4" r="4"/>
</g>
<g fill="#000000">
	<circle cx="221" cy="4" r="4"/>
</g>
<g fill="#000000">
	<circle cx="181" cy="41" r="4"/>
</g>
<g fill="#000000">
	<circle cx="184" cy="158" r="4"/>
</g>
<g fill="#000000">
	<circle cx="48" cy="65" r="4"/>
</g>
<g fill="#000000">
	<circle cx="336" cy="243" r="4"/>
</g>
<g fill="#000000">
	<circle cx="394" cy="192" r="4"/>
</g>
<g fill="#000000">
	<circle cx="329" cy="192" r="4"/>
</g>
<g fill="#000000">
	<circle cx="288" cy="294" r="4"/>
</g>
<g fill="#000000">
	<circle cx="394" cy="241" r="4"/>
</g>
<g fill="#000000">
	<circle cx="279" cy="243" r="4"/>
</g>
<g fill="#000000">
	<circle cx="342" cy="294" r="4"/>
</g>
<g fill="#000000">
	<circle cx="394" cy="294" r="4"/>
</g>
<g fill="#000000">
	<circle cx="95" cy="12" r="4"/>
</g>
<g fill="#000000">
	<circle cx="51" cy="4" r="4"/>
</g>
<g fill="#000000">
	<circle cx="63" cy="115" r="4"/>
</g>
<g fill="#000000">
	<circle cx="4" cy="4" r="4"/>
</g>
<g fill="#000000">
	<circle cx="4" cy="149" r="4"/>
</g>
<g fill="#000000">
	<circle cx="4" cy="99" r="4"/>
</g>
<g fill="#000000">
	<circle cx="4" cy="50" r="4"/>
</g>

</g>

</svg>
