<?xml version="1.0" encoding="utf-8"?>
<!-- Created with Hypercube (http://tumic.wz.cz/hypercube) -->

<svg width="400" height="300" viewBox="0 0 400 300" xmlns="http://www.w3.org/2000/svg" baseProfile="tiny">

<g font-family="Helvetica" font-weight="normal">

<g>
	<polygon points="347,201 355,206 347,210" fill="#aaff00"/>
	<line x1="374" y1="248" x2="350" y2="208" stroke="#aaff00" stroke-width="2"/>
</g>
<g>
	<polygon points="284,234 292,231 291,240" fill="#aaff00"/>
	<line x1="374" y1="248" x2="291" y2="235" stroke="#aaff00" stroke-width="2"/>
</g>
<g>
	<polygon points="393,191 395,200 386,197" fill="#aaff00"/>
	<line x1="374" y1="248" x2="391" y2="198" stroke="#aaff00" stroke-width="2"/>
</g>
<g>
	<polygon points="272,91 280,95 273,100" fill="#aaff00"/>
	<line x1="345" y1="198" x2="276" y2="97" stroke="#aaff00" stroke-width="2"/>
</g>
<g>
	<polygon points="288,128 280,123 289,119" fill="#aaff00"/>
	<line x1="270" y1="88" x2="285" y2="122" stroke="#aaff00" stroke-width="2"/>
</g>
<g>
	<polygon points="299,170 292,164 301,161" fill="#aaff00"/>
	<line x1="270" y1="88" x2="297" y2="163" stroke="#aaff00" stroke-width="2"/>
</g>
<g>
	<polygon points="231,118 234,109 240,116" fill="#aaff00"/>
	<line x1="270" y1="88" x2="237" y2="113" stroke="#aaff00" stroke-width="2"/>
</g>
<g>
	<polygon points="180,147 184,139 189,146" fill="#aaff00"/>
	<line x1="270" y1="88" x2="186" y2="143" stroke="#aaff00" stroke-width="2"/>
</g>
<g>
	<polygon points="292,59 290,68 283,62" fill="#aaff00"/>
	<line x1="270" y1="88" x2="287" y2="65" stroke="#aaff00" stroke-width="2"/>
</g>
<g>
	<polygon points="289,137 293,145 284,144" fill="#aaff00"/>
	<line x1="280" y1="234" x2="288" y2="144" stroke="#aaff00" stroke-width="2"/>
</g>
<g>
	<polygon points="275,232 266,234 269,225" fill="#aaff00"/>
	<line x1="239" y1="221" x2="268" y2="230" stroke="#aaff00" stroke-width="2"/>
</g>
<g>
	<polygon points="227,125 231,133 222,132" fill="#aaff00"/>
	<line x1="222" y1="181" x2="226" y2="132" stroke="#aaff00" stroke-width="2"/>
</g>
<g>
	<polygon points="237,216 230,211 238,207" fill="#aaff00"/>
	<line x1="222" y1="181" x2="234" y2="210" stroke="#aaff00" stroke-width="2"/>
</g>
<g>
	<polygon points="275,235 270,242 266,234" fill="#aaff00"/>
	<line x1="212" y1="262" x2="269" y2="238" stroke="#aaff00" stroke-width="2"/>
</g>
<g>
	<polygon points="188,233 197,236 190,242" fill="#aaff00"/>
	<line x1="212" y1="262" x2="193" y2="239" stroke="#aaff00" stroke-width="2"/>
</g>
<g>
	<polygon points="221,185 224,193 216,192" fill="#aaff00"/>
	<line x1="212" y1="262" x2="220" y2="192" stroke="#aaff00" stroke-width="2"/>
</g>
<g>
	<polygon points="236,224 235,233 228,228" fill="#aaff00"/>
	<line x1="212" y1="262" x2="232" y2="230" stroke="#aaff00" stroke-width="2"/>
</g>
<g>
	<polygon points="152,235 161,235 157,242" fill="#aaff00"/>
	<line x1="252" y1="291" x2="159" y2="238" stroke="#aaff00" stroke-width="2"/>
</g>
<g>
	<polygon points="215,264 224,265 219,272" fill="#aaff00"/>
	<line x1="252" y1="291" x2="221" y2="268" stroke="#aaff00" stroke-width="2"/>
</g>
<g>
	<polygon points="175,154 177,163 168,160" fill="#aaff00"/>
	<line x1="149" y1="233" x2="173" y2="161" stroke="#aaff00" stroke-width="2"/>
</g>
<g>
	<polygon points="131,275 130,266 138,270" fill="#aaff00"/>
	<line x1="149" y1="233" x2="134" y2="269" stroke="#aaff00" stroke-width="2"/>
</g>
<g>
	<polygon points="207,260 198,260 202,252" fill="#aaff00"/>
	<line x1="149" y1="233" x2="201" y2="257" stroke="#aaff00" stroke-width="2"/>
</g>
<g>
	<polygon points="169,293 160,295 163,286" fill="#aaff00"/>
	<line x1="130" y1="280" x2="162" y2="291" stroke="#aaff00" stroke-width="2"/>
</g>
<g>
	<polygon points="207,262 200,269 199,260" fill="#aaff00"/>
	<line x1="130" y1="280" x2="200" y2="264" stroke="#aaff00" stroke-width="2"/>
</g>
<g>
	<polygon points="208,264 205,273 199,266" fill="#aaff00"/>
	<line x1="174" y1="295" x2="203" y2="269" stroke="#aaff00" stroke-width="2"/>
</g>
<g>
	<polygon points="255,288 259,280 264,287" fill="#aaff00"/>
	<line x1="322" y1="240" x2="261" y2="284" stroke="#aaff00" stroke-width="2"/>
</g>
<g>
	<polygon points="353,158 354,167 346,163" fill="#aaff00"/>
	<line x1="322" y1="240" x2="350" y2="164" stroke="#aaff00" stroke-width="2"/>
</g>
<g>
	<polygon points="320,235 313,229 322,226" fill="#aaff00"/>
	<line x1="301" y1="175" x2="318" y2="228" stroke="#aaff00" stroke-width="2"/>
</g>
<g>
	<polygon points="350,155 345,162 341,154" fill="#aaff00"/>
	<line x1="301" y1="175" x2="344" y2="158" stroke="#aaff00" stroke-width="2"/>
</g>
<g>
	<polygon points="357,150 356,141 364,145" fill="#aaff00"/>
	<line x1="395" y1="79" x2="360" y2="143" stroke="#aaff00" stroke-width="2"/>
</g>
<g>
	<polygon points="330,15 337,9 338,18" fill="#aaff00"/>
	<line x1="395" y1="5" x2="337" y2="14" stroke="#aaff00" stroke-width="2"/>
</g>
<g>
	<polygon points="395,74 390,66 399,66" fill="#aaff00"/>
	<line x1="395" y1="5" x2="395" y2="67" stroke="#aaff00" stroke-width="2"/>
</g>
<g>
	<polygon points="272,84 273,75 281,81" fill="#aaff00"/>
	<line x1="326" y1="16" x2="277" y2="78" stroke="#aaff00" stroke-width="2"/>
</g>
<g>
	<polygon points="392,183 384,178 392,174" fill="#aaff00"/>
	<line x1="334" y1="88" x2="388" y2="177" stroke="#aaff00" stroke-width="2"/>
</g>
<g>
	<polygon points="274,88 282,83 282,92" fill="#aaff00"/>
	<line x1="334" y1="88" x2="281" y2="88" stroke="#aaff00" stroke-width="2"/>
</g>
<g>
	<polygon points="293,129 295,121 301,127" fill="#aaff00"/>
	<line x1="334" y1="88" x2="298" y2="124" stroke="#aaff00" stroke-width="2"/>
</g>
<g>
	<polygon points="353,149 346,143 355,140" fill="#aaff00"/>
	<line x1="334" y1="88" x2="351" y2="142" stroke="#aaff00" stroke-width="2"/>
</g>
<g>
	<polygon points="326,20 331,27 322,28" fill="#aaff00"/>
	<line x1="334" y1="88" x2="327" y2="27" stroke="#aaff00" stroke-width="2"/>
</g>
<g>
	<polygon points="390,79 383,85 382,76" fill="#aaff00"/>
	<line x1="334" y1="88" x2="383" y2="80" stroke="#aaff00" stroke-width="2"/>
</g>
<g>
	<polygon points="256,23 265,25 259,32" fill="#aaff00"/>
	<line x1="334" y1="88" x2="262" y2="28" stroke="#aaff00" stroke-width="2"/>
</g>
<g>
	<polygon points="371,113 362,112 367,105" fill="#aaff00"/>
	<line x1="334" y1="88" x2="365" y2="109" stroke="#aaff00" stroke-width="2"/>
</g>
<g>
	<polygon points="298,58 307,60 301,67" fill="#aaff00"/>
	<line x1="334" y1="88" x2="304" y2="63" stroke="#aaff00" stroke-width="2"/>
</g>
<g>
	<polygon points="366,46 365,55 357,49" fill="#aaff00"/>
	<line x1="334" y1="88" x2="361" y2="52" stroke="#aaff00" stroke-width="2"/>
</g>
<g>
	<polygon points="268,83 262,77 271,74" fill="#aaff00"/>
	<line x1="253" y1="21" x2="267" y2="76" stroke="#aaff00" stroke-width="2"/>
</g>
<g>
	<polygon points="248,21 240,26 240,17" fill="#aaff00"/>
	<line x1="180" y1="25" x2="241" y2="21" stroke="#aaff00" stroke-width="2"/>
</g>
<g>
	<polygon points="97,50 95,59 89,52" fill="#aaff00"/>
	<line x1="67" y1="83" x2="92" y2="55" stroke="#aaff00" stroke-width="2"/>
</g>
<g>
	<polygon points="91,160 84,154 93,151" fill="#aaff00"/>
	<line x1="67" y1="83" x2="89" y2="153" stroke="#aaff00" stroke-width="2"/>
</g>
<g>
	<polygon points="175,27 171,34 167,26" fill="#aaff00"/>
	<line x1="67" y1="83" x2="169" y2="30" stroke="#aaff00" stroke-width="2"/>
</g>
<g>
	<polygon points="140,74 133,79 132,70" fill="#aaff00"/>
	<line x1="67" y1="83" x2="133" y2="75" stroke="#aaff00" stroke-width="2"/>
</g>
<g>
	<polygon points="44,191 42,183 50,184" fill="#aaff00"/>
	<line x1="67" y1="83" x2="46" y2="184" stroke="#aaff00" stroke-width="2"/>
</g>
<g>
	<polygon points="53,125 51,116 60,119" fill="#aaff00"/>
	<line x1="67" y1="83" x2="55" y2="118" stroke="#aaff00" stroke-width="2"/>
</g>
<g>
	<polygon points="9,105 14,98 18,106" fill="#aaff00"/>
	<line x1="67" y1="83" x2="15" y2="102" stroke="#aaff00" stroke-width="2"/>
</g>
<g>
	<polygon points="106,112 97,111 102,104" fill="#aaff00"/>
	<line x1="67" y1="83" x2="100" y2="108" stroke="#aaff00" stroke-width="2"/>
</g>
<g>
	<polygon points="7,153 9,144 16,150" fill="#aaff00"/>
	<line x1="67" y1="83" x2="12" y2="148" stroke="#aaff00" stroke-width="2"/>
</g>
<g>
	<polygon points="119,8 118,17 111,12" fill="#aaff00"/>
	<line x1="67" y1="83" x2="115" y2="14" stroke="#aaff00" stroke-width="2"/>
</g>
<g>
	<polygon points="9,63 18,61 15,70" fill="#aaff00"/>
	<line x1="67" y1="83" x2="16" y2="65" stroke="#aaff00" stroke-width="2"/>
</g>
<g>
	<polygon points="43,43 51,48 43,52" fill="#aaff00"/>
	<line x1="67" y1="83" x2="47" y2="50" stroke="#aaff00" stroke-width="2"/>
</g>
<g>
	<polygon points="68,9 73,17 64,17" fill="#aaff00"/>
	<line x1="67" y1="83" x2="68" y2="16" stroke="#aaff00" stroke-width="2"/>
</g>
<g>
	<polygon points="7,8 16,11 9,17" fill="#aaff00"/>
	<line x1="67" y1="83" x2="12" y2="14" stroke="#aaff00" stroke-width="2"/>
</g>

<g fill="#000000">
	<circle cx="66" cy="82" r="4"/>
</g>
<g fill="#000000">
	<circle cx="100" cy="46" r="4"/>
</g>
<g fill="#000000">
	<circle cx="92" cy="164" r="4"/>
</g>
<g fill="#000000">
	<circle cx="373" cy="247" r="4"/>
</g>
<g fill="#000000">
	<circle cx="344" cy="197" r="4"/>
</g>
<g fill="#000000">
	<circle cx="279" cy="233" r="4"/>
</g>
<g fill="#000000">
	<circle cx="394" cy="186" r="4"/>
</g>
<g fill="#000000">
	<circle cx="269" cy="87" r="4"/>
</g>
<g fill="#000000">
	<circle cx="289" cy="132" r="4"/>
</g>
<g fill="#000000">
	<circle cx="321" cy="239" r="4"/>
</g>
<g fill="#000000">
	<circle cx="251" cy="290" r="4"/>
</g>
<g fill="#000000">
	<circle cx="354" cy="153" r="4"/>
</g>
<g fill="#000000">
	<circle cx="148" cy="232" r="4"/>
</g>
<g fill="#000000">
	<circle cx="300" cy="174" r="4"/>
</g>
<g fill="#000000">
	<circle cx="144" cy="73" r="4"/>
</g>
<g fill="#000000">
	<circle cx="394" cy="4" r="4"/>
</g>
<g fill="#000000">
	<circle cx="325" cy="15" r="4"/>
</g>
<g fill="#000000">
	<circle cx="394" cy="78" r="4"/>
</g>
<g fill="#000000">
	<circle cx="179" cy="24" r="4"/>
</g>
<g fill="#000000">
	<circle cx="252" cy="20" r="4"/>
</g>
<g fill="#000000">
	<circle cx="43" cy="195" r="4"/>
</g>
<g fill="#000000">
	<circle cx="51" cy="129" r="4"/>
</g>
<g fill="#000000">
	<circle cx="374" cy="115" r="4"/>
</g>
<g fill="#000000">
	<circle cx="227" cy="120" r="4"/>
</g>
<g fill="#000000">
	<circle cx="176" cy="149" r="4"/>
</g>
<g fill="#000000">
	<circle cx="294" cy="55" r="4"/>
</g>
<g fill="#000000">
	<circle cx="368" cy="42" r="4"/>
</g>
<g fill="#000000">
	<circle cx="4" cy="106" r="4"/>
</g>
<g fill="#000000">
	<circle cx="333" cy="87" r="4"/>
</g>
<g fill="#000000">
	<circle cx="109" cy="114" r="4"/>
</g>
<g fill="#000000">
	<circle cx="4" cy="156" r="4"/>
</g>
<g fill="#000000">
	<circle cx="121" cy="4" r="4"/>
</g>
<g fill="#000000">
	<circle cx="4" cy="61" r="4"/>
</g>
<g fill="#000000">
	<circle cx="185" cy="229" r="4"/>
</g>
<g fill="#000000">
	<circle cx="40" cy="39" r="4"/>
</g>
<g fill="#000000">
	<circle cx="221" cy="180" r="4"/>
</g>
<g fill="#000000">
	<circle cx="238" cy="220" r="4"/>
</g>
<g fill="#000000">
	<circle cx="68" cy="4" r="4"/>
</g>
<g fill="#000000">
	<circle cx="4" cy="4" r="4"/>
</g>
<g fill="#000000">
	<circle cx="129" cy="279" r="4"/>
</g>
<g fill="#000000">
	<circle cx="173" cy="294" r="4"/>
</g>
<g fill="#000000">
	<circle cx="211" cy="261" r="4"/>
</g>

</g>

</svg>
