<?xml version="1.0" encoding="utf-8"?>
<!-- Created with Hypercube (http://tumic.wz.cz/hypercube) -->

<svg width="400" height="300" viewBox="0 0 400 300" xmlns="http://www.w3.org/2000/svg" baseProfile="tiny">

<g font-family="Helvetica" font-weight="normal">

<g>
	<polygon points="43,233 42,224 50,228" fill="#aaff00"/>
	<line x1="58" y1="200" x2="46" y2="227" stroke="#aaff00" stroke-width="2"/>
</g>
<g>
	<polygon points="67,54 71,62 62,61" fill="#aaff00"/>
	<line x1="58" y1="200" x2="67" y2="61" stroke="#aaff00" stroke-width="2"/>
</g>
<g>
	<polygon points="198,279 189,279 193,272" fill="#aaff00"/>
	<line x1="58" y1="200" x2="191" y2="276" stroke="#aaff00" stroke-width="2"/>
</g>
<g>
	<polygon points="104,138 103,147 96,142" fill="#aaff00"/>
	<line x1="58" y1="200" x2="99" y2="144" stroke="#aaff00" stroke-width="2"/>
</g>
<g>
	<polygon points="59,160 62,168 53,166" fill="#aaff00"/>
	<line x1="42" y1="238" x2="58" y2="167" stroke="#aaff00" stroke-width="2"/>
</g>
<g>
	<polygon points="10,178 17,183 9,187" fill="#aaff00"/>
	<line x1="42" y1="238" x2="13" y2="185" stroke="#aaff00" stroke-width="2"/>
</g>
<g>
	<polygon points="65,98 69,106 60,105" fill="#aaff00"/>
	<line x1="61" y1="156" x2="65" y2="105" stroke="#aaff00" stroke-width="2"/>
</g>
<g>
	<polygon points="68,90 70,81 77,87" fill="#aaff00"/>
	<line x1="133" y1="9" x2="73" y2="84" stroke="#aaff00" stroke-width="2"/>
</g>
<g>
	<polygon points="129,11 125,19 120,11" fill="#aaff00"/>
	<line x1="68" y1="50" x2="123" y2="15" stroke="#aaff00" stroke-width="2"/>
</g>
<g>
	<polygon points="80,9 82,18 74,15" fill="#aaff00"/>
	<line x1="68" y1="50" x2="78" y2="16" stroke="#aaff00" stroke-width="2"/>
</g>
<g>
	<polygon points="11,75 13,67 19,73" fill="#aaff00"/>
	<line x1="82" y1="5" x2="16" y2="70" stroke="#aaff00" stroke-width="2"/>
</g>
<g>
	<polygon points="8,83 12,91 3,91" fill="#aaff00"/>
	<line x1="8" y1="175" x2="8" y2="90" stroke="#aaff00" stroke-width="2"/>
</g>
<g>
	<polygon points="63,159 71,163 64,168" fill="#aaff00"/>
	<line x1="98" y1="212" x2="67" y2="165" stroke="#aaff00" stroke-width="2"/>
</g>
<g>
	<polygon points="12,176 21,175 17,183" fill="#aaff00"/>
	<line x1="98" y1="212" x2="18" y2="179" stroke="#aaff00" stroke-width="2"/>
</g>
<g>
	<polygon points="101,209 105,201 110,208" fill="#aaff00"/>
	<line x1="222" y1="128" x2="107" y2="205" stroke="#aaff00" stroke-width="2"/>
</g>
<g>
	<polygon points="163,158 168,151 172,159" fill="#aaff00"/>
	<line x1="222" y1="128" x2="170" y2="155" stroke="#aaff00" stroke-width="2"/>
</g>
<g>
	<polygon points="131,187 133,179 140,185" fill="#aaff00"/>
	<line x1="160" y1="161" x2="136" y2="183" stroke="#aaff00" stroke-width="2"/>
</g>
<g>
	<polygon points="161,123 165,131 156,131" fill="#aaff00"/>
	<line x1="160" y1="161" x2="161" y2="130" stroke="#aaff00" stroke-width="2"/>
</g>
<g>
	<polygon points="154,290 148,284 157,281" fill="#aaff00"/>
	<line x1="128" y1="191" x2="152" y2="283" stroke="#aaff00" stroke-width="2"/>
</g>
<g>
	<polygon points="160,295 168,290 168,299" fill="#aaff00"/>
	<line x1="270" y1="295" x2="167" y2="295" stroke="#aaff00" stroke-width="2"/>
</g>
<g>
	<polygon points="265,294 257,297 258,288" fill="#aaff00"/>
	<line x1="202" y1="282" x2="258" y2="292" stroke="#aaff00" stroke-width="2"/>
</g>
<g>
	<polygon points="309,248 303,254 300,246" fill="#aaff00"/>
	<line x1="202" y1="282" x2="302" y2="250" stroke="#aaff00" stroke-width="2"/>
</g>
<g>
	<polygon points="265,162 273,167 265,171" fill="#aaff00"/>
	<line x1="314" y1="247" x2="268" y2="169" stroke="#aaff00" stroke-width="2"/>
</g>
<g>
	<polygon points="258,157 249,158 253,150" fill="#aaff00"/>
	<line x1="162" y1="119" x2="252" y2="154" stroke="#aaff00" stroke-width="2"/>
</g>
<g>
	<polygon points="126,186 119,181 127,177" fill="#aaff00"/>
	<line x1="107" y1="135" x2="123" y2="180" stroke="#aaff00" stroke-width="2"/>
</g>
<g>
	<polygon points="157,120 151,126 148,118" fill="#aaff00"/>
	<line x1="107" y1="135" x2="150" y2="122" stroke="#aaff00" stroke-width="2"/>
</g>
<g>
	<polygon points="72,50 80,48 79,56" fill="#aaff00"/>
	<line x1="121" y1="61" x2="79" y2="52" stroke="#aaff00" stroke-width="2"/>
</g>
<g>
	<polygon points="107,130 104,122 113,123" fill="#aaff00"/>
	<line x1="121" y1="61" x2="109" y2="123" stroke="#aaff00" stroke-width="2"/>
</g>
<g>
	<polygon points="125,60 132,55 133,64" fill="#aaff00"/>
	<line x1="168" y1="58" x2="132" y2="60" stroke="#aaff00" stroke-width="2"/>
</g>
<g>
	<polygon points="201,165 196,157 205,157" fill="#aaff00"/>
	<line x1="204" y1="90" x2="201" y2="158" stroke="#aaff00" stroke-width="2"/>
</g>
<g>
	<polygon points="210,210 205,202 214,202" fill="#aaff00"/>
	<line x1="204" y1="90" x2="210" y2="203" stroke="#aaff00" stroke-width="2"/>
</g>
<g>
	<polygon points="171,60 180,62 174,69" fill="#aaff00"/>
	<line x1="204" y1="90" x2="176" y2="65" stroke="#aaff00" stroke-width="2"/>
</g>
<g>
	<polygon points="187,19 194,25 185,27" fill="#aaff00"/>
	<line x1="204" y1="90" x2="189" y2="26" stroke="#aaff00" stroke-width="2"/>
</g>
<g>
	<polygon points="148,246 149,237 156,242" fill="#aaff00"/>
	<line x1="201" y1="170" x2="152" y2="240" stroke="#aaff00" stroke-width="2"/>
</g>
<g>
	<polygon points="46,238 54,234 53,243" fill="#aaff00"/>
	<line x1="146" y1="250" x2="53" y2="239" stroke="#aaff00" stroke-width="2"/>
</g>
<g>
	<polygon points="198,279 189,279 193,271" fill="#aaff00"/>
	<line x1="146" y1="250" x2="191" y2="276" stroke="#aaff00" stroke-width="2"/>
</g>
<g>
	<polygon points="149,247 154,240 158,248" fill="#aaff00"/>
	<line x1="211" y1="215" x2="156" y2="244" stroke="#aaff00" stroke-width="2"/>
</g>
<g>
	<polygon points="124,58 128,50 133,57" fill="#aaff00"/>
	<line x1="187" y1="15" x2="130" y2="54" stroke="#aaff00" stroke-width="2"/>
</g>
<g>
	<polygon points="273,291 275,283 281,289" fill="#aaff00"/>
	<line x1="390" y1="170" x2="278" y2="286" stroke="#aaff00" stroke-width="2"/>
</g>
<g>
	<polygon points="317,243 319,235 325,241" fill="#aaff00"/>
	<line x1="390" y1="170" x2="322" y2="238" stroke="#aaff00" stroke-width="2"/>
</g>
<g>
	<polygon points="249,5 257,2 256,10" fill="#aaff00"/>
	<line x1="393" y1="23" x2="256" y2="6" stroke="#aaff00" stroke-width="2"/>
</g>
<g>
	<polygon points="390,165 385,157 394,157" fill="#aaff00"/>
	<line x1="393" y1="23" x2="390" y2="158" stroke="#aaff00" stroke-width="2"/>
</g>
<g>
	<polygon points="137,8 145,4 145,13" fill="#aaff00"/>
	<line x1="245" y1="5" x2="144" y2="8" stroke="#aaff00" stroke-width="2"/>
</g>
<g>
	<polygon points="86,5 94,0 94,9" fill="#aaff00"/>
	<line x1="245" y1="5" x2="93" y2="5" stroke="#aaff00" stroke-width="2"/>
</g>
<g>
	<polygon points="248,8 256,10 250,17" fill="#aaff00"/>
	<line x1="352" y1="119" x2="253" y2="13" stroke="#aaff00" stroke-width="2"/>
</g>
<g>
	<polygon points="387,166 379,162 386,157" fill="#aaff00"/>
	<line x1="352" y1="119" x2="383" y2="160" stroke="#aaff00" stroke-width="2"/>
</g>
<g>
	<polygon points="349,122 350,131 342,127" fill="#aaff00"/>
	<line x1="331" y1="158" x2="346" y2="129" stroke="#aaff00" stroke-width="2"/>
</g>
<g>
	<polygon points="251,248 254,239 260,247" fill="#aaff00"/>
	<line x1="310" y1="203" x2="257" y2="243" stroke="#aaff00" stroke-width="2"/>
</g>
<g>
	<polygon points="264,205 272,200 272,209" fill="#aaff00"/>
	<line x1="310" y1="203" x2="271" y2="205" stroke="#aaff00" stroke-width="2"/>
</g>
<g>
	<polygon points="329,162 329,171 321,167" fill="#aaff00"/>
	<line x1="310" y1="203" x2="326" y2="168" stroke="#aaff00" stroke-width="2"/>
</g>
<g>
	<polygon points="353,201 345,206 345,197" fill="#aaff00"/>
	<line x1="310" y1="203" x2="346" y2="201" stroke="#aaff00" stroke-width="2"/>
</g>
<g>
	<polygon points="177,220 186,219 182,227" fill="#aaff00"/>
	<line x1="248" y1="251" x2="183" y2="223" stroke="#aaff00" stroke-width="2"/>
</g>
<g>
	<polygon points="102,212 110,208 109,217" fill="#aaff00"/>
	<line x1="173" y1="219" x2="109" y2="213" stroke="#aaff00" stroke-width="2"/>
</g>
<g>
	<polygon points="160,165 167,172 158,173" fill="#aaff00"/>
	<line x1="173" y1="219" x2="162" y2="172" stroke="#aaff00" stroke-width="2"/>
</g>
<g>
	<polygon points="177,218 184,212 185,221" fill="#aaff00"/>
	<line x1="260" y1="206" x2="184" y2="217" stroke="#aaff00" stroke-width="2"/>
</g>
<g>
	<polygon points="352,123 357,130 348,131" fill="#aaff00"/>
	<line x1="358" y1="201" x2="352" y2="130" stroke="#aaff00" stroke-width="2"/>
</g>
<g>
	<polygon points="388,22 380,26 381,17" fill="#aaff00"/>
	<line x1="343" y1="17" x2="381" y2="21" stroke="#aaff00" stroke-width="2"/>
</g>
<g>
	<polygon points="290,97 292,88 298,95" fill="#aaff00"/>
	<line x1="326" y1="59" x2="294" y2="92" stroke="#aaff00" stroke-width="2"/>
</g>
<g>
	<polygon points="272,57 280,52 280,61" fill="#aaff00"/>
	<line x1="326" y1="59" x2="279" y2="57" stroke="#aaff00" stroke-width="2"/>
</g>
<g>
	<polygon points="341,21 342,30 334,26" fill="#aaff00"/>
	<line x1="326" y1="59" x2="338" y2="27" stroke="#aaff00" stroke-width="2"/>
</g>
<g>
	<polygon points="387,69 379,72 380,63" fill="#aaff00"/>
	<line x1="326" y1="59" x2="380" y2="68" stroke="#aaff00" stroke-width="2"/>
</g>
<g>
	<polygon points="226,126 231,119 235,127" fill="#aaff00"/>
	<line x1="287" y1="101" x2="232" y2="123" stroke="#aaff00" stroke-width="2"/>
</g>
<g>
	<polygon points="224,124 224,115 232,120" fill="#aaff00"/>
	<line x1="268" y1="57" x2="228" y2="118" stroke="#aaff00" stroke-width="2"/>
</g>
<g>
	<polygon points="392,27 397,35 388,35" fill="#aaff00"/>
	<line x1="392" y1="70" x2="392" y2="34" stroke="#aaff00" stroke-width="2"/>
</g>

<g fill="#000000">
	<circle cx="57" cy="199" r="4"/>
</g>
<g fill="#000000">
	<circle cx="41" cy="237" r="4"/>
</g>
<g fill="#000000">
	<circle cx="67" cy="49" r="4"/>
</g>
<g fill="#000000">
	<circle cx="201" cy="281" r="4"/>
</g>
<g fill="#000000">
	<circle cx="106" cy="134" r="4"/>
</g>
<g fill="#000000">
	<circle cx="325" cy="58" r="4"/>
</g>
<g fill="#000000">
	<circle cx="286" cy="100" r="4"/>
</g>
<g fill="#000000">
	<circle cx="267" cy="56" r="4"/>
</g>
<g fill="#000000">
	<circle cx="342" cy="16" r="4"/>
</g>
<g fill="#000000">
	<circle cx="391" cy="69" r="4"/>
</g>
<g fill="#000000">
	<circle cx="221" cy="127" r="4"/>
</g>
<g fill="#000000">
	<circle cx="392" cy="22" r="4"/>
</g>
<g fill="#000000">
	<circle cx="97" cy="211" r="4"/>
</g>
<g fill="#000000">
	<circle cx="159" cy="160" r="4"/>
</g>
<g fill="#000000">
	<circle cx="244" cy="4" r="4"/>
</g>
<g fill="#000000">
	<circle cx="389" cy="169" r="4"/>
</g>
<g fill="#000000">
	<circle cx="203" cy="89" r="4"/>
</g>
<g fill="#000000">
	<circle cx="200" cy="169" r="4"/>
</g>
<g fill="#000000">
	<circle cx="210" cy="214" r="4"/>
</g>
<g fill="#000000">
	<circle cx="167" cy="57" r="4"/>
</g>
<g fill="#000000">
	<circle cx="186" cy="14" r="4"/>
</g>
<g fill="#000000">
	<circle cx="145" cy="249" r="4"/>
</g>
<g fill="#000000">
	<circle cx="120" cy="60" r="4"/>
</g>
<g fill="#000000">
	<circle cx="309" cy="202" r="4"/>
</g>
<g fill="#000000">
	<circle cx="247" cy="250" r="4"/>
</g>
<g fill="#000000">
	<circle cx="259" cy="205" r="4"/>
</g>
<g fill="#000000">
	<circle cx="330" cy="157" r="4"/>
</g>
<g fill="#000000">
	<circle cx="357" cy="200" r="4"/>
</g>
<g fill="#000000">
	<circle cx="172" cy="218" r="4"/>
</g>
<g fill="#000000">
	<circle cx="351" cy="118" r="4"/>
</g>
<g fill="#000000">
	<circle cx="60" cy="155" r="4"/>
</g>
<g fill="#000000">
	<circle cx="7" cy="174" r="4"/>
</g>
<g fill="#000000">
	<circle cx="132" cy="8" r="4"/>
</g>
<g fill="#000000">
	<circle cx="81" cy="4" r="4"/>
</g>
<g fill="#000000">
	<circle cx="65" cy="93" r="4"/>
</g>
<g fill="#000000">
	<circle cx="269" cy="294" r="4"/>
</g>
<g fill="#000000">
	<circle cx="313" cy="246" r="4"/>
</g>
<g fill="#000000">
	<circle cx="127" cy="190" r="4"/>
</g>
<g fill="#000000">
	<circle cx="161" cy="118" r="4"/>
</g>
<g fill="#000000">
	<circle cx="155" cy="294" r="4"/>
</g>
<g fill="#000000">
	<circle cx="7" cy="78" r="4"/>
</g>
<g fill="#000000">
	<circle cx="262" cy="158" r="4"/>
</g>

</g>

</svg>
