<?xml version="1.0" encoding="utf-8"?>
<!-- Created with Hypercube (http://tumic.wz.cz/hypercube) -->

<svg width="400" height="300" viewBox="0 0 400 300" xmlns="http://www.w3.org/2000/svg" baseProfile="tiny">

<g font-family="Helvetica" font-weight="normal">

<g>
	<polygon points="232,9 239,15 230,18" fill="#aaff00"/>
	<line x1="247" y1="54" x2="234" y2="16" stroke="#aaff00" stroke-width="2"/>
</g>
<g>
	<polygon points="284,8 282,17 275,11" fill="#aaff00"/>
	<line x1="247" y1="54" x2="279" y2="14" stroke="#aaff00" stroke-width="2"/>
</g>
<g>
	<polygon points="260,101 254,95 262,92" fill="#aaff00"/>
	<line x1="247" y1="54" x2="258" y2="94" stroke="#aaff00" stroke-width="2"/>
</g>
<g>
	<polygon points="215,144 213,135 222,138" fill="#aaff00"/>
	<line x1="247" y1="54" x2="217" y2="137" stroke="#aaff00" stroke-width="2"/>
</g>
<g>
	<polygon points="176,7 185,8 180,15" fill="#aaff00"/>
	<line x1="247" y1="54" x2="182" y2="11" stroke="#aaff00" stroke-width="2"/>
</g>
<g>
	<polygon points="290,54 282,59 282,50" fill="#aaff00"/>
	<line x1="247" y1="54" x2="283" y2="54" stroke="#aaff00" stroke-width="2"/>
</g>
<g>
	<polygon points="343,61 335,65 336,56" fill="#aaff00"/>
	<line x1="247" y1="54" x2="336" y2="61" stroke="#aaff00" stroke-width="2"/>
</g>
<g>
	<polygon points="200,66 206,60 209,69" fill="#aaff00"/>
	<line x1="247" y1="54" x2="207" y2="64" stroke="#aaff00" stroke-width="2"/>
</g>
<g>
	<polygon points="96,169 103,163 104,172" fill="#aaff00"/>
	<line x1="214" y1="149" x2="103" y2="168" stroke="#aaff00" stroke-width="2"/>
</g>
<g>
	<polygon points="330,223 321,223 326,215" fill="#aaff00"/>
	<line x1="214" y1="149" x2="324" y2="219" stroke="#aaff00" stroke-width="2"/>
</g>
<g>
	<polygon points="166,135 175,133 172,141" fill="#aaff00"/>
	<line x1="214" y1="149" x2="173" y2="137" stroke="#aaff00" stroke-width="2"/>
</g>
<g>
	<polygon points="32,183 39,176 40,185" fill="#aaff00"/>
	<line x1="92" y1="170" x2="39" y2="181" stroke="#aaff00" stroke-width="2"/>
</g>
<g>
	<polygon points="67,215 66,206 74,210" fill="#aaff00"/>
	<line x1="92" y1="170" x2="70" y2="208" stroke="#aaff00" stroke-width="2"/>
</g>
<g>
	<polygon points="7,223 6,214 14,218" fill="#aaff00"/>
	<line x1="28" y1="184" x2="10" y2="216" stroke="#aaff00" stroke-width="2"/>
</g>
<g>
	<polygon points="31,187 40,189 33,195" fill="#aaff00"/>
	<line x1="65" y1="219" x2="36" y2="192" stroke="#aaff00" stroke-width="2"/>
</g>
<g>
	<polygon points="111,245 102,245 106,237" fill="#aaff00"/>
	<line x1="65" y1="219" x2="104" y2="242" stroke="#aaff00" stroke-width="2"/>
</g>
<g>
	<polygon points="88,291 88,282 96,286" fill="#aaff00"/>
	<line x1="115" y1="248" x2="92" y2="285" stroke="#aaff00" stroke-width="2"/>
</g>
<g>
	<polygon points="184,222 178,229 175,220" fill="#aaff00"/>
	<line x1="115" y1="248" x2="178" y2="225" stroke="#aaff00" stroke-width="2"/>
</g>
<g>
	<polygon points="32,295 40,290 40,299" fill="#aaff00"/>
	<line x1="86" y1="295" x2="39" y2="295" stroke="#aaff00" stroke-width="2"/>
</g>
<g>
	<polygon points="90,295 98,290 98,299" fill="#aaff00"/>
	<line x1="146" y1="295" x2="97" y2="295" stroke="#aaff00" stroke-width="2"/>
</g>
<g>
	<polygon points="150,295 158,290 158,299" fill="#aaff00"/>
	<line x1="206" y1="295" x2="157" y2="295" stroke="#aaff00" stroke-width="2"/>
</g>
<g>
	<polygon points="220,255 222,264 213,261" fill="#aaff00"/>
	<line x1="206" y1="295" x2="218" y2="261" stroke="#aaff00" stroke-width="2"/>
</g>
<g>
	<polygon points="192,224 201,225 195,232" fill="#aaff00"/>
	<line x1="222" y1="251" x2="197" y2="228" stroke="#aaff00" stroke-width="2"/>
</g>
<g>
	<polygon points="247,199 241,206 238,197" fill="#aaff00"/>
	<line x1="189" y1="221" x2="241" y2="202" stroke="#aaff00" stroke-width="2"/>
</g>
<g>
	<polygon points="210,295 218,290 218,299" fill="#aaff00"/>
	<line x1="290" y1="295" x2="217" y2="295" stroke="#aaff00" stroke-width="2"/>
</g>
<g>
	<polygon points="285,295 277,299 277,290" fill="#aaff00"/>
	<line x1="248" y1="295" x2="278" y2="295" stroke="#aaff00" stroke-width="2"/>
</g>
<g>
	<polygon points="210,295 218,290 218,299" fill="#aaff00"/>
	<line x1="248" y1="295" x2="217" y2="295" stroke="#aaff00" stroke-width="2"/>
</g>
<g>
	<polygon points="117,244 117,235 125,239" fill="#aaff00"/>
	<line x1="137" y1="210" x2="120" y2="237" stroke="#aaff00" stroke-width="2"/>
</g>
<g>
	<polygon points="388,214 381,220 380,212" fill="#aaff00"/>
	<line x1="334" y1="226" x2="381" y2="216" stroke="#aaff00" stroke-width="2"/>
</g>
<g>
	<polygon points="352,287 346,281 354,278" fill="#aaff00"/>
	<line x1="334" y1="226" x2="350" y2="280" stroke="#aaff00" stroke-width="2"/>
</g>
<g>
	<polygon points="391,269 382,268 387,261" fill="#aaff00"/>
	<line x1="334" y1="226" x2="385" y2="264" stroke="#aaff00" stroke-width="2"/>
</g>
<g>
	<polygon points="358,290 363,282 367,290" fill="#aaff00"/>
	<line x1="395" y1="272" x2="364" y2="286" stroke="#aaff00" stroke-width="2"/>
</g>
<g>
	<polygon points="123,116 132,115 128,124" fill="#aaff00"/>
	<line x1="162" y1="134" x2="129" y2="119" stroke="#aaff00" stroke-width="2"/>
</g>
<g>
	<polygon points="88,5 96,0 96,9" fill="#aaff00"/>
	<line x1="173" y1="5" x2="95" y2="5" stroke="#aaff00" stroke-width="2"/>
</g>
<g>
	<polygon points="121,5 113,9 113,0" fill="#aaff00"/>
	<line x1="84" y1="5" x2="114" y2="5" stroke="#aaff00" stroke-width="2"/>
</g>
<g>
	<polygon points="43,56 45,47 52,53" fill="#aaff00"/>
	<line x1="84" y1="5" x2="48" y2="50" stroke="#aaff00" stroke-width="2"/>
</g>
<g>
	<polygon points="9,5 17,0 17,9" fill="#aaff00"/>
	<line x1="84" y1="5" x2="16" y2="5" stroke="#aaff00" stroke-width="2"/>
</g>
<g>
	<polygon points="48,5 56,0 56,9" fill="#aaff00"/>
	<line x1="84" y1="5" x2="55" y2="5" stroke="#aaff00" stroke-width="2"/>
</g>
<g>
	<polygon points="81,67 73,70 74,61" fill="#aaff00"/>
	<line x1="41" y1="60" x2="74" y2="65" stroke="#aaff00" stroke-width="2"/>
</g>
<g>
	<polygon points="8,93 10,85 16,91" fill="#aaff00"/>
	<line x1="41" y1="60" x2="13" y2="88" stroke="#aaff00" stroke-width="2"/>
</g>
<g>
	<polygon points="372,9 372,18 364,14" fill="#aaff00"/>
	<line x1="348" y1="62" x2="369" y2="15" stroke="#aaff00" stroke-width="2"/>
</g>
<g>
	<polygon points="390,47 384,54 381,45" fill="#aaff00"/>
	<line x1="348" y1="62" x2="383" y2="49" stroke="#aaff00" stroke-width="2"/>
</g>
<g>
	<polygon points="351,64 360,66 354,73" fill="#aaff00"/>
	<line x1="395" y1="101" x2="356" y2="69" stroke="#aaff00" stroke-width="2"/>
</g>
<g>
	<polygon points="395,146 390,138 399,138" fill="#aaff00"/>
	<line x1="395" y1="101" x2="395" y2="139" stroke="#aaff00" stroke-width="2"/>
</g>
<g>
	<polygon points="347,66 350,74 341,73" fill="#aaff00"/>
	<line x1="338" y1="117" x2="345" y2="73" stroke="#aaff00" stroke-width="2"/>
</g>

<g fill="#000000">
	<circle cx="246" cy="53" r="4"/>
</g>
<g fill="#000000">
	<circle cx="230" cy="4" r="4"/>
</g>
<g fill="#000000">
	<circle cx="286" cy="4" r="4"/>
</g>
<g fill="#000000">
	<circle cx="261" cy="105" r="4"/>
</g>
<g fill="#000000">
	<circle cx="213" cy="148" r="4"/>
</g>
<g fill="#000000">
	<circle cx="172" cy="4" r="4"/>
</g>
<g fill="#000000">
	<circle cx="294" cy="54" r="4"/>
</g>
<g fill="#000000">
	<circle cx="347" cy="61" r="4"/>
</g>
<g fill="#000000">
	<circle cx="195" cy="67" r="4"/>
</g>
<g fill="#000000">
	<circle cx="289" cy="294" r="4"/>
</g>
<g fill="#000000">
	<circle cx="205" cy="294" r="4"/>
</g>
<g fill="#000000">
	<circle cx="145" cy="294" r="4"/>
</g>
<g fill="#000000">
	<circle cx="221" cy="250" r="4"/>
</g>
<g fill="#000000">
	<circle cx="247" cy="294" r="4"/>
</g>
<g fill="#000000">
	<circle cx="91" cy="169" r="4"/>
</g>
<g fill="#000000">
	<circle cx="333" cy="225" r="4"/>
</g>
<g fill="#000000">
	<circle cx="161" cy="133" r="4"/>
</g>
<g fill="#000000">
	<circle cx="27" cy="183" r="4"/>
</g>
<g fill="#000000">
	<circle cx="64" cy="218" r="4"/>
</g>
<g fill="#000000">
	<circle cx="4" cy="226" r="4"/>
</g>
<g fill="#000000">
	<circle cx="114" cy="247" r="4"/>
</g>
<g fill="#000000">
	<circle cx="85" cy="294" r="4"/>
</g>
<g fill="#000000">
	<circle cx="188" cy="220" r="4"/>
</g>
<g fill="#000000">
	<circle cx="136" cy="209" r="4"/>
</g>
<g fill="#000000">
	<circle cx="27" cy="294" r="4"/>
</g>
<g fill="#000000">
	<circle cx="392" cy="213" r="4"/>
</g>
<g fill="#000000">
	<circle cx="353" cy="291" r="4"/>
</g>
<g fill="#000000">
	<circle cx="394" cy="271" r="4"/>
</g>
<g fill="#000000">
	<circle cx="83" cy="4" r="4"/>
</g>
<g fill="#000000">
	<circle cx="125" cy="4" r="4"/>
</g>
<g fill="#000000">
	<circle cx="40" cy="59" r="4"/>
</g>
<g fill="#000000">
	<circle cx="4" cy="4" r="4"/>
</g>
<g fill="#000000">
	<circle cx="43" cy="4" r="4"/>
</g>
<g fill="#000000">
	<circle cx="251" cy="197" r="4"/>
</g>
<g fill="#000000">
	<circle cx="85" cy="67" r="4"/>
</g>
<g fill="#000000">
	<circle cx="4" cy="96" r="4"/>
</g>
<g fill="#000000">
	<circle cx="118" cy="114" r="4"/>
</g>
<g fill="#000000">
	<circle cx="373" cy="4" r="4"/>
</g>
<g fill="#000000">
	<circle cx="394" cy="45" r="4"/>
</g>
<g fill="#000000">
	<circle cx="394" cy="100" r="4"/>
</g>
<g fill="#000000">
	<circle cx="394" cy="150" r="4"/>
</g>
<g fill="#000000">
	<circle cx="337" cy="116" r="4"/>
</g>

</g>

</svg>
