<?xml version="1.0" encoding="utf-8"?>
<!-- Created with Hypercube (http://tumic.wz.cz/hypercube) -->

<svg width="400" height="300" viewBox="0 0 400 300" xmlns="http://www.w3.org/2000/svg" baseProfile="tiny">

<g font-family="Helvetica" font-weight="normal">

<g>
	<polygon points="152,289 151,280 159,284" fill="#aaff00"/>
	<line x1="179" y1="228" x2="155" y2="283" stroke="#aaff00" stroke-width="2"/>
</g>
<g>
	<polygon points="193,294 185,299 185,290" fill="#aaff00"/>
	<line x1="151" y1="294" x2="186" y2="294" stroke="#aaff00" stroke-width="2"/>
</g>
<g>
	<polygon points="258,290 251,284 260,281" fill="#aaff00"/>
	<line x1="240" y1="240" x2="256" y2="284" stroke="#aaff00" stroke-width="2"/>
</g>
<g>
	<polygon points="31,222 35,214 40,221" fill="#aaff00"/>
	<line x1="82" y1="189" x2="37" y2="218" stroke="#aaff00" stroke-width="2"/>
</g>
<g>
	<polygon points="13,146 20,140 21,149" fill="#aaff00"/>
	<line x1="79" y1="136" x2="20" y2="145" stroke="#aaff00" stroke-width="2"/>
</g>
<g>
	<polygon points="390,5 383,12 382,3" fill="#aaff00"/>
	<line x1="337" y1="18" x2="383" y2="7" stroke="#aaff00" stroke-width="2"/>
</g>
<g>
	<polygon points="82,282 83,273 91,278" fill="#aaff00"/>
	<line x1="124" y1="228" x2="87" y2="276" stroke="#aaff00" stroke-width="2"/>
</g>
<g>
	<polygon points="43,6 52,5 48,14" fill="#aaff00"/>
	<line x1="94" y1="29" x2="49" y2="9" stroke="#aaff00" stroke-width="2"/>
</g>
<g>
	<polygon points="390,112 384,118 381,109" fill="#aaff00"/>
	<line x1="344" y1="125" x2="383" y2="114" stroke="#aaff00" stroke-width="2"/>
</g>
<g>
	<polygon points="322,282 314,277 323,273" fill="#aaff00"/>
	<line x1="297" y1="226" x2="319" y2="276" stroke="#aaff00" stroke-width="2"/>
</g>
<g>
	<polygon points="9,69 17,66 16,75" fill="#aaff00"/>
	<line x1="68" y1="81" x2="16" y2="71" stroke="#aaff00" stroke-width="2"/>
</g>
<g>
	<polygon points="391,234 383,232 389,226" fill="#aaff00"/>
	<line x1="345" y1="189" x2="386" y2="229" stroke="#aaff00" stroke-width="2"/>
</g>
<g>
	<polygon points="395,290 390,282 399,282" fill="#aaff00"/>
	<line x1="395" y1="238" x2="395" y2="283" stroke="#aaff00" stroke-width="2"/>
</g>
<g>
	<polygon points="180,223 178,214 186,217" fill="#aaff00"/>
	<line x1="212" y1="112" x2="182" y2="216" stroke="#aaff00" stroke-width="2"/>
</g>
<g>
	<polygon points="142,8 150,12 143,17" fill="#aaff00"/>
	<line x1="212" y1="112" x2="146" y2="14" stroke="#aaff00" stroke-width="2"/>
</g>
<g>
	<polygon points="143,161 147,153 152,160" fill="#aaff00"/>
	<line x1="212" y1="112" x2="149" y2="157" stroke="#aaff00" stroke-width="2"/>
</g>
<g>
	<polygon points="186,9 192,15 183,18" fill="#aaff00"/>
	<line x1="212" y1="112" x2="187" y2="16" stroke="#aaff00" stroke-width="2"/>
</g>
<g>
	<polygon points="275,56 272,65 266,58" fill="#aaff00"/>
	<line x1="212" y1="112" x2="270" y2="61" stroke="#aaff00" stroke-width="2"/>
</g>
<g>
	<polygon points="239,235 232,228 241,227" fill="#aaff00"/>
	<line x1="212" y1="112" x2="237" y2="228" stroke="#aaff00" stroke-width="2"/>
</g>
<g>
	<polygon points="85,186 90,178 94,186" fill="#aaff00"/>
	<line x1="212" y1="112" x2="92" y2="183" stroke="#aaff00" stroke-width="2"/>
</g>
<g>
	<polygon points="129,105 137,101 136,110" fill="#aaff00"/>
	<line x1="212" y1="112" x2="136" y2="105" stroke="#aaff00" stroke-width="2"/>
</g>
<g>
	<polygon points="83,135 90,129 91,138" fill="#aaff00"/>
	<line x1="212" y1="112" x2="90" y2="133" stroke="#aaff00" stroke-width="2"/>
</g>
<g>
	<polygon points="190,71 197,76 189,80" fill="#aaff00"/>
	<line x1="212" y1="112" x2="193" y2="78" stroke="#aaff00" stroke-width="2"/>
</g>
<g>
	<polygon points="192,164 191,155 199,159" fill="#aaff00"/>
	<line x1="212" y1="112" x2="195" y2="158" stroke="#aaff00" stroke-width="2"/>
</g>
<g>
	<polygon points="287,118 279,122 280,113" fill="#aaff00"/>
	<line x1="212" y1="112" x2="280" y2="117" stroke="#aaff00" stroke-width="2"/>
</g>
<g>
	<polygon points="239,139 231,137 237,131" fill="#aaff00"/>
	<line x1="212" y1="112" x2="234" y2="134" stroke="#aaff00" stroke-width="2"/>
</g>
<g>
	<polygon points="276,8 276,17 268,13" fill="#aaff00"/>
	<line x1="212" y1="112" x2="272" y2="14" stroke="#aaff00" stroke-width="2"/>
</g>
<g>
	<polygon points="146,60 155,62 149,69" fill="#aaff00"/>
	<line x1="212" y1="112" x2="152" y2="65" stroke="#aaff00" stroke-width="2"/>
</g>
<g>
	<polygon points="333,20 329,28 324,21" fill="#aaff00"/>
	<line x1="212" y1="112" x2="327" y2="25" stroke="#aaff00" stroke-width="2"/>
</g>
<g>
	<polygon points="174,120 181,114 182,122" fill="#aaff00"/>
	<line x1="212" y1="112" x2="181" y2="118" stroke="#aaff00" stroke-width="2"/>
</g>
<g>
	<polygon points="126,224 127,215 135,220" fill="#aaff00"/>
	<line x1="212" y1="112" x2="131" y2="218" stroke="#aaff00" stroke-width="2"/>
</g>
<g>
	<polygon points="316,75 310,82 307,73" fill="#aaff00"/>
	<line x1="212" y1="112" x2="309" y2="77" stroke="#aaff00" stroke-width="2"/>
</g>
<g>
	<polygon points="97,31 106,32 101,39" fill="#aaff00"/>
	<line x1="212" y1="112" x2="103" y2="35" stroke="#aaff00" stroke-width="2"/>
</g>
<g>
	<polygon points="227,56 229,65 221,62" fill="#aaff00"/>
	<line x1="212" y1="112" x2="225" y2="63" stroke="#aaff00" stroke-width="2"/>
</g>
<g>
	<polygon points="339,124 331,128 332,119" fill="#aaff00"/>
	<line x1="212" y1="112" x2="332" y2="123" stroke="#aaff00" stroke-width="2"/>
</g>
<g>
	<polygon points="294,222 286,218 293,213" fill="#aaff00"/>
	<line x1="212" y1="112" x2="290" y2="216" stroke="#aaff00" stroke-width="2"/>
</g>
<g>
	<polygon points="248,93 243,101 239,93" fill="#aaff00"/>
	<line x1="212" y1="112" x2="242" y2="97" stroke="#aaff00" stroke-width="2"/>
</g>
<g>
	<polygon points="72,81 80,79 79,87" fill="#aaff00"/>
	<line x1="212" y1="112" x2="79" y2="83" stroke="#aaff00" stroke-width="2"/>
</g>
<g>
	<polygon points="229,9 232,17 223,16" fill="#aaff00"/>
	<line x1="212" y1="112" x2="228" y2="16" stroke="#aaff00" stroke-width="2"/>
</g>
<g>
	<polygon points="281,164 272,163 277,156" fill="#aaff00"/>
	<line x1="212" y1="112" x2="275" y2="159" stroke="#aaff00" stroke-width="2"/>
</g>
<g>
	<polygon points="231,183 225,177 234,174" fill="#aaff00"/>
	<line x1="212" y1="112" x2="229" y2="176" stroke="#aaff00" stroke-width="2"/>
</g>
<g>
	<polygon points="341,186 332,186 336,178" fill="#aaff00"/>
	<line x1="212" y1="112" x2="334" y2="183" stroke="#aaff00" stroke-width="2"/>
</g>

<g fill="#000000">
	<circle cx="211" cy="111" r="4"/>
</g>
<g fill="#000000">
	<circle cx="178" cy="227" r="4"/>
</g>
<g fill="#000000">
	<circle cx="150" cy="293" r="4"/>
</g>
<g fill="#000000">
	<circle cx="197" cy="294" r="4"/>
</g>
<g fill="#000000">
	<circle cx="139" cy="4" r="4"/>
</g>
<g fill="#000000">
	<circle cx="139" cy="163" r="4"/>
</g>
<g fill="#000000">
	<circle cx="184" cy="4" r="4"/>
</g>
<g fill="#000000">
	<circle cx="278" cy="53" r="4"/>
</g>
<g fill="#000000">
	<circle cx="239" cy="239" r="4"/>
</g>
<g fill="#000000">
	<circle cx="259" cy="294" r="4"/>
</g>
<g fill="#000000">
	<circle cx="81" cy="188" r="4"/>
</g>
<g fill="#000000">
	<circle cx="27" cy="224" r="4"/>
</g>
<g fill="#000000">
	<circle cx="124" cy="104" r="4"/>
</g>
<g fill="#000000">
	<circle cx="78" cy="135" r="4"/>
</g>
<g fill="#000000">
	<circle cx="8" cy="146" r="4"/>
</g>
<g fill="#000000">
	<circle cx="187" cy="67" r="4"/>
</g>
<g fill="#000000">
	<circle cx="190" cy="168" r="4"/>
</g>
<g fill="#000000">
	<circle cx="291" cy="118" r="4"/>
</g>
<g fill="#000000">
	<circle cx="242" cy="142" r="4"/>
</g>
<g fill="#000000">
	<circle cx="278" cy="4" r="4"/>
</g>
<g fill="#000000">
	<circle cx="142" cy="57" r="4"/>
</g>
<g fill="#000000">
	<circle cx="336" cy="17" r="4"/>
</g>
<g fill="#000000">
	<circle cx="394" cy="4" r="4"/>
</g>
<g fill="#000000">
	<circle cx="169" cy="120" r="4"/>
</g>
<g fill="#000000">
	<circle cx="123" cy="227" r="4"/>
</g>
<g fill="#000000">
	<circle cx="79" cy="285" r="4"/>
</g>
<g fill="#000000">
	<circle cx="320" cy="73" r="4"/>
</g>
<g fill="#000000">
	<circle cx="93" cy="28" r="4"/>
</g>
<g fill="#000000">
	<circle cx="38" cy="4" r="4"/>
</g>
<g fill="#000000">
	<circle cx="228" cy="51" r="4"/>
</g>
<g fill="#000000">
	<circle cx="343" cy="124" r="4"/>
</g>
<g fill="#000000">
	<circle cx="394" cy="110" r="4"/>
</g>
<g fill="#000000">
	<circle cx="296" cy="225" r="4"/>
</g>
<g fill="#000000">
	<circle cx="323" cy="286" r="4"/>
</g>
<g fill="#000000">
	<circle cx="252" cy="91" r="4"/>
</g>
<g fill="#000000">
	<circle cx="67" cy="80" r="4"/>
</g>
<g fill="#000000">
	<circle cx="4" cy="68" r="4"/>
</g>
<g fill="#000000">
	<circle cx="229" cy="4" r="4"/>
</g>
<g fill="#000000">
	<circle cx="284" cy="166" r="4"/>
</g>
<g fill="#000000">
	<circle cx="232" cy="187" r="4"/>
</g>
<g fill="#000000">
	<circle cx="344" cy="188" r="4"/>
</g>
<g fill="#000000">
	<circle cx="394" cy="237" r="4"/>
</g>
<g fill="#000000">
	<circle cx="394" cy="294" r="4"/>
</g>

</g>

</svg>
