<?xml version="1.0" encoding="utf-8"?>
<!-- Created with Hypercube (http://tumic.wz.cz/hypercube) -->

<svg width="400" height="300" viewBox="0 0 400 300" xmlns="http://www.w3.org/2000/svg" baseProfile="tiny">

<g font-family="Helvetica" font-weight="normal">

<g>
	<polygon points="210,21 211,30 202,26" fill="#aaff00"/>
	<line x1="164" y1="124" x2="207" y2="27" stroke="#aaff00" stroke-width="2"/>
</g>
<g>
	<polygon points="161,127 160,136 153,131" fill="#aaff00"/>
	<line x1="130" y1="174" x2="157" y2="133" stroke="#aaff00" stroke-width="2"/>
</g>
<g>
	<polygon points="126,177 124,186 118,179" fill="#aaff00"/>
	<line x1="93" y1="213" x2="121" y2="182" stroke="#aaff00" stroke-width="2"/>
</g>
<g>
	<polygon points="88,212 80,216 80,207" fill="#aaff00"/>
	<line x1="35" y1="210" x2="81" y2="212" stroke="#aaff00" stroke-width="2"/>
</g>
<g>
	<polygon points="216,16 222,9 224,18" fill="#aaff00"/>
	<line x1="265" y1="5" x2="223" y2="14" stroke="#aaff00" stroke-width="2"/>
</g>
<g>
	<polygon points="302,201 297,194 306,193" fill="#aaff00"/>
	<line x1="296" y1="97" x2="302" y2="194" stroke="#aaff00" stroke-width="2"/>
</g>
<g>
	<polygon points="256,68 265,69 260,76" fill="#aaff00"/>
	<line x1="296" y1="97" x2="262" y2="72" stroke="#aaff00" stroke-width="2"/>
</g>
<g>
	<polygon points="196,81 202,75 205,84" fill="#aaff00"/>
	<line x1="253" y1="66" x2="203" y2="79" stroke="#aaff00" stroke-width="2"/>
</g>
<g>
	<polygon points="195,86 203,88 197,95" fill="#aaff00"/>
	<line x1="231" y1="125" x2="199" y2="91" stroke="#aaff00" stroke-width="2"/>
</g>
<g>
	<polygon points="365,176 357,180 358,171" fill="#aaff00"/>
	<line x1="270" y1="169" x2="358" y2="176" stroke="#aaff00" stroke-width="2"/>
</g>
<g>
	<polygon points="233,128 242,131 235,137" fill="#aaff00"/>
	<line x1="270" y1="169" x2="238" y2="133" stroke="#aaff00" stroke-width="2"/>
</g>
<g>
	<polygon points="307,206 315,202 314,211" fill="#aaff00"/>
	<line x1="382" y1="215" x2="314" y2="207" stroke="#aaff00" stroke-width="2"/>
</g>
<g>
	<polygon points="371,181 377,187 369,190" fill="#aaff00"/>
	<line x1="382" y1="215" x2="373" y2="188" stroke="#aaff00" stroke-width="2"/>
</g>
<g>
	<polygon points="366,174 357,174 362,166" fill="#aaff00"/>
	<line x1="316" y1="142" x2="360" y2="170" stroke="#aaff00" stroke-width="2"/>
</g>
<g>
	<polygon points="352,138 345,143 344,134" fill="#aaff00"/>
	<line x1="316" y1="142" x2="345" y2="139" stroke="#aaff00" stroke-width="2"/>
</g>
<g>
	<polygon points="371,68 370,77 363,72" fill="#aaff00"/>
	<line x1="316" y1="142" x2="366" y2="74" stroke="#aaff00" stroke-width="2"/>
</g>
<g>
	<polygon points="356,142 359,150 350,149" fill="#aaff00"/>
	<line x1="342" y1="242" x2="355" y2="149" stroke="#aaff00" stroke-width="2"/>
</g>
<g>
	<polygon points="390,253 381,256 384,247" fill="#aaff00"/>
	<line x1="342" y1="242" x2="383" y2="252" stroke="#aaff00" stroke-width="2"/>
</g>
<g>
	<polygon points="371,181 378,187 369,190" fill="#aaff00"/>
	<line x1="395" y1="255" x2="373" y2="188" stroke="#aaff00" stroke-width="2"/>
</g>
<g>
	<polygon points="305,209 314,212 307,218" fill="#aaff00"/>
	<line x1="374" y1="295" x2="310" y2="215" stroke="#aaff00" stroke-width="2"/>
</g>
<g>
	<polygon points="392,258 393,267 385,263" fill="#aaff00"/>
	<line x1="374" y1="295" x2="389" y2="265" stroke="#aaff00" stroke-width="2"/>
</g>
<g>
	<polygon points="338,244 334,252 329,244" fill="#aaff00"/>
	<line x1="261" y1="295" x2="332" y2="248" stroke="#aaff00" stroke-width="2"/>
</g>
<g>
	<polygon points="299,208 294,216 290,208" fill="#aaff00"/>
	<line x1="222" y1="256" x2="293" y2="212" stroke="#aaff00" stroke-width="2"/>
</g>
<g>
	<polygon points="194,213 202,217 194,222" fill="#aaff00"/>
	<line x1="222" y1="256" x2="198" y2="219" stroke="#aaff00" stroke-width="2"/>
</g>
<g>
	<polygon points="250,230 247,238 241,231" fill="#aaff00"/>
	<line x1="222" y1="256" x2="245" y2="234" stroke="#aaff00" stroke-width="2"/>
</g>
<g>
	<polygon points="228,194 232,202 223,201" fill="#aaff00"/>
	<line x1="222" y1="256" x2="227" y2="201" stroke="#aaff00" stroke-width="2"/>
</g>
<g>
	<polygon points="257,291 249,289 255,283" fill="#aaff00"/>
	<line x1="222" y1="256" x2="252" y2="286" stroke="#aaff00" stroke-width="2"/>
</g>
<g>
	<polygon points="312,144 307,151 303,143" fill="#aaff00"/>
	<line x1="192" y1="210" x2="305" y2="147" stroke="#aaff00" stroke-width="2"/>
</g>
<g>
	<polygon points="268,173 271,182 262,179" fill="#aaff00"/>
	<line x1="254" y1="227" x2="266" y2="180" stroke="#aaff00" stroke-width="2"/>
</g>
<g>
	<polygon points="265,171 261,178 257,170" fill="#aaff00"/>
	<line x1="229" y1="190" x2="259" y2="174" stroke="#aaff00" stroke-width="2"/>
</g>
<g>
	<polygon points="371,172 371,163 379,167" fill="#aaff00"/>
	<line x1="395" y1="125" x2="375" y2="166" stroke="#aaff00" stroke-width="2"/>
</g>
<g>
	<polygon points="361,136 367,129 370,138" fill="#aaff00"/>
	<line x1="395" y1="125" x2="368" y2="134" stroke="#aaff00" stroke-width="2"/>
</g>
<g>
	<polygon points="393,16 394,25 386,21" fill="#aaff00"/>
	<line x1="374" y1="65" x2="390" y2="22" stroke="#aaff00" stroke-width="2"/>
</g>
<g>
	<polygon points="353,5 361,2 360,11" fill="#aaff00"/>
	<line x1="395" y1="12" x2="360" y2="6" stroke="#aaff00" stroke-width="2"/>
</g>
<g>
	<polygon points="187,83 180,89 179,80" fill="#aaff00"/>
	<line x1="119" y1="97" x2="180" y2="85" stroke="#aaff00" stroke-width="2"/>
</g>
<g>
	<polygon points="114,94 106,95 110,87" fill="#aaff00"/>
	<line x1="74" y1="74" x2="108" y2="91" stroke="#aaff00" stroke-width="2"/>
</g>
<g>
	<polygon points="110,44 107,53 101,46" fill="#aaff00"/>
	<line x1="74" y1="74" x2="104" y2="49" stroke="#aaff00" stroke-width="2"/>
</g>
<g>
	<polygon points="188,80 179,81 183,73" fill="#aaff00"/>
	<line x1="114" y1="42" x2="181" y2="77" stroke="#aaff00" stroke-width="2"/>
</g>
<g>
	<polygon points="116,38 117,29 124,34" fill="#aaff00"/>
	<line x1="141" y1="5" x2="120" y2="32" stroke="#aaff00" stroke-width="2"/>
</g>
<g>
	<polygon points="300,202 291,199 298,193" fill="#aaff00"/>
	<line x1="167" y1="48" x2="295" y2="197" stroke="#aaff00" stroke-width="2"/>
</g>
<g>
	<polygon points="55,34 63,31 62,39" fill="#aaff00"/>
	<line x1="167" y1="48" x2="62" y2="35" stroke="#aaff00" stroke-width="2"/>
</g>
<g>
	<polygon points="143,8 151,13 143,17" fill="#aaff00"/>
	<line x1="167" y1="48" x2="147" y2="15" stroke="#aaff00" stroke-width="2"/>
</g>
<g>
	<polygon points="8,100 8,91 16,96" fill="#aaff00"/>
	<line x1="51" y1="34" x2="12" y2="94" stroke="#aaff00" stroke-width="2"/>
</g>
<g>
	<polygon points="71,70 63,65 71,61" fill="#aaff00"/>
	<line x1="51" y1="34" x2="68" y2="63" stroke="#aaff00" stroke-width="2"/>
</g>
<g>
	<polygon points="302,210 305,218 296,217" fill="#aaff00"/>
	<line x1="294" y1="256" x2="300" y2="217" stroke="#aaff00" stroke-width="2"/>
</g>
<g>
	<polygon points="303,210 309,217 301,218" fill="#aaff00"/>
	<line x1="321" y1="295" x2="305" y2="217" stroke="#aaff00" stroke-width="2"/>
</g>
<g>
	<polygon points="111,293 102,294 106,285" fill="#aaff00"/>
	<line x1="67" y1="273" x2="105" y2="290" stroke="#aaff00" stroke-width="2"/>
</g>
<g>
	<polygon points="7,108 13,114 4,117" fill="#aaff00"/>
	<line x1="35" y1="210" x2="9" y2="115" stroke="#aaff00" stroke-width="2"/>
</g>
<g>
	<polygon points="64,268 57,264 65,260" fill="#aaff00"/>
	<line x1="35" y1="210" x2="61" y2="262" stroke="#aaff00" stroke-width="2"/>
</g>
<g>
	<polygon points="7,242 9,233 16,239" fill="#aaff00"/>
	<line x1="35" y1="210" x2="12" y2="237" stroke="#aaff00" stroke-width="2"/>
</g>
<g>
	<polygon points="6,290 4,281 13,284" fill="#aaff00"/>
	<line x1="35" y1="210" x2="8" y2="283" stroke="#aaff00" stroke-width="2"/>
</g>
<g>
	<polygon points="7,177 16,180 9,186" fill="#aaff00"/>
	<line x1="35" y1="210" x2="12" y2="182" stroke="#aaff00" stroke-width="2"/>
</g>
<g>
	<polygon points="51,159 53,168 44,165" fill="#aaff00"/>
	<line x1="35" y1="210" x2="49" y2="166" stroke="#aaff00" stroke-width="2"/>
</g>

<g fill="#000000">
	<circle cx="211" cy="16" r="4"/>
</g>
<g fill="#000000">
	<circle cx="302" cy="205" r="4"/>
</g>
<g fill="#000000">
	<circle cx="34" cy="209" r="4"/>
</g>
<g fill="#000000">
	<circle cx="92" cy="212" r="4"/>
</g>
<g fill="#000000">
	<circle cx="129" cy="173" r="4"/>
</g>
<g fill="#000000">
	<circle cx="163" cy="123" r="4"/>
</g>
<g fill="#000000">
	<circle cx="66" cy="272" r="4"/>
</g>
<g fill="#000000">
	<circle cx="115" cy="294" r="4"/>
</g>
<g fill="#000000">
	<circle cx="295" cy="96" r="4"/>
</g>
<g fill="#000000">
	<circle cx="252" cy="65" r="4"/>
</g>
<g fill="#000000">
	<circle cx="4" cy="245" r="4"/>
</g>
<g fill="#000000">
	<circle cx="191" cy="82" r="4"/>
</g>
<g fill="#000000">
	<circle cx="221" cy="255" r="4"/>
</g>
<g fill="#000000">
	<circle cx="191" cy="209" r="4"/>
</g>
<g fill="#000000">
	<circle cx="253" cy="226" r="4"/>
</g>
<g fill="#000000">
	<circle cx="228" cy="189" r="4"/>
</g>
<g fill="#000000">
	<circle cx="260" cy="294" r="4"/>
</g>
<g fill="#000000">
	<circle cx="4" cy="294" r="4"/>
</g>
<g fill="#000000">
	<circle cx="369" cy="176" r="4"/>
</g>
<g fill="#000000">
	<circle cx="381" cy="214" r="4"/>
</g>
<g fill="#000000">
	<circle cx="356" cy="137" r="4"/>
</g>
<g fill="#000000">
	<circle cx="50" cy="33" r="4"/>
</g>
<g fill="#000000">
	<circle cx="5" cy="103" r="4"/>
</g>
<g fill="#000000">
	<circle cx="73" cy="73" r="4"/>
</g>
<g fill="#000000">
	<circle cx="315" cy="141" r="4"/>
</g>
<g fill="#000000">
	<circle cx="373" cy="64" r="4"/>
</g>
<g fill="#000000">
	<circle cx="269" cy="168" r="4"/>
</g>
<g fill="#000000">
	<circle cx="230" cy="124" r="4"/>
</g>
<g fill="#000000">
	<circle cx="166" cy="47" r="4"/>
</g>
<g fill="#000000">
	<circle cx="140" cy="4" r="4"/>
</g>
<g fill="#000000">
	<circle cx="341" cy="241" r="4"/>
</g>
<g fill="#000000">
	<circle cx="394" cy="254" r="4"/>
</g>
<g fill="#000000">
	<circle cx="118" cy="96" r="4"/>
</g>
<g fill="#000000">
	<circle cx="113" cy="41" r="4"/>
</g>
<g fill="#000000">
	<circle cx="293" cy="255" r="4"/>
</g>
<g fill="#000000">
	<circle cx="394" cy="11" r="4"/>
</g>
<g fill="#000000">
	<circle cx="348" cy="4" r="4"/>
</g>
<g fill="#000000">
	<circle cx="4" cy="173" r="4"/>
</g>
<g fill="#000000">
	<circle cx="373" cy="294" r="4"/>
</g>
<g fill="#000000">
	<circle cx="52" cy="154" r="4"/>
</g>
<g fill="#000000">
	<circle cx="320" cy="294" r="4"/>
</g>
<g fill="#000000">
	<circle cx="394" cy="124" r="4"/>
</g>
<g fill="#000000">
	<circle cx="264" cy="4" r="4"/>
</g>

</g>

</svg>
