<?xml version="1.0" encoding="utf-8"?>
<!-- Created with Hypercube (http://tumic.wz.cz/hypercube) -->

<svg width="400" height="300" viewBox="0 0 400 300" xmlns="http://www.w3.org/2000/svg" baseProfile="tiny">

<g font-family="Helvetica" font-weight="normal">

<g>
	<polygon points="52,176 57,169 61,176" fill="#aaff00"/>
	<line x1="134" y1="131" x2="59" y2="173" stroke="#aaff00" stroke-width="2"/>
</g>
<g>
	<polygon points="7,259 6,250 14,254" fill="#aaff00"/>
	<line x1="49" y1="179" x2="10" y2="252" stroke="#aaff00" stroke-width="2"/>
</g>
<g>
	<polygon points="50,174 47,165 56,168" fill="#aaff00"/>
	<line x1="63" y1="125" x2="51" y2="167" stroke="#aaff00" stroke-width="2"/>
</g>
<g>
	<polygon points="45,175 36,173 43,167" fill="#aaff00"/>
	<line x1="5" y1="137" x2="40" y2="170" stroke="#aaff00" stroke-width="2"/>
</g>
<g>
	<polygon points="44,180 38,187 35,178" fill="#aaff00"/>
	<line x1="5" y1="194" x2="37" y2="182" stroke="#aaff00" stroke-width="2"/>
</g>
<g>
	<polygon points="48,183 52,191 43,190" fill="#aaff00"/>
	<line x1="45" y1="231" x2="48" y2="190" stroke="#aaff00" stroke-width="2"/>
</g>
<g>
	<polygon points="296,237 290,230 299,229" fill="#aaff00"/>
	<line x1="286" y1="183" x2="294" y2="230" stroke="#aaff00" stroke-width="2"/>
</g>
<g>
	<polygon points="286,290 284,282 292,283" fill="#aaff00"/>
	<line x1="297" y1="242" x2="288" y2="283" stroke="#aaff00" stroke-width="2"/>
</g>
<g>
	<polygon points="328,295 320,299 320,290" fill="#aaff00"/>
	<line x1="286" y1="295" x2="321" y2="295" stroke="#aaff00" stroke-width="2"/>
</g>
<g>
	<polygon points="155,245 154,236 162,240" fill="#aaff00"/>
	<line x1="184" y1="177" x2="158" y2="239" stroke="#aaff00" stroke-width="2"/>
</g>
<g>
	<polygon points="104,250 112,246 112,255" fill="#aaff00"/>
	<line x1="154" y1="250" x2="111" y2="250" stroke="#aaff00" stroke-width="2"/>
</g>
<g>
	<polygon points="151,246 144,241 151,237" fill="#aaff00"/>
	<line x1="128" y1="204" x2="148" y2="239" stroke="#aaff00" stroke-width="2"/>
</g>
<g>
	<polygon points="150,252 146,260 141,253" fill="#aaff00"/>
	<line x1="89" y1="295" x2="144" y2="256" stroke="#aaff00" stroke-width="2"/>
</g>
<g>
	<polygon points="157,253 166,254 160,261" fill="#aaff00"/>
	<line x1="204" y1="295" x2="162" y2="257" stroke="#aaff00" stroke-width="2"/>
</g>
<g>
	<polygon points="153,254 156,262 147,261" fill="#aaff00"/>
	<line x1="148" y1="295" x2="152" y2="261" stroke="#aaff00" stroke-width="2"/>
</g>
<g>
	<polygon points="391,201 382,200 387,193" fill="#aaff00"/>
	<line x1="340" y1="163" x2="385" y2="197" stroke="#aaff00" stroke-width="2"/>
</g>
<g>
	<polygon points="395,199 390,191 399,191" fill="#aaff00"/>
	<line x1="395" y1="154" x2="395" y2="192" stroke="#aaff00" stroke-width="2"/>
</g>
<g>
	<polygon points="395,208 399,216 390,216" fill="#aaff00"/>
	<line x1="395" y1="294" x2="395" y2="215" stroke="#aaff00" stroke-width="2"/>
</g>
<g>
	<polygon points="395,208 399,216 390,216" fill="#aaff00"/>
	<line x1="395" y1="247" x2="395" y2="215" stroke="#aaff00" stroke-width="2"/>
</g>
<g>
	<polygon points="59,38 68,36 65,45" fill="#aaff00"/>
	<line x1="134" y1="64" x2="66" y2="40" stroke="#aaff00" stroke-width="2"/>
</g>
<g>
	<polygon points="51,34 42,33 47,26" fill="#aaff00"/>
	<line x1="7" y1="5" x2="45" y2="30" stroke="#aaff00" stroke-width="2"/>
</g>
<g>
	<polygon points="50,38 45,46 41,38" fill="#aaff00"/>
	<line x1="5" y1="61" x2="44" y2="42" stroke="#aaff00" stroke-width="2"/>
</g>
<g>
	<polygon points="392,8 391,17 384,12" fill="#aaff00"/>
	<line x1="365" y1="50" x2="388" y2="14" stroke="#aaff00" stroke-width="2"/>
</g>
<g>
	<polygon points="237,164 241,172 232,171" fill="#aaff00"/>
	<line x1="233" y1="219" x2="237" y2="171" stroke="#aaff00" stroke-width="2"/>
</g>
<g>
	<polygon points="163,5 155,10 155,1" fill="#aaff00"/>
	<line x1="114" y1="5" x2="156" y2="5" stroke="#aaff00" stroke-width="2"/>
</g>
<g>
	<polygon points="269,9 272,18 263,15" fill="#aaff00"/>
	<line x1="249" y1="88" x2="268" y2="16" stroke="#aaff00" stroke-width="2"/>
</g>
<g>
	<polygon points="257,50 259,58 251,57" fill="#aaff00"/>
	<line x1="249" y1="88" x2="255" y2="57" stroke="#aaff00" stroke-width="2"/>
</g>
<g>
	<polygon points="138,129 143,122 147,130" fill="#aaff00"/>
	<line x1="249" y1="88" x2="144" y2="126" stroke="#aaff00" stroke-width="2"/>
</g>
<g>
	<polygon points="284,178 277,173 285,169" fill="#aaff00"/>
	<line x1="249" y1="88" x2="281" y2="172" stroke="#aaff00" stroke-width="2"/>
</g>
<g>
	<polygon points="303,61 298,69 294,61" fill="#aaff00"/>
	<line x1="249" y1="88" x2="297" y2="65" stroke="#aaff00" stroke-width="2"/>
</g>
<g>
	<polygon points="186,173 187,164 194,169" fill="#aaff00"/>
	<line x1="249" y1="88" x2="190" y2="167" stroke="#aaff00" stroke-width="2"/>
</g>
<g>
	<polygon points="336,160 327,158 333,151" fill="#aaff00"/>
	<line x1="249" y1="88" x2="330" y2="155" stroke="#aaff00" stroke-width="2"/>
</g>
<g>
	<polygon points="138,64 146,62 145,70" fill="#aaff00"/>
	<line x1="249" y1="88" x2="145" y2="66" stroke="#aaff00" stroke-width="2"/>
</g>
<g>
	<polygon points="279,121 271,118 277,112" fill="#aaff00"/>
	<line x1="249" y1="88" x2="275" y2="116" stroke="#aaff00" stroke-width="2"/>
</g>
<g>
	<polygon points="360,51 354,58 351,49" fill="#aaff00"/>
	<line x1="249" y1="88" x2="353" y2="53" stroke="#aaff00" stroke-width="2"/>
</g>
<g>
	<polygon points="238,155 235,147 244,148" fill="#aaff00"/>
	<line x1="249" y1="88" x2="239" y2="148" stroke="#aaff00" stroke-width="2"/>
</g>
<g>
	<polygon points="171,9 179,11 173,17" fill="#aaff00"/>
	<line x1="249" y1="88" x2="176" y2="14" stroke="#aaff00" stroke-width="2"/>
</g>
<g>
	<polygon points="200,60 209,60 205,68" fill="#aaff00"/>
	<line x1="249" y1="88" x2="207" y2="63" stroke="#aaff00" stroke-width="2"/>
</g>
<g>
	<polygon points="316,8 314,17 307,11" fill="#aaff00"/>
	<line x1="249" y1="88" x2="311" y2="13" stroke="#aaff00" stroke-width="2"/>
</g>
<g>
	<polygon points="327,104 319,106 320,98" fill="#aaff00"/>
	<line x1="249" y1="88" x2="320" y2="102" stroke="#aaff00" stroke-width="2"/>
</g>
<g>
	<polygon points="203,110 207,103 212,111" fill="#aaff00"/>
	<line x1="249" y1="88" x2="209" y2="107" stroke="#aaff00" stroke-width="2"/>
</g>
<g>
	<polygon points="220,9 227,15 218,18" fill="#aaff00"/>
	<line x1="249" y1="88" x2="222" y2="15" stroke="#aaff00" stroke-width="2"/>
</g>

<g fill="#000000">
	<circle cx="248" cy="87" r="4"/>
</g>
<g fill="#000000">
	<circle cx="270" cy="4" r="4"/>
</g>
<g fill="#000000">
	<circle cx="257" cy="45" r="4"/>
</g>
<g fill="#000000">
	<circle cx="133" cy="130" r="4"/>
</g>
<g fill="#000000">
	<circle cx="48" cy="178" r="4"/>
</g>
<g fill="#000000">
	<circle cx="4" cy="262" r="4"/>
</g>
<g fill="#000000">
	<circle cx="285" cy="182" r="4"/>
</g>
<g fill="#000000">
	<circle cx="296" cy="241" r="4"/>
</g>
<g fill="#000000">
	<circle cx="285" cy="294" r="4"/>
</g>
<g fill="#000000">
	<circle cx="332" cy="294" r="4"/>
</g>
<g fill="#000000">
	<circle cx="307" cy="59" r="4"/>
</g>
<g fill="#000000">
	<circle cx="62" cy="124" r="4"/>
</g>
<g fill="#000000">
	<circle cx="183" cy="176" r="4"/>
</g>
<g fill="#000000">
	<circle cx="153" cy="249" r="4"/>
</g>
<g fill="#000000">
	<circle cx="339" cy="162" r="4"/>
</g>
<g fill="#000000">
	<circle cx="394" cy="203" r="4"/>
</g>
<g fill="#000000">
	<circle cx="133" cy="63" r="4"/>
</g>
<g fill="#000000">
	<circle cx="54" cy="36" r="4"/>
</g>
<g fill="#000000">
	<circle cx="282" cy="124" r="4"/>
</g>
<g fill="#000000">
	<circle cx="394" cy="153" r="4"/>
</g>
<g fill="#000000">
	<circle cx="127" cy="203" r="4"/>
</g>
<g fill="#000000">
	<circle cx="6" cy="4" r="4"/>
</g>
<g fill="#000000">
	<circle cx="364" cy="49" r="4"/>
</g>
<g fill="#000000">
	<circle cx="394" cy="4" r="4"/>
</g>
<g fill="#000000">
	<circle cx="237" cy="159" r="4"/>
</g>
<g fill="#000000">
	<circle cx="167" cy="5" r="4"/>
</g>
<g fill="#000000">
	<circle cx="196" cy="57" r="4"/>
</g>
<g fill="#000000">
	<circle cx="4" cy="136" r="4"/>
</g>
<g fill="#000000">
	<circle cx="113" cy="4" r="4"/>
</g>
<g fill="#000000">
	<circle cx="88" cy="294" r="4"/>
</g>
<g fill="#000000">
	<circle cx="99" cy="250" r="4"/>
</g>
<g fill="#000000">
	<circle cx="318" cy="4" r="4"/>
</g>
<g fill="#000000">
	<circle cx="232" cy="218" r="4"/>
</g>
<g fill="#000000">
	<circle cx="331" cy="104" r="4"/>
</g>
<g fill="#000000">
	<circle cx="203" cy="294" r="4"/>
</g>
<g fill="#000000">
	<circle cx="198" cy="112" r="4"/>
</g>
<g fill="#000000">
	<circle cx="394" cy="293" r="4"/>
</g>
<g fill="#000000">
	<circle cx="4" cy="193" r="4"/>
</g>
<g fill="#000000">
	<circle cx="4" cy="60" r="4"/>
</g>
<g fill="#000000">
	<circle cx="394" cy="246" r="4"/>
</g>
<g fill="#000000">
	<circle cx="147" cy="294" r="4"/>
</g>
<g fill="#000000">
	<circle cx="44" cy="230" r="4"/>
</g>
<g fill="#000000">
	<circle cx="218" cy="4" r="4"/>
</g>

</g>

</svg>
