<?xml version="1.0" encoding="utf-8"?>
<!-- Created with Hypercube (http://tumic.wz.cz/hypercube) -->

<svg width="400" height="300" viewBox="0 0 400 300" xmlns="http://www.w3.org/2000/svg" baseProfile="tiny">

<g font-family="Helvetica" font-weight="normal">

<g>
	<polygon points="81,255 85,247 90,254" fill="#aaff00"/>
	<line x1="150" y1="206" x2="87" y2="251" stroke="#aaff00" stroke-width="2"/>
</g>
<g>
	<polygon points="145,292 137,293 141,285" fill="#aaff00"/>
	<line x1="78" y1="258" x2="139" y2="289" stroke="#aaff00" stroke-width="2"/>
</g>
<g>
	<polygon points="73,256 65,259 67,250" fill="#aaff00"/>
	<line x1="6" y1="241" x2="66" y2="255" stroke="#aaff00" stroke-width="2"/>
</g>
<g>
	<polygon points="73,260 69,267 64,259" fill="#aaff00"/>
	<line x1="5" y1="295" x2="67" y2="263" stroke="#aaff00" stroke-width="2"/>
</g>
<g>
	<polygon points="80,261 88,265 81,270" fill="#aaff00"/>
	<line x1="104" y1="295" x2="84" y2="267" stroke="#aaff00" stroke-width="2"/>
</g>
<g>
	<polygon points="75,261 74,270 67,265" fill="#aaff00"/>
	<line x1="52" y1="295" x2="71" y2="267" stroke="#aaff00" stroke-width="2"/>
</g>
<g>
	<polygon points="293,285 286,279 295,276" fill="#aaff00"/>
	<line x1="274" y1="231" x2="291" y2="278" stroke="#aaff00" stroke-width="2"/>
</g>
<g>
	<polygon points="341,294 333,298 334,289" fill="#aaff00"/>
	<line x1="295" y1="290" x2="334" y2="293" stroke="#aaff00" stroke-width="2"/>
</g>
<g>
	<polygon points="390,295 382,299 382,290" fill="#aaff00"/>
	<line x1="346" y1="295" x2="383" y2="295" stroke="#aaff00" stroke-width="2"/>
</g>
<g>
	<polygon points="70,45 79,44 75,52" fill="#aaff00"/>
	<line x1="136" y1="72" x2="76" y2="48" stroke="#aaff00" stroke-width="2"/>
</g>
<g>
	<polygon points="56,9 62,15 54,18" fill="#aaff00"/>
	<line x1="66" y1="44" x2="58" y2="16" stroke="#aaff00" stroke-width="2"/>
</g>
<g>
	<polygon points="66,48 70,56 61,56" fill="#aaff00"/>
	<line x1="67" y1="93" x2="66" y2="55" stroke="#aaff00" stroke-width="2"/>
</g>
<g>
	<polygon points="62,41 53,41 58,33" fill="#aaff00"/>
	<line x1="5" y1="5" x2="56" y2="37" stroke="#aaff00" stroke-width="2"/>
</g>
<g>
	<polygon points="61,44 54,50 53,42" fill="#aaff00"/>
	<line x1="5" y1="57" x2="54" y2="46" stroke="#aaff00" stroke-width="2"/>
</g>
<g>
	<polygon points="69,41 72,32 78,39" fill="#aaff00"/>
	<line x1="115" y1="5" x2="75" y2="36" stroke="#aaff00" stroke-width="2"/>
</g>
<g>
	<polygon points="59,152 66,146 67,155" fill="#aaff00"/>
	<line x1="132" y1="140" x2="66" y2="151" stroke="#aaff00" stroke-width="2"/>
</g>
<g>
	<polygon points="51,155 46,162 42,154" fill="#aaff00"/>
	<line x1="5" y1="180" x2="44" y2="158" stroke="#aaff00" stroke-width="2"/>
</g>
<g>
	<polygon points="56,157 64,162 55,166" fill="#aaff00"/>
	<line x1="74" y1="196" x2="59" y2="163" stroke="#aaff00" stroke-width="2"/>
</g>
<g>
	<polygon points="51,150 42,150 46,142" fill="#aaff00"/>
	<line x1="5" y1="123" x2="44" y2="146" stroke="#aaff00" stroke-width="2"/>
</g>
<g>
	<polygon points="390,48 383,54 382,45" fill="#aaff00"/>
	<line x1="336" y1="58" x2="383" y2="49" stroke="#aaff00" stroke-width="2"/>
</g>
<g>
	<polygon points="395,43 390,35 399,35" fill="#aaff00"/>
	<line x1="395" y1="5" x2="395" y2="36" stroke="#aaff00" stroke-width="2"/>
</g>
<g>
	<polygon points="395,52 399,60 390,60" fill="#aaff00"/>
	<line x1="395" y1="95" x2="395" y2="59" stroke="#aaff00" stroke-width="2"/>
</g>
<g>
	<polygon points="390,156 381,156 385,148" fill="#aaff00"/>
	<line x1="341" y1="133" x2="384" y2="153" stroke="#aaff00" stroke-width="2"/>
</g>
<g>
	<polygon points="324,191 333,191 329,199" fill="#aaff00"/>
	<line x1="374" y1="221" x2="331" y2="195" stroke="#aaff00" stroke-width="2"/>
</g>
<g>
	<polygon points="219,226 223,234 214,234" fill="#aaff00"/>
	<line x1="220" y1="285" x2="219" y2="233" stroke="#aaff00" stroke-width="2"/>
</g>
<g>
	<polygon points="235,70 239,78 230,78" fill="#aaff00"/>
	<line x1="237" y1="119" x2="235" y2="77" stroke="#aaff00" stroke-width="2"/>
</g>
<g>
	<polygon points="153,202 155,194 161,200" fill="#aaff00"/>
	<line x1="237" y1="119" x2="158" y2="197" stroke="#aaff00" stroke-width="2"/>
</g>
<g>
	<polygon points="272,226 265,220 274,217" fill="#aaff00"/>
	<line x1="237" y1="119" x2="270" y2="219" stroke="#aaff00" stroke-width="2"/>
</g>
<g>
	<polygon points="200,158 202,149 208,156" fill="#aaff00"/>
	<line x1="237" y1="119" x2="204" y2="153" stroke="#aaff00" stroke-width="2"/>
</g>
<g>
	<polygon points="140,73 149,73 145,81" fill="#aaff00"/>
	<line x1="237" y1="119" x2="146" y2="76" stroke="#aaff00" stroke-width="2"/>
</g>
<g>
	<polygon points="136,139 143,133 144,142" fill="#aaff00"/>
	<line x1="237" y1="119" x2="143" y2="137" stroke="#aaff00" stroke-width="2"/>
</g>
<g>
	<polygon points="332,60 327,68 323,60" fill="#aaff00"/>
	<line x1="237" y1="119" x2="326" y2="64" stroke="#aaff00" stroke-width="2"/>
</g>
<g>
	<polygon points="190,108 198,105 196,114" fill="#aaff00"/>
	<line x1="237" y1="119" x2="197" y2="109" stroke="#aaff00" stroke-width="2"/>
</g>
<g>
	<polygon points="336,132 328,135 329,126" fill="#aaff00"/>
	<line x1="237" y1="119" x2="329" y2="131" stroke="#aaff00" stroke-width="2"/>
</g>
<g>
	<polygon points="317,186 308,184 314,177" fill="#aaff00"/>
	<line x1="237" y1="119" x2="312" y2="181" stroke="#aaff00" stroke-width="2"/>
</g>
<g>
	<polygon points="219,217 216,209 225,210" fill="#aaff00"/>
	<line x1="237" y1="119" x2="221" y2="210" stroke="#aaff00" stroke-width="2"/>
</g>
<g>
	<polygon points="189,48 197,52 190,57" fill="#aaff00"/>
	<line x1="237" y1="119" x2="193" y2="54" stroke="#aaff00" stroke-width="2"/>
</g>
<g>
	<polygon points="280,75 278,83 272,77" fill="#aaff00"/>
	<line x1="237" y1="119" x2="275" y2="80" stroke="#aaff00" stroke-width="2"/>
</g>
<g>
	<polygon points="257,165 249,160 258,156" fill="#aaff00"/>
	<line x1="237" y1="119" x2="254" y2="159" stroke="#aaff00" stroke-width="2"/>
</g>
<g>
	<polygon points="284,122 276,126 277,117" fill="#aaff00"/>
	<line x1="237" y1="119" x2="277" y2="122" stroke="#aaff00" stroke-width="2"/>
</g>
<g>
	<polygon points="281,18 282,27 273,23" fill="#aaff00"/>
	<line x1="237" y1="119" x2="278" y2="24" stroke="#aaff00" stroke-width="2"/>
</g>
<g>
	<polygon points="224,9 229,16 220,17" fill="#aaff00"/>
	<line x1="237" y1="119" x2="225" y2="16" stroke="#aaff00" stroke-width="2"/>
</g>

<g fill="#000000">
	<circle cx="236" cy="118" r="4"/>
</g>
<g fill="#000000">
	<circle cx="234" cy="65" r="4"/>
</g>
<g fill="#000000">
	<circle cx="149" cy="205" r="4"/>
</g>
<g fill="#000000">
	<circle cx="77" cy="257" r="4"/>
</g>
<g fill="#000000">
	<circle cx="149" cy="294" r="4"/>
</g>
<g fill="#000000">
	<circle cx="273" cy="230" r="4"/>
</g>
<g fill="#000000">
	<circle cx="294" cy="289" r="4"/>
</g>
<g fill="#000000">
	<circle cx="345" cy="294" r="4"/>
</g>
<g fill="#000000">
	<circle cx="394" cy="294" r="4"/>
</g>
<g fill="#000000">
	<circle cx="196" cy="161" r="4"/>
</g>
<g fill="#000000">
	<circle cx="5" cy="240" r="4"/>
</g>
<g fill="#000000">
	<circle cx="135" cy="71" r="4"/>
</g>
<g fill="#000000">
	<circle cx="65" cy="43" r="4"/>
</g>
<g fill="#000000">
	<circle cx="131" cy="139" r="4"/>
</g>
<g fill="#000000">
	<circle cx="54" cy="152" r="4"/>
</g>
<g fill="#000000">
	<circle cx="335" cy="57" r="4"/>
</g>
<g fill="#000000">
	<circle cx="394" cy="47" r="4"/>
</g>
<g fill="#000000">
	<circle cx="185" cy="106" r="4"/>
</g>
<g fill="#000000">
	<circle cx="4" cy="179" r="4"/>
</g>
<g fill="#000000">
	<circle cx="66" cy="92" r="4"/>
</g>
<g fill="#000000">
	<circle cx="394" cy="4" r="4"/>
</g>
<g fill="#000000">
	<circle cx="340" cy="132" r="4"/>
</g>
<g fill="#000000">
	<circle cx="394" cy="157" r="4"/>
</g>
<g fill="#000000">
	<circle cx="320" cy="188" r="4"/>
</g>
<g fill="#000000">
	<circle cx="218" cy="221" r="4"/>
</g>
<g fill="#000000">
	<circle cx="186" cy="44" r="4"/>
</g>
<g fill="#000000">
	<circle cx="4" cy="294" r="4"/>
</g>
<g fill="#000000">
	<circle cx="219" cy="284" r="4"/>
</g>
<g fill="#000000">
	<circle cx="4" cy="4" r="4"/>
</g>
<g fill="#000000">
	<circle cx="54" cy="4" r="4"/>
</g>
<g fill="#000000">
	<circle cx="283" cy="71" r="4"/>
</g>
<g fill="#000000">
	<circle cx="373" cy="220" r="4"/>
</g>
<g fill="#000000">
	<circle cx="258" cy="169" r="4"/>
</g>
<g fill="#000000">
	<circle cx="4" cy="56" r="4"/>
</g>
<g fill="#000000">
	<circle cx="288" cy="122" r="4"/>
</g>
<g fill="#000000">
	<circle cx="73" cy="195" r="4"/>
</g>
<g fill="#000000">
	<circle cx="282" cy="13" r="4"/>
</g>
<g fill="#000000">
	<circle cx="103" cy="294" r="4"/>
</g>
<g fill="#000000">
	<circle cx="394" cy="94" r="4"/>
</g>
<g fill="#000000">
	<circle cx="4" cy="122" r="4"/>
</g>
<g fill="#000000">
	<circle cx="114" cy="4" r="4"/>
</g>
<g fill="#000000">
	<circle cx="51" cy="294" r="4"/>
</g>
<g fill="#000000">
	<circle cx="223" cy="4" r="4"/>
</g>

</g>

</svg>
