<?xml version="1.0" encoding="utf-8"?>
<!-- Created with Hypercube (http://tumic.wz.cz/hypercube) -->

<svg width="400" height="300" viewBox="0 0 400 300" xmlns="http://www.w3.org/2000/svg" baseProfile="tiny">

<g font-family="Helvetica" font-weight="normal">

<g>
	<polygon points="162,224 153,226 156,218" fill="#aaff00"/>
	<line x1="89" y1="202" x2="155" y2="222" stroke="#aaff00" stroke-width="2"/>
</g>
<g>
	<polygon points="223,236 215,239 216,230" fill="#aaff00"/>
	<line x1="167" y1="226" x2="216" y2="234" stroke="#aaff00" stroke-width="2"/>
</g>
<g>
	<polygon points="221,192 216,200 212,192" fill="#aaff00"/>
	<line x1="167" y1="226" x2="215" y2="196" stroke="#aaff00" stroke-width="2"/>
</g>
<g>
	<polygon points="225,144 229,152 220,152" fill="#aaff00"/>
	<line x1="225" y1="190" x2="225" y2="151" stroke="#aaff00" stroke-width="2"/>
</g>
<g>
	<polygon points="86,91 95,89 92,98" fill="#aaff00"/>
	<line x1="225" y1="140" x2="93" y2="93" stroke="#aaff00" stroke-width="2"/>
</g>
<g>
	<polygon points="315,164 306,167 309,158" fill="#aaff00"/>
	<line x1="225" y1="140" x2="308" y2="162" stroke="#aaff00" stroke-width="2"/>
</g>
<g>
	<polygon points="188,127 197,125 194,134" fill="#aaff00"/>
	<line x1="225" y1="140" x2="195" y2="129" stroke="#aaff00" stroke-width="2"/>
</g>
<g>
	<polygon points="8,133 13,125 17,133" fill="#aaff00"/>
	<line x1="82" y1="90" x2="15" y2="130" stroke="#aaff00" stroke-width="2"/>
</g>
<g>
	<polygon points="117,102 108,104 111,95" fill="#aaff00"/>
	<line x1="82" y1="90" x2="110" y2="100" stroke="#aaff00" stroke-width="2"/>
</g>
<g>
	<polygon points="24,233 18,226 27,225" fill="#aaff00"/>
	<line x1="5" y1="136" x2="22" y2="226" stroke="#aaff00" stroke-width="2"/>
</g>
<g>
	<polygon points="107,292 98,291 103,284" fill="#aaff00"/>
	<line x1="25" y1="238" x2="101" y2="288" stroke="#aaff00" stroke-width="2"/>
</g>
<g>
	<polygon points="50,290 42,285 50,281" fill="#aaff00"/>
	<line x1="25" y1="238" x2="46" y2="284" stroke="#aaff00" stroke-width="2"/>
</g>
<g>
	<polygon points="275,255 269,261 266,252" fill="#aaff00"/>
	<line x1="111" y1="295" x2="268" y2="256" stroke="#aaff00" stroke-width="2"/>
</g>
<g>
	<polygon points="365,143 364,152 356,146" fill="#aaff00"/>
	<line x1="280" y1="254" x2="360" y2="149" stroke="#aaff00" stroke-width="2"/>
</g>
<g>
	<polygon points="392,98 392,107 384,103" fill="#aaff00"/>
	<line x1="368" y1="140" x2="388" y2="105" stroke="#aaff00" stroke-width="2"/>
</g>
<g>
	<polygon points="359,71 364,78 356,79" fill="#aaff00"/>
	<line x1="368" y1="140" x2="360" y2="78" stroke="#aaff00" stroke-width="2"/>
</g>
<g>
	<polygon points="362,69 371,70 365,78" fill="#aaff00"/>
	<line x1="395" y1="95" x2="368" y2="74" stroke="#aaff00" stroke-width="2"/>
</g>
<g>
	<polygon points="291,28 300,28 296,36" fill="#aaff00"/>
	<line x1="359" y1="67" x2="298" y2="31" stroke="#aaff00" stroke-width="2"/>
</g>
<g>
	<polygon points="126,102 131,94 135,102" fill="#aaff00"/>
	<line x1="288" y1="26" x2="132" y2="99" stroke="#aaff00" stroke-width="2"/>
</g>
<g>
	<polygon points="338,6 333,13 329,5" fill="#aaff00"/>
	<line x1="288" y1="26" x2="332" y2="9" stroke="#aaff00" stroke-width="2"/>
</g>
<g>
	<polygon points="45,129 51,122 54,131" fill="#aaff00"/>
	<line x1="122" y1="104" x2="52" y2="127" stroke="#aaff00" stroke-width="2"/>
</g>
<g>
	<polygon points="132,187 127,180 135,179" fill="#aaff00"/>
	<line x1="122" y1="104" x2="131" y2="180" stroke="#aaff00" stroke-width="2"/>
</g>
<g>
	<polygon points="58,37 61,45 52,44" fill="#aaff00"/>
	<line x1="41" y1="131" x2="56" y2="44" stroke="#aaff00" stroke-width="2"/>
</g>
<g>
	<polygon points="91,239 83,234 91,230" fill="#aaff00"/>
	<line x1="41" y1="131" x2="88" y2="233" stroke="#aaff00" stroke-width="2"/>
</g>
<g>
	<polygon points="131,6 125,13 122,4" fill="#aaff00"/>
	<line x1="59" y1="33" x2="125" y2="8" stroke="#aaff00" stroke-width="2"/>
</g>
<g>
	<polygon points="179,5 171,10 171,1" fill="#aaff00"/>
	<line x1="136" y1="5" x2="172" y2="5" stroke="#aaff00" stroke-width="2"/>
</g>
<g>
	<polygon points="229,5 221,9 221,0" fill="#aaff00"/>
	<line x1="136" y1="5" x2="222" y2="5" stroke="#aaff00" stroke-width="2"/>
</g>
<g>
	<polygon points="246,62 237,60 243,53" fill="#aaff00"/>
	<line x1="184" y1="6" x2="241" y2="57" stroke="#aaff00" stroke-width="2"/>
</g>
<g>
	<polygon points="278,191 271,184 280,183" fill="#aaff00"/>
	<line x1="250" y1="65" x2="276" y2="184" stroke="#aaff00" stroke-width="2"/>
</g>
<g>
	<polygon points="341,229 332,230 336,222" fill="#aaff00"/>
	<line x1="279" y1="196" x2="334" y2="226" stroke="#aaff00" stroke-width="2"/>
</g>
<g>
	<polygon points="378,201 375,210 369,203" fill="#aaff00"/>
	<line x1="345" y1="232" x2="373" y2="206" stroke="#aaff00" stroke-width="2"/>
</g>
<g>
	<polygon points="390,246 381,248 384,239" fill="#aaff00"/>
	<line x1="345" y1="232" x2="383" y2="244" stroke="#aaff00" stroke-width="2"/>
</g>
<g>
	<polygon points="323,168 332,167 328,175" fill="#aaff00"/>
	<line x1="382" y1="199" x2="330" y2="171" stroke="#aaff00" stroke-width="2"/>
</g>
<g>
	<polygon points="383,203 389,209 380,212" fill="#aaff00"/>
	<line x1="395" y1="248" x2="384" y2="210" stroke="#aaff00" stroke-width="2"/>
</g>
<g>
	<polygon points="395,290 390,282 399,282" fill="#aaff00"/>
	<line x1="395" y1="248" x2="395" y2="283" stroke="#aaff00" stroke-width="2"/>
</g>
<g>
	<polygon points="275,198 272,207 266,200" fill="#aaff00"/>
	<line x1="195" y1="264" x2="269" y2="203" stroke="#aaff00" stroke-width="2"/>
</g>
<g>
	<polygon points="190,263 182,266 183,257" fill="#aaff00"/>
	<line x1="93" y1="244" x2="183" y2="261" stroke="#aaff00" stroke-width="2"/>
</g>
<g>
	<polygon points="279,191 277,183 286,184" fill="#aaff00"/>
	<line x1="302" y1="92" x2="281" y2="184" stroke="#aaff00" stroke-width="2"/>
</g>
<g>
	<polygon points="299,88 290,85 297,79" fill="#aaff00"/>
	<line x1="234" y1="5" x2="294" y2="82" stroke="#aaff00" stroke-width="2"/>
</g>
<g>
	<polygon points="277,200 279,209 270,206" fill="#aaff00"/>
	<line x1="243" y1="295" x2="275" y2="206" stroke="#aaff00" stroke-width="2"/>
</g>
<g>
	<polygon points="238,295 230,299 230,290" fill="#aaff00"/>
	<line x1="168" y1="295" x2="231" y2="295" stroke="#aaff00" stroke-width="2"/>
</g>
<g>
	<polygon points="166,290 159,284 168,281" fill="#aaff00"/>
	<line x1="133" y1="192" x2="164" y2="283" stroke="#aaff00" stroke-width="2"/>
</g>
<g>
	<polygon points="137,147 141,155 132,154" fill="#aaff00"/>
	<line x1="133" y1="192" x2="136" y2="154" stroke="#aaff00" stroke-width="2"/>
</g>
<g>
	<polygon points="161,89 162,98 154,94" fill="#aaff00"/>
	<line x1="138" y1="143" x2="158" y2="95" stroke="#aaff00" stroke-width="2"/>
</g>
<g>
	<polygon points="179,127 174,134 170,126" fill="#aaff00"/>
	<line x1="138" y1="143" x2="173" y2="130" stroke="#aaff00" stroke-width="2"/>
</g>
<g>
	<polygon points="201,81 194,86 193,77" fill="#aaff00"/>
	<line x1="163" y1="85" x2="194" y2="82" stroke="#aaff00" stroke-width="2"/>
</g>
<g>
	<polygon points="185,121 185,112 193,116" fill="#aaff00"/>
	<line x1="206" y1="81" x2="189" y2="115" stroke="#aaff00" stroke-width="2"/>
</g>
<g>
	<polygon points="256,109 247,109 251,101" fill="#aaff00"/>
	<line x1="206" y1="81" x2="249" y2="106" stroke="#aaff00" stroke-width="2"/>
</g>
<g>
	<polygon points="181,168 177,160 186,161" fill="#aaff00"/>
	<line x1="184" y1="126" x2="181" y2="161" stroke="#aaff00" stroke-width="2"/>
</g>
<g>
	<polygon points="106,295 98,299 98,290" fill="#aaff00"/>
	<line x1="52" y1="295" x2="99" y2="295" stroke="#aaff00" stroke-width="2"/>
</g>
<g>
	<polygon points="9,295 17,290 17,299" fill="#aaff00"/>
	<line x1="52" y1="295" x2="16" y2="295" stroke="#aaff00" stroke-width="2"/>
</g>
<g>
	<polygon points="85,198 77,196 83,190" fill="#aaff00"/>
	<line x1="60" y1="172" x2="80" y2="193" stroke="#aaff00" stroke-width="2"/>
</g>

<g fill="#000000">
	<circle cx="59" cy="171" r="4"/>
</g>
<g fill="#000000">
	<circle cx="88" cy="201" r="4"/>
</g>
<g fill="#000000">
	<circle cx="166" cy="225" r="4"/>
</g>
<g fill="#000000">
	<circle cx="227" cy="236" r="4"/>
</g>
<g fill="#000000">
	<circle cx="224" cy="189" r="4"/>
</g>
<g fill="#000000">
	<circle cx="224" cy="139" r="4"/>
</g>
<g fill="#000000">
	<circle cx="81" cy="89" r="4"/>
</g>
<g fill="#000000">
	<circle cx="4" cy="135" r="4"/>
</g>
<g fill="#000000">
	<circle cx="121" cy="103" r="4"/>
</g>
<g fill="#000000">
	<circle cx="24" cy="237" r="4"/>
</g>
<g fill="#000000">
	<circle cx="40" cy="130" r="4"/>
</g>
<g fill="#000000">
	<circle cx="132" cy="191" r="4"/>
</g>
<g fill="#000000">
	<circle cx="110" cy="294" r="4"/>
</g>
<g fill="#000000">
	<circle cx="51" cy="294" r="4"/>
</g>
<g fill="#000000">
	<circle cx="279" cy="253" r="4"/>
</g>
<g fill="#000000">
	<circle cx="4" cy="294" r="4"/>
</g>
<g fill="#000000">
	<circle cx="367" cy="139" r="4"/>
</g>
<g fill="#000000">
	<circle cx="394" cy="94" r="4"/>
</g>
<g fill="#000000">
	<circle cx="358" cy="66" r="4"/>
</g>
<g fill="#000000">
	<circle cx="287" cy="25" r="4"/>
</g>
<g fill="#000000">
	<circle cx="342" cy="4" r="4"/>
</g>
<g fill="#000000">
	<circle cx="58" cy="32" r="4"/>
</g>
<g fill="#000000">
	<circle cx="92" cy="243" r="4"/>
</g>
<g fill="#000000">
	<circle cx="167" cy="294" r="4"/>
</g>
<g fill="#000000">
	<circle cx="137" cy="142" r="4"/>
</g>
<g fill="#000000">
	<circle cx="135" cy="4" r="4"/>
</g>
<g fill="#000000">
	<circle cx="194" cy="263" r="4"/>
</g>
<g fill="#000000">
	<circle cx="183" cy="5" r="4"/>
</g>
<g fill="#000000">
	<circle cx="233" cy="4" r="4"/>
</g>
<g fill="#000000">
	<circle cx="249" cy="64" r="4"/>
</g>
<g fill="#000000">
	<circle cx="301" cy="91" r="4"/>
</g>
<g fill="#000000">
	<circle cx="278" cy="195" r="4"/>
</g>
<g fill="#000000">
	<circle cx="344" cy="231" r="4"/>
</g>
<g fill="#000000">
	<circle cx="381" cy="198" r="4"/>
</g>
<g fill="#000000">
	<circle cx="394" cy="247" r="4"/>
</g>
<g fill="#000000">
	<circle cx="319" cy="165" r="4"/>
</g>
<g fill="#000000">
	<circle cx="394" cy="294" r="4"/>
</g>
<g fill="#000000">
	<circle cx="242" cy="294" r="4"/>
</g>
<g fill="#000000">
	<circle cx="162" cy="84" r="4"/>
</g>
<g fill="#000000">
	<circle cx="183" cy="125" r="4"/>
</g>
<g fill="#000000">
	<circle cx="205" cy="80" r="4"/>
</g>
<g fill="#000000">
	<circle cx="180" cy="172" r="4"/>
</g>
<g fill="#000000">
	<circle cx="259" cy="111" r="4"/>
</g>

</g>

</svg>
