<?xml version="1.0" encoding="utf-8"?>
<!-- Created with Hypercube (http://tumic.wz.cz/hypercube) -->

<svg width="400" height="300" viewBox="0 0 400 300" xmlns="http://www.w3.org/2000/svg" baseProfile="tiny">

<g font-family="Helvetica" font-weight="normal">

<g>
	<polygon points="7,222 9,213 16,219" fill="#aaff00"/>
	<line x1="75" y1="140" x2="12" y2="216" stroke="#aaff00" stroke-width="2"/>
</g>
<g>
	<polygon points="66,110 72,116 64,119" fill="#aaff00"/>
	<line x1="75" y1="140" x2="68" y2="117" stroke="#aaff00" stroke-width="2"/>
</g>
<g>
	<polygon points="107,187 99,183 106,178" fill="#aaff00"/>
	<line x1="75" y1="140" x2="103" y2="181" stroke="#aaff00" stroke-width="2"/>
</g>
<g>
	<polygon points="28,186 30,178 36,184" fill="#aaff00"/>
	<line x1="75" y1="140" x2="33" y2="181" stroke="#aaff00" stroke-width="2"/>
</g>
<g>
	<polygon points="88,82 90,90 81,89" fill="#aaff00"/>
	<line x1="75" y1="140" x2="86" y2="89" stroke="#aaff00" stroke-width="2"/>
</g>
<g>
	<polygon points="9,106 18,105 14,113" fill="#aaff00"/>
	<line x1="75" y1="140" x2="16" y2="109" stroke="#aaff00" stroke-width="2"/>
</g>
<g>
	<polygon points="90,155 82,153 88,147" fill="#aaff00"/>
	<line x1="75" y1="140" x2="85" y2="150" stroke="#aaff00" stroke-width="2"/>
</g>
<g>
	<polygon points="297,132 289,136 289,127" fill="#aaff00"/>
	<line x1="75" y1="140" x2="290" y2="132" stroke="#aaff00" stroke-width="2"/>
</g>
<g>
	<polygon points="68,109 77,111 70,117" fill="#aaff00"/>
	<line x1="130" y1="167" x2="73" y2="114" stroke="#aaff00" stroke-width="2"/>
</g>
<g>
	<polygon points="112,187 114,178 121,184" fill="#aaff00"/>
	<line x1="130" y1="167" x2="117" y2="182" stroke="#aaff00" stroke-width="2"/>
</g>
<g>
	<polygon points="122,129 128,136 119,137" fill="#aaff00"/>
	<line x1="130" y1="167" x2="124" y2="136" stroke="#aaff00" stroke-width="2"/>
</g>
<g>
	<polygon points="105,227 104,218 112,222" fill="#aaff00"/>
	<line x1="130" y1="167" x2="108" y2="221" stroke="#aaff00" stroke-width="2"/>
</g>
<g>
	<polygon points="109,195 112,203 103,202" fill="#aaff00"/>
	<line x1="104" y1="232" x2="108" y2="202" stroke="#aaff00" stroke-width="2"/>
</g>
<g>
	<polygon points="71,193 80,196 73,202" fill="#aaff00"/>
	<line x1="104" y1="232" x2="76" y2="198" stroke="#aaff00" stroke-width="2"/>
</g>
<g>
	<polygon points="62,237 69,231 70,240" fill="#aaff00"/>
	<line x1="104" y1="232" x2="69" y2="236" stroke="#aaff00" stroke-width="2"/>
</g>
<g>
	<polygon points="65,110 70,118 61,118" fill="#aaff00"/>
	<line x1="69" y1="190" x2="65" y2="117" stroke="#aaff00" stroke-width="2"/>
</g>
<g>
	<polygon points="105,190 97,195 97,186" fill="#aaff00"/>
	<line x1="69" y1="190" x2="98" y2="190" stroke="#aaff00" stroke-width="2"/>
</g>
<g>
	<polygon points="119,128 117,137 110,131" fill="#aaff00"/>
	<line x1="69" y1="190" x2="114" y2="134" stroke="#aaff00" stroke-width="2"/>
</g>
<g>
	<polygon points="61,102 53,100 59,94" fill="#aaff00"/>
	<line x1="13" y1="52" x2="56" y2="97" stroke="#aaff00" stroke-width="2"/>
</g>
<g>
	<polygon points="107,187 99,183 106,178" fill="#aaff00"/>
	<line x1="13" y1="52" x2="103" y2="181" stroke="#aaff00" stroke-width="2"/>
</g>
<g>
	<polygon points="118,122 109,121 114,114" fill="#aaff00"/>
	<line x1="13" y1="52" x2="112" y2="118" stroke="#aaff00" stroke-width="2"/>
</g>
<g>
	<polygon points="5,9 11,16 2,17" fill="#aaff00"/>
	<line x1="13" y1="52" x2="6" y2="16" stroke="#aaff00" stroke-width="2"/>
</g>
<g>
	<polygon points="61,8 58,16 52,9" fill="#aaff00"/>
	<line x1="13" y1="52" x2="56" y2="12" stroke="#aaff00" stroke-width="2"/>
</g>
<g>
	<polygon points="123,9 118,16 114,8" fill="#aaff00"/>
	<line x1="13" y1="52" x2="117" y2="12" stroke="#aaff00" stroke-width="2"/>
</g>
<g>
	<polygon points="84,76 75,78 78,69" fill="#aaff00"/>
	<line x1="13" y1="52" x2="77" y2="74" stroke="#aaff00" stroke-width="2"/>
</g>
<g>
	<polygon points="95,39 88,45 87,36" fill="#aaff00"/>
	<line x1="13" y1="52" x2="88" y2="40" stroke="#aaff00" stroke-width="2"/>
</g>
<g>
	<polygon points="6,99 3,91 12,92" fill="#aaff00"/>
	<line x1="13" y1="52" x2="7" y2="92" stroke="#aaff00" stroke-width="2"/>
</g>
<g>
	<polygon points="35,48 28,54 27,45" fill="#aaff00"/>
	<line x1="13" y1="52" x2="28" y2="49" stroke="#aaff00" stroke-width="2"/>
</g>
<g>
	<polygon points="65,101 61,93 70,94" fill="#aaff00"/>
	<line x1="69" y1="53" x2="65" y2="94" stroke="#aaff00" stroke-width="2"/>
</g>
<g>
	<polygon points="108,186 102,180 110,177" fill="#aaff00"/>
	<line x1="69" y1="53" x2="106" y2="179" stroke="#aaff00" stroke-width="2"/>
</g>
<g>
	<polygon points="119,121 111,117 118,112" fill="#aaff00"/>
	<line x1="69" y1="53" x2="115" y2="115" stroke="#aaff00" stroke-width="2"/>
</g>
<g>
	<polygon points="17,52 25,47 25,56" fill="#aaff00"/>
	<line x1="69" y1="53" x2="24" y2="52" stroke="#aaff00" stroke-width="2"/>
</g>
<g>
	<polygon points="8,7 17,8 12,15" fill="#aaff00"/>
	<line x1="69" y1="53" x2="14" y2="12" stroke="#aaff00" stroke-width="2"/>
</g>
<g>
	<polygon points="124,10 120,19 115,11" fill="#aaff00"/>
	<line x1="69" y1="53" x2="118" y2="15" stroke="#aaff00" stroke-width="2"/>
</g>
<g>
	<polygon points="86,74 77,71 84,65" fill="#aaff00"/>
	<line x1="69" y1="53" x2="81" y2="68" stroke="#aaff00" stroke-width="2"/>
</g>
<g>
	<polygon points="95,40 90,48 86,39" fill="#aaff00"/>
	<line x1="69" y1="53" x2="89" y2="43" stroke="#aaff00" stroke-width="2"/>
</g>
<g>
	<polygon points="9,101 12,92 18,99" fill="#aaff00"/>
	<line x1="69" y1="53" x2="15" y2="96" stroke="#aaff00" stroke-width="2"/>
</g>
<g>
	<polygon points="44,48 52,45 51,54" fill="#aaff00"/>
	<line x1="69" y1="53" x2="51" y2="49" stroke="#aaff00" stroke-width="2"/>
</g>
<g>
	<polygon points="159,10 154,18 150,10" fill="#aaff00"/>
	<line x1="69" y1="53" x2="153" y2="13" stroke="#aaff00" stroke-width="2"/>
</g>
<g>
	<polygon points="67,102 66,93 74,97" fill="#aaff00"/>
	<line x1="100" y1="39" x2="70" y2="95" stroke="#aaff00" stroke-width="2"/>
</g>
<g>
	<polygon points="120,120 114,114 123,111" fill="#aaff00"/>
	<line x1="100" y1="39" x2="119" y2="113" stroke="#aaff00" stroke-width="2"/>
</g>
<g>
	<polygon points="124,11 123,20 116,14" fill="#aaff00"/>
	<line x1="100" y1="39" x2="120" y2="16" stroke="#aaff00" stroke-width="2"/>
</g>
<g>
	<polygon points="90,73 88,64 96,67" fill="#aaff00"/>
	<line x1="100" y1="39" x2="92" y2="66" stroke="#aaff00" stroke-width="2"/>
</g>
<g>
	<polygon points="128,37 121,42 120,33" fill="#aaff00"/>
	<line x1="100" y1="39" x2="121" y2="37" stroke="#aaff00" stroke-width="2"/>
</g>
<g>
	<polygon points="123,120 121,111 130,114" fill="#aaff00"/>
	<line x1="164" y1="9" x2="125" y2="114" stroke="#aaff00" stroke-width="2"/>
</g>
<g>
	<polygon points="69,5 77,0 77,9" fill="#aaff00"/>
	<line x1="164" y1="9" x2="76" y2="5" stroke="#aaff00" stroke-width="2"/>
</g>
<g>
	<polygon points="132,8 140,3 140,12" fill="#aaff00"/>
	<line x1="164" y1="9" x2="139" y2="8" stroke="#aaff00" stroke-width="2"/>
</g>
<g>
	<polygon points="92,74 95,66 101,72" fill="#aaff00"/>
	<line x1="164" y1="9" x2="97" y2="70" stroke="#aaff00" stroke-width="2"/>
</g>
<g>
	<polygon points="65,101 60,93 69,93" fill="#aaff00"/>
	<line x1="65" y1="5" x2="65" y2="94" stroke="#aaff00" stroke-width="2"/>
</g>
<g>
	<polygon points="69,107 78,105 75,114" fill="#aaff00"/>
	<line x1="157" y1="137" x2="76" y2="109" stroke="#aaff00" stroke-width="2"/>
</g>
<g>
	<polygon points="112,187 114,178 121,184" fill="#aaff00"/>
	<line x1="157" y1="137" x2="117" y2="182" stroke="#aaff00" stroke-width="2"/>
</g>
<g>
	<polygon points="126,126 135,124 132,133" fill="#aaff00"/>
	<line x1="157" y1="137" x2="133" y2="128" stroke="#aaff00" stroke-width="2"/>
</g>
<g>
	<polygon points="92,80 101,82 95,89" fill="#aaff00"/>
	<line x1="157" y1="137" x2="97" y2="85" stroke="#aaff00" stroke-width="2"/>
</g>
<g>
	<polygon points="163,13 167,21 158,21" fill="#aaff00"/>
	<line x1="157" y1="137" x2="163" y2="20" stroke="#aaff00" stroke-width="2"/>
</g>
<g>
	<polygon points="86,272 85,263 93,267" fill="#aaff00"/>
	<line x1="157" y1="137" x2="89" y2="265" stroke="#aaff00" stroke-width="2"/>
</g>
<g>
	<polygon points="190,197 183,192 190,188" fill="#aaff00"/>
	<line x1="157" y1="137" x2="187" y2="190" stroke="#aaff00" stroke-width="2"/>
</g>
<g>
	<polygon points="115,100 124,102 118,109" fill="#aaff00"/>
	<line x1="157" y1="137" x2="120" y2="105" stroke="#aaff00" stroke-width="2"/>
</g>
<g>
	<polygon points="141,79 147,85 138,88" fill="#aaff00"/>
	<line x1="157" y1="137" x2="143" y2="86" stroke="#aaff00" stroke-width="2"/>
</g>
<g>
	<polygon points="5,221 0,213 9,213" fill="#aaff00"/>
	<line x1="5" y1="161" x2="5" y2="214" stroke="#aaff00" stroke-width="2"/>
</g>
<g>
	<polygon points="61,109 58,117 52,110" fill="#aaff00"/>
	<line x1="5" y1="161" x2="56" y2="113" stroke="#aaff00" stroke-width="2"/>
</g>
<g>
	<polygon points="22,186 14,182 21,177" fill="#aaff00"/>
	<line x1="5" y1="161" x2="18" y2="180" stroke="#aaff00" stroke-width="2"/>
</g>
<g>
	<polygon points="85,81 83,89 77,83" fill="#aaff00"/>
	<line x1="5" y1="161" x2="80" y2="86" stroke="#aaff00" stroke-width="2"/>
</g>
<g>
	<polygon points="5,108 10,116 1,116" fill="#aaff00"/>
	<line x1="5" y1="161" x2="5" y2="115" stroke="#aaff00" stroke-width="2"/>
</g>
<g>
	<polygon points="81,272 73,268 80,263" fill="#aaff00"/>
	<line x1="5" y1="161" x2="77" y2="266" stroke="#aaff00" stroke-width="2"/>
</g>
<g>
	<polygon points="112,194 121,197 114,203" fill="#aaff00"/>
	<line x1="154" y1="247" x2="117" y2="200" stroke="#aaff00" stroke-width="2"/>
</g>
<g>
	<polygon points="88,274 93,267 97,275" fill="#aaff00"/>
	<line x1="154" y1="247" x2="94" y2="271" stroke="#aaff00" stroke-width="2"/>
</g>
<g>
	<polygon points="190,204 188,213 181,207" fill="#aaff00"/>
	<line x1="154" y1="247" x2="185" y2="209" stroke="#aaff00" stroke-width="2"/>
</g>
<g>
	<polygon points="154,290 150,282 159,282" fill="#aaff00"/>
	<line x1="154" y1="247" x2="154" y2="283" stroke="#aaff00" stroke-width="2"/>
</g>
<g>
	<polygon points="113,193 122,193 118,201" fill="#aaff00"/>
	<line x1="205" y1="249" x2="119" y2="197" stroke="#aaff00" stroke-width="2"/>
</g>
<g>
	<polygon points="222,290 215,285 223,281" fill="#aaff00"/>
	<line x1="205" y1="249" x2="219" y2="284" stroke="#aaff00" stroke-width="2"/>
</g>
<g>
	<polygon points="194,205 200,211 191,214" fill="#aaff00"/>
	<line x1="205" y1="249" x2="195" y2="212" stroke="#aaff00" stroke-width="2"/>
</g>
<g>
	<polygon points="158,247 166,242 166,251" fill="#aaff00"/>
	<line x1="205" y1="249" x2="165" y2="247" stroke="#aaff00" stroke-width="2"/>
</g>
<g>
	<polygon points="277,288 268,288 272,281" fill="#aaff00"/>
	<line x1="205" y1="249" x2="270" y2="285" stroke="#aaff00" stroke-width="2"/>
</g>
<g>
	<polygon points="69,105 76,99 77,108" fill="#aaff00"/>
	<line x1="112" y1="98" x2="76" y2="104" stroke="#aaff00" stroke-width="2"/>
</g>
<g>
	<polygon points="120,120 113,115 121,111" fill="#aaff00"/>
	<line x1="112" y1="98" x2="117" y2="114" stroke="#aaff00" stroke-width="2"/>
</g>
<g>
	<polygon points="92,80 101,82 95,89" fill="#aaff00"/>
	<line x1="112" y1="98" x2="97" y2="85" stroke="#aaff00" stroke-width="2"/>
</g>
<g>
	<polygon points="69,104 74,97 78,105" fill="#aaff00"/>
	<line x1="140" y1="75" x2="75" y2="101" stroke="#aaff00" stroke-width="2"/>
</g>
<g>
	<polygon points="128,12 134,19 125,20" fill="#aaff00"/>
	<line x1="140" y1="75" x2="130" y2="19" stroke="#aaff00" stroke-width="2"/>
</g>
<g>
	<polygon points="93,77 101,72 101,81" fill="#aaff00"/>
	<line x1="140" y1="75" x2="100" y2="77" stroke="#aaff00" stroke-width="2"/>
</g>
<g>
	<polygon points="67,109 74,114 66,118" fill="#aaff00"/>
	<line x1="94" y1="159" x2="70" y2="116" stroke="#aaff00" stroke-width="2"/>
</g>
<g>
	<polygon points="107,186 100,182 108,177" fill="#aaff00"/>
	<line x1="94" y1="159" x2="104" y2="180" stroke="#aaff00" stroke-width="2"/>
</g>
<g>
	<polygon points="119,128 117,137 110,131" fill="#aaff00"/>
	<line x1="94" y1="159" x2="114" y2="134" stroke="#aaff00" stroke-width="2"/>
</g>
<g>
	<polygon points="119,128 119,137 112,133" fill="#aaff00"/>
	<line x1="58" y1="238" x2="116" y2="135" stroke="#aaff00" stroke-width="2"/>
</g>
<g>
	<polygon points="372,49 371,40 379,44" fill="#aaff00"/>
	<line x1="395" y1="5" x2="375" y2="42" stroke="#aaff00" stroke-width="2"/>
</g>
<g>
	<polygon points="273,171 274,162 281,167" fill="#aaff00"/>
	<line x1="302" y1="132" x2="277" y2="165" stroke="#aaff00" stroke-width="2"/>
</g>
<g>
	<polygon points="382,193 373,192 378,184" fill="#aaff00"/>
	<line x1="302" y1="132" x2="376" y2="188" stroke="#aaff00" stroke-width="2"/>
</g>
<g>
	<polygon points="347,147 338,149 341,140" fill="#aaff00"/>
	<line x1="302" y1="132" x2="340" y2="145" stroke="#aaff00" stroke-width="2"/>
</g>
<g>
	<polygon points="367,56 365,65 358,59" fill="#aaff00"/>
	<line x1="302" y1="132" x2="362" y2="61" stroke="#aaff00" stroke-width="2"/>
</g>
<g>
	<polygon points="328,93 327,102 320,97" fill="#aaff00"/>
	<line x1="302" y1="132" x2="324" y2="99" stroke="#aaff00" stroke-width="2"/>
</g>
<g>
	<polygon points="390,121 383,126 382,117" fill="#aaff00"/>
	<line x1="302" y1="132" x2="383" y2="122" stroke="#aaff00" stroke-width="2"/>
</g>
<g>
	<polygon points="259,102 268,103 263,110" fill="#aaff00"/>
	<line x1="302" y1="132" x2="265" y2="106" stroke="#aaff00" stroke-width="2"/>
</g>
<g>
	<polygon points="292,49 297,56 288,57" fill="#aaff00"/>
	<line x1="302" y1="132" x2="293" y2="56" stroke="#aaff00" stroke-width="2"/>
</g>
<g>
	<polygon points="321,203 315,197 324,194" fill="#aaff00"/>
	<line x1="302" y1="132" x2="319" y2="196" stroke="#aaff00" stroke-width="2"/>
</g>

<g fill="#000000">
	<circle cx="4" cy="225" r="4"/>
</g>
<g fill="#000000">
	<circle cx="129" cy="166" r="4"/>
</g>
<g fill="#000000">
	<circle cx="64" cy="105" r="4"/>
</g>
<g fill="#000000">
	<circle cx="109" cy="190" r="4"/>
</g>
<g fill="#000000">
	<circle cx="121" cy="124" r="4"/>
</g>
<g fill="#000000">
	<circle cx="103" cy="231" r="4"/>
</g>
<g fill="#000000">
	<circle cx="24" cy="189" r="4"/>
</g>
<g fill="#000000">
	<circle cx="68" cy="189" r="4"/>
</g>
<g fill="#000000">
	<circle cx="12" cy="51" r="4"/>
</g>
<g fill="#000000">
	<circle cx="4" cy="4" r="4"/>
</g>
<g fill="#000000">
	<circle cx="64" cy="4" r="4"/>
</g>
<g fill="#000000">
	<circle cx="127" cy="7" r="4"/>
</g>
<g fill="#000000">
	<circle cx="88" cy="77" r="4"/>
</g>
<g fill="#000000">
	<circle cx="99" cy="38" r="4"/>
</g>
<g fill="#000000">
	<circle cx="5" cy="103" r="4"/>
</g>
<g fill="#000000">
	<circle cx="39" cy="47" r="4"/>
</g>
<g fill="#000000">
	<circle cx="68" cy="52" r="4"/>
</g>
<g fill="#000000">
	<circle cx="163" cy="8" r="4"/>
</g>
<g fill="#000000">
	<circle cx="74" cy="139" r="4"/>
</g>
<g fill="#000000">
	<circle cx="93" cy="158" r="4"/>
</g>
<g fill="#000000">
	<circle cx="301" cy="131" r="4"/>
</g>
<g fill="#000000">
	<circle cx="4" cy="160" r="4"/>
</g>
<g fill="#000000">
	<circle cx="83" cy="275" r="4"/>
</g>
<g fill="#000000">
	<circle cx="223" cy="294" r="4"/>
</g>
<g fill="#000000">
	<circle cx="192" cy="200" r="4"/>
</g>
<g fill="#000000">
	<circle cx="156" cy="136" r="4"/>
</g>
<g fill="#000000">
	<circle cx="111" cy="97" r="4"/>
</g>
<g fill="#000000">
	<circle cx="139" cy="74" r="4"/>
</g>
<g fill="#000000">
	<circle cx="270" cy="174" r="4"/>
</g>
<g fill="#000000">
	<circle cx="57" cy="237" r="4"/>
</g>
<g fill="#000000">
	<circle cx="385" cy="195" r="4"/>
</g>
<g fill="#000000">
	<circle cx="153" cy="246" r="4"/>
</g>
<g fill="#000000">
	<circle cx="154" cy="294" r="4"/>
</g>
<g fill="#000000">
	<circle cx="351" cy="148" r="4"/>
</g>
<g fill="#000000">
	<circle cx="280" cy="290" r="4"/>
</g>
<g fill="#000000">
	<circle cx="132" cy="36" r="4"/>
</g>
<g fill="#000000">
	<circle cx="369" cy="52" r="4"/>
</g>
<g fill="#000000">
	<circle cx="204" cy="248" r="4"/>
</g>
<g fill="#000000">
	<circle cx="330" cy="89" r="4"/>
</g>
<g fill="#000000">
	<circle cx="394" cy="4" r="4"/>
</g>
<g fill="#000000">
	<circle cx="394" cy="120" r="4"/>
</g>
<g fill="#000000">
	<circle cx="255" cy="99" r="4"/>
</g>
<g fill="#000000">
	<circle cx="291" cy="44" r="4"/>
</g>
<g fill="#000000">
	<circle cx="322" cy="207" r="4"/>
</g>

</g>

</svg>
