<?xml version="1.0" encoding="utf-8"?>
<!-- Created with Hypercube (http://tumic.wz.cz/hypercube) -->

<svg width="400" height="300" viewBox="0 0 400 300" xmlns="http://www.w3.org/2000/svg" baseProfile="tiny">

<g font-family="Helvetica" font-weight="normal">

<g>
	<polygon points="202,163 193,161 199,154" fill="#aaff00"/>
	<line x1="181" y1="144" x2="197" y2="158" stroke="#aaff00" stroke-width="2"/>
</g>
<g>
	<polygon points="181,189 177,181 186,181" fill="#aaff00"/>
	<line x1="181" y1="144" x2="181" y2="182" stroke="#aaff00" stroke-width="2"/>
</g>
<g>
	<polygon points="230,187 221,185 227,178" fill="#aaff00"/>
	<line x1="181" y1="144" x2="225" y2="182" stroke="#aaff00" stroke-width="2"/>
</g>
<g>
	<polygon points="155,218 153,209 162,212" fill="#aaff00"/>
	<line x1="181" y1="144" x2="157" y2="211" stroke="#aaff00" stroke-width="2"/>
</g>
<g>
	<polygon points="184,190 186,181 193,187" fill="#aaff00"/>
	<line x1="206" y1="166" x2="189" y2="185" stroke="#aaff00" stroke-width="2"/>
</g>
<g>
	<polygon points="230,187 221,185 227,178" fill="#aaff00"/>
	<line x1="206" y1="166" x2="225" y2="182" stroke="#aaff00" stroke-width="2"/>
</g>
<g>
	<polygon points="157,219 158,210 165,216" fill="#aaff00"/>
	<line x1="206" y1="166" x2="161" y2="214" stroke="#aaff00" stroke-width="2"/>
</g>
<g>
	<polygon points="229,190 222,195 221,186" fill="#aaff00"/>
	<line x1="182" y1="194" x2="222" y2="190" stroke="#aaff00" stroke-width="2"/>
</g>
<g>
	<polygon points="157,219 159,211 165,217" fill="#aaff00"/>
	<line x1="182" y1="194" x2="162" y2="214" stroke="#aaff00" stroke-width="2"/>
</g>
<g>
	<polygon points="207,213 198,212 203,204" fill="#aaff00"/>
	<line x1="182" y1="194" x2="201" y2="208" stroke="#aaff00" stroke-width="2"/>
</g>
<g>
	<polygon points="158,221 163,214 167,222" fill="#aaff00"/>
	<line x1="234" y1="190" x2="164" y2="218" stroke="#aaff00" stroke-width="2"/>
</g>
<g>
	<polygon points="213,212 215,203 222,209" fill="#aaff00"/>
	<line x1="234" y1="190" x2="218" y2="207" stroke="#aaff00" stroke-width="2"/>
</g>
<g>
	<polygon points="186,244 188,235 195,241" fill="#aaff00"/>
	<line x1="234" y1="190" x2="191" y2="239" stroke="#aaff00" stroke-width="2"/>
</g>
<g>
	<polygon points="180,245 171,243 177,236" fill="#aaff00"/>
	<line x1="154" y1="223" x2="175" y2="240" stroke="#aaff00" stroke-width="2"/>
</g>
<g>
	<polygon points="42,244 49,238 50,247" fill="#aaff00"/>
	<line x1="154" y1="223" x2="49" y2="242" stroke="#aaff00" stroke-width="2"/>
</g>
<g>
	<polygon points="219,255 210,255 214,247" fill="#aaff00"/>
	<line x1="154" y1="223" x2="213" y2="251" stroke="#aaff00" stroke-width="2"/>
</g>
<g>
	<polygon points="207,290 198,287 205,281" fill="#aaff00"/>
	<line x1="154" y1="223" x2="202" y2="284" stroke="#aaff00" stroke-width="2"/>
</g>
<g>
	<polygon points="261,234 253,238 254,229" fill="#aaff00"/>
	<line x1="154" y1="223" x2="254" y2="233" stroke="#aaff00" stroke-width="2"/>
</g>
<g>
	<polygon points="127,163 135,168 126,172" fill="#aaff00"/>
	<line x1="154" y1="223" x2="130" y2="169" stroke="#aaff00" stroke-width="2"/>
</g>
<g>
	<polygon points="74,204 82,202 80,211" fill="#aaff00"/>
	<line x1="154" y1="223" x2="81" y2="206" stroke="#aaff00" stroke-width="2"/>
</g>
<g>
	<polygon points="106,288 107,279 114,284" fill="#aaff00"/>
	<line x1="154" y1="223" x2="110" y2="282" stroke="#aaff00" stroke-width="2"/>
</g>
<g>
	<polygon points="167,279 161,273 170,270" fill="#aaff00"/>
	<line x1="154" y1="223" x2="166" y2="272" stroke="#aaff00" stroke-width="2"/>
</g>
<g>
	<polygon points="93,248 98,241 102,249" fill="#aaff00"/>
	<line x1="154" y1="223" x2="99" y2="245" stroke="#aaff00" stroke-width="2"/>
</g>
<g>
	<polygon points="135,255 135,246 143,250" fill="#aaff00"/>
	<line x1="154" y1="223" x2="138" y2="248" stroke="#aaff00" stroke-width="2"/>
</g>
<g>
	<polygon points="121,206 129,205 125,213" fill="#aaff00"/>
	<line x1="154" y1="223" x2="127" y2="209" stroke="#aaff00" stroke-width="2"/>
</g>
<g>
	<polygon points="219,256 211,258 212,249" fill="#aaff00"/>
	<line x1="184" y1="248" x2="212" y2="254" stroke="#aaff00" stroke-width="2"/>
</g>
<g>
	<polygon points="207,290 200,285 207,281" fill="#aaff00"/>
	<line x1="184" y1="248" x2="204" y2="283" stroke="#aaff00" stroke-width="2"/>
</g>
<g>
	<polygon points="158,222 165,217 166,225" fill="#aaff00"/>
	<line x1="211" y1="216" x2="165" y2="221" stroke="#aaff00" stroke-width="2"/>
</g>
<g>
	<polygon points="222,252 215,246 224,243" fill="#aaff00"/>
	<line x1="211" y1="216" x2="220" y2="245" stroke="#aaff00" stroke-width="2"/>
</g>
<g>
	<polygon points="227,254 232,247 236,255" fill="#aaff00"/>
	<line x1="266" y1="235" x2="234" y2="251" stroke="#aaff00" stroke-width="2"/>
</g>
<g>
	<polygon points="262,238 260,247 254,240" fill="#aaff00"/>
	<line x1="210" y1="294" x2="257" y2="243" stroke="#aaff00" stroke-width="2"/>
</g>
<g>
	<polygon points="267,230 266,221 275,225" fill="#aaff00"/>
	<line x1="324" y1="106" x2="270" y2="224" stroke="#aaff00" stroke-width="2"/>
</g>
<g>
	<polygon points="357,125 348,125 352,117" fill="#aaff00"/>
	<line x1="324" y1="106" x2="350" y2="122" stroke="#aaff00" stroke-width="2"/>
</g>
<g>
	<polygon points="381,68 383,77 374,74" fill="#aaff00"/>
	<line x1="361" y1="128" x2="379" y2="75" stroke="#aaff00" stroke-width="2"/>
</g>
<g>
	<polygon points="373,9 379,16 370,17" fill="#aaff00"/>
	<line x1="383" y1="64" x2="374" y2="16" stroke="#aaff00" stroke-width="2"/>
</g>
<g>
	<polygon points="315,5 323,0 323,9" fill="#aaff00"/>
	<line x1="373" y1="5" x2="322" y2="5" stroke="#aaff00" stroke-width="2"/>
</g>
<g>
	<polygon points="243,18 234,19 238,11" fill="#aaff00"/>
	<line x1="208" y1="5" x2="237" y2="15" stroke="#aaff00" stroke-width="2"/>
</g>
<g>
	<polygon points="306,5 298,9 298,0" fill="#aaff00"/>
	<line x1="208" y1="5" x2="299" y2="5" stroke="#aaff00" stroke-width="2"/>
</g>
<g>
	<polygon points="151,90 155,82 160,89" fill="#aaff00"/>
	<line x1="248" y1="20" x2="157" y2="86" stroke="#aaff00" stroke-width="2"/>
</g>
<g>
	<polygon points="321,102 312,99 319,93" fill="#aaff00"/>
	<line x1="248" y1="20" x2="316" y2="97" stroke="#aaff00" stroke-width="2"/>
</g>
<g>
	<polygon points="144,95 139,103 135,95" fill="#aaff00"/>
	<line x1="19" y1="174" x2="138" y2="99" stroke="#aaff00" stroke-width="2"/>
</g>
<g>
	<polygon points="253,294 245,299 245,290" fill="#aaff00"/>
	<line x1="50" y1="291" x2="246" y2="294" stroke="#aaff00" stroke-width="2"/>
</g>
<g>
	<polygon points="20,178 26,184 17,187" fill="#aaff00"/>
	<line x1="50" y1="291" x2="21" y2="185" stroke="#aaff00" stroke-width="2"/>
</g>
<g>
	<polygon points="273,182 276,190 267,189" fill="#aaff00"/>
	<line x1="258" y1="295" x2="272" y2="189" stroke="#aaff00" stroke-width="2"/>
</g>
<g>
	<polygon points="319,295 311,299 311,290" fill="#aaff00"/>
	<line x1="258" y1="295" x2="312" y2="295" stroke="#aaff00" stroke-width="2"/>
</g>
<g>
	<polygon points="151,95 160,96 155,103" fill="#aaff00"/>
	<line x1="274" y1="178" x2="157" y2="99" stroke="#aaff00" stroke-width="2"/>
</g>
<g>
	<polygon points="274,122 279,130 270,130" fill="#aaff00"/>
	<line x1="274" y1="178" x2="274" y2="129" stroke="#aaff00" stroke-width="2"/>
</g>
<g>
	<polygon points="130,157 136,151 139,160" fill="#aaff00"/>
	<line x1="275" y1="118" x2="137" y2="155" stroke="#aaff00" stroke-width="2"/>
</g>
<g>
	<polygon points="248,88 257,91 250,97" fill="#aaff00"/>
	<line x1="275" y1="118" x2="253" y2="93" stroke="#aaff00" stroke-width="2"/>
</g>
<g>
	<polygon points="356,127 348,131 349,122" fill="#aaff00"/>
	<line x1="275" y1="118" x2="349" y2="126" stroke="#aaff00" stroke-width="2"/>
</g>
<g>
	<polygon points="73,201 76,192 82,199" fill="#aaff00"/>
	<line x1="126" y1="159" x2="79" y2="196" stroke="#aaff00" stroke-width="2"/>
</g>
<g>
	<polygon points="117,199 114,191 123,192" fill="#aaff00"/>
	<line x1="126" y1="159" x2="119" y2="192" stroke="#aaff00" stroke-width="2"/>
</g>
<g>
	<polygon points="102,287 95,282 103,278" fill="#aaff00"/>
	<line x1="70" y1="204" x2="99" y2="281" stroke="#aaff00" stroke-width="2"/>
</g>
<g>
	<polygon points="164,284 157,289 156,281" fill="#aaff00"/>
	<line x1="104" y1="292" x2="157" y2="285" stroke="#aaff00" stroke-width="2"/>
</g>
<g>
	<polygon points="90,254 97,260 88,263" fill="#aaff00"/>
	<line x1="104" y1="292" x2="92" y2="261" stroke="#aaff00" stroke-width="2"/>
</g>
<g>
	<polygon points="219,258 214,266 210,258" fill="#aaff00"/>
	<line x1="169" y1="284" x2="213" y2="262" stroke="#aaff00" stroke-width="2"/>
</g>
<g>
	<polygon points="136,261 145,262 140,269" fill="#aaff00"/>
	<line x1="169" y1="284" x2="142" y2="265" stroke="#aaff00" stroke-width="2"/>
</g>
<g>
	<polygon points="118,208 124,214 116,217" fill="#aaff00"/>
	<line x1="133" y1="259" x2="120" y2="215" stroke="#aaff00" stroke-width="2"/>
</g>
<g>
	<polygon points="180,245 171,245 176,237" fill="#aaff00"/>
	<line x1="117" y1="204" x2="174" y2="241" stroke="#aaff00" stroke-width="2"/>
</g>
<g>
	<polygon points="356,129 351,136 347,128" fill="#aaff00"/>
	<line x1="304" y1="150" x2="350" y2="132" stroke="#aaff00" stroke-width="2"/>
</g>
<g>
	<polygon points="172,280 174,272 180,278" fill="#aaff00"/>
	<line x1="304" y1="150" x2="177" y2="275" stroke="#aaff00" stroke-width="2"/>
</g>
<g>
	<polygon points="291,73 297,80 288,81" fill="#aaff00"/>
	<line x1="304" y1="150" x2="292" y2="80" stroke="#aaff00" stroke-width="2"/>
</g>
<g>
	<polygon points="98,94 106,90 106,99" fill="#aaff00"/>
	<line x1="198" y1="92" x2="105" y2="94" stroke="#aaff00" stroke-width="2"/>
</g>
<g>
	<polygon points="286,70 280,76 277,67" fill="#aaff00"/>
	<line x1="198" y1="92" x2="279" y2="71" stroke="#aaff00" stroke-width="2"/>
</g>
<g>
	<polygon points="72,58 80,63 72,67" fill="#aaff00"/>
	<line x1="94" y1="95" x2="76" y2="65" stroke="#aaff00" stroke-width="2"/>
</g>
<g>
	<polygon points="143,91 134,91 138,83" fill="#aaff00"/>
	<line x1="70" y1="55" x2="137" y2="87" stroke="#aaff00" stroke-width="2"/>
</g>
<g>
	<polygon points="76,9 79,17 70,16" fill="#aaff00"/>
	<line x1="70" y1="55" x2="75" y2="16" stroke="#aaff00" stroke-width="2"/>
</g>
<g>
	<polygon points="203,5 195,9 195,0" fill="#aaff00"/>
	<line x1="77" y1="5" x2="196" y2="5" stroke="#aaff00" stroke-width="2"/>
</g>
<g>
	<polygon points="111,5 103,10 103,1" fill="#aaff00"/>
	<line x1="77" y1="5" x2="104" y2="5" stroke="#aaff00" stroke-width="2"/>
</g>
<g>
	<polygon points="158,6 150,10 150,1" fill="#aaff00"/>
	<line x1="116" y1="6" x2="151" y2="6" stroke="#aaff00" stroke-width="2"/>
</g>
<g>
	<polygon points="243,19 235,22 236,13" fill="#aaff00"/>
	<line x1="163" y1="6" x2="236" y2="18" stroke="#aaff00" stroke-width="2"/>
</g>
<g>
	<polygon points="158,40 155,32 164,33" fill="#aaff00"/>
	<line x1="163" y1="6" x2="159" y2="33" stroke="#aaff00" stroke-width="2"/>
</g>
<g>
	<polygon points="212,51 204,55 205,46" fill="#aaff00"/>
	<line x1="158" y1="45" x2="205" y2="50" stroke="#aaff00" stroke-width="2"/>
</g>
<g>
	<polygon points="151,90 156,82 160,90" fill="#aaff00"/>
	<line x1="217" y1="52" x2="158" y2="87" stroke="#aaff00" stroke-width="2"/>
</g>
<g>
	<polygon points="301,146 292,143 299,137" fill="#aaff00"/>
	<line x1="217" y1="52" x2="296" y2="141" stroke="#aaff00" stroke-width="2"/>
</g>
<g>
	<polygon points="202,91 209,85 210,94" fill="#aaff00"/>
	<line x1="246" y1="85" x2="209" y2="90" stroke="#aaff00" stroke-width="2"/>
</g>
<g>
	<polygon points="234,123 232,114 240,117" fill="#aaff00"/>
	<line x1="246" y1="85" x2="236" y2="116" stroke="#aaff00" stroke-width="2"/>
</g>
<g>
	<polygon points="264,230 258,224 266,221" fill="#aaff00"/>
	<line x1="233" y1="128" x2="262" y2="223" stroke="#aaff00" stroke-width="2"/>
</g>
<g>
	<polygon points="201,95 209,97 203,103" fill="#aaff00"/>
	<line x1="233" y1="128" x2="206" y2="100" stroke="#aaff00" stroke-width="2"/>
</g>
<g>
	<polygon points="48,286 42,280 51,277" fill="#aaff00"/>
	<line x1="38" y1="245" x2="47" y2="279" stroke="#aaff00" stroke-width="2"/>
</g>

<g fill="#000000">
	<circle cx="180" cy="143" r="4"/>
</g>
<g fill="#000000">
	<circle cx="205" cy="165" r="4"/>
</g>
<g fill="#000000">
	<circle cx="181" cy="193" r="4"/>
</g>
<g fill="#000000">
	<circle cx="233" cy="189" r="4"/>
</g>
<g fill="#000000">
	<circle cx="153" cy="222" r="4"/>
</g>
<g fill="#000000">
	<circle cx="210" cy="215" r="4"/>
</g>
<g fill="#000000">
	<circle cx="183" cy="247" r="4"/>
</g>
<g fill="#000000">
	<circle cx="37" cy="244" r="4"/>
</g>
<g fill="#000000">
	<circle cx="223" cy="256" r="4"/>
</g>
<g fill="#000000">
	<circle cx="209" cy="293" r="4"/>
</g>
<g fill="#000000">
	<circle cx="49" cy="290" r="4"/>
</g>
<g fill="#000000">
	<circle cx="265" cy="234" r="4"/>
</g>
<g fill="#000000">
	<circle cx="257" cy="294" r="4"/>
</g>
<g fill="#000000">
	<circle cx="18" cy="173" r="4"/>
</g>
<g fill="#000000">
	<circle cx="273" cy="177" r="4"/>
</g>
<g fill="#000000">
	<circle cx="323" cy="294" r="4"/>
</g>
<g fill="#000000">
	<circle cx="147" cy="92" r="4"/>
</g>
<g fill="#000000">
	<circle cx="274" cy="117" r="4"/>
</g>
<g fill="#000000">
	<circle cx="125" cy="158" r="4"/>
</g>
<g fill="#000000">
	<circle cx="245" cy="84" r="4"/>
</g>
<g fill="#000000">
	<circle cx="360" cy="127" r="4"/>
</g>
<g fill="#000000">
	<circle cx="207" cy="4" r="4"/>
</g>
<g fill="#000000">
	<circle cx="247" cy="19" r="4"/>
</g>
<g fill="#000000">
	<circle cx="323" cy="105" r="4"/>
</g>
<g fill="#000000">
	<circle cx="69" cy="203" r="4"/>
</g>
<g fill="#000000">
	<circle cx="197" cy="91" r="4"/>
</g>
<g fill="#000000">
	<circle cx="232" cy="127" r="4"/>
</g>
<g fill="#000000">
	<circle cx="382" cy="63" r="4"/>
</g>
<g fill="#000000">
	<circle cx="103" cy="291" r="4"/>
</g>
<g fill="#000000">
	<circle cx="93" cy="94" r="4"/>
</g>
<g fill="#000000">
	<circle cx="372" cy="4" r="4"/>
</g>
<g fill="#000000">
	<circle cx="168" cy="283" r="4"/>
</g>
<g fill="#000000">
	<circle cx="88" cy="249" r="4"/>
</g>
<g fill="#000000">
	<circle cx="69" cy="54" r="4"/>
</g>
<g fill="#000000">
	<circle cx="310" cy="4" r="4"/>
</g>
<g fill="#000000">
	<circle cx="132" cy="258" r="4"/>
</g>
<g fill="#000000">
	<circle cx="76" cy="4" r="4"/>
</g>
<g fill="#000000">
	<circle cx="116" cy="203" r="4"/>
</g>
<g fill="#000000">
	<circle cx="115" cy="5" r="4"/>
</g>
<g fill="#000000">
	<circle cx="162" cy="5" r="4"/>
</g>
<g fill="#000000">
	<circle cx="157" cy="44" r="4"/>
</g>
<g fill="#000000">
	<circle cx="216" cy="51" r="4"/>
</g>
<g fill="#000000">
	<circle cx="303" cy="149" r="4"/>
</g>
<g fill="#000000">
	<circle cx="290" cy="68" r="4"/>
</g>

</g>

</svg>
