<?xml version="1.0" encoding="utf-8"?>
<!-- Created with Hypercube (http://tumic.wz.cz/hypercube) -->

<svg width="400" height="300" viewBox="0 0 400 300" xmlns="http://www.w3.org/2000/svg" baseProfile="tiny">

<g font-family="Helvetica" font-weight="normal">

<g>
	<polygon points="233,209 229,217 224,209" fill="#aaff00"/>
	<line x1="176" y1="246" x2="227" y2="213" stroke="#aaff00" stroke-width="2"/>
</g>
<g>
	<polygon points="216,246 208,251 208,242" fill="#aaff00"/>
	<line x1="176" y1="246" x2="209" y2="246" stroke="#aaff00" stroke-width="2"/>
</g>
<g>
	<polygon points="275,178 271,186 266,179" fill="#aaff00"/>
	<line x1="237" y1="207" x2="269" y2="182" stroke="#aaff00" stroke-width="2"/>
</g>
<g>
	<polygon points="203,290 202,281 210,285" fill="#aaff00"/>
	<line x1="237" y1="207" x2="206" y2="284" stroke="#aaff00" stroke-width="2"/>
</g>
<g>
	<polygon points="149,295 157,290 157,299" fill="#aaff00"/>
	<line x1="202" y1="295" x2="156" y2="295" stroke="#aaff00" stroke-width="2"/>
</g>
<g>
	<polygon points="233,203 225,200 232,194" fill="#aaff00"/>
	<line x1="188" y1="153" x2="229" y2="198" stroke="#aaff00" stroke-width="2"/>
</g>
<g>
	<polygon points="121,154 129,150 129,159" fill="#aaff00"/>
	<line x1="188" y1="153" x2="128" y2="154" stroke="#aaff00" stroke-width="2"/>
</g>
<g>
	<polygon points="227,120 224,129 218,122" fill="#aaff00"/>
	<line x1="188" y1="153" x2="221" y2="125" stroke="#aaff00" stroke-width="2"/>
</g>
<g>
	<polygon points="64,138 73,136 70,144" fill="#aaff00"/>
	<line x1="117" y1="155" x2="71" y2="140" stroke="#aaff00" stroke-width="2"/>
</g>
<g>
	<polygon points="9,161 14,153 18,161" fill="#aaff00"/>
	<line x1="60" y1="137" x2="15" y2="158" stroke="#aaff00" stroke-width="2"/>
</g>
<g>
	<polygon points="48,76 54,83 45,84" fill="#aaff00"/>
	<line x1="60" y1="137" x2="50" y2="83" stroke="#aaff00" stroke-width="2"/>
</g>
<g>
	<polygon points="18,203 11,197 20,194" fill="#aaff00"/>
	<line x1="5" y1="163" x2="16" y2="196" stroke="#aaff00" stroke-width="2"/>
</g>
<g>
	<polygon points="6,246 4,237 13,240" fill="#aaff00"/>
	<line x1="20" y1="208" x2="8" y2="239" stroke="#aaff00" stroke-width="2"/>
</g>
<g>
	<polygon points="61,239 52,238 57,230" fill="#aaff00"/>
	<line x1="20" y1="208" x2="55" y2="234" stroke="#aaff00" stroke-width="2"/>
</g>
<g>
	<polygon points="5,290 0,282 9,282" fill="#aaff00"/>
	<line x1="5" y1="251" x2="5" y2="283" stroke="#aaff00" stroke-width="2"/>
</g>
<g>
	<polygon points="72,290 66,283 75,282" fill="#aaff00"/>
	<line x1="65" y1="242" x2="71" y2="283" stroke="#aaff00" stroke-width="2"/>
</g>
<g>
	<polygon points="16,9 23,13 15,17" fill="#aaff00"/>
	<line x1="48" y1="72" x2="19" y2="15" stroke="#aaff00" stroke-width="2"/>
</g>
<g>
	<polygon points="58,5 50,9 50,0" fill="#aaff00"/>
	<line x1="14" y1="5" x2="51" y2="5" stroke="#aaff00" stroke-width="2"/>
</g>
<g>
	<polygon points="5,44 3,36 11,37" fill="#aaff00"/>
	<line x1="14" y1="5" x2="7" y2="37" stroke="#aaff00" stroke-width="2"/>
</g>
<g>
	<polygon points="110,5 102,9 102,0" fill="#aaff00"/>
	<line x1="63" y1="5" x2="103" y2="5" stroke="#aaff00" stroke-width="2"/>
</g>
<g>
	<polygon points="106,48 103,40 112,41" fill="#aaff00"/>
	<line x1="115" y1="5" x2="108" y2="41" stroke="#aaff00" stroke-width="2"/>
</g>
<g>
	<polygon points="154,20 145,21 149,13" fill="#aaff00"/>
	<line x1="115" y1="5" x2="148" y2="17" stroke="#aaff00" stroke-width="2"/>
</g>
<g>
	<polygon points="130,89 122,85 129,80" fill="#aaff00"/>
	<line x1="106" y1="53" x2="126" y2="83" stroke="#aaff00" stroke-width="2"/>
</g>
<g>
	<polygon points="192,59 184,56 191,50" fill="#aaff00"/>
	<line x1="159" y1="22" x2="188" y2="54" stroke="#aaff00" stroke-width="2"/>
</g>
<g>
	<polygon points="5,94 0,86 9,86" fill="#aaff00"/>
	<line x1="5" y1="49" x2="5" y2="87" stroke="#aaff00" stroke-width="2"/>
</g>
<g>
	<polygon points="186,157 188,166 180,163" fill="#aaff00"/>
	<line x1="175" y1="195" x2="184" y2="164" stroke="#aaff00" stroke-width="2"/>
</g>
<g>
	<polygon points="177,198 186,201 179,207" fill="#aaff00"/>
	<line x1="221" y1="247" x2="182" y2="203" stroke="#aaff00" stroke-width="2"/>
</g>
<g>
	<polygon points="299,246 291,250 291,241" fill="#aaff00"/>
	<line x1="221" y1="247" x2="292" y2="246" stroke="#aaff00" stroke-width="2"/>
</g>
<g>
	<polygon points="350,241 343,246 342,237" fill="#aaff00"/>
	<line x1="304" y1="246" x2="343" y2="242" stroke="#aaff00" stroke-width="2"/>
</g>
<g>
	<polygon points="351,291 343,289 349,283" fill="#aaff00"/>
	<line x1="304" y1="246" x2="346" y2="286" stroke="#aaff00" stroke-width="2"/>
</g>
<g>
	<polygon points="391,208 388,217 382,210" fill="#aaff00"/>
	<line x1="355" y1="241" x2="386" y2="213" stroke="#aaff00" stroke-width="2"/>
</g>
<g>
	<polygon points="313,291 315,282 322,288" fill="#aaff00"/>
	<line x1="355" y1="241" x2="318" y2="285" stroke="#aaff00" stroke-width="2"/>
</g>
<g>
	<polygon points="395,113 399,121 390,121" fill="#aaff00"/>
	<line x1="395" y1="206" x2="395" y2="120" stroke="#aaff00" stroke-width="2"/>
</g>
<g>
	<polygon points="395,56 399,64 390,64" fill="#aaff00"/>
	<line x1="395" y1="109" x2="395" y2="63" stroke="#aaff00" stroke-width="2"/>
</g>
<g>
	<polygon points="346,96 355,93 352,102" fill="#aaff00"/>
	<line x1="395" y1="109" x2="353" y2="97" stroke="#aaff00" stroke-width="2"/>
</g>
<g>
	<polygon points="355,8 363,11 356,17" fill="#aaff00"/>
	<line x1="395" y1="52" x2="359" y2="13" stroke="#aaff00" stroke-width="2"/>
</g>
<g>
	<polygon points="395,9 399,17 390,17" fill="#aaff00"/>
	<line x1="395" y1="52" x2="395" y2="16" stroke="#aaff00" stroke-width="2"/>
</g>
<g>
	<polygon points="309,5 317,0 317,9" fill="#aaff00"/>
	<line x1="352" y1="5" x2="316" y2="5" stroke="#aaff00" stroke-width="2"/>
</g>
<g>
	<polygon points="305,54 300,46 309,46" fill="#aaff00"/>
	<line x1="305" y1="5" x2="305" y2="47" stroke="#aaff00" stroke-width="2"/>
</g>
<g>
	<polygon points="261,5 269,0 269,9" fill="#aaff00"/>
	<line x1="305" y1="5" x2="268" y2="5" stroke="#aaff00" stroke-width="2"/>
</g>
<g>
	<polygon points="344,142 339,134 348,134" fill="#aaff00"/>
	<line x1="342" y1="95" x2="344" y2="135" stroke="#aaff00" stroke-width="2"/>
</g>
<g>
	<polygon points="308,62 316,64 310,70" fill="#aaff00"/>
	<line x1="342" y1="95" x2="313" y2="67" stroke="#aaff00" stroke-width="2"/>
</g>
<g>
	<polygon points="389,157 381,159 382,150" fill="#aaff00"/>
	<line x1="345" y1="147" x2="382" y2="155" stroke="#aaff00" stroke-width="2"/>
</g>
<g>
	<polygon points="216,5 224,0 224,9" fill="#aaff00"/>
	<line x1="257" y1="5" x2="223" y2="5" stroke="#aaff00" stroke-width="2"/>
</g>
<g>
	<polygon points="267,295 275,290 275,299" fill="#aaff00"/>
	<line x1="311" y1="295" x2="274" y2="295" stroke="#aaff00" stroke-width="2"/>
</g>
<g>
	<polygon points="390,295 382,299 382,290" fill="#aaff00"/>
	<line x1="355" y1="295" x2="383" y2="295" stroke="#aaff00" stroke-width="2"/>
</g>

<g fill="#000000">
	<circle cx="175" cy="245" r="4"/>
</g>
<g fill="#000000">
	<circle cx="236" cy="206" r="4"/>
</g>
<g fill="#000000">
	<circle cx="220" cy="246" r="4"/>
</g>
<g fill="#000000">
	<circle cx="278" cy="175" r="4"/>
</g>
<g fill="#000000">
	<circle cx="201" cy="294" r="4"/>
</g>
<g fill="#000000">
	<circle cx="174" cy="194" r="4"/>
</g>
<g fill="#000000">
	<circle cx="303" cy="245" r="4"/>
</g>
<g fill="#000000">
	<circle cx="187" cy="152" r="4"/>
</g>
<g fill="#000000">
	<circle cx="116" cy="154" r="4"/>
</g>
<g fill="#000000">
	<circle cx="230" cy="117" r="4"/>
</g>
<g fill="#000000">
	<circle cx="144" cy="294" r="4"/>
</g>
<g fill="#000000">
	<circle cx="59" cy="136" r="4"/>
</g>
<g fill="#000000">
	<circle cx="4" cy="162" r="4"/>
</g>
<g fill="#000000">
	<circle cx="47" cy="71" r="4"/>
</g>
<g fill="#000000">
	<circle cx="19" cy="207" r="4"/>
</g>
<g fill="#000000">
	<circle cx="4" cy="250" r="4"/>
</g>
<g fill="#000000">
	<circle cx="64" cy="241" r="4"/>
</g>
<g fill="#000000">
	<circle cx="13" cy="4" r="4"/>
</g>
<g fill="#000000">
	<circle cx="62" cy="4" r="4"/>
</g>
<g fill="#000000">
	<circle cx="4" cy="48" r="4"/>
</g>
<g fill="#000000">
	<circle cx="114" cy="4" r="4"/>
</g>
<g fill="#000000">
	<circle cx="105" cy="52" r="4"/>
</g>
<g fill="#000000">
	<circle cx="158" cy="21" r="4"/>
</g>
<g fill="#000000">
	<circle cx="4" cy="98" r="4"/>
</g>
<g fill="#000000">
	<circle cx="4" cy="294" r="4"/>
</g>
<g fill="#000000">
	<circle cx="72" cy="294" r="4"/>
</g>
<g fill="#000000">
	<circle cx="132" cy="92" r="4"/>
</g>
<g fill="#000000">
	<circle cx="195" cy="62" r="4"/>
</g>
<g fill="#000000">
	<circle cx="354" cy="240" r="4"/>
</g>
<g fill="#000000">
	<circle cx="354" cy="294" r="4"/>
</g>
<g fill="#000000">
	<circle cx="394" cy="205" r="4"/>
</g>
<g fill="#000000">
	<circle cx="310" cy="294" r="4"/>
</g>
<g fill="#000000">
	<circle cx="394" cy="294" r="4"/>
</g>
<g fill="#000000">
	<circle cx="394" cy="108" r="4"/>
</g>
<g fill="#000000">
	<circle cx="394" cy="51" r="4"/>
</g>
<g fill="#000000">
	<circle cx="341" cy="94" r="4"/>
</g>
<g fill="#000000">
	<circle cx="351" cy="4" r="4"/>
</g>
<g fill="#000000">
	<circle cx="394" cy="4" r="4"/>
</g>
<g fill="#000000">
	<circle cx="304" cy="4" r="4"/>
</g>
<g fill="#000000">
	<circle cx="262" cy="294" r="4"/>
</g>
<g fill="#000000">
	<circle cx="344" cy="146" r="4"/>
</g>
<g fill="#000000">
	<circle cx="304" cy="58" r="4"/>
</g>
<g fill="#000000">
	<circle cx="393" cy="157" r="4"/>
</g>
<g fill="#000000">
	<circle cx="256" cy="4" r="4"/>
</g>
<g fill="#000000">
	<circle cx="211" cy="4" r="4"/>
</g>

</g>

</svg>
