<?xml version="1.0" encoding="utf-8"?>
<!-- Created with Hypercube (http://tumic.wz.cz/hypercube) -->

<svg width="400" height="300" viewBox="0 0 400 300" xmlns="http://www.w3.org/2000/svg" baseProfile="tiny">

<g font-family="Helvetica" font-weight="normal">

<g>
	<polygon points="163,242 159,234 168,234" fill="#aaff00"/>
	<line x1="161" y1="147" x2="163" y2="235" stroke="#aaff00" stroke-width="2"/>
</g>
<g>
	<polygon points="197,90 197,99 189,94" fill="#aaff00"/>
	<line x1="161" y1="147" x2="193" y2="96" stroke="#aaff00" stroke-width="2"/>
</g>
<g>
	<polygon points="249,292 240,293 244,285" fill="#aaff00"/>
	<line x1="164" y1="247" x2="242" y2="289" stroke="#aaff00" stroke-width="2"/>
</g>
<g>
	<polygon points="96,292 100,284 105,291" fill="#aaff00"/>
	<line x1="164" y1="247" x2="102" y2="288" stroke="#aaff00" stroke-width="2"/>
</g>
<g>
	<polygon points="147,290 146,281 154,285" fill="#aaff00"/>
	<line x1="164" y1="247" x2="150" y2="284" stroke="#aaff00" stroke-width="2"/>
</g>
<g>
	<polygon points="196,291 188,287 195,282" fill="#aaff00"/>
	<line x1="164" y1="247" x2="192" y2="285" stroke="#aaff00" stroke-width="2"/>
</g>
<g>
	<polygon points="112,141 120,146 112,150" fill="#aaff00"/>
	<line x1="164" y1="247" x2="116" y2="147" stroke="#aaff00" stroke-width="2"/>
</g>
<g>
	<polygon points="44,295 52,290 52,299" fill="#aaff00"/>
	<line x1="93" y1="295" x2="51" y2="295" stroke="#aaff00" stroke-width="2"/>
</g>
<g>
	<polygon points="56,229 59,238 50,235" fill="#aaff00"/>
	<line x1="40" y1="295" x2="55" y2="236" stroke="#aaff00" stroke-width="2"/>
</g>
<g>
	<polygon points="23,174 31,178 24,183" fill="#aaff00"/>
	<line x1="58" y1="225" x2="27" y2="180" stroke="#aaff00" stroke-width="2"/>
</g>
<g>
	<polygon points="9,248 14,240 18,248" fill="#aaff00"/>
	<line x1="58" y1="225" x2="15" y2="245" stroke="#aaff00" stroke-width="2"/>
</g>
<g>
	<polygon points="97,179 89,174 97,170" fill="#aaff00"/>
	<line x1="49" y1="99" x2="93" y2="173" stroke="#aaff00" stroke-width="2"/>
</g>
<g>
	<polygon points="67,31 70,40 61,37" fill="#aaff00"/>
	<line x1="49" y1="99" x2="65" y2="38" stroke="#aaff00" stroke-width="2"/>
</g>
<g>
	<polygon points="8,124 12,116 17,124" fill="#aaff00"/>
	<line x1="49" y1="99" x2="14" y2="120" stroke="#aaff00" stroke-width="2"/>
</g>
<g>
	<polygon points="22,166 21,157 29,161" fill="#aaff00"/>
	<line x1="49" y1="99" x2="25" y2="160" stroke="#aaff00" stroke-width="2"/>
</g>
<g>
	<polygon points="7,18 14,23 6,27" fill="#aaff00"/>
	<line x1="49" y1="99" x2="10" y2="25" stroke="#aaff00" stroke-width="2"/>
</g>
<g>
	<polygon points="8,70 17,71 12,78" fill="#aaff00"/>
	<line x1="49" y1="99" x2="14" y2="74" stroke="#aaff00" stroke-width="2"/>
</g>
<g>
	<polygon points="106,230 100,223 109,222" fill="#aaff00"/>
	<line x1="100" y1="183" x2="105" y2="223" stroke="#aaff00" stroke-width="2"/>
</g>
<g>
	<polygon points="104,183 112,179 111,188" fill="#aaff00"/>
	<line x1="208" y1="190" x2="111" y2="183" stroke="#aaff00" stroke-width="2"/>
</g>
<g>
	<polygon points="62,223 68,217 70,226" fill="#aaff00"/>
	<line x1="208" y1="190" x2="69" y2="222" stroke="#aaff00" stroke-width="2"/>
</g>
<g>
	<polygon points="262,203 253,206 256,197" fill="#aaff00"/>
	<line x1="208" y1="190" x2="255" y2="202" stroke="#aaff00" stroke-width="2"/>
</g>
<g>
	<polygon points="316,202 308,207 308,198" fill="#aaff00"/>
	<line x1="267" y1="205" x2="309" y2="202" stroke="#aaff00" stroke-width="2"/>
</g>
<g>
	<polygon points="283,246 276,241 284,237" fill="#aaff00"/>
	<line x1="267" y1="205" x2="280" y2="240" stroke="#aaff00" stroke-width="2"/>
</g>
<g>
	<polygon points="207,185 202,178 211,177" fill="#aaff00"/>
	<line x1="198" y1="49" x2="207" y2="178" stroke="#aaff00" stroke-width="2"/>
</g>
<g>
	<polygon points="194,46 185,46 189,38" fill="#aaff00"/>
	<line x1="123" y1="5" x2="187" y2="43" stroke="#aaff00" stroke-width="2"/>
</g>
<g>
	<polygon points="118,6 113,13 109,5" fill="#aaff00"/>
	<line x1="69" y1="27" x2="112" y2="9" stroke="#aaff00" stroke-width="2"/>
</g>
<g>
	<polygon points="19,166 12,160 21,157" fill="#aaff00"/>
	<line x1="5" y1="127" x2="17" y2="160" stroke="#aaff00" stroke-width="2"/>
</g>
<g>
	<polygon points="199,135 191,139 191,130" fill="#aaff00"/>
	<line x1="111" y1="137" x2="192" y2="135" stroke="#aaff00" stroke-width="2"/>
</g>
<g>
	<polygon points="133,99 133,108 125,104" fill="#aaff00"/>
	<line x1="111" y1="137" x2="129" y2="105" stroke="#aaff00" stroke-width="2"/>
</g>
<g>
	<polygon points="52,101 61,101 57,109" fill="#aaff00"/>
	<line x1="111" y1="137" x2="58" y2="105" stroke="#aaff00" stroke-width="2"/>
</g>
<g>
	<polygon points="303,113 296,119 295,111" fill="#aaff00"/>
	<line x1="204" y1="135" x2="296" y2="115" stroke="#aaff00" stroke-width="2"/>
</g>
<g>
	<polygon points="277,56 284,61 276,65" fill="#aaff00"/>
	<line x1="308" y1="113" x2="280" y2="63" stroke="#aaff00" stroke-width="2"/>
</g>
<g>
	<polygon points="261,9 267,15 259,18" fill="#aaff00"/>
	<line x1="275" y1="53" x2="263" y2="16" stroke="#aaff00" stroke-width="2"/>
</g>
<g>
	<polygon points="218,5 226,0 226,9" fill="#aaff00"/>
	<line x1="260" y1="5" x2="225" y2="5" stroke="#aaff00" stroke-width="2"/>
</g>
<g>
	<polygon points="312,112 320,108 320,117" fill="#aaff00"/>
	<line x1="389" y1="111" x2="319" y2="112" stroke="#aaff00" stroke-width="2"/>
</g>
<g>
	<polygon points="353,134 357,126 362,133" fill="#aaff00"/>
	<line x1="389" y1="111" x2="359" y2="130" stroke="#aaff00" stroke-width="2"/>
</g>
<g>
	<polygon points="394,162 389,155 398,154" fill="#aaff00"/>
	<line x1="389" y1="111" x2="393" y2="155" stroke="#aaff00" stroke-width="2"/>
</g>
<g>
	<polygon points="311,115 320,115 316,123" fill="#aaff00"/>
	<line x1="350" y1="137" x2="318" y2="118" stroke="#aaff00" stroke-width="2"/>
</g>
<g>
	<polygon points="389,106 385,98 394,99" fill="#aaff00"/>
	<line x1="395" y1="53" x2="390" y2="99" stroke="#aaff00" stroke-width="2"/>
</g>
<g>
	<polygon points="393,48 386,43 394,39" fill="#aaff00"/>
	<line x1="376" y1="5" x2="390" y2="42" stroke="#aaff00" stroke-width="2"/>
</g>
<g>
	<polygon points="371,5 364,11 363,2" fill="#aaff00"/>
	<line x1="315" y1="13" x2="364" y2="6" stroke="#aaff00" stroke-width="2"/>
</g>
<g>
	<polygon points="324,59 318,52 327,51" fill="#aaff00"/>
	<line x1="315" y1="13" x2="322" y2="52" stroke="#aaff00" stroke-width="2"/>
</g>
<g>
	<polygon points="262,111 266,102 271,110" fill="#aaff00"/>
	<line x1="325" y1="64" x2="268" y2="106" stroke="#aaff00" stroke-width="2"/>
</g>
<g>
	<polygon points="208,133 213,126 217,134" fill="#aaff00"/>
	<line x1="259" y1="114" x2="214" y2="130" stroke="#aaff00" stroke-width="2"/>
</g>
<g>
	<polygon points="148,53 157,53 152,61" fill="#aaff00"/>
	<line x1="200" y1="87" x2="154" y2="57" stroke="#aaff00" stroke-width="2"/>
</g>
<g>
	<polygon points="311,15 307,23 302,15" fill="#aaff00"/>
	<line x1="200" y1="87" x2="305" y2="19" stroke="#aaff00" stroke-width="2"/>
</g>
<g>
	<polygon points="136,91 133,83 142,84" fill="#aaff00"/>
	<line x1="145" y1="51" x2="138" y2="84" stroke="#aaff00" stroke-width="2"/>
</g>
<g>
	<polygon points="200,132 191,132 195,124" fill="#aaff00"/>
	<line x1="136" y1="96" x2="193" y2="129" stroke="#aaff00" stroke-width="2"/>
</g>
<g>
	<polygon points="201,138 200,147 192,142" fill="#aaff00"/>
	<line x1="164" y1="187" x2="196" y2="144" stroke="#aaff00" stroke-width="2"/>
</g>
<g>
	<polygon points="359,273 355,281 350,274" fill="#aaff00"/>
	<line x1="330" y1="295" x2="353" y2="277" stroke="#aaff00" stroke-width="2"/>
</g>
<g>
	<polygon points="390,295 382,299 382,290" fill="#aaff00"/>
	<line x1="330" y1="295" x2="383" y2="295" stroke="#aaff00" stroke-width="2"/>
</g>
<g>
	<polygon points="366,273 375,274 370,281" fill="#aaff00"/>
	<line x1="395" y1="295" x2="372" y2="278" stroke="#aaff00" stroke-width="2"/>
</g>
<g>
	<polygon points="333,292 337,284 342,291" fill="#aaff00"/>
	<line x1="395" y1="246" x2="339" y2="287" stroke="#aaff00" stroke-width="2"/>
</g>
<g>
	<polygon points="366,268 369,259 375,266" fill="#aaff00"/>
	<line x1="395" y1="246" x2="372" y2="263" stroke="#aaff00" stroke-width="2"/>
</g>
<g>
	<polygon points="395,290 390,282 399,282" fill="#aaff00"/>
	<line x1="395" y1="246" x2="395" y2="283" stroke="#aaff00" stroke-width="2"/>
</g>
<g>
	<polygon points="325,295 317,299 317,290" fill="#aaff00"/>
	<line x1="253" y1="295" x2="318" y2="295" stroke="#aaff00" stroke-width="2"/>
</g>

<g fill="#000000">
	<circle cx="160" cy="146" r="4"/>
</g>
<g fill="#000000">
	<circle cx="163" cy="246" r="4"/>
</g>
<g fill="#000000">
	<circle cx="199" cy="86" r="4"/>
</g>
<g fill="#000000">
	<circle cx="252" cy="294" r="4"/>
</g>
<g fill="#000000">
	<circle cx="92" cy="294" r="4"/>
</g>
<g fill="#000000">
	<circle cx="145" cy="294" r="4"/>
</g>
<g fill="#000000">
	<circle cx="198" cy="294" r="4"/>
</g>
<g fill="#000000">
	<circle cx="110" cy="136" r="4"/>
</g>
<g fill="#000000">
	<circle cx="144" cy="50" r="4"/>
</g>
<g fill="#000000">
	<circle cx="314" cy="12" r="4"/>
</g>
<g fill="#000000">
	<circle cx="39" cy="294" r="4"/>
</g>
<g fill="#000000">
	<circle cx="203" cy="134" r="4"/>
</g>
<g fill="#000000">
	<circle cx="135" cy="95" r="4"/>
</g>
<g fill="#000000">
	<circle cx="48" cy="98" r="4"/>
</g>
<g fill="#000000">
	<circle cx="307" cy="112" r="4"/>
</g>
<g fill="#000000">
	<circle cx="99" cy="182" r="4"/>
</g>
<g fill="#000000">
	<circle cx="68" cy="26" r="4"/>
</g>
<g fill="#000000">
	<circle cx="4" cy="126" r="4"/>
</g>
<g fill="#000000">
	<circle cx="20" cy="170" r="4"/>
</g>
<g fill="#000000">
	<circle cx="4" cy="14" r="4"/>
</g>
<g fill="#000000">
	<circle cx="4" cy="67" r="4"/>
</g>
<g fill="#000000">
	<circle cx="106" cy="234" r="4"/>
</g>
<g fill="#000000">
	<circle cx="122" cy="4" r="4"/>
</g>
<g fill="#000000">
	<circle cx="57" cy="224" r="4"/>
</g>
<g fill="#000000">
	<circle cx="4" cy="249" r="4"/>
</g>
<g fill="#000000">
	<circle cx="197" cy="48" r="4"/>
</g>
<g fill="#000000">
	<circle cx="207" cy="189" r="4"/>
</g>
<g fill="#000000">
	<circle cx="266" cy="204" r="4"/>
</g>
<g fill="#000000">
	<circle cx="320" cy="201" r="4"/>
</g>
<g fill="#000000">
	<circle cx="284" cy="250" r="4"/>
</g>
<g fill="#000000">
	<circle cx="375" cy="4" r="4"/>
</g>
<g fill="#000000">
	<circle cx="324" cy="63" r="4"/>
</g>
<g fill="#000000">
	<circle cx="394" cy="52" r="4"/>
</g>
<g fill="#000000">
	<circle cx="258" cy="113" r="4"/>
</g>
<g fill="#000000">
	<circle cx="388" cy="110" r="4"/>
</g>
<g fill="#000000">
	<circle cx="349" cy="136" r="4"/>
</g>
<g fill="#000000">
	<circle cx="394" cy="166" r="4"/>
</g>
<g fill="#000000">
	<circle cx="163" cy="186" r="4"/>
</g>
<g fill="#000000">
	<circle cx="274" cy="52" r="4"/>
</g>
<g fill="#000000">
	<circle cx="259" cy="4" r="4"/>
</g>
<g fill="#000000">
	<circle cx="213" cy="4" r="4"/>
</g>
<g fill="#000000">
	<circle cx="329" cy="294" r="4"/>
</g>
<g fill="#000000">
	<circle cx="362" cy="270" r="4"/>
</g>
<g fill="#000000">
	<circle cx="394" cy="294" r="4"/>
</g>
<g fill="#000000">
	<circle cx="394" cy="245" r="4"/>
</g>

</g>

</svg>
