<?xml version="1.0" encoding="utf-8"?>
<!-- Created with Hypercube (http://tumic.wz.cz/hypercube) -->

<svg width="400" height="300" viewBox="0 0 400 300" xmlns="http://www.w3.org/2000/svg" baseProfile="tiny">

<g font-family="Helvetica" font-weight="normal">

<g>
	<polygon points="142,290 138,282 147,282" fill="#aaff00"/>
	<line x1="144" y1="258" x2="142" y2="283" stroke="#aaff00" stroke-width="2"/>
</g>
<g>
	<polygon points="121,249 130,248 126,256" fill="#aaff00"/>
	<line x1="144" y1="258" x2="127" y2="252" stroke="#aaff00" stroke-width="2"/>
</g>
<g>
	<polygon points="118,278 121,269 127,276" fill="#aaff00"/>
	<line x1="144" y1="258" x2="124" y2="273" stroke="#aaff00" stroke-width="2"/>
</g>
<g>
	<polygon points="94,267 101,261 102,270" fill="#aaff00"/>
	<line x1="144" y1="258" x2="101" y2="265" stroke="#aaff00" stroke-width="2"/>
</g>
<g>
	<polygon points="15,261 24,258 21,267" fill="#aaff00"/>
	<line x1="142" y1="295" x2="22" y2="263" stroke="#aaff00" stroke-width="2"/>
</g>
<g>
	<polygon points="40,257 49,256 45,264" fill="#aaff00"/>
	<line x1="142" y1="295" x2="46" y2="260" stroke="#aaff00" stroke-width="2"/>
</g>
<g>
	<polygon points="168,242 168,251 160,247" fill="#aaff00"/>
	<line x1="142" y1="295" x2="164" y2="248" stroke="#aaff00" stroke-width="2"/>
</g>
<g>
	<polygon points="88,241 96,243 90,249" fill="#aaff00"/>
	<line x1="142" y1="295" x2="93" y2="246" stroke="#aaff00" stroke-width="2"/>
</g>
<g>
	<polygon points="64,255 72,254 68,262" fill="#aaff00"/>
	<line x1="142" y1="295" x2="70" y2="258" stroke="#aaff00" stroke-width="2"/>
</g>
<g>
	<polygon points="189,247 187,255 181,249" fill="#aaff00"/>
	<line x1="142" y1="295" x2="184" y2="252" stroke="#aaff00" stroke-width="2"/>
</g>
<g>
	<polygon points="71,213 67,222 62,214" fill="#aaff00"/>
	<line x1="11" y1="260" x2="65" y2="218" stroke="#aaff00" stroke-width="2"/>
</g>
<g>
	<polygon points="105,222 100,229 96,221" fill="#aaff00"/>
	<line x1="11" y1="260" x2="99" y2="225" stroke="#aaff00" stroke-width="2"/>
</g>
<g>
	<polygon points="93,187 90,196 84,189" fill="#aaff00"/>
	<line x1="11" y1="260" x2="88" y2="192" stroke="#aaff00" stroke-width="2"/>
</g>
<g>
	<polygon points="68,169 68,178 60,173" fill="#aaff00"/>
	<line x1="11" y1="260" x2="64" y2="175" stroke="#aaff00" stroke-width="2"/>
</g>
<g>
	<polygon points="157,12 158,21 150,17" fill="#aaff00"/>
	<line x1="75" y1="211" x2="154" y2="18" stroke="#aaff00" stroke-width="2"/>
</g>
<g>
	<polygon points="339,7 331,11 331,2" fill="#aaff00"/>
	<line x1="159" y1="8" x2="332" y2="7" stroke="#aaff00" stroke-width="2"/>
</g>
<g>
	<polygon points="304,61 295,62 299,54" fill="#aaff00"/>
	<line x1="159" y1="8" x2="298" y2="58" stroke="#aaff00" stroke-width="2"/>
</g>
<g>
	<polygon points="322,24 314,28 315,19" fill="#aaff00"/>
	<line x1="159" y1="8" x2="315" y2="23" stroke="#aaff00" stroke-width="2"/>
</g>
<g>
	<polygon points="335,50 326,53 329,44" fill="#aaff00"/>
	<line x1="159" y1="8" x2="328" y2="49" stroke="#aaff00" stroke-width="2"/>
</g>
<g>
	<polygon points="264,58 268,50 273,58" fill="#aaff00"/>
	<line x1="344" y1="7" x2="270" y2="54" stroke="#aaff00" stroke-width="2"/>
</g>
<g>
	<polygon points="389,123 382,118 390,114" fill="#aaff00"/>
	<line x1="344" y1="7" x2="386" y2="117" stroke="#aaff00" stroke-width="2"/>
</g>
<g>
	<polygon points="352,73 346,66 355,65" fill="#aaff00"/>
	<line x1="344" y1="7" x2="351" y2="66" stroke="#aaff00" stroke-width="2"/>
</g>
<g>
	<polygon points="369,108 363,102 372,99" fill="#aaff00"/>
	<line x1="344" y1="7" x2="368" y2="101" stroke="#aaff00" stroke-width="2"/>
</g>
<g>
	<polygon points="322,84 319,75 328,78" fill="#aaff00"/>
	<line x1="344" y1="7" x2="324" y2="77" stroke="#aaff00" stroke-width="2"/>
</g>
<g>
	<polygon points="283,69 285,61 291,67" fill="#aaff00"/>
	<line x1="344" y1="7" x2="288" y2="64" stroke="#aaff00" stroke-width="2"/>
</g>
<g>
	<polygon points="294,149 287,144 295,140" fill="#aaff00"/>
	<line x1="261" y1="61" x2="291" y2="143" stroke="#aaff00" stroke-width="2"/>
</g>
<g>
	<polygon points="288,118 280,113 288,109" fill="#aaff00"/>
	<line x1="261" y1="61" x2="285" y2="112" stroke="#aaff00" stroke-width="2"/>
</g>
<g>
	<polygon points="314,115 306,113 312,107" fill="#aaff00"/>
	<line x1="261" y1="61" x2="309" y2="110" stroke="#aaff00" stroke-width="2"/>
</g>
<g>
	<polygon points="342,112 333,112 338,104" fill="#aaff00"/>
	<line x1="261" y1="61" x2="336" y2="108" stroke="#aaff00" stroke-width="2"/>
</g>
<g>
	<polygon points="275,170 278,161 284,168" fill="#aaff00"/>
	<line x1="296" y1="154" x2="281" y2="165" stroke="#aaff00" stroke-width="2"/>
</g>
<g>
	<polygon points="183,192 190,186 191,194" fill="#aaff00"/>
	<line x1="272" y1="173" x2="190" y2="190" stroke="#aaff00" stroke-width="2"/>
</g>
<g>
	<polygon points="220,71 227,75 219,79" fill="#aaff00"/>
	<line x1="272" y1="173" x2="223" y2="77" stroke="#aaff00" stroke-width="2"/>
</g>
<g>
	<polygon points="216,40 223,45 215,49" fill="#aaff00"/>
	<line x1="272" y1="173" x2="219" y2="46" stroke="#aaff00" stroke-width="2"/>
</g>
<g>
	<polygon points="223,102 231,106 224,111" fill="#aaff00"/>
	<line x1="272" y1="173" x2="227" y2="108" stroke="#aaff00" stroke-width="2"/>
</g>
<g>
	<polygon points="154,35 160,42 151,43" fill="#aaff00"/>
	<line x1="179" y1="193" x2="155" y2="42" stroke="#aaff00" stroke-width="2"/>
</g>
<g>
	<polygon points="233,165 229,172 225,164" fill="#aaff00"/>
	<line x1="179" y1="193" x2="227" y2="168" stroke="#aaff00" stroke-width="2"/>
</g>
<g>
	<polygon points="203,127 204,136 196,132" fill="#aaff00"/>
	<line x1="179" y1="193" x2="200" y2="133" stroke="#aaff00" stroke-width="2"/>
</g>
<g>
	<polygon points="169,74 174,81 165,82" fill="#aaff00"/>
	<line x1="179" y1="193" x2="169" y2="81" stroke="#aaff00" stroke-width="2"/>
</g>
<g>
	<polygon points="222,145 220,154 214,147" fill="#aaff00"/>
	<line x1="179" y1="193" x2="218" y2="150" stroke="#aaff00" stroke-width="2"/>
</g>
<g>
	<polygon points="161,56 167,63 158,64" fill="#aaff00"/>
	<line x1="179" y1="193" x2="162" y2="63" stroke="#aaff00" stroke-width="2"/>
</g>
<g>
	<polygon points="170,90 164,84 173,81" fill="#aaff00"/>
	<line x1="154" y1="31" x2="168" y2="83" stroke="#aaff00" stroke-width="2"/>
</g>
<g>
	<polygon points="174,136 168,129 177,128" fill="#aaff00"/>
	<line x1="154" y1="31" x2="172" y2="129" stroke="#aaff00" stroke-width="2"/>
</g>
<g>
	<polygon points="176,160 170,153 179,152" fill="#aaff00"/>
	<line x1="154" y1="31" x2="175" y2="153" stroke="#aaff00" stroke-width="2"/>
</g>
<g>
	<polygon points="192,81 183,77 191,72" fill="#aaff00"/>
	<line x1="154" y1="31" x2="187" y2="75" stroke="#aaff00" stroke-width="2"/>
</g>
<g>
	<polygon points="173,114 168,107 177,106" fill="#aaff00"/>
	<line x1="172" y1="95" x2="173" y2="107" stroke="#aaff00" stroke-width="2"/>
</g>
<g>
	<polygon points="174,123 179,131 170,131" fill="#aaff00"/>
	<line x1="175" y1="141" x2="174" y2="130" stroke="#aaff00" stroke-width="2"/>
</g>
<g>
	<polygon points="175,98 183,100 177,106" fill="#aaff00"/>
	<line x1="238" y1="163" x2="180" y2="103" stroke="#aaff00" stroke-width="2"/>
</g>
<g>
	<polygon points="179,142 188,140 185,149" fill="#aaff00"/>
	<line x1="238" y1="163" x2="186" y2="144" stroke="#aaff00" stroke-width="2"/>
</g>
<g>
	<polygon points="181,164 189,160 189,169" fill="#aaff00"/>
	<line x1="238" y1="163" x2="188" y2="164" stroke="#aaff00" stroke-width="2"/>
</g>
<g>
	<polygon points="197,88 204,93 196,97" fill="#aaff00"/>
	<line x1="238" y1="163" x2="200" y2="95" stroke="#aaff00" stroke-width="2"/>
</g>
<g>
	<polygon points="174,123 179,130 170,131" fill="#aaff00"/>
	<line x1="177" y1="165" x2="174" y2="130" stroke="#aaff00" stroke-width="2"/>
</g>
<g>
	<polygon points="175,97 184,99 178,106" fill="#aaff00"/>
	<line x1="205" y1="123" x2="180" y2="102" stroke="#aaff00" stroke-width="2"/>
</g>
<g>
	<polygon points="178,138 183,130 187,138" fill="#aaff00"/>
	<line x1="205" y1="123" x2="185" y2="134" stroke="#aaff00" stroke-width="2"/>
</g>
<g>
	<polygon points="179,161 180,152 187,157" fill="#aaff00"/>
	<line x1="205" y1="123" x2="183" y2="155" stroke="#aaff00" stroke-width="2"/>
</g>
<g>
	<polygon points="196,89 202,95 193,98" fill="#aaff00"/>
	<line x1="205" y1="123" x2="197" y2="96" stroke="#aaff00" stroke-width="2"/>
</g>
<g>
	<polygon points="176,115 176,106 184,110" fill="#aaff00"/>
	<line x1="195" y1="85" x2="180" y2="109" stroke="#aaff00" stroke-width="2"/>
</g>
<g>
	<polygon points="171,90 166,83 175,82" fill="#aaff00"/>
	<line x1="169" y1="70" x2="170" y2="83" stroke="#aaff00" stroke-width="2"/>
</g>
<g>
	<polygon points="174,136 169,129 178,128" fill="#aaff00"/>
	<line x1="169" y1="70" x2="174" y2="129" stroke="#aaff00" stroke-width="2"/>
</g>
<g>
	<polygon points="176,160 171,153 180,152" fill="#aaff00"/>
	<line x1="169" y1="70" x2="176" y2="153" stroke="#aaff00" stroke-width="2"/>
</g>
<g>
	<polygon points="191,82 182,82 186,74" fill="#aaff00"/>
	<line x1="169" y1="70" x2="184" y2="79" stroke="#aaff00" stroke-width="2"/>
</g>
<g>
	<polygon points="157,33 166,33 162,40" fill="#aaff00"/>
	<line x1="218" y1="67" x2="164" y2="36" stroke="#aaff00" stroke-width="2"/>
</g>
<g>
	<polygon points="237,158 231,151 239,150" fill="#aaff00"/>
	<line x1="218" y1="67" x2="235" y2="151" stroke="#aaff00" stroke-width="2"/>
</g>
<g>
	<polygon points="206,118 203,110 212,112" fill="#aaff00"/>
	<line x1="218" y1="67" x2="207" y2="111" stroke="#aaff00" stroke-width="2"/>
</g>
<g>
	<polygon points="173,69 180,64 181,73" fill="#aaff00"/>
	<line x1="218" y1="67" x2="180" y2="69" stroke="#aaff00" stroke-width="2"/>
</g>
<g>
	<polygon points="225,137 220,130 229,129" fill="#aaff00"/>
	<line x1="218" y1="67" x2="224" y2="130" stroke="#aaff00" stroke-width="2"/>
</g>
<g>
	<polygon points="165,53 174,50 171,59" fill="#aaff00"/>
	<line x1="218" y1="67" x2="172" y2="54" stroke="#aaff00" stroke-width="2"/>
</g>
<g>
	<polygon points="175,97 184,99 178,106" fill="#aaff00"/>
	<line x1="226" y1="142" x2="180" y2="102" stroke="#aaff00" stroke-width="2"/>
</g>
<g>
	<polygon points="179,141 187,136 187,145" fill="#aaff00"/>
	<line x1="226" y1="142" x2="186" y2="141" stroke="#aaff00" stroke-width="2"/>
</g>
<g>
	<polygon points="181,163 186,155 190,163" fill="#aaff00"/>
	<line x1="226" y1="142" x2="187" y2="160" stroke="#aaff00" stroke-width="2"/>
</g>
<g>
	<polygon points="197,88 204,93 196,97" fill="#aaff00"/>
	<line x1="226" y1="142" x2="200" y2="95" stroke="#aaff00" stroke-width="2"/>
</g>
<g>
	<polygon points="158,31 166,27 165,36" fill="#aaff00"/>
	<line x1="215" y1="36" x2="165" y2="31" stroke="#aaff00" stroke-width="2"/>
</g>
<g>
	<polygon points="237,158 231,151 240,150" fill="#aaff00"/>
	<line x1="215" y1="36" x2="235" y2="151" stroke="#aaff00" stroke-width="2"/>
</g>
<g>
	<polygon points="205,118 201,110 210,111" fill="#aaff00"/>
	<line x1="215" y1="36" x2="206" y2="111" stroke="#aaff00" stroke-width="2"/>
</g>
<g>
	<polygon points="172,67 176,59 181,66" fill="#aaff00"/>
	<line x1="215" y1="36" x2="178" y2="63" stroke="#aaff00" stroke-width="2"/>
</g>
<g>
	<polygon points="225,137 220,130 229,129" fill="#aaff00"/>
	<line x1="215" y1="36" x2="224" y2="130" stroke="#aaff00" stroke-width="2"/>
</g>
<g>
	<polygon points="165,50 171,44 174,52" fill="#aaff00"/>
	<line x1="215" y1="36" x2="172" y2="48" stroke="#aaff00" stroke-width="2"/>
</g>
<g>
	<polygon points="170,90 164,84 173,81" fill="#aaff00"/>
	<line x1="161" y1="52" x2="169" y2="83" stroke="#aaff00" stroke-width="2"/>
</g>
<g>
	<polygon points="174,136 168,129 177,128" fill="#aaff00"/>
	<line x1="161" y1="52" x2="173" y2="129" stroke="#aaff00" stroke-width="2"/>
</g>
<g>
	<polygon points="176,160 170,153 179,152" fill="#aaff00"/>
	<line x1="161" y1="52" x2="175" y2="153" stroke="#aaff00" stroke-width="2"/>
</g>
<g>
	<polygon points="191,81 183,79 189,73" fill="#aaff00"/>
	<line x1="161" y1="52" x2="186" y2="76" stroke="#aaff00" stroke-width="2"/>
</g>
<g>
	<polygon points="157,34 165,36 159,42" fill="#aaff00"/>
	<line x1="221" y1="99" x2="162" y2="39" stroke="#aaff00" stroke-width="2"/>
</g>
<g>
	<polygon points="236,158 230,152 239,149" fill="#aaff00"/>
	<line x1="221" y1="99" x2="234" y2="151" stroke="#aaff00" stroke-width="2"/>
</g>
<g>
	<polygon points="207,119 208,110 215,115" fill="#aaff00"/>
	<line x1="221" y1="99" x2="211" y2="113" stroke="#aaff00" stroke-width="2"/>
</g>
<g>
	<polygon points="172,72 181,72 177,79" fill="#aaff00"/>
	<line x1="221" y1="99" x2="179" y2="75" stroke="#aaff00" stroke-width="2"/>
</g>
<g>
	<polygon points="225,137 220,130 229,129" fill="#aaff00"/>
	<line x1="221" y1="99" x2="224" y2="130" stroke="#aaff00" stroke-width="2"/>
</g>
<g>
	<polygon points="164,54 173,56 167,63" fill="#aaff00"/>
	<line x1="221" y1="99" x2="170" y2="59" stroke="#aaff00" stroke-width="2"/>
</g>
<g>
	<polygon points="273,168 271,159 280,162" fill="#aaff00"/>
	<line x1="290" y1="123" x2="275" y2="161" stroke="#aaff00" stroke-width="2"/>
</g>
<g>
	<polygon points="300,152 306,146 309,155" fill="#aaff00"/>
	<line x1="391" y1="128" x2="307" y2="150" stroke="#aaff00" stroke-width="2"/>
</g>
<g>
	<polygon points="294,123 302,119 302,128" fill="#aaff00"/>
	<line x1="391" y1="128" x2="301" y2="123" stroke="#aaff00" stroke-width="2"/>
</g>
<g>
	<polygon points="322,119 330,116 329,124" fill="#aaff00"/>
	<line x1="391" y1="128" x2="329" y2="120" stroke="#aaff00" stroke-width="2"/>
</g>
<g>
	<polygon points="350,116 359,114 356,122" fill="#aaff00"/>
	<line x1="391" y1="128" x2="357" y2="118" stroke="#aaff00" stroke-width="2"/>
</g>
<g>
	<polygon points="274,169 276,160 283,166" fill="#aaff00"/>
	<line x1="318" y1="119" x2="279" y2="164" stroke="#aaff00" stroke-width="2"/>
</g>
<g>
	<polygon points="298,150 299,141 306,146" fill="#aaff00"/>
	<line x1="353" y1="78" x2="303" y2="144" stroke="#aaff00" stroke-width="2"/>
</g>
<g>
	<polygon points="293,120 297,112 302,119" fill="#aaff00"/>
	<line x1="353" y1="78" x2="299" y2="116" stroke="#aaff00" stroke-width="2"/>
</g>
<g>
	<polygon points="320,115 322,106 329,112" fill="#aaff00"/>
	<line x1="353" y1="78" x2="325" y2="110" stroke="#aaff00" stroke-width="2"/>
</g>
<g>
	<polygon points="346,110 343,102 352,103" fill="#aaff00"/>
	<line x1="353" y1="78" x2="348" y2="103" stroke="#aaff00" stroke-width="2"/>
</g>
<g>
	<polygon points="275,170 278,161 284,168" fill="#aaff00"/>
	<line x1="346" y1="115" x2="281" y2="165" stroke="#aaff00" stroke-width="2"/>
</g>
<g>
	<polygon points="299,151 304,144 308,152" fill="#aaff00"/>
	<line x1="371" y1="113" x2="306" y2="148" stroke="#aaff00" stroke-width="2"/>
</g>
<g>
	<polygon points="294,122 301,117 302,125" fill="#aaff00"/>
	<line x1="371" y1="113" x2="301" y2="121" stroke="#aaff00" stroke-width="2"/>
</g>
<g>
	<polygon points="322,118 329,113 330,122" fill="#aaff00"/>
	<line x1="371" y1="113" x2="329" y2="117" stroke="#aaff00" stroke-width="2"/>
</g>
<g>
	<polygon points="350,114 357,109 358,118" fill="#aaff00"/>
	<line x1="371" y1="113" x2="357" y2="114" stroke="#aaff00" stroke-width="2"/>
</g>
<g>
	<polygon points="265,61 273,57 273,66" fill="#aaff00"/>
	<line x1="309" y1="63" x2="272" y2="61" stroke="#aaff00" stroke-width="2"/>
</g>
<g>
	<polygon points="387,125 378,123 384,116" fill="#aaff00"/>
	<line x1="309" y1="63" x2="381" y2="120" stroke="#aaff00" stroke-width="2"/>
</g>
<g>
	<polygon points="348,76 339,78 342,69" fill="#aaff00"/>
	<line x1="309" y1="63" x2="341" y2="74" stroke="#aaff00" stroke-width="2"/>
</g>
<g>
	<polygon points="367,110 358,108 364,101" fill="#aaff00"/>
	<line x1="309" y1="63" x2="361" y2="105" stroke="#aaff00" stroke-width="2"/>
</g>
<g>
	<polygon points="319,84 311,79 319,75" fill="#aaff00"/>
	<line x1="309" y1="63" x2="316" y2="78" stroke="#aaff00" stroke-width="2"/>
</g>
<g>
	<polygon points="284,71 290,64 293,73" fill="#aaff00"/>
	<line x1="309" y1="63" x2="291" y2="69" stroke="#aaff00" stroke-width="2"/>
</g>
<g>
	<polygon points="297,149 296,140 304,144" fill="#aaff00"/>
	<line x1="321" y1="89" x2="300" y2="143" stroke="#aaff00" stroke-width="2"/>
</g>
<g>
	<polygon points="293,119 294,110 301,116" fill="#aaff00"/>
	<line x1="321" y1="89" x2="297" y2="114" stroke="#aaff00" stroke-width="2"/>
</g>
<g>
	<polygon points="318,114 314,106 323,107" fill="#aaff00"/>
	<line x1="321" y1="89" x2="319" y2="107" stroke="#aaff00" stroke-width="2"/>
</g>
<g>
	<polygon points="342,111 334,109 340,103" fill="#aaff00"/>
	<line x1="321" y1="89" x2="337" y2="106" stroke="#aaff00" stroke-width="2"/>
</g>
<g>
	<polygon points="264,58 269,51 273,59" fill="#aaff00"/>
	<line x1="327" y1="25" x2="271" y2="55" stroke="#aaff00" stroke-width="2"/>
</g>
<g>
	<polygon points="388,124 380,119 388,115" fill="#aaff00"/>
	<line x1="327" y1="25" x2="384" y2="118" stroke="#aaff00" stroke-width="2"/>
</g>
<g>
	<polygon points="351,73 343,68 351,64" fill="#aaff00"/>
	<line x1="327" y1="25" x2="347" y2="67" stroke="#aaff00" stroke-width="2"/>
</g>
<g>
	<polygon points="368,108 361,104 369,99" fill="#aaff00"/>
	<line x1="327" y1="25" x2="365" y2="102" stroke="#aaff00" stroke-width="2"/>
</g>
<g>
	<polygon points="321,84 317,76 326,77" fill="#aaff00"/>
	<line x1="327" y1="25" x2="322" y2="77" stroke="#aaff00" stroke-width="2"/>
</g>
<g>
	<polygon points="283,69 285,61 291,67" fill="#aaff00"/>
	<line x1="327" y1="25" x2="288" y2="64" stroke="#aaff00" stroke-width="2"/>
</g>
<g>
	<polygon points="295,149 289,142 298,141" fill="#aaff00"/>
	<line x1="280" y1="73" x2="293" y2="142" stroke="#aaff00" stroke-width="2"/>
</g>
<g>
	<polygon points="289,118 283,111 292,110" fill="#aaff00"/>
	<line x1="280" y1="73" x2="287" y2="111" stroke="#aaff00" stroke-width="2"/>
</g>
<g>
	<polygon points="315,115 306,112 313,106" fill="#aaff00"/>
	<line x1="280" y1="73" x2="310" y2="109" stroke="#aaff00" stroke-width="2"/>
</g>
<g>
	<polygon points="342,112 333,112 338,104" fill="#aaff00"/>
	<line x1="280" y1="73" x2="336" y2="108" stroke="#aaff00" stroke-width="2"/>
</g>
<g>
	<polygon points="265,60 272,55 273,64" fill="#aaff00"/>
	<line x1="340" y1="52" x2="272" y2="59" stroke="#aaff00" stroke-width="2"/>
</g>
<g>
	<polygon points="388,124 380,120 387,115" fill="#aaff00"/>
	<line x1="340" y1="52" x2="384" y2="118" stroke="#aaff00" stroke-width="2"/>
</g>
<g>
	<polygon points="350,73 343,69 351,64" fill="#aaff00"/>
	<line x1="340" y1="52" x2="347" y2="67" stroke="#aaff00" stroke-width="2"/>
</g>
<g>
	<polygon points="368,108 361,104 369,100" fill="#aaff00"/>
	<line x1="340" y1="52" x2="365" y2="102" stroke="#aaff00" stroke-width="2"/>
</g>
<g>
	<polygon points="323,84 322,76 330,80" fill="#aaff00"/>
	<line x1="340" y1="52" x2="326" y2="78" stroke="#aaff00" stroke-width="2"/>
</g>
<g>
	<polygon points="284,71 290,64 293,73" fill="#aaff00"/>
	<line x1="340" y1="52" x2="291" y2="69" stroke="#aaff00" stroke-width="2"/>
</g>
<g>
	<polygon points="157,12 160,20 151,18" fill="#aaff00"/>
	<line x1="110" y1="221" x2="156" y2="19" stroke="#aaff00" stroke-width="2"/>
</g>
<g>
	<polygon points="72,214 70,223 63,217" fill="#aaff00"/>
	<line x1="36" y1="256" x2="67" y2="219" stroke="#aaff00" stroke-width="2"/>
</g>
<g>
	<polygon points="105,222 100,230 96,222" fill="#aaff00"/>
	<line x1="36" y1="256" x2="99" y2="225" stroke="#aaff00" stroke-width="2"/>
</g>
<g>
	<polygon points="94,188 92,197 85,191" fill="#aaff00"/>
	<line x1="36" y1="256" x2="89" y2="193" stroke="#aaff00" stroke-width="2"/>
</g>
<g>
	<polygon points="69,170 70,179 62,175" fill="#aaff00"/>
	<line x1="36" y1="256" x2="66" y2="176" stroke="#aaff00" stroke-width="2"/>
</g>
<g>
	<polygon points="157,12 159,21 150,18" fill="#aaff00"/>
	<line x1="97" y1="185" x2="155" y2="19" stroke="#aaff00" stroke-width="2"/>
</g>
<g>
	<polygon points="79,212 88,210 85,218" fill="#aaff00"/>
	<line x1="170" y1="238" x2="86" y2="214" stroke="#aaff00" stroke-width="2"/>
</g>
<g>
	<polygon points="114,222 123,220 120,228" fill="#aaff00"/>
	<line x1="170" y1="238" x2="121" y2="224" stroke="#aaff00" stroke-width="2"/>
</g>
<g>
	<polygon points="100,187 109,188 104,195" fill="#aaff00"/>
	<line x1="170" y1="238" x2="106" y2="191" stroke="#aaff00" stroke-width="2"/>
</g>
<g>
	<polygon points="74,168 83,169 78,176" fill="#aaff00"/>
	<line x1="170" y1="238" x2="80" y2="172" stroke="#aaff00" stroke-width="2"/>
</g>
<g>
	<polygon points="156,11 156,20 149,16" fill="#aaff00"/>
	<line x1="71" y1="166" x2="153" y2="18" stroke="#aaff00" stroke-width="2"/>
</g>
<g>
	<polygon points="76,215 83,220 75,224" fill="#aaff00"/>
	<line x1="85" y1="238" x2="79" y2="221" stroke="#aaff00" stroke-width="2"/>
</g>
<g>
	<polygon points="106,223 102,231 97,224" fill="#aaff00"/>
	<line x1="85" y1="238" x2="100" y2="227" stroke="#aaff00" stroke-width="2"/>
</g>
<g>
	<polygon points="96,189 98,197 89,195" fill="#aaff00"/>
	<line x1="85" y1="238" x2="94" y2="196" stroke="#aaff00" stroke-width="2"/>
</g>
<g>
	<polygon points="71,170 77,177 68,178" fill="#aaff00"/>
	<line x1="85" y1="238" x2="73" y2="177" stroke="#aaff00" stroke-width="2"/>
</g>
<g>
	<polygon points="15,259 22,254 23,263" fill="#aaff00"/>
	<line x1="117" y1="248" x2="22" y2="258" stroke="#aaff00" stroke-width="2"/>
</g>
<g>
	<polygon points="40,255 47,250 48,259" fill="#aaff00"/>
	<line x1="117" y1="248" x2="47" y2="254" stroke="#aaff00" stroke-width="2"/>
</g>
<g>
	<polygon points="165,238 158,244 157,235" fill="#aaff00"/>
	<line x1="117" y1="248" x2="158" y2="240" stroke="#aaff00" stroke-width="2"/>
</g>
<g>
	<polygon points="89,239 98,237 95,245" fill="#aaff00"/>
	<line x1="117" y1="248" x2="96" y2="241" stroke="#aaff00" stroke-width="2"/>
</g>
<g>
	<polygon points="64,252 71,247 72,256" fill="#aaff00"/>
	<line x1="117" y1="248" x2="71" y2="251" stroke="#aaff00" stroke-width="2"/>
</g>
<g>
	<polygon points="188,244 180,249 180,240" fill="#aaff00"/>
	<line x1="117" y1="248" x2="181" y2="244" stroke="#aaff00" stroke-width="2"/>
</g>
<g>
	<polygon points="73,215 75,224 66,221" fill="#aaff00"/>
	<line x1="60" y1="253" x2="71" y2="222" stroke="#aaff00" stroke-width="2"/>
</g>
<g>
	<polygon points="106,223 102,231 97,223" fill="#aaff00"/>
	<line x1="60" y1="253" x2="100" y2="227" stroke="#aaff00" stroke-width="2"/>
</g>
<g>
	<polygon points="94,188 95,197 87,193" fill="#aaff00"/>
	<line x1="60" y1="253" x2="91" y2="195" stroke="#aaff00" stroke-width="2"/>
</g>
<g>
	<polygon points="70,170 73,178 64,177" fill="#aaff00"/>
	<line x1="60" y1="253" x2="69" y2="177" stroke="#aaff00" stroke-width="2"/>
</g>
<g>
	<polygon points="15,260 23,258 22,266" fill="#aaff00"/>
	<line x1="115" y1="281" x2="22" y2="262" stroke="#aaff00" stroke-width="2"/>
</g>
<g>
	<polygon points="40,257 49,255 46,263" fill="#aaff00"/>
	<line x1="115" y1="281" x2="47" y2="259" stroke="#aaff00" stroke-width="2"/>
</g>
<g>
	<polygon points="166,240 163,249 157,242" fill="#aaff00"/>
	<line x1="115" y1="281" x2="160" y2="245" stroke="#aaff00" stroke-width="2"/>
</g>
<g>
	<polygon points="87,241 95,245 88,250" fill="#aaff00"/>
	<line x1="115" y1="281" x2="91" y2="247" stroke="#aaff00" stroke-width="2"/>
</g>
<g>
	<polygon points="64,255 72,254 68,262" fill="#aaff00"/>
	<line x1="115" y1="281" x2="70" y2="258" stroke="#aaff00" stroke-width="2"/>
</g>
<g>
	<polygon points="188,245 183,253 179,245" fill="#aaff00"/>
	<line x1="115" y1="281" x2="182" y2="249" stroke="#aaff00" stroke-width="2"/>
</g>
<g>
	<polygon points="79,212 88,209 85,218" fill="#aaff00"/>
	<line x1="193" y1="244" x2="86" y2="214" stroke="#aaff00" stroke-width="2"/>
</g>
<g>
	<polygon points="114,222 123,219 120,228" fill="#aaff00"/>
	<line x1="193" y1="244" x2="121" y2="224" stroke="#aaff00" stroke-width="2"/>
</g>
<g>
	<polygon points="100,187 109,187 105,195" fill="#aaff00"/>
	<line x1="193" y1="244" x2="106" y2="191" stroke="#aaff00" stroke-width="2"/>
</g>
<g>
	<polygon points="74,168 83,168 78,176" fill="#aaff00"/>
	<line x1="193" y1="244" x2="80" y2="172" stroke="#aaff00" stroke-width="2"/>
</g>
<g>
	<polygon points="15,260 23,256 22,265" fill="#aaff00"/>
	<line x1="90" y1="268" x2="22" y2="261" stroke="#aaff00" stroke-width="2"/>
</g>
<g>
	<polygon points="40,256 48,254 47,263" fill="#aaff00"/>
	<line x1="90" y1="268" x2="47" y2="258" stroke="#aaff00" stroke-width="2"/>
</g>
<g>
	<polygon points="165,239 160,246 156,238" fill="#aaff00"/>
	<line x1="90" y1="268" x2="159" y2="242" stroke="#aaff00" stroke-width="2"/>
</g>
<g>
	<polygon points="85,242 91,249 82,250" fill="#aaff00"/>
	<line x1="90" y1="268" x2="86" y2="249" stroke="#aaff00" stroke-width="2"/>
</g>
<g>
	<polygon points="64,255 73,254 68,262" fill="#aaff00"/>
	<line x1="90" y1="268" x2="70" y2="258" stroke="#aaff00" stroke-width="2"/>
</g>
<g>
	<polygon points="188,245 182,251 180,242" fill="#aaff00"/>
	<line x1="90" y1="268" x2="181" y2="246" stroke="#aaff00" stroke-width="2"/>
</g>

<g fill="#000000">
	<circle cx="143" cy="257" r="4"/>
</g>
<g fill="#000000">
	<circle cx="141" cy="294" r="4"/>
</g>
<g fill="#000000">
	<circle cx="116" cy="247" r="4"/>
</g>
<g fill="#000000">
	<circle cx="114" cy="280" r="4"/>
</g>
<g fill="#000000">
	<circle cx="89" cy="267" r="4"/>
</g>
<g fill="#000000">
	<circle cx="10" cy="259" r="4"/>
</g>
<g fill="#000000">
	<circle cx="35" cy="255" r="4"/>
</g>
<g fill="#000000">
	<circle cx="169" cy="237" r="4"/>
</g>
<g fill="#000000">
	<circle cx="84" cy="237" r="4"/>
</g>
<g fill="#000000">
	<circle cx="59" cy="252" r="4"/>
</g>
<g fill="#000000">
	<circle cx="192" cy="243" r="4"/>
</g>
<g fill="#000000">
	<circle cx="74" cy="210" r="4"/>
</g>
<g fill="#000000">
	<circle cx="109" cy="220" r="4"/>
</g>
<g fill="#000000">
	<circle cx="96" cy="184" r="4"/>
</g>
<g fill="#000000">
	<circle cx="70" cy="165" r="4"/>
</g>
<g fill="#000000">
	<circle cx="158" cy="7" r="4"/>
</g>
<g fill="#000000">
	<circle cx="343" cy="6" r="4"/>
</g>
<g fill="#000000">
	<circle cx="308" cy="62" r="4"/>
</g>
<g fill="#000000">
	<circle cx="326" cy="24" r="4"/>
</g>
<g fill="#000000">
	<circle cx="339" cy="51" r="4"/>
</g>
<g fill="#000000">
	<circle cx="260" cy="60" r="4"/>
</g>
<g fill="#000000">
	<circle cx="390" cy="127" r="4"/>
</g>
<g fill="#000000">
	<circle cx="352" cy="77" r="4"/>
</g>
<g fill="#000000">
	<circle cx="370" cy="112" r="4"/>
</g>
<g fill="#000000">
	<circle cx="320" cy="88" r="4"/>
</g>
<g fill="#000000">
	<circle cx="279" cy="72" r="4"/>
</g>
<g fill="#000000">
	<circle cx="295" cy="153" r="4"/>
</g>
<g fill="#000000">
	<circle cx="289" cy="122" r="4"/>
</g>
<g fill="#000000">
	<circle cx="317" cy="118" r="4"/>
</g>
<g fill="#000000">
	<circle cx="345" cy="114" r="4"/>
</g>
<g fill="#000000">
	<circle cx="271" cy="172" r="4"/>
</g>
<g fill="#000000">
	<circle cx="178" cy="192" r="4"/>
</g>
<g fill="#000000">
	<circle cx="217" cy="66" r="4"/>
</g>
<g fill="#000000">
	<circle cx="214" cy="35" r="4"/>
</g>
<g fill="#000000">
	<circle cx="220" cy="98" r="4"/>
</g>
<g fill="#000000">
	<circle cx="153" cy="30" r="4"/>
</g>
<g fill="#000000">
	<circle cx="237" cy="162" r="4"/>
</g>
<g fill="#000000">
	<circle cx="204" cy="122" r="4"/>
</g>
<g fill="#000000">
	<circle cx="168" cy="69" r="4"/>
</g>
<g fill="#000000">
	<circle cx="225" cy="141" r="4"/>
</g>
<g fill="#000000">
	<circle cx="160" cy="51" r="4"/>
</g>
<g fill="#000000">
	<circle cx="171" cy="94" r="4"/>
</g>
<g fill="#000000">
	<circle cx="174" cy="140" r="4"/>
</g>
<g fill="#000000">
	<circle cx="176" cy="164" r="4"/>
</g>
<g fill="#000000">
	<circle cx="194" cy="84" r="4"/>
</g>
<g fill="#000000">
	<circle cx="173" cy="118" r="4"/>
</g>

</g>

</svg>
