<?xml version="1.0" encoding="utf-8"?>
<!-- Created with Hypercube (http://tumic.wz.cz/hypercube) -->

<svg width="400" height="300" viewBox="0 0 400 300" xmlns="http://www.w3.org/2000/svg" baseProfile="tiny">

<g font-family="Helvetica" font-weight="normal">

<g>
	<polygon points="291,66 282,67 286,59" fill="#aaff00"/>
	<line x1="258" y1="52" x2="285" y2="63" stroke="#aaff00" stroke-width="2"/>
</g>
<g>
	<polygon points="260,96 255,89 264,88" fill="#aaff00"/>
	<line x1="258" y1="52" x2="260" y2="89" stroke="#aaff00" stroke-width="2"/>
</g>
<g>
	<polygon points="331,77 322,79 325,70" fill="#aaff00"/>
	<line x1="258" y1="52" x2="324" y2="75" stroke="#aaff00" stroke-width="2"/>
</g>
<g>
	<polygon points="224,109 224,100 232,104" fill="#aaff00"/>
	<line x1="258" y1="52" x2="227" y2="102" stroke="#aaff00" stroke-width="2"/>
</g>
<g>
	<polygon points="129,69 136,63 137,72" fill="#aaff00"/>
	<line x1="258" y1="52" x2="136" y2="68" stroke="#aaff00" stroke-width="2"/>
</g>
<g>
	<polygon points="79,46 87,41 87,50" fill="#aaff00"/>
	<line x1="258" y1="52" x2="86" y2="46" stroke="#aaff00" stroke-width="2"/>
</g>
<g>
	<polygon points="301,179 294,173 303,170" fill="#aaff00"/>
	<line x1="258" y1="52" x2="299" y2="172" stroke="#aaff00" stroke-width="2"/>
</g>
<g>
	<polygon points="232,22 241,25 234,31" fill="#aaff00"/>
	<line x1="258" y1="52" x2="237" y2="27" stroke="#aaff00" stroke-width="2"/>
</g>
<g>
	<polygon points="317,32 311,39 308,30" fill="#aaff00"/>
	<line x1="258" y1="52" x2="310" y2="34" stroke="#aaff00" stroke-width="2"/>
</g>
<g>
	<polygon points="375,162 366,160 373,154" fill="#aaff00"/>
	<line x1="258" y1="52" x2="370" y2="157" stroke="#aaff00" stroke-width="2"/>
</g>
<g>
	<polygon points="324,119 316,117 322,111" fill="#aaff00"/>
	<line x1="258" y1="52" x2="319" y2="114" stroke="#aaff00" stroke-width="2"/>
</g>
<g>
	<polygon points="91,125 96,117 100,126" fill="#aaff00"/>
	<line x1="258" y1="52" x2="97" y2="122" stroke="#aaff00" stroke-width="2"/>
</g>
<g>
	<polygon points="177,189 177,180 185,184" fill="#aaff00"/>
	<line x1="258" y1="52" x2="180" y2="182" stroke="#aaff00" stroke-width="2"/>
</g>
<g>
	<polygon points="195,128 197,119 204,125" fill="#aaff00"/>
	<line x1="258" y1="52" x2="200" y2="122" stroke="#aaff00" stroke-width="2"/>
</g>
<g>
	<polygon points="218,115 214,123 209,115" fill="#aaff00"/>
	<line x1="193" y1="132" x2="212" y2="119" stroke="#aaff00" stroke-width="2"/>
</g>
<g>
	<polygon points="128,73 137,74 131,81" fill="#aaff00"/>
	<line x1="193" y1="132" x2="133" y2="77" stroke="#aaff00" stroke-width="2"/>
</g>
<g>
	<polygon points="91,127 99,123 99,132" fill="#aaff00"/>
	<line x1="193" y1="132" x2="98" y2="127" stroke="#aaff00" stroke-width="2"/>
</g>
<g>
	<polygon points="292,9 290,18 283,12" fill="#aaff00"/>
	<line x1="193" y1="132" x2="287" y2="15" stroke="#aaff00" stroke-width="2"/>
</g>
<g>
	<polygon points="229,200 222,195 230,191" fill="#aaff00"/>
	<line x1="193" y1="132" x2="226" y2="193" stroke="#aaff00" stroke-width="2"/>
</g>
<g>
	<polygon points="255,164 246,165 250,157" fill="#aaff00"/>
	<line x1="193" y1="132" x2="248" y2="161" stroke="#aaff00" stroke-width="2"/>
</g>
<g>
	<polygon points="120,68 111,68 115,60" fill="#aaff00"/>
	<line x1="75" y1="46" x2="114" y2="64" stroke="#aaff00" stroke-width="2"/>
</g>
<g>
	<polygon points="23,103 25,94 32,100" fill="#aaff00"/>
	<line x1="75" y1="46" x2="28" y2="98" stroke="#aaff00" stroke-width="2"/>
</g>
<g>
	<polygon points="60,10 67,15 59,19" fill="#aaff00"/>
	<line x1="75" y1="46" x2="63" y2="16" stroke="#aaff00" stroke-width="2"/>
</g>
<g>
	<polygon points="8,8 17,8 13,16" fill="#aaff00"/>
	<line x1="75" y1="46" x2="15" y2="11" stroke="#aaff00" stroke-width="2"/>
</g>
<g>
	<polygon points="9,51 16,46 17,55" fill="#aaff00"/>
	<line x1="75" y1="46" x2="16" y2="51" stroke="#aaff00" stroke-width="2"/>
</g>
<g>
	<polygon points="66,83 63,74 72,77" fill="#aaff00"/>
	<line x1="75" y1="46" x2="67" y2="76" stroke="#aaff00" stroke-width="2"/>
</g>
<g>
	<polygon points="122,73 121,82 114,77" fill="#aaff00"/>
	<line x1="87" y1="127" x2="118" y2="79" stroke="#aaff00" stroke-width="2"/>
</g>
<g>
	<polygon points="25,108 34,106 31,114" fill="#aaff00"/>
	<line x1="87" y1="127" x2="32" y2="110" stroke="#aaff00" stroke-width="2"/>
</g>
<g>
	<polygon points="67,91 74,96 67,100" fill="#aaff00"/>
	<line x1="87" y1="127" x2="70" y2="98" stroke="#aaff00" stroke-width="2"/>
</g>
<g>
	<polygon points="9,155 14,148 18,157" fill="#aaff00"/>
	<line x1="87" y1="127" x2="15" y2="152" stroke="#aaff00" stroke-width="2"/>
</g>
<g>
	<polygon points="86,184 81,176 90,176" fill="#aaff00"/>
	<line x1="87" y1="127" x2="86" y2="177" stroke="#aaff00" stroke-width="2"/>
</g>
<g>
	<polygon points="33,205 34,196 41,201" fill="#aaff00"/>
	<line x1="87" y1="127" x2="37" y2="199" stroke="#aaff00" stroke-width="2"/>
</g>
<g>
	<polygon points="299,6 307,1 307,10" fill="#aaff00"/>
	<line x1="358" y1="6" x2="306" y2="6" stroke="#aaff00" stroke-width="2"/>
</g>
<g>
	<polygon points="390,6 382,10 382,1" fill="#aaff00"/>
	<line x1="358" y1="6" x2="383" y2="6" stroke="#aaff00" stroke-width="2"/>
</g>
<g>
	<polygon points="359,10 366,16 357,19" fill="#aaff00"/>
	<line x1="395" y1="120" x2="361" y2="17" stroke="#aaff00" stroke-width="2"/>
</g>
<g>
	<polygon points="395,84 399,92 390,92" fill="#aaff00"/>
	<line x1="395" y1="120" x2="395" y2="91" stroke="#aaff00" stroke-width="2"/>
</g>
<g>
	<polygon points="307,182 313,176 316,185" fill="#aaff00"/>
	<line x1="379" y1="166" x2="314" y2="181" stroke="#aaff00" stroke-width="2"/>
</g>
<g>
	<polygon points="393,124 395,133 386,130" fill="#aaff00"/>
	<line x1="379" y1="166" x2="391" y2="131" stroke="#aaff00" stroke-width="2"/>
</g>
<g>
	<polygon points="349,164 357,160 357,169" fill="#aaff00"/>
	<line x1="379" y1="166" x2="356" y2="164" stroke="#aaff00" stroke-width="2"/>
</g>
<g>
	<polygon points="298,185 292,191 289,183" fill="#aaff00"/>
	<line x1="232" y1="204" x2="291" y2="187" stroke="#aaff00" stroke-width="2"/>
</g>
<g>
	<polygon points="343,159 336,154 344,150" fill="#aaff00"/>
	<line x1="328" y1="123" x2="340" y2="153" stroke="#aaff00" stroke-width="2"/>
</g>
<g>
	<polygon points="277,248 271,242 280,240" fill="#aaff00"/>
	<line x1="259" y1="167" x2="276" y2="241" stroke="#aaff00" stroke-width="2"/>
</g>
<g>
	<polygon points="223,72 230,77 222,81" fill="#aaff00"/>
	<line x1="259" y1="167" x2="226" y2="78" stroke="#aaff00" stroke-width="2"/>
</g>
<g>
	<polygon points="263,10 268,18 259,18" fill="#aaff00"/>
	<line x1="259" y1="167" x2="263" y2="17" stroke="#aaff00" stroke-width="2"/>
</g>
<g>
	<polygon points="223,262 222,253 230,257" fill="#aaff00"/>
	<line x1="259" y1="167" x2="226" y2="256" stroke="#aaff00" stroke-width="2"/>
</g>
<g>
	<polygon points="279,136 278,145 271,140" fill="#aaff00"/>
	<line x1="259" y1="167" x2="275" y2="142" stroke="#aaff00" stroke-width="2"/>
</g>
<g>
	<polygon points="149,130 158,128 155,137" fill="#aaff00"/>
	<line x1="259" y1="167" x2="156" y2="132" stroke="#aaff00" stroke-width="2"/>
</g>
<g>
	<polygon points="330,240 322,238 328,232" fill="#aaff00"/>
	<line x1="259" y1="167" x2="325" y2="235" stroke="#aaff00" stroke-width="2"/>
</g>
<g>
	<polygon points="193,81 198,73 202,82" fill="#aaff00"/>
	<line x1="222" y1="68" x2="199" y2="78" stroke="#aaff00" stroke-width="2"/>
</g>
<g>
	<polygon points="193,10 201,15 193,19" fill="#aaff00"/>
	<line x1="222" y1="68" x2="197" y2="16" stroke="#aaff00" stroke-width="2"/>
</g>
<g>
	<polygon points="160,95 165,88 169,96" fill="#aaff00"/>
	<line x1="189" y1="83" x2="166" y2="92" stroke="#aaff00" stroke-width="2"/>
</g>
<g>
	<polygon points="154,101 156,110 147,107" fill="#aaff00"/>
	<line x1="145" y1="129" x2="152" y2="108" stroke="#aaff00" stroke-width="2"/>
</g>
<g>
	<polygon points="173,44 175,53 166,50" fill="#aaff00"/>
	<line x1="145" y1="129" x2="171" y2="51" stroke="#aaff00" stroke-width="2"/>
</g>
<g>
	<polygon points="179,38 184,31 188,39" fill="#aaff00"/>
	<line x1="264" y1="6" x2="185" y2="35" stroke="#aaff00" stroke-width="2"/>
</g>
<g>
	<polygon points="362,48 353,49 357,41" fill="#aaff00"/>
	<line x1="264" y1="6" x2="356" y2="45" stroke="#aaff00" stroke-width="2"/>
</g>
<g>
	<polygon points="178,42 187,44 181,51" fill="#aaff00"/>
	<line x1="282" y1="133" x2="183" y2="47" stroke="#aaff00" stroke-width="2"/>
</g>
<g>
	<polygon points="363,53 361,61 355,55" fill="#aaff00"/>
	<line x1="282" y1="133" x2="358" y2="58" stroke="#aaff00" stroke-width="2"/>
</g>
<g>
	<polygon points="259,6 251,10 251,1" fill="#aaff00"/>
	<line x1="192" y1="6" x2="252" y2="6" stroke="#aaff00" stroke-width="2"/>
</g>
<g>
	<polygon points="141,6 149,1 149,10" fill="#aaff00"/>
	<line x1="192" y1="6" x2="148" y2="6" stroke="#aaff00" stroke-width="2"/>
</g>
<g>
	<polygon points="171,36 162,35 168,28" fill="#aaff00"/>
	<line x1="137" y1="6" x2="166" y2="32" stroke="#aaff00" stroke-width="2"/>
</g>
<g>
	<polygon points="142,253 141,244 149,248" fill="#aaff00"/>
	<line x1="175" y1="193" x2="145" y2="246" stroke="#aaff00" stroke-width="2"/>
</g>
<g>
	<polygon points="98,292 101,283 107,290" fill="#aaff00"/>
	<line x1="140" y1="257" x2="103" y2="287" stroke="#aaff00" stroke-width="2"/>
</g>

<g fill="#000000">
	<circle cx="257" cy="51" r="4"/>
</g>
<g fill="#000000">
	<circle cx="295" cy="67" r="4"/>
</g>
<g fill="#000000">
	<circle cx="260" cy="100" r="4"/>
</g>
<g fill="#000000">
	<circle cx="335" cy="78" r="4"/>
</g>
<g fill="#000000">
	<circle cx="221" cy="112" r="4"/>
</g>
<g fill="#000000">
	<circle cx="124" cy="69" r="4"/>
</g>
<g fill="#000000">
	<circle cx="74" cy="45" r="4"/>
</g>
<g fill="#000000">
	<circle cx="302" cy="183" r="4"/>
</g>
<g fill="#000000">
	<circle cx="229" cy="18" r="4"/>
</g>
<g fill="#000000">
	<circle cx="321" cy="30" r="4"/>
</g>
<g fill="#000000">
	<circle cx="378" cy="165" r="4"/>
</g>
<g fill="#000000">
	<circle cx="327" cy="122" r="4"/>
</g>
<g fill="#000000">
	<circle cx="86" cy="126" r="4"/>
</g>
<g fill="#000000">
	<circle cx="174" cy="192" r="4"/>
</g>
<g fill="#000000">
	<circle cx="192" cy="131" r="4"/>
</g>
<g fill="#000000">
	<circle cx="20" cy="106" r="4"/>
</g>
<g fill="#000000">
	<circle cx="58" cy="5" r="4"/>
</g>
<g fill="#000000">
	<circle cx="4" cy="5" r="4"/>
</g>
<g fill="#000000">
	<circle cx="4" cy="51" r="4"/>
</g>
<g fill="#000000">
	<circle cx="64" cy="87" r="4"/>
</g>
<g fill="#000000">
	<circle cx="394" cy="119" r="4"/>
</g>
<g fill="#000000">
	<circle cx="344" cy="163" r="4"/>
</g>
<g fill="#000000">
	<circle cx="357" cy="5" r="4"/>
</g>
<g fill="#000000">
	<circle cx="394" cy="79" r="4"/>
</g>
<g fill="#000000">
	<circle cx="294" cy="5" r="4"/>
</g>
<g fill="#000000">
	<circle cx="394" cy="5" r="4"/>
</g>
<g fill="#000000">
	<circle cx="4" cy="156" r="4"/>
</g>
<g fill="#000000">
	<circle cx="85" cy="188" r="4"/>
</g>
<g fill="#000000">
	<circle cx="30" cy="208" r="4"/>
</g>
<g fill="#000000">
	<circle cx="139" cy="256" r="4"/>
</g>
<g fill="#000000">
	<circle cx="94" cy="294" r="4"/>
</g>
<g fill="#000000">
	<circle cx="231" cy="203" r="4"/>
</g>
<g fill="#000000">
	<circle cx="258" cy="166" r="4"/>
</g>
<g fill="#000000">
	<circle cx="278" cy="252" r="4"/>
</g>
<g fill="#000000">
	<circle cx="221" cy="67" r="4"/>
</g>
<g fill="#000000">
	<circle cx="263" cy="5" r="4"/>
</g>
<g fill="#000000">
	<circle cx="221" cy="266" r="4"/>
</g>
<g fill="#000000">
	<circle cx="281" cy="132" r="4"/>
</g>
<g fill="#000000">
	<circle cx="144" cy="128" r="4"/>
</g>
<g fill="#000000">
	<circle cx="333" cy="243" r="4"/>
</g>
<g fill="#000000">
	<circle cx="188" cy="82" r="4"/>
</g>
<g fill="#000000">
	<circle cx="191" cy="5" r="4"/>
</g>
<g fill="#000000">
	<circle cx="155" cy="96" r="4"/>
</g>
<g fill="#000000">
	<circle cx="136" cy="5" r="4"/>
</g>
<g fill="#000000">
	<circle cx="174" cy="39" r="4"/>
</g>
<g fill="#000000">
	<circle cx="366" cy="49" r="4"/>
</g>

</g>

</svg>
