<?xml version="1.0" encoding="utf-8"?>
<!-- Created with Hypercube (http://tumic.wz.cz/hypercube) -->

<svg width="400" height="300" viewBox="0 0 400 300" xmlns="http://www.w3.org/2000/svg" baseProfile="tiny">

<g font-family="Helvetica" font-weight="normal">

<g>
	<polygon points="312,148 313,157 305,153" fill="#aaff00"/>
	<line x1="277" y1="245" x2="309" y2="154" stroke="#aaff00" stroke-width="2"/>
</g>
<g>
	<polygon points="229,202 238,203 232,210" fill="#aaff00"/>
	<line x1="277" y1="245" x2="234" y2="206" stroke="#aaff00" stroke-width="2"/>
</g>
<g>
	<polygon points="254,290 253,281 261,286" fill="#aaff00"/>
	<line x1="277" y1="245" x2="257" y2="284" stroke="#aaff00" stroke-width="2"/>
</g>
<g>
	<polygon points="350,186 341,183 348,177" fill="#aaff00"/>
	<line x1="314" y1="144" x2="345" y2="181" stroke="#aaff00" stroke-width="2"/>
</g>
<g>
	<polygon points="389,59 388,68 381,62" fill="#aaff00"/>
	<line x1="314" y1="144" x2="385" y2="64" stroke="#aaff00" stroke-width="2"/>
</g>
<g>
	<polygon points="334,233 333,224 341,228" fill="#aaff00"/>
	<line x1="353" y1="190" x2="337" y2="227" stroke="#aaff00" stroke-width="2"/>
</g>
<g>
	<polygon points="268,203 277,202 273,210" fill="#aaff00"/>
	<line x1="333" y1="238" x2="275" y2="206" stroke="#aaff00" stroke-width="2"/>
</g>
<g>
	<polygon points="182,230 188,223 191,232" fill="#aaff00"/>
	<line x1="265" y1="201" x2="189" y2="228" stroke="#aaff00" stroke-width="2"/>
</g>
<g>
	<polygon points="164,133 173,134 168,141" fill="#aaff00"/>
	<line x1="265" y1="201" x2="170" y2="137" stroke="#aaff00" stroke-width="2"/>
</g>
<g>
	<polygon points="89,258 95,252 98,260" fill="#aaff00"/>
	<line x1="178" y1="232" x2="96" y2="256" stroke="#aaff00" stroke-width="2"/>
</g>
<g>
	<polygon points="138,239 145,233 146,242" fill="#aaff00"/>
	<line x1="178" y1="232" x2="145" y2="237" stroke="#aaff00" stroke-width="2"/>
</g>
<g>
	<polygon points="161,293 152,294 156,285" fill="#aaff00"/>
	<line x1="85" y1="260" x2="155" y2="290" stroke="#aaff00" stroke-width="2"/>
</g>
<g>
	<polygon points="86,210 91,218 82,218" fill="#aaff00"/>
	<line x1="85" y1="260" x2="86" y2="217" stroke="#aaff00" stroke-width="2"/>
</g>
<g>
	<polygon points="9,293 14,285 18,294" fill="#aaff00"/>
	<line x1="85" y1="260" x2="15" y2="290" stroke="#aaff00" stroke-width="2"/>
</g>
<g>
	<polygon points="54,291 56,283 62,289" fill="#aaff00"/>
	<line x1="85" y1="260" x2="59" y2="286" stroke="#aaff00" stroke-width="2"/>
</g>
<g>
	<polygon points="103,291 95,286 103,282" fill="#aaff00"/>
	<line x1="85" y1="260" x2="99" y2="284" stroke="#aaff00" stroke-width="2"/>
</g>
<g>
	<polygon points="247,295 239,299 239,290" fill="#aaff00"/>
	<line x1="166" y1="295" x2="240" y2="295" stroke="#aaff00" stroke-width="2"/>
</g>
<g>
	<polygon points="203,295 195,299 195,290" fill="#aaff00"/>
	<line x1="166" y1="295" x2="196" y2="295" stroke="#aaff00" stroke-width="2"/>
</g>
<g>
	<polygon points="212,295 220,290 220,299" fill="#aaff00"/>
	<line x1="252" y1="295" x2="219" y2="295" stroke="#aaff00" stroke-width="2"/>
</g>
<g>
	<polygon points="85,201 77,196 86,192" fill="#aaff00"/>
	<line x1="62" y1="150" x2="82" y2="195" stroke="#aaff00" stroke-width="2"/>
</g>
<g>
	<polygon points="39,200 38,191 47,195" fill="#aaff00"/>
	<line x1="62" y1="150" x2="42" y2="194" stroke="#aaff00" stroke-width="2"/>
</g>
<g>
	<polygon points="8,232 10,224 17,230" fill="#aaff00"/>
	<line x1="38" y1="205" x2="13" y2="227" stroke="#aaff00" stroke-width="2"/>
</g>
<g>
	<polygon points="8,183 17,184 12,191" fill="#aaff00"/>
	<line x1="38" y1="205" x2="14" y2="187" stroke="#aaff00" stroke-width="2"/>
</g>
<g>
	<polygon points="80,258 71,260 74,252" fill="#aaff00"/>
	<line x1="5" y1="236" x2="73" y2="256" stroke="#aaff00" stroke-width="2"/>
</g>
<g>
	<polygon points="5,231 0,223 9,223" fill="#aaff00"/>
	<line x1="5" y1="181" x2="5" y2="224" stroke="#aaff00" stroke-width="2"/>
</g>
<g>
	<polygon points="66,149 73,144 74,153" fill="#aaff00"/>
	<line x1="113" y1="145" x2="73" y2="148" stroke="#aaff00" stroke-width="2"/>
</g>
<g>
	<polygon points="80,113 88,115 82,121" fill="#aaff00"/>
	<line x1="113" y1="145" x2="85" y2="118" stroke="#aaff00" stroke-width="2"/>
</g>
<g>
	<polygon points="63,145 62,136 70,140" fill="#aaff00"/>
	<line x1="77" y1="110" x2="66" y2="139" stroke="#aaff00" stroke-width="2"/>
</g>
<g>
	<polygon points="64,146 65,137 72,142" fill="#aaff00"/>
	<line x1="111" y1="81" x2="68" y2="140" stroke="#aaff00" stroke-width="2"/>
</g>
<g>
	<polygon points="80,107 83,98 89,105" fill="#aaff00"/>
	<line x1="111" y1="81" x2="85" y2="102" stroke="#aaff00" stroke-width="2"/>
</g>
<g>
	<polygon points="110,76 104,69 113,68" fill="#aaff00"/>
	<line x1="104" y1="36" x2="109" y2="69" stroke="#aaff00" stroke-width="2"/>
</g>
<g>
	<polygon points="36,24 44,21 43,30" fill="#aaff00"/>
	<line x1="104" y1="36" x2="43" y2="25" stroke="#aaff00" stroke-width="2"/>
</g>
<g>
	<polygon points="46,63 39,57 48,54" fill="#aaff00"/>
	<line x1="32" y1="24" x2="44" y2="57" stroke="#aaff00" stroke-width="2"/>
</g>
<g>
	<polygon points="6,92 5,83 13,87" fill="#aaff00"/>
	<line x1="32" y1="24" x2="9" y2="86" stroke="#aaff00" stroke-width="2"/>
</g>
<g>
	<polygon points="61,145 55,138 64,137" fill="#aaff00"/>
	<line x1="48" y1="68" x2="60" y2="138" stroke="#aaff00" stroke-width="2"/>
</g>
<g>
	<polygon points="74,106 66,102 73,97" fill="#aaff00"/>
	<line x1="48" y1="68" x2="70" y2="100" stroke="#aaff00" stroke-width="2"/>
</g>
<g>
	<polygon points="58,146 49,144 56,138" fill="#aaff00"/>
	<line x1="5" y1="97" x2="53" y2="142" stroke="#aaff00" stroke-width="2"/>
</g>
<g>
	<polygon points="28,118 19,116 26,110" fill="#aaff00"/>
	<line x1="5" y1="97" x2="23" y2="114" stroke="#aaff00" stroke-width="2"/>
</g>
<g>
	<polygon points="58,146 49,144 56,138" fill="#aaff00"/>
	<line x1="32" y1="122" x2="53" y2="142" stroke="#aaff00" stroke-width="2"/>
</g>
<g>
	<polygon points="72,111 66,117 63,108" fill="#aaff00"/>
	<line x1="32" y1="122" x2="65" y2="113" stroke="#aaff00" stroke-width="2"/>
</g>
<g>
	<polygon points="117,143 123,137 126,145" fill="#aaff00"/>
	<line x1="161" y1="131" x2="124" y2="141" stroke="#aaff00" stroke-width="2"/>
</g>
<g>
	<polygon points="106,39 114,44 106,48" fill="#aaff00"/>
	<line x1="161" y1="131" x2="110" y2="46" stroke="#aaff00" stroke-width="2"/>
</g>
<g>
	<polygon points="89,258 94,251 98,259" fill="#aaff00"/>
	<line x1="134" y1="240" x2="95" y2="255" stroke="#aaff00" stroke-width="2"/>
</g>
<g>
	<polygon points="356,187 359,178 365,185" fill="#aaff00"/>
	<line x1="392" y1="157" x2="361" y2="182" stroke="#aaff00" stroke-width="2"/>
</g>
<g>
	<polygon points="394,215 389,207 398,207" fill="#aaff00"/>
	<line x1="392" y1="157" x2="394" y2="208" stroke="#aaff00" stroke-width="2"/>
</g>
<g>
	<polygon points="356,192 365,193 360,200" fill="#aaff00"/>
	<line x1="395" y1="220" x2="362" y2="196" stroke="#aaff00" stroke-width="2"/>
</g>
<g>
	<polygon points="392,152 388,144 397,145" fill="#aaff00"/>
	<line x1="395" y1="110" x2="392" y2="145" stroke="#aaff00" stroke-width="2"/>
</g>
<g>
	<polygon points="390,108 381,110 384,101" fill="#aaff00"/>
	<line x1="357" y1="97" x2="383" y2="106" stroke="#aaff00" stroke-width="2"/>
</g>
<g>
	<polygon points="389,153 381,148 389,144" fill="#aaff00"/>
	<line x1="336" y1="62" x2="386" y2="146" stroke="#aaff00" stroke-width="2"/>
</g>
<g>
	<polygon points="354,93 346,88 354,84" fill="#aaff00"/>
	<line x1="336" y1="62" x2="350" y2="86" stroke="#aaff00" stroke-width="2"/>
</g>
<g>
	<polygon points="340,61 347,56 348,65" fill="#aaff00"/>
	<line x1="393" y1="56" x2="347" y2="60" stroke="#aaff00" stroke-width="2"/>
</g>
<g>
	<polygon points="394,10 399,18 390,18" fill="#aaff00"/>
	<line x1="393" y1="56" x2="394" y2="17" stroke="#aaff00" stroke-width="2"/>
</g>
<g>
	<polygon points="339,58 341,50 348,56" fill="#aaff00"/>
	<line x1="395" y1="6" x2="344" y2="53" stroke="#aaff00" stroke-width="2"/>
</g>
<g>
	<polygon points="318,5 326,0 326,9" fill="#aaff00"/>
	<line x1="395" y1="6" x2="325" y2="5" stroke="#aaff00" stroke-width="2"/>
</g>
<g>
	<polygon points="266,5 274,0 274,9" fill="#aaff00"/>
	<line x1="314" y1="5" x2="273" y2="5" stroke="#aaff00" stroke-width="2"/>
</g>
<g>
	<polygon points="283,74 277,68 285,65" fill="#aaff00"/>
	<line x1="262" y1="5" x2="281" y2="67" stroke="#aaff00" stroke-width="2"/>
</g>
<g>
	<polygon points="290,32 282,30 288,24" fill="#aaff00"/>
	<line x1="262" y1="5" x2="285" y2="27" stroke="#aaff00" stroke-width="2"/>
</g>
<g>
	<polygon points="331,63 325,70 322,61" fill="#aaff00"/>
	<line x1="285" y1="79" x2="324" y2="65" stroke="#aaff00" stroke-width="2"/>
</g>
<g>
	<polygon points="332,59 323,59 327,51" fill="#aaff00"/>
	<line x1="294" y1="36" x2="326" y2="55" stroke="#aaff00" stroke-width="2"/>
</g>
<g>
	<polygon points="346,8 341,15 337,7" fill="#aaff00"/>
	<line x1="294" y1="36" x2="339" y2="11" stroke="#aaff00" stroke-width="2"/>
</g>
<g>
	<polygon points="337,57 334,48 343,51" fill="#aaff00"/>
	<line x1="350" y1="6" x2="338" y2="50" stroke="#aaff00" stroke-width="2"/>
</g>
<g>
	<polygon points="309,144 302,149 301,140" fill="#aaff00"/>
	<line x1="262" y1="150" x2="302" y2="145" stroke="#aaff00" stroke-width="2"/>
</g>
<g>
	<polygon points="220,140 229,137 226,146" fill="#aaff00"/>
	<line x1="262" y1="150" x2="227" y2="141" stroke="#aaff00" stroke-width="2"/>
</g>
<g>
	<polygon points="187,79 195,84 187,88" fill="#aaff00"/>
	<line x1="216" y1="139" x2="190" y2="85" stroke="#aaff00" stroke-width="2"/>
</g>
<g>
	<polygon points="191,26 195,34 186,33" fill="#aaff00"/>
	<line x1="186" y1="75" x2="190" y2="33" stroke="#aaff00" stroke-width="2"/>
</g>
<g>
	<polygon points="229,73 221,78 221,69" fill="#aaff00"/>
	<line x1="186" y1="75" x2="222" y2="73" stroke="#aaff00" stroke-width="2"/>
</g>
<g>
	<polygon points="231,69 222,66 229,60" fill="#aaff00"/>
	<line x1="192" y1="22" x2="226" y2="63" stroke="#aaff00" stroke-width="2"/>
</g>
<g>
	<polygon points="310,141 301,139 307,132" fill="#aaff00"/>
	<line x1="234" y1="73" x2="305" y2="136" stroke="#aaff00" stroke-width="2"/>
</g>
<g>
	<polygon points="259,153 258,162 251,157" fill="#aaff00"/>
	<line x1="226" y1="199" x2="255" y2="159" stroke="#aaff00" stroke-width="2"/>
</g>
<g>
	<polygon points="216,143 222,150 213,151" fill="#aaff00"/>
	<line x1="226" y1="199" x2="217" y2="150" stroke="#aaff00" stroke-width="2"/>
</g>

<g fill="#000000">
	<circle cx="276" cy="244" r="4"/>
</g>
<g fill="#000000">
	<circle cx="313" cy="143" r="4"/>
</g>
<g fill="#000000">
	<circle cx="225" cy="198" r="4"/>
</g>
<g fill="#000000">
	<circle cx="352" cy="189" r="4"/>
</g>
<g fill="#000000">
	<circle cx="392" cy="55" r="4"/>
</g>
<g fill="#000000">
	<circle cx="261" cy="149" r="4"/>
</g>
<g fill="#000000">
	<circle cx="215" cy="138" r="4"/>
</g>
<g fill="#000000">
	<circle cx="264" cy="200" r="4"/>
</g>
<g fill="#000000">
	<circle cx="177" cy="231" r="4"/>
</g>
<g fill="#000000">
	<circle cx="160" cy="130" r="4"/>
</g>
<g fill="#000000">
	<circle cx="84" cy="259" r="4"/>
</g>
<g fill="#000000">
	<circle cx="165" cy="294" r="4"/>
</g>
<g fill="#000000">
	<circle cx="86" cy="205" r="4"/>
</g>
<g fill="#000000">
	<circle cx="4" cy="294" r="4"/>
</g>
<g fill="#000000">
	<circle cx="50" cy="294" r="4"/>
</g>
<g fill="#000000">
	<circle cx="105" cy="294" r="4"/>
</g>
<g fill="#000000">
	<circle cx="394" cy="109" r="4"/>
</g>
<g fill="#000000">
	<circle cx="391" cy="156" r="4"/>
</g>
<g fill="#000000">
	<circle cx="261" cy="4" r="4"/>
</g>
<g fill="#000000">
	<circle cx="284" cy="78" r="4"/>
</g>
<g fill="#000000">
	<circle cx="293" cy="35" r="4"/>
</g>
<g fill="#000000">
	<circle cx="191" cy="21" r="4"/>
</g>
<g fill="#000000">
	<circle cx="233" cy="72" r="4"/>
</g>
<g fill="#000000">
	<circle cx="251" cy="294" r="4"/>
</g>
<g fill="#000000">
	<circle cx="207" cy="294" r="4"/>
</g>
<g fill="#000000">
	<circle cx="4" cy="235" r="4"/>
</g>
<g fill="#000000">
	<circle cx="133" cy="239" r="4"/>
</g>
<g fill="#000000">
	<circle cx="112" cy="144" r="4"/>
</g>
<g fill="#000000">
	<circle cx="103" cy="35" r="4"/>
</g>
<g fill="#000000">
	<circle cx="332" cy="237" r="4"/>
</g>
<g fill="#000000">
	<circle cx="335" cy="61" r="4"/>
</g>
<g fill="#000000">
	<circle cx="394" cy="5" r="4"/>
</g>
<g fill="#000000">
	<circle cx="394" cy="219" r="4"/>
</g>
<g fill="#000000">
	<circle cx="356" cy="96" r="4"/>
</g>
<g fill="#000000">
	<circle cx="313" cy="4" r="4"/>
</g>
<g fill="#000000">
	<circle cx="349" cy="5" r="4"/>
</g>
<g fill="#000000">
	<circle cx="185" cy="74" r="4"/>
</g>
<g fill="#000000">
	<circle cx="37" cy="204" r="4"/>
</g>
<g fill="#000000">
	<circle cx="4" cy="180" r="4"/>
</g>
<g fill="#000000">
	<circle cx="61" cy="149" r="4"/>
</g>
<g fill="#000000">
	<circle cx="76" cy="109" r="4"/>
</g>
<g fill="#000000">
	<circle cx="110" cy="80" r="4"/>
</g>
<g fill="#000000">
	<circle cx="47" cy="67" r="4"/>
</g>
<g fill="#000000">
	<circle cx="4" cy="96" r="4"/>
</g>
<g fill="#000000">
	<circle cx="31" cy="121" r="4"/>
</g>
<g fill="#000000">
	<circle cx="31" cy="23" r="4"/>
</g>

</g>

</svg>
