<?xml version="1.0" encoding="utf-8"?>
<!-- Created with Hypercube (http://tumic.wz.cz/hypercube) -->

<svg width="400" height="300" viewBox="0 0 400 300" xmlns="http://www.w3.org/2000/svg" baseProfile="tiny">

<g font-family="Helvetica" font-weight="normal">

<g>
	<polygon points="274,197 265,194 272,188" fill="#aaff00"/>
	<line x1="245" y1="160" x2="269" y2="191" stroke="#aaff00" stroke-width="2"/>
</g>
<g>
	<polygon points="91,252 96,244 100,252" fill="#aaff00"/>
	<line x1="245" y1="160" x2="98" y2="248" stroke="#aaff00" stroke-width="2"/>
</g>
<g>
	<polygon points="333,101 329,109 324,102" fill="#aaff00"/>
	<line x1="245" y1="160" x2="327" y2="105" stroke="#aaff00" stroke-width="2"/>
</g>
<g>
	<polygon points="262,93 265,102 256,99" fill="#aaff00"/>
	<line x1="245" y1="160" x2="260" y2="100" stroke="#aaff00" stroke-width="2"/>
</g>
<g>
	<polygon points="293,60 293,69 285,65" fill="#aaff00"/>
	<line x1="245" y1="160" x2="289" y2="66" stroke="#aaff00" stroke-width="2"/>
</g>
<g>
	<polygon points="283,139 278,146 274,138" fill="#aaff00"/>
	<line x1="245" y1="160" x2="276" y2="142" stroke="#aaff00" stroke-width="2"/>
</g>
<g>
	<polygon points="318,202 309,202 313,194" fill="#aaff00"/>
	<line x1="245" y1="160" x2="311" y2="199" stroke="#aaff00" stroke-width="2"/>
</g>
<g>
	<polygon points="294,248 287,242 296,239" fill="#aaff00"/>
	<line x1="277" y1="201" x2="291" y2="242" stroke="#aaff00" stroke-width="2"/>
</g>
<g>
	<polygon points="319,208 320,217 312,213" fill="#aaff00"/>
	<line x1="296" y1="253" x2="316" y2="215" stroke="#aaff00" stroke-width="2"/>
</g>
<g>
	<polygon points="382,185 379,194 373,186" fill="#aaff00"/>
	<line x1="296" y1="253" x2="376" y2="190" stroke="#aaff00" stroke-width="2"/>
</g>
<g>
	<polygon points="373,292 364,293 368,285" fill="#aaff00"/>
	<line x1="296" y1="253" x2="366" y2="289" stroke="#aaff00" stroke-width="2"/>
</g>
<g>
	<polygon points="311,290 304,285 312,281" fill="#aaff00"/>
	<line x1="296" y1="253" x2="308" y2="284" stroke="#aaff00" stroke-width="2"/>
</g>
<g>
	<polygon points="354,252 346,256 346,247" fill="#aaff00"/>
	<line x1="296" y1="253" x2="347" y2="252" stroke="#aaff00" stroke-width="2"/>
</g>
<g>
	<polygon points="382,107 387,115 378,115" fill="#aaff00"/>
	<line x1="386" y1="183" x2="382" y2="114" stroke="#aaff00" stroke-width="2"/>
</g>
<g>
	<polygon points="393,53 396,62 387,59" fill="#aaff00"/>
	<line x1="382" y1="103" x2="392" y2="60" stroke="#aaff00" stroke-width="2"/>
</g>
<g>
	<polygon points="377,102 369,106 370,97" fill="#aaff00"/>
	<line x1="337" y1="99" x2="370" y2="101" stroke="#aaff00" stroke-width="2"/>
</g>
<g>
	<polygon points="379,99 372,94 380,90" fill="#aaff00"/>
	<line x1="333" y1="13" x2="376" y2="92" stroke="#aaff00" stroke-width="2"/>
</g>
<g>
	<polygon points="111,5 119,1 119,10" fill="#aaff00"/>
	<line x1="238" y1="5" x2="118" y2="5" stroke="#aaff00" stroke-width="2"/>
</g>
<g>
	<polygon points="328,12 320,16 321,7" fill="#aaff00"/>
	<line x1="238" y1="5" x2="321" y2="12" stroke="#aaff00" stroke-width="2"/>
</g>
<g>
	<polygon points="198,6 206,1 206,10" fill="#aaff00"/>
	<line x1="238" y1="5" x2="205" y2="6" stroke="#aaff00" stroke-width="2"/>
</g>
<g>
	<polygon points="20,76 23,67 29,74" fill="#aaff00"/>
	<line x1="107" y1="6" x2="26" y2="71" stroke="#aaff00" stroke-width="2"/>
</g>
<g>
	<polygon points="55,59 51,66 47,58" fill="#aaff00"/>
	<line x1="17" y1="79" x2="49" y2="62" stroke="#aaff00" stroke-width="2"/>
</g>
<g>
	<polygon points="117,78 108,79 112,71" fill="#aaff00"/>
	<line x1="60" y1="57" x2="111" y2="75" stroke="#aaff00" stroke-width="2"/>
</g>
<g>
	<polygon points="125,76 127,68 133,74" fill="#aaff00"/>
	<line x1="194" y1="7" x2="130" y2="71" stroke="#aaff00" stroke-width="2"/>
</g>
<g>
	<polygon points="125,82 134,83 129,90" fill="#aaff00"/>
	<line x1="164" y1="109" x2="131" y2="86" stroke="#aaff00" stroke-width="2"/>
</g>
<g>
	<polygon points="85,104 94,103 90,111" fill="#aaff00"/>
	<line x1="198" y1="147" x2="91" y2="107" stroke="#aaff00" stroke-width="2"/>
</g>
<g>
	<polygon points="220,118 218,127 211,121" fill="#aaff00"/>
	<line x1="198" y1="147" x2="215" y2="124" stroke="#aaff00" stroke-width="2"/>
</g>
<g>
	<polygon points="329,147 321,151 321,142" fill="#aaff00"/>
	<line x1="198" y1="147" x2="322" y2="147" stroke="#aaff00" stroke-width="2"/>
</g>
<g>
	<polygon points="238,220 231,215 238,211" fill="#aaff00"/>
	<line x1="198" y1="147" x2="235" y2="213" stroke="#aaff00" stroke-width="2"/>
</g>
<g>
	<polygon points="167,112 175,115 168,121" fill="#aaff00"/>
	<line x1="198" y1="147" x2="171" y2="117" stroke="#aaff00" stroke-width="2"/>
</g>
<g>
	<polygon points="21,80 30,79 26,87" fill="#aaff00"/>
	<line x1="81" y1="103" x2="27" y2="83" stroke="#aaff00" stroke-width="2"/>
</g>
<g>
	<polygon points="243,155 235,150 243,146" fill="#aaff00"/>
	<line x1="223" y1="115" x2="239" y2="149" stroke="#aaff00" stroke-width="2"/>
</g>
<g>
	<polygon points="378,106 375,114 369,107" fill="#aaff00"/>
	<line x1="334" y1="147" x2="373" y2="110" stroke="#aaff00" stroke-width="2"/>
</g>
<g>
	<polygon points="292,250 283,251 287,243" fill="#aaff00"/>
	<line x1="241" y1="224" x2="285" y2="247" stroke="#aaff00" stroke-width="2"/>
</g>
<g>
	<polygon points="122,84 126,92 117,92" fill="#aaff00"/>
	<line x1="123" y1="147" x2="122" y2="91" stroke="#aaff00" stroke-width="2"/>
</g>
<g>
	<polygon points="31,189 40,187 37,196" fill="#aaff00"/>
	<line x1="141" y1="229" x2="38" y2="191" stroke="#aaff00" stroke-width="2"/>
</g>
<g>
	<polygon points="188,214 182,220 179,212" fill="#aaff00"/>
	<line x1="141" y1="229" x2="181" y2="216" stroke="#aaff00" stroke-width="2"/>
</g>
<g>
	<polygon points="224,270 215,270 219,262" fill="#aaff00"/>
	<line x1="141" y1="229" x2="218" y2="266" stroke="#aaff00" stroke-width="2"/>
</g>
<g>
	<polygon points="123,151 130,158 121,159" fill="#aaff00"/>
	<line x1="141" y1="229" x2="125" y2="158" stroke="#aaff00" stroke-width="2"/>
</g>
<g>
	<polygon points="17,83 22,90 13,91" fill="#aaff00"/>
	<line x1="27" y1="188" x2="18" y2="90" stroke="#aaff00" stroke-width="2"/>
</g>
<g>
	<polygon points="241,163 239,171 233,165" fill="#aaff00"/>
	<line x1="193" y1="213" x2="236" y2="168" stroke="#aaff00" stroke-width="2"/>
</g>
<g>
	<polygon points="291,254 285,260 282,252" fill="#aaff00"/>
	<line x1="229" y1="272" x2="284" y2="256" stroke="#aaff00" stroke-width="2"/>
</g>
<g>
	<polygon points="119,83 119,92 111,88" fill="#aaff00"/>
	<line x1="76" y1="153" x2="115" y2="89" stroke="#aaff00" stroke-width="2"/>
</g>
<g>
	<polygon points="25,136 33,138 27,144" fill="#aaff00"/>
	<line x1="93" y1="201" x2="30" y2="141" stroke="#aaff00" stroke-width="2"/>
</g>
<g>
	<polygon points="153,182 147,188 144,180" fill="#aaff00"/>
	<line x1="93" y1="201" x2="146" y2="184" stroke="#aaff00" stroke-width="2"/>
</g>
<g>
	<polygon points="175,283 167,281 173,275" fill="#aaff00"/>
	<line x1="93" y1="201" x2="170" y2="278" stroke="#aaff00" stroke-width="2"/>
</g>
<g>
	<polygon points="77,157 84,163 75,166" fill="#aaff00"/>
	<line x1="93" y1="201" x2="79" y2="164" stroke="#aaff00" stroke-width="2"/>
</g>
<g>
	<polygon points="17,83 22,90 13,91" fill="#aaff00"/>
	<line x1="22" y1="133" x2="18" y2="90" stroke="#aaff00" stroke-width="2"/>
</g>
<g>
	<polygon points="240,161 234,167 231,158" fill="#aaff00"/>
	<line x1="158" y1="181" x2="233" y2="162" stroke="#aaff00" stroke-width="2"/>
</g>
<g>
	<polygon points="291,254 285,260 282,252" fill="#aaff00"/>
	<line x1="179" y1="287" x2="284" y2="256" stroke="#aaff00" stroke-width="2"/>
</g>
<g>
	<polygon points="125,77 129,69 134,76" fill="#aaff00"/>
	<line x1="160" y1="54" x2="131" y2="73" stroke="#aaff00" stroke-width="2"/>
</g>
<g>
	<polygon points="164,54 172,50 171,59" fill="#aaff00"/>
	<line x1="208" y1="57" x2="171" y2="54" stroke="#aaff00" stroke-width="2"/>
</g>
<g>
	<polygon points="16,74 10,67 19,66" fill="#aaff00"/>
	<line x1="5" y1="16" x2="14" y2="67" stroke="#aaff00" stroke-width="2"/>
</g>
<g>
	<polygon points="9,15 16,9 17,17" fill="#aaff00"/>
	<line x1="57" y1="5" x2="16" y2="13" stroke="#aaff00" stroke-width="2"/>
</g>
<g>
	<polygon points="148,5 140,9 140,0" fill="#aaff00"/>
	<line x1="57" y1="5" x2="141" y2="5" stroke="#aaff00" stroke-width="2"/>
</g>
<g>
	<polygon points="233,5 225,9 225,0" fill="#aaff00"/>
	<line x1="153" y1="5" x2="226" y2="5" stroke="#aaff00" stroke-width="2"/>
</g>
<g>
	<polygon points="47,291 50,283 56,290" fill="#aaff00"/>
	<line x1="88" y1="255" x2="52" y2="287" stroke="#aaff00" stroke-width="2"/>
</g>
<g>
	<polygon points="107,291 100,286 108,282" fill="#aaff00"/>
	<line x1="88" y1="255" x2="104" y2="284" stroke="#aaff00" stroke-width="2"/>
</g>
<g>
	<polygon points="9,260 16,255 17,264" fill="#aaff00"/>
	<line x1="88" y1="255" x2="16" y2="260" stroke="#aaff00" stroke-width="2"/>
</g>

<g fill="#000000">
	<circle cx="244" cy="159" r="4"/>
</g>
<g fill="#000000">
	<circle cx="276" cy="200" r="4"/>
</g>
<g fill="#000000">
	<circle cx="87" cy="254" r="4"/>
</g>
<g fill="#000000">
	<circle cx="336" cy="98" r="4"/>
</g>
<g fill="#000000">
	<circle cx="263" cy="88" r="4"/>
</g>
<g fill="#000000">
	<circle cx="294" cy="55" r="4"/>
</g>
<g fill="#000000">
	<circle cx="286" cy="136" r="4"/>
</g>
<g fill="#000000">
	<circle cx="295" cy="252" r="4"/>
</g>
<g fill="#000000">
	<circle cx="321" cy="204" r="4"/>
</g>
<g fill="#000000">
	<circle cx="385" cy="182" r="4"/>
</g>
<g fill="#000000">
	<circle cx="376" cy="294" r="4"/>
</g>
<g fill="#000000">
	<circle cx="312" cy="294" r="4"/>
</g>
<g fill="#000000">
	<circle cx="358" cy="251" r="4"/>
</g>
<g fill="#000000">
	<circle cx="16" cy="78" r="4"/>
</g>
<g fill="#000000">
	<circle cx="59" cy="56" r="4"/>
</g>
<g fill="#000000">
	<circle cx="381" cy="102" r="4"/>
</g>
<g fill="#000000">
	<circle cx="394" cy="48" r="4"/>
</g>
<g fill="#000000">
	<circle cx="237" cy="4" r="4"/>
</g>
<g fill="#000000">
	<circle cx="106" cy="5" r="4"/>
</g>
<g fill="#000000">
	<circle cx="332" cy="12" r="4"/>
</g>
<g fill="#000000">
	<circle cx="193" cy="6" r="4"/>
</g>
<g fill="#000000">
	<circle cx="56" cy="4" r="4"/>
</g>
<g fill="#000000">
	<circle cx="4" cy="15" r="4"/>
</g>
<g fill="#000000">
	<circle cx="152" cy="4" r="4"/>
</g>
<g fill="#000000">
	<circle cx="43" cy="294" r="4"/>
</g>
<g fill="#000000">
	<circle cx="197" cy="146" r="4"/>
</g>
<g fill="#000000">
	<circle cx="80" cy="102" r="4"/>
</g>
<g fill="#000000">
	<circle cx="222" cy="114" r="4"/>
</g>
<g fill="#000000">
	<circle cx="333" cy="146" r="4"/>
</g>
<g fill="#000000">
	<circle cx="240" cy="223" r="4"/>
</g>
<g fill="#000000">
	<circle cx="163" cy="108" r="4"/>
</g>
<g fill="#000000">
	<circle cx="140" cy="228" r="4"/>
</g>
<g fill="#000000">
	<circle cx="26" cy="187" r="4"/>
</g>
<g fill="#000000">
	<circle cx="192" cy="212" r="4"/>
</g>
<g fill="#000000">
	<circle cx="228" cy="271" r="4"/>
</g>
<g fill="#000000">
	<circle cx="122" cy="146" r="4"/>
</g>
<g fill="#000000">
	<circle cx="92" cy="200" r="4"/>
</g>
<g fill="#000000">
	<circle cx="21" cy="132" r="4"/>
</g>
<g fill="#000000">
	<circle cx="157" cy="180" r="4"/>
</g>
<g fill="#000000">
	<circle cx="178" cy="286" r="4"/>
</g>
<g fill="#000000">
	<circle cx="75" cy="152" r="4"/>
</g>
<g fill="#000000">
	<circle cx="109" cy="294" r="4"/>
</g>
<g fill="#000000">
	<circle cx="207" cy="56" r="4"/>
</g>
<g fill="#000000">
	<circle cx="159" cy="53" r="4"/>
</g>
<g fill="#000000">
	<circle cx="4" cy="260" r="4"/>
</g>
<g fill="#000000">
	<circle cx="121" cy="79" r="4"/>
</g>

</g>

</svg>
