<?xml version="1.0" encoding="utf-8"?>
<!-- Created with Hypercube (http://tumic.wz.cz/hypercube) -->

<svg width="400" height="300" viewBox="0 0 400 300" xmlns="http://www.w3.org/2000/svg" baseProfile="tiny">

<g font-family="Helvetica" font-weight="normal">

<g>
	<polygon points="339,293 345,287 348,296" fill="#aaff00"/>
	<line x1="384" y1="283" x2="346" y2="292" stroke="#aaff00" stroke-width="2"/>
</g>
<g>
	<polygon points="305,202 313,204 307,210" fill="#aaff00"/>
	<line x1="384" y1="283" x2="310" y2="207" stroke="#aaff00" stroke-width="2"/>
</g>
<g>
	<polygon points="212,276 220,273 219,282" fill="#aaff00"/>
	<line x1="335" y1="295" x2="219" y2="277" stroke="#aaff00" stroke-width="2"/>
</g>
<g>
	<polygon points="216,176 220,184 211,183" fill="#aaff00"/>
	<line x1="208" y1="276" x2="215" y2="183" stroke="#aaff00" stroke-width="2"/>
</g>
<g>
	<polygon points="266,221 264,229 257,223" fill="#aaff00"/>
	<line x1="208" y1="276" x2="261" y2="225" stroke="#aaff00" stroke-width="2"/>
</g>
<g>
	<polygon points="181,190 187,196 179,199" fill="#aaff00"/>
	<line x1="208" y1="276" x2="183" y2="197" stroke="#aaff00" stroke-width="2"/>
</g>
<g>
	<polygon points="164,254 173,253 168,261" fill="#aaff00"/>
	<line x1="208" y1="276" x2="170" y2="257" stroke="#aaff00" stroke-width="2"/>
</g>
<g>
	<polygon points="212,224 216,232 207,231" fill="#aaff00"/>
	<line x1="208" y1="276" x2="211" y2="231" stroke="#aaff00" stroke-width="2"/>
</g>
<g>
	<polygon points="223,253 222,262 215,257" fill="#aaff00"/>
	<line x1="208" y1="276" x2="219" y2="259" stroke="#aaff00" stroke-width="2"/>
</g>
<g>
	<polygon points="256,263 250,269 247,260" fill="#aaff00"/>
	<line x1="208" y1="276" x2="249" y2="264" stroke="#aaff00" stroke-width="2"/>
</g>
<g>
	<polygon points="347,239 341,245 338,236" fill="#aaff00"/>
	<line x1="208" y1="276" x2="340" y2="240" stroke="#aaff00" stroke-width="2"/>
</g>
<g>
	<polygon points="106,290 113,284 114,293" fill="#aaff00"/>
	<line x1="208" y1="276" x2="113" y2="289" stroke="#aaff00" stroke-width="2"/>
</g>
<g>
	<polygon points="339,86 335,94 330,87" fill="#aaff00"/>
	<line x1="217" y1="172" x2="333" y2="90" stroke="#aaff00" stroke-width="2"/>
</g>
<g>
	<polygon points="351,9 355,17 346,16" fill="#aaff00"/>
	<line x1="343" y1="84" x2="350" y2="16" stroke="#aaff00" stroke-width="2"/>
</g>
<g>
	<polygon points="390,60 386,67 381,59" fill="#aaff00"/>
	<line x1="343" y1="84" x2="384" y2="63" stroke="#aaff00" stroke-width="2"/>
</g>
<g>
	<polygon points="319,45 327,50 319,54" fill="#aaff00"/>
	<line x1="343" y1="84" x2="323" y2="51" stroke="#aaff00" stroke-width="2"/>
</g>
<g>
	<polygon points="356,5 364,0 364,9" fill="#aaff00"/>
	<line x1="395" y1="5" x2="363" y2="5" stroke="#aaff00" stroke-width="2"/>
</g>
<g>
	<polygon points="395,53 390,45 399,45" fill="#aaff00"/>
	<line x1="395" y1="5" x2="395" y2="46" stroke="#aaff00" stroke-width="2"/>
</g>
<g>
	<polygon points="345,87 352,92 345,96" fill="#aaff00"/>
	<line x1="392" y1="170" x2="348" y2="94" stroke="#aaff00" stroke-width="2"/>
</g>
<g>
	<polygon points="318,134 327,134 323,142" fill="#aaff00"/>
	<line x1="392" y1="170" x2="324" y2="138" stroke="#aaff00" stroke-width="2"/>
</g>
<g>
	<polygon points="184,184 189,177 193,185" fill="#aaff00"/>
	<line x1="314" y1="133" x2="190" y2="181" stroke="#aaff00" stroke-width="2"/>
</g>
<g>
	<polygon points="364,130 356,135 356,126" fill="#aaff00"/>
	<line x1="314" y1="133" x2="357" y2="130" stroke="#aaff00" stroke-width="2"/>
</g>
<g>
	<polygon points="220,175 228,178 221,184" fill="#aaff00"/>
	<line x1="243" y1="201" x2="224" y2="180" stroke="#aaff00" stroke-width="2"/>
</g>
<g>
	<polygon points="266,215 257,215 261,207" fill="#aaff00"/>
	<line x1="243" y1="201" x2="260" y2="211" stroke="#aaff00" stroke-width="2"/>
</g>
<g>
	<polygon points="184,187 193,184 190,193" fill="#aaff00"/>
	<line x1="243" y1="201" x2="191" y2="188" stroke="#aaff00" stroke-width="2"/>
</g>
<g>
	<polygon points="163,249 168,241 172,249" fill="#aaff00"/>
	<line x1="243" y1="201" x2="169" y2="245" stroke="#aaff00" stroke-width="2"/>
</g>
<g>
	<polygon points="216,217 220,209 225,217" fill="#aaff00"/>
	<line x1="243" y1="201" x2="222" y2="213" stroke="#aaff00" stroke-width="2"/>
</g>
<g>
	<polygon points="227,245 225,236 234,239" fill="#aaff00"/>
	<line x1="243" y1="201" x2="229" y2="238" stroke="#aaff00" stroke-width="2"/>
</g>
<g>
	<polygon points="259,257 253,251 261,248" fill="#aaff00"/>
	<line x1="243" y1="201" x2="257" y2="250" stroke="#aaff00" stroke-width="2"/>
</g>
<g>
	<polygon points="347,236 338,238 341,229" fill="#aaff00"/>
	<line x1="243" y1="201" x2="340" y2="234" stroke="#aaff00" stroke-width="2"/>
</g>
<g>
	<polygon points="227,64 233,70 224,73" fill="#aaff00"/>
	<line x1="270" y1="218" x2="229" y2="71" stroke="#aaff00" stroke-width="2"/>
</g>
<g>
	<polygon points="308,244 299,243 304,236" fill="#aaff00"/>
	<line x1="270" y1="218" x2="302" y2="240" stroke="#aaff00" stroke-width="2"/>
</g>
<g>
	<polygon points="264,8 263,17 256,12" fill="#aaff00"/>
	<line x1="226" y1="60" x2="260" y2="14" stroke="#aaff00" stroke-width="2"/>
</g>
<g>
	<polygon points="181,53 189,50 188,59" fill="#aaff00"/>
	<line x1="226" y1="60" x2="188" y2="54" stroke="#aaff00" stroke-width="2"/>
</g>
<g>
	<polygon points="217,9 223,16 214,17" fill="#aaff00"/>
	<line x1="226" y1="60" x2="218" y2="16" stroke="#aaff00" stroke-width="2"/>
</g>
<g>
	<polygon points="264,71 255,73 258,65" fill="#aaff00"/>
	<line x1="226" y1="60" x2="257" y2="69" stroke="#aaff00" stroke-width="2"/>
</g>
<g>
	<polygon points="164,7 173,9 167,16" fill="#aaff00"/>
	<line x1="226" y1="60" x2="169" y2="12" stroke="#aaff00" stroke-width="2"/>
</g>
<g>
	<polygon points="221,172 229,168 228,177" fill="#aaff00"/>
	<line x1="332" y1="182" x2="228" y2="173" stroke="#aaff00" stroke-width="2"/>
</g>
<g>
	<polygon points="273,215 278,207 282,215" fill="#aaff00"/>
	<line x1="332" y1="182" x2="280" y2="212" stroke="#aaff00" stroke-width="2"/>
</g>
<g>
	<polygon points="350,233 343,227 352,224" fill="#aaff00"/>
	<line x1="332" y1="182" x2="348" y2="226" stroke="#aaff00" stroke-width="2"/>
</g>
<g>
	<polygon points="389,173 389,182 381,178" fill="#aaff00"/>
	<line x1="352" y1="238" x2="386" y2="180" stroke="#aaff00" stroke-width="2"/>
</g>
<g>
	<polygon points="327,179 318,180 323,172" fill="#aaff00"/>
	<line x1="270" y1="151" x2="321" y2="176" stroke="#aaff00" stroke-width="2"/>
</g>
<g>
	<polygon points="190,129 199,126 196,135" fill="#aaff00"/>
	<line x1="270" y1="151" x2="197" y2="131" stroke="#aaff00" stroke-width="2"/>
</g>
<g>
	<polygon points="214,168 206,164 213,159" fill="#aaff00"/>
	<line x1="186" y1="128" x2="210" y2="162" stroke="#aaff00" stroke-width="2"/>
</g>
<g>
	<polygon points="140,96 149,97 144,104" fill="#aaff00"/>
	<line x1="186" y1="128" x2="146" y2="100" stroke="#aaff00" stroke-width="2"/>
</g>
<g>
	<polygon points="144,169 146,161 152,167" fill="#aaff00"/>
	<line x1="186" y1="128" x2="149" y2="164" stroke="#aaff00" stroke-width="2"/>
</g>
<g>
	<polygon points="265,216 256,218 259,209" fill="#aaff00"/>
	<line x1="141" y1="173" x2="258" y2="214" stroke="#aaff00" stroke-width="2"/>
</g>
<g>
	<polygon points="102,141 111,143 105,150" fill="#aaff00"/>
	<line x1="141" y1="173" x2="108" y2="146" stroke="#aaff00" stroke-width="2"/>
</g>
<g>
	<polygon points="97,199 102,191 106,199" fill="#aaff00"/>
	<line x1="141" y1="173" x2="103" y2="195" stroke="#aaff00" stroke-width="2"/>
</g>
<g>
	<polygon points="176,183 167,183 171,175" fill="#aaff00"/>
	<line x1="99" y1="139" x2="169" y2="180" stroke="#aaff00" stroke-width="2"/>
</g>
<g>
	<polygon points="57,91 66,94 59,100" fill="#aaff00"/>
	<line x1="99" y1="139" x2="62" y2="96" stroke="#aaff00" stroke-width="2"/>
</g>
<g>
	<polygon points="9,80 17,77 16,86" fill="#aaff00"/>
	<line x1="55" y1="88" x2="16" y2="81" stroke="#aaff00" stroke-width="2"/>
</g>
<g>
	<polygon points="43,36 49,43 41,44" fill="#aaff00"/>
	<line x1="55" y1="88" x2="45" y2="43" stroke="#aaff00" stroke-width="2"/>
</g>
<g>
	<polygon points="8,7 17,8 12,15" fill="#aaff00"/>
	<line x1="43" y1="32" x2="14" y2="11" stroke="#aaff00" stroke-width="2"/>
</g>
<g>
	<polygon points="81,7 77,15 72,7" fill="#aaff00"/>
	<line x1="43" y1="32" x2="75" y2="11" stroke="#aaff00" stroke-width="2"/>
</g>
<g>
	<polygon points="272,154 280,158 273,163" fill="#aaff00"/>
	<line x1="302" y1="199" x2="276" y2="160" stroke="#aaff00" stroke-width="2"/>
</g>
<g>
	<polygon points="247,200 255,196 255,205" fill="#aaff00"/>
	<line x1="302" y1="199" x2="254" y2="200" stroke="#aaff00" stroke-width="2"/>
</g>
<g>
	<polygon points="269,222 271,230 263,229" fill="#aaff00"/>
	<line x1="261" y1="262" x2="267" y2="229" stroke="#aaff00" stroke-width="2"/>
</g>
<g>
	<polygon points="287,285 278,283 284,276" fill="#aaff00"/>
	<line x1="261" y1="262" x2="282" y2="280" stroke="#aaff00" stroke-width="2"/>
</g>
<g>
	<polygon points="43,295 35,299 35,290" fill="#aaff00"/>
	<line x1="6" y1="295" x2="36" y2="295" stroke="#aaff00" stroke-width="2"/>
</g>
<g>
	<polygon points="46,232 38,228 46,223" fill="#aaff00"/>
	<line x1="5" y1="169" x2="42" y2="226" stroke="#aaff00" stroke-width="2"/>
</g>
<g>
	<polygon points="5,210 0,202 9,202" fill="#aaff00"/>
	<line x1="5" y1="169" x2="5" y2="203" stroke="#aaff00" stroke-width="2"/>
</g>
<g>
	<polygon points="10,294 18,289 18,298" fill="#aaff00"/>
	<line x1="102" y1="291" x2="17" y2="294" stroke="#aaff00" stroke-width="2"/>
</g>
<g>
	<polygon points="52,239 60,241 54,247" fill="#aaff00"/>
	<line x1="102" y1="291" x2="57" y2="244" stroke="#aaff00" stroke-width="2"/>
</g>

<g fill="#000000">
	<circle cx="383" cy="282" r="4"/>
</g>
<g fill="#000000">
	<circle cx="334" cy="294" r="4"/>
</g>
<g fill="#000000">
	<circle cx="301" cy="198" r="4"/>
</g>
<g fill="#000000">
	<circle cx="207" cy="275" r="4"/>
</g>
<g fill="#000000">
	<circle cx="269" cy="150" r="4"/>
</g>
<g fill="#000000">
	<circle cx="242" cy="200" r="4"/>
</g>
<g fill="#000000">
	<circle cx="331" cy="181" r="4"/>
</g>
<g fill="#000000">
	<circle cx="185" cy="127" r="4"/>
</g>
<g fill="#000000">
	<circle cx="216" cy="171" r="4"/>
</g>
<g fill="#000000">
	<circle cx="269" cy="217" r="4"/>
</g>
<g fill="#000000">
	<circle cx="179" cy="185" r="4"/>
</g>
<g fill="#000000">
	<circle cx="159" cy="251" r="4"/>
</g>
<g fill="#000000">
	<circle cx="212" cy="219" r="4"/>
</g>
<g fill="#000000">
	<circle cx="225" cy="249" r="4"/>
</g>
<g fill="#000000">
	<circle cx="260" cy="261" r="4"/>
</g>
<g fill="#000000">
	<circle cx="351" cy="237" r="4"/>
</g>
<g fill="#000000">
	<circle cx="101" cy="290" r="4"/>
</g>
<g fill="#000000">
	<circle cx="342" cy="83" r="4"/>
</g>
<g fill="#000000">
	<circle cx="225" cy="59" r="4"/>
</g>
<g fill="#000000">
	<circle cx="311" cy="246" r="4"/>
</g>
<g fill="#000000">
	<circle cx="290" cy="287" r="4"/>
</g>
<g fill="#000000">
	<circle cx="391" cy="169" r="4"/>
</g>
<g fill="#000000">
	<circle cx="351" cy="4" r="4"/>
</g>
<g fill="#000000">
	<circle cx="394" cy="57" r="4"/>
</g>
<g fill="#000000">
	<circle cx="316" cy="41" r="4"/>
</g>
<g fill="#000000">
	<circle cx="394" cy="4" r="4"/>
</g>
<g fill="#000000">
	<circle cx="313" cy="132" r="4"/>
</g>
<g fill="#000000">
	<circle cx="368" cy="129" r="4"/>
</g>
<g fill="#000000">
	<circle cx="266" cy="4" r="4"/>
</g>
<g fill="#000000">
	<circle cx="176" cy="52" r="4"/>
</g>
<g fill="#000000">
	<circle cx="216" cy="4" r="4"/>
</g>
<g fill="#000000">
	<circle cx="268" cy="72" r="4"/>
</g>
<g fill="#000000">
	<circle cx="160" cy="4" r="4"/>
</g>
<g fill="#000000">
	<circle cx="5" cy="294" r="4"/>
</g>
<g fill="#000000">
	<circle cx="47" cy="294" r="4"/>
</g>
<g fill="#000000">
	<circle cx="4" cy="168" r="4"/>
</g>
<g fill="#000000">
	<circle cx="48" cy="235" r="4"/>
</g>
<g fill="#000000">
	<circle cx="4" cy="214" r="4"/>
</g>
<g fill="#000000">
	<circle cx="136" cy="93" r="4"/>
</g>
<g fill="#000000">
	<circle cx="140" cy="172" r="4"/>
</g>
<g fill="#000000">
	<circle cx="98" cy="138" r="4"/>
</g>
<g fill="#000000">
	<circle cx="93" cy="201" r="4"/>
</g>
<g fill="#000000">
	<circle cx="54" cy="87" r="4"/>
</g>
<g fill="#000000">
	<circle cx="4" cy="79" r="4"/>
</g>
<g fill="#000000">
	<circle cx="42" cy="31" r="4"/>
</g>
<g fill="#000000">
	<circle cx="4" cy="4" r="4"/>
</g>
<g fill="#000000">
	<circle cx="84" cy="4" r="4"/>
</g>

</g>

</svg>
