<?xml version="1.0" encoding="utf-8"?>
<!-- Created with Hypercube (http://tumic.wz.cz/hypercube) -->

<svg width="400" height="300" viewBox="0 0 400 300" xmlns="http://www.w3.org/2000/svg" baseProfile="tiny">

<g font-family="Helvetica" font-weight="normal">

<g>
	<polygon points="74,287 79,280 83,288" fill="#aaff00"/>
	<line x1="166" y1="252" x2="80" y2="284" stroke="#aaff00" stroke-width="2"/>
</g>
<g>
	<polygon points="96,220 105,219 101,228" fill="#aaff00"/>
	<line x1="166" y1="252" x2="102" y2="223" stroke="#aaff00" stroke-width="2"/>
</g>
<g>
	<polygon points="116,255 123,250 124,259" fill="#aaff00"/>
	<line x1="166" y1="252" x2="123" y2="255" stroke="#aaff00" stroke-width="2"/>
</g>
<g>
	<polygon points="147,120 153,127 144,128" fill="#aaff00"/>
	<line x1="166" y1="252" x2="148" y2="127" stroke="#aaff00" stroke-width="2"/>
</g>
<g>
	<polygon points="269,231 262,237 261,228" fill="#aaff00"/>
	<line x1="166" y1="252" x2="262" y2="233" stroke="#aaff00" stroke-width="2"/>
</g>
<g>
	<polygon points="227,239 220,245 219,236" fill="#aaff00"/>
	<line x1="166" y1="252" x2="220" y2="241" stroke="#aaff00" stroke-width="2"/>
</g>
<g>
	<polygon points="162,158 166,166 158,166" fill="#aaff00"/>
	<line x1="166" y1="252" x2="162" y2="165" stroke="#aaff00" stroke-width="2"/>
</g>
<g>
	<polygon points="74,289 82,285 81,294" fill="#aaff00"/>
	<line x1="133" y1="295" x2="81" y2="290" stroke="#aaff00" stroke-width="2"/>
</g>
<g>
	<polygon points="269,232 264,240 260,231" fill="#aaff00"/>
	<line x1="133" y1="295" x2="263" y2="235" stroke="#aaff00" stroke-width="2"/>
</g>
<g>
	<polygon points="73,184 80,189 72,193" fill="#aaff00"/>
	<line x1="133" y1="295" x2="76" y2="191" stroke="#aaff00" stroke-width="2"/>
</g>
<g>
	<polygon points="157,208 159,217 151,214" fill="#aaff00"/>
	<line x1="133" y1="295" x2="155" y2="215" stroke="#aaff00" stroke-width="2"/>
</g>
<g>
	<polygon points="277,228 281,219 286,227" fill="#aaff00"/>
	<line x1="360" y1="166" x2="283" y2="223" stroke="#aaff00" stroke-width="2"/>
</g>
<g>
	<polygon points="149,119 158,122 151,128" fill="#aaff00"/>
	<line x1="197" y1="177" x2="154" y2="125" stroke="#aaff00" stroke-width="2"/>
</g>
<g>
	<polygon points="270,228 261,227 266,220" fill="#aaff00"/>
	<line x1="197" y1="177" x2="264" y2="224" stroke="#aaff00" stroke-width="2"/>
</g>
<g>
	<polygon points="165,156 174,156 169,164" fill="#aaff00"/>
	<line x1="197" y1="177" x2="171" y2="160" stroke="#aaff00" stroke-width="2"/>
</g>
<g>
	<polygon points="162,201 166,193 171,200" fill="#aaff00"/>
	<line x1="197" y1="177" x2="168" y2="197" stroke="#aaff00" stroke-width="2"/>
</g>
<g>
	<polygon points="142,116 135,121 134,112" fill="#aaff00"/>
	<line x1="71" y1="124" x2="135" y2="117" stroke="#aaff00" stroke-width="2"/>
</g>
<g>
	<polygon points="71,176 66,168 75,168" fill="#aaff00"/>
	<line x1="71" y1="124" x2="71" y2="169" stroke="#aaff00" stroke-width="2"/>
</g>
<g>
	<polygon points="157,153 149,156 150,147" fill="#aaff00"/>
	<line x1="109" y1="145" x2="150" y2="152" stroke="#aaff00" stroke-width="2"/>
</g>
<g>
	<polygon points="74,177 76,169 83,175" fill="#aaff00"/>
	<line x1="109" y1="145" x2="79" y2="172" stroke="#aaff00" stroke-width="2"/>
</g>
<g>
	<polygon points="156,200 147,197 154,191" fill="#aaff00"/>
	<line x1="109" y1="145" x2="151" y2="195" stroke="#aaff00" stroke-width="2"/>
</g>
<g>
	<polygon points="162,149 159,141 168,142" fill="#aaff00"/>
	<line x1="171" y1="86" x2="163" y2="142" stroke="#aaff00" stroke-width="2"/>
</g>
<g>
	<polygon points="212,80 205,86 204,77" fill="#aaff00"/>
	<line x1="171" y1="86" x2="205" y2="81" stroke="#aaff00" stroke-width="2"/>
</g>
<g>
	<polygon points="111,32 119,29 118,38" fill="#aaff00"/>
	<line x1="261" y1="61" x2="118" y2="34" stroke="#aaff00" stroke-width="2"/>
</g>
<g>
	<polygon points="254,97 251,89 260,90" fill="#aaff00"/>
	<line x1="261" y1="61" x2="255" y2="90" stroke="#aaff00" stroke-width="2"/>
</g>
<g>
	<polygon points="298,105 289,102 296,96" fill="#aaff00"/>
	<line x1="261" y1="61" x2="293" y2="100" stroke="#aaff00" stroke-width="2"/>
</g>
<g>
	<polygon points="212,9 220,11 214,18" fill="#aaff00"/>
	<line x1="261" y1="61" x2="217" y2="14" stroke="#aaff00" stroke-width="2"/>
</g>
<g>
	<polygon points="387,211 378,208 385,202" fill="#aaff00"/>
	<line x1="261" y1="61" x2="382" y2="206" stroke="#aaff00" stroke-width="2"/>
</g>
<g>
	<polygon points="221,78 226,70 230,79" fill="#aaff00"/>
	<line x1="261" y1="61" x2="227" y2="75" stroke="#aaff00" stroke-width="2"/>
</g>
<g>
	<polygon points="67,285 60,280 67,276" fill="#aaff00"/>
	<line x1="17" y1="194" x2="64" y2="278" stroke="#aaff00" stroke-width="2"/>
</g>
<g>
	<polygon points="6,158 12,164 4,167" fill="#aaff00"/>
	<line x1="17" y1="194" x2="8" y2="165" stroke="#aaff00" stroke-width="2"/>
</g>
<g>
	<polygon points="104,35 104,44 97,40" fill="#aaff00"/>
	<line x1="17" y1="194" x2="101" y2="42" stroke="#aaff00" stroke-width="2"/>
</g>
<g>
	<polygon points="109,252 102,247 109,243" fill="#aaff00"/>
	<line x1="28" y1="106" x2="106" y2="245" stroke="#aaff00" stroke-width="2"/>
</g>
<g>
	<polygon points="6,149 6,140 14,144" fill="#aaff00"/>
	<line x1="28" y1="106" x2="10" y2="143" stroke="#aaff00" stroke-width="2"/>
</g>
<g>
	<polygon points="103,35 101,43 94,37" fill="#aaff00"/>
	<line x1="28" y1="106" x2="98" y2="39" stroke="#aaff00" stroke-width="2"/>
</g>
<g>
	<polygon points="96,220 105,217 102,226" fill="#aaff00"/>
	<line x1="132" y1="229" x2="103" y2="221" stroke="#aaff00" stroke-width="2"/>
</g>
<g>
	<polygon points="114,252 115,243 122,248" fill="#aaff00"/>
	<line x1="132" y1="229" x2="118" y2="246" stroke="#aaff00" stroke-width="2"/>
</g>
<g>
	<polygon points="227,238 219,242 220,233" fill="#aaff00"/>
	<line x1="132" y1="229" x2="220" y2="237" stroke="#aaff00" stroke-width="2"/>
</g>
<g>
	<polygon points="74,183 83,185 77,192" fill="#aaff00"/>
	<line x1="132" y1="229" x2="80" y2="188" stroke="#aaff00" stroke-width="2"/>
</g>
<g>
	<polygon points="155,207 153,215 146,209" fill="#aaff00"/>
	<line x1="132" y1="229" x2="150" y2="211" stroke="#aaff00" stroke-width="2"/>
</g>
<g>
	<polygon points="87,220 81,227 78,218" fill="#aaff00"/>
	<line x1="41" y1="237" x2="80" y2="222" stroke="#aaff00" stroke-width="2"/>
</g>
<g>
	<polygon points="107,254 98,257 101,248" fill="#aaff00"/>
	<line x1="41" y1="237" x2="100" y2="252" stroke="#aaff00" stroke-width="2"/>
</g>
<g>
	<polygon points="6,158 14,163 5,167" fill="#aaff00"/>
	<line x1="41" y1="237" x2="9" y2="164" stroke="#aaff00" stroke-width="2"/>
</g>
<g>
	<polygon points="227,238 219,242 220,233" fill="#aaff00"/>
	<line x1="197" y1="235" x2="220" y2="237" stroke="#aaff00" stroke-width="2"/>
</g>
<g>
	<polygon points="162,206 171,208 165,215" fill="#aaff00"/>
	<line x1="197" y1="235" x2="168" y2="211" stroke="#aaff00" stroke-width="2"/>
</g>
<g>
	<polygon points="155,201 146,201 150,194" fill="#aaff00"/>
	<line x1="122" y1="183" x2="148" y2="198" stroke="#aaff00" stroke-width="2"/>
</g>
<g>
	<polygon points="232,234 228,226 237,226" fill="#aaff00"/>
	<line x1="234" y1="203" x2="232" y2="227" stroke="#aaff00" stroke-width="2"/>
</g>
<g>
	<polygon points="163,203 171,199 171,208" fill="#aaff00"/>
	<line x1="234" y1="203" x2="170" y2="203" stroke="#aaff00" stroke-width="2"/>
</g>
<g>
	<polygon points="151,117 160,116 156,125" fill="#aaff00"/>
	<line x1="239" y1="156" x2="157" y2="120" stroke="#aaff00" stroke-width="2"/>
</g>
<g>
	<polygon points="232,234 228,226 237,227" fill="#aaff00"/>
	<line x1="239" y1="156" x2="232" y2="227" stroke="#aaff00" stroke-width="2"/>
</g>
<g>
	<polygon points="116,256 124,254 123,262" fill="#aaff00"/>
	<line x1="263" y1="288" x2="123" y2="258" stroke="#aaff00" stroke-width="2"/>
</g>
<g>
	<polygon points="234,242 242,246 234,251" fill="#aaff00"/>
	<line x1="263" y1="288" x2="238" y2="248" stroke="#aaff00" stroke-width="2"/>
</g>
<g>
	<polygon points="386,217 381,225 377,217" fill="#aaff00"/>
	<line x1="263" y1="288" x2="379" y2="220" stroke="#aaff00" stroke-width="2"/>
</g>
<g>
	<polygon points="236,239 244,235 243,244" fill="#aaff00"/>
	<line x1="332" y1="248" x2="243" y2="240" stroke="#aaff00" stroke-width="2"/>
</g>
<g>
	<polygon points="386,217 381,224 377,217" fill="#aaff00"/>
	<line x1="332" y1="248" x2="379" y2="220" stroke="#aaff00" stroke-width="2"/>
</g>
<g>
	<polygon points="147,111 143,103 152,104" fill="#aaff00"/>
	<line x1="152" y1="41" x2="147" y2="104" stroke="#aaff00" stroke-width="2"/>
</g>
<g>
	<polygon points="111,32 119,29 118,38" fill="#aaff00"/>
	<line x1="152" y1="41" x2="118" y2="34" stroke="#aaff00" stroke-width="2"/>
</g>
<g>
	<polygon points="250,99 241,99 245,91" fill="#aaff00"/>
	<line x1="152" y1="41" x2="243" y2="95" stroke="#aaff00" stroke-width="2"/>
</g>
<g>
	<polygon points="205,8 200,16 196,8" fill="#aaff00"/>
	<line x1="152" y1="41" x2="199" y2="12" stroke="#aaff00" stroke-width="2"/>
</g>
<g>
	<polygon points="275,226 275,217 283,221" fill="#aaff00"/>
	<line x1="314" y1="148" x2="279" y2="220" stroke="#aaff00" stroke-width="2"/>
</g>
<g>
	<polygon points="257,104 266,105 261,113" fill="#aaff00"/>
	<line x1="314" y1="148" x2="263" y2="109" stroke="#aaff00" stroke-width="2"/>
</g>
<g>
	<polygon points="302,113 309,119 300,122" fill="#aaff00"/>
	<line x1="314" y1="148" x2="304" y2="120" stroke="#aaff00" stroke-width="2"/>
</g>
<g>
	<polygon points="274,226 272,218 280,219" fill="#aaff00"/>
	<line x1="286" y1="175" x2="276" y2="219" stroke="#aaff00" stroke-width="2"/>
</g>
<g>
	<polygon points="255,106 263,111 254,115" fill="#aaff00"/>
	<line x1="286" y1="175" x2="258" y2="112" stroke="#aaff00" stroke-width="2"/>
</g>
<g>
	<polygon points="300,113 302,121 293,119" fill="#aaff00"/>
	<line x1="286" y1="175" x2="298" y2="120" stroke="#aaff00" stroke-width="2"/>
</g>
<g>
	<polygon points="149,112 149,103 157,108" fill="#aaff00"/>
	<line x1="191" y1="48" x2="153" y2="106" stroke="#aaff00" stroke-width="2"/>
</g>
<g>
	<polygon points="111,32 119,29 118,38" fill="#aaff00"/>
	<line x1="191" y1="48" x2="118" y2="34" stroke="#aaff00" stroke-width="2"/>
</g>
<g>
	<polygon points="250,99 241,97 247,90" fill="#aaff00"/>
	<line x1="191" y1="48" x2="245" y2="94" stroke="#aaff00" stroke-width="2"/>
</g>
<g>
	<polygon points="207,10 208,19 200,15" fill="#aaff00"/>
	<line x1="191" y1="48" x2="204" y2="16" stroke="#aaff00" stroke-width="2"/>
</g>
<g>
	<polygon points="165,151 169,143 174,150" fill="#aaff00"/>
	<line x1="204" y1="123" x2="171" y2="147" stroke="#aaff00" stroke-width="2"/>
</g>
<g>
	<polygon points="215,84 217,93 209,90" fill="#aaff00"/>
	<line x1="204" y1="123" x2="213" y2="91" stroke="#aaff00" stroke-width="2"/>
</g>
<g>
	<polygon points="143,113 134,112 139,105" fill="#aaff00"/>
	<line x1="85" y1="73" x2="137" y2="109" stroke="#aaff00" stroke-width="2"/>
</g>
<g>
	<polygon points="360,161 355,153 364,153" fill="#aaff00"/>
	<line x1="360" y1="68" x2="360" y2="154" stroke="#aaff00" stroke-width="2"/>
</g>
<g>
	<polygon points="392,111 384,107 391,102" fill="#aaff00"/>
	<line x1="360" y1="68" x2="388" y2="105" stroke="#aaff00" stroke-width="2"/>
</g>
<g>
	<polygon points="392,9 392,18 385,14" fill="#aaff00"/>
	<line x1="360" y1="68" x2="389" y2="16" stroke="#aaff00" stroke-width="2"/>
</g>
<g>
	<polygon points="390,54 385,61 381,53" fill="#aaff00"/>
	<line x1="360" y1="68" x2="384" y2="57" stroke="#aaff00" stroke-width="2"/>
</g>
<g>
	<polygon points="351,10 357,17 348,18" fill="#aaff00"/>
	<line x1="360" y1="68" x2="352" y2="17" stroke="#aaff00" stroke-width="2"/>
</g>
<g>
	<polygon points="305,9 313,11 307,18" fill="#aaff00"/>
	<line x1="360" y1="68" x2="309" y2="14" stroke="#aaff00" stroke-width="2"/>
</g>
<g>
	<polygon points="326,51 335,51 331,59" fill="#aaff00"/>
	<line x1="360" y1="68" x2="332" y2="55" stroke="#aaff00" stroke-width="2"/>
</g>

<g fill="#000000">
	<circle cx="359" cy="67" r="4"/>
</g>
<g fill="#000000">
	<circle cx="165" cy="251" r="4"/>
</g>
<g fill="#000000">
	<circle cx="69" cy="288" r="4"/>
</g>
<g fill="#000000">
	<circle cx="91" cy="218" r="4"/>
</g>
<g fill="#000000">
	<circle cx="111" cy="255" r="4"/>
</g>
<g fill="#000000">
	<circle cx="146" cy="115" r="4"/>
</g>
<g fill="#000000">
	<circle cx="273" cy="230" r="4"/>
</g>
<g fill="#000000">
	<circle cx="231" cy="238" r="4"/>
</g>
<g fill="#000000">
	<circle cx="161" cy="153" r="4"/>
</g>
<g fill="#000000">
	<circle cx="132" cy="294" r="4"/>
</g>
<g fill="#000000">
	<circle cx="70" cy="180" r="4"/>
</g>
<g fill="#000000">
	<circle cx="158" cy="203" r="4"/>
</g>
<g fill="#000000">
	<circle cx="16" cy="193" r="4"/>
</g>
<g fill="#000000">
	<circle cx="4" cy="153" r="4"/>
</g>
<g fill="#000000">
	<circle cx="106" cy="31" r="4"/>
</g>
<g fill="#000000">
	<circle cx="27" cy="105" r="4"/>
</g>
<g fill="#000000">
	<circle cx="108" cy="144" r="4"/>
</g>
<g fill="#000000">
	<circle cx="131" cy="228" r="4"/>
</g>
<g fill="#000000">
	<circle cx="70" cy="123" r="4"/>
</g>
<g fill="#000000">
	<circle cx="359" cy="165" r="4"/>
</g>
<g fill="#000000">
	<circle cx="196" cy="176" r="4"/>
</g>
<g fill="#000000">
	<circle cx="313" cy="147" r="4"/>
</g>
<g fill="#000000">
	<circle cx="253" cy="101" r="4"/>
</g>
<g fill="#000000">
	<circle cx="300" cy="108" r="4"/>
</g>
<g fill="#000000">
	<circle cx="394" cy="114" r="4"/>
</g>
<g fill="#000000">
	<circle cx="40" cy="236" r="4"/>
</g>
<g fill="#000000">
	<circle cx="196" cy="234" r="4"/>
</g>
<g fill="#000000">
	<circle cx="394" cy="5" r="4"/>
</g>
<g fill="#000000">
	<circle cx="151" cy="40" r="4"/>
</g>
<g fill="#000000">
	<circle cx="208" cy="5" r="4"/>
</g>
<g fill="#000000">
	<circle cx="238" cy="155" r="4"/>
</g>
<g fill="#000000">
	<circle cx="84" cy="72" r="4"/>
</g>
<g fill="#000000">
	<circle cx="190" cy="47" r="4"/>
</g>
<g fill="#000000">
	<circle cx="260" cy="60" r="4"/>
</g>
<g fill="#000000">
	<circle cx="389" cy="214" r="4"/>
</g>
<g fill="#000000">
	<circle cx="216" cy="79" r="4"/>
</g>
<g fill="#000000">
	<circle cx="121" cy="182" r="4"/>
</g>
<g fill="#000000">
	<circle cx="233" cy="202" r="4"/>
</g>
<g fill="#000000">
	<circle cx="170" cy="85" r="4"/>
</g>
<g fill="#000000">
	<circle cx="394" cy="52" r="4"/>
</g>
<g fill="#000000">
	<circle cx="285" cy="174" r="4"/>
</g>
<g fill="#000000">
	<circle cx="350" cy="5" r="4"/>
</g>
<g fill="#000000">
	<circle cx="301" cy="5" r="4"/>
</g>
<g fill="#000000">
	<circle cx="262" cy="287" r="4"/>
</g>
<g fill="#000000">
	<circle cx="331" cy="247" r="4"/>
</g>
<g fill="#000000">
	<circle cx="321" cy="49" r="4"/>
</g>
<g fill="#000000">
	<circle cx="203" cy="122" r="4"/>
</g>

</g>

</svg>
