<?xml version="1.0" encoding="utf-8"?>
<!-- Created with Hypercube (http://tumic.wz.cz/hypercube) -->

<svg width="400" height="300" viewBox="0 0 400 300" xmlns="http://www.w3.org/2000/svg" baseProfile="tiny">

<g font-family="Helvetica" font-weight="normal">

<g>
	<polygon points="127,292 131,284 136,291" fill="#aaff00"/>
	<line x1="261" y1="203" x2="133" y2="288" stroke="#aaff00" stroke-width="2"/>
</g>
<g>
	<polygon points="275,244 268,238 277,235" fill="#aaff00"/>
	<line x1="261" y1="203" x2="273" y2="237" stroke="#aaff00" stroke-width="2"/>
</g>
<g>
	<polygon points="226,220 231,212 235,220" fill="#aaff00"/>
	<line x1="261" y1="203" x2="232" y2="216" stroke="#aaff00" stroke-width="2"/>
</g>
<g>
	<polygon points="123,170 132,167 129,176" fill="#aaff00"/>
	<line x1="261" y1="203" x2="130" y2="171" stroke="#aaff00" stroke-width="2"/>
</g>
<g>
	<polygon points="351,195 344,200 343,191" fill="#aaff00"/>
	<line x1="261" y1="203" x2="344" y2="195" stroke="#aaff00" stroke-width="2"/>
</g>
<g>
	<polygon points="338,249 329,249 333,241" fill="#aaff00"/>
	<line x1="261" y1="203" x2="331" y2="245" stroke="#aaff00" stroke-width="2"/>
</g>
<g>
	<polygon points="232,152 240,157 232,161" fill="#aaff00"/>
	<line x1="261" y1="203" x2="235" y2="159" stroke="#aaff00" stroke-width="2"/>
</g>
<g>
	<polygon points="333,141 330,150 324,143" fill="#aaff00"/>
	<line x1="261" y1="203" x2="328" y2="146" stroke="#aaff00" stroke-width="2"/>
</g>
<g>
	<polygon points="274,159 276,168 268,165" fill="#aaff00"/>
	<line x1="261" y1="203" x2="272" y2="166" stroke="#aaff00" stroke-width="2"/>
</g>
<g>
	<polygon points="50,278 58,276 57,285" fill="#aaff00"/>
	<line x1="124" y1="295" x2="57" y2="280" stroke="#aaff00" stroke-width="2"/>
</g>
<g>
	<polygon points="6,193 14,198 6,202" fill="#aaff00"/>
	<line x1="46" y1="278" x2="9" y2="199" stroke="#aaff00" stroke-width="2"/>
</g>
<g>
	<polygon points="20,220 12,215 20,211" fill="#aaff00"/>
	<line x1="5" y1="189" x2="17" y2="214" stroke="#aaff00" stroke-width="2"/>
</g>
<g>
	<polygon points="25,85 28,93 19,92" fill="#aaff00"/>
	<line x1="5" y1="189" x2="23" y2="92" stroke="#aaff00" stroke-width="2"/>
</g>
<g>
	<polygon points="14,150 19,157 10,158" fill="#aaff00"/>
	<line x1="22" y1="225" x2="15" y2="157" stroke="#aaff00" stroke-width="2"/>
</g>
<g>
	<polygon points="60,128 55,135 51,127" fill="#aaff00"/>
	<line x1="14" y1="146" x2="54" y2="131" stroke="#aaff00" stroke-width="2"/>
</g>
<g>
	<polygon points="131,118 124,124 123,115" fill="#aaff00"/>
	<line x1="65" y1="127" x2="124" y2="119" stroke="#aaff00" stroke-width="2"/>
</g>
<g>
	<polygon points="252,83 246,89 243,81" fill="#aaff00"/>
	<line x1="136" y1="118" x2="245" y2="85" stroke="#aaff00" stroke-width="2"/>
</g>
<g>
	<polygon points="252,80 244,83 246,74" fill="#aaff00"/>
	<line x1="143" y1="56" x2="245" y2="79" stroke="#aaff00" stroke-width="2"/>
</g>
<g>
	<polygon points="138,56 131,62 130,54" fill="#aaff00"/>
	<line x1="26" y1="81" x2="131" y2="58" stroke="#aaff00" stroke-width="2"/>
</g>
<g>
	<polygon points="147,55 154,49 155,58" fill="#aaff00"/>
	<line x1="188" y1="49" x2="154" y2="54" stroke="#aaff00" stroke-width="2"/>
</g>
<g>
	<polygon points="227,42 220,48 219,39" fill="#aaff00"/>
	<line x1="188" y1="49" x2="220" y2="43" stroke="#aaff00" stroke-width="2"/>
</g>
<g>
	<polygon points="254,78 246,73 254,69" fill="#aaff00"/>
	<line x1="232" y1="42" x2="250" y2="72" stroke="#aaff00" stroke-width="2"/>
</g>
<g>
	<polygon points="190,52 198,57 190,61" fill="#aaff00"/>
	<line x1="219" y1="101" x2="193" y2="59" stroke="#aaff00" stroke-width="2"/>
</g>
<g>
	<polygon points="220,105 226,111 217,113" fill="#aaff00"/>
	<line x1="230" y1="149" x2="221" y2="112" stroke="#aaff00" stroke-width="2"/>
</g>
<g>
	<polygon points="205,176 207,167 214,173" fill="#aaff00"/>
	<line x1="230" y1="149" x2="210" y2="171" stroke="#aaff00" stroke-width="2"/>
</g>
<g>
	<polygon points="180,213 181,204 188,209" fill="#aaff00"/>
	<line x1="203" y1="180" x2="184" y2="207" stroke="#aaff00" stroke-width="2"/>
</g>
<g>
	<polygon points="254,85 254,94 246,90" fill="#aaff00"/>
	<line x1="178" y1="217" x2="251" y2="92" stroke="#aaff00" stroke-width="2"/>
</g>
<g>
	<polygon points="179,221 187,226 179,230" fill="#aaff00"/>
	<line x1="205" y1="276" x2="182" y2="227" stroke="#aaff00" stroke-width="2"/>
</g>
<g>
	<polygon points="209,276 217,274 216,283" fill="#aaff00"/>
	<line x1="245" y1="285" x2="216" y2="278" stroke="#aaff00" stroke-width="2"/>
</g>
<g>
	<polygon points="247,281 249,272 256,278" fill="#aaff00"/>
	<line x1="277" y1="249" x2="252" y2="276" stroke="#aaff00" stroke-width="2"/>
</g>
<g>
	<polygon points="175,213 168,208 175,204" fill="#aaff00"/>
	<line x1="156" y1="178" x2="172" y2="206" stroke="#aaff00" stroke-width="2"/>
</g>
<g>
	<polygon points="88,42 95,46 87,51" fill="#aaff00"/>
	<line x1="156" y1="178" x2="91" y2="48" stroke="#aaff00" stroke-width="2"/>
</g>
<g>
	<polygon points="129,7 125,15 120,8" fill="#aaff00"/>
	<line x1="86" y1="38" x2="123" y2="11" stroke="#aaff00" stroke-width="2"/>
</g>
<g>
	<polygon points="204,5 196,9 196,0" fill="#aaff00"/>
	<line x1="133" y1="5" x2="197" y2="5" stroke="#aaff00" stroke-width="2"/>
</g>
<g>
	<polygon points="254,78 246,73 254,69" fill="#aaff00"/>
	<line x1="209" y1="5" x2="250" y2="72" stroke="#aaff00" stroke-width="2"/>
</g>
<g>
	<polygon points="159,180 168,181 163,188" fill="#aaff00"/>
	<line x1="222" y1="222" x2="165" y2="184" stroke="#aaff00" stroke-width="2"/>
</g>
<g>
	<polygon points="176,221 179,230 170,227" fill="#aaff00"/>
	<line x1="164" y1="268" x2="174" y2="228" stroke="#aaff00" stroke-width="2"/>
</g>
<g>
	<polygon points="160,265 151,265 155,258" fill="#aaff00"/>
	<line x1="111" y1="238" x2="153" y2="262" stroke="#aaff00" stroke-width="2"/>
</g>
<g>
	<polygon points="111,233 107,225 116,226" fill="#aaff00"/>
	<line x1="119" y1="169" x2="112" y2="226" stroke="#aaff00" stroke-width="2"/>
</g>
<g>
	<polygon points="74,178 81,172 82,180" fill="#aaff00"/>
	<line x1="119" y1="169" x2="81" y2="176" stroke="#aaff00" stroke-width="2"/>
</g>
<g>
	<polygon points="65,131 70,138 61,139" fill="#aaff00"/>
	<line x1="70" y1="179" x2="66" y2="138" stroke="#aaff00" stroke-width="2"/>
</g>
<g>
	<polygon points="168,268 176,266 175,274" fill="#aaff00"/>
	<line x1="292" y1="295" x2="175" y2="270" stroke="#aaff00" stroke-width="2"/>
</g>
<g>
	<polygon points="296,295 304,290 304,299" fill="#aaff00"/>
	<line x1="347" y1="295" x2="303" y2="295" stroke="#aaff00" stroke-width="2"/>
</g>
<g>
	<polygon points="347,290 343,282 352,283" fill="#aaff00"/>
	<line x1="356" y1="195" x2="348" y2="283" stroke="#aaff00" stroke-width="2"/>
</g>
<g>
	<polygon points="293,290 292,281 300,285" fill="#aaff00"/>
	<line x1="322" y1="214" x2="296" y2="284" stroke="#aaff00" stroke-width="2"/>
</g>
<g>
	<polygon points="392,133 390,142 383,136" fill="#aaff00"/>
	<line x1="322" y1="214" x2="387" y2="138" stroke="#aaff00" stroke-width="2"/>
</g>
<g>
	<polygon points="395,37 399,45 390,45" fill="#aaff00"/>
	<line x1="395" y1="130" x2="395" y2="44" stroke="#aaff00" stroke-width="2"/>
</g>
<g>
	<polygon points="361,7 370,8 365,16" fill="#aaff00"/>
	<line x1="395" y1="33" x2="367" y2="12" stroke="#aaff00" stroke-width="2"/>
</g>
<g>
	<polygon points="304,5 312,0 312,9" fill="#aaff00"/>
	<line x1="358" y1="5" x2="311" y2="5" stroke="#aaff00" stroke-width="2"/>
</g>
<g>
	<polygon points="259,78 259,69 266,73" fill="#aaff00"/>
	<line x1="300" y1="5" x2="262" y2="71" stroke="#aaff00" stroke-width="2"/>
</g>
<g>
	<polygon points="324,217 331,222 323,226" fill="#aaff00"/>
	<line x1="342" y1="252" x2="327" y2="224" stroke="#aaff00" stroke-width="2"/>
</g>
<g>
	<polygon points="390,269 381,271 384,262" fill="#aaff00"/>
	<line x1="342" y1="252" x2="383" y2="267" stroke="#aaff00" stroke-width="2"/>
</g>
<g>
	<polygon points="395,218 399,226 390,226" fill="#aaff00"/>
	<line x1="395" y1="271" x2="395" y2="225" stroke="#aaff00" stroke-width="2"/>
</g>
<g>
	<polygon points="260,85 268,87 262,93" fill="#aaff00"/>
	<line x1="395" y1="214" x2="265" y2="90" stroke="#aaff00" stroke-width="2"/>
</g>
<g>
	<polygon points="139,58 135,66 130,59" fill="#aaff00"/>
	<line x1="108" y1="81" x2="133" y2="62" stroke="#aaff00" stroke-width="2"/>
</g>
<g>
	<polygon points="112,82 121,81 117,89" fill="#aaff00"/>
	<line x1="179" y1="109" x2="118" y2="85" stroke="#aaff00" stroke-width="2"/>
</g>
<g>
	<polygon points="288,118 290,127 281,124" fill="#aaff00"/>
	<line x1="276" y1="155" x2="286" y2="125" stroke="#aaff00" stroke-width="2"/>
</g>
<g>
	<polygon points="183,110 192,110 188,118" fill="#aaff00"/>
	<line x1="276" y1="155" x2="189" y2="114" stroke="#aaff00" stroke-width="2"/>
</g>
<g>
	<polygon points="260,85 268,87 262,93" fill="#aaff00"/>
	<line x1="290" y1="114" x2="265" y2="90" stroke="#aaff00" stroke-width="2"/>
</g>
<g>
	<polygon points="261,80 267,73 270,82" fill="#aaff00"/>
	<line x1="322" y1="60" x2="268" y2="78" stroke="#aaff00" stroke-width="2"/>
</g>
<g>
	<polygon points="326,61 335,61 331,69" fill="#aaff00"/>
	<line x1="372" y1="83" x2="332" y2="64" stroke="#aaff00" stroke-width="2"/>
</g>
<g>
	<polygon points="369,86 369,95 361,91" fill="#aaff00"/>
	<line x1="337" y1="139" x2="365" y2="92" stroke="#aaff00" stroke-width="2"/>
</g>

<g fill="#000000">
	<circle cx="260" cy="202" r="4"/>
</g>
<g fill="#000000">
	<circle cx="123" cy="294" r="4"/>
</g>
<g fill="#000000">
	<circle cx="276" cy="248" r="4"/>
</g>
<g fill="#000000">
	<circle cx="221" cy="221" r="4"/>
</g>
<g fill="#000000">
	<circle cx="118" cy="168" r="4"/>
</g>
<g fill="#000000">
	<circle cx="355" cy="194" r="4"/>
</g>
<g fill="#000000">
	<circle cx="341" cy="251" r="4"/>
</g>
<g fill="#000000">
	<circle cx="229" cy="148" r="4"/>
</g>
<g fill="#000000">
	<circle cx="336" cy="138" r="4"/>
</g>
<g fill="#000000">
	<circle cx="275" cy="154" r="4"/>
</g>
<g fill="#000000">
	<circle cx="45" cy="277" r="4"/>
</g>
<g fill="#000000">
	<circle cx="4" cy="188" r="4"/>
</g>
<g fill="#000000">
	<circle cx="21" cy="224" r="4"/>
</g>
<g fill="#000000">
	<circle cx="25" cy="80" r="4"/>
</g>
<g fill="#000000">
	<circle cx="13" cy="145" r="4"/>
</g>
<g fill="#000000">
	<circle cx="64" cy="126" r="4"/>
</g>
<g fill="#000000">
	<circle cx="135" cy="117" r="4"/>
</g>
<g fill="#000000">
	<circle cx="256" cy="81" r="4"/>
</g>
<g fill="#000000">
	<circle cx="142" cy="55" r="4"/>
</g>
<g fill="#000000">
	<circle cx="244" cy="284" r="4"/>
</g>
<g fill="#000000">
	<circle cx="204" cy="275" r="4"/>
</g>
<g fill="#000000">
	<circle cx="177" cy="216" r="4"/>
</g>
<g fill="#000000">
	<circle cx="155" cy="177" r="4"/>
</g>
<g fill="#000000">
	<circle cx="85" cy="37" r="4"/>
</g>
<g fill="#000000">
	<circle cx="132" cy="4" r="4"/>
</g>
<g fill="#000000">
	<circle cx="208" cy="4" r="4"/>
</g>
<g fill="#000000">
	<circle cx="110" cy="237" r="4"/>
</g>
<g fill="#000000">
	<circle cx="69" cy="178" r="4"/>
</g>
<g fill="#000000">
	<circle cx="163" cy="267" r="4"/>
</g>
<g fill="#000000">
	<circle cx="346" cy="294" r="4"/>
</g>
<g fill="#000000">
	<circle cx="291" cy="294" r="4"/>
</g>
<g fill="#000000">
	<circle cx="321" cy="213" r="4"/>
</g>
<g fill="#000000">
	<circle cx="394" cy="270" r="4"/>
</g>
<g fill="#000000">
	<circle cx="394" cy="129" r="4"/>
</g>
<g fill="#000000">
	<circle cx="394" cy="32" r="4"/>
</g>
<g fill="#000000">
	<circle cx="357" cy="4" r="4"/>
</g>
<g fill="#000000">
	<circle cx="299" cy="4" r="4"/>
</g>
<g fill="#000000">
	<circle cx="394" cy="213" r="4"/>
</g>
<g fill="#000000">
	<circle cx="218" cy="100" r="4"/>
</g>
<g fill="#000000">
	<circle cx="202" cy="179" r="4"/>
</g>
<g fill="#000000">
	<circle cx="187" cy="48" r="4"/>
</g>
<g fill="#000000">
	<circle cx="231" cy="41" r="4"/>
</g>
<g fill="#000000">
	<circle cx="371" cy="82" r="4"/>
</g>
<g fill="#000000">
	<circle cx="321" cy="59" r="4"/>
</g>
<g fill="#000000">
	<circle cx="289" cy="113" r="4"/>
</g>
<g fill="#000000">
	<circle cx="178" cy="108" r="4"/>
</g>
<g fill="#000000">
	<circle cx="107" cy="80" r="4"/>
</g>

</g>

</svg>
