<?xml version="1.0" encoding="utf-8"?>
<!-- Created with Hypercube (http://tumic.wz.cz/hypercube) -->

<svg width="400" height="300" viewBox="0 0 400 300" xmlns="http://www.w3.org/2000/svg" baseProfile="tiny">

<g font-family="Helvetica" font-weight="normal">

<g>
	<polygon points="267,282 260,277 268,273" fill="#aaff00"/>
	<line x1="217" y1="152" x2="264" y2="276" stroke="#aaff00" stroke-width="2"/>
</g>
<g>
	<polygon points="339,294 331,298 332,289" fill="#aaff00"/>
	<line x1="269" y1="287" x2="332" y2="293" stroke="#aaff00" stroke-width="2"/>
</g>
<g>
	<polygon points="390,295 382,299 382,290" fill="#aaff00"/>
	<line x1="344" y1="295" x2="383" y2="295" stroke="#aaff00" stroke-width="2"/>
</g>
<g>
	<polygon points="395,255 399,263 390,263" fill="#aaff00"/>
	<line x1="395" y1="295" x2="395" y2="262" stroke="#aaff00" stroke-width="2"/>
</g>
<g>
	<polygon points="395,205 399,213 390,213" fill="#aaff00"/>
	<line x1="395" y1="251" x2="395" y2="212" stroke="#aaff00" stroke-width="2"/>
</g>
<g>
	<polygon points="395,156 399,164 390,164" fill="#aaff00"/>
	<line x1="395" y1="201" x2="395" y2="163" stroke="#aaff00" stroke-width="2"/>
</g>
<g>
	<polygon points="349,148 357,144 356,153" fill="#aaff00"/>
	<line x1="395" y1="152" x2="356" y2="148" stroke="#aaff00" stroke-width="2"/>
</g>
<g>
	<polygon points="283,223 285,214 292,220" fill="#aaff00"/>
	<line x1="345" y1="148" x2="288" y2="217" stroke="#aaff00" stroke-width="2"/>
</g>
<g>
	<polygon points="240,240 246,233 249,242" fill="#aaff00"/>
	<line x1="281" y1="227" x2="247" y2="238" stroke="#aaff00" stroke-width="2"/>
</g>
<g>
	<polygon points="253,187 255,196 246,193" fill="#aaff00"/>
	<line x1="236" y1="242" x2="251" y2="194" stroke="#aaff00" stroke-width="2"/>
</g>
<g>
	<polygon points="281,91 283,100 275,97" fill="#aaff00"/>
	<line x1="255" y1="183" x2="279" y2="98" stroke="#aaff00" stroke-width="2"/>
</g>
<g>
	<polygon points="295,31 297,39 288,38" fill="#aaff00"/>
	<line x1="283" y1="87" x2="293" y2="38" stroke="#aaff00" stroke-width="2"/>
</g>
<g>
	<polygon points="337,6 332,14 328,6" fill="#aaff00"/>
	<line x1="296" y1="27" x2="331" y2="10" stroke="#aaff00" stroke-width="2"/>
</g>
<g>
	<polygon points="390,5 382,9 382,0" fill="#aaff00"/>
	<line x1="342" y1="5" x2="383" y2="5" stroke="#aaff00" stroke-width="2"/>
</g>
<g>
	<polygon points="395,41 390,33 399,33" fill="#aaff00"/>
	<line x1="395" y1="5" x2="395" y2="34" stroke="#aaff00" stroke-width="2"/>
</g>
<g>
	<polygon points="395,85 390,77 399,77" fill="#aaff00"/>
	<line x1="395" y1="46" x2="395" y2="78" stroke="#aaff00" stroke-width="2"/>
</g>
<g>
	<polygon points="163,10 171,14 163,19" fill="#aaff00"/>
	<line x1="203" y1="71" x2="167" y2="16" stroke="#aaff00" stroke-width="2"/>
</g>
<g>
	<polygon points="105,5 113,0 113,9" fill="#aaff00"/>
	<line x1="161" y1="7" x2="112" y2="5" stroke="#aaff00" stroke-width="2"/>
</g>
<g>
	<polygon points="205,5 197,9 197,1" fill="#aaff00"/>
	<line x1="161" y1="7" x2="198" y2="5" stroke="#aaff00" stroke-width="2"/>
</g>
<g>
	<polygon points="161,225 163,216 170,222" fill="#aaff00"/>
	<line x1="192" y1="192" x2="166" y2="220" stroke="#aaff00" stroke-width="2"/>
</g>
<g>
	<polygon points="186,283 178,278 186,274" fill="#aaff00"/>
	<line x1="159" y1="229" x2="182" y2="277" stroke="#aaff00" stroke-width="2"/>
</g>
<g>
	<polygon points="143,172 149,178 140,181" fill="#aaff00"/>
	<line x1="159" y1="229" x2="145" y2="179" stroke="#aaff00" stroke-width="2"/>
</g>
<g>
	<polygon points="119,213 128,212 124,220" fill="#aaff00"/>
	<line x1="159" y1="229" x2="125" y2="216" stroke="#aaff00" stroke-width="2"/>
</g>
<g>
	<polygon points="143,163 143,154 151,158" fill="#aaff00"/>
	<line x1="164" y1="121" x2="146" y2="157" stroke="#aaff00" stroke-width="2"/>
</g>
<g>
	<polygon points="267,136 259,139 260,130" fill="#aaff00"/>
	<line x1="164" y1="121" x2="260" y2="135" stroke="#aaff00" stroke-width="2"/>
</g>
<g>
	<polygon points="59,128 66,123 67,132" fill="#aaff00"/>
	<line x1="164" y1="121" x2="66" y2="128" stroke="#aaff00" stroke-width="2"/>
</g>
<g>
	<polygon points="123,102 132,101 128,110" fill="#aaff00"/>
	<line x1="164" y1="121" x2="129" y2="105" stroke="#aaff00" stroke-width="2"/>
</g>
<g>
	<polygon points="320,187 328,191 321,196" fill="#aaff00"/>
	<line x1="341" y1="215" x2="324" y2="193" stroke="#aaff00" stroke-width="2"/>
</g>
<g>
	<polygon points="274,140 283,143 276,149" fill="#aaff00"/>
	<line x1="341" y1="215" x2="279" y2="145" stroke="#aaff00" stroke-width="2"/>
</g>
<g>
	<polygon points="339,219 340,228 332,224" fill="#aaff00"/>
	<line x1="323" y1="259" x2="336" y2="225" stroke="#aaff00" stroke-width="2"/>
</g>
<g>
	<polygon points="50,51 55,58 46,59" fill="#aaff00"/>
	<line x1="55" y1="129" x2="50" y2="58" stroke="#aaff00" stroke-width="2"/>
</g>
<g>
	<polygon points="114,102 109,110 105,101" fill="#aaff00"/>
	<line x1="55" y1="129" x2="108" y2="105" stroke="#aaff00" stroke-width="2"/>
</g>
<g>
	<polygon points="8,99 17,99 12,107" fill="#aaff00"/>
	<line x1="55" y1="129" x2="14" y2="103" stroke="#aaff00" stroke-width="2"/>
</g>
<g>
	<polygon points="58,173 53,166 62,165" fill="#aaff00"/>
	<line x1="55" y1="129" x2="58" y2="166" stroke="#aaff00" stroke-width="2"/>
</g>
<g>
	<polygon points="68,90 70,99 61,96" fill="#aaff00"/>
	<line x1="55" y1="129" x2="66" y2="97" stroke="#aaff00" stroke-width="2"/>
</g>
<g>
	<polygon points="7,35 14,40 6,44" fill="#aaff00"/>
	<line x1="55" y1="129" x2="10" y2="42" stroke="#aaff00" stroke-width="2"/>
</g>
<g>
	<polygon points="7,200 8,191 15,196" fill="#aaff00"/>
	<line x1="55" y1="129" x2="11" y2="194" stroke="#aaff00" stroke-width="2"/>
</g>
<g>
	<polygon points="9,146 14,139 18,147" fill="#aaff00"/>
	<line x1="55" y1="129" x2="15" y2="143" stroke="#aaff00" stroke-width="2"/>
</g>
<g>
	<polygon points="128,57 131,65 122,63" fill="#aaff00"/>
	<line x1="119" y1="101" x2="127" y2="64" stroke="#aaff00" stroke-width="2"/>
</g>
<g>
	<polygon points="5,240 0,232 9,232" fill="#aaff00"/>
	<line x1="5" y1="204" x2="5" y2="233" stroke="#aaff00" stroke-width="2"/>
</g>
<g>
	<polygon points="5,290 0,282 9,282" fill="#aaff00"/>
	<line x1="5" y1="204" x2="5" y2="283" stroke="#aaff00" stroke-width="2"/>
</g>
<g>
	<polygon points="130,292 121,290 127,283" fill="#aaff00"/>
	<line x1="76" y1="245" x2="125" y2="287" stroke="#aaff00" stroke-width="2"/>
</g>
<g>
	<polygon points="55,133 61,140 52,141" fill="#aaff00"/>
	<line x1="76" y1="245" x2="57" y2="140" stroke="#aaff00" stroke-width="2"/>
</g>
<g>
	<polygon points="87,290 81,284 90,281" fill="#aaff00"/>
	<line x1="76" y1="245" x2="86" y2="283" stroke="#aaff00" stroke-width="2"/>
</g>
<g>
	<polygon points="73,248 72,257 65,252" fill="#aaff00"/>
	<line x1="47" y1="285" x2="69" y2="254" stroke="#aaff00" stroke-width="2"/>
</g>
<g>
	<polygon points="203,75 209,82 200,83" fill="#aaff00"/>
	<line x1="217" y1="152" x2="204" y2="82" stroke="#aaff00" stroke-width="2"/>
</g>
<g>
	<polygon points="194,188 194,179 202,183" fill="#aaff00"/>
	<line x1="217" y1="152" x2="198" y2="182" stroke="#aaff00" stroke-width="2"/>
</g>

<g fill="#000000">
	<circle cx="216" cy="151" r="4"/>
</g>
<g fill="#000000">
	<circle cx="268" cy="286" r="4"/>
</g>
<g fill="#000000">
	<circle cx="343" cy="294" r="4"/>
</g>
<g fill="#000000">
	<circle cx="394" cy="294" r="4"/>
</g>
<g fill="#000000">
	<circle cx="394" cy="250" r="4"/>
</g>
<g fill="#000000">
	<circle cx="394" cy="200" r="4"/>
</g>
<g fill="#000000">
	<circle cx="394" cy="151" r="4"/>
</g>
<g fill="#000000">
	<circle cx="344" cy="147" r="4"/>
</g>
<g fill="#000000">
	<circle cx="280" cy="226" r="4"/>
</g>
<g fill="#000000">
	<circle cx="235" cy="241" r="4"/>
</g>
<g fill="#000000">
	<circle cx="254" cy="182" r="4"/>
</g>
<g fill="#000000">
	<circle cx="282" cy="86" r="4"/>
</g>
<g fill="#000000">
	<circle cx="295" cy="26" r="4"/>
</g>
<g fill="#000000">
	<circle cx="341" cy="4" r="4"/>
</g>
<g fill="#000000">
	<circle cx="394" cy="4" r="4"/>
</g>
<g fill="#000000">
	<circle cx="394" cy="45" r="4"/>
</g>
<g fill="#000000">
	<circle cx="394" cy="89" r="4"/>
</g>
<g fill="#000000">
	<circle cx="202" cy="70" r="4"/>
</g>
<g fill="#000000">
	<circle cx="160" cy="6" r="4"/>
</g>
<g fill="#000000">
	<circle cx="100" cy="4" r="4"/>
</g>
<g fill="#000000">
	<circle cx="209" cy="4" r="4"/>
</g>
<g fill="#000000">
	<circle cx="191" cy="191" r="4"/>
</g>
<g fill="#000000">
	<circle cx="158" cy="228" r="4"/>
</g>
<g fill="#000000">
	<circle cx="187" cy="287" r="4"/>
</g>
<g fill="#000000">
	<circle cx="141" cy="167" r="4"/>
</g>
<g fill="#000000">
	<circle cx="114" cy="211" r="4"/>
</g>
<g fill="#000000">
	<circle cx="322" cy="258" r="4"/>
</g>
<g fill="#000000">
	<circle cx="340" cy="214" r="4"/>
</g>
<g fill="#000000">
	<circle cx="317" cy="183" r="4"/>
</g>
<g fill="#000000">
	<circle cx="271" cy="136" r="4"/>
</g>
<g fill="#000000">
	<circle cx="46" cy="284" r="4"/>
</g>
<g fill="#000000">
	<circle cx="75" cy="244" r="4"/>
</g>
<g fill="#000000">
	<circle cx="133" cy="294" r="4"/>
</g>
<g fill="#000000">
	<circle cx="54" cy="128" r="4"/>
</g>
<g fill="#000000">
	<circle cx="88" cy="294" r="4"/>
</g>
<g fill="#000000">
	<circle cx="49" cy="46" r="4"/>
</g>
<g fill="#000000">
	<circle cx="118" cy="100" r="4"/>
</g>
<g fill="#000000">
	<circle cx="4" cy="96" r="4"/>
</g>
<g fill="#000000">
	<circle cx="58" cy="177" r="4"/>
</g>
<g fill="#000000">
	<circle cx="69" cy="85" r="4"/>
</g>
<g fill="#000000">
	<circle cx="4" cy="31" r="4"/>
</g>
<g fill="#000000">
	<circle cx="4" cy="203" r="4"/>
</g>
<g fill="#000000">
	<circle cx="4" cy="147" r="4"/>
</g>
<g fill="#000000">
	<circle cx="163" cy="120" r="4"/>
</g>
<g fill="#000000">
	<circle cx="129" cy="52" r="4"/>
</g>
<g fill="#000000">
	<circle cx="4" cy="244" r="4"/>
</g>
<g fill="#000000">
	<circle cx="4" cy="294" r="4"/>
</g>

</g>

</svg>
