<?xml version="1.0" encoding="utf-8"?>
<!-- Created with Hypercube (http://tumic.wz.cz/hypercube) -->

<svg width="400" height="300" viewBox="0 0 400 300" xmlns="http://www.w3.org/2000/svg" baseProfile="tiny">

<g font-family="Helvetica" font-weight="normal">

<g>
	<polygon points="227,127 222,134 218,126" fill="#aaff00"/>
	<line x1="134" y1="164" x2="221" y2="130" stroke="#aaff00" stroke-width="2"/>
</g>
<g>
	<polygon points="311,83 306,90 302,82" fill="#aaff00"/>
	<line x1="232" y1="126" x2="304" y2="86" stroke="#aaff00" stroke-width="2"/>
</g>
<g>
	<polygon points="251,158 243,153 251,149" fill="#aaff00"/>
	<line x1="232" y1="126" x2="247" y2="152" stroke="#aaff00" stroke-width="2"/>
</g>
<g>
	<polygon points="267,111 262,118 258,110" fill="#aaff00"/>
	<line x1="232" y1="126" x2="261" y2="114" stroke="#aaff00" stroke-width="2"/>
</g>
<g>
	<polygon points="320,39 323,47 314,46" fill="#aaff00"/>
	<line x1="315" y1="81" x2="319" y2="46" stroke="#aaff00" stroke-width="2"/>
</g>
<g>
	<polygon points="274,55 279,47 283,56" fill="#aaff00"/>
	<line x1="321" y1="35" x2="280" y2="52" stroke="#aaff00" stroke-width="2"/>
</g>
<g>
	<polygon points="274,7 283,7 279,15" fill="#aaff00"/>
	<line x1="321" y1="35" x2="281" y2="11" stroke="#aaff00" stroke-width="2"/>
</g>
<g>
	<polygon points="345,125 339,119 348,116" fill="#aaff00"/>
	<line x1="321" y1="35" x2="343" y2="118" stroke="#aaff00" stroke-width="2"/>
</g>
<g>
	<polygon points="295,144 289,138 297,135" fill="#aaff00"/>
	<line x1="270" y1="57" x2="293" y2="137" stroke="#aaff00" stroke-width="2"/>
</g>
<g>
	<polygon points="130,88 136,82 138,91" fill="#aaff00"/>
	<line x1="270" y1="57" x2="137" y2="87" stroke="#aaff00" stroke-width="2"/>
</g>
<g>
	<polygon points="207,180 213,173 216,182" fill="#aaff00"/>
	<line x1="297" y1="149" x2="214" y2="178" stroke="#aaff00" stroke-width="2"/>
</g>
<g>
	<polygon points="70,134 79,132 76,141" fill="#aaff00"/>
	<line x1="203" y1="182" x2="77" y2="136" stroke="#aaff00" stroke-width="2"/>
</g>
<g>
	<polygon points="12,111 21,110 17,118" fill="#aaff00"/>
	<line x1="66" y1="133" x2="18" y2="114" stroke="#aaff00" stroke-width="2"/>
</g>
<g>
	<polygon points="42,71 40,80 33,74" fill="#aaff00"/>
	<line x1="8" y1="110" x2="37" y2="76" stroke="#aaff00" stroke-width="2"/>
</g>
<g>
	<polygon points="5,63 10,71 1,71" fill="#aaff00"/>
	<line x1="8" y1="110" x2="5" y2="70" stroke="#aaff00" stroke-width="2"/>
</g>
<g>
	<polygon points="47,9 51,17 42,17" fill="#aaff00"/>
	<line x1="45" y1="68" x2="47" y2="16" stroke="#aaff00" stroke-width="2"/>
</g>
<g>
	<polygon points="83,5 75,9 75,0" fill="#aaff00"/>
	<line x1="48" y1="5" x2="76" y2="5" stroke="#aaff00" stroke-width="2"/>
</g>
<g>
	<polygon points="120,5 112,9 112,0" fill="#aaff00"/>
	<line x1="88" y1="5" x2="113" y2="5" stroke="#aaff00" stroke-width="2"/>
</g>
<g>
	<polygon points="158,5 150,9 150,0" fill="#aaff00"/>
	<line x1="88" y1="5" x2="151" y2="5" stroke="#aaff00" stroke-width="2"/>
</g>
<g>
	<polygon points="158,5 150,9 150,0" fill="#aaff00"/>
	<line x1="125" y1="5" x2="151" y2="5" stroke="#aaff00" stroke-width="2"/>
</g>
<g>
	<polygon points="154,42 151,33 160,36" fill="#aaff00"/>
	<line x1="163" y1="5" x2="155" y2="35" stroke="#aaff00" stroke-width="2"/>
</g>
<g>
	<polygon points="128,86 128,77 136,81" fill="#aaff00"/>
	<line x1="153" y1="47" x2="132" y2="80" stroke="#aaff00" stroke-width="2"/>
</g>
<g>
	<polygon points="207,7 203,15 198,8" fill="#aaff00"/>
	<line x1="153" y1="47" x2="201" y2="11" stroke="#aaff00" stroke-width="2"/>
</g>
<g>
	<polygon points="162,208 156,202 164,199" fill="#aaff00"/>
	<line x1="126" y1="90" x2="160" y2="201" stroke="#aaff00" stroke-width="2"/>
</g>
<g>
	<polygon points="77,208 76,199 84,203" fill="#aaff00"/>
	<line x1="126" y1="90" x2="80" y2="202" stroke="#aaff00" stroke-width="2"/>
</g>
<g>
	<polygon points="243,246 234,247 238,239" fill="#aaff00"/>
	<line x1="164" y1="213" x2="237" y2="243" stroke="#aaff00" stroke-width="2"/>
</g>
<g>
	<polygon points="128,243 131,234 137,241" fill="#aaff00"/>
	<line x1="164" y1="213" x2="133" y2="238" stroke="#aaff00" stroke-width="2"/>
</g>
<g>
	<polygon points="324,292 315,292 319,284" fill="#aaff00"/>
	<line x1="248" y1="248" x2="317" y2="289" stroke="#aaff00" stroke-width="2"/>
</g>
<g>
	<polygon points="372,295 364,299 364,290" fill="#aaff00"/>
	<line x1="328" y1="295" x2="365" y2="295" stroke="#aaff00" stroke-width="2"/>
</g>
<g>
	<polygon points="287,295 295,290 295,299" fill="#aaff00"/>
	<line x1="328" y1="295" x2="294" y2="295" stroke="#aaff00" stroke-width="2"/>
</g>
<g>
	<polygon points="314,254 323,254 318,262" fill="#aaff00"/>
	<line x1="377" y1="295" x2="320" y2="258" stroke="#aaff00" stroke-width="2"/>
</g>
<g>
	<polygon points="202,270 209,264 210,273" fill="#aaff00"/>
	<line x1="311" y1="252" x2="209" y2="269" stroke="#aaff00" stroke-width="2"/>
</g>
<g>
	<polygon points="172,153 178,160 170,161" fill="#aaff00"/>
	<line x1="198" y1="271" x2="174" y2="160" stroke="#aaff00" stroke-width="2"/>
</g>
<g>
	<polygon points="191,79 193,88 185,85" fill="#aaff00"/>
	<line x1="172" y1="149" x2="189" y2="86" stroke="#aaff00" stroke-width="2"/>
</g>
<g>
	<polygon points="182,114 184,123 176,120" fill="#aaff00"/>
	<line x1="172" y1="149" x2="180" y2="121" stroke="#aaff00" stroke-width="2"/>
</g>
<g>
	<polygon points="267,8 264,16 258,9" fill="#aaff00"/>
	<line x1="193" y1="75" x2="262" y2="12" stroke="#aaff00" stroke-width="2"/>
</g>
<g>
	<polygon points="191,79 194,88 185,85" fill="#aaff00"/>
	<line x1="184" y1="110" x2="190" y2="86" stroke="#aaff00" stroke-width="2"/>
</g>
<g>
	<polygon points="227,69 225,77 218,71" fill="#aaff00"/>
	<line x1="184" y1="110" x2="222" y2="73" stroke="#aaff00" stroke-width="2"/>
</g>
<g>
	<polygon points="193,272 187,278 184,269" fill="#aaff00"/>
	<line x1="155" y1="282" x2="186" y2="273" stroke="#aaff00" stroke-width="2"/>
</g>
<g>
	<polygon points="152,278 143,275 150,269" fill="#aaff00"/>
	<line x1="125" y1="246" x2="147" y2="273" stroke="#aaff00" stroke-width="2"/>
</g>
<g>
	<polygon points="201,273 210,273 205,281" fill="#aaff00"/>
	<line x1="236" y1="295" x2="207" y2="277" stroke="#aaff00" stroke-width="2"/>
</g>
<g>
	<polygon points="240,295 248,290 248,299" fill="#aaff00"/>
	<line x1="283" y1="295" x2="247" y2="295" stroke="#aaff00" stroke-width="2"/>
</g>
<g>
	<polygon points="193,272 187,278 184,269" fill="#aaff00"/>
	<line x1="105" y1="295" x2="186" y2="273" stroke="#aaff00" stroke-width="2"/>
</g>
<g>
	<polygon points="100,293 91,295 94,286" fill="#aaff00"/>
	<line x1="49" y1="276" x2="93" y2="291" stroke="#aaff00" stroke-width="2"/>
</g>
<g>
	<polygon points="50,271 49,262 57,266" fill="#aaff00"/>
	<line x1="76" y1="213" x2="53" y2="265" stroke="#aaff00" stroke-width="2"/>
</g>
<g>
	<polygon points="270,201 262,206 262,197" fill="#aaff00"/>
	<line x1="76" y1="213" x2="263" y2="201" stroke="#aaff00" stroke-width="2"/>
</g>
<g>
	<polygon points="343,195 336,200 335,191" fill="#aaff00"/>
	<line x1="275" y1="201" x2="336" y2="195" stroke="#aaff00" stroke-width="2"/>
</g>
<g>
	<polygon points="343,133 341,141 335,135" fill="#aaff00"/>
	<line x1="275" y1="201" x2="338" y2="138" stroke="#aaff00" stroke-width="2"/>
</g>
<g>
	<polygon points="347,134 351,142 342,142" fill="#aaff00"/>
	<line x1="348" y1="195" x2="347" y2="141" stroke="#aaff00" stroke-width="2"/>
</g>
<g>
	<polygon points="391,220 382,220 386,212" fill="#aaff00"/>
	<line x1="348" y1="195" x2="384" y2="217" stroke="#aaff00" stroke-width="2"/>
</g>
<g>
	<polygon points="391,90 388,99 382,92" fill="#aaff00"/>
	<line x1="347" y1="130" x2="386" y2="95" stroke="#aaff00" stroke-width="2"/>
</g>
<g>
	<polygon points="395,9 399,17 390,17" fill="#aaff00"/>
	<line x1="395" y1="88" x2="395" y2="16" stroke="#aaff00" stroke-width="2"/>
</g>
<g>
	<polygon points="395,136 390,128 399,128" fill="#aaff00"/>
	<line x1="395" y1="88" x2="395" y2="129" stroke="#aaff00" stroke-width="2"/>
</g>
<g>
	<polygon points="395,50 399,58 390,58" fill="#aaff00"/>
	<line x1="395" y1="88" x2="395" y2="57" stroke="#aaff00" stroke-width="2"/>
</g>
<g>
	<polygon points="395,41 390,33 399,33" fill="#aaff00"/>
	<line x1="395" y1="5" x2="395" y2="34" stroke="#aaff00" stroke-width="2"/>
</g>
<g>
	<polygon points="40,67 32,69 33,60" fill="#aaff00"/>
	<line x1="5" y1="59" x2="33" y2="65" stroke="#aaff00" stroke-width="2"/>
</g>
<g>
	<polygon points="5,9 9,17 0,17" fill="#aaff00"/>
	<line x1="5" y1="59" x2="5" y2="16" stroke="#aaff00" stroke-width="2"/>
</g>
<g>
	<polygon points="270,114 272,123 263,120" fill="#aaff00"/>
	<line x1="254" y1="162" x2="268" y2="121" stroke="#aaff00" stroke-width="2"/>
</g>
<g>
	<polygon points="129,165 123,171 120,162" fill="#aaff00"/>
	<line x1="92" y1="174" x2="122" y2="166" stroke="#aaff00" stroke-width="2"/>
</g>

<g fill="#000000">
	<circle cx="91" cy="173" r="4"/>
</g>
<g fill="#000000">
	<circle cx="133" cy="163" r="4"/>
</g>
<g fill="#000000">
	<circle cx="231" cy="125" r="4"/>
</g>
<g fill="#000000">
	<circle cx="314" cy="80" r="4"/>
</g>
<g fill="#000000">
	<circle cx="253" cy="161" r="4"/>
</g>
<g fill="#000000">
	<circle cx="320" cy="34" r="4"/>
</g>
<g fill="#000000">
	<circle cx="271" cy="109" r="4"/>
</g>
<g fill="#000000">
	<circle cx="269" cy="56" r="4"/>
</g>
<g fill="#000000">
	<circle cx="296" cy="148" r="4"/>
</g>
<g fill="#000000">
	<circle cx="125" cy="89" r="4"/>
</g>
<g fill="#000000">
	<circle cx="202" cy="181" r="4"/>
</g>
<g fill="#000000">
	<circle cx="163" cy="212" r="4"/>
</g>
<g fill="#000000">
	<circle cx="75" cy="212" r="4"/>
</g>
<g fill="#000000">
	<circle cx="65" cy="132" r="4"/>
</g>
<g fill="#000000">
	<circle cx="7" cy="109" r="4"/>
</g>
<g fill="#000000">
	<circle cx="44" cy="67" r="4"/>
</g>
<g fill="#000000">
	<circle cx="4" cy="58" r="4"/>
</g>
<g fill="#000000">
	<circle cx="47" cy="4" r="4"/>
</g>
<g fill="#000000">
	<circle cx="4" cy="4" r="4"/>
</g>
<g fill="#000000">
	<circle cx="87" cy="4" r="4"/>
</g>
<g fill="#000000">
	<circle cx="124" cy="4" r="4"/>
</g>
<g fill="#000000">
	<circle cx="162" cy="4" r="4"/>
</g>
<g fill="#000000">
	<circle cx="152" cy="46" r="4"/>
</g>
<g fill="#000000">
	<circle cx="210" cy="4" r="4"/>
</g>
<g fill="#000000">
	<circle cx="247" cy="247" r="4"/>
</g>
<g fill="#000000">
	<circle cx="124" cy="245" r="4"/>
</g>
<g fill="#000000">
	<circle cx="48" cy="275" r="4"/>
</g>
<g fill="#000000">
	<circle cx="274" cy="200" r="4"/>
</g>
<g fill="#000000">
	<circle cx="327" cy="294" r="4"/>
</g>
<g fill="#000000">
	<circle cx="154" cy="281" r="4"/>
</g>
<g fill="#000000">
	<circle cx="376" cy="294" r="4"/>
</g>
<g fill="#000000">
	<circle cx="282" cy="294" r="4"/>
</g>
<g fill="#000000">
	<circle cx="310" cy="251" r="4"/>
</g>
<g fill="#000000">
	<circle cx="235" cy="294" r="4"/>
</g>
<g fill="#000000">
	<circle cx="197" cy="270" r="4"/>
</g>
<g fill="#000000">
	<circle cx="171" cy="148" r="4"/>
</g>
<g fill="#000000">
	<circle cx="192" cy="74" r="4"/>
</g>
<g fill="#000000">
	<circle cx="183" cy="109" r="4"/>
</g>
<g fill="#000000">
	<circle cx="270" cy="4" r="4"/>
</g>
<g fill="#000000">
	<circle cx="230" cy="65" r="4"/>
</g>
<g fill="#000000">
	<circle cx="104" cy="294" r="4"/>
</g>
<g fill="#000000">
	<circle cx="347" cy="194" r="4"/>
</g>
<g fill="#000000">
	<circle cx="346" cy="129" r="4"/>
</g>
<g fill="#000000">
	<circle cx="394" cy="222" r="4"/>
</g>
<g fill="#000000">
	<circle cx="394" cy="87" r="4"/>
</g>
<g fill="#000000">
	<circle cx="394" cy="4" r="4"/>
</g>
<g fill="#000000">
	<circle cx="394" cy="140" r="4"/>
</g>
<g fill="#000000">
	<circle cx="394" cy="45" r="4"/>
</g>

</g>

</svg>
