<?xml version="1.0" encoding="utf-8"?>
<!-- Created with Hypercube (http://tumic.wz.cz/hypercube) -->

<svg width="400" height="300" viewBox="0 0 400 300" xmlns="http://www.w3.org/2000/svg" baseProfile="tiny">

<g font-family="Helvetica" font-weight="normal">

<g>
	<polygon points="177,185 186,186 181,193" fill="#aaff00"/>
	<line x1="211" y1="209" x2="183" y2="189" stroke="#aaff00" stroke-width="2"/>
</g>
<g>
	<polygon points="214,211 223,212 218,219" fill="#aaff00"/>
	<line x1="252" y1="236" x2="220" y2="215" stroke="#aaff00" stroke-width="2"/>
</g>
<g>
	<polygon points="248,239 246,247 239,241" fill="#aaff00"/>
	<line x1="197" y1="288" x2="243" y2="244" stroke="#aaff00" stroke-width="2"/>
</g>
<g>
	<polygon points="152,242 151,251 144,246" fill="#aaff00"/>
	<line x1="124" y1="282" x2="148" y2="248" stroke="#aaff00" stroke-width="2"/>
</g>
<g>
	<polygon points="122,167 126,175 117,175" fill="#aaff00"/>
	<line x1="124" y1="282" x2="122" y2="174" stroke="#aaff00" stroke-width="2"/>
</g>
<g>
	<polygon points="123,223 127,231 118,231" fill="#aaff00"/>
	<line x1="124" y1="282" x2="123" y2="230" stroke="#aaff00" stroke-width="2"/>
</g>
<g>
	<polygon points="192,287 184,291 185,282" fill="#aaff00"/>
	<line x1="124" y1="282" x2="185" y2="287" stroke="#aaff00" stroke-width="2"/>
</g>
<g>
	<polygon points="192,251 187,259 183,250" fill="#aaff00"/>
	<line x1="124" y1="282" x2="186" y2="254" stroke="#aaff00" stroke-width="2"/>
</g>
<g>
	<polygon points="156,283 148,287 148,278" fill="#aaff00"/>
	<line x1="124" y1="282" x2="149" y2="283" stroke="#aaff00" stroke-width="2"/>
</g>
<g>
	<polygon points="228,290 220,294 221,285" fill="#aaff00"/>
	<line x1="124" y1="282" x2="221" y2="290" stroke="#aaff00" stroke-width="2"/>
</g>
<g>
	<polygon points="80,253 89,254 84,261" fill="#aaff00"/>
	<line x1="124" y1="282" x2="86" y2="257" stroke="#aaff00" stroke-width="2"/>
</g>
<g>
	<polygon points="172,187 174,196 165,193" fill="#aaff00"/>
	<line x1="155" y1="239" x2="170" y2="194" stroke="#aaff00" stroke-width="2"/>
</g>
<g>
	<polygon points="201,115 196,123 192,115" fill="#aaff00"/>
	<line x1="122" y1="163" x2="194" y2="119" stroke="#aaff00" stroke-width="2"/>
</g>
<g>
	<polygon points="165,137 170,129 174,137" fill="#aaff00"/>
	<line x1="205" y1="113" x2="171" y2="133" stroke="#aaff00" stroke-width="2"/>
</g>
<g>
	<polygon points="263,153 254,152 259,145" fill="#aaff00"/>
	<line x1="205" y1="113" x2="257" y2="149" stroke="#aaff00" stroke-width="2"/>
</g>
<g>
	<polygon points="172,178 166,172 175,169" fill="#aaff00"/>
	<line x1="162" y1="140" x2="170" y2="171" stroke="#aaff00" stroke-width="2"/>
</g>
<g>
	<polygon points="252,231 249,223 258,224" fill="#aaff00"/>
	<line x1="267" y1="156" x2="254" y2="224" stroke="#aaff00" stroke-width="2"/>
</g>
<g>
	<polygon points="208,109 211,101 217,108" fill="#aaff00"/>
	<line x1="276" y1="49" x2="213" y2="105" stroke="#aaff00" stroke-width="2"/>
</g>
<g>
	<polygon points="280,48 288,43 288,52" fill="#aaff00"/>
	<line x1="316" y1="47" x2="287" y2="48" stroke="#aaff00" stroke-width="2"/>
</g>
<g>
	<polygon points="244,80 249,72 253,80" fill="#aaff00"/>
	<line x1="316" y1="47" x2="250" y2="77" stroke="#aaff00" stroke-width="2"/>
</g>
<g>
	<polygon points="348,90 340,86 347,81" fill="#aaff00"/>
	<line x1="316" y1="47" x2="344" y2="84" stroke="#aaff00" stroke-width="2"/>
</g>
<g>
	<polygon points="192,52 200,47 200,56" fill="#aaff00"/>
	<line x1="316" y1="47" x2="199" y2="52" stroke="#aaff00" stroke-width="2"/>
</g>
<g>
	<polygon points="257,7 266,8 261,15" fill="#aaff00"/>
	<line x1="316" y1="47" x2="263" y2="11" stroke="#aaff00" stroke-width="2"/>
</g>
<g>
	<polygon points="176,179 176,170 184,175" fill="#aaff00"/>
	<line x1="240" y1="82" x2="180" y2="173" stroke="#aaff00" stroke-width="2"/>
</g>
<g>
	<polygon points="331,132 330,123 338,127" fill="#aaff00"/>
	<line x1="351" y1="94" x2="334" y2="125" stroke="#aaff00" stroke-width="2"/>
</g>
<g>
	<polygon points="266,191 269,182 275,189" fill="#aaff00"/>
	<line x1="329" y1="136" x2="271" y2="186" stroke="#aaff00" stroke-width="2"/>
</g>
<g>
	<polygon points="256,119 264,116 262,125" fill="#aaff00"/>
	<line x1="329" y1="136" x2="263" y2="120" stroke="#aaff00" stroke-width="2"/>
</g>
<g>
	<polygon points="231,43 240,45 233,51" fill="#aaff00"/>
	<line x1="329" y1="136" x2="236" y2="48" stroke="#aaff00" stroke-width="2"/>
</g>
<g>
	<polygon points="297,106 306,108 299,114" fill="#aaff00"/>
	<line x1="329" y1="136" x2="302" y2="111" stroke="#aaff00" stroke-width="2"/>
</g>
<g>
	<polygon points="314,168 313,159 322,163" fill="#aaff00"/>
	<line x1="329" y1="136" x2="317" y2="162" stroke="#aaff00" stroke-width="2"/>
</g>
<g>
	<polygon points="374,229 366,224 374,220" fill="#aaff00"/>
	<line x1="329" y1="136" x2="370" y2="223" stroke="#aaff00" stroke-width="2"/>
</g>
<g>
	<polygon points="357,194 349,189 357,185" fill="#aaff00"/>
	<line x1="329" y1="136" x2="353" y2="188" stroke="#aaff00" stroke-width="2"/>
</g>
<g>
	<polygon points="317,207 314,199 323,200" fill="#aaff00"/>
	<line x1="329" y1="136" x2="318" y2="200" stroke="#aaff00" stroke-width="2"/>
</g>
<g>
	<polygon points="225,159 231,153 233,162" fill="#aaff00"/>
	<line x1="329" y1="136" x2="232" y2="158" stroke="#aaff00" stroke-width="2"/>
</g>
<g>
	<polygon points="178,183 186,180 185,188" fill="#aaff00"/>
	<line x1="263" y1="194" x2="185" y2="184" stroke="#aaff00" stroke-width="2"/>
</g>
<g>
	<polygon points="164,94 173,91 170,100" fill="#aaff00"/>
	<line x1="252" y1="118" x2="171" y2="96" stroke="#aaff00" stroke-width="2"/>
</g>
<g>
	<polygon points="162,89 163,80 170,85" fill="#aaff00"/>
	<line x1="188" y1="53" x2="166" y2="83" stroke="#aaff00" stroke-width="2"/>
</g>
<g>
	<polygon points="162,96 171,99 164,105" fill="#aaff00"/>
	<line x1="294" y1="246" x2="167" y2="101" stroke="#aaff00" stroke-width="2"/>
</g>
<g>
	<polygon points="394,157 396,165 388,164" fill="#aaff00"/>
	<line x1="366" y1="288" x2="392" y2="164" stroke="#aaff00" stroke-width="2"/>
</g>
<g>
	<polygon points="278,294 285,289 286,298" fill="#aaff00"/>
	<line x1="366" y1="288" x2="285" y2="294" stroke="#aaff00" stroke-width="2"/>
</g>
<g>
	<polygon points="297,248 306,248 302,256" fill="#aaff00"/>
	<line x1="366" y1="288" x2="304" y2="251" stroke="#aaff00" stroke-width="2"/>
</g>
<g>
	<polygon points="329,290 336,285 337,294" fill="#aaff00"/>
	<line x1="366" y1="288" x2="336" y2="290" stroke="#aaff00" stroke-width="2"/>
</g>
<g>
	<polygon points="318,50 326,54 319,59" fill="#aaff00"/>
	<line x1="395" y1="153" x2="322" y2="56" stroke="#aaff00" stroke-width="2"/>
</g>
<g>
	<polygon points="128,282 136,278 135,287" fill="#aaff00"/>
	<line x1="274" y1="295" x2="135" y2="283" stroke="#aaff00" stroke-width="2"/>
</g>
<g>
	<polygon points="255,238 264,239 259,246" fill="#aaff00"/>
	<line x1="325" y1="291" x2="261" y2="243" stroke="#aaff00" stroke-width="2"/>
</g>
<g>
	<polygon points="155,91 146,92 150,84" fill="#aaff00"/>
	<line x1="110" y1="73" x2="149" y2="88" stroke="#aaff00" stroke-width="2"/>
</g>
<g>
	<polygon points="106,75 102,83 97,76" fill="#aaff00"/>
	<line x1="73" y1="98" x2="100" y2="79" stroke="#aaff00" stroke-width="2"/>
</g>
<g>
	<polygon points="91,24 94,33 85,30" fill="#aaff00"/>
	<line x1="73" y1="98" x2="90" y2="31" stroke="#aaff00" stroke-width="2"/>
</g>
<g>
	<polygon points="77,171 72,164 81,163" fill="#aaff00"/>
	<line x1="73" y1="98" x2="77" y2="164" stroke="#aaff00" stroke-width="2"/>
</g>
<g>
	<polygon points="136,6 130,12 127,4" fill="#aaff00"/>
	<line x1="93" y1="20" x2="129" y2="8" stroke="#aaff00" stroke-width="2"/>
</g>
<g>
	<polygon points="145,5 153,0 153,9" fill="#aaff00"/>
	<line x1="254" y1="5" x2="152" y2="5" stroke="#aaff00" stroke-width="2"/>
</g>
<g>
	<polygon points="136,5 128,9 128,0" fill="#aaff00"/>
	<line x1="44" y1="5" x2="129" y2="5" stroke="#aaff00" stroke-width="2"/>
</g>
<g>
	<polygon points="19,97 13,91 22,88" fill="#aaff00"/>
	<line x1="5" y1="45" x2="17" y2="90" stroke="#aaff00" stroke-width="2"/>
</g>
<g>
	<polygon points="40,8 38,16 32,10" fill="#aaff00"/>
	<line x1="5" y1="45" x2="35" y2="13" stroke="#aaff00" stroke-width="2"/>
</g>
<g>
	<polygon points="155,93 148,98 147,89" fill="#aaff00"/>
	<line x1="21" y1="102" x2="148" y2="93" stroke="#aaff00" stroke-width="2"/>
</g>
<g>
	<polygon points="145,6 154,5 150,13" fill="#aaff00"/>
	<line x1="228" y1="40" x2="151" y2="9" stroke="#aaff00" stroke-width="2"/>
</g>
<g>
	<polygon points="247,234 238,236 241,227" fill="#aaff00"/>
	<line x1="78" y1="176" x2="240" y2="232" stroke="#aaff00" stroke-width="2"/>
</g>
<g>
	<polygon points="161,88 161,79 169,83" fill="#aaff00"/>
	<line x1="200" y1="6" x2="164" y2="82" stroke="#aaff00" stroke-width="2"/>
</g>
<g>
	<polygon points="378,42 369,41 374,34" fill="#aaff00"/>
	<line x1="324" y1="5" x2="372" y2="38" stroke="#aaff00" stroke-width="2"/>
</g>
<g>
	<polygon points="204,5 212,1 212,10" fill="#aaff00"/>
	<line x1="324" y1="5" x2="211" y2="5" stroke="#aaff00" stroke-width="2"/>
</g>
<g>
	<polygon points="331,132 331,123 339,127" fill="#aaff00"/>
	<line x1="382" y1="45" x2="334" y2="125" stroke="#aaff00" stroke-width="2"/>
</g>
<g>
	<polygon points="209,112 216,107 217,116" fill="#aaff00"/>
	<line x1="294" y1="103" x2="216" y2="111" stroke="#aaff00" stroke-width="2"/>
</g>
<g>
	<polygon points="255,232 257,224 263,230" fill="#aaff00"/>
	<line x1="313" y1="173" x2="260" y2="227" stroke="#aaff00" stroke-width="2"/>
</g>
<g>
	<polygon points="256,235 264,231 264,240" fill="#aaff00"/>
	<line x1="376" y1="234" x2="263" y2="235" stroke="#aaff00" stroke-width="2"/>
</g>
<g>
	<polygon points="256,234 262,227 265,236" fill="#aaff00"/>
	<line x1="359" y1="199" x2="263" y2="232" stroke="#aaff00" stroke-width="2"/>
</g>
<g>
	<polygon points="256,234 261,227 265,235" fill="#aaff00"/>
	<line x1="317" y1="212" x2="262" y2="231" stroke="#aaff00" stroke-width="2"/>
</g>
<g>
	<polygon points="178,181 183,173 187,181" fill="#aaff00"/>
	<line x1="221" y1="161" x2="184" y2="178" stroke="#aaff00" stroke-width="2"/>
</g>
<g>
	<polygon points="170,185 166,193 161,186" fill="#aaff00"/>
	<line x1="123" y1="219" x2="164" y2="189" stroke="#aaff00" stroke-width="2"/>
</g>
<g>
	<polygon points="247,237 241,243 238,234" fill="#aaff00"/>
	<line x1="197" y1="250" x2="240" y2="238" stroke="#aaff00" stroke-width="2"/>
</g>
<g>
	<polygon points="248,238 243,245 239,237" fill="#aaff00"/>
	<line x1="161" y1="284" x2="241" y2="241" stroke="#aaff00" stroke-width="2"/>
</g>
<g>
	<polygon points="250,240 252,249 243,246" fill="#aaff00"/>
	<line x1="233" y1="291" x2="248" y2="247" stroke="#aaff00" stroke-width="2"/>
</g>
<g>
	<polygon points="170,185 166,193 161,186" fill="#aaff00"/>
	<line x1="77" y1="251" x2="164" y2="189" stroke="#aaff00" stroke-width="2"/>
</g>

<g fill="#000000">
	<circle cx="173" cy="182" r="4"/>
</g>
<g fill="#000000">
	<circle cx="251" cy="235" r="4"/>
</g>
<g fill="#000000">
	<circle cx="210" cy="208" r="4"/>
</g>
<g fill="#000000">
	<circle cx="123" cy="281" r="4"/>
</g>
<g fill="#000000">
	<circle cx="154" cy="238" r="4"/>
</g>
<g fill="#000000">
	<circle cx="121" cy="162" r="4"/>
</g>
<g fill="#000000">
	<circle cx="122" cy="218" r="4"/>
</g>
<g fill="#000000">
	<circle cx="196" cy="287" r="4"/>
</g>
<g fill="#000000">
	<circle cx="196" cy="249" r="4"/>
</g>
<g fill="#000000">
	<circle cx="160" cy="283" r="4"/>
</g>
<g fill="#000000">
	<circle cx="232" cy="290" r="4"/>
</g>
<g fill="#000000">
	<circle cx="76" cy="250" r="4"/>
</g>
<g fill="#000000">
	<circle cx="159" cy="92" r="4"/>
</g>
<g fill="#000000">
	<circle cx="140" cy="4" r="4"/>
</g>
<g fill="#000000">
	<circle cx="204" cy="112" r="4"/>
</g>
<g fill="#000000">
	<circle cx="161" cy="139" r="4"/>
</g>
<g fill="#000000">
	<circle cx="266" cy="155" r="4"/>
</g>
<g fill="#000000">
	<circle cx="315" cy="46" r="4"/>
</g>
<g fill="#000000">
	<circle cx="275" cy="48" r="4"/>
</g>
<g fill="#000000">
	<circle cx="239" cy="81" r="4"/>
</g>
<g fill="#000000">
	<circle cx="350" cy="93" r="4"/>
</g>
<g fill="#000000">
	<circle cx="187" cy="52" r="4"/>
</g>
<g fill="#000000">
	<circle cx="253" cy="4" r="4"/>
</g>
<g fill="#000000">
	<circle cx="365" cy="287" r="4"/>
</g>
<g fill="#000000">
	<circle cx="394" cy="152" r="4"/>
</g>
<g fill="#000000">
	<circle cx="273" cy="294" r="4"/>
</g>
<g fill="#000000">
	<circle cx="293" cy="245" r="4"/>
</g>
<g fill="#000000">
	<circle cx="324" cy="290" r="4"/>
</g>
<g fill="#000000">
	<circle cx="72" cy="97" r="4"/>
</g>
<g fill="#000000">
	<circle cx="109" cy="72" r="4"/>
</g>
<g fill="#000000">
	<circle cx="92" cy="19" r="4"/>
</g>
<g fill="#000000">
	<circle cx="77" cy="175" r="4"/>
</g>
<g fill="#000000">
	<circle cx="4" cy="44" r="4"/>
</g>
<g fill="#000000">
	<circle cx="20" cy="101" r="4"/>
</g>
<g fill="#000000">
	<circle cx="43" cy="4" r="4"/>
</g>
<g fill="#000000">
	<circle cx="328" cy="135" r="4"/>
</g>
<g fill="#000000">
	<circle cx="262" cy="193" r="4"/>
</g>
<g fill="#000000">
	<circle cx="251" cy="117" r="4"/>
</g>
<g fill="#000000">
	<circle cx="227" cy="39" r="4"/>
</g>
<g fill="#000000">
	<circle cx="293" cy="102" r="4"/>
</g>
<g fill="#000000">
	<circle cx="312" cy="172" r="4"/>
</g>
<g fill="#000000">
	<circle cx="375" cy="233" r="4"/>
</g>
<g fill="#000000">
	<circle cx="358" cy="198" r="4"/>
</g>
<g fill="#000000">
	<circle cx="316" cy="211" r="4"/>
</g>
<g fill="#000000">
	<circle cx="220" cy="160" r="4"/>
</g>
<g fill="#000000">
	<circle cx="323" cy="4" r="4"/>
</g>
<g fill="#000000">
	<circle cx="381" cy="44" r="4"/>
</g>
<g fill="#000000">
	<circle cx="199" cy="5" r="4"/>
</g>

</g>

</svg>
