<?xml version="1.0" encoding="utf-8"?>
<!-- Created with Hypercube (http://tumic.wz.cz/hypercube) -->

<svg width="400" height="300" viewBox="0 0 400 300" xmlns="http://www.w3.org/2000/svg" baseProfile="tiny">

<g font-family="Helvetica" font-weight="normal">

<g>
	<polygon points="349,236 342,231 350,227" fill="#aaff00"/>
	<line x1="300" y1="144" x2="346" y2="229" stroke="#aaff00" stroke-width="2"/>
</g>
<g>
	<polygon points="358,63 357,72 350,67" fill="#aaff00"/>
	<line x1="300" y1="144" x2="354" y2="69" stroke="#aaff00" stroke-width="2"/>
</g>
<g>
	<polygon points="340,118 336,126 331,118" fill="#aaff00"/>
	<line x1="300" y1="144" x2="334" y2="122" stroke="#aaff00" stroke-width="2"/>
</g>
<g>
	<polygon points="390,123 383,130 382,121" fill="#aaff00"/>
	<line x1="300" y1="144" x2="383" y2="125" stroke="#aaff00" stroke-width="2"/>
</g>
<g>
	<polygon points="295,142 286,143 290,135" fill="#aaff00"/>
	<line x1="225" y1="114" x2="289" y2="139" stroke="#aaff00" stroke-width="2"/>
</g>
<g>
	<polygon points="209,154 208,145 216,149" fill="#aaff00"/>
	<line x1="225" y1="114" x2="212" y2="148" stroke="#aaff00" stroke-width="2"/>
</g>
<g>
	<polygon points="206,72 214,77 205,81" fill="#aaff00"/>
	<line x1="225" y1="114" x2="209" y2="78" stroke="#aaff00" stroke-width="2"/>
</g>
<g>
	<polygon points="165,137 170,130 174,138" fill="#aaff00"/>
	<line x1="225" y1="114" x2="171" y2="134" stroke="#aaff00" stroke-width="2"/>
</g>
<g>
	<polygon points="102,82 111,79 108,88" fill="#aaff00"/>
	<line x1="225" y1="114" x2="109" y2="83" stroke="#aaff00" stroke-width="2"/>
</g>
<g>
	<polygon points="292,22 291,31 284,26" fill="#aaff00"/>
	<line x1="225" y1="114" x2="288" y2="28" stroke="#aaff00" stroke-width="2"/>
</g>
<g>
	<polygon points="277,97 271,103 268,95" fill="#aaff00"/>
	<line x1="225" y1="114" x2="270" y2="99" stroke="#aaff00" stroke-width="2"/>
</g>
<g>
	<polygon points="253,57 254,66 246,62" fill="#aaff00"/>
	<line x1="225" y1="114" x2="250" y2="64" stroke="#aaff00" stroke-width="2"/>
</g>
<g>
	<polygon points="211,202 208,194 217,195" fill="#aaff00"/>
	<line x1="225" y1="114" x2="212" y2="195" stroke="#aaff00" stroke-width="2"/>
</g>
<g>
	<polygon points="295,145 289,152 286,143" fill="#aaff00"/>
	<line x1="122" y1="202" x2="288" y2="147" stroke="#aaff00" stroke-width="2"/>
</g>
<g>
	<polygon points="221,116 218,125 212,118" fill="#aaff00"/>
	<line x1="122" y1="202" x2="216" y2="121" stroke="#aaff00" stroke-width="2"/>
</g>
<g>
	<polygon points="203,161 199,168 194,160" fill="#aaff00"/>
	<line x1="122" y1="202" x2="197" y2="164" stroke="#aaff00" stroke-width="2"/>
</g>
<g>
	<polygon points="202,71 202,80 194,76" fill="#aaff00"/>
	<line x1="122" y1="202" x2="198" y2="77" stroke="#aaff00" stroke-width="2"/>
</g>
<g>
	<polygon points="158,142 158,151 150,147" fill="#aaff00"/>
	<line x1="122" y1="202" x2="154" y2="148" stroke="#aaff00" stroke-width="2"/>
</g>
<g>
	<polygon points="98,85 104,92 95,93" fill="#aaff00"/>
	<line x1="122" y1="202" x2="100" y2="92" stroke="#aaff00" stroke-width="2"/>
</g>
<g>
	<polygon points="206,206 198,210 198,201" fill="#aaff00"/>
	<line x1="122" y1="202" x2="199" y2="206" stroke="#aaff00" stroke-width="2"/>
</g>
<g>
	<polygon points="105,119 111,126 102,127" fill="#aaff00"/>
	<line x1="122" y1="202" x2="107" y2="126" stroke="#aaff00" stroke-width="2"/>
</g>
<g>
	<polygon points="136,99 139,107 130,106" fill="#aaff00"/>
	<line x1="122" y1="202" x2="135" y2="106" stroke="#aaff00" stroke-width="2"/>
</g>
<g>
	<polygon points="138,173 138,182 130,178" fill="#aaff00"/>
	<line x1="122" y1="202" x2="135" y2="180" stroke="#aaff00" stroke-width="2"/>
</g>
<g>
	<polygon points="123,248 119,240 128,240" fill="#aaff00"/>
	<line x1="122" y1="202" x2="123" y2="241" stroke="#aaff00" stroke-width="2"/>
</g>
<g>
	<polygon points="13,292 16,283 22,290" fill="#aaff00"/>
	<line x1="122" y1="202" x2="18" y2="287" stroke="#aaff00" stroke-width="2"/>
</g>
<g>
	<polygon points="29,246 34,238 38,246" fill="#aaff00"/>
	<line x1="122" y1="202" x2="35" y2="242" stroke="#aaff00" stroke-width="2"/>
</g>
<g>
	<polygon points="111,150 117,157 108,158" fill="#aaff00"/>
	<line x1="122" y1="202" x2="113" y2="157" stroke="#aaff00" stroke-width="2"/>
</g>
<g>
	<polygon points="158,220 149,221 153,213" fill="#aaff00"/>
	<line x1="122" y1="202" x2="151" y2="217" stroke="#aaff00" stroke-width="2"/>
</g>
<g>
	<polygon points="112,290 108,282 117,283" fill="#aaff00"/>
	<line x1="122" y1="202" x2="113" y2="283" stroke="#aaff00" stroke-width="2"/>
</g>
<g>
	<polygon points="159,290 152,285 160,281" fill="#aaff00"/>
	<line x1="122" y1="202" x2="156" y2="284" stroke="#aaff00" stroke-width="2"/>
</g>
<g>
	<polygon points="24,101 32,103 26,109" fill="#aaff00"/>
	<line x1="122" y1="202" x2="29" y2="106" stroke="#aaff00" stroke-width="2"/>
</g>
<g>
	<polygon points="10,204 18,200 18,209" fill="#aaff00"/>
	<line x1="122" y1="202" x2="17" y2="204" stroke="#aaff00" stroke-width="2"/>
</g>
<g>
	<polygon points="191,252 182,251 187,244" fill="#aaff00"/>
	<line x1="122" y1="202" x2="185" y2="248" stroke="#aaff00" stroke-width="2"/>
</g>
<g>
	<polygon points="67,145 75,147 69,153" fill="#aaff00"/>
	<line x1="122" y1="202" x2="72" y2="150" stroke="#aaff00" stroke-width="2"/>
</g>
<g>
	<polygon points="9,155 18,154 14,162" fill="#aaff00"/>
	<line x1="122" y1="202" x2="15" y2="158" stroke="#aaff00" stroke-width="2"/>
</g>
<g>
	<polygon points="81,237 84,228 90,235" fill="#aaff00"/>
	<line x1="122" y1="202" x2="86" y2="232" stroke="#aaff00" stroke-width="2"/>
</g>
<g>
	<polygon points="65,196 73,192 72,201" fill="#aaff00"/>
	<line x1="122" y1="202" x2="72" y2="197" stroke="#aaff00" stroke-width="2"/>
</g>
<g>
	<polygon points="68,291 68,282 76,286" fill="#aaff00"/>
	<line x1="122" y1="202" x2="72" y2="284" stroke="#aaff00" stroke-width="2"/>
</g>
<g>
	<polygon points="171,8 179,13 171,17" fill="#aaff00"/>
	<line x1="205" y1="68" x2="174" y2="15" stroke="#aaff00" stroke-width="2"/>
</g>
<g>
	<polygon points="222,9 224,18 216,15" fill="#aaff00"/>
	<line x1="205" y1="68" x2="220" y2="16" stroke="#aaff00" stroke-width="2"/>
</g>
<g>
	<polygon points="208,203 200,199 207,194" fill="#aaff00"/>
	<line x1="161" y1="139" x2="204" y2="197" stroke="#aaff00" stroke-width="2"/>
</g>
<g>
	<polygon points="109,116 118,115 114,123" fill="#aaff00"/>
	<line x1="161" y1="139" x2="115" y2="119" stroke="#aaff00" stroke-width="2"/>
</g>
<g>
	<polygon points="143,166 143,157 151,162" fill="#aaff00"/>
	<line x1="161" y1="139" x2="147" y2="160" stroke="#aaff00" stroke-width="2"/>
</g>
<g>
	<polygon points="209,211 211,220 202,217" fill="#aaff00"/>
	<line x1="195" y1="255" x2="207" y2="218" stroke="#aaff00" stroke-width="2"/>
</g>
<g>
	<polygon points="219,291 211,287 218,282" fill="#aaff00"/>
	<line x1="195" y1="255" x2="215" y2="285" stroke="#aaff00" stroke-width="2"/>
</g>
<g>
	<polygon points="211,211 216,218 208,219" fill="#aaff00"/>
	<line x1="222" y1="295" x2="212" y2="218" stroke="#aaff00" stroke-width="2"/>
</g>
<g>
	<polygon points="215,205 221,199 224,207" fill="#aaff00"/>
	<line x1="263" y1="191" x2="222" y2="203" stroke="#aaff00" stroke-width="2"/>
</g>
<g>
	<polygon points="214,210 222,212 216,219" fill="#aaff00"/>
	<line x1="253" y1="252" x2="218" y2="215" stroke="#aaff00" stroke-width="2"/>
</g>
<g>
	<polygon points="104,110 100,102 109,102" fill="#aaff00"/>
	<line x1="103" y1="33" x2="104" y2="103" stroke="#aaff00" stroke-width="2"/>
</g>
<g>
	<polygon points="158,135 151,130 159,126" fill="#aaff00"/>
	<line x1="137" y1="95" x2="155" y2="128" stroke="#aaff00" stroke-width="2"/>
</g>
<g>
	<polygon points="102,82 111,80 108,89" fill="#aaff00"/>
	<line x1="137" y1="95" x2="109" y2="84" stroke="#aaff00" stroke-width="2"/>
</g>
<g>
	<polygon points="105,36 112,41 104,45" fill="#aaff00"/>
	<line x1="137" y1="95" x2="108" y2="43" stroke="#aaff00" stroke-width="2"/>
</g>
<g>
	<polygon points="108,112 113,104 117,112" fill="#aaff00"/>
	<line x1="137" y1="95" x2="114" y2="108" stroke="#aaff00" stroke-width="2"/>
</g>
<g>
	<polygon points="140,165 135,157 144,157" fill="#aaff00"/>
	<line x1="137" y1="95" x2="140" y2="158" stroke="#aaff00" stroke-width="2"/>
</g>
<g>
	<polygon points="172,101 164,104 165,95" fill="#aaff00"/>
	<line x1="137" y1="95" x2="165" y2="99" stroke="#aaff00" stroke-width="2"/>
</g>
<g>
	<polygon points="156,139 149,145 148,136" fill="#aaff00"/>
	<line x1="111" y1="146" x2="149" y2="140" stroke="#aaff00" stroke-width="2"/>
</g>
<g>
	<polygon points="98,85 104,92 95,93" fill="#aaff00"/>
	<line x1="111" y1="146" x2="100" y2="92" stroke="#aaff00" stroke-width="2"/>
</g>
<g>
	<polygon points="105,119 111,126 102,127" fill="#aaff00"/>
	<line x1="111" y1="146" x2="107" y2="126" stroke="#aaff00" stroke-width="2"/>
</g>
<g>
	<polygon points="137,167 128,165 134,158" fill="#aaff00"/>
	<line x1="111" y1="146" x2="131" y2="162" stroke="#aaff00" stroke-width="2"/>
</g>
<g>
	<polygon points="68,142 76,138 75,147" fill="#aaff00"/>
	<line x1="111" y1="146" x2="75" y2="142" stroke="#aaff00" stroke-width="2"/>
</g>
<g>
	<polygon points="6,43 12,49 3,52" fill="#aaff00"/>
	<line x1="21" y1="98" x2="8" y2="50" stroke="#aaff00" stroke-width="2"/>
</g>
<g>
	<polygon points="392,291 383,288 390,282" fill="#aaff00"/>
	<line x1="352" y1="240" x2="387" y2="285" stroke="#aaff00" stroke-width="2"/>
</g>
<g>
	<polygon points="391,195 390,204 383,198" fill="#aaff00"/>
	<line x1="352" y1="240" x2="387" y2="200" stroke="#aaff00" stroke-width="2"/>
</g>
<g>
	<polygon points="350,290 345,282 354,282" fill="#aaff00"/>
	<line x1="352" y1="240" x2="350" y2="283" stroke="#aaff00" stroke-width="2"/>
</g>
<g>
	<polygon points="306,291 308,282 315,288" fill="#aaff00"/>
	<line x1="352" y1="240" x2="311" y2="286" stroke="#aaff00" stroke-width="2"/>
</g>
<g>
	<polygon points="345,194 351,201 342,202" fill="#aaff00"/>
	<line x1="352" y1="240" x2="346" y2="201" stroke="#aaff00" stroke-width="2"/>
</g>
<g>
	<polygon points="313,240 321,235 321,244" fill="#aaff00"/>
	<line x1="352" y1="240" x2="320" y2="240" stroke="#aaff00" stroke-width="2"/>
</g>
<g>
	<polygon points="390,246 382,249 383,240" fill="#aaff00"/>
	<line x1="352" y1="240" x2="383" y2="245" stroke="#aaff00" stroke-width="2"/>
</g>

<g fill="#000000">
	<circle cx="299" cy="143" r="4"/>
</g>
<g fill="#000000">
	<circle cx="351" cy="239" r="4"/>
</g>
<g fill="#000000">
	<circle cx="360" cy="59" r="4"/>
</g>
<g fill="#000000">
	<circle cx="343" cy="115" r="4"/>
</g>
<g fill="#000000">
	<circle cx="394" cy="122" r="4"/>
</g>
<g fill="#000000">
	<circle cx="224" cy="113" r="4"/>
</g>
<g fill="#000000">
	<circle cx="207" cy="158" r="4"/>
</g>
<g fill="#000000">
	<circle cx="204" cy="67" r="4"/>
</g>
<g fill="#000000">
	<circle cx="160" cy="138" r="4"/>
</g>
<g fill="#000000">
	<circle cx="97" cy="80" r="4"/>
</g>
<g fill="#000000">
	<circle cx="294" cy="18" r="4"/>
</g>
<g fill="#000000">
	<circle cx="281" cy="95" r="4"/>
</g>
<g fill="#000000">
	<circle cx="255" cy="53" r="4"/>
</g>
<g fill="#000000">
	<circle cx="210" cy="206" r="4"/>
</g>
<g fill="#000000">
	<circle cx="394" cy="294" r="4"/>
</g>
<g fill="#000000">
	<circle cx="102" cy="32" r="4"/>
</g>
<g fill="#000000">
	<circle cx="104" cy="114" r="4"/>
</g>
<g fill="#000000">
	<circle cx="394" cy="191" r="4"/>
</g>
<g fill="#000000">
	<circle cx="136" cy="94" r="4"/>
</g>
<g fill="#000000">
	<circle cx="140" cy="169" r="4"/>
</g>
<g fill="#000000">
	<circle cx="176" cy="101" r="4"/>
</g>
<g fill="#000000">
	<circle cx="121" cy="201" r="4"/>
</g>
<g fill="#000000">
	<circle cx="123" cy="252" r="4"/>
</g>
<g fill="#000000">
	<circle cx="9" cy="294" r="4"/>
</g>
<g fill="#000000">
	<circle cx="24" cy="247" r="4"/>
</g>
<g fill="#000000">
	<circle cx="110" cy="145" r="4"/>
</g>
<g fill="#000000">
	<circle cx="161" cy="222" r="4"/>
</g>
<g fill="#000000">
	<circle cx="111" cy="294" r="4"/>
</g>
<g fill="#000000">
	<circle cx="160" cy="294" r="4"/>
</g>
<g fill="#000000">
	<circle cx="20" cy="97" r="4"/>
</g>
<g fill="#000000">
	<circle cx="5" cy="204" r="4"/>
</g>
<g fill="#000000">
	<circle cx="194" cy="254" r="4"/>
</g>
<g fill="#000000">
	<circle cx="63" cy="141" r="4"/>
</g>
<g fill="#000000">
	<circle cx="4" cy="153" r="4"/>
</g>
<g fill="#000000">
	<circle cx="77" cy="239" r="4"/>
</g>
<g fill="#000000">
	<circle cx="60" cy="195" r="4"/>
</g>
<g fill="#000000">
	<circle cx="65" cy="294" r="4"/>
</g>
<g fill="#000000">
	<circle cx="168" cy="4" r="4"/>
</g>
<g fill="#000000">
	<circle cx="223" cy="4" r="4"/>
</g>
<g fill="#000000">
	<circle cx="262" cy="190" r="4"/>
</g>
<g fill="#000000">
	<circle cx="349" cy="294" r="4"/>
</g>
<g fill="#000000">
	<circle cx="4" cy="38" r="4"/>
</g>
<g fill="#000000">
	<circle cx="303" cy="294" r="4"/>
</g>
<g fill="#000000">
	<circle cx="221" cy="294" r="4"/>
</g>
<g fill="#000000">
	<circle cx="344" cy="189" r="4"/>
</g>
<g fill="#000000">
	<circle cx="252" cy="251" r="4"/>
</g>
<g fill="#000000">
	<circle cx="308" cy="239" r="4"/>
</g>
<g fill="#000000">
	<circle cx="394" cy="246" r="4"/>
</g>

</g>

</svg>
