<?xml version="1.0" encoding="utf-8"?>
<!-- Created with Hypercube (http://tumic.wz.cz/hypercube) -->

<svg width="400" height="300" viewBox="0 0 400 300" xmlns="http://www.w3.org/2000/svg" baseProfile="tiny">

<g font-family="Helvetica" font-weight="normal">

<g>
	<polygon points="21,142 26,134 30,143" fill="#aaff00"/>
	<line x1="106" y1="104" x2="27" y2="139" stroke="#aaff00" stroke-width="2"/>
</g>
<g>
	<polygon points="108,52 112,60 103,60" fill="#aaff00"/>
	<line x1="106" y1="104" x2="108" y2="59" stroke="#aaff00" stroke-width="2"/>
</g>
<g>
	<polygon points="162,45 160,53 154,47" fill="#aaff00"/>
	<line x1="106" y1="104" x2="157" y2="50" stroke="#aaff00" stroke-width="2"/>
</g>
<g>
	<polygon points="85,145 84,136 92,141" fill="#aaff00"/>
	<line x1="106" y1="104" x2="88" y2="139" stroke="#aaff00" stroke-width="2"/>
</g>
<g>
	<polygon points="16,78 25,76 22,84" fill="#aaff00"/>
	<line x1="106" y1="104" x2="23" y2="80" stroke="#aaff00" stroke-width="2"/>
</g>
<g>
	<polygon points="135,148 127,144 134,139" fill="#aaff00"/>
	<line x1="106" y1="104" x2="131" y2="142" stroke="#aaff00" stroke-width="2"/>
</g>
<g>
	<polygon points="261,119 253,123 254,114" fill="#aaff00"/>
	<line x1="106" y1="104" x2="254" y2="118" stroke="#aaff00" stroke-width="2"/>
</g>
<g>
	<polygon points="49,21 57,25 50,30" fill="#aaff00"/>
	<line x1="106" y1="104" x2="53" y2="27" stroke="#aaff00" stroke-width="2"/>
</g>
<g>
	<polygon points="192,195 184,193 190,186" fill="#aaff00"/>
	<line x1="106" y1="104" x2="187" y2="190" stroke="#aaff00" stroke-width="2"/>
</g>
<g>
	<polygon points="5,195 3,187 11,188" fill="#aaff00"/>
	<line x1="17" y1="144" x2="7" y2="188" stroke="#aaff00" stroke-width="2"/>
</g>
<g>
	<polygon points="46,272 38,267 46,263" fill="#aaff00"/>
	<line x1="5" y1="200" x2="43" y2="265" stroke="#aaff00" stroke-width="2"/>
</g>
<g>
	<polygon points="9,256 18,255 13,263" fill="#aaff00"/>
	<line x1="49" y1="276" x2="15" y2="259" stroke="#aaff00" stroke-width="2"/>
</g>
<g>
	<polygon points="146,294 138,297 139,288" fill="#aaff00"/>
	<line x1="49" y1="276" x2="139" y2="292" stroke="#aaff00" stroke-width="2"/>
</g>
<g>
	<polygon points="5,290 0,282 9,282" fill="#aaff00"/>
	<line x1="5" y1="254" x2="5" y2="283" stroke="#aaff00" stroke-width="2"/>
</g>
<g>
	<polygon points="88,284 81,289 80,281" fill="#aaff00"/>
	<line x1="5" y1="295" x2="81" y2="285" stroke="#aaff00" stroke-width="2"/>
</g>
<g>
	<polygon points="180,257 174,263 171,255" fill="#aaff00"/>
	<line x1="93" y1="284" x2="173" y2="259" stroke="#aaff00" stroke-width="2"/>
</g>
<g>
	<polygon points="267,179 265,187 258,181" fill="#aaff00"/>
	<line x1="185" y1="256" x2="262" y2="183" stroke="#aaff00" stroke-width="2"/>
</g>
<g>
	<polygon points="271,180 275,188 266,188" fill="#aaff00"/>
	<line x1="271" y1="295" x2="271" y2="187" stroke="#aaff00" stroke-width="2"/>
</g>
<g>
	<polygon points="266,295 258,299 258,290" fill="#aaff00"/>
	<line x1="151" y1="295" x2="259" y2="295" stroke="#aaff00" stroke-width="2"/>
</g>
<g>
	<polygon points="275,293 281,287 284,296" fill="#aaff00"/>
	<line x1="328" y1="280" x2="282" y2="292" stroke="#aaff00" stroke-width="2"/>
</g>
<g>
	<polygon points="308,241 315,246 307,250" fill="#aaff00"/>
	<line x1="328" y1="280" x2="311" y2="248" stroke="#aaff00" stroke-width="2"/>
</g>
<g>
	<polygon points="273,179 280,184 273,188" fill="#aaff00"/>
	<line x1="306" y1="238" x2="276" y2="186" stroke="#aaff00" stroke-width="2"/>
</g>
<g>
	<polygon points="327,275 322,267 331,267" fill="#aaff00"/>
	<line x1="323" y1="190" x2="327" y2="268" stroke="#aaff00" stroke-width="2"/>
</g>
<g>
	<polygon points="320,186 311,183 318,177" fill="#aaff00"/>
	<line x1="266" y1="120" x2="315" y2="180" stroke="#aaff00" stroke-width="2"/>
</g>
<g>
	<polygon points="301,73 300,82 292,77" fill="#aaff00"/>
	<line x1="266" y1="120" x2="296" y2="79" stroke="#aaff00" stroke-width="2"/>
</g>
<g>
	<polygon points="264,60 272,58 270,67" fill="#aaff00"/>
	<line x1="304" y1="70" x2="271" y2="62" stroke="#aaff00" stroke-width="2"/>
</g>
<g>
	<polygon points="270,171 265,164 274,163" fill="#aaff00"/>
	<line x1="260" y1="60" x2="269" y2="164" stroke="#aaff00" stroke-width="2"/>
</g>
<g>
	<polygon points="257,56 248,53 255,47" fill="#aaff00"/>
	<line x1="217" y1="5" x2="252" y2="50" stroke="#aaff00" stroke-width="2"/>
</g>
<g>
	<polygon points="212,5 204,9 204,0" fill="#aaff00"/>
	<line x1="151" y1="5" x2="205" y2="5" stroke="#aaff00" stroke-width="2"/>
</g>
<g>
	<polygon points="147,8 145,16 139,10" fill="#aaff00"/>
	<line x1="109" y1="48" x2="142" y2="13" stroke="#aaff00" stroke-width="2"/>
</g>
<g>
	<polygon points="261,55 258,47 267,49" fill="#aaff00"/>
	<line x1="273" y1="5" x2="262" y2="48" stroke="#aaff00" stroke-width="2"/>
</g>
<g>
	<polygon points="336,5 328,9 328,0" fill="#aaff00"/>
	<line x1="273" y1="5" x2="329" y2="5" stroke="#aaff00" stroke-width="2"/>
</g>
<g>
	<polygon points="389,29 380,29 384,21" fill="#aaff00"/>
	<line x1="341" y1="5" x2="383" y2="25" stroke="#aaff00" stroke-width="2"/>
</g>
<g>
	<polygon points="364,80 364,71 372,75" fill="#aaff00"/>
	<line x1="394" y1="31" x2="368" y2="73" stroke="#aaff00" stroke-width="2"/>
</g>
<g>
	<polygon points="274,172 276,164 282,170" fill="#aaff00"/>
	<line x1="362" y1="84" x2="279" y2="167" stroke="#aaff00" stroke-width="2"/>
</g>
<g>
	<polygon points="268,6 262,13 259,4" fill="#aaff00"/>
	<line x1="166" y1="42" x2="261" y2="8" stroke="#aaff00" stroke-width="2"/>
</g>
<g>
	<polygon points="256,62 251,70 247,62" fill="#aaff00"/>
	<line x1="207" y1="91" x2="249" y2="65" stroke="#aaff00" stroke-width="2"/>
</g>
<g>
	<polygon points="203,94 201,102 195,96" fill="#aaff00"/>
	<line x1="170" y1="128" x2="198" y2="99" stroke="#aaff00" stroke-width="2"/>
</g>
<g>
	<polygon points="165,129 159,135 156,126" fill="#aaff00"/>
	<line x1="83" y1="150" x2="158" y2="130" stroke="#aaff00" stroke-width="2"/>
</g>
<g>
	<polygon points="65,211 63,202 71,205" fill="#aaff00"/>
	<line x1="83" y1="150" x2="67" y2="204" stroke="#aaff00" stroke-width="2"/>
</g>
<g>
	<polygon points="91,279 84,274 92,270" fill="#aaff00"/>
	<line x1="64" y1="216" x2="88" y2="273" stroke="#aaff00" stroke-width="2"/>
</g>
<g>
	<polygon points="202,90 194,95 194,86" fill="#aaff00"/>
	<line x1="151" y1="89" x2="195" y2="90" stroke="#aaff00" stroke-width="2"/>
</g>
<g>
	<polygon points="146,88 138,92 139,83" fill="#aaff00"/>
	<line x1="58" y1="80" x2="139" y2="87" stroke="#aaff00" stroke-width="2"/>
</g>
<g>
	<polygon points="53,79 45,83 46,74" fill="#aaff00"/>
	<line x1="12" y1="77" x2="46" y2="79" stroke="#aaff00" stroke-width="2"/>
</g>
<g>
	<polygon points="154,91 163,92 158,99" fill="#aaff00"/>
	<line x1="217" y1="138" x2="160" y2="95" stroke="#aaff00" stroke-width="2"/>
</g>
<g>
	<polygon points="321,131 314,136 313,127" fill="#aaff00"/>
	<line x1="217" y1="138" x2="314" y2="131" stroke="#aaff00" stroke-width="2"/>
</g>
<g>
	<polygon points="390,134 382,138 382,129" fill="#aaff00"/>
	<line x1="326" y1="131" x2="383" y2="134" stroke="#aaff00" stroke-width="2"/>
</g>
<g>
	<polygon points="395,181 390,173 399,173" fill="#aaff00"/>
	<line x1="395" y1="135" x2="395" y2="174" stroke="#aaff00" stroke-width="2"/>
</g>
<g>
	<polygon points="371,220 372,211 379,216" fill="#aaff00"/>
	<line x1="395" y1="186" x2="375" y2="214" stroke="#aaff00" stroke-width="2"/>
</g>
<g>
	<polygon points="275,177 284,177 280,185" fill="#aaff00"/>
	<line x1="369" y1="224" x2="281" y2="181" stroke="#aaff00" stroke-width="2"/>
</g>
<g>
	<polygon points="212,138 205,144 204,135" fill="#aaff00"/>
	<line x1="138" y1="152" x2="205" y2="140" stroke="#aaff00" stroke-width="2"/>
</g>
<g>
	<polygon points="114,188 114,179 122,184" fill="#aaff00"/>
	<line x1="138" y1="152" x2="118" y2="182" stroke="#aaff00" stroke-width="2"/>
</g>
<g>
	<polygon points="154,208 145,209 149,201" fill="#aaff00"/>
	<line x1="112" y1="192" x2="148" y2="205" stroke="#aaff00" stroke-width="2"/>
</g>
<g>
	<polygon points="266,177 260,183 257,175" fill="#aaff00"/>
	<line x1="159" y1="210" x2="259" y2="179" stroke="#aaff00" stroke-width="2"/>
</g>
<g>
	<polygon points="129,245 131,236 138,242" fill="#aaff00"/>
	<line x1="159" y1="210" x2="134" y2="239" stroke="#aaff00" stroke-width="2"/>
</g>
<g>
	<polygon points="268,291 259,288 266,282" fill="#aaff00"/>
	<line x1="246" y1="265" x2="263" y2="286" stroke="#aaff00" stroke-width="2"/>
</g>
<g>
	<polygon points="242,267 239,276 233,269" fill="#aaff00"/>
	<line x1="213" y1="294" x2="237" y2="272" stroke="#aaff00" stroke-width="2"/>
</g>
<g>
	<polygon points="234,202 226,206 227,197" fill="#aaff00"/>
	<line x1="196" y1="199" x2="227" y2="201" stroke="#aaff00" stroke-width="2"/>
</g>
<g>
	<polygon points="212,289 206,282 215,281" fill="#aaff00"/>
	<line x1="196" y1="199" x2="210" y2="282" stroke="#aaff00" stroke-width="2"/>
</g>
<g>
	<polygon points="267,178 264,187 258,180" fill="#aaff00"/>
	<line x1="239" y1="203" x2="262" y2="183" stroke="#aaff00" stroke-width="2"/>
</g>
<g>
	<polygon points="269,171 261,166 269,162" fill="#aaff00"/>
	<line x1="208" y1="49" x2="265" y2="165" stroke="#aaff00" stroke-width="2"/>
</g>
<g>
	<polygon points="203,47 194,48 198,40" fill="#aaff00"/>
	<line x1="98" y1="5" x2="197" y2="44" stroke="#aaff00" stroke-width="2"/>
</g>
<g>
	<polygon points="93,6 87,12 84,3" fill="#aaff00"/>
	<line x1="47" y1="18" x2="86" y2="7" stroke="#aaff00" stroke-width="2"/>
</g>

<g fill="#000000">
	<circle cx="105" cy="103" r="4"/>
</g>
<g fill="#000000">
	<circle cx="16" cy="143" r="4"/>
</g>
<g fill="#000000">
	<circle cx="108" cy="47" r="4"/>
</g>
<g fill="#000000">
	<circle cx="165" cy="41" r="4"/>
</g>
<g fill="#000000">
	<circle cx="82" cy="149" r="4"/>
</g>
<g fill="#000000">
	<circle cx="11" cy="76" r="4"/>
</g>
<g fill="#000000">
	<circle cx="137" cy="151" r="4"/>
</g>
<g fill="#000000">
	<circle cx="265" cy="119" r="4"/>
</g>
<g fill="#000000">
	<circle cx="46" cy="17" r="4"/>
</g>
<g fill="#000000">
	<circle cx="195" cy="198" r="4"/>
</g>
<g fill="#000000">
	<circle cx="4" cy="199" r="4"/>
</g>
<g fill="#000000">
	<circle cx="48" cy="275" r="4"/>
</g>
<g fill="#000000">
	<circle cx="4" cy="253" r="4"/>
</g>
<g fill="#000000">
	<circle cx="150" cy="294" r="4"/>
</g>
<g fill="#000000">
	<circle cx="4" cy="294" r="4"/>
</g>
<g fill="#000000">
	<circle cx="92" cy="283" r="4"/>
</g>
<g fill="#000000">
	<circle cx="184" cy="255" r="4"/>
</g>
<g fill="#000000">
	<circle cx="270" cy="175" r="4"/>
</g>
<g fill="#000000">
	<circle cx="270" cy="294" r="4"/>
</g>
<g fill="#000000">
	<circle cx="150" cy="4" r="4"/>
</g>
<g fill="#000000">
	<circle cx="216" cy="4" r="4"/>
</g>
<g fill="#000000">
	<circle cx="259" cy="59" r="4"/>
</g>
<g fill="#000000">
	<circle cx="272" cy="4" r="4"/>
</g>
<g fill="#000000">
	<circle cx="340" cy="4" r="4"/>
</g>
<g fill="#000000">
	<circle cx="393" cy="30" r="4"/>
</g>
<g fill="#000000">
	<circle cx="361" cy="83" r="4"/>
</g>
<g fill="#000000">
	<circle cx="169" cy="127" r="4"/>
</g>
<g fill="#000000">
	<circle cx="63" cy="215" r="4"/>
</g>
<g fill="#000000">
	<circle cx="206" cy="90" r="4"/>
</g>
<g fill="#000000">
	<circle cx="57" cy="79" r="4"/>
</g>
<g fill="#000000">
	<circle cx="150" cy="88" r="4"/>
</g>
<g fill="#000000">
	<circle cx="216" cy="137" r="4"/>
</g>
<g fill="#000000">
	<circle cx="111" cy="191" r="4"/>
</g>
<g fill="#000000">
	<circle cx="325" cy="130" r="4"/>
</g>
<g fill="#000000">
	<circle cx="394" cy="134" r="4"/>
</g>
<g fill="#000000">
	<circle cx="394" cy="185" r="4"/>
</g>
<g fill="#000000">
	<circle cx="368" cy="223" r="4"/>
</g>
<g fill="#000000">
	<circle cx="158" cy="209" r="4"/>
</g>
<g fill="#000000">
	<circle cx="126" cy="248" r="4"/>
</g>
<g fill="#000000">
	<circle cx="322" cy="189" r="4"/>
</g>
<g fill="#000000">
	<circle cx="303" cy="69" r="4"/>
</g>
<g fill="#000000">
	<circle cx="327" cy="279" r="4"/>
</g>
<g fill="#000000">
	<circle cx="305" cy="237" r="4"/>
</g>
<g fill="#000000">
	<circle cx="97" cy="4" r="4"/>
</g>
<g fill="#000000">
	<circle cx="207" cy="48" r="4"/>
</g>
<g fill="#000000">
	<circle cx="238" cy="202" r="4"/>
</g>
<g fill="#000000">
	<circle cx="212" cy="293" r="4"/>
</g>
<g fill="#000000">
	<circle cx="245" cy="264" r="4"/>
</g>

</g>

</svg>
