<?xml version="1.0" encoding="utf-8"?>
<!-- Created with Hypercube (http://tumic.wz.cz/hypercube) -->

<svg width="400" height="300" viewBox="0 0 400 300" xmlns="http://www.w3.org/2000/svg" baseProfile="tiny">

<g font-family="Helvetica" font-weight="normal">

<g>
	<polygon points="152,67 155,75 146,74" fill="#aaff00"/>
	<line x1="137" y1="149" x2="150" y2="74" stroke="#aaff00" stroke-width="2"/>
</g>
<g>
	<polygon points="149,213 143,206 152,205" fill="#aaff00"/>
	<line x1="137" y1="149" x2="147" y2="206" stroke="#aaff00" stroke-width="2"/>
</g>
<g>
	<polygon points="118,111 126,116 118,120" fill="#aaff00"/>
	<line x1="137" y1="149" x2="122" y2="117" stroke="#aaff00" stroke-width="2"/>
</g>
<g>
	<polygon points="175,112 173,120 166,114" fill="#aaff00"/>
	<line x1="137" y1="149" x2="170" y2="117" stroke="#aaff00" stroke-width="2"/>
</g>
<g>
	<polygon points="216,133 209,139 208,130" fill="#aaff00"/>
	<line x1="137" y1="149" x2="209" y2="135" stroke="#aaff00" stroke-width="2"/>
</g>
<g>
	<polygon points="110,206 109,197 118,201" fill="#aaff00"/>
	<line x1="137" y1="149" x2="113" y2="200" stroke="#aaff00" stroke-width="2"/>
</g>
<g>
	<polygon points="96,165 101,158 105,166" fill="#aaff00"/>
	<line x1="137" y1="149" x2="102" y2="162" stroke="#aaff00" stroke-width="2"/>
</g>
<g>
	<polygon points="92,71 100,76 92,80" fill="#aaff00"/>
	<line x1="137" y1="149" x2="95" y2="78" stroke="#aaff00" stroke-width="2"/>
</g>
<g>
	<polygon points="213,67 211,76 205,69" fill="#aaff00"/>
	<line x1="137" y1="149" x2="208" y2="72" stroke="#aaff00" stroke-width="2"/>
</g>
<g>
	<polygon points="220,202 211,202 216,194" fill="#aaff00"/>
	<line x1="137" y1="149" x2="214" y2="198" stroke="#aaff00" stroke-width="2"/>
</g>
<g>
	<polygon points="170,170 161,170 166,162" fill="#aaff00"/>
	<line x1="137" y1="149" x2="164" y2="166" stroke="#aaff00" stroke-width="2"/>
</g>
<g>
	<polygon points="60,199 64,191 69,198" fill="#aaff00"/>
	<line x1="137" y1="149" x2="66" y2="195" stroke="#aaff00" stroke-width="2"/>
</g>
<g>
	<polygon points="9,114 18,111 15,120" fill="#aaff00"/>
	<line x1="137" y1="149" x2="16" y2="116" stroke="#aaff00" stroke-width="2"/>
</g>
<g>
	<polygon points="132,269 127,261 136,261" fill="#aaff00"/>
	<line x1="137" y1="149" x2="132" y2="262" stroke="#aaff00" stroke-width="2"/>
</g>
<g>
	<polygon points="154,217 161,211 162,220" fill="#aaff00"/>
	<line x1="224" y1="205" x2="161" y2="215" stroke="#aaff00" stroke-width="2"/>
</g>
<g>
	<polygon points="239,249 232,243 241,240" fill="#aaff00"/>
	<line x1="224" y1="205" x2="237" y2="242" stroke="#aaff00" stroke-width="2"/>
</g>
<g>
	<polygon points="193,210 200,204 201,213" fill="#aaff00"/>
	<line x1="224" y1="205" x2="200" y2="209" stroke="#aaff00" stroke-width="2"/>
</g>
<g>
	<polygon points="246,290 240,283 249,282" fill="#aaff00"/>
	<line x1="241" y1="254" x2="245" y2="283" stroke="#aaff00" stroke-width="2"/>
</g>
<g>
	<polygon points="271,225 269,233 262,227" fill="#aaff00"/>
	<line x1="241" y1="254" x2="266" y2="230" stroke="#aaff00" stroke-width="2"/>
</g>
<g>
	<polygon points="197,295 205,290 205,299" fill="#aaff00"/>
	<line x1="247" y1="295" x2="204" y2="295" stroke="#aaff00" stroke-width="2"/>
</g>
<g>
	<polygon points="293,295 285,299 285,290" fill="#aaff00"/>
	<line x1="247" y1="295" x2="286" y2="295" stroke="#aaff00" stroke-width="2"/>
</g>
<g>
	<polygon points="110,215 117,221 108,224" fill="#aaff00"/>
	<line x1="132" y1="274" x2="113" y2="221" stroke="#aaff00" stroke-width="2"/>
</g>
<g>
	<polygon points="93,171 100,176 92,180" fill="#aaff00"/>
	<line x1="132" y1="274" x2="96" y2="177" stroke="#aaff00" stroke-width="2"/>
</g>
<g>
	<polygon points="60,205 68,207 62,213" fill="#aaff00"/>
	<line x1="132" y1="274" x2="65" y2="210" stroke="#aaff00" stroke-width="2"/>
</g>
<g>
	<polygon points="188,293 179,295 182,286" fill="#aaff00"/>
	<line x1="132" y1="274" x2="181" y2="291" stroke="#aaff00" stroke-width="2"/>
</g>
<g>
	<polygon points="162,260 157,267 153,259" fill="#aaff00"/>
	<line x1="132" y1="274" x2="156" y2="263" stroke="#aaff00" stroke-width="2"/>
</g>
<g>
	<polygon points="333,187 328,194 324,186" fill="#aaff00"/>
	<line x1="132" y1="274" x2="327" y2="190" stroke="#aaff00" stroke-width="2"/>
</g>
<g>
	<polygon points="91,162 87,154 96,154" fill="#aaff00"/>
	<line x1="90" y1="68" x2="91" y2="155" stroke="#aaff00" stroke-width="2"/>
</g>
<g>
	<polygon points="54,91 58,83 63,90" fill="#aaff00"/>
	<line x1="90" y1="68" x2="60" y2="87" stroke="#aaff00" stroke-width="2"/>
</g>
<g>
	<polygon points="56,134 55,125 63,130" fill="#aaff00"/>
	<line x1="90" y1="68" x2="59" y2="128" stroke="#aaff00" stroke-width="2"/>
</g>
<g>
	<polygon points="103,9 106,18 97,15" fill="#aaff00"/>
	<line x1="90" y1="68" x2="102" y2="16" stroke="#aaff00" stroke-width="2"/>
</g>
<g>
	<polygon points="151,8 149,16 143,10" fill="#aaff00"/>
	<line x1="90" y1="68" x2="146" y2="13" stroke="#aaff00" stroke-width="2"/>
</g>
<g>
	<polygon points="57,8 64,13 57,17" fill="#aaff00"/>
	<line x1="90" y1="68" x2="60" y2="15" stroke="#aaff00" stroke-width="2"/>
</g>
<g>
	<polygon points="88,170 86,178 80,172" fill="#aaff00"/>
	<line x1="57" y1="202" x2="83" y2="175" stroke="#aaff00" stroke-width="2"/>
</g>
<g>
	<polygon points="51,98 56,106 47,106" fill="#aaff00"/>
	<line x1="57" y1="202" x2="51" y2="105" stroke="#aaff00" stroke-width="2"/>
</g>
<g>
	<polygon points="54,143 59,151 50,151" fill="#aaff00"/>
	<line x1="57" y1="202" x2="54" y2="150" stroke="#aaff00" stroke-width="2"/>
</g>
<g>
	<polygon points="49,280 45,272 54,273" fill="#aaff00"/>
	<line x1="57" y1="202" x2="50" y2="273" stroke="#aaff00" stroke-width="2"/>
</g>
<g>
	<polygon points="8,243 11,234 17,241" fill="#aaff00"/>
	<line x1="57" y1="202" x2="13" y2="238" stroke="#aaff00" stroke-width="2"/>
</g>
<g>
	<polygon points="9,190 18,187 15,196" fill="#aaff00"/>
	<line x1="57" y1="202" x2="16" y2="191" stroke="#aaff00" stroke-width="2"/>
</g>
<g>
	<polygon points="151,222 158,227 150,231" fill="#aaff00"/>
	<line x1="167" y1="259" x2="154" y2="228" stroke="#aaff00" stroke-width="2"/>
</g>
<g>
	<polygon points="392,291 385,286 393,282" fill="#aaff00"/>
	<line x1="338" y1="186" x2="389" y2="284" stroke="#aaff00" stroke-width="2"/>
</g>
<g>
	<polygon points="392,108 391,117 384,112" fill="#aaff00"/>
	<line x1="338" y1="186" x2="388" y2="114" stroke="#aaff00" stroke-width="2"/>
</g>
<g>
	<polygon points="353,86 356,94 347,93" fill="#aaff00"/>
	<line x1="338" y1="186" x2="352" y2="93" stroke="#aaff00" stroke-width="2"/>
</g>
<g>
	<polygon points="355,262 348,255 357,254" fill="#aaff00"/>
	<line x1="338" y1="186" x2="353" y2="255" stroke="#aaff00" stroke-width="2"/>
</g>
<g>
	<polygon points="304,96 311,101 303,105" fill="#aaff00"/>
	<line x1="338" y1="186" x2="307" y2="102" stroke="#aaff00" stroke-width="2"/>
</g>
<g>
	<polygon points="357,138 358,147 350,143" fill="#aaff00"/>
	<line x1="338" y1="186" x2="354" y2="144" stroke="#aaff00" stroke-width="2"/>
</g>
<g>
	<polygon points="391,231 382,229 388,222" fill="#aaff00"/>
	<line x1="338" y1="186" x2="386" y2="226" stroke="#aaff00" stroke-width="2"/>
</g>
<g>
	<polygon points="395,143 390,135 399,135" fill="#aaff00"/>
	<line x1="395" y1="105" x2="395" y2="136" stroke="#aaff00" stroke-width="2"/>
</g>
<g>
	<polygon points="395,57 399,65 390,65" fill="#aaff00"/>
	<line x1="395" y1="105" x2="395" y2="64" stroke="#aaff00" stroke-width="2"/>
</g>
<g>
	<polygon points="395,183 390,175 399,175" fill="#aaff00"/>
	<line x1="395" y1="148" x2="395" y2="176" stroke="#aaff00" stroke-width="2"/>
</g>
<g>
	<polygon points="392,184 384,180 391,175" fill="#aaff00"/>
	<line x1="359" y1="134" x2="388" y2="178" stroke="#aaff00" stroke-width="2"/>
</g>
<g>
	<polygon points="348,19 353,26 344,27" fill="#aaff00"/>
	<line x1="359" y1="134" x2="349" y2="26" stroke="#aaff00" stroke-width="2"/>
</g>
<g>
	<polygon points="348,19 353,26 344,27" fill="#aaff00"/>
	<line x1="354" y1="82" x2="349" y2="26" stroke="#aaff00" stroke-width="2"/>
</g>
<g>
	<polygon points="329,54 338,57 331,63" fill="#aaff00"/>
	<line x1="354" y1="82" x2="334" y2="59" stroke="#aaff00" stroke-width="2"/>
</g>
<g>
	<polygon points="345,18 345,27 337,23" fill="#aaff00"/>
	<line x1="303" y1="92" x2="342" y2="25" stroke="#aaff00" stroke-width="2"/>
</g>
<g>
	<polygon points="324,54 324,63 316,59" fill="#aaff00"/>
	<line x1="303" y1="92" x2="321" y2="61" stroke="#aaff00" stroke-width="2"/>
</g>
<g>
	<polygon points="357,79 361,71 366,78" fill="#aaff00"/>
	<line x1="395" y1="53" x2="363" y2="75" stroke="#aaff00" stroke-width="2"/>
</g>
<g>
	<polygon points="395,9 399,17 390,17" fill="#aaff00"/>
	<line x1="395" y1="53" x2="395" y2="16" stroke="#aaff00" stroke-width="2"/>
</g>
<g>
	<polygon points="352,14 359,8 360,16" fill="#aaff00"/>
	<line x1="395" y1="5" x2="359" y2="12" stroke="#aaff00" stroke-width="2"/>
</g>
<g>
	<polygon points="299,290 297,281 306,284" fill="#aaff00"/>
	<line x1="315" y1="244" x2="301" y2="283" stroke="#aaff00" stroke-width="2"/>
</g>
<g>
	<polygon points="291,178 298,184 289,187" fill="#aaff00"/>
	<line x1="315" y1="244" x2="293" y2="185" stroke="#aaff00" stroke-width="2"/>
</g>
<g>
	<polygon points="187,206 180,201 188,197" fill="#aaff00"/>
	<line x1="174" y1="173" x2="184" y2="200" stroke="#aaff00" stroke-width="2"/>
</g>
<g>
	<polygon points="5,60 9,68 0,68" fill="#aaff00"/>
	<line x1="5" y1="113" x2="5" y2="67" stroke="#aaff00" stroke-width="2"/>
</g>
<g>
	<polygon points="5,9 9,17 0,17" fill="#aaff00"/>
	<line x1="5" y1="56" x2="5" y2="16" stroke="#aaff00" stroke-width="2"/>
</g>

<g fill="#000000">
	<circle cx="136" cy="148" r="4"/>
</g>
<g fill="#000000">
	<circle cx="152" cy="62" r="4"/>
</g>
<g fill="#000000">
	<circle cx="149" cy="217" r="4"/>
</g>
<g fill="#000000">
	<circle cx="116" cy="106" r="4"/>
</g>
<g fill="#000000">
	<circle cx="178" cy="108" r="4"/>
</g>
<g fill="#000000">
	<circle cx="220" cy="132" r="4"/>
</g>
<g fill="#000000">
	<circle cx="108" cy="210" r="4"/>
</g>
<g fill="#000000">
	<circle cx="91" cy="166" r="4"/>
</g>
<g fill="#000000">
	<circle cx="89" cy="67" r="4"/>
</g>
<g fill="#000000">
	<circle cx="216" cy="63" r="4"/>
</g>
<g fill="#000000">
	<circle cx="223" cy="204" r="4"/>
</g>
<g fill="#000000">
	<circle cx="173" cy="172" r="4"/>
</g>
<g fill="#000000">
	<circle cx="56" cy="201" r="4"/>
</g>
<g fill="#000000">
	<circle cx="4" cy="112" r="4"/>
</g>
<g fill="#000000">
	<circle cx="131" cy="273" r="4"/>
</g>
<g fill="#000000">
	<circle cx="50" cy="93" r="4"/>
</g>
<g fill="#000000">
	<circle cx="53" cy="138" r="4"/>
</g>
<g fill="#000000">
	<circle cx="104" cy="4" r="4"/>
</g>
<g fill="#000000">
	<circle cx="154" cy="4" r="4"/>
</g>
<g fill="#000000">
	<circle cx="54" cy="4" r="4"/>
</g>
<g fill="#000000">
	<circle cx="240" cy="253" r="4"/>
</g>
<g fill="#000000">
	<circle cx="188" cy="210" r="4"/>
</g>
<g fill="#000000">
	<circle cx="246" cy="294" r="4"/>
</g>
<g fill="#000000">
	<circle cx="274" cy="221" r="4"/>
</g>
<g fill="#000000">
	<circle cx="192" cy="294" r="4"/>
</g>
<g fill="#000000">
	<circle cx="297" cy="294" r="4"/>
</g>
<g fill="#000000">
	<circle cx="48" cy="284" r="4"/>
</g>
<g fill="#000000">
	<circle cx="4" cy="245" r="4"/>
</g>
<g fill="#000000">
	<circle cx="4" cy="188" r="4"/>
</g>
<g fill="#000000">
	<circle cx="4" cy="55" r="4"/>
</g>
<g fill="#000000">
	<circle cx="4" cy="4" r="4"/>
</g>
<g fill="#000000">
	<circle cx="166" cy="258" r="4"/>
</g>
<g fill="#000000">
	<circle cx="337" cy="185" r="4"/>
</g>
<g fill="#000000">
	<circle cx="394" cy="294" r="4"/>
</g>
<g fill="#000000">
	<circle cx="394" cy="104" r="4"/>
</g>
<g fill="#000000">
	<circle cx="353" cy="81" r="4"/>
</g>
<g fill="#000000">
	<circle cx="355" cy="266" r="4"/>
</g>
<g fill="#000000">
	<circle cx="302" cy="91" r="4"/>
</g>
<g fill="#000000">
	<circle cx="358" cy="133" r="4"/>
</g>
<g fill="#000000">
	<circle cx="394" cy="233" r="4"/>
</g>
<g fill="#000000">
	<circle cx="394" cy="147" r="4"/>
</g>
<g fill="#000000">
	<circle cx="394" cy="52" r="4"/>
</g>
<g fill="#000000">
	<circle cx="394" cy="187" r="4"/>
</g>
<g fill="#000000">
	<circle cx="394" cy="4" r="4"/>
</g>
<g fill="#000000">
	<circle cx="347" cy="14" r="4"/>
</g>
<g fill="#000000">
	<circle cx="326" cy="50" r="4"/>
</g>
<g fill="#000000">
	<circle cx="314" cy="243" r="4"/>
</g>
<g fill="#000000">
	<circle cx="289" cy="173" r="4"/>
</g>

</g>

</svg>
