<?xml version="1.0" encoding="utf-8"?>
<!-- Created with Hypercube (http://tumic.wz.cz/hypercube) -->

<svg width="400" height="300" viewBox="0 0 400 300" xmlns="http://www.w3.org/2000/svg" baseProfile="tiny">

<g font-family="Helvetica" font-weight="normal">

<g>
	<polygon points="299,225 292,219 301,216" fill="#aaff00"/>
	<line x1="251" y1="86" x2="297" y2="218" stroke="#aaff00" stroke-width="2"/>
</g>
<g>
	<polygon points="356,259 347,260 351,252" fill="#aaff00"/>
	<line x1="301" y1="230" x2="349" y2="256" stroke="#aaff00" stroke-width="2"/>
</g>
<g>
	<polygon points="272,290 272,281 280,285" fill="#aaff00"/>
	<line x1="301" y1="230" x2="275" y2="284" stroke="#aaff00" stroke-width="2"/>
</g>
<g>
	<polygon points="363,265 372,267 365,273" fill="#aaff00"/>
	<line x1="395" y1="295" x2="368" y2="270" stroke="#aaff00" stroke-width="2"/>
</g>
<g>
	<polygon points="356,265 354,273 348,267" fill="#aaff00"/>
	<line x1="328" y1="295" x2="351" y2="270" stroke="#aaff00" stroke-width="2"/>
</g>
<g>
	<polygon points="91,168 96,161 100,169" fill="#aaff00"/>
	<line x1="141" y1="148" x2="97" y2="165" stroke="#aaff00" stroke-width="2"/>
</g>
<g>
	<polygon points="88,174 95,179 87,183" fill="#aaff00"/>
	<line x1="110" y1="225" x2="91" y2="180" stroke="#aaff00" stroke-width="2"/>
</g>
<g>
	<polygon points="144,264 135,261 142,255" fill="#aaff00"/>
	<line x1="110" y1="225" x2="139" y2="259" stroke="#aaff00" stroke-width="2"/>
</g>
<g>
	<polygon points="151,266 156,258 160,266" fill="#aaff00"/>
	<line x1="197" y1="244" x2="157" y2="262" stroke="#aaff00" stroke-width="2"/>
</g>
<g>
	<polygon points="324,179 320,186 316,178" fill="#aaff00"/>
	<line x1="197" y1="244" x2="318" y2="182" stroke="#aaff00" stroke-width="2"/>
</g>
<g>
	<polygon points="93,288 98,281 102,289" fill="#aaff00"/>
	<line x1="197" y1="244" x2="99" y2="285" stroke="#aaff00" stroke-width="2"/>
</g>
<g>
	<polygon points="172,204 180,209 172,213" fill="#aaff00"/>
	<line x1="197" y1="244" x2="176" y2="210" stroke="#aaff00" stroke-width="2"/>
</g>
<g>
	<polygon points="324,178 319,186 315,178" fill="#aaff00"/>
	<line x1="246" y1="216" x2="318" y2="181" stroke="#aaff00" stroke-width="2"/>
</g>
<g>
	<polygon points="174,201 182,198 181,207" fill="#aaff00"/>
	<line x1="246" y1="216" x2="181" y2="203" stroke="#aaff00" stroke-width="2"/>
</g>
<g>
	<polygon points="167,197 159,192 167,188" fill="#aaff00"/>
	<line x1="109" y1="103" x2="163" y2="191" stroke="#aaff00" stroke-width="2"/>
</g>
<g>
	<polygon points="97,40 103,47 94,48" fill="#aaff00"/>
	<line x1="109" y1="103" x2="99" y2="47" stroke="#aaff00" stroke-width="2"/>
</g>
<g>
	<polygon points="349,5 341,9 341,0" fill="#aaff00"/>
	<line x1="138" y1="7" x2="342" y2="5" stroke="#aaff00" stroke-width="2"/>
</g>
<g>
	<polygon points="46,152 46,143 54,148" fill="#aaff00"/>
	<line x1="138" y1="7" x2="50" y2="146" stroke="#aaff00" stroke-width="2"/>
</g>
<g>
	<polygon points="100,33 104,25 109,32" fill="#aaff00"/>
	<line x1="138" y1="7" x2="106" y2="29" stroke="#aaff00" stroke-width="2"/>
</g>
<g>
	<polygon points="331,173 331,164 338,168" fill="#aaff00"/>
	<line x1="395" y1="59" x2="334" y2="166" stroke="#aaff00" stroke-width="2"/>
</g>
<g>
	<polygon points="356,8 365,12 357,17" fill="#aaff00"/>
	<line x1="395" y1="59" x2="361" y2="14" stroke="#aaff00" stroke-width="2"/>
</g>
<g>
	<polygon points="331,173 330,164 338,168" fill="#aaff00"/>
	<line x1="371" y1="100" x2="334" y2="166" stroke="#aaff00" stroke-width="2"/>
</g>
<g>
	<polygon points="354,9 360,16 351,17" fill="#aaff00"/>
	<line x1="371" y1="100" x2="356" y2="16" stroke="#aaff00" stroke-width="2"/>
</g>
<g>
	<polygon points="41,159 39,168 32,162" fill="#aaff00"/>
	<line x1="5" y1="206" x2="36" y2="165" stroke="#aaff00" stroke-width="2"/>
</g>
<g>
	<polygon points="86,286 78,282 85,277" fill="#aaff00"/>
	<line x1="50" y1="238" x2="81" y2="280" stroke="#aaff00" stroke-width="2"/>
</g>
<g>
	<polygon points="44,160 49,167 40,168" fill="#aaff00"/>
	<line x1="50" y1="238" x2="44" y2="167" stroke="#aaff00" stroke-width="2"/>
</g>
<g>
	<polygon points="84,290 77,295 76,286" fill="#aaff00"/>
	<line x1="30" y1="295" x2="77" y2="290" stroke="#aaff00" stroke-width="2"/>
</g>
<g>
	<polygon points="93,33 84,31 90,24" fill="#aaff00"/>
	<line x1="59" y1="5" x2="87" y2="28" stroke="#aaff00" stroke-width="2"/>
</g>
<g>
	<polygon points="55,87 64,87 60,95" fill="#aaff00"/>
	<line x1="189" y1="152" x2="61" y2="91" stroke="#aaff00" stroke-width="2"/>
</g>
<g>
	<polygon points="324,176 316,179 317,170" fill="#aaff00"/>
	<line x1="189" y1="152" x2="317" y2="174" stroke="#aaff00" stroke-width="2"/>
</g>
<g>
	<polygon points="83,167 74,168 78,160" fill="#aaff00"/>
	<line x1="6" y1="126" x2="76" y2="164" stroke="#aaff00" stroke-width="2"/>
</g>
<g>
	<polygon points="47,88 44,97 38,90" fill="#aaff00"/>
	<line x1="6" y1="126" x2="42" y2="93" stroke="#aaff00" stroke-width="2"/>
</g>
<g>
	<polygon points="48,82 40,77 48,73" fill="#aaff00"/>
	<line x1="5" y1="12" x2="44" y2="76" stroke="#aaff00" stroke-width="2"/>
</g>
<g>
	<polygon points="46,84 37,85 41,77" fill="#aaff00"/>
	<line x1="5" y1="68" x2="40" y2="81" stroke="#aaff00" stroke-width="2"/>
</g>
<g>
	<polygon points="333,175 339,169 342,177" fill="#aaff00"/>
	<line x1="395" y1="157" x2="340" y2="173" stroke="#aaff00" stroke-width="2"/>
</g>
<g>
	<polygon points="333,179 342,178 337,186" fill="#aaff00"/>
	<line x1="395" y1="210" x2="339" y2="182" stroke="#aaff00" stroke-width="2"/>
</g>
<g>
	<polygon points="150,270 159,271 154,278" fill="#aaff00"/>
	<line x1="184" y1="295" x2="156" y2="274" stroke="#aaff00" stroke-width="2"/>
</g>
<g>
	<polygon points="226,55 235,58 228,64" fill="#aaff00"/>
	<line x1="251" y1="86" x2="231" y2="61" stroke="#aaff00" stroke-width="2"/>
</g>
<g>
	<polygon points="280,52 278,61 271,55" fill="#aaff00"/>
	<line x1="251" y1="86" x2="275" y2="57" stroke="#aaff00" stroke-width="2"/>
</g>
<g>
	<polygon points="214,102 219,94 223,103" fill="#aaff00"/>
	<line x1="251" y1="86" x2="220" y2="99" stroke="#aaff00" stroke-width="2"/>
</g>
<g>
	<polygon points="144,145 149,138 153,145" fill="#aaff00"/>
	<line x1="251" y1="86" x2="151" y2="142" stroke="#aaff00" stroke-width="2"/>
</g>
<g>
	<polygon points="228,11 234,17 226,20" fill="#aaff00"/>
	<line x1="251" y1="86" x2="230" y2="18" stroke="#aaff00" stroke-width="2"/>
</g>
<g>
	<polygon points="306,85 298,89 298,80" fill="#aaff00"/>
	<line x1="251" y1="86" x2="299" y2="85" stroke="#aaff00" stroke-width="2"/>
</g>
<g>
	<polygon points="278,163 271,157 280,154" fill="#aaff00"/>
	<line x1="251" y1="86" x2="276" y2="156" stroke="#aaff00" stroke-width="2"/>
</g>
<g>
	<polygon points="236,144 233,135 242,138" fill="#aaff00"/>
	<line x1="251" y1="86" x2="237" y2="137" stroke="#aaff00" stroke-width="2"/>
</g>
<g>
	<polygon points="266,10 269,18 260,17" fill="#aaff00"/>
	<line x1="251" y1="86" x2="264" y2="17" stroke="#aaff00" stroke-width="2"/>
</g>
<g>
	<polygon points="305,9 304,18 297,13" fill="#aaff00"/>
	<line x1="251" y1="86" x2="301" y2="15" stroke="#aaff00" stroke-width="2"/>
</g>
<g>
	<polygon points="273,116 265,112 272,107" fill="#aaff00"/>
	<line x1="251" y1="86" x2="269" y2="110" stroke="#aaff00" stroke-width="2"/>
</g>
<g>
	<polygon points="188,10 197,13 190,19" fill="#aaff00"/>
	<line x1="251" y1="86" x2="193" y2="16" stroke="#aaff00" stroke-width="2"/>
</g>
<g>
	<polygon points="167,94 174,89 175,98" fill="#aaff00"/>
	<line x1="251" y1="86" x2="174" y2="93" stroke="#aaff00" stroke-width="2"/>
</g>
<g>
	<polygon points="325,124 316,125 320,117" fill="#aaff00"/>
	<line x1="251" y1="86" x2="318" y2="121" stroke="#aaff00" stroke-width="2"/>
</g>
<g>
	<polygon points="178,51 187,51 183,59" fill="#aaff00"/>
	<line x1="251" y1="86" x2="184" y2="54" stroke="#aaff00" stroke-width="2"/>
</g>
<g>
	<polygon points="336,51 331,58 327,50" fill="#aaff00"/>
	<line x1="251" y1="86" x2="330" y2="54" stroke="#aaff00" stroke-width="2"/>
</g>

<g fill="#000000">
	<circle cx="250" cy="85" r="4"/>
</g>
<g fill="#000000">
	<circle cx="300" cy="229" r="4"/>
</g>
<g fill="#000000">
	<circle cx="359" cy="261" r="4"/>
</g>
<g fill="#000000">
	<circle cx="270" cy="294" r="4"/>
</g>
<g fill="#000000">
	<circle cx="223" cy="51" r="4"/>
</g>
<g fill="#000000">
	<circle cx="394" cy="294" r="4"/>
</g>
<g fill="#000000">
	<circle cx="327" cy="294" r="4"/>
</g>
<g fill="#000000">
	<circle cx="282" cy="48" r="4"/>
</g>
<g fill="#000000">
	<circle cx="209" cy="103" r="4"/>
</g>
<g fill="#000000">
	<circle cx="140" cy="147" r="4"/>
</g>
<g fill="#000000">
	<circle cx="86" cy="169" r="4"/>
</g>
<g fill="#000000">
	<circle cx="109" cy="224" r="4"/>
</g>
<g fill="#000000">
	<circle cx="146" cy="267" r="4"/>
</g>
<g fill="#000000">
	<circle cx="5" cy="125" r="4"/>
</g>
<g fill="#000000">
	<circle cx="50" cy="85" r="4"/>
</g>
<g fill="#000000">
	<circle cx="226" cy="6" r="4"/>
</g>
<g fill="#000000">
	<circle cx="196" cy="243" r="4"/>
</g>
<g fill="#000000">
	<circle cx="328" cy="176" r="4"/>
</g>
<g fill="#000000">
	<circle cx="88" cy="289" r="4"/>
</g>
<g fill="#000000">
	<circle cx="169" cy="200" r="4"/>
</g>
<g fill="#000000">
	<circle cx="245" cy="215" r="4"/>
</g>
<g fill="#000000">
	<circle cx="394" cy="58" r="4"/>
</g>
<g fill="#000000">
	<circle cx="353" cy="4" r="4"/>
</g>
<g fill="#000000">
	<circle cx="310" cy="84" r="4"/>
</g>
<g fill="#000000">
	<circle cx="188" cy="151" r="4"/>
</g>
<g fill="#000000">
	<circle cx="394" cy="156" r="4"/>
</g>
<g fill="#000000">
	<circle cx="394" cy="209" r="4"/>
</g>
<g fill="#000000">
	<circle cx="370" cy="99" r="4"/>
</g>
<g fill="#000000">
	<circle cx="279" cy="167" r="4"/>
</g>
<g fill="#000000">
	<circle cx="234" cy="148" r="4"/>
</g>
<g fill="#000000">
	<circle cx="29" cy="294" r="4"/>
</g>
<g fill="#000000">
	<circle cx="4" cy="205" r="4"/>
</g>
<g fill="#000000">
	<circle cx="43" cy="155" r="4"/>
</g>
<g fill="#000000">
	<circle cx="137" cy="6" r="4"/>
</g>
<g fill="#000000">
	<circle cx="96" cy="35" r="4"/>
</g>
<g fill="#000000">
	<circle cx="58" cy="4" r="4"/>
</g>
<g fill="#000000">
	<circle cx="49" cy="237" r="4"/>
</g>
<g fill="#000000">
	<circle cx="266" cy="5" r="4"/>
</g>
<g fill="#000000">
	<circle cx="307" cy="5" r="4"/>
</g>
<g fill="#000000">
	<circle cx="275" cy="119" r="4"/>
</g>
<g fill="#000000">
	<circle cx="4" cy="11" r="4"/>
</g>
<g fill="#000000">
	<circle cx="183" cy="294" r="4"/>
</g>
<g fill="#000000">
	<circle cx="185" cy="6" r="4"/>
</g>
<g fill="#000000">
	<circle cx="4" cy="67" r="4"/>
</g>
<g fill="#000000">
	<circle cx="162" cy="94" r="4"/>
</g>
<g fill="#000000">
	<circle cx="328" cy="126" r="4"/>
</g>
<g fill="#000000">
	<circle cx="173" cy="49" r="4"/>
</g>
<g fill="#000000">
	<circle cx="108" cy="102" r="4"/>
</g>
<g fill="#000000">
	<circle cx="340" cy="49" r="4"/>
</g>

</g>

</svg>
