<?xml version="1.0" encoding="utf-8"?>
<!-- Created with Hypercube (http://tumic.wz.cz/hypercube) -->

<svg width="400" height="300" viewBox="0 0 400 300" xmlns="http://www.w3.org/2000/svg" baseProfile="tiny">

<g font-family="Helvetica" font-weight="normal">

<g>
	<polygon points="276,271 285,270 281,278" fill="#aaff00"/>
	<line x1="323" y1="295" x2="283" y2="274" stroke="#aaff00" stroke-width="2"/>
</g>
<g>
	<polygon points="390,234 384,240 381,232" fill="#aaff00"/>
	<line x1="273" y1="269" x2="383" y2="236" stroke="#aaff00" stroke-width="2"/>
</g>
<g>
	<polygon points="187,226 196,226 192,234" fill="#aaff00"/>
	<line x1="273" y1="269" x2="193" y2="230" stroke="#aaff00" stroke-width="2"/>
</g>
<g>
	<polygon points="109,208 118,207 114,215" fill="#aaff00"/>
	<line x1="273" y1="269" x2="115" y2="211" stroke="#aaff00" stroke-width="2"/>
</g>
<g>
	<polygon points="285,151 289,159 280,158" fill="#aaff00"/>
	<line x1="273" y1="269" x2="284" y2="158" stroke="#aaff00" stroke-width="2"/>
</g>
<g>
	<polygon points="374,120 380,127 371,128" fill="#aaff00"/>
	<line x1="395" y1="233" x2="376" y2="127" stroke="#aaff00" stroke-width="2"/>
</g>
<g>
	<polygon points="395,290 390,282 399,282" fill="#aaff00"/>
	<line x1="395" y1="233" x2="395" y2="283" stroke="#aaff00" stroke-width="2"/>
</g>
<g>
	<polygon points="282,110 290,106 289,115" fill="#aaff00"/>
	<line x1="374" y1="116" x2="289" y2="110" stroke="#aaff00" stroke-width="2"/>
</g>
<g>
	<polygon points="310,75 319,75 314,83" fill="#aaff00"/>
	<line x1="374" y1="116" x2="316" y2="79" stroke="#aaff00" stroke-width="2"/>
</g>
<g>
	<polygon points="336,171 328,169 334,162" fill="#aaff00"/>
	<line x1="278" y1="110" x2="331" y2="166" stroke="#aaff00" stroke-width="2"/>
</g>
<g>
	<polygon points="258,54 265,60 256,63" fill="#aaff00"/>
	<line x1="278" y1="110" x2="260" y2="61" stroke="#aaff00" stroke-width="2"/>
</g>
<g>
	<polygon points="191,134 197,128 200,136" fill="#aaff00"/>
	<line x1="278" y1="110" x2="198" y2="132" stroke="#aaff00" stroke-width="2"/>
</g>
<g>
	<polygon points="242,151 244,142 251,148" fill="#aaff00"/>
	<line x1="278" y1="110" x2="247" y2="146" stroke="#aaff00" stroke-width="2"/>
</g>
<g>
	<polygon points="346,226 341,219 349,218" fill="#aaff00"/>
	<line x1="340" y1="175" x2="345" y2="219" stroke="#aaff00" stroke-width="2"/>
</g>
<g>
	<polygon points="379,173 371,178 371,169" fill="#aaff00"/>
	<line x1="340" y1="175" x2="372" y2="173" stroke="#aaff00" stroke-width="2"/>
</g>
<g>
	<polygon points="203,40 211,37 210,46" fill="#aaff00"/>
	<line x1="257" y1="50" x2="210" y2="41" stroke="#aaff00" stroke-width="2"/>
</g>
<g>
	<polygon points="228,8 226,17 220,10" fill="#aaff00"/>
	<line x1="199" y1="40" x2="223" y2="13" stroke="#aaff00" stroke-width="2"/>
</g>
<g>
	<polygon points="94,33 102,29 101,38" fill="#aaff00"/>
	<line x1="199" y1="40" x2="101" y2="33" stroke="#aaff00" stroke-width="2"/>
</g>
<g>
	<polygon points="141,147 133,142 142,138" fill="#aaff00"/>
	<line x1="90" y1="33" x2="138" y2="141" stroke="#aaff00" stroke-width="2"/>
</g>
<g>
	<polygon points="53,7 62,8 57,15" fill="#aaff00"/>
	<line x1="90" y1="33" x2="59" y2="11" stroke="#aaff00" stroke-width="2"/>
</g>
<g>
	<polygon points="111,8 109,17 102,11" fill="#aaff00"/>
	<line x1="90" y1="33" x2="106" y2="13" stroke="#aaff00" stroke-width="2"/>
</g>
<g>
	<polygon points="9,7 18,5 15,14" fill="#aaff00"/>
	<line x1="90" y1="33" x2="16" y2="9" stroke="#aaff00" stroke-width="2"/>
</g>
<g>
	<polygon points="152,6 147,13 143,5" fill="#aaff00"/>
	<line x1="90" y1="33" x2="146" y2="9" stroke="#aaff00" stroke-width="2"/>
</g>
<g>
	<polygon points="168,176 160,174 166,168" fill="#aaff00"/>
	<line x1="143" y1="152" x2="163" y2="171" stroke="#aaff00" stroke-width="2"/>
</g>
<g>
	<polygon points="108,147 116,144 115,153" fill="#aaff00"/>
	<line x1="143" y1="152" x2="115" y2="148" stroke="#aaff00" stroke-width="2"/>
</g>
<g>
	<polygon points="273,226 264,226 268,218" fill="#aaff00"/>
	<line x1="221" y1="196" x2="266" y2="223" stroke="#aaff00" stroke-width="2"/>
</g>
<g>
	<polygon points="276,191 269,196 268,187" fill="#aaff00"/>
	<line x1="221" y1="196" x2="269" y2="191" stroke="#aaff00" stroke-width="2"/>
</g>
<g>
	<polygon points="228,242 222,235 231,234" fill="#aaff00"/>
	<line x1="221" y1="196" x2="227" y2="235" stroke="#aaff00" stroke-width="2"/>
</g>
<g>
	<polygon points="141,262 144,253 150,260" fill="#aaff00"/>
	<line x1="221" y1="196" x2="146" y2="257" stroke="#aaff00" stroke-width="2"/>
</g>
<g>
	<polygon points="146,154 155,154 151,161" fill="#aaff00"/>
	<line x1="221" y1="196" x2="153" y2="157" stroke="#aaff00" stroke-width="2"/>
</g>
<g>
	<polygon points="177,292 168,291 173,284" fill="#aaff00"/>
	<line x1="138" y1="265" x2="171" y2="288" stroke="#aaff00" stroke-width="2"/>
</g>
<g>
	<polygon points="111,291 113,283 119,289" fill="#aaff00"/>
	<line x1="138" y1="265" x2="116" y2="286" stroke="#aaff00" stroke-width="2"/>
</g>
<g>
	<polygon points="216,197 210,203 207,195" fill="#aaff00"/>
	<line x1="142" y1="220" x2="209" y2="199" stroke="#aaff00" stroke-width="2"/>
</g>
<g>
	<polygon points="138,260 134,252 143,253" fill="#aaff00"/>
	<line x1="142" y1="220" x2="139" y2="253" stroke="#aaff00" stroke-width="2"/>
</g>
<g>
	<polygon points="142,156 147,164 138,164" fill="#aaff00"/>
	<line x1="142" y1="220" x2="142" y2="163" stroke="#aaff00" stroke-width="2"/>
</g>
<g>
	<polygon points="137,218 128,220 131,211" fill="#aaff00"/>
	<line x1="105" y1="207" x2="130" y2="216" stroke="#aaff00" stroke-width="2"/>
</g>
<g>
	<polygon points="60,199 68,196 67,205" fill="#aaff00"/>
	<line x1="105" y1="207" x2="67" y2="200" stroke="#aaff00" stroke-width="2"/>
</g>
<g>
	<polygon points="100,74 104,82 95,82" fill="#aaff00"/>
	<line x1="105" y1="207" x2="100" y2="81" stroke="#aaff00" stroke-width="2"/>
</g>
<g>
	<polygon points="65,155 67,163 59,162" fill="#aaff00"/>
	<line x1="56" y1="199" x2="63" y2="162" stroke="#aaff00" stroke-width="2"/>
</g>
<g>
	<polygon points="46,239 44,231 53,232" fill="#aaff00"/>
	<line x1="56" y1="199" x2="48" y2="232" stroke="#aaff00" stroke-width="2"/>
</g>
<g>
	<polygon points="8,121 17,120 13,128" fill="#aaff00"/>
	<line x1="66" y1="151" x2="15" y2="124" stroke="#aaff00" stroke-width="2"/>
</g>
<g>
	<polygon points="46,239 44,231 52,232" fill="#aaff00"/>
	<line x1="66" y1="151" x2="48" y2="232" stroke="#aaff00" stroke-width="2"/>
</g>
<g>
	<polygon points="133,263 125,266 127,257" fill="#aaff00"/>
	<line x1="46" y1="244" x2="126" y2="262" stroke="#aaff00" stroke-width="2"/>
</g>
<g>
	<polygon points="9,251 16,245 17,254" fill="#aaff00"/>
	<line x1="46" y1="244" x2="16" y2="249" stroke="#aaff00" stroke-width="2"/>
</g>
<g>
	<polygon points="54,290 48,283 57,282" fill="#aaff00"/>
	<line x1="46" y1="244" x2="52" y2="283" stroke="#aaff00" stroke-width="2"/>
</g>
<g>
	<polygon points="7,291 9,282 16,288" fill="#aaff00"/>
	<line x1="46" y1="244" x2="12" y2="285" stroke="#aaff00" stroke-width="2"/>
</g>
<g>
	<polygon points="7,201 16,204 9,210" fill="#aaff00"/>
	<line x1="46" y1="244" x2="12" y2="206" stroke="#aaff00" stroke-width="2"/>
</g>
<g>
	<polygon points="198,44 202,52 193,51" fill="#aaff00"/>
	<line x1="183" y1="225" x2="197" y2="51" stroke="#aaff00" stroke-width="2"/>
</g>
<g>
	<polygon points="69,153 78,153 73,161" fill="#aaff00"/>
	<line x1="183" y1="225" x2="75" y2="157" stroke="#aaff00" stroke-width="2"/>
</g>
<g>
	<polygon points="217,198 213,207 208,199" fill="#aaff00"/>
	<line x1="183" y1="225" x2="211" y2="203" stroke="#aaff00" stroke-width="2"/>
</g>
<g>
	<polygon points="70,150 77,145 78,153" fill="#aaff00"/>
	<line x1="187" y1="136" x2="77" y2="149" stroke="#aaff00" stroke-width="2"/>
</g>
<g>
	<polygon points="69,148 73,140 78,148" fill="#aaff00"/>
	<line x1="147" y1="99" x2="75" y2="144" stroke="#aaff00" stroke-width="2"/>
</g>
<g>
	<polygon points="294,14 300,21 292,22" fill="#aaff00"/>
	<line x1="307" y1="73" x2="296" y2="21" stroke="#aaff00" stroke-width="2"/>
</g>
<g>
	<polygon points="151,98 158,92 159,101" fill="#aaff00"/>
	<line x1="307" y1="73" x2="158" y2="97" stroke="#aaff00" stroke-width="2"/>
</g>
<g>
	<polygon points="325,114 317,109 326,105" fill="#aaff00"/>
	<line x1="307" y1="73" x2="322" y2="108" stroke="#aaff00" stroke-width="2"/>
</g>
<g>
	<polygon points="203,38 209,32 212,40" fill="#aaff00"/>
	<line x1="294" y1="10" x2="210" y2="36" stroke="#aaff00" stroke-width="2"/>
</g>
<g>
	<polygon points="224,193 228,185 233,192" fill="#aaff00"/>
	<line x1="327" y1="119" x2="230" y2="189" stroke="#aaff00" stroke-width="2"/>
</g>
<g>
	<polygon points="278,114 284,121 276,122" fill="#aaff00"/>
	<line x1="286" y1="147" x2="280" y2="121" stroke="#aaff00" stroke-width="2"/>
</g>
<g>
	<polygon points="305,77 307,86 299,83" fill="#aaff00"/>
	<line x1="286" y1="147" x2="303" y2="84" stroke="#aaff00" stroke-width="2"/>
</g>
<g>
	<polygon points="194,90 203,90 199,98" fill="#aaff00"/>
	<line x1="286" y1="147" x2="200" y2="94" stroke="#aaff00" stroke-width="2"/>
</g>
<g>
	<polygon points="162,55 171,58 164,64" fill="#aaff00"/>
	<line x1="191" y1="88" x2="167" y2="60" stroke="#aaff00" stroke-width="2"/>
</g>
<g>
	<polygon points="71,100 78,95 79,104" fill="#aaff00"/>
	<line x1="191" y1="88" x2="78" y2="99" stroke="#aaff00" stroke-width="2"/>
</g>
<g>
	<polygon points="224,108 215,108 219,100" fill="#aaff00"/>
	<line x1="191" y1="88" x2="218" y2="104" stroke="#aaff00" stroke-width="2"/>
</g>
<g>
	<polygon points="194,41 188,47 185,39" fill="#aaff00"/>
	<line x1="160" y1="52" x2="187" y2="43" stroke="#aaff00" stroke-width="2"/>
</g>
<g>
	<polygon points="66,146 61,138 70,138" fill="#aaff00"/>
	<line x1="67" y1="101" x2="66" y2="139" stroke="#aaff00" stroke-width="2"/>
</g>
<g>
	<polygon points="221,191 217,183 226,184" fill="#aaff00"/>
	<line x1="228" y1="111" x2="221" y2="184" stroke="#aaff00" stroke-width="2"/>
</g>
<g>
	<polygon points="194,41 188,47 185,39" fill="#aaff00"/>
	<line x1="100" y1="70" x2="187" y2="43" stroke="#aaff00" stroke-width="2"/>
</g>
<g>
	<polygon points="91,37 97,43 88,46" fill="#aaff00"/>
	<line x1="100" y1="70" x2="93" y2="44" stroke="#aaff00" stroke-width="2"/>
</g>
<g>
	<polygon points="222,191 222,182 230,186" fill="#aaff00"/>
	<line x1="240" y1="155" x2="225" y2="185" stroke="#aaff00" stroke-width="2"/>
</g>

<g fill="#000000">
	<circle cx="322" cy="294" r="4"/>
</g>
<g fill="#000000">
	<circle cx="272" cy="268" r="4"/>
</g>
<g fill="#000000">
	<circle cx="394" cy="232" r="4"/>
</g>
<g fill="#000000">
	<circle cx="182" cy="224" r="4"/>
</g>
<g fill="#000000">
	<circle cx="104" cy="206" r="4"/>
</g>
<g fill="#000000">
	<circle cx="285" cy="146" r="4"/>
</g>
<g fill="#000000">
	<circle cx="373" cy="115" r="4"/>
</g>
<g fill="#000000">
	<circle cx="394" cy="294" r="4"/>
</g>
<g fill="#000000">
	<circle cx="198" cy="39" r="4"/>
</g>
<g fill="#000000">
	<circle cx="65" cy="150" r="4"/>
</g>
<g fill="#000000">
	<circle cx="220" cy="195" r="4"/>
</g>
<g fill="#000000">
	<circle cx="141" cy="219" r="4"/>
</g>
<g fill="#000000">
	<circle cx="55" cy="198" r="4"/>
</g>
<g fill="#000000">
	<circle cx="99" cy="69" r="4"/>
</g>
<g fill="#000000">
	<circle cx="277" cy="109" r="4"/>
</g>
<g fill="#000000">
	<circle cx="306" cy="72" r="4"/>
</g>
<g fill="#000000">
	<circle cx="190" cy="87" r="4"/>
</g>
<g fill="#000000">
	<circle cx="231" cy="4" r="4"/>
</g>
<g fill="#000000">
	<circle cx="89" cy="32" r="4"/>
</g>
<g fill="#000000">
	<circle cx="4" cy="118" r="4"/>
</g>
<g fill="#000000">
	<circle cx="45" cy="243" r="4"/>
</g>
<g fill="#000000">
	<circle cx="276" cy="228" r="4"/>
</g>
<g fill="#000000">
	<circle cx="280" cy="190" r="4"/>
</g>
<g fill="#000000">
	<circle cx="228" cy="246" r="4"/>
</g>
<g fill="#000000">
	<circle cx="137" cy="264" r="4"/>
</g>
<g fill="#000000">
	<circle cx="142" cy="151" r="4"/>
</g>
<g fill="#000000">
	<circle cx="49" cy="4" r="4"/>
</g>
<g fill="#000000">
	<circle cx="113" cy="4" r="4"/>
</g>
<g fill="#000000">
	<circle cx="4" cy="5" r="4"/>
</g>
<g fill="#000000">
	<circle cx="156" cy="4" r="4"/>
</g>
<g fill="#000000">
	<circle cx="4" cy="251" r="4"/>
</g>
<g fill="#000000">
	<circle cx="54" cy="294" r="4"/>
</g>
<g fill="#000000">
	<circle cx="4" cy="294" r="4"/>
</g>
<g fill="#000000">
	<circle cx="4" cy="197" r="4"/>
</g>
<g fill="#000000">
	<circle cx="180" cy="294" r="4"/>
</g>
<g fill="#000000">
	<circle cx="107" cy="294" r="4"/>
</g>
<g fill="#000000">
	<circle cx="171" cy="179" r="4"/>
</g>
<g fill="#000000">
	<circle cx="103" cy="146" r="4"/>
</g>
<g fill="#000000">
	<circle cx="339" cy="174" r="4"/>
</g>
<g fill="#000000">
	<circle cx="256" cy="49" r="4"/>
</g>
<g fill="#000000">
	<circle cx="186" cy="135" r="4"/>
</g>
<g fill="#000000">
	<circle cx="239" cy="154" r="4"/>
</g>
<g fill="#000000">
	<circle cx="346" cy="230" r="4"/>
</g>
<g fill="#000000">
	<circle cx="383" cy="172" r="4"/>
</g>
<g fill="#000000">
	<circle cx="293" cy="9" r="4"/>
</g>
<g fill="#000000">
	<circle cx="146" cy="98" r="4"/>
</g>
<g fill="#000000">
	<circle cx="326" cy="118" r="4"/>
</g>
<g fill="#000000">
	<circle cx="159" cy="51" r="4"/>
</g>
<g fill="#000000">
	<circle cx="66" cy="100" r="4"/>
</g>
<g fill="#000000">
	<circle cx="227" cy="110" r="4"/>
</g>

</g>

</svg>
